<svg id="Layer_1" data-name="Layer 1" xmlns="http://www.w3.org/2000/svg" xmlns:xlink="http://www.w3.org/1999/xlink" viewBox="0 0 85.04 85.04"><defs><style>.cls-1{fill:#131314;}.cls-2{fill:#9f9c9c;}.cls-3{fill:#cfc7bc;}.cls-4{fill:#36312f;}.cls-5{fill:#b5b5b4;}.cls-6{fill:#4c4c4c;}.cls-7{fill:#666;}.cls-8{fill:#058c5a;}.cls-10,.cls-9{opacity:0.5;}.cls-9{fill:url(#Безымянный_градиент_66);}.cls-10{fill:url(#Безымянный_градиент_66-2);}.cls-11{fill:#b4b4b4;}.cls-12{fill:#cdcdcd;}.cls-13{fill:#fff;}.cls-14,.cls-17,.cls-18,.cls-23,.cls-31{fill:none;}.cls-14,.cls-17,.cls-18{stroke:#fff;}.cls-14,.cls-17,.cls-18,.cls-23,.cls-29,.cls-30,.cls-31{stroke-miterlimit:10;}.cls-14{stroke-width:0.47px;}.cls-15,.cls-30{fill:#ffae46;}.cls-16{fill:#00b05d;}.cls-17,.cls-18{stroke-width:0.5px;}.cls-17{opacity:0.37;}.cls-19{fill:#d0c8bd;}.cls-20{fill:#e4e4e0;}.cls-21{fill:#948c84;}.cls-22{fill:#0b0c0b;}.cls-23{stroke:#f5f5f6;stroke-width:0.75px;}.cls-24{fill:#e5e4e1;}.cls-25{fill:#cbc5ba;}.cls-26{fill:#313132;}.cls-27{fill:#e4e3e3;}.cls-28{fill:#050708;}.cls-29{fill:#f9943c;stroke:#666;stroke-width:0.023px;}.cls-30{stroke:#b4b4b4;stroke-width:0.025px;}.cls-31{stroke:gray;stroke-width:0.011px;}.cls-32{fill:#c5c3c2;}.cls-33{fill:#908f89;}.cls-34{fill:#e4e4e4;}.cls-35{fill:#8c8564;}.cls-36{fill:#b7ae81;}.cls-37{fill:#5f5c44;}.cls-38{fill:#99906c;}.cls-39{fill:#e8ba36;}</style><linearGradient id="Безымянный_градиент_66" x1="168.234" y1="-45.821" x2="168.234" y2="-49.97" gradientTransform="translate(-45.821 -125.714) rotate(90)" gradientUnits="userSpaceOnUse"><stop offset="0" stop-color="#fff" stop-opacity="0.5"/><stop offset="1" stop-opacity="0.5"/></linearGradient><linearGradient id="Безымянный_градиент_66-2" x1="168.234" y1="-60.807" x2="168.234" y2="-64.955" xlink:href="#Безымянный_градиент_66"/></defs><g id="top"><path class="cls-1" d="M0,0V85.04H85.04V0ZM9.922,79.512a4.394,4.394,0,1,1,4.393-4.393A4.393,4.393,0,0,1,9.922,79.512Zm0-65.2a4.394,4.394,0,1,1,4.393-4.393A4.393,4.393,0,0,1,9.922,14.315Zm65.2,65.2a4.394,4.394,0,1,1,4.393-4.393A4.394,4.394,0,0,1,75.119,79.512Zm0-65.2a4.394,4.394,0,1,1,4.393-4.393A4.394,4.394,0,0,1,75.119,14.315Z"/><path class="cls-2" d="M9.921,3.946a5.976,5.976,0,1,0,5.953,5.975A5.963,5.963,0,0,0,9.921,3.946Zm0,10.369a4.394,4.394,0,1,1,4.393-4.393A4.393,4.393,0,0,1,9.922,14.315Z"/><path class="cls-2" d="M75.118,3.946a5.976,5.976,0,1,0,5.953,5.975A5.964,5.964,0,0,0,75.118,3.946Zm0,10.369a4.394,4.394,0,1,1,4.393-4.393A4.394,4.394,0,0,1,75.119,14.315Z"/><path class="cls-2" d="M9.921,69.143a5.976,5.976,0,1,0,5.953,5.975A5.963,5.963,0,0,0,9.921,69.143Zm0,10.369a4.394,4.394,0,1,1,4.393-4.393A4.393,4.393,0,0,1,9.922,79.512Z"/><path class="cls-2" d="M75.118,69.143a5.976,5.976,0,1,0,5.953,5.975A5.964,5.964,0,0,0,75.118,69.143Zm0,10.369a4.394,4.394,0,1,1,4.393-4.393A4.394,4.394,0,0,1,75.119,79.512Z"/><rect class="cls-3" x="74.882" y="26.65" width="4.255" height="3.438"/><rect class="cls-3" x="74.841" y="19.521" width="4.255" height="3.436"/><rect class="cls-4" x="75.191" y="22.192" width="3.606" height="5.161"/><path class="cls-5" d="M77.178,25.275v.192h.362v.166h-.362v.616h-.2l-.726-.623v-.159h.787v-.192Zm-.138.358h-.581l.581.5Z"/><path class="cls-5" d="M76.446,24.354l1.094.582v.185l-1.135-.62v.733h-.152v-.88Z"/><path class="cls-5" d="M76.9,23.41a.938.938,0,0,1,.509.108.431.431,0,0,1,0,.675,1.245,1.245,0,0,1-1.012,0,.427.427,0,0,1,0-.675A.935.935,0,0,1,76.9,23.41Zm.393.227a.586.586,0,0,0-.165-.041,2.093,2.093,0,0,0-.228-.011,2.148,2.148,0,0,0-.228.011.524.524,0,0,0-.164.042.224.224,0,0,0-.1.083.236.236,0,0,0-.034.134.24.24,0,0,0,.034.134.223.223,0,0,0,.1.085.576.576,0,0,0,.167.04,2.2,2.2,0,0,0,.225.011,2.044,2.044,0,0,0,.226-.01.527.527,0,0,0,.162-.041.221.221,0,0,0,.1-.08.241.241,0,0,0,.036-.139.255.255,0,0,0-.034-.135A.23.23,0,0,0,77.289,23.637Z"/><rect class="cls-3" x="74.882" y="62.083" width="4.255" height="3.438"/><rect class="cls-3" x="74.841" y="54.954" width="4.255" height="3.436"/><rect class="cls-4" x="75.191" y="57.626" width="3.606" height="5.161"/><path class="cls-5" d="M77.54,61.146v.7h-.131v-.268h-.863v.268h-.117a.807.807,0,0,0-.009-.116.279.279,0,0,0-.027-.095.176.176,0,0,0-.054-.063.181.181,0,0,0-.09-.026v-.134h1.16v-.263Z"/><path class="cls-5" d="M76.9,60.126a.938.938,0,0,1,.509.108.432.432,0,0,1,0,.676.946.946,0,0,1-.505.107.936.936,0,0,1-.507-.109.427.427,0,0,1,0-.675A.944.944,0,0,1,76.9,60.126Zm.393.228a.525.525,0,0,0-.165-.041A2.093,2.093,0,0,0,76.9,60.3a2.148,2.148,0,0,0-.228.011.5.5,0,0,0-.164.042.218.218,0,0,0-.1.083.235.235,0,0,0-.034.133.241.241,0,0,0,.034.135.221.221,0,0,0,.1.084.517.517,0,0,0,.167.04,1.948,1.948,0,0,0,.225.011c.09,0,.165,0,.226-.009a.558.558,0,0,0,.162-.041.223.223,0,0,0,.1-.081.239.239,0,0,0,.036-.139.254.254,0,0,0-.034-.134A.218.218,0,0,0,77.289,60.354Z"/><path class="cls-5" d="M76.9,59.178a.938.938,0,0,1,.509.108.431.431,0,0,1,0,.675.947.947,0,0,1-.505.106.938.938,0,0,1-.507-.107.428.428,0,0,1,0-.676A.945.945,0,0,1,76.9,59.178Zm.393.227a.586.586,0,0,0-.165-.041,1.889,1.889,0,0,0-.228-.01,1.93,1.93,0,0,0-.228.01.524.524,0,0,0-.164.042.223.223,0,0,0-.1.082.283.283,0,0,0,0,.269.229.229,0,0,0,.1.085.576.576,0,0,0,.167.04,2.2,2.2,0,0,0,.225.011,2.044,2.044,0,0,0,.226-.01.527.527,0,0,0,.162-.041.228.228,0,0,0,.1-.08.241.241,0,0,0,.036-.139.25.25,0,0,0-.034-.135A.224.224,0,0,0,77.289,59.405Z"/><path class="cls-5" d="M77.54,58.228V59.1h-.18l-.156-.182c-.052-.061-.1-.117-.154-.17a1.742,1.742,0,0,0-.256-.227.368.368,0,0,0-.2-.062.2.2,0,0,0-.157.066.275.275,0,0,0-.057.185.569.569,0,0,0,.028.17.669.669,0,0,0,.085.18v.008h-.182a.779.779,0,0,1-.055-.164.816.816,0,0,1-.026-.2.467.467,0,0,1,.1-.31.32.32,0,0,1,.259-.113.482.482,0,0,1,.258.073.913.913,0,0,1,.105.08c.034.03.073.067.115.11.06.061.119.125.176.191l.157.184v-.692Z"/><rect class="cls-3" x="5.943" y="62.083" width="4.255" height="3.438"/><rect class="cls-3" x="5.902" y="54.954" width="4.255" height="3.436"/><rect class="cls-4" x="6.253" y="57.626" width="3.606" height="5.161"/><path class="cls-5" d="M8.6,61.146v.7H8.47v-.268H7.607v.268H7.49a.807.807,0,0,0-.009-.116.279.279,0,0,0-.027-.095.176.176,0,0,0-.054-.063.181.181,0,0,0-.09-.026v-.134H8.47v-.263Z"/><path class="cls-5" d="M7.957,60.126a.938.938,0,0,1,.509.108.378.378,0,0,1,.162.337.373.373,0,0,1-.164.339.946.946,0,0,1-.505.107.936.936,0,0,1-.507-.109.427.427,0,0,1,0-.675A.944.944,0,0,1,7.957,60.126Zm.393.228a.525.525,0,0,0-.165-.041,2.093,2.093,0,0,0-.228-.011,2.148,2.148,0,0,0-.228.011.5.5,0,0,0-.164.042.218.218,0,0,0-.1.083.235.235,0,0,0-.034.133.241.241,0,0,0,.034.135.221.221,0,0,0,.1.084.517.517,0,0,0,.167.04,1.948,1.948,0,0,0,.225.011c.09,0,.165,0,.226-.009a.558.558,0,0,0,.162-.041.223.223,0,0,0,.1-.081.239.239,0,0,0,.036-.139.254.254,0,0,0-.034-.134A.218.218,0,0,0,8.35,60.354Z"/><path class="cls-5" d="M7.957,59.178a.938.938,0,0,1,.509.108.377.377,0,0,1,.162.337.372.372,0,0,1-.164.338.947.947,0,0,1-.505.106.938.938,0,0,1-.507-.107.428.428,0,0,1,0-.676A.945.945,0,0,1,7.957,59.178Zm.393.227a.586.586,0,0,0-.165-.041,1.889,1.889,0,0,0-.228-.01,1.93,1.93,0,0,0-.228.01.524.524,0,0,0-.164.042.223.223,0,0,0-.1.082.283.283,0,0,0,0,.269.229.229,0,0,0,.1.085.576.576,0,0,0,.167.04,2.2,2.2,0,0,0,.225.011,2.044,2.044,0,0,0,.226-.01.527.527,0,0,0,.162-.041.228.228,0,0,0,.1-.08.241.241,0,0,0,.036-.139.25.25,0,0,0-.034-.135A.224.224,0,0,0,8.35,59.405Z"/><path class="cls-5" d="M8.6,58.228V59.1h-.18l-.156-.182c-.052-.061-.1-.117-.154-.17a1.742,1.742,0,0,0-.256-.227.368.368,0,0,0-.2-.062.2.2,0,0,0-.157.066.275.275,0,0,0-.057.185.569.569,0,0,0,.028.17.7.7,0,0,0,.085.18v.008H7.368a.779.779,0,0,1-.055-.164.816.816,0,0,1-.026-.2.467.467,0,0,1,.1-.31.32.32,0,0,1,.259-.113.482.482,0,0,1,.258.073.913.913,0,0,1,.105.08c.034.03.073.067.115.11.06.061.119.125.176.191l.157.184v-.692Z"/><g id="Колодка_8-13" data-name="Колодка 8-13"><rect class="cls-6" x="14.72" y="57.637" width="5.2" height="5.2"/><path class="cls-7" d="M18.92,58.637v3.2h-3.2v-3.2h3.2m2-2h-7.2v7.2h7.2v-7.2Z"/><rect class="cls-6" x="21.92" y="57.637" width="5.2" height="5.2"/><path class="cls-7" d="M26.12,58.637v3.2h-3.2v-3.2h3.2m2-2h-7.2v7.2h7.2v-7.2Z"/><rect class="cls-6" x="29.12" y="57.637" width="5.2" height="5.2"/><path class="cls-7" d="M33.32,58.637v3.2h-3.2v-3.2h3.2m2-2h-7.2v7.2h7.2v-7.2Z"/><rect class="cls-6" x="36.32" y="57.637" width="5.2" height="5.2"/><path class="cls-7" d="M40.52,58.637v3.2h-3.2v-3.2h3.2m2-2h-7.2v7.2h7.2v-7.2Z"/><rect class="cls-6" x="43.52" y="57.637" width="5.2" height="5.2"/><path class="cls-7" d="M47.72,58.637v3.2h-3.2v-3.2h3.2m2-2h-7.2v7.2h7.2v-7.2Z"/><rect class="cls-6" x="50.72" y="57.637" width="5.2" height="5.2"/><path class="cls-7" d="M54.92,58.637v3.2h-3.2v-3.2h3.2m2-2h-7.2v7.2h7.2v-7.2Z"/><rect class="cls-6" x="57.92" y="57.637" width="5.2" height="5.2"/><path class="cls-7" d="M62.12,58.637v3.2h-3.2v-3.2h3.2m2-2h-7.2v7.2h7.2v-7.2Z"/><rect class="cls-6" x="65.12" y="57.637" width="5.2" height="5.2"/><path class="cls-7" d="M69.32,58.637v3.2h-3.2v-3.2h3.2m2-2h-7.2v7.2h7.2v-7.2Z"/><rect class="cls-6" x="14.72" y="22.204" width="5.2" height="5.2"/><path class="cls-7" d="M18.92,23.2v3.2h-3.2V23.2h3.2m2-2h-7.2v7.2h7.2V21.2Z"/><rect class="cls-6" x="21.92" y="22.204" width="5.2" height="5.2"/><path class="cls-7" d="M26.12,23.2v3.2h-3.2V23.2h3.2m2-2h-7.2v7.2h7.2V21.2Z"/><rect class="cls-6" x="29.12" y="22.204" width="5.2" height="5.2"/><path class="cls-7" d="M33.32,23.2v3.2h-3.2V23.2h3.2m2-2h-7.2v7.2h7.2V21.2Z"/><rect class="cls-6" x="36.32" y="22.204" width="5.2" height="5.2"/><path class="cls-7" d="M40.52,23.2v3.2h-3.2V23.2h3.2m2-2h-7.2v7.2h7.2V21.2Z"/><rect class="cls-6" x="43.52" y="22.204" width="5.2" height="5.2"/><path class="cls-7" d="M47.72,23.2v3.2h-3.2V23.2h3.2m2-2h-7.2v7.2h7.2V21.2Z"/><rect class="cls-6" x="50.72" y="22.204" width="5.2" height="5.2"/><path class="cls-7" d="M54.92,23.2v3.2h-3.2V23.2h3.2m2-2h-7.2v7.2h7.2V21.2Z"/><rect class="cls-6" x="57.92" y="22.204" width="5.2" height="5.2"/><path class="cls-7" d="M62.12,23.2v3.2h-3.2V23.2h3.2m2-2h-7.2v7.2h7.2V21.2Z"/><rect class="cls-6" x="65.12" y="22.204" width="5.2" height="5.2"/><path class="cls-7" d="M69.32,23.2v3.2h-3.2V23.2h3.2m2-2h-7.2v7.2h7.2V21.2Z"/></g><rect class="cls-8" x="-0.354" y="32.953" width="19.843" height="19.134" transform="translate(-32.953 52.088) rotate(-90)"/><rect class="cls-9" y="32.599" width="4.148" height="19.843"/><rect class="cls-10" x="14.986" y="32.599" width="4.148" height="19.843"/><path class="cls-11" d="M12.941,37.184a2.947,2.947,0,0,1,.106.406,3.07,3.07,0,0,1,.056.43H13.1l-6.89,1.338a2.3,2.3,0,0,1-.116-.418,2.883,2.883,0,0,1-.053-.417h.007Z"/><path class="cls-12" d="M12.941,37.184l-6.9,1.339H6.037a3.541,3.541,0,0,1,6.9-1.34Z"/><path class="cls-12" d="M6.206,39.359l6.89-1.338a3.534,3.534,0,0,1-6.89,1.338Z"/><path class="cls-11" d="M12.941,45.688a2.947,2.947,0,0,1,.106.406,3.051,3.051,0,0,1,.056.43H13.1l-6.89,1.338a2.3,2.3,0,0,1-.116-.418,2.883,2.883,0,0,1-.053-.417h.007Z"/><path class="cls-12" d="M12.941,45.688l-6.9,1.339H6.037a3.541,3.541,0,0,1,6.9-1.34Z"/><path class="cls-12" d="M6.206,47.863l6.89-1.338a3.534,3.534,0,0,1-6.89,1.338Z"/><path class="cls-13" d="M1.85,31.014V29.368H.267v-.42H1.85v-1.66H2.3v1.66H3.881v.42H2.3v1.646Z"/><path class="cls-13" d="M2.049,53.134h.42v3.614h-.42Z"/><path class="cls-13" d="M54.635,31.5l.914-2.639h.461l-1.187,3.2H54.45l-1.185-3.2h.459Z"/><path class="cls-13" d="M58.763,31.04a1.17,1.17,0,0,1-.375.783,1.224,1.224,0,0,1-.837.276,1.128,1.128,0,0,1-.909-.406,1.635,1.635,0,0,1-.341-1.088V30.3a1.812,1.812,0,0,1,.159-.784,1.2,1.2,0,0,1,.451-.52,1.267,1.267,0,0,1,.677-.181,1.154,1.154,0,0,1,.817.285,1.19,1.19,0,0,1,.358.787H58.34a.92.92,0,0,0-.239-.555.722.722,0,0,0-.513-.172.755.755,0,0,0-.634.3,1.372,1.372,0,0,0-.23.851v.31a1.41,1.41,0,0,0,.218.829.7.7,0,0,0,.609.308.812.812,0,0,0,.539-.159.879.879,0,0,0,.25-.555Z"/><path class="cls-13" d="M61.692,31.04a1.17,1.17,0,0,1-.375.783,1.225,1.225,0,0,1-.838.276,1.126,1.126,0,0,1-.908-.406,1.636,1.636,0,0,1-.342-1.088V30.3a1.826,1.826,0,0,1,.159-.784,1.2,1.2,0,0,1,.452-.52,1.266,1.266,0,0,1,.676-.181,1.156,1.156,0,0,1,.818.285,1.19,1.19,0,0,1,.358.787h-.424a.919.919,0,0,0-.238-.555.723.723,0,0,0-.514-.172.755.755,0,0,0-.633.3,1.366,1.366,0,0,0-.23.851v.31a1.4,1.4,0,0,0,.218.829.7.7,0,0,0,.608.308.81.81,0,0,0,.539-.159.879.879,0,0,0,.25-.555Z"/><path class="cls-13" d="M65.744,31.635a.971.971,0,0,1-.454.349,1.831,1.831,0,0,1-.678.115,1.315,1.315,0,0,1-.694-.183,1.221,1.221,0,0,1-.469-.522,1.814,1.814,0,0,1-.171-.785v-.278a1.687,1.687,0,0,1,.338-1.122,1.179,1.179,0,0,1,.948-.4,1.21,1.21,0,0,1,.806.256,1.118,1.118,0,0,1,.374.726h-.422a.7.7,0,0,0-.756-.637.743.743,0,0,0-.642.3,1.449,1.449,0,0,0-.221.863v.262a1.366,1.366,0,0,0,.246.857.8.8,0,0,0,.665.317,1.483,1.483,0,0,0,.416-.052.643.643,0,0,0,.294-.178v-.717h-.74v-.345h1.16Z"/><path class="cls-13" d="M68.906,32.055h-.424L66.871,29.59v2.465h-.424v-3.2h.424l1.615,2.477V28.856h.42Z"/><path class="cls-13" d="M69.655,32.055v-3.2h.9a1.446,1.446,0,0,1,.739.185,1.243,1.243,0,0,1,.5.525,1.707,1.707,0,0,1,.178.782v.2a1.716,1.716,0,0,1-.175.793,1.232,1.232,0,0,1-.5.524,1.554,1.554,0,0,1-.755.186Zm.422-2.854V31.71h.444a.967.967,0,0,0,.759-.3,1.253,1.253,0,0,0,.272-.865v-.187a1.27,1.27,0,0,0-.256-.847.911.911,0,0,0-.727-.307Z"/><path class="cls-13" d="M13.069,31.5l.914-2.639h.461l-1.186,3.2h-.373l-1.185-3.2h.459Z"/><path class="cls-13" d="M15.191,29.678l.012.263a.877.877,0,0,1,.705-.307.68.68,0,0,1,.679.382.88.88,0,0,1,.758-.382c.521,0,.787.276.8.828v1.593h-.406V30.486a.543.543,0,0,0-.117-.381.513.513,0,0,0-.391-.126.524.524,0,0,0-.548.5v1.577h-.41V30.5a.454.454,0,0,0-.507-.519.542.542,0,0,0-.547.34v1.736h-.407V29.678Z"/><path class="cls-13" d="M18.646,30.844a1.412,1.412,0,0,1,.137-.628,1.014,1.014,0,0,1,.942-.582,1,1,0,0,1,.786.336,1.292,1.292,0,0,1,.3.894v.029a1.424,1.424,0,0,1-.132.623,1.011,1.011,0,0,1-.38.429,1.052,1.052,0,0,1-.569.154,1,1,0,0,1-.783-.336,1.287,1.287,0,0,1-.3-.89Zm.408.049a1.019,1.019,0,0,0,.184.635.622.622,0,0,0,.983,0,1.106,1.106,0,0,0,.183-.68,1.024,1.024,0,0,0-.185-.634.6.6,0,0,0-.494-.242.584.584,0,0,0-.486.24A1.1,1.1,0,0,0,19.054,30.893Z"/><path class="cls-13" d="M21.872,29.1v.576h.443v.314h-.443v1.476a.336.336,0,0,0,.058.215.256.256,0,0,0,.2.071.969.969,0,0,0,.193-.026v.328a1.234,1.234,0,0,1-.313.043.508.508,0,0,1-.411-.165.714.714,0,0,1-.137-.468V29.992h-.434v-.314h.434V29.1Z"/><path class="cls-13" d="M55.23,54.586a1.952,1.952,0,0,1-.79-.384.729.729,0,0,1-.247-.561.775.775,0,0,1,.3-.625,1.206,1.206,0,0,1,.786-.247,1.319,1.319,0,0,1,.587.127.978.978,0,0,1,.4.352.9.9,0,0,1,.141.489h-.423a.588.588,0,0,0-.186-.457.749.749,0,0,0-.52-.167.767.767,0,0,0-.487.138.462.462,0,0,0-.175.382.417.417,0,0,0,.166.332,1.622,1.622,0,0,0,.565.247,2.582,2.582,0,0,1,.624.248.95.95,0,0,1,.334.314.816.816,0,0,1,.108.425.747.747,0,0,1-.3.623,1.3,1.3,0,0,1-.811.234,1.5,1.5,0,0,1-.615-.126,1.028,1.028,0,0,1-.441-.347.841.841,0,0,1-.155-.5h.424a.549.549,0,0,0,.215.458.9.9,0,0,0,.572.168.822.822,0,0,0,.512-.137.439.439,0,0,0,.177-.371.434.434,0,0,0-.164-.363A1.883,1.883,0,0,0,55.23,54.586Z"/><path class="cls-13" d="M59.167,53.157H58.139v2.855h-.42V53.157H56.693v-.344h2.474Z"/><path class="cls-13" d="M61.45,54.533H60.064v1.134h1.611v.345H59.642v-3.2h2.011v.344H60.064v1.031H61.45Z"/><path class="cls-13" d="M62.621,54.76v1.252H62.2v-3.2h1.18a1.182,1.182,0,0,1,.823.268.907.907,0,0,1,.3.709.893.893,0,0,1-.291.718,1.237,1.237,0,0,1-.834.252Zm0-.346h.758a.765.765,0,0,0,.52-.159.587.587,0,0,0,.179-.461.607.607,0,0,0-.179-.458.718.718,0,0,0-.495-.179h-.783Z"/><path class="cls-13" d="M66.153,56.012v-3.2h.9a1.454,1.454,0,0,1,.738.184,1.249,1.249,0,0,1,.5.525,1.7,1.7,0,0,1,.178.783v.2a1.719,1.719,0,0,1-.175.793,1.23,1.23,0,0,1-.5.523,1.544,1.544,0,0,1-.755.187Zm.421-2.855v2.51h.445a.967.967,0,0,0,.759-.3,1.257,1.257,0,0,0,.271-.864v-.186a1.269,1.269,0,0,0-.256-.848.915.915,0,0,0-.726-.308Z"/><path class="cls-13" d="M69.557,56.012h-.422v-3.2h.422Z"/><path class="cls-13" d="M71.5,54.718h-.752v1.294h-.424v-3.2h1.059a1.253,1.253,0,0,1,.832.246.886.886,0,0,1,.291.716.865.865,0,0,1-.161.521.963.963,0,0,1-.449.332l.751,1.357v.027H72.2Zm-.752-.345H71.4a.736.736,0,0,0,.5-.163.549.549,0,0,0,.185-.436.581.581,0,0,0-.176-.456.759.759,0,0,0-.511-.161h-.647Z"/><path class="cls-13" d="M77.025,48.364v1.787l1.116.4v.58L73.875,49.5v-.492l4.266-1.632v.577Zm-.46,1.617v-1.45l-2,.727Z"/><path class="cls-13" d="M76.708,44.658v-.592h.443v.592h.99V45.2h-.99v1.943h-.32l-2.956-1.911v-.577Zm0,1.872V45.2H74.616l.118.065Z"/><path class="cls-13" d="M76.266,41.5a1.322,1.322,0,0,1,.325.406,1.1,1.1,0,0,1,.123.517,1.138,1.138,0,0,1-.181.643,1.186,1.186,0,0,1-.512.423,1.733,1.733,0,0,1-.728.15,1.792,1.792,0,0,1-.77-.162A1.205,1.205,0,0,1,74,43.015a1.32,1.32,0,0,1-.181-.7,1.189,1.189,0,0,1,.473-1,2.062,2.062,0,0,1,1.29-.365h.159a2.754,2.754,0,0,1,1.817.492,1.893,1.893,0,0,1,.588,1.486v.1h-.46v-.114A1.292,1.292,0,0,0,76.266,41.5Zm0,.835a.836.836,0,0,0-.167-.5.976.976,0,0,0-.413-.336h-.217a1.485,1.485,0,0,0-.867.232.688.688,0,0,0-.334.585.7.7,0,0,0,.274.575,1.131,1.131,0,0,0,.722.216,1.178,1.178,0,0,0,.719-.209A.663.663,0,0,0,76.266,42.335Z"/><path class="cls-13" d="M74.989,37.621a.987.987,0,0,1,.568.169,1.148,1.148,0,0,1,.39.455,1.214,1.214,0,0,1,.419-.529,1.051,1.051,0,0,1,.624-.2,1.112,1.112,0,0,1,.881.374,1.64,1.64,0,0,1,0,1.969,1.12,1.12,0,0,1-.88.37,1.083,1.083,0,0,1-.624-.189,1.167,1.167,0,0,1-.422-.523,1.123,1.123,0,0,1-.39.449,1.008,1.008,0,0,1-.565.164,1.1,1.1,0,0,1-.856-.346,1.47,1.47,0,0,1,0-1.821A1.1,1.1,0,0,1,74.989,37.621Zm-.727,1.257a.7.7,0,0,0,.2.517.817.817,0,0,0,1.063,0,.773.773,0,0,0,0-1.04.8.8,0,0,0-1.056.007A.689.689,0,0,0,74.262,38.878Zm2.716-.815a.784.784,0,0,0-.583.228.8.8,0,0,0-.226.593.763.763,0,0,0,.809.808.755.755,0,0,0,.571-.215.963.963,0,0,0,0-1.2A.759.759,0,0,0,76.978,38.063Z"/><path class="cls-13" d="M74.989,34.252a.993.993,0,0,1,.568.168,1.158,1.158,0,0,1,.39.456,1.214,1.214,0,0,1,.419-.529,1.051,1.051,0,0,1,.624-.2,1.112,1.112,0,0,1,.881.374,1.64,1.64,0,0,1,0,1.969,1.12,1.12,0,0,1-.88.37,1.083,1.083,0,0,1-.624-.189,1.167,1.167,0,0,1-.422-.523,1.123,1.123,0,0,1-.39.449,1.008,1.008,0,0,1-.565.164,1.1,1.1,0,0,1-.856-.346,1.47,1.47,0,0,1,0-1.821A1.1,1.1,0,0,1,74.989,34.252Zm-.727,1.257a.7.7,0,0,0,.2.517.817.817,0,0,0,1.063,0,.773.773,0,0,0,0-1.04A.8.8,0,0,0,74.467,35,.689.689,0,0,0,74.262,35.509Zm2.716-.815a.787.787,0,0,0-.583.227.806.806,0,0,0-.226.594.763.763,0,0,0,.809.808.759.759,0,0,0,.571-.215.963.963,0,0,0,0-1.2A.759.759,0,0,0,76.978,34.694Z"/><path class="cls-13" d="M83.6,52.039v2.8h-.389l-1.641-1.477a3.546,3.546,0,0,0-.605-.452,1.009,1.009,0,0,0-.482-.124.768.768,0,0,0-.548.2.71.71,0,0,0-.214.539.838.838,0,0,0,.23.629.878.878,0,0,0,.64.225v.541a1.259,1.259,0,0,1-.952-.379,1.409,1.409,0,0,1-.363-1.016,1.349,1.349,0,0,1,.312-.939,1.067,1.067,0,0,1,.831-.346,2.441,2.441,0,0,1,1.5.8l1.239,1.143V52.039Z"/><path class="cls-13" d="M80.452,48.879a.991.991,0,0,1,.568.168,1.148,1.148,0,0,1,.39.455,1.218,1.218,0,0,1,.419-.528,1.051,1.051,0,0,1,.624-.195,1.115,1.115,0,0,1,.882.373,1.638,1.638,0,0,1,0,1.969,1.119,1.119,0,0,1-.88.371,1.083,1.083,0,0,1-.624-.189,1.176,1.176,0,0,1-.422-.524,1.126,1.126,0,0,1-.39.45,1.006,1.006,0,0,1-.565.164,1.106,1.106,0,0,1-.856-.346,1.47,1.47,0,0,1,0-1.821A1.1,1.1,0,0,1,80.452,48.879Zm-.727,1.256a.7.7,0,0,0,.2.517.818.818,0,0,0,1.064,0,.776.776,0,0,0,0-1.04.8.8,0,0,0-1.057.008A.691.691,0,0,0,79.725,50.135Zm2.716-.815a.786.786,0,0,0-.583.228.8.8,0,0,0-.225.593.76.76,0,0,0,.808.808.754.754,0,0,0,.571-.215.963.963,0,0,0,0-1.2A.759.759,0,0,0,82.441,49.32Z"/><path class="cls-13" d="M83.6,47.955H79.339V46.561a1.613,1.613,0,0,1,.287-1.044,1.032,1.032,0,0,1,.849-.351.867.867,0,0,1,.529.17,1.1,1.1,0,0,1,.356.463.989.989,0,0,1,.368-.546,1.052,1.052,0,0,1,.646-.2,1.14,1.14,0,0,1,.9.371,1.539,1.539,0,0,1,.328,1.053Zm-2.446-.562v-.85a.892.892,0,0,0-.185-.59.621.621,0,0,0-.5-.221.608.608,0,0,0-.512.206,1,1,0,0,0-.16.623v.832Zm.451,0h1.535v-.928a.9.9,0,0,0-.2-.62.714.714,0,0,0-.561-.228q-.771,0-.771.838Z"/><path class="cls-13" d="M81.48,43.08l-2.141-1.113v-.638l2.674,1.47H83.6v.562H82.013l-2.674,1.471v-.644Z"/><path class="cls-13" d="M79.339,39.272v-.565h3.02a1.251,1.251,0,0,1,.958.367,1.37,1.37,0,0,1,.346.98,1.413,1.413,0,0,1-.325.99,1.173,1.173,0,0,1-.911.355v-.563a.706.706,0,0,0,.776-.782.754.754,0,0,0-.22-.564.852.852,0,0,0-.615-.218Z"/><path class="cls-13" d="M82.013,36.706v1.429h-.442V36.706Z"/><path class="cls-13" d="M82.172,33.946v-.592h.442v.592h.99v.545h-.99v1.942H82.3l-2.956-1.91v-.577Zm0,1.872V34.491H80.08l.117.064Z"/><path class="cls-13" d="M80.452,30.278a.991.991,0,0,1,.568.168,1.151,1.151,0,0,1,.39.456,1.221,1.221,0,0,1,.419-.529,1.051,1.051,0,0,1,.624-.2,1.116,1.116,0,0,1,.882.374,1.638,1.638,0,0,1,0,1.969,1.118,1.118,0,0,1-.88.37,1.083,1.083,0,0,1-.624-.189,1.174,1.174,0,0,1-.422-.523,1.114,1.114,0,0,1-.39.448,1,1,0,0,1-.565.165,1.106,1.106,0,0,1-.856-.346,1.47,1.47,0,0,1,0-1.821A1.1,1.1,0,0,1,80.452,30.278Zm-.727,1.257a.7.7,0,0,0,.2.517.818.818,0,0,0,1.064,0,.776.776,0,0,0,0-1.04.8.8,0,0,0-1.057.007A.693.693,0,0,0,79.725,31.535Zm2.716-.815a.789.789,0,0,0-.583.227.808.808,0,0,0-.225.594.761.761,0,0,0,.808.808.758.758,0,0,0,.571-.215.963.963,0,0,0,0-1.2A.755.755,0,0,0,82.441,30.72Z"/><path class="cls-13" d="M56.239,37.937a1.325,1.325,0,0,1-.1.547.8.8,0,0,1-.3.356.826.826,0,0,1-.451.123.8.8,0,0,1-.75-.476,1.264,1.264,0,0,1-.111-.531V37.8a1.3,1.3,0,0,1,.107-.544.841.841,0,0,1,1.2-.362.8.8,0,0,1,.3.358,1.339,1.339,0,0,1,.1.548Zm-.28-.138a.957.957,0,0,0-.153-.583.5.5,0,0,0-.426-.2.5.5,0,0,0-.419.2.929.929,0,0,0-.158.564v.157a.946.946,0,0,0,.155.577.54.54,0,0,0,.847.012.949.949,0,0,0,.154-.569Z"/><path class="cls-13" d="M57.962,37.031h-1.03v.64h.532a.772.772,0,0,1,.521.172.579.579,0,0,1,.188.454.591.591,0,0,1-.19.46.762.762,0,0,1-.515.177H56.65V36.8h1.312Zm-1.03.87v.8h.515a.454.454,0,0,0,.326-.111.4.4,0,0,0,.116-.3.371.371,0,0,0-.112-.285.461.461,0,0,0-.318-.107Z"/><path class="cls-13" d="M58.845,36.8v1.9h.733V36.8h.28v1.9h.729V36.8h.281v1.912h.216l-.027.735h-.242v-.514H58.561V36.8Z"/><path class="cls-13" d="M56.227,41.934h-.283v-1.9H54.892v1.9h-.281V39.8h1.616Z"/><path class="cls-13" d="M58.083,39.8h.281v2.133h-.281V40.291l-1.05,1.643h-.282V39.8h.282v1.644Z"/><path class="cls-13" d="M60.307,40.031h-.685v1.9h-.279v-1.9h-.684V39.8h1.648Z"/><polyline class="cls-14" points="51.098 32.916 53.32 32.916 53.32 44.05 51.098 44.05"/><rect class="cls-3" x="5.902" y="27.051" width="4.257" height="3.436"/><rect class="cls-3" x="5.942" y="19.922" width="4.257" height="3.436"/><path class="cls-15" d="M8.071,22.529a.7.7,0,0,0,.694-.43,11.444,11.444,0,0,1,1.434-.061v1.478H5.943V22.038a11.444,11.444,0,0,1,1.434.061.7.7,0,0,0,.694.43"/><path class="cls-15" d="M8.071,27.819a.7.7,0,0,1,.694.429,11.444,11.444,0,0,0,1.434.061V26.831H5.943v1.478a11.444,11.444,0,0,0,1.434-.061.7.7,0,0,1,.694-.429"/><rect class="cls-16" x="6.413" y="23.046" width="3.315" height="4.256" transform="translate(33.245 17.103) rotate(90)"/><rect class="cls-17" x="6.413" y="23.046" width="3.315" height="4.256" transform="translate(33.245 17.103) rotate(90)"/><line class="cls-18" x1="5.943" y1="19.12" x2="10.158" y2="19.12"/><path class="cls-19" d="M30.506,76.118a2.241,2.241,0,1,1-2.24-2.222A2.231,2.231,0,0,1,30.506,76.118Z"/><path class="cls-20" d="M34.536,84.4V84.02l.337-.065V81.7l-.337-.064v-.379h1.5a1.588,1.588,0,0,1,.625.111.892.892,0,0,1,.4.321.878.878,0,0,1,.14.5.892.892,0,0,1-.139.493.955.955,0,0,1-.386.343,1.285,1.285,0,0,1-.572.127h-.6v.8l.339.065V84.4Zm.971-1.722h.517a.624.624,0,0,0,.409-.115.416.416,0,0,0,.136-.335.466.466,0,0,0-.134-.349.553.553,0,0,0-.4-.13h-.528ZM36.572,84.4l-.533-1.354.572-.141.46,1.056.27.063V84.4Z"/><path class="cls-20" d="M39.158,84.441a1.611,1.611,0,0,1-.661-.128,1,1,0,0,1-.444-.375,1.076,1.076,0,0,1-.159-.6V81.7l-.336-.064v-.379h1.309v.379l-.338.064v1.637a.7.7,0,0,0,.076.345.491.491,0,0,0,.217.206.772.772,0,0,0,.336.067.8.8,0,0,0,.343-.067.493.493,0,0,0,.218-.206.7.7,0,0,0,.076-.345V81.7l-.337-.064v-.379h1.31v.379l-.339.064v1.637a1.076,1.076,0,0,1-.159.6.991.991,0,0,1-.446.375A1.6,1.6,0,0,1,39.158,84.441Z"/><path class="cls-20" d="M42.263,84.441a2.434,2.434,0,0,1-.637-.077,1.817,1.817,0,0,1-.564-.269v-.758h.491l.067.445a.727.727,0,0,0,.269.133,1.311,1.311,0,0,0,.374.051.775.775,0,0,0,.29-.048.386.386,0,0,0,.18-.134.342.342,0,0,0,.062-.206.361.361,0,0,0-.055-.2.5.5,0,0,0-.183-.159,1.731,1.731,0,0,0-.344-.14,3.322,3.322,0,0,1-.622-.24.984.984,0,0,1-.37-.312.764.764,0,0,1-.123-.438.74.74,0,0,1,.143-.449.95.95,0,0,1,.394-.307,1.465,1.465,0,0,1,.582-.116,2.013,2.013,0,0,1,.647.086,1.517,1.517,0,0,1,.485.252v.706h-.476l-.082-.431a.886.886,0,0,0-.223-.09,1.188,1.188,0,0,0-.318-.039.738.738,0,0,0-.268.045.415.415,0,0,0-.184.132.329.329,0,0,0-.067.209.294.294,0,0,0,.058.183.542.542,0,0,0,.2.149,2.747,2.747,0,0,0,.381.15,2.006,2.006,0,0,1,.794.381.784.784,0,0,1,.27.622.751.751,0,0,1-.145.463.921.921,0,0,1-.408.3A1.657,1.657,0,0,1,42.263,84.441Z"/><path class="cls-20" d="M44.972,84.441a2.434,2.434,0,0,1-.637-.077,1.817,1.817,0,0,1-.564-.269v-.758h.491l.067.445a.727.727,0,0,0,.269.133,1.306,1.306,0,0,0,.374.051.775.775,0,0,0,.29-.048.394.394,0,0,0,.181-.134.348.348,0,0,0,.061-.206.361.361,0,0,0-.055-.2.5.5,0,0,0-.183-.159,1.706,1.706,0,0,0-.344-.14,3.322,3.322,0,0,1-.622-.24.984.984,0,0,1-.37-.312.764.764,0,0,1-.123-.438.74.74,0,0,1,.143-.449.95.95,0,0,1,.394-.307,1.465,1.465,0,0,1,.582-.116,2.017,2.017,0,0,1,.647.086,1.517,1.517,0,0,1,.485.252v.706h-.476l-.083-.431a.862.862,0,0,0-.222-.09,1.188,1.188,0,0,0-.318-.039.738.738,0,0,0-.268.045.42.42,0,0,0-.184.132.329.329,0,0,0-.067.209.294.294,0,0,0,.058.183.542.542,0,0,0,.2.149,2.7,2.7,0,0,0,.381.15,2.006,2.006,0,0,1,.794.381.788.788,0,0,1,.271.622.752.752,0,0,1-.146.463.918.918,0,0,1-.409.3A1.648,1.648,0,0,1,44.972,84.441Z"/><path class="cls-20" d="M46.391,84.4V84.02l.336-.065V81.7l-.336-.064v-.379H47.7v.379l-.337.064v2.251l.337.065V84.4Z"/><path class="cls-20" d="M47.908,84.4V84.02l.227-.033,1.005-2.726h.65l1,2.726.226.033V84.4H49.938V84.02l.22-.04-.14-.43H48.906l-.139.43.22.04V84.4Zm1.148-1.309h.812L49.5,82.012l-.031-.095h-.013l-.032.1Z"/><ellipse class="cls-21" cx="28.265" cy="76.118" rx="1.532" ry="1.519"/><rect class="cls-20" x="18.397" y="63.985" width="4.707" height="4.707"/><path class="cls-22" d="M19.5,67.98v-.26l.341-.059V65.287l-.341-.058v-.263h1.19a1.282,1.282,0,0,1,.7.19,1.3,1.3,0,0,1,.467.525,1.674,1.674,0,0,1,.167.761v.064a1.719,1.719,0,0,1-.161.753,1.285,1.285,0,0,1-.457.528,1.241,1.241,0,0,1-.7.193Zm.752-.319h.438a.8.8,0,0,0,.5-.156,1.006,1.006,0,0,0,.319-.418,1.475,1.475,0,0,0,.111-.581v-.068a1.487,1.487,0,0,0-.111-.589.978.978,0,0,0-.319-.411.813.813,0,0,0-.5-.151h-.438Z"/><path class="cls-23" d="M53.533,64.4h.035l.038,15.259V80h-.091l-21.555-.048h-.14l-.039-15.542v-.053h.056"/><line class="cls-23" x1="46.308" y1="64.384" x2="46.308" y2="79.978"/><line class="cls-23" x1="39.071" y1="64.368" x2="39.071" y2="79.961"/><path class="cls-19" d="M37.734,76.118A2.241,2.241,0,1,1,35.495,73.9,2.231,2.231,0,0,1,37.734,76.118Z"/><ellipse class="cls-21" cx="35.494" cy="76.118" rx="1.532" ry="1.519"/><path class="cls-19" d="M44.934,76.118A2.241,2.241,0,1,1,42.7,73.9,2.231,2.231,0,0,1,44.934,76.118Z"/><ellipse class="cls-21" cx="42.694" cy="76.118" rx="1.532" ry="1.519"/><path class="cls-19" d="M51.522,74.489a2.279,2.279,0,0,1-2.183,3.784,2.205,2.205,0,0,1-1.6-1.595A2.279,2.279,0,0,1,51.522,74.489Z"/><ellipse class="cls-21" cx="49.894" cy="76.118" rx="1.532" ry="1.519"/><path class="cls-19" d="M58.722,74.489a2.279,2.279,0,0,1-2.183,3.784,2.205,2.205,0,0,1-1.6-1.595A2.279,2.279,0,0,1,58.722,74.489Z"/><ellipse class="cls-21" cx="57.094" cy="76.118" rx="1.532" ry="1.519"/><path class="cls-24" d="M26.221,71.172v-.446l.583-.1V66.563l-.583-.1v-.449h3.853v1.239h-.565l-.079-.7H27.508v1.679h1.919v.549H27.508v1.867h2.037l.078-.711h.561v1.236Z"/><path class="cls-24" d="M35.726,71.246a2.308,2.308,0,0,1-1.251-.331,2.181,2.181,0,0,1-.814-.92,3.065,3.065,0,0,1-.286-1.36V68.55a3.055,3.055,0,0,1,.288-1.365,2.245,2.245,0,0,1,.787-.916,2.021,2.021,0,0,1,1.137-.331,3.352,3.352,0,0,1,1.031.139,2.365,2.365,0,0,1,.724.372V67.49h-.58l-.074-.747a1.355,1.355,0,0,0-.429-.172,2.708,2.708,0,0,0-.6-.058,1.354,1.354,0,0,0-.8.255,1.727,1.727,0,0,0-.564.711,2.547,2.547,0,0,0-.208,1.064v.092a2.77,2.77,0,0,0,.192,1.075,1.569,1.569,0,0,0,.559.713,1.535,1.535,0,0,0,.893.253,2.527,2.527,0,0,0,.6-.062,2.021,2.021,0,0,0,.436-.161V69.241l-1-.036v-.514h1.7v2a2.151,2.151,0,0,1-.645.382A2.91,2.91,0,0,1,35.726,71.246Z"/><path class="cls-24" d="M42.39,71.282,40.646,66.63l-.414-.057v-.449h1.643v.449l-.475.075,1.165,3.281.121.407h.022l.129-.407,1.207-3.284-.529-.072v-.449h1.641v.449l-.418.057-1.744,4.652Z"/><path class="cls-24" d="M49.905,71.356a3.036,3.036,0,0,1-.915-.137,3,3,0,0,1-.84-.426v-1.1H48.7l.118.812a2.017,2.017,0,0,0,.5.22,2.145,2.145,0,0,0,.586.078,1.494,1.494,0,0,0,.6-.109.864.864,0,0,0,.381-.3.767.767,0,0,0,.132-.447.758.758,0,0,0-.115-.418.955.955,0,0,0-.376-.317,3.049,3.049,0,0,0-.717-.238,3.47,3.47,0,0,1-.906-.332,1.562,1.562,0,0,1-.561-.5,1.227,1.227,0,0,1-.191-.679,1.261,1.261,0,0,1,.216-.723,1.483,1.483,0,0,1,.6-.5,2.071,2.071,0,0,1,.9-.184,2.651,2.651,0,0,1,.967.165,2.419,2.419,0,0,1,.691.4v1.032h-.547l-.118-.738a1.383,1.383,0,0,0-.4-.212,1.806,1.806,0,0,0-.593-.085,1.255,1.255,0,0,0-.529.105.842.842,0,0,0-.357.292.76.76,0,0,0-.129.442.668.668,0,0,0,.116.391.955.955,0,0,0,.379.292,3.778,3.778,0,0,0,.7.235,2.774,2.774,0,0,1,1.245.6,1.281,1.281,0,0,1,.424.976,1.25,1.25,0,0,1-.225.736,1.48,1.48,0,0,1-.635.5A2.353,2.353,0,0,1,49.905,71.356Z"/><path class="cls-24" d="M54.96,71.282v-.446l.583-.1V66.673l-.583-.1v-.449H57a2.191,2.191,0,0,1,1.2.325,2.222,2.222,0,0,1,.8.9,2.867,2.867,0,0,1,.286,1.3v.111a2.946,2.946,0,0,1-.275,1.288,2.2,2.2,0,0,1-.781.9,2.131,2.131,0,0,1-1.2.331Zm1.286-.546H57a1.368,1.368,0,0,0,.847-.267,1.712,1.712,0,0,0,.545-.715,2.52,2.52,0,0,0,.191-.994v-.117a2.541,2.541,0,0,0-.191-1.008,1.65,1.65,0,0,0-.545-.7A1.394,1.394,0,0,0,57,66.673h-.751Z"/><path class="cls-23" d="M31.838,64.352H24.256v15.6h7.565"/><path class="cls-23" d="M53.516,80h7.49V64.325l-29.168.027"/><g id="Конденсатор"><rect class="cls-25" x="28.803" y="52.006" width="2.875" height="3.561"/><rect class="cls-25" x="29.414" y="29.468" width="2.875" height="3.563"/><path class="cls-26" d="M39.727,52.243H20.751V38.462l5.669-5.67h7.638l5.669,5.67Z"/><path class="cls-27" d="M21.756,46.773a9.488,9.488,0,1,1,16.969-.007"/><path class="cls-7" d="M21.764,46.768l16.961,0a9.492,9.492,0,0,1-16.969.007Z"/><path class="cls-28" d="M27.312,44.98h-.257L27,44.649h-.372v1.325H26.4l-2.061-1.3v-.422h1.973v-.407h.315v.407H27l.057-.33h.257Zm-1,.569v-.9h-1.4l0,.012.108.041Z"/><path class="cls-28" d="M27.312,42.975l-.321-.033a4.715,4.715,0,0,1-.868-.184,4.054,4.054,0,0,1-.757-.33,5.11,5.11,0,0,1-.711-.487v1.232l.34.03v.341h-.657V41.551h.317a5.707,5.707,0,0,0,.595.441,3.336,3.336,0,0,0,.541.281,3.417,3.417,0,0,0,.557.167c.193.04.408.075.643.1l.321.033Z"/><path class="cls-28" d="M32.376,45.028a1.116,1.116,0,0,1-.1.48.776.776,0,0,1-.282.329.738.738,0,0,1-.434.112l-.012-.006v-.38a.547.547,0,0,0,.272-.065A.439.439,0,0,0,32,45.313a.6.6,0,0,0,.064-.285.494.494,0,0,0-.55-.541.561.561,0,0,0-.407.128.542.542,0,0,0-.13.4v.348H30.66v-.348a.581.581,0,0,0-.06-.284.351.351,0,0,0-.174-.155.715.715,0,0,0-.272-.048.545.545,0,0,0-.389.126.488.488,0,0,0-.132.371.56.56,0,0,0,.062.272.443.443,0,0,0,.175.179.544.544,0,0,0,.267.064v.383l-.012,0a.731.731,0,0,1-.409-.107.8.8,0,0,1-.292-.318,1.011,1.011,0,0,1-.108-.477.937.937,0,0,1,.219-.652.8.8,0,0,1,.626-.243.706.706,0,0,1,.367.11.7.7,0,0,1,.279.331.654.654,0,0,1,.276-.376.819.819,0,0,1,.421-.11.86.86,0,0,1,.466.121.79.79,0,0,1,.3.333A1.085,1.085,0,0,1,32.376,45.028Z"/><path class="cls-28" d="M32.376,42.805a1.049,1.049,0,0,1-.092.446.7.7,0,0,1-.272.309.811.811,0,0,1-.449.1l-.012,0V43.3a.5.5,0,0,0,.376-.139.5.5,0,0,0,.135-.357.468.468,0,0,0-.18-.393.779.779,0,0,0-.493-.141.747.747,0,0,0-.47.142.462.462,0,0,0-.183.389.639.639,0,0,0,.071.342.411.411,0,0,0,.219.155l-.035.332-1.632-.17V41.9h.588v.3l-.231.038v.881l.836.1a.792.792,0,0,1-.141-.287.712.712,0,0,1-.024-.184.853.853,0,0,1,.119-.467.784.784,0,0,1,.347-.3,1.255,1.255,0,0,1,.533-.105,1.2,1.2,0,0,1,.521.106.8.8,0,0,1,.346.314A.99.99,0,0,1,32.376,42.805Z"/><path class="cls-28" d="M32.333,40.317l-2.682.989-.033.235h-.259v-.932h.259l.043.269,1.892-.66.235-.069v-.012l-.235-.073-1.894-.685-.041.3h-.259V38.75h.259l.033.236,2.682.989Z"/><path class="cls-28" d="M37.4,44.572a1.182,1.182,0,0,1-.121.543.921.921,0,0,1-.344.377,1,1,0,0,1-.536.138H34.7l-.058.33h-.259V44.9h.259l.058.33h1.7a.757.757,0,0,0,.373-.084A.537.537,0,0,0,37,44.912a.748.748,0,0,0,.077-.346A.772.772,0,0,0,37,44.215a.544.544,0,0,0-.226-.239.744.744,0,0,0-.376-.086H34.7l-.058.33h-.259V43.16h.259l.058.33h1.7a1.038,1.038,0,0,1,.546.135.864.864,0,0,1,.339.378A1.314,1.314,0,0,1,37.4,44.572Z"/><path class="cls-28" d="M37.354,42.128H37.1l-.057-.331H34.683v.669l.413.059v.3h-.717v-2.45H35.1v.295l-.413.061V41.4h2.356l.057-.33h.258Z"/><polyline class="cls-6" points="36.695 49.664 37.399 48.992 38.424 47.611 39.493 46.101 39.727 46.101 39.727 52.243 33.585 52.243 33.585 52.009 35.095 50.94 36.476 49.916 37.148 49.211"/><polyline class="cls-6" points="23.783 49.664 23.078 48.992 22.054 47.611 20.985 46.101 20.751 46.101 20.751 52.243 26.893 52.243 26.893 52.009 25.383 50.94 24.002 49.916 23.33 49.211"/><polyline class="cls-6" points="34.983 32.792 33.585 32.792 33.585 33.027 35.095 34.096 36.476 35.12 37.148 35.825 36.695 35.372 37.399 36.043 38.424 37.425 39.493 38.934 39.727 38.934 39.727 37.536"/><polyline class="cls-6" points="20.751 37.536 20.751 38.934 20.985 38.934 22.054 37.425 23.078 36.043 23.783 35.372 23.33 35.825 24.002 35.12 25.383 34.096 26.893 33.027 26.893 32.792 25.495 32.792"/></g><polygon class="cls-13" points="44.741 38.479 43.469 37.204 43.47 32.672 44.745 31.4 49.277 31.401 50.549 32.676 50.548 37.208 49.275 38.479 44.741 38.479"/><path d="M49.273,31.407l1.269,1.269V37.2l-1.269,1.269H44.746L43.476,37.2V32.676l1.27-1.269h4.527m0-.01H44.741l-1.275,1.275v4.536l1.275,1.275h4.536l1.275-1.275V32.672L49.277,31.4Z"/><rect class="cls-29" x="46.125" y="34.033" width="1.768" height="1.814" transform="translate(81.949 -12.069) rotate(90)"/><rect class="cls-30" x="46.526" y="34.444" width="0.967" height="0.992" transform="translate(81.949 -12.069) rotate(90)"/><line class="cls-31" x1="47.916" y1="34.056" x2="47.505" y2="34.457"/><line class="cls-31" x1="47.505" y1="35.423" x2="47.916" y2="35.824"/><line class="cls-31" x1="46.513" y1="35.423" x2="46.102" y2="35.824"/><line class="cls-31" x1="46.513" y1="34.457" x2="46.102" y2="34.056"/><polygon class="cls-13" points="44.741 52.821 43.469 51.547 43.47 47.016 44.745 45.744 49.277 45.745 50.549 47.02 50.548 51.551 49.275 52.821 44.741 52.821"/><path d="M49.273,45.75l1.269,1.27v4.527l-1.269,1.27H44.746l-1.27-1.27V47.02l1.27-1.27h4.527m0-.01H44.741l-1.275,1.276v4.535l1.275,1.276h4.536l1.275-1.276V47.016L49.277,45.74Z"/><rect class="cls-29" x="46.125" y="48.376" width="1.768" height="1.814" transform="translate(96.292 2.274) rotate(90)"/><rect class="cls-30" x="46.526" y="48.787" width="0.967" height="0.992" transform="translate(96.292 2.274) rotate(90)"/><line class="cls-31" x1="47.916" y1="48.399" x2="47.505" y2="48.8"/><line class="cls-31" x1="47.505" y1="49.767" x2="47.916" y2="50.167"/><line class="cls-31" x1="46.513" y1="49.767" x2="46.102" y2="50.167"/><line class="cls-31" x1="46.513" y1="48.8" x2="46.102" y2="48.399"/><polygon class="cls-13" points="44.741 45.65 43.485 44.391 43.471 39.844 44.745 38.572 49.277 38.573 50.549 39.847 50.548 44.379 49.275 45.65 44.741 45.65"/><path d="M49.273,38.578l.159.16,1.111,1.11v4.527l-1.27,1.27H44.746l-1.27-1.27V39.848l1.27-1.27h4.527m0-.01H44.742l-1.276,1.276v4.535l1.276,1.276h4.535l1.276-1.276V39.844l-1.276-1.276Z"/><rect class="cls-29" x="46.126" y="41.204" width="1.768" height="1.814" transform="translate(89.121 -4.898) rotate(90)"/><rect class="cls-30" x="46.526" y="41.616" width="0.967" height="0.992" transform="translate(89.121 -4.898) rotate(90)"/><line class="cls-31" x1="47.917" y1="41.228" x2="47.506" y2="41.628"/><line class="cls-31" x1="47.506" y1="42.595" x2="47.917" y2="42.995"/><line class="cls-31" x1="46.513" y1="42.595" x2="46.102" y2="42.995"/><line class="cls-31" x1="46.513" y1="41.628" x2="46.102" y2="41.228"/><g id="breadboard"><rect id="bgnd" class="cls-32" x="19.367" y="1.429" width="46.306" height="18.363"/><rect id="top_inset" data-name="top inset" class="cls-33" x="19.367" y="1.429" width="46.306" height="2.145"/><rect id="bottom_inset" data-name="bottom inset" class="cls-33" x="19.367" y="17.202" width="46.306" height="2.59"/><path id="left_inset" data-name="left inset" class="cls-33" d="M21.86,3.477,19.367,1.429V19.792l2.493-2.048"/><path id="right_inset" data-name="right inset" class="cls-33" d="M65.674,1.429V19.792l-2.448-2.048V3.477Z"/><rect id="top_border" data-name="top border" class="cls-34" x="19.367" y="1.429" width="46.306" height="1.379"/><rect id="bottom_border" data-name="bottom border" class="cls-34" x="19.367" y="18.128" width="46.306" height="1.664"/><rect id="left_border" data-name="left border" class="cls-34" x="19.367" y="1.429" width="1.602" height="18.363"/><rect id="right_border" data-name="right border" class="cls-34" x="64.101" y="1.429" width="1.573" height="18.363"/><rect id="lower_connector_bgnd" data-name="lower connector bgnd" class="cls-32" x="26.96" y="11.023" width="3.683" height="3.683"/><rect id="connector0pin" class="cls-35" x="27.687" y="11.75" width="2.229" height="2.229"/><rect id="lower_connector_top_inset" data-name="lower connector top inset" class="cls-36" x="27.687" y="11.75" width="2.229" height="0.541"/><rect id="lower_connector_bottom_inset" data-name="lower connector bottom inset" class="cls-37" x="27.687" y="13.438" width="2.229" height="0.541"/><path id="lower_connector_left_inset" data-name="lower connector left inset" class="cls-38" d="M27.687,11.75v2.229l.541-.541V12.291Z"/><path id="lower_connector_right_inset" data-name="lower connector right inset" class="cls-38" d="M29.916,11.75v2.229l-.541-.541V12.291Z"/><rect id="lower_connector_bgnd-2" data-name="lower connector bgnd" class="cls-32" x="34.159" y="11.023" width="3.683" height="3.683"/><rect id="connector0pin-2" data-name="connector0pin" class="cls-35" x="34.886" y="11.75" width="2.229" height="2.229"/><rect id="lower_connector_top_inset-2" data-name="lower connector top inset" class="cls-36" x="34.886" y="11.75" width="2.229" height="0.541"/><rect id="lower_connector_bottom_inset-2" data-name="lower connector bottom inset" class="cls-37" x="34.886" y="13.438" width="2.229" height="0.541"/><path id="lower_connector_left_inset-2" data-name="lower connector left inset" class="cls-38" d="M34.886,11.75v2.229l.541-.541V12.291Z"/><path id="lower_connector_right_inset-2" data-name="lower connector right inset" class="cls-38" d="M37.115,11.75v2.229l-.541-.541V12.291Z"/><rect id="lower_connector_bgnd-3" data-name="lower connector bgnd" class="cls-32" x="41.358" y="11.023" width="3.683" height="3.683"/><rect id="connector0pin-3" data-name="connector0pin" class="cls-35" x="42.085" y="11.75" width="2.229" height="2.229"/><rect id="lower_connector_top_inset-3" data-name="lower connector top inset" class="cls-36" x="42.085" y="11.75" width="2.229" height="0.541"/><rect id="lower_connector_bottom_inset-3" data-name="lower connector bottom inset" class="cls-37" x="42.085" y="13.438" width="2.229" height="0.541"/><path id="lower_connector_left_inset-3" data-name="lower connector left inset" class="cls-38" d="M42.085,11.75v2.229l.541-.541V12.291Z"/><path id="lower_connector_right_inset-3" data-name="lower connector right inset" class="cls-38" d="M44.314,11.75v2.229l-.541-.541V12.291Z"/><rect id="lower_connector_bgnd-4" data-name="lower connector bgnd" class="cls-32" x="48.557" y="11.023" width="3.683" height="3.683"/><rect id="connector0pin-4" data-name="connector0pin" class="cls-35" x="49.284" y="11.75" width="2.229" height="2.229"/><rect id="lower_connector_top_inset-4" data-name="lower connector top inset" class="cls-36" x="49.284" y="11.75" width="2.229" height="0.541"/><rect id="lower_connector_bottom_inset-4" data-name="lower connector bottom inset" class="cls-37" x="49.284" y="13.438" width="2.229" height="0.541"/><path id="lower_connector_left_inset-4" data-name="lower connector left inset" class="cls-38" d="M49.284,11.75v2.229l.541-.541V12.291Z"/><path id="lower_connector_right_inset-4" data-name="lower connector right inset" class="cls-38" d="M51.513,11.75v2.229l-.541-.541V12.291Z"/><rect id="lower_connector_bgnd-5" data-name="lower connector bgnd" class="cls-32" x="55.756" y="11.023" width="3.683" height="3.683"/><rect id="connector0pin-5" data-name="connector0pin" class="cls-35" x="56.483" y="11.75" width="2.229" height="2.229"/><rect id="lower_connector_top_inset-5" data-name="lower connector top inset" class="cls-36" x="56.483" y="11.75" width="2.229" height="0.541"/><rect id="lower_connector_bottom_inset-5" data-name="lower connector bottom inset" class="cls-37" x="56.483" y="13.438" width="2.229" height="0.541"/><path id="lower_connector_left_inset-5" data-name="lower connector left inset" class="cls-38" d="M56.483,11.75v2.229l.541-.541V12.291Z"/><path id="lower_connector_right_inset-5" data-name="lower connector right inset" class="cls-38" d="M58.711,11.75v2.229l-.54-.541V12.291Z"/></g><polygon id="_0.1.5.0.0.5-2-9-5-4-7-5-0-7" data-name=" 0.1.5.0.0.5-2-9-5-4-7-5-0-7" class="cls-39" points="49.211 31.323 44.81 31.323 43.287 32.845 43.287 40.165 43.287 44.357 44.81 45.878 49.135 45.878 50.653 44.357 50.653 40.165 50.729 32.845 49.211 31.323"/></g></svg>