<svg id="Layer_1" data-name="Layer 1" xmlns="http://www.w3.org/2000/svg" viewBox="0 0 85.04 85.04"><defs><style>.cls-1{fill:#131314;}.cls-2{fill:#9f9c9c;}.cls-3,.cls-6{fill:#fff;}.cls-4{fill:#d0c8bd;}.cls-5{fill:#948c84;}.cls-6{stroke:#000;stroke-width:0.13px;}.cls-10,.cls-11,.cls-12,.cls-6,.cls-7,.cls-8{stroke-miterlimit:10;}.cls-12,.cls-7,.cls-8{fill:none;}.cls-7{stroke:#fff;stroke-width:0.47px;}.cls-8{stroke:#f5f5f6;stroke-width:0.75px;}.cls-9{fill:#e5e4e1;}.cls-10{fill:#f9943c;stroke:#666;stroke-width:0.023px;}.cls-11{fill:#ffae46;stroke:#b4b4b4;stroke-width:0.025px;}.cls-12{stroke:gray;stroke-width:0.011px;}</style></defs><g id="bottom"><path class="cls-1" d="M0,0V85.04H85.04V0ZM9.922,79.512a4.394,4.394,0,1,1,4.393-4.393A4.393,4.393,0,0,1,9.922,79.512Zm0-65.2a4.394,4.394,0,1,1,4.393-4.393A4.393,4.393,0,0,1,9.922,14.315Zm65.2,65.2a4.394,4.394,0,1,1,4.393-4.393A4.394,4.394,0,0,1,75.119,79.512Zm0-65.2a4.394,4.394,0,1,1,4.393-4.393A4.394,4.394,0,0,1,75.119,14.315Z"/><path class="cls-2" d="M9.921,3.946a5.976,5.976,0,1,0,5.953,5.975A5.963,5.963,0,0,0,9.921,3.946Zm0,10.369a4.394,4.394,0,1,1,4.393-4.393A4.393,4.393,0,0,1,9.922,14.315Z"/><path class="cls-2" d="M75.118,3.946a5.976,5.976,0,1,0,5.953,5.975A5.964,5.964,0,0,0,75.118,3.946Zm0,10.369a4.394,4.394,0,1,1,4.393-4.393A4.394,4.394,0,0,1,75.119,14.315Z"/><path class="cls-2" d="M9.921,69.143a5.976,5.976,0,1,0,5.953,5.975A5.963,5.963,0,0,0,9.921,69.143Zm0,10.369a4.394,4.394,0,1,1,4.393-4.393A4.393,4.393,0,0,1,9.922,79.512Z"/><path class="cls-2" d="M75.118,69.143a5.976,5.976,0,1,0,5.953,5.975A5.964,5.964,0,0,0,75.118,69.143Zm0,10.369a4.394,4.394,0,1,1,4.393-4.393A4.394,4.394,0,0,1,75.119,79.512Z"/><path class="cls-3" d="M71.37,46.48l-2.639-.914v-.461l3.2,1.187v.373l-3.2,1.185v-.459Z"/><path class="cls-3" d="M69.553,44.358l.263-.011a.877.877,0,0,1-.307-.7.681.681,0,0,1,.382-.679.884.884,0,0,1-.382-.759c0-.52.276-.786.829-.8H71.93v.406H70.361a.543.543,0,0,0-.381.118.512.512,0,0,0-.126.39.537.537,0,0,0,.135.376.544.544,0,0,0,.363.173H71.93v.409H70.373a.454.454,0,0,0-.519.508.544.544,0,0,0,.34.547H71.93v.406H69.553Z"/><path class="cls-3" d="M70.72,40.9a1.42,1.42,0,0,1-.628-.136,1.013,1.013,0,0,1-.583-.943,1,1,0,0,1,.337-.785,1.288,1.288,0,0,1,.893-.3h.029a1.4,1.4,0,0,1,.622.133,1.008,1.008,0,0,1,.43.38,1.049,1.049,0,0,1,.154.568,1,1,0,0,1-.336.784,1.286,1.286,0,0,1-.89.3Zm.048-.408a1.019,1.019,0,0,0,.635-.183.591.591,0,0,0,.239-.492.583.583,0,0,0-.243-.492,1.11,1.11,0,0,0-.679-.182,1.02,1.02,0,0,0-.634.185.618.618,0,0,0,0,.98A1.1,1.1,0,0,0,70.768,40.495Z"/><path class="cls-3" d="M68.977,37.678h.576v-.444h.314v.444h1.477a.328.328,0,0,0,.213-.059.25.25,0,0,0,.073-.2.977.977,0,0,0-.027-.193h.327a1.151,1.151,0,0,1,.044.312.5.5,0,0,1-.165.411.705.705,0,0,1-.467.138H69.867v.434h-.314v-.434h-.576Z"/><path class="cls-3" d="M80.427,45.915h1.645V44.332h.421v1.583h1.659v.448H82.493v1.582h-.421V46.363H80.427Z"/><path class="cls-3" d="M82.441,40.692h-.35v-3.5h.35Z"/><path class="cls-4" d="M73.232,46.141a2.241,2.241,0,1,1,2.24,2.222A2.231,2.231,0,0,1,73.232,46.141Z"/><ellipse class="cls-5" cx="75.473" cy="46.141" rx="1.532" ry="1.519"/><path class="cls-4" d="M73.232,38.941a2.241,2.241,0,1,1,2.24,2.222A2.231,2.231,0,0,1,73.232,38.941Z"/><ellipse class="cls-5" cx="75.473" cy="38.941" rx="1.532" ry="1.519"/><path class="cls-3" d="M48.93,7.912H47.067v-.26l.985-1.093a2.358,2.358,0,0,0,.3-.4.662.662,0,0,0,.083-.321.513.513,0,0,0-.134-.365.473.473,0,0,0-.36-.143.557.557,0,0,0-.419.154.586.586,0,0,0-.149.426h-.361a.843.843,0,0,1,.252-.635.942.942,0,0,1,.677-.242.9.9,0,0,1,.627.208.714.714,0,0,1,.231.554,1.628,1.628,0,0,1-.536,1l-.761.826H48.93Z"/><path class="cls-3" d="M50.977,7.168H49.786l-.268.744h-.386l1.086-2.844h.328l1.088,2.844h-.385ZM49.9,6.861h.967l-.484-1.33Z"/><path class="cls-3" d="M55.83,7.912h-.377L54.021,5.721V7.912h-.377V5.068h.377l1.436,2.2v-2.2h.373Z"/><path class="cls-3" d="M58.588,7.01a1.049,1.049,0,0,1-.333.7,1.09,1.09,0,0,1-.745.245A1,1,0,0,1,56.7,7.59a1.456,1.456,0,0,1-.3-.967V6.35a1.614,1.614,0,0,1,.142-.7,1.068,1.068,0,0,1,.4-.462,1.122,1.122,0,0,1,.6-.161,1.029,1.029,0,0,1,.726.253,1.062,1.062,0,0,1,.319.7h-.377A.817.817,0,0,0,58,5.489a.641.641,0,0,0-.456-.153.673.673,0,0,0-.564.266,1.226,1.226,0,0,0-.2.756v.276a1.255,1.255,0,0,0,.194.737.625.625,0,0,0,.541.274.722.722,0,0,0,.479-.142.785.785,0,0,0,.222-.493Z"/><path class="cls-4" d="M49.281,9.371a2.241,2.241,0,1,1-2.223,2.24A2.231,2.231,0,0,1,49.281,9.371Z"/><ellipse class="cls-5" cx="49.281" cy="11.612" rx="1.519" ry="1.532"/><path class="cls-4" d="M56.042,9.371a2.241,2.241,0,1,1-2.223,2.24A2.231,2.231,0,0,1,56.042,9.371Z"/><ellipse class="cls-5" cx="56.042" cy="11.612" rx="1.519" ry="1.532"/><path class="cls-3" d="M27.831,7.912h-.363V5.5l-.729.267V5.443l1.035-.388h.057Z"/><path class="cls-3" d="M28.983,7.912V5.068h.93a1.074,1.074,0,0,1,.7.192.69.69,0,0,1,.234.566.576.576,0,0,1-.114.353.732.732,0,0,1-.308.237.663.663,0,0,1,.364.245.706.706,0,0,1,.134.431.761.761,0,0,1-.248.6,1.026,1.026,0,0,1-.7.219Zm.375-1.631h.567a.593.593,0,0,0,.393-.123.473.473,0,0,0,.011-.677.679.679,0,0,0-.416-.106h-.555Zm0,.3V7.605h.619a.6.6,0,0,0,.413-.135.479.479,0,0,0,.152-.374c0-.343-.187-.514-.559-.514Z"/><path class="cls-3" d="M35.29,7.912H33.427v-.26l.984-1.093a2.431,2.431,0,0,0,.3-.4.673.673,0,0,0,.083-.321.51.51,0,0,0-.135-.365.472.472,0,0,0-.359-.143.554.554,0,0,0-.419.154.583.583,0,0,0-.15.426h-.361a.84.84,0,0,1,.253-.635.94.94,0,0,1,.677-.242.905.905,0,0,1,.627.208.713.713,0,0,1,.23.554,1.631,1.631,0,0,1-.535,1l-.762.826H35.29Z"/><path class="cls-3" d="M35.766,7.912V5.068h.93a1.074,1.074,0,0,1,.7.192.687.687,0,0,1,.234.566.581.581,0,0,1-.113.353.741.741,0,0,1-.309.237.663.663,0,0,1,.364.245.706.706,0,0,1,.134.431.761.761,0,0,1-.248.6,1.024,1.024,0,0,1-.7.219Zm.375-1.631h.567a.593.593,0,0,0,.393-.123.473.473,0,0,0,.011-.677.677.677,0,0,0-.416-.106h-.555Zm0,.3V7.605h.62a.6.6,0,0,0,.413-.135.481.481,0,0,0,.151-.374c0-.343-.187-.514-.559-.514Z"/><path class="cls-3" d="M41.405,7.912h-.363V5.5l-.729.267V5.443l1.035-.388h.057Z"/><path class="cls-3" d="M44.128,7.168H42.936l-.267.744h-.387l1.086-2.844H43.7l1.088,2.844H44.4ZM43.05,6.861h.966l-.484-1.33Z"/><path class="cls-4" d="M29,9.371a2.241,2.241,0,1,1-2.222,2.24A2.231,2.231,0,0,1,29,9.371Z"/><ellipse class="cls-5" cx="28.999" cy="11.612" rx="1.519" ry="1.532"/><path class="cls-4" d="M35.76,9.371a2.241,2.241,0,1,1-2.223,2.24A2.231,2.231,0,0,1,35.76,9.371Z"/><ellipse class="cls-5" cx="35.76" cy="11.612" rx="1.519" ry="1.532"/><path class="cls-4" d="M42.52,9.371a2.241,2.241,0,1,1-2.222,2.24A2.231,2.231,0,0,1,42.52,9.371Z"/><ellipse class="cls-5" cx="42.52" cy="11.612" rx="1.519" ry="1.532"/><g id="Лого"><polygon class="cls-6" points="8.205 66.882 8.205 68.655 13.135 68.655 13.135 61.122 10.89 61.122 10.89 62.732 12.305 62.732 12.305 65.954 10.89 65.954 10.89 66.849 8.205 66.882"/><polygon class="cls-6" points="7.392 66.882 7.392 68.655 2.429 68.655 2.429 52.807 7.392 52.807 7.392 54.626 4.702 54.626 4.69 59.147 3.275 59.147 3.275 62.326 4.69 62.326 4.69 66.882 7.392 66.882"/><polygon class="cls-6" points="10.89 60.341 13.135 60.341 13.135 52.807 8.205 52.807 8.205 54.626 10.89 54.626 10.89 55.541 12.289 55.541 12.305 58.73 10.89 58.73 10.89 60.341"/><rect class="cls-6" x="10.399" y="63.374" width="1.268" height="1.985"/><rect class="cls-6" x="3.887" y="59.747" width="1.274" height="1.991"/><rect class="cls-6" x="10.402" y="56.11" width="1.269" height="2.009"/><path class="cls-3" d="M8.72,51.014H2.465v-.992H8.72Z"/><path class="cls-3" d="M8.72,49.56,2.465,48.555V47.022l6.255-1v.991l-1.134.173V48.4l1.134.172ZM6.735,48.268v-.957l-3.148.48Z"/><path class="cls-3" d="M8.72,45.63H2.465v-1.5a1.528,1.528,0,0,1,.353-1.115A1.474,1.474,0,0,1,3.9,42.665H4.4a1.259,1.259,0,0,1,1.27.648.926.926,0,0,1,.479-.506A2.056,2.056,0,0,1,7,42.656h.964a2.271,2.271,0,0,0,.759-.093v.992c-.074.023-.127.04-.165.049s-.105.017-.208.028a3.929,3.929,0,0,1-.395.015H6.971a.953.953,0,0,0-.616.155.607.607,0,0,0-.182.493v.344H8.72Zm-3.438-.991v-.388a.6.6,0,0,0-.15-.445.71.71,0,0,0-.512-.15H4.005a.8.8,0,0,0-.491.119.454.454,0,0,0-.155.383v.481Z"/><path class="cls-3" d="M8.72,42H2.465V40.436a1.448,1.448,0,0,1,.4-1.109,1.624,1.624,0,0,1,1.151-.372H7.176a1.616,1.616,0,0,1,1.149.372,1.454,1.454,0,0,1,.4,1.109Zm-.9-.991v-.56a.484.484,0,0,0-.142-.377.674.674,0,0,0-.464-.13H3.966a.677.677,0,0,0-.465.13.484.484,0,0,0-.142.377v.56Z"/><path class="cls-3" d="M7.227,38.369H2.465v-.991H7.289q.611,0,.61-.516c0-.341-.2-.51-.61-.51H2.465V35.36H7.227a1.6,1.6,0,0,1,1.163.4A1.5,1.5,0,0,1,8.8,36.884,1.436,1.436,0,0,1,8.39,37.99,1.645,1.645,0,0,1,7.227,38.369Z"/><path class="cls-3" d="M8.72,34.734H2.465v-.991H8.72Z"/><path class="cls-3" d="M8.72,33.029H2.465V31.691l3.747-1.019H2.465v-.886H8.72v1.023L4.192,32.038H8.72Z"/><path class="cls-3" d="M7.219,29.254H3.966a1.616,1.616,0,0,1-1.161-.391,1.728,1.728,0,0,1,0-2.235,1.624,1.624,0,0,1,1.161-.388H7.219a1.618,1.618,0,0,1,1.16.388,1.728,1.728,0,0,1,0,2.235A1.611,1.611,0,0,1,7.219,29.254Zm.061-.991q.619,0,.619-.519t-.619-.513H3.9q-.615,0-.615.513t.615.519Z"/><path class="cls-3" d="M8.72,25.685h-.9v-.992h.9Z"/><path class="cls-3" d="M8.72,24.011H2.465v-1.5A1.532,1.532,0,0,1,2.818,21.4,1.478,1.478,0,0,1,3.9,21.046H4.4a1.259,1.259,0,0,1,1.27.648.926.926,0,0,1,.479-.506A2.056,2.056,0,0,1,7,21.037h.964a2.271,2.271,0,0,0,.759-.093v.992c-.074.023-.127.04-.165.048a1.909,1.909,0,0,1-.208.029c-.1.01-.235.015-.395.015H6.971a.953.953,0,0,0-.616.155.607.607,0,0,0-.182.493v.344H8.72ZM5.282,23.02v-.388a.6.6,0,0,0-.15-.445.71.71,0,0,0-.512-.15H4.005a.8.8,0,0,0-.491.119.453.453,0,0,0-.155.383v.481Z"/><path class="cls-3" d="M7.227,20.429H2.465v-.991H7.289q.611,0,.61-.516t-.61-.511H2.465V17.42H7.227a1.6,1.6,0,0,1,1.163.4A1.5,1.5,0,0,1,8.8,18.943,1.437,1.437,0,0,1,8.39,20.05,1.645,1.645,0,0,1,7.227,20.429Z"/><path class="cls-3" d="M10.583,50.364a.626.626,0,0,1,.14-.458.59.59,0,0,1,.425-.136h.12a.673.673,0,0,1,.33.07.4.4,0,0,1,.177.251.433.433,0,0,1,.193-.284.681.681,0,0,1,.353-.084h.216a.6.6,0,0,1,.442.152.64.64,0,0,1,.156.474v.631H10.583Zm1.083.075a.465.465,0,0,0-.069-.276.324.324,0,0,0-.27-.092h-.149a.387.387,0,0,0-.254.069.287.287,0,0,0-.082.232v.3h.824Zm1.21-.09c0-.216-.115-.325-.347-.325H12.3a.386.386,0,0,0-.3.092.429.429,0,0,0-.082.291v.267h.951Z"/><path class="cls-3" d="M10.557,48.854a.587.587,0,0,1,.175-.468.7.7,0,0,1,.467-.151h.23v.29h-.245a.426.426,0,0,0-.271.077.289.289,0,0,0-.1.244.294.294,0,0,0,.1.243.421.421,0,0,0,.271.078h1.349a.425.425,0,0,0,.272-.078.3.3,0,0,0,.1-.243.292.292,0,0,0-.1-.244.431.431,0,0,0-.272-.077H12.2v-.29h.317a.693.693,0,0,1,.467.151.587.587,0,0,1,.175.468.577.577,0,0,1-.175.463.689.689,0,0,1-.467.152H11.2a.907.907,0,0,1-.265-.037.552.552,0,0,1-.2-.115.512.512,0,0,1-.129-.191A.748.748,0,0,1,10.557,48.854Z"/><path class="cls-3" d="M10.105,47.019h.328v.269h-.328Zm0,.489h.328v.265h-.328Zm1.608-.525h.255v.669h.908V46.83h.259v1.128H10.583V46.83h.259v.822h.871Z"/><path class="cls-3" d="M13.484,44.592h-.349v1.119h.349v.294h-.6v-.177a.355.355,0,0,0-.164-.092,1.588,1.588,0,0,0-.207-.029L10.583,45.6V44.5h2.3v-.208h.6Zm-.976.818a1.027,1.027,0,0,1,.225.033.316.316,0,0,1,.15.092v-.724H10.842v.508Z"/><path class="cls-3" d="M10.842,43.444l1.658.064a1.454,1.454,0,0,1,.27.035.519.519,0,0,1,.2.09.415.415,0,0,1,.126.166.678.678,0,0,1,.043.261v.05h-.259a.433.433,0,0,0-.022-.152.2.2,0,0,0-.067-.093.28.28,0,0,0-.115-.045,1.615,1.615,0,0,0-.161-.015l-1.931-.075V42.615h2.552v.3H10.842Z"/><path class="cls-3" d="M12.045,41.581a.466.466,0,0,0,.082.3.359.359,0,0,0,.3.1h.4a1.1,1.1,0,0,1,.19.012.482.482,0,0,1,.12.039v.31a.391.391,0,0,0-.145-.045,1.2,1.2,0,0,0-.162-.01h-.4a.685.685,0,0,1-.343-.077.4.4,0,0,1-.188-.264.481.481,0,0,1-.525.337h-.208a.606.606,0,0,1-.434-.143.627.627,0,0,1-.149-.468v-.61h2.552v.3h-1.09Zm-1.2.082a.3.3,0,0,0,.088.245.4.4,0,0,0,.261.072h.245a.323.323,0,0,0,.279-.1.482.482,0,0,0,.071-.282v-.231h-.944Z"/><path class="cls-3" d="M10.583,39.542a.594.594,0,0,1,.166-.47.678.678,0,0,1,.457-.144h.307a.628.628,0,0,1,.46.154.658.658,0,0,1,.156.483v.271h1.006v.306H10.583Zm1.29.023a.29.29,0,0,0-.342-.335h-.34a.4.4,0,0,0-.261.072.294.294,0,0,0-.088.24v.294h1.031Z"/><path class="cls-3" d="M12.621,38.38l.514.1v.283l-2.552-.525V37.8l2.552-.525v.3l-.514.107Zm-.245-.039V37.73l-1.472.309Z"/><path class="cls-3" d="M13.484,35.687h-.349v1.119h.349V37.1h-.6v-.177a.355.355,0,0,0-.164-.092,1.434,1.434,0,0,0-.207-.029L10.583,36.7V35.6h2.3v-.208h.6Zm-.976.818a1.027,1.027,0,0,1,.225.033.316.316,0,0,1,.15.092v-.725H10.842v.509Z"/><path class="cls-3" d="M11.957,34.4l1.178.4v.317H10.583v-.27h1.9l-.7-.243-1.2-.438v-.341h2.552V34.1H11.1Z"/><path class="cls-3" d="M11.2,33.546a.682.682,0,0,1-.469-.155.6.6,0,0,1-.173-.472.611.611,0,0,1,.173-.474.683.683,0,0,1,.469-.156h1.319a.681.681,0,0,1,.467.156.608.608,0,0,1,.175.474.6.6,0,0,1-.175.472.68.68,0,0,1-.467.155Zm1.334-.3a.414.414,0,0,0,.272-.08.362.362,0,0,0,0-.491.42.42,0,0,0-.272-.078H11.184a.415.415,0,0,0-.271.078.359.359,0,0,0,0,.491.409.409,0,0,0,.271.08Z"/><path class="cls-3" d="M10.842,31.416l1.658.064a1.374,1.374,0,0,1,.27.035.5.5,0,0,1,.2.09.4.4,0,0,1,.126.166.676.676,0,0,1,.043.26v.051h-.259a.433.433,0,0,0-.022-.152.191.191,0,0,0-.067-.093.267.267,0,0,0-.115-.045,1.346,1.346,0,0,0-.161-.016L10.583,31.7V30.587h2.552v.3H10.842Z"/><path class="cls-3" d="M10.557,28.931a.6.6,0,0,1,.173-.472A.677.677,0,0,1,11.2,28.3h1.319a.675.675,0,0,1,.467.155.725.725,0,0,1,0,.945.672.672,0,0,1-.467.157h-.532v.395h1.149v.306H10.583v-.306h1.148v-.395H11.2a.673.673,0,0,1-.469-.157A.607.607,0,0,1,10.557,28.931Zm.259,0a.3.3,0,0,0,.1.246.415.415,0,0,0,.271.079h1.349a.42.42,0,0,0,.272-.079.362.362,0,0,0,0-.491.42.42,0,0,0-.272-.081H11.184a.415.415,0,0,0-.271.081A.3.3,0,0,0,10.816,28.931Z"/><path class="cls-3" d="M11.637,27.384a.712.712,0,0,1,.143-.484.579.579,0,0,1,.454-.162h.28a.64.64,0,0,1,.46.153.63.63,0,0,1,.161.477v.639H10.583V26.852h.259v.853h.8Zm1.239-.016a.329.329,0,0,0-.082-.246.366.366,0,0,0-.261-.078h-.317a.311.311,0,0,0-.255.086.4.4,0,0,0-.07.254v.321h.985Z"/><path class="cls-3" d="M11.957,25.721l1.178.4v.317H10.583v-.27h1.9l-.7-.242-1.2-.439v-.341h2.552v.274H11.1Z"/><path class="cls-3" d="M13.135,24.422H10.842v.5h-.259V23.611h.259v.5h2.293Z"/><path class="cls-3" d="M11.713,22.41h.255v.669h.908v-.822h.259v1.128H10.583V22.257h.259v.822h.871Z"/><path class="cls-3" d="M10.842,21.392l1.658.063a1.544,1.544,0,0,1,.27.035.519.519,0,0,1,.2.09.415.415,0,0,1,.126.166.678.678,0,0,1,.043.261v.051h-.259a.435.435,0,0,0-.022-.153.188.188,0,0,0-.067-.092.255.255,0,0,0-.115-.045,1.346,1.346,0,0,0-.161-.016l-1.931-.074V20.563h2.552v.3H10.842Z"/><path class="cls-3" d="M11.713,19.263h.255v.669h.908v-.823h.259v1.128H10.583V19.109h.259v.823h.871Z"/><path class="cls-3" d="M10.062,17.743a.321.321,0,0,1,.262.112.463.463,0,0,1,.1.311.449.449,0,0,1-.1.308.353.353,0,0,1-.262.115V18.4a.179.179,0,0,0,.146-.07.3.3,0,0,0,.04-.161.309.309,0,0,0-.04-.162.175.175,0,0,0-.146-.072Zm1.844.341,1.229.427v.317H10.583v-.27h1.9L11.75,18.3l-1.167-.427v-.341h2.552v.274H11.1Z"/></g><path class="cls-3" d="M20.339,21.018l-.1-1.753h.428A2.531,2.531,0,0,0,21,18.746a3.469,3.469,0,0,0,.264-.788,5.638,5.638,0,0,0,.121-1.129l.082-1.488-.527-.092v-.434h4.109v.434l-.558.095v3.921h.684l-.069,1.747h-.6v-1.22H20.913v1.226Zm1.073-1.753h2.406V15.344H22.143l-.078,1.485a6.9,6.9,0,0,1-.106,1,4.614,4.614,0,0,1-.226.819A2.877,2.877,0,0,1,21.412,19.265Z"/><path class="cls-3" d="M25.568,21.213V20.78l.524-.1v-4.06l-.558-.1v-.435h1.135l.061.451a1.237,1.237,0,0,1,.45-.385,1.328,1.328,0,0,1,.613-.134,1.256,1.256,0,0,1,.783.248,1.535,1.535,0,0,1,.5.693,2.937,2.937,0,0,1,.17,1.044v.073a2.343,2.343,0,0,1-.172.933,1.429,1.429,0,0,1-.494.623,1.312,1.312,0,0,1-.772.225,1.473,1.473,0,0,1-.6-.115,1.183,1.183,0,0,1-.44-.34v1.275l.588.1v.433ZM27.6,19.336a.83.83,0,0,0,.724-.347,1.54,1.54,0,0,0,.246-.906V18.01a2.349,2.349,0,0,0-.109-.746,1.124,1.124,0,0,0-.327-.508.807.807,0,0,0-.542-.184.894.894,0,0,0-.492.13.979.979,0,0,0-.332.355v1.8a.928.928,0,0,0,.331.354A.938.938,0,0,0,27.6,19.336Z"/><path class="cls-3" d="M31.105,19.864a1.249,1.249,0,0,1-.879-.282,1.041,1.041,0,0,1-.3-.8,1,1,0,0,1,.193-.614,1.248,1.248,0,0,1,.559-.407,2.369,2.369,0,0,1,.875-.144h.66v-.364a.668.668,0,0,0-.2-.519.824.824,0,0,0-.573-.184,1.314,1.314,0,0,0-.4.056,1.239,1.239,0,0,0-.311.155l-.072.517h-.519v-.848a1.749,1.749,0,0,1,.582-.306,2.451,2.451,0,0,1,.734-.1,1.6,1.6,0,0,1,1.057.321,1.135,1.135,0,0,1,.383.92v1.78c0,.048,0,.095,0,.14a1.244,1.244,0,0,0,.008.137l.36.038v.431h-.968c-.021-.1-.036-.191-.048-.27s-.019-.16-.023-.24a1.645,1.645,0,0,1-.488.416A1.251,1.251,0,0,1,31.105,19.864Zm.1-.565a1.194,1.194,0,0,0,.611-.16.994.994,0,0,0,.4-.387v-.669h-.684a.976.976,0,0,0-.7.222.672.672,0,0,0-.233.5.459.459,0,0,0,.151.371A.69.69,0,0,0,31.205,19.3Z"/><path class="cls-3" d="M33.857,19.792v-.431l.557-.1V16.624l-.557-.1v-.435H35.64v.435l-.556.1v2.087l.02.007,1.63-2.625h1.231v.435l-.557.1v2.641l.557.1v.431H36.178v-.431l.556-.1V17.173l-.019-.006-1.631,2.625Zm2.074-4.348a1.089,1.089,0,0,1-.779-.269.911.911,0,0,1-.283-.7l.006-.021h.513a.6.6,0,0,0,.131.4.52.52,0,0,0,.412.153.513.513,0,0,0,.407-.153.587.587,0,0,0,.134-.4h.516l.006.021a.924.924,0,0,1-.285.7A1.082,1.082,0,0,1,35.931,15.444Z"/><path class="cls-3" d="M38.629,19.792v-.431l.556-.1V16.624l-.556-.1v-.435h2.012a2.121,2.121,0,0,1,1.135.255.844.844,0,0,1,.4.764.738.738,0,0,1-.158.463.964.964,0,0,1-.444.309.983.983,0,0,1,.54.32.812.812,0,0,1,.194.535.9.9,0,0,1-.377.786,1.811,1.811,0,0,1-1.058.267Zm1.23-2.137h.785a1.311,1.311,0,0,0,.645-.126.416.416,0,0,0,.217-.383q0-.531-.865-.53h-.782Zm0,1.617h1.018a.946.946,0,0,0,.568-.142.528.528,0,0,0,0-.815.938.938,0,0,0-.568-.144H39.859Z"/><path class="cls-3" d="M44.579,19.864a1.656,1.656,0,0,1-.892-.235,1.562,1.562,0,0,1-.586-.651,2.157,2.157,0,0,1-.207-.964v-.15a2.012,2.012,0,0,1,.217-.942,1.742,1.742,0,0,1,.578-.656,1.388,1.388,0,0,1,.788-.241,1.576,1.576,0,0,1,.835.205,1.289,1.289,0,0,1,.508.576,2.066,2.066,0,0,1,.171.873V18.1h-2.4l-.011.017a1.7,1.7,0,0,0,.125.631,1,1,0,0,0,.34.432.9.9,0,0,0,.533.156,1.722,1.722,0,0,0,.6-.1,1.417,1.417,0,0,0,.446-.269l.262.438a1.593,1.593,0,0,1-.524.323A2.093,2.093,0,0,1,44.579,19.864Zm-.967-2.291h1.7v-.088a1.159,1.159,0,0,0-.094-.478.755.755,0,0,0-.28-.331.834.834,0,0,0-.466-.121.688.688,0,0,0-.41.131,1.018,1.018,0,0,0-.3.357,1.5,1.5,0,0,0-.158.513Z"/><path class="cls-3" d="M46.411,21.213V20.78l.523-.1v-4.06l-.557-.1v-.435h1.135l.061.451a1.242,1.242,0,0,1,.449-.385,1.335,1.335,0,0,1,.614-.134,1.256,1.256,0,0,1,.783.248,1.535,1.535,0,0,1,.5.693,2.937,2.937,0,0,1,.17,1.044v.073a2.343,2.343,0,0,1-.172.933,1.429,1.429,0,0,1-.494.623,1.313,1.313,0,0,1-.773.225,1.471,1.471,0,0,1-.6-.115,1.175,1.175,0,0,1-.44-.34v1.275l.588.1v.433Zm2.027-1.877a.831.831,0,0,0,.725-.347,1.54,1.54,0,0,0,.246-.906V18.01a2.349,2.349,0,0,0-.109-.746,1.125,1.125,0,0,0-.328-.508.806.806,0,0,0-.542-.184.9.9,0,0,0-.492.13.984.984,0,0,0-.331.355v1.8a.878.878,0,0,0,.831.478Z"/><path class="cls-3" d="M52.5,19.792v-.431l.556-.1V15.344l-.556-.095v-.434H54.29v.434l-.557.095v3.921h1.682V15.344l-.558-.095v-.434h1.784v.434l-.556.095v3.921h1.674V15.344l-.557-.095v-.434h1.787v.434l-.557.095v3.921l.557.1v.431Z"/><path class="cls-3" d="M59.561,21.018l-.1-1.753h.427a2.45,2.45,0,0,0,.333-.519,3.418,3.418,0,0,0,.265-.788,5.719,5.719,0,0,0,.12-1.129l.082-1.488-.526-.092v-.434h4.108v.434l-.557.095v3.921H64.4l-.068,1.747h-.6v-1.22H60.136v1.226Zm1.074-1.753h2.406V15.344H61.366l-.078,1.485a6.89,6.89,0,0,1-.107,1,4.533,4.533,0,0,1-.225.819A2.877,2.877,0,0,1,60.635,19.265Z"/><path class="cls-4" d="M53.32,26.5a2.241,2.241,0,1,1,2.222-2.24A2.231,2.231,0,0,1,53.32,26.5Z"/><ellipse class="cls-5" cx="53.32" cy="24.255" rx="1.519" ry="1.532"/><path class="cls-4" d="M46.12,26.5a2.241,2.241,0,1,1,2.222-2.24A2.231,2.231,0,0,1,46.12,26.5Z"/><ellipse class="cls-5" cx="46.12" cy="24.255" rx="1.519" ry="1.532"/><path class="cls-4" d="M67.72,26.5a2.241,2.241,0,1,1,2.222-2.24A2.231,2.231,0,0,1,67.72,26.5Z"/><ellipse class="cls-5" cx="67.72" cy="24.255" rx="1.519" ry="1.532"/><path class="cls-4" d="M60.52,26.5a2.241,2.241,0,1,1,2.222-2.24A2.231,2.231,0,0,1,60.52,26.5Z"/><ellipse class="cls-5" cx="60.52" cy="24.255" rx="1.519" ry="1.532"/><path class="cls-4" d="M38.92,26.5a2.241,2.241,0,1,1,2.222-2.24A2.231,2.231,0,0,1,38.92,26.5Z"/><ellipse class="cls-5" cx="38.92" cy="24.255" rx="1.519" ry="1.532"/><path class="cls-4" d="M31.72,26.5a2.241,2.241,0,1,1,2.222-2.24A2.231,2.231,0,0,1,31.72,26.5Z"/><ellipse class="cls-5" cx="31.72" cy="24.255" rx="1.519" ry="1.532"/><path class="cls-4" d="M24.52,26.5a2.241,2.241,0,1,1,2.222-2.24A2.231,2.231,0,0,1,24.52,26.5Z"/><ellipse class="cls-5" cx="24.52" cy="24.255" rx="1.519" ry="1.532"/><path class="cls-4" d="M17.32,26.5a2.241,2.241,0,1,1,2.222-2.24A2.231,2.231,0,0,1,17.32,26.5Z"/><ellipse class="cls-5" cx="17.32" cy="24.255" rx="1.519" ry="1.532"/><path class="cls-4" d="M36.679,47.855a2.241,2.241,0,1,1,2.24,2.222A2.231,2.231,0,0,1,36.679,47.855Z"/><ellipse class="cls-5" cx="38.92" cy="47.855" rx="1.532" ry="1.519"/><path class="cls-4" d="M36.679,40.655a2.241,2.241,0,1,1,2.24,2.222A2.231,2.231,0,0,1,36.679,40.655Z"/><ellipse class="cls-5" cx="38.92" cy="40.655" rx="1.532" ry="1.519"/><path class="cls-4" d="M36.679,60.255a2.241,2.241,0,1,1,2.24,2.222A2.231,2.231,0,0,1,36.679,60.255Z"/><ellipse class="cls-5" cx="38.92" cy="60.255" rx="1.532" ry="1.519"/><path class="cls-4" d="M36.679,33.455a2.241,2.241,0,1,1,2.24,2.222A2.231,2.231,0,0,1,36.679,33.455Z"/><ellipse class="cls-5" cx="38.92" cy="33.455" rx="1.532" ry="1.519"/><path class="cls-4" d="M36.679,24.255a2.241,2.241,0,1,1,2.24,2.222A2.231,2.231,0,0,1,36.679,24.255Z"/><ellipse class="cls-5" cx="38.92" cy="24.255" rx="1.532" ry="1.519"/><path class="cls-4" d="M53.32,62.477a2.241,2.241,0,1,1,2.222-2.239A2.23,2.23,0,0,1,53.32,62.477Z"/><ellipse class="cls-5" cx="53.32" cy="60.237" rx="1.519" ry="1.532"/><path class="cls-4" d="M46.12,62.477a2.241,2.241,0,1,1,2.222-2.239A2.23,2.23,0,0,1,46.12,62.477Z"/><ellipse class="cls-5" cx="46.12" cy="60.237" rx="1.519" ry="1.532"/><path class="cls-4" d="M67.72,62.477a2.241,2.241,0,1,1,2.222-2.239A2.23,2.23,0,0,1,67.72,62.477Z"/><ellipse class="cls-5" cx="67.72" cy="60.237" rx="1.519" ry="1.532"/><path class="cls-4" d="M60.52,62.477a2.241,2.241,0,1,1,2.222-2.239A2.23,2.23,0,0,1,60.52,62.477Z"/><ellipse class="cls-5" cx="60.52" cy="60.237" rx="1.519" ry="1.532"/><path class="cls-4" d="M38.92,62.477a2.241,2.241,0,1,1,2.222-2.239A2.23,2.23,0,0,1,38.92,62.477Z"/><ellipse class="cls-5" cx="38.92" cy="60.237" rx="1.519" ry="1.532"/><path class="cls-4" d="M31.72,62.477a2.241,2.241,0,1,1,2.222-2.239A2.231,2.231,0,0,1,31.72,62.477Z"/><ellipse class="cls-5" cx="31.72" cy="60.237" rx="1.519" ry="1.532"/><path class="cls-4" d="M24.52,62.477a2.241,2.241,0,1,1,2.222-2.239A2.23,2.23,0,0,1,24.52,62.477Z"/><ellipse class="cls-5" cx="24.52" cy="60.237" rx="1.519" ry="1.532"/><path class="cls-4" d="M17.32,62.477a2.241,2.241,0,1,1,2.222-2.239A2.23,2.23,0,0,1,17.32,62.477Z"/><ellipse class="cls-5" cx="17.32" cy="60.237" rx="1.519" ry="1.532"/><path class="cls-3" d="M16.067,29.765a.648.648,0,0,1-.3.232,1.22,1.22,0,0,1-.451.077.879.879,0,0,1-.463-.122.827.827,0,0,1-.313-.348,1.216,1.216,0,0,1-.113-.523V28.9a1.128,1.128,0,0,1,.224-.748.788.788,0,0,1,.632-.265.809.809,0,0,1,.538.171.741.741,0,0,1,.249.484h-.281a.466.466,0,0,0-.5-.425.5.5,0,0,0-.429.2.977.977,0,0,0-.147.575v.175a.912.912,0,0,0,.164.571.533.533,0,0,0,.444.212.988.988,0,0,0,.277-.035.435.435,0,0,0,.2-.119v-.478h-.494v-.23h.773Z"/><path class="cls-3" d="M18.176,30.044h-.284L16.819,28.4v1.643h-.282V27.912h.282L17.9,29.563V27.912h.28Z"/><path class="cls-3" d="M18.676,30.044V27.912h.6a.966.966,0,0,1,.492.123.821.821,0,0,1,.33.35,1.121,1.121,0,0,1,.119.521v.136a1.136,1.136,0,0,1-.117.529.814.814,0,0,1-.333.349,1.027,1.027,0,0,1-.5.124Zm.281-1.9v1.672h.295a.645.645,0,0,0,.507-.2.839.839,0,0,0,.18-.576v-.125a.842.842,0,0,0-.171-.565.606.606,0,0,0-.483-.2Z"/><path class="cls-3" d="M22.981,29.671l.61-1.759H23.9l-.791,2.132h-.25l-.789-2.132h.307Z"/><path class="cls-3" d="M24.713,29.853a.4.4,0,0,0,.253-.088.317.317,0,0,0,.121-.22h.256a.5.5,0,0,1-.094.259.626.626,0,0,1-.231.2.675.675,0,0,1-.3.073.652.652,0,0,1-.515-.216.858.858,0,0,1-.191-.591v-.046a.947.947,0,0,1,.085-.411.63.63,0,0,1,.244-.28.683.683,0,0,1,.376-.1.632.632,0,0,1,.442.16.569.569,0,0,1,.189.414h-.256a.383.383,0,0,0-.117-.253.367.367,0,0,0-.258-.1.382.382,0,0,0-.321.148.7.7,0,0,0-.113.43v.052a.688.688,0,0,0,.112.422A.385.385,0,0,0,24.713,29.853Z"/><path class="cls-3" d="M26.283,29.853a.391.391,0,0,0,.253-.088.317.317,0,0,0,.121-.22h.256a.488.488,0,0,1-.094.259.623.623,0,0,1-.23.2.682.682,0,0,1-.306.073.652.652,0,0,1-.515-.216.858.858,0,0,1-.191-.591v-.046a.947.947,0,0,1,.085-.411.643.643,0,0,1,.244-.28.688.688,0,0,1,.376-.1.631.631,0,0,1,.442.16.565.565,0,0,1,.189.414h-.256a.383.383,0,0,0-.117-.253.364.364,0,0,0-.258-.1.379.379,0,0,0-.32.148.7.7,0,0,0-.114.43v.052a.688.688,0,0,0,.113.422A.382.382,0,0,0,26.283,29.853Z"/><path class="cls-3" d="M43.062,34.152l.61-1.759h.308l-.791,2.132h-.25l-.789-2.132h.307Z"/><path class="cls-3" d="M44.794,34.334a.4.4,0,0,0,.253-.088.317.317,0,0,0,.121-.22h.256a.488.488,0,0,1-.094.259.615.615,0,0,1-.231.2.663.663,0,0,1-.3.074.652.652,0,0,1-.515-.216.858.858,0,0,1-.191-.591V33.7a.947.947,0,0,1,.085-.411.63.63,0,0,1,.244-.28.683.683,0,0,1,.376-.1.631.631,0,0,1,.442.16.569.569,0,0,1,.189.414h-.256a.383.383,0,0,0-.117-.253.367.367,0,0,0-.258-.1.382.382,0,0,0-.321.148.7.7,0,0,0-.113.43v.052a.681.681,0,0,0,.113.422A.382.382,0,0,0,44.794,34.334Z"/><path class="cls-3" d="M46.364,34.334a.391.391,0,0,0,.253-.088.317.317,0,0,0,.121-.22h.256a.488.488,0,0,1-.094.259.612.612,0,0,1-.23.2.667.667,0,0,1-.306.074.652.652,0,0,1-.515-.216.862.862,0,0,1-.191-.591V33.7a.947.947,0,0,1,.085-.411.643.643,0,0,1,.244-.28.688.688,0,0,1,.376-.1.631.631,0,0,1,.442.16.565.565,0,0,1,.189.414h-.256a.383.383,0,0,0-.117-.253.364.364,0,0,0-.258-.1.379.379,0,0,0-.32.148.7.7,0,0,0-.113.43v.052a.688.688,0,0,0,.112.422A.382.382,0,0,0,46.364,34.334Z"/><path class="cls-3" d="M44.442,49.164h-.283l-1.073-1.643v1.643H42.8V47.031h.282l1.077,1.652V47.031h.279Z"/><path class="cls-3" d="M46.511,48.487a.788.788,0,0,1-.25.523.817.817,0,0,1-.559.183.747.747,0,0,1-.6-.27,1.087,1.087,0,0,1-.229-.726v-.205a1.222,1.222,0,0,1,.106-.522.791.791,0,0,1,.3-.347A.829.829,0,0,1,45.727,47a.774.774,0,0,1,.545.189.8.8,0,0,1,.239.526h-.284a.613.613,0,0,0-.158-.37.483.483,0,0,0-.342-.115.5.5,0,0,0-.422.2.907.907,0,0,0-.154.567v.207a.949.949,0,0,0,.145.553.469.469,0,0,0,.406.2.533.533,0,0,0,.359-.107.583.583,0,0,0,.166-.37Z"/><path class="cls-3" d="M43.229,41.223l.61-1.76h.308L43.356,41.6h-.25l-.789-2.133h.307Z"/><path class="cls-3" d="M44.645,40.011l.007.176a.586.586,0,0,1,.471-.2.454.454,0,0,1,.453.255.585.585,0,0,1,.505-.255c.348,0,.524.184.53.552V41.6H46.34V40.55a.369.369,0,0,0-.077-.254A.344.344,0,0,0,46,40.212a.352.352,0,0,0-.366.332V41.6h-.273V40.558a.3.3,0,0,0-.338-.346.363.363,0,0,0-.365.227V41.6h-.272V40.011Z"/><path class="cls-3" d="M46.947,40.789a.938.938,0,0,1,.092-.419.68.68,0,0,1,.255-.287.7.7,0,0,1,.373-.1.668.668,0,0,1,.523.224.858.858,0,0,1,.2.6v.019a.948.948,0,0,1-.088.416.677.677,0,0,1-.253.286.711.711,0,0,1-.379.1.668.668,0,0,1-.523-.225.858.858,0,0,1-.2-.593Zm.274.032a.678.678,0,0,0,.122.424.415.415,0,0,0,.655,0,.745.745,0,0,0,.121-.454A.678.678,0,0,0,48,40.367a.394.394,0,0,0-.329-.162.388.388,0,0,0-.323.159A.738.738,0,0,0,47.221,40.821Z"/><path class="cls-3" d="M49.1,39.627v.384h.3v.21h-.3v.984a.216.216,0,0,0,.041.143.167.167,0,0,0,.134.048.629.629,0,0,0,.129-.018V41.6a.763.763,0,0,1-.208.03.334.334,0,0,1-.273-.11.467.467,0,0,1-.093-.312v-.983h-.288v-.21h.288v-.384Z"/><path class="cls-3" d="M28.267,35.208a1.325,1.325,0,0,1-.105.547.793.793,0,0,1-.3.356.824.824,0,0,1-.451.123.8.8,0,0,1-.75-.476,1.28,1.28,0,0,1-.11-.531v-.154a1.314,1.314,0,0,1,.106-.544.841.841,0,0,1,1.2-.362.8.8,0,0,1,.3.358,1.339,1.339,0,0,1,.105.548Zm-.28-.138a.964.964,0,0,0-.152-.583.506.506,0,0,0-.427-.2.5.5,0,0,0-.419.2.935.935,0,0,0-.157.564v.157a.953.953,0,0,0,.154.577.541.541,0,0,0,.848.012.956.956,0,0,0,.153-.569Z"/><path class="cls-3" d="M29.99,34.3H28.961v.64h.531a.768.768,0,0,1,.521.172.576.576,0,0,1,.188.454.591.591,0,0,1-.189.46.762.762,0,0,1-.516.177h-.817V34.072H29.99Zm-1.029.87v.8h.514a.458.458,0,0,0,.327-.111.4.4,0,0,0,.116-.3.368.368,0,0,0-.113-.285.46.46,0,0,0-.318-.107Z"/><path class="cls-3" d="M30.873,34.072v1.9h.733v-1.9h.281v1.9h.728v-1.9H32.9v1.912h.216l-.026.735h-.242v-.514H30.59V34.072Z"/><path class="cls-3" d="M29.174,39.205H28.89V37.3H27.839v1.9h-.282V37.072h1.617Z"/><path class="cls-3" d="M31.029,37.072h.281v2.133h-.281V37.562l-1.05,1.643H29.7V37.072h.282v1.644Z"/><path class="cls-3" d="M33.254,37.3h-.686v1.9h-.279V37.3h-.684v-.23h1.649Z"/><path class="cls-3" d="M31.012,30.044h-.274V28.238l-.546.2v-.246l.777-.292h.043Z"/><path class="cls-3" d="M31.876,30.044V27.912h.7a.808.808,0,0,1,.522.143.517.517,0,0,1,.175.425.433.433,0,0,1-.086.265.55.55,0,0,1-.23.177.5.5,0,0,1,.272.184.522.522,0,0,1,.1.323.572.572,0,0,1-.186.451.767.767,0,0,1-.526.164Zm.281-1.223h.424a.446.446,0,0,0,.3-.092.312.312,0,0,0,.11-.251.3.3,0,0,0-.1-.256.5.5,0,0,0-.312-.08h-.416Zm0,.226v.767h.464a.438.438,0,0,0,.309-.1.351.351,0,0,0,.114-.28c0-.257-.14-.385-.418-.385Z"/><path class="cls-3" d="M53.118,30.044h-1.4V29.85l.738-.821a1.8,1.8,0,0,0,.225-.3.5.5,0,0,0,.063-.241.385.385,0,0,0-.1-.274.356.356,0,0,0-.269-.107.423.423,0,0,0-.315.115.438.438,0,0,0-.112.32H51.68a.627.627,0,0,1,.19-.476.7.7,0,0,1,.508-.182.67.67,0,0,1,.469.157.527.527,0,0,1,.173.415,1.217,1.217,0,0,1-.4.75l-.571.619h1.07Z"/><path class="cls-3" d="M53.476,30.044V27.912h.7a.805.805,0,0,1,.521.143.517.517,0,0,1,.176.425.433.433,0,0,1-.086.265.563.563,0,0,1-.23.177.5.5,0,0,1,.272.184.529.529,0,0,1,.1.323.572.572,0,0,1-.186.451.769.769,0,0,1-.526.164Zm.282-1.223h.423a.444.444,0,0,0,.3-.092.31.31,0,0,0,.111-.251.3.3,0,0,0-.1-.256.5.5,0,0,0-.311-.08h-.416Zm0,.226v.767h.464a.44.44,0,0,0,.309-.1.354.354,0,0,0,.113-.28q0-.385-.418-.385Z"/><path class="cls-3" d="M38.168,30.044h-.274V28.238l-.546.2v-.246l.777-.292h.043Z"/><path class="cls-3" d="M40.21,29.486h-.9l-.2.558h-.29l.814-2.132h.247l.816,2.132h-.289Zm-.809-.23h.725l-.363-1Z"/><path class="cls-3" d="M45.645,30.044h-1.4V29.85l.738-.821a1.766,1.766,0,0,0,.226-.3.5.5,0,0,0,.062-.241.388.388,0,0,0-.1-.274.36.36,0,0,0-.27-.107.419.419,0,0,0-.314.115.434.434,0,0,0-.113.32h-.27a.627.627,0,0,1,.189-.476.7.7,0,0,1,.508-.182.673.673,0,0,1,.47.157.531.531,0,0,1,.173.415,1.219,1.219,0,0,1-.4.75l-.571.619h1.07Z"/><path class="cls-3" d="M47.181,29.486h-.894l-.2.558H45.8l.814-2.132h.246l.817,2.132h-.289Zm-.808-.23H47.1l-.363-1Z"/><path class="cls-3" d="M60.388,29.091H58.431V28.87h1.957Z"/><path class="cls-3" d="M61.917,27.912l.7,1.74.7-1.74h.365v2.132h-.282v-.83l.027-.9-.7,1.727h-.216l-.7-1.722.029.892v.83h-.281V27.912Z"/><path class="cls-3" d="M65.813,29.047a1.325,1.325,0,0,1-.105.547.8.8,0,0,1-.3.357.824.824,0,0,1-.451.123.808.808,0,0,1-.447-.124.816.816,0,0,1-.3-.353,1.28,1.28,0,0,1-.111-.531v-.154a1.306,1.306,0,0,1,.107-.543.79.79,0,0,1,.75-.487.831.831,0,0,1,.452.124.8.8,0,0,1,.3.359,1.331,1.331,0,0,1,.105.547Zm-.28-.138a.959.959,0,0,0-.152-.582.5.5,0,0,0-.427-.2.5.5,0,0,0-.419.2.923.923,0,0,0-.157.563v.157a.958.958,0,0,0,.154.578.542.542,0,0,0,.848.011.956.956,0,0,0,.153-.569Z"/><path class="cls-3" d="M67.593,28.142h-.686v1.9h-.279v-1.9h-.684v-.23h1.649Z"/><path class="cls-3" d="M69.3,28.9H69.9v.257H69.3v.674h-.273v-.674h-.595V28.9h.595v-.622H69.3Z"/><path class="cls-3" d="M15.253,57V54.863h.6a.972.972,0,0,1,.493.123.842.842,0,0,1,.33.351,1.133,1.133,0,0,1,.118.521v.136a1.152,1.152,0,0,1-.116.529.826.826,0,0,1-.333.349,1.032,1.032,0,0,1-.5.124Zm.281-1.9v1.673h.295a.646.646,0,0,0,.507-.2.839.839,0,0,0,.18-.576v-.125a.849.849,0,0,0-.17-.565.61.61,0,0,0-.484-.2Z"/><path class="cls-3" d="M17.521,57H17.24V54.863h.281Z"/><path class="cls-3" d="M18.818,56.134h-.5V57h-.283V54.863h.706a.841.841,0,0,1,.555.164.593.593,0,0,1,.194.478.576.576,0,0,1-.108.348.648.648,0,0,1-.3.22l.5.906V57h-.3Zm-.5-.231h.432a.489.489,0,0,0,.333-.108.365.365,0,0,0,.124-.291.387.387,0,0,0-.118-.3.5.5,0,0,0-.341-.106h-.43Z"/><path class="cls-3" d="M21.812,56.046a1.311,1.311,0,0,1-.526-.256.49.49,0,0,1-.165-.374.516.516,0,0,1,.2-.417.8.8,0,0,1,.525-.165.868.868,0,0,1,.391.085.663.663,0,0,1,.267.234.609.609,0,0,1,.093.327h-.282a.391.391,0,0,0-.123-.3.5.5,0,0,0-.346-.111.516.516,0,0,0-.326.092.307.307,0,0,0-.116.254.279.279,0,0,0,.11.222,1.128,1.128,0,0,0,.377.165,1.759,1.759,0,0,1,.416.164.641.641,0,0,1,.223.211.538.538,0,0,1,.072.282.5.5,0,0,1-.2.415.855.855,0,0,1-.541.156,1.006,1.006,0,0,1-.41-.084.67.67,0,0,1-.293-.23.564.564,0,0,1-.1-.333h.283a.37.37,0,0,0,.142.306.6.6,0,0,0,.381.112.551.551,0,0,0,.342-.091.3.3,0,0,0,.119-.248.289.289,0,0,0-.11-.242A1.25,1.25,0,0,0,21.812,56.046Z"/><path class="cls-3" d="M24.436,55.094h-.685V57h-.279v-1.9h-.684v-.231h1.648Z"/><path class="cls-3" d="M25.959,56.011h-.924v.756h1.073V57H24.754V54.863h1.34v.231H25.035v.686h.924Z"/><path class="cls-3" d="M26.74,56.161V57h-.281V54.863h.786a.794.794,0,0,1,.549.179.607.607,0,0,1,.2.474.592.592,0,0,1-.194.477.825.825,0,0,1-.556.168Zm0-.229h.505a.506.506,0,0,0,.346-.107.39.39,0,0,0,.12-.307.405.405,0,0,0-.12-.306.476.476,0,0,0-.329-.118H26.74Z"/><path class="cls-3" d="M29.952,56.046a1.311,1.311,0,0,1-.526-.256.486.486,0,0,1-.165-.374.516.516,0,0,1,.2-.417.8.8,0,0,1,.524-.165.869.869,0,0,1,.392.085.653.653,0,0,1,.266.234.6.6,0,0,1,.094.327h-.282a.391.391,0,0,0-.123-.3.505.505,0,0,0-.347-.111.515.515,0,0,0-.325.092.307.307,0,0,0-.116.254.279.279,0,0,0,.11.222,1.109,1.109,0,0,0,.377.165,1.777,1.777,0,0,1,.416.164.641.641,0,0,1,.223.211.538.538,0,0,1,.072.282.5.5,0,0,1-.2.415.857.857,0,0,1-.541.156,1,1,0,0,1-.41-.084.67.67,0,0,1-.293-.23.558.558,0,0,1-.1-.333h.283a.368.368,0,0,0,.143.306A.6.6,0,0,0,30,56.8a.553.553,0,0,0,.342-.091.3.3,0,0,0,.119-.248.287.287,0,0,0-.111-.242A1.253,1.253,0,0,0,29.952,56.046Z"/><path class="cls-3" d="M31.387,56.767H32.4V57H31.1V54.863h.283Z"/><path class="cls-3" d="M33,56.161V57h-.281V54.863h.786a.794.794,0,0,1,.549.179.611.611,0,0,1,.2.474.593.593,0,0,1-.2.477.82.82,0,0,1-.555.168Zm0-.229h.505a.5.5,0,0,0,.345-.107.39.39,0,0,0,.121-.307.406.406,0,0,0-.121-.306.474.474,0,0,0-.329-.118H33Z"/><path class="cls-3" d="M37.283,56.134h-.5V57H36.5V54.863h.706a.841.841,0,0,1,.555.164.6.6,0,0,1,.194.478.576.576,0,0,1-.108.348.648.648,0,0,1-.3.22l.5.906V57h-.3Zm-.5-.231h.432a.489.489,0,0,0,.333-.108.365.365,0,0,0,.124-.291.387.387,0,0,0-.118-.3.5.5,0,0,0-.341-.106h-.43Z"/><path class="cls-3" d="M39.555,56.011h-.924v.756H39.7V57H38.349V54.863h1.34v.231H38.631v.686h.924Z"/><path class="cls-3" d="M40.682,56.046a1.311,1.311,0,0,1-.526-.256.49.49,0,0,1-.165-.374.516.516,0,0,1,.2-.417.8.8,0,0,1,.525-.165.868.868,0,0,1,.391.085.663.663,0,0,1,.267.234.61.61,0,0,1,.094.327h-.283a.391.391,0,0,0-.123-.3.5.5,0,0,0-.346-.111.518.518,0,0,0-.326.092.307.307,0,0,0-.116.254.277.277,0,0,0,.111.222,1.109,1.109,0,0,0,.377.165,1.8,1.8,0,0,1,.416.164.646.646,0,0,1,.222.211.538.538,0,0,1,.072.282.5.5,0,0,1-.2.415.853.853,0,0,1-.541.156,1.006,1.006,0,0,1-.41-.084.676.676,0,0,1-.293-.23.564.564,0,0,1-.1-.333h.283a.37.37,0,0,0,.142.306.6.6,0,0,0,.381.112.551.551,0,0,0,.342-.091.3.3,0,0,0,.119-.248.289.289,0,0,0-.11-.242A1.25,1.25,0,0,0,40.682,56.046Z"/><path class="cls-3" d="M43.689,54.863l.7,1.741.7-1.741h.364V57h-.281v-.83l.026-.9L44.493,57h-.216l-.7-1.723.028.893V57h-.281V54.863Z"/><path class="cls-3" d="M46.573,56.046a1.311,1.311,0,0,1-.526-.256.486.486,0,0,1-.165-.374.516.516,0,0,1,.2-.417.8.8,0,0,1,.524-.165.869.869,0,0,1,.392.085.653.653,0,0,1,.266.234.6.6,0,0,1,.094.327h-.282a.391.391,0,0,0-.123-.3.505.505,0,0,0-.347-.111.515.515,0,0,0-.325.092.307.307,0,0,0-.116.254.279.279,0,0,0,.11.222,1.109,1.109,0,0,0,.377.165,1.759,1.759,0,0,1,.416.164.641.641,0,0,1,.223.211.538.538,0,0,1,.072.282.5.5,0,0,1-.2.415.857.857,0,0,1-.541.156,1,1,0,0,1-.41-.084.67.67,0,0,1-.293-.23.558.558,0,0,1-.1-.333H46.1a.368.368,0,0,0,.143.306.6.6,0,0,0,.381.112.553.553,0,0,0,.342-.091.3.3,0,0,0,.119-.248.289.289,0,0,0-.11-.242A1.272,1.272,0,0,0,46.573,56.046Z"/><path class="cls-3" d="M48.049,55.8h.2a.444.444,0,0,0,.3-.1.335.335,0,0,0,.11-.265.331.331,0,0,0-.374-.375.391.391,0,0,0-.28.1.353.353,0,0,0-.1.266h-.271A.545.545,0,0,1,47.819,55a.681.681,0,0,1,.471-.168.669.669,0,0,1,.473.16.574.574,0,0,1,.171.444.468.468,0,0,1-.089.269.543.543,0,0,1-.246.2.521.521,0,0,1,.272.185.51.51,0,0,1,.1.314.585.585,0,0,1-.188.456.7.7,0,0,1-.488.168.715.715,0,0,1-.488-.162.538.538,0,0,1-.189-.429h.273A.351.351,0,0,0,48,56.7a.418.418,0,0,0,.3.1.412.412,0,0,0,.3-.1.4.4,0,0,0,.1-.3.357.357,0,0,0-.114-.285.5.5,0,0,0-.329-.1h-.2Z"/><path class="cls-3" d="M50.889,54.863l.7,1.741.7-1.741h.364V57h-.281v-.83l.026-.9L51.693,57h-.216l-.7-1.723.028.893V57h-.281V54.863Z"/><path class="cls-3" d="M53.773,56.046a1.311,1.311,0,0,1-.526-.256.49.49,0,0,1-.165-.374.516.516,0,0,1,.2-.417.8.8,0,0,1,.524-.165.869.869,0,0,1,.392.085.663.663,0,0,1,.267.234.609.609,0,0,1,.093.327h-.282a.391.391,0,0,0-.123-.3.505.505,0,0,0-.347-.111.515.515,0,0,0-.325.092.307.307,0,0,0-.116.254.279.279,0,0,0,.11.222,1.128,1.128,0,0,0,.377.165,1.759,1.759,0,0,1,.416.164.641.641,0,0,1,.223.211.538.538,0,0,1,.072.282.5.5,0,0,1-.2.415.855.855,0,0,1-.541.156,1.006,1.006,0,0,1-.41-.084.67.67,0,0,1-.293-.23.565.565,0,0,1-.1-.333H53.3a.37.37,0,0,0,.142.306.6.6,0,0,0,.381.112.551.551,0,0,0,.342-.091.3.3,0,0,0,.119-.248.289.289,0,0,0-.11-.242A1.261,1.261,0,0,0,53.773,56.046Z"/><path class="cls-3" d="M56.252,57h-1.4V56.8l.739-.821a1.8,1.8,0,0,0,.225-.3.5.5,0,0,0,.063-.241.387.387,0,0,0-.1-.274.356.356,0,0,0-.269-.107.422.422,0,0,0-.315.115.438.438,0,0,0-.112.32h-.271a.627.627,0,0,1,.19-.476.7.7,0,0,1,.508-.182.674.674,0,0,1,.469.156.529.529,0,0,1,.173.415,1.222,1.222,0,0,1-.4.75l-.572.62h1.071Z"/><path class="cls-3" d="M58.09,54.863l.7,1.741.7-1.741h.364V57h-.281v-.83l.027-.9L58.893,57h-.215l-.7-1.723.029.893V57h-.282V54.863Z"/><path class="cls-3" d="M60.973,56.046a1.311,1.311,0,0,1-.526-.256.49.49,0,0,1-.165-.374.516.516,0,0,1,.2-.417.8.8,0,0,1,.525-.165.868.868,0,0,1,.391.085.663.663,0,0,1,.267.234.61.61,0,0,1,.094.327h-.283a.391.391,0,0,0-.123-.3.5.5,0,0,0-.346-.111.518.518,0,0,0-.326.092.307.307,0,0,0-.116.254.277.277,0,0,0,.111.222,1.109,1.109,0,0,0,.377.165,1.8,1.8,0,0,1,.416.164.646.646,0,0,1,.222.211.538.538,0,0,1,.072.282.5.5,0,0,1-.2.415.853.853,0,0,1-.541.156,1.006,1.006,0,0,1-.41-.084.676.676,0,0,1-.293-.23.564.564,0,0,1-.1-.333H60.5a.37.37,0,0,0,.142.306.6.6,0,0,0,.381.112.551.551,0,0,0,.342-.091.3.3,0,0,0,.119-.248.289.289,0,0,0-.11-.242A1.25,1.25,0,0,0,60.973,56.046Z"/><path class="cls-3" d="M62.946,57h-.273V55.19l-.546.2v-.246l.776-.291h.043Z"/><path class="cls-3" d="M67.251,56.011h-.924v.756H67.4V57H66.046V54.863h1.34v.231H66.327v.686h.924Z"/><path class="cls-3" d="M69.389,57h-.283l-1.073-1.643V57h-.282V54.863h.282l1.077,1.652V54.863h.279Z"/><polyline class="cls-7" points="36.257 31.662 34.035 31.662 34.035 42.796 36.257 42.796"/><path class="cls-4" d="M54.534,76.118a2.241,2.241,0,1,0,2.24-2.222A2.231,2.231,0,0,0,54.534,76.118Z"/><ellipse class="cls-5" cx="56.775" cy="76.118" rx="1.532" ry="1.519"/><path class="cls-8" d="M31.507,64.4h-.034l-.039,15.259V80h.091l21.554-.048h.14l.039-15.542v-.053H53.2"/><line class="cls-8" x1="38.732" y1="64.384" x2="38.732" y2="79.978"/><line class="cls-8" x1="45.969" y1="64.368" x2="45.969" y2="79.961"/><path class="cls-4" d="M47.306,76.118a2.241,2.241,0,1,0,2.24-2.222A2.231,2.231,0,0,0,47.306,76.118Z"/><ellipse class="cls-5" cx="49.547" cy="76.118" rx="1.532" ry="1.519"/><path class="cls-4" d="M40.106,76.118a2.241,2.241,0,1,0,2.24-2.222A2.231,2.231,0,0,0,40.106,76.118Z"/><ellipse class="cls-5" cx="42.347" cy="76.118" rx="1.532" ry="1.519"/><path class="cls-4" d="M33.518,74.489A2.279,2.279,0,0,0,35.7,78.273a2.206,2.206,0,0,0,1.6-1.595A2.279,2.279,0,0,0,33.518,74.489Z"/><ellipse class="cls-5" cx="35.147" cy="76.118" rx="1.532" ry="1.519"/><path class="cls-4" d="M26.318,74.489A2.279,2.279,0,0,0,28.5,78.273a2.206,2.206,0,0,0,1.6-1.595A2.279,2.279,0,0,0,26.318,74.489Z"/><ellipse class="cls-5" cx="27.947" cy="76.118" rx="1.532" ry="1.519"/><path class="cls-9" d="M54.731,71.172v-.446l.582-.1V66.563l-.582-.1v-.449h3.852v1.239h-.565l-.078-.7H56.017v1.679h1.919v.549H56.017v1.867h2.038l.078-.711h.561v1.236Z"/><path class="cls-9" d="M49.779,71.246a2.308,2.308,0,0,1-1.251-.331,2.181,2.181,0,0,1-.814-.92,3.065,3.065,0,0,1-.286-1.36V68.55a3.042,3.042,0,0,1,.288-1.365,2.245,2.245,0,0,1,.787-.916,2.02,2.02,0,0,1,1.136-.331,3.359,3.359,0,0,1,1.032.139,2.348,2.348,0,0,1,.723.372V67.49h-.579l-.075-.747a1.355,1.355,0,0,0-.429-.172,2.7,2.7,0,0,0-.6-.058,1.35,1.35,0,0,0-.8.255,1.719,1.719,0,0,0-.564.711,2.531,2.531,0,0,0-.208,1.064v.092a2.789,2.789,0,0,0,.191,1.075,1.571,1.571,0,0,0,.56.713,1.535,1.535,0,0,0,.893.253,2.533,2.533,0,0,0,.6-.062,2.041,2.041,0,0,0,.436-.161V69.241l-1-.036v-.514h1.7v2a2.132,2.132,0,0,1-.644.382A2.917,2.917,0,0,1,49.779,71.246Z"/><path class="cls-9" d="M42.047,71.282,40.3,66.63l-.418-.057v-.449h1.639v.449L41,66.645l1.208,3.284.129.407h.021l.121-.407,1.164-3.281-.474-.075v-.449h1.643v.449l-.415.057-1.743,4.652Z"/><path class="cls-9" d="M35.157,71.356a3.036,3.036,0,0,1-.915-.137,3,3,0,0,1-.84-.426v-1.1h.547l.118.812a2.017,2.017,0,0,0,.5.22,2.151,2.151,0,0,0,.586.078,1.5,1.5,0,0,0,.606-.109.866.866,0,0,0,.38-.3.823.823,0,0,0,.018-.865.959.959,0,0,0-.377-.317,3.033,3.033,0,0,0-.717-.238,3.449,3.449,0,0,1-.905-.332,1.557,1.557,0,0,1-.562-.5,1.227,1.227,0,0,1-.191-.679,1.254,1.254,0,0,1,.217-.723,1.48,1.48,0,0,1,.6-.5,2.071,2.071,0,0,1,.9-.184,2.651,2.651,0,0,1,.967.165,2.406,2.406,0,0,1,.691.4v1.032h-.547l-.117-.738a1.41,1.41,0,0,0-.4-.212,1.817,1.817,0,0,0-.594-.085,1.261,1.261,0,0,0-.529.105.848.848,0,0,0-.357.292.76.76,0,0,0-.129.442.668.668,0,0,0,.116.391.955.955,0,0,0,.379.292,3.778,3.778,0,0,0,.7.235,2.774,2.774,0,0,1,1.245.6,1.281,1.281,0,0,1,.424.976,1.25,1.25,0,0,1-.225.736,1.483,1.483,0,0,1-.634.5A2.361,2.361,0,0,1,35.157,71.356Z"/><path class="cls-9" d="M25.813,71.282v-.446l.583-.1V66.673l-.583-.1v-.449H27.85a2.2,2.2,0,0,1,1.2.325,2.22,2.22,0,0,1,.8.9,2.868,2.868,0,0,1,.287,1.3v.111a2.932,2.932,0,0,1-.276,1.288,2.182,2.182,0,0,1-.781.9,2.129,2.129,0,0,1-1.2.331Zm1.286-.546h.751a1.364,1.364,0,0,0,.847-.267,1.712,1.712,0,0,0,.545-.715,2.5,2.5,0,0,0,.191-.994v-.117a2.524,2.524,0,0,0-.191-1.008,1.65,1.65,0,0,0-.545-.7,1.39,1.39,0,0,0-.847-.259H27.1Z"/><path class="cls-8" d="M53.2,64.352h7.582v15.6H53.219"/><path class="cls-8" d="M31.525,80H24.034V64.325l29.168.027"/><polygon class="cls-3" points="25.735 79.656 24.463 78.382 24.464 73.851 25.739 72.579 30.27 72.58 31.543 73.855 31.541 78.386 30.268 79.656 25.735 79.656"/><path d="M30.266,72.585l1.27,1.27v4.527l-1.27,1.269H25.739l-.277-.277-.993-.992V73.855l.162-.162,1.108-1.108h4.527m0-.01H25.735L24.459,73.85v4.536l1.276,1.275H30.27l1.276-1.275V73.85L30.27,72.575Z"/><rect class="cls-10" x="27.119" y="75.211" width="1.768" height="1.814"/><rect class="cls-11" x="27.519" y="75.622" width="0.967" height="0.992"/><line class="cls-12" x1="27.119" y1="75.211" x2="27.519" y2="75.622"/><line class="cls-12" x1="28.486" y1="75.622" x2="28.886" y2="75.211"/><line class="cls-12" x1="28.486" y1="76.614" x2="28.886" y2="77.025"/><line class="cls-12" x1="27.519" y1="76.614" x2="27.119" y2="77.025"/><polygon class="cls-3" points="40.078 79.656 38.806 78.382 38.807 73.851 40.082 72.579 44.614 72.58 45.886 73.855 45.885 78.386 44.612 79.656 40.078 79.656"/><path d="M44.61,72.585l1.269,1.27v4.527L44.61,79.651H40.082l-1.269-1.269V73.855l1.269-1.27H44.61m0-.01H40.078L38.8,73.85v4.536l1.275,1.275h4.536l1.275-1.275V73.85l-1.275-1.275Z"/><rect class="cls-10" x="41.462" y="75.211" width="1.768" height="1.814"/><rect class="cls-11" x="41.863" y="75.622" width="0.967" height="0.992"/><line class="cls-12" x1="41.462" y1="75.211" x2="41.863" y2="75.622"/><line class="cls-12" x1="42.829" y1="75.622" x2="43.23" y2="75.211"/><line class="cls-12" x1="42.829" y1="76.614" x2="43.23" y2="77.025"/><line class="cls-12" x1="41.863" y1="76.614" x2="41.462" y2="77.025"/><polygon class="cls-3" points="32.907 79.656 31.635 78.382 31.636 73.85 32.91 72.578 37.442 72.579 38.714 73.854 38.713 78.386 37.44 79.656 32.907 79.656"/><path d="M37.438,72.584l.809.81.461.46v4.527l-1.27,1.27H32.911l-1.27-1.27V73.854l1.27-1.27h4.527m0-.01H32.907L31.631,73.85v4.535l1.276,1.276h4.535l1.276-1.276V73.85l-1.276-1.276Z"/><rect class="cls-10" x="34.29" y="75.211" width="1.768" height="1.814"/><rect class="cls-11" x="34.691" y="75.622" width="0.967" height="0.992"/><line class="cls-12" x1="34.29" y1="75.211" x2="34.691" y2="75.622"/><line class="cls-12" x1="35.658" y1="75.622" x2="36.058" y2="75.211"/><line class="cls-12" x1="35.658" y1="76.614" x2="36.058" y2="77.025"/><line class="cls-12" x1="34.691" y1="76.614" x2="34.29" y2="77.025"/><polygon class="cls-3" points="54.422 79.656 53.149 78.382 53.151 73.851 54.425 72.579 58.957 72.58 60.212 73.837 60.228 78.386 58.955 79.656 54.422 79.656"/><path d="M58.953,72.585l1.27,1.27v4.527l-1.27,1.269H54.426l-.509-.509-.761-.76V73.855l.46-.461.81-.809h4.527m0-.01H54.422L53.146,73.85v4.536l1.276,1.275h4.535l1.276-1.275V73.85l-1.276-1.275Z"/><rect class="cls-10" x="55.805" y="75.211" width="1.768" height="1.814"/><rect class="cls-11" x="56.206" y="75.622" width="0.967" height="0.992"/><line class="cls-12" x1="55.805" y1="75.211" x2="56.206" y2="75.622"/><line class="cls-12" x1="57.173" y1="75.622" x2="57.573" y2="75.211"/><line class="cls-12" x1="57.173" y1="76.614" x2="57.573" y2="77.025"/><line class="cls-12" x1="56.206" y1="76.614" x2="55.805" y2="77.025"/><polygon class="cls-3" points="47.25 79.656 45.978 78.382 45.979 73.85 47.253 72.578 51.785 72.579 53.057 73.854 53.056 78.386 51.783 79.656 47.25 79.656"/><path d="M51.781,72.584l1.27,1.27v4.527l-1.27,1.27H47.254l-1.27-1.27V73.854l1.27-1.27h4.527m0-.01H47.25c-.5.5-.778.778-1.276,1.276v4.535l1.276,1.276h4.535l1.276-1.276V73.85l-1.276-1.276Z"/><rect class="cls-10" x="48.634" y="75.211" width="1.768" height="1.814"/><rect class="cls-11" x="49.034" y="75.622" width="0.967" height="0.992"/><line class="cls-12" x1="48.634" y1="75.211" x2="49.034" y2="75.622"/><line class="cls-12" x1="50.001" y1="75.622" x2="50.401" y2="75.211"/><line class="cls-12" x1="50.001" y1="76.614" x2="50.401" y2="77.025"/><line class="cls-12" x1="49.034" y1="76.614" x2="48.634" y2="77.025"/><path class="cls-3" d="M48.294,82.715a.648.648,0,0,1-.3.232,1.2,1.2,0,0,1-.451.077.879.879,0,0,1-.463-.122.829.829,0,0,1-.314-.348,1.212,1.212,0,0,1-.113-.523v-.186a1.118,1.118,0,0,1,.225-.747.782.782,0,0,1,.632-.265.811.811,0,0,1,.538.171.745.745,0,0,1,.249.483h-.281a.465.465,0,0,0-.5-.424.5.5,0,0,0-.429.2.969.969,0,0,0-.148.575v.175a.9.9,0,0,0,.165.57.529.529,0,0,0,.444.212.985.985,0,0,0,.276-.035.436.436,0,0,0,.2-.118v-.478H47.52v-.23h.774Z"/><path class="cls-3" d="M50.4,83h-.283l-1.073-1.643V83h-.283V80.862h.283l1.077,1.651V80.862H50.4Z"/><path class="cls-3" d="M50.9,83V80.862h.6a.971.971,0,0,1,.492.123.833.833,0,0,1,.33.35,1.133,1.133,0,0,1,.118.521v.137a1.147,1.147,0,0,1-.116.528A.82.82,0,0,1,52,82.87a1.033,1.033,0,0,1-.5.125Zm.281-1.9v1.673h.3a.649.649,0,0,0,.507-.2.842.842,0,0,0,.181-.577v-.125A.845.845,0,0,0,52,81.3a.6.6,0,0,0-.483-.2Z"/><path class="cls-3" d="M40.806,82.621l.61-1.759h.308L40.933,83h-.25l-.789-2.133H40.2Z"/><path class="cls-3" d="M42.538,82.8a.391.391,0,0,0,.253-.088.317.317,0,0,0,.121-.22h.256a.491.491,0,0,1-.094.26.629.629,0,0,1-.23.2.669.669,0,0,1-.306.073.655.655,0,0,1-.515-.215.862.862,0,0,1-.191-.592v-.045a.951.951,0,0,1,.085-.412.648.648,0,0,1,.244-.28.691.691,0,0,1,.376-.1.635.635,0,0,1,.442.159.571.571,0,0,1,.189.415h-.256A.383.383,0,0,0,42.8,81.7a.367.367,0,0,0-.258-.1.376.376,0,0,0-.32.148.691.691,0,0,0-.114.43v.051a.677.677,0,0,0,.113.422A.379.379,0,0,0,42.538,82.8Z"/><path class="cls-3" d="M44.108,82.8a.391.391,0,0,0,.253-.088.317.317,0,0,0,.121-.22h.256a.491.491,0,0,1-.094.26.613.613,0,0,1-.23.2.666.666,0,0,1-.306.073.653.653,0,0,1-.514-.215.862.862,0,0,1-.192-.592v-.045a.951.951,0,0,1,.085-.412.654.654,0,0,1,.244-.28.7.7,0,0,1,.376-.1.639.639,0,0,1,.443.159.57.57,0,0,1,.188.415h-.256a.383.383,0,0,0-.117-.253.364.364,0,0,0-.258-.1.378.378,0,0,0-.32.148.7.7,0,0,0-.113.43v.051a.684.684,0,0,0,.112.422A.38.38,0,0,0,44.108,82.8Z"/><path class="cls-3" d="M25.935,83V80.862h.6a.969.969,0,0,1,.492.123.827.827,0,0,1,.33.35,1.133,1.133,0,0,1,.118.521v.137a1.147,1.147,0,0,1-.116.528.814.814,0,0,1-.333.349,1.027,1.027,0,0,1-.5.125Zm.282-1.9v1.673h.3a.648.648,0,0,0,.506-.2.842.842,0,0,0,.181-.577v-.125a.845.845,0,0,0-.171-.564.6.6,0,0,0-.483-.2Z"/><path class="cls-3" d="M28.2,83h-.281V80.862H28.2Z"/><path class="cls-3" d="M29.5,82.132H29V83h-.283V80.862h.706a.838.838,0,0,1,.554.164.594.594,0,0,1,.195.478.567.567,0,0,1-.109.347.645.645,0,0,1-.3.221l.5.906V83h-.3ZM29,81.9h.431a.487.487,0,0,0,.333-.108.368.368,0,0,0,.124-.291.387.387,0,0,0-.118-.3.5.5,0,0,0-.341-.107H29Z"/><path class="cls-3" d="M32.467,82.044a1.317,1.317,0,0,1-.527-.255.489.489,0,0,1-.165-.375.517.517,0,0,1,.2-.416.8.8,0,0,1,.525-.165.868.868,0,0,1,.391.085.65.65,0,0,1,.267.234.6.6,0,0,1,.094.327h-.282a.388.388,0,0,0-.124-.3.5.5,0,0,0-.346-.111.519.519,0,0,0-.325.091.308.308,0,0,0-.117.255.279.279,0,0,0,.111.221,1.089,1.089,0,0,0,.377.165,1.792,1.792,0,0,1,.416.165.644.644,0,0,1,.222.21.542.542,0,0,1,.073.283.5.5,0,0,1-.2.415.853.853,0,0,1-.541.156,1.006,1.006,0,0,1-.41-.084.685.685,0,0,1-.293-.231.561.561,0,0,1-.1-.332h.283a.368.368,0,0,0,.143.306.6.6,0,0,0,.38.111.551.551,0,0,0,.342-.091.293.293,0,0,0,.119-.247.29.29,0,0,0-.11-.242A1.249,1.249,0,0,0,32.467,82.044Z"/><path class="cls-3" d="M35.091,81.092h-.686V83h-.279v-1.9h-.684v-.23h1.649Z"/><path class="cls-3" d="M36.613,82.009h-.924v.756h1.074V83H35.408V80.862h1.34v.23H35.689v.687h.924Z"/><path class="cls-3" d="M37.394,82.16V83h-.281V80.862H37.9a.792.792,0,0,1,.549.179.605.605,0,0,1,.2.473.594.594,0,0,1-.194.478.818.818,0,0,1-.556.168Zm0-.23H37.9a.5.5,0,0,0,.346-.107.386.386,0,0,0,.12-.306.4.4,0,0,0-.12-.306.475.475,0,0,0-.329-.119h-.522Z"/><path class="cls-3" d="M56.27,82.025h-.923v.756H56.42v.23H55.065V80.878h1.34v.23H55.347V81.8h.923Z"/><path class="cls-3" d="M58.409,83.011h-.283l-1.073-1.644v1.644H56.77V80.878h.283l1.077,1.651V80.878h.279Z"/></g></svg>