<svg id="_1580" data-name="1580" xmlns="http://www.w3.org/2000/svg" xmlns:xlink="http://www.w3.org/1999/xlink" viewBox="0 0 210.89 121.1"><defs><style>.cls-1{fill:#dd962f;}.cls-2{fill:#f9e382;}.cls-3,.cls-9{fill:#fff;}.cls-4{fill:#0d0e0f;}.cls-5{fill:url(#linear-gradient);}.cls-6{fill:#313131;}.cls-7{fill:#e39344;}.cls-10,.cls-11,.cls-12,.cls-8{fill:none;stroke-miterlimit:10;}.cls-8{stroke:#666566;stroke-width:0.25px;}.cls-9{opacity:0.2;}.cls-12,.cls-9{isolation:isolate;}.cls-10,.cls-11,.cls-12{stroke:#fff;}.cls-10{stroke-width:1.5px;}.cls-11,.cls-12{stroke-width:4px;}.cls-12{opacity:0.7;}</style><linearGradient id="linear-gradient" x1="39.45" y1="782.137" x2="189.27" y2="782.137" gradientTransform="matrix(1, 0, 0, -1, 0, 842.687)" gradientUnits="userSpaceOnUse"><stop offset="0.016" stop-color="#313131" stop-opacity="0.7"/><stop offset="0.027" stop-color="#252525" stop-opacity="0.716"/><stop offset="0.05" stop-color="#141414" stop-opacity="0.748"/><stop offset="0.078" stop-color="#090909" stop-opacity="0.788"/><stop offset="0.117" stop-color="#020202" stop-opacity="0.844"/><stop offset="0.226"/><stop offset="0.449" stop-color="#0c0c0b"/><stop offset="0.869" stop-color="#0d0e0f"/><stop offset="0.883" stop-color="#111212"/><stop offset="0.901" stop-color="#171919"/><stop offset="0.921" stop-color="#202222"/><stop offset="0.943" stop-color="#2f3031"/><stop offset="0.966" stop-color="#454747"/><stop offset="0.99" stop-color="#636364"/><stop offset="0.992" stop-color="#666566"/></linearGradient></defs><g id="top"><path class="cls-1" d="M204.37.038H6.52A6.521,6.521,0,0,0,0,6.558v108.06a6.521,6.521,0,0,0,6.52,6.52H204.37a6.515,6.515,0,0,0,6.52-6.52V6.558A6.515,6.515,0,0,0,204.37.038ZM9.07,116.6a4.535,4.535,0,1,1,4.53-4.53A4.535,4.535,0,0,1,9.07,116.6Zm0-102.95a4.535,4.535,0,1,1,4.53-4.54A4.537,4.537,0,0,1,9.07,13.648ZM201.82,116.6a4.535,4.535,0,1,1,4.54-4.53A4.532,4.532,0,0,1,201.82,116.6Zm0-102.95a4.535,4.535,0,1,1,4.54-4.54A4.535,4.535,0,0,1,201.82,13.648Z" transform="translate(0 -0.038)"/><path class="cls-2" d="M9.069,4.576A4.536,4.536,0,1,1,4.533,9.111,4.535,4.535,0,0,1,9.069,4.576m0-1.418a5.953,5.953,0,1,0,5.952,5.953A5.96,5.96,0,0,0,9.069,3.158Z" transform="translate(0 -0.038)"/><path class="cls-2" d="M201.825,4.576a4.536,4.536,0,1,1-4.536,4.535,4.535,4.535,0,0,1,4.536-4.535m0-1.418a5.953,5.953,0,1,0,5.952,5.953,5.96,5.96,0,0,0-5.952-5.953Z" transform="translate(0 -0.038)"/><path class="cls-2" d="M9.069,107.53a4.536,4.536,0,1,1-4.536,4.535,4.536,4.536,0,0,1,4.536-4.535m0-1.417a5.953,5.953,0,1,0,5.952,5.952,5.959,5.959,0,0,0-5.952-5.952Z" transform="translate(0 -0.038)"/><path class="cls-2" d="M201.825,107.53a4.536,4.536,0,1,1-4.536,4.535,4.536,4.536,0,0,1,4.536-4.535m0-1.417a5.953,5.953,0,1,0,5.952,5.952,5.959,5.959,0,0,0-5.952-5.952Z" transform="translate(0 -0.038)"/><rect class="cls-3" x="19.144" y="1.02" width="173.346" height="119.06"/><rect class="cls-4" x="19.144" y="20.665" width="5.448" height="79.77"/><rect class="cls-5" x="39.45" y="5.306" width="149.82" height="110.488"/><rect class="cls-6" x="24.592" y="5.306" width="14.858" height="110.488"/><rect class="cls-7" x="19.144" y="30.785" width="5.448" height="59.53"/><line class="cls-8" x1="24.592" y1="32.583" x2="19.144" y2="32.583"/><line class="cls-8" x1="24.592" y1="40.984" x2="19.144" y2="40.984"/><line class="cls-8" x1="24.592" y1="40.144" x2="19.144" y2="40.144"/><line class="cls-8" x1="24.592" y1="39.304" x2="19.144" y2="39.304"/><line class="cls-8" x1="24.592" y1="38.464" x2="19.144" y2="38.464"/><line class="cls-8" x1="24.592" y1="37.624" x2="19.144" y2="37.624"/><line class="cls-8" x1="24.592" y1="36.784" x2="19.144" y2="36.784"/><line class="cls-8" x1="24.592" y1="49.384" x2="19.144" y2="49.384"/><line class="cls-8" x1="24.592" y1="48.544" x2="19.144" y2="48.544"/><line class="cls-8" x1="24.592" y1="47.704" x2="19.144" y2="47.704"/><line class="cls-8" x1="24.592" y1="46.864" x2="19.144" y2="46.864"/><line class="cls-8" x1="24.592" y1="57.785" x2="19.144" y2="57.785"/><line class="cls-8" x1="24.592" y1="58.625" x2="19.144" y2="58.625"/><line class="cls-8" x1="24.592" y1="59.465" x2="19.144" y2="59.465"/><line class="cls-8" x1="24.592" y1="66.185" x2="19.144" y2="66.185"/><line class="cls-8" x1="24.592" y1="74.585" x2="19.144" y2="74.585"/><line class="cls-8" x1="24.592" y1="73.745" x2="19.144" y2="73.745"/><line class="cls-8" x1="24.592" y1="72.905" x2="19.144" y2="72.905"/><line class="cls-8" x1="24.592" y1="72.065" x2="19.144" y2="72.065"/><line class="cls-8" x1="24.592" y1="71.225" x2="19.144" y2="71.225"/><line class="cls-8" x1="24.592" y1="70.385" x2="19.144" y2="70.385"/><line class="cls-8" x1="24.592" y1="69.545" x2="19.144" y2="69.545"/><line class="cls-8" x1="24.592" y1="68.705" x2="19.144" y2="68.705"/><line class="cls-8" x1="24.592" y1="67.865" x2="19.144" y2="67.865"/><line class="cls-8" x1="24.592" y1="67.025" x2="19.144" y2="67.025"/><line class="cls-8" x1="24.592" y1="82.986" x2="19.144" y2="82.986"/><line class="cls-8" x1="24.592" y1="82.146" x2="19.144" y2="82.146"/><line class="cls-8" x1="24.592" y1="81.306" x2="19.144" y2="81.306"/><line class="cls-8" x1="24.592" y1="80.465" x2="19.144" y2="80.465"/><line class="cls-8" x1="24.592" y1="79.625" x2="19.144" y2="79.625"/><rect class="cls-9" x="24.592" y="5.306" width="164.678" height="110.488"/><path class="cls-6" d="M19.144,1.058v119.06H192.489V1.058ZM189.27,115.832H24.592V5.344H189.27Z" transform="translate(0 -0.038)"/><path class="cls-7" d="M20.812,37.661H19.144l-.743-.84v-17l.743-.476h1.668a.487.487,0,0,1,.495.476V37.185A.487.487,0,0,1,20.812,37.661Z" transform="translate(0 -0.038)"/><path class="cls-10" d="M22.741,3.2V116.784a1.215,1.215,0,0,0,1.238,1.191H189.641a1.216,1.216,0,0,0,1.239-1.191V4.391a1.216,1.216,0,0,0-1.239-1.19H21.89a1.215,1.215,0,0,0-1.238,1.19V22.416" transform="translate(0 -0.038)"/><line class="cls-11" x1="19.144" y1="22.379" x2="21.307" y2="22.379"/><line class="cls-11" x1="19.144" y1="30.779" x2="21.307" y2="30.779"/><line class="cls-11" x1="19.144" y1="34.979" x2="21.307" y2="34.979"/><line class="cls-11" x1="19.144" y1="26.579" x2="21.307" y2="26.579"/><line class="cls-12" x1="21.307" y1="34.979" x2="22.085" y2="34.979"/><line class="cls-11" x1="21.307" y1="30.779" x2="22.085" y2="30.779"/><line class="cls-12" x1="21.307" y1="26.579" x2="22.085" y2="26.579"/></g></svg>