<svg id="_1580" data-name="1580" xmlns="http://www.w3.org/2000/svg" xmlns:xlink="http://www.w3.org/1999/xlink" viewBox="0 0 450.406 121.138"><defs><style>.cls-1{fill:#181818;}.cls-2{fill:#995f1a;}.cls-3{fill:#dd962f;}.cls-4{fill:#f9e382;}.cls-45,.cls-48,.cls-5{isolation:isolate;}.cls-45,.cls-6{fill:#fff;}.cls-20,.cls-30,.cls-39,.cls-40,.cls-44,.cls-46,.cls-47,.cls-48,.cls-7{fill:none;}.cls-46,.cls-47,.cls-48,.cls-7{stroke:#fff;}.cls-20,.cls-30,.cls-36,.cls-39,.cls-40,.cls-44,.cls-46,.cls-47,.cls-48,.cls-7{stroke-miterlimit:10;}.cls-7{stroke-width:0.425px;}.cls-8{fill:#b57733;}.cls-9{fill:#9e9b9c;}.cls-10,.cls-13{fill:#f1f3e6;}.cls-11{fill:#c2b990;}.cls-12{fill:#ad9e73;}.cls-13{stroke:#e3e2e6;stroke-width:0.128px;}.cls-14{fill:#108759;}.cls-15{fill:#c97e1b;}.cls-16{fill-opacity:0.573;fill:url(#Безымянный_градиент_179);}.cls-17{fill:#be7400;}.cls-18{fill:#494949;}.cls-19{fill:#cdc5ba;}.cls-20,.cls-30{stroke:#e5e5e5;}.cls-21{fill:#9f9c9c;}.cls-22{fill:#36312f;}.cls-23{fill:#d2d1d3;}.cls-24{fill:#b7b8b9;}.cls-25{fill:#d7d3d5;}.cls-26{fill:#242424;}.cls-27{fill:#363331;}.cls-28{fill:#d0c9bd;}.cls-29{fill:#987743;}.cls-30{stroke-width:0.837px;}.cls-31{fill:#2d2d2d;}.cls-32{fill:#cdc7bc;}.cls-33{fill:#b7b8b5;}.cls-34{fill:#ae7d52;}.cls-35{fill:#cbc5ba;}.cls-36{fill:#f2f2f2;stroke:#999;stroke-width:0.1px;}.cls-37{fill:#313131;}.cls-38{fill:#666566;}.cls-39,.cls-40{stroke:#f2f2f2;}.cls-39{stroke-width:0.41px;}.cls-40,.cls-44{stroke-width:0.25px;}.cls-41{fill:#0d0e0f;}.cls-42{fill:url(#linear-gradient);}.cls-43{fill:#e39344;}.cls-44{stroke:#666566;}.cls-45{opacity:0.2;}.cls-46{stroke-width:1.5px;}.cls-47,.cls-48{stroke-width:4px;}.cls-48{opacity:0.7;}</style><linearGradient id="Безымянный_градиент_179" x1="-182.42" y1="34.914" x2="-147.885" y2="34.914" gradientTransform="matrix(-1, 0, 0, 1, 167.179, 0)" gradientUnits="userSpaceOnUse"><stop offset="0" stop-color="#f79300" stop-opacity="0"/><stop offset="0.461" stop-color="#fff" stop-opacity="0.4"/><stop offset="0.572" stop-color="#f4dbc3" stop-opacity="0.555"/><stop offset="0.764" stop-color="#e4a465" stop-opacity="0.796"/><stop offset="0.913" stop-color="#da822c" stop-opacity="0.945"/><stop offset="1" stop-color="#d67516"/></linearGradient><linearGradient id="linear-gradient" x1="39.45" y1="782.137" x2="189.27" y2="782.137" gradientTransform="matrix(1, 0, 0, -1, 0, 842.724)" gradientUnits="userSpaceOnUse"><stop offset="0.016" stop-color="#313131" stop-opacity="0.7"/><stop offset="0.027" stop-color="#252525" stop-opacity="0.716"/><stop offset="0.05" stop-color="#141414" stop-opacity="0.748"/><stop offset="0.078" stop-color="#090909" stop-opacity="0.788"/><stop offset="0.117" stop-color="#020202" stop-opacity="0.844"/><stop offset="0.226"/><stop offset="0.449" stop-color="#0c0c0b"/><stop offset="0.869" stop-color="#0d0e0f"/><stop offset="0.883" stop-color="#111212"/><stop offset="0.901" stop-color="#171919"/><stop offset="0.921" stop-color="#202222"/><stop offset="0.943" stop-color="#2f3031"/><stop offset="0.966" stop-color="#454747"/><stop offset="0.99" stop-color="#636364"/><stop offset="0.992" stop-color="#666566"/></linearGradient></defs><g id="bottom"><polygon class="cls-1" points="427.466 3.898 427.466 117.278 259.486 117.278 261.396 3.898 427.466 3.898"/><rect class="cls-2" x="259.486" y="10.111" width="58.61" height="72.399"/><path class="cls-3" d="M443.886,0H246.026a6.521,6.521,0,0,0-6.52,6.52V114.58a6.521,6.521,0,0,0,6.52,6.52h197.86a6.521,6.521,0,0,0,6.52-6.52V6.52A6.521,6.521,0,0,0,443.886,0ZM248.576,116.56a4.535,4.535,0,1,1,4.54-4.53A4.532,4.532,0,0,1,248.576,116.56Zm0-102.95a4.535,4.535,0,1,1,4.54-4.54A4.535,4.535,0,0,1,248.576,13.61Zm72.29,67.46h-59.53V7.37h59.53Zm120.47,35.49a4.535,4.535,0,1,1,4.53-4.53A4.535,4.535,0,0,1,441.336,116.56Zm0-102.95a4.535,4.535,0,1,1,4.53-4.54A4.537,4.537,0,0,1,441.336,13.61Z"/><path class="cls-4" d="M248.579,4.538a4.536,4.536,0,1,1-4.536,4.535,4.535,4.535,0,0,1,4.536-4.535m0-1.417a5.953,5.953,0,1,0,5.953,5.952,5.96,5.96,0,0,0-5.953-5.952Z"/><path class="cls-4" d="M441.335,4.538A4.536,4.536,0,1,1,436.8,9.073a4.535,4.535,0,0,1,4.536-4.535m0-1.417a5.953,5.953,0,1,0,5.953,5.952,5.959,5.959,0,0,0-5.953-5.952Z"/><path class="cls-4" d="M248.579,107.492a4.536,4.536,0,1,1-4.536,4.536,4.535,4.535,0,0,1,4.536-4.536m0-1.417a5.953,5.953,0,1,0,5.953,5.953,5.96,5.96,0,0,0-5.953-5.953Z"/><path class="cls-4" d="M441.335,107.492a4.536,4.536,0,1,1-4.536,4.536,4.535,4.535,0,0,1,4.536-4.536m0-1.417a5.953,5.953,0,1,0,5.953,5.953,5.959,5.959,0,0,0-5.953-5.953Z"/><g class="cls-5"><path class="cls-6" d="M284.9,109.592v.654l-2.182,2.484H284.9v.654h-2.832v-.654l2.192-2.491h-2.192v-.647Z"/><path class="cls-6" d="M283.591,105.092v2.138h1v-2.483h.3v3.134h-2.832v-3.1h.306v2.45h.912v-2.138Z"/><path class="cls-6" d="M283.154,101.772l-1.086-1.183v-.765l1.405,1.558,1.427-1.595v.772l-1.1,1.213,1.1,1.22v.769l-1.427-1.6-1.405,1.562v-.763Z"/><path class="cls-6" d="M282.374,95.066v1.586H284.9V97.3h-2.526v1.583h-.306V95.066Z"/><path class="cls-6" d="M284.9,93.082v.65h-2.832v-.65Z"/><path class="cls-6" d="M283.576,87.541a1.139,1.139,0,0,1,.726.244,1.5,1.5,0,0,1,.474.691,3.38,3.38,0,0,1,0,2.077,1.577,1.577,0,0,1-.469.7,1.115,1.115,0,0,1-.7.256h-.2a1.132,1.132,0,0,1-.722-.248,1.551,1.551,0,0,1-.479-.7,2.988,2.988,0,0,1-.167-1.035,3.046,3.046,0,0,1,.165-1.046,1.5,1.5,0,0,1,.476-.7,1.146,1.146,0,0,1,.727-.244Zm-.183.647a.911.911,0,0,0-.773.353,1.586,1.586,0,0,0-.27.986,1.569,1.569,0,0,0,.27.971.916.916,0,0,0,.748.364h.208a.919.919,0,0,0,.767-.358,1.56,1.56,0,0,0,.279-.984,1.581,1.581,0,0,0-.264-.977.918.918,0,0,0-.755-.355Z"/><path class="cls-6" d="M284.9,82.218v.654l-2.182,2.484H284.9v.654h-2.832v-.654l2.192-2.491h-2.192v-.647Z"/></g><polygon class="cls-7" points="278.845 109.504 266.375 102.503 266.375 95.232 278.845 102.233 278.845 109.504"/><polygon class="cls-7" points="278.845 100.253 271.31 95.989 271.31 91.561 278.845 95.825 278.845 100.253"/><polygon class="cls-7" points="278.845 94.278 273.819 91.3 273.819 88.206 278.845 91.184 278.845 94.278"/><path class="cls-8" d="M254.27,89.882v.66l-3.835,2.5h3.835v.66h-4.977v-.66l3.852-2.512h-3.852v-.653Z"/><path class="cls-8" d="M251.2,86.475l-1.908-1.193V84.51l2.468,1.572,2.509-1.61v.779l-1.941,1.224,1.941,1.231v.775l-2.509-1.613-2.468,1.576v-.769Z"/><path class="cls-8" d="M251.474,82.4v-.476a1.05,1.05,0,0,0-.235-.7.791.791,0,0,0-.619-.256.772.772,0,0,0-.875.872.906.906,0,0,0,.234.654.817.817,0,0,0,.62.244v.633a1.268,1.268,0,0,1-.982-.432,1.577,1.577,0,0,1-.392-1.1,1.552,1.552,0,0,1,.373-1.1,1.343,1.343,0,0,1,1.035-.4,1.085,1.085,0,0,1,.629.21,1.268,1.268,0,0,1,.455.572,1.22,1.22,0,0,1,.43-.633,1.194,1.194,0,0,1,.735-.225,1.36,1.36,0,0,1,1.064.438,1.637,1.637,0,0,1,.392,1.138,1.687,1.687,0,0,1-.379,1.14,1.257,1.257,0,0,1-1,.439v-.635a.813.813,0,0,0,.628-.257.972.972,0,0,0,.237-.687.957.957,0,0,0-.24-.7.925.925,0,0,0-.687-.242.84.84,0,0,0-.667.266,1.164,1.164,0,0,0-.238.769V82.4Z"/><path class="cls-8" d="M254.27,75.562v3.261h-.455L251.9,77.1a4.035,4.035,0,0,0-.705-.528,1.181,1.181,0,0,0-.563-.146.892.892,0,0,0-.638.236.823.823,0,0,0-.25.629.976.976,0,0,0,.268.733,1.023,1.023,0,0,0,.747.262v.632a1.466,1.466,0,0,1-1.111-.443,1.642,1.642,0,0,1-.424-1.184,1.576,1.576,0,0,1,.364-1.1,1.242,1.242,0,0,1,.969-.4,2.848,2.848,0,0,1,1.75.936l1.446,1.333v-2.5Z"/><path class="cls-8" d="M254.27,71.072v3.261h-.455L251.9,72.61a4.087,4.087,0,0,0-.705-.528,1.18,1.18,0,0,0-.563-.145.891.891,0,0,0-.638.235.824.824,0,0,0-.25.629.974.974,0,0,0,.268.733,1.023,1.023,0,0,0,.747.262v.632a1.463,1.463,0,0,1-1.111-.443,1.642,1.642,0,0,1-.424-1.184,1.576,1.576,0,0,1,.364-1.1,1.242,1.242,0,0,1,.969-.4,2.848,2.848,0,0,1,1.75.936l1.446,1.333v-2.5Z"/><path class="cls-8" d="M252.6,67.173v-.691h.517v.691h1.155v.636h-1.155v2.266h-.372l-3.45-2.229v-.673Zm0,2.184V67.809h-2.439l.136.075Z"/><path class="cls-8" d="M254.27,63.273v.636h-4.215l.469,1.275h-.574l-.68-1.811v-.1Z"/><path class="cls-8" d="M252.073,57.952v2.089h2.2V60.7h-4.977V57.614h.538v2.427h1.705V57.952Z"/><path class="cls-8" d="M252.147,53.311a2.9,2.9,0,0,1,1.651.379,1.577,1.577,0,0,1,.012,2.366,2.746,2.746,0,0,1-1.577.4h-.844a2.83,2.83,0,0,1-1.631-.379,1.6,1.6,0,0,1-.018-2.372,2.728,2.728,0,0,1,1.587-.39Zm-.864.632a2.323,2.323,0,0,0-1.171.226.776.776,0,0,0-.367.714.768.768,0,0,0,.365.708,2.271,2.271,0,0,0,1.125.229h1.012a2.344,2.344,0,0,0,1.191-.235.774.774,0,0,0,.385-.709.763.763,0,0,0-.364-.7,2.258,2.258,0,0,0-1.14-.238Z"/><path class="cls-8" d="M254.27,48.68v3.261h-.455L251.9,50.218a4.141,4.141,0,0,0-.705-.528,1.18,1.18,0,0,0-.563-.145.892.892,0,0,0-.638.236.821.821,0,0,0-.25.629.976.976,0,0,0,.268.733,1.027,1.027,0,0,0,.747.261v.633a1.466,1.466,0,0,1-1.111-.443,1.643,1.643,0,0,1-.424-1.184,1.579,1.579,0,0,1,.364-1.1,1.242,1.242,0,0,1,.969-.4,2.845,2.845,0,0,1,1.75.937l1.446,1.333v-2.5Z"/><path class="cls-8" d="M252.6,44.781V44.09h.517v.691h1.155v.636h-1.155v2.266h-.372l-3.45-2.229v-.673Zm0,2.184V45.417h-2.439l.136.075Z"/><path class="cls-8" d="M254.786,40.229v3.13h-.516v-3.13Z"/><path class="cls-8" d="M252.147,36.121a2.891,2.891,0,0,1,1.651.379,1.576,1.576,0,0,1,.012,2.365,2.745,2.745,0,0,1-1.577.4h-.844a2.829,2.829,0,0,1-1.631-.38,1.6,1.6,0,0,1-.018-2.372,2.721,2.721,0,0,1,1.587-.389Zm-.864.632a2.313,2.313,0,0,0-1.171.226.775.775,0,0,0-.367.714.766.766,0,0,0,.365.707,2.26,2.26,0,0,0,1.125.229h1.012a2.356,2.356,0,0,0,1.191-.234.775.775,0,0,0,.385-.709.761.761,0,0,0-.364-.7,2.258,2.258,0,0,0-1.14-.238Z"/><path class="cls-8" d="M254.27,32.673v.636h-4.215l.469,1.274h-.574l-.68-1.811v-.1Z"/><path class="cls-8" d="M254.27,28.182v.636h-4.215l.469,1.275h-.574l-.68-1.812v-.1Z"/><g id="jst-xh-4pin"><polygon id="polygon19706-3-6-8-2-3-4-3-12" class="cls-9" points="428.294 51.394 419.79 51.394 419.79 47.772 428.294 47.772 428.294 51.394"/><polygon id="polygon19706-3-6-8-2-3-4-3-13" class="cls-9" points="428.294 58.478 419.79 58.478 419.79 54.856 428.294 54.856 428.294 58.478"/><polygon id="polygon19706-3-6-8-2-3-4-3-14" class="cls-9" points="428.294 65.561 419.79 65.561 419.79 61.939 428.294 61.939 428.294 65.561"/><polygon id="polygon19706-3-6-8-2-3-4-3-15" class="cls-9" points="428.294 72.644 419.79 72.644 419.79 69.022 428.294 69.022 428.294 72.644"/><path id="path19730-0-0-6-5-4-7-3" class="cls-10" d="M428.3,43.476h-3.571V38.718H428.3Z"/><path id="path19736-6-8-2-9-9-1-3" class="cls-10" d="M428.3,81.648h-3.571V76.889H428.3Z"/><rect id="rect19748-4-6-0-9-5-2-3" class="cls-11" x="427.897" y="76.889" width="0.397" height="4.759"/><rect id="rect19750-9-59-4-6-5-8-3" class="cls-11" x="427.897" y="38.717" width="0.397" height="4.759"/><rect id="rect19716-5-7-8-3-4-5-3" class="cls-12" x="428.295" y="38.789" width="22.11" height="42.858"/><polygon id="polygon19742-1-8-7-6-3-9-3" class="cls-13" points="428.295 47.821 428.295 38.788 450.292 38.788 450.292 81.648 428.295 81.648 428.295 73.074 445.891 73.074 445.891 67.717 428.295 67.717 428.295 53.177 445.891 53.177 445.891 47.821 428.295 47.821"/></g><rect class="cls-14" x="264.686" y="26.883" width="45.504" height="52.083" rx="4.163"/><g id="con-16pin"><g id="ribbon-cable-16pin"><rect class="cls-15" x="315.065" y="10.111" width="34.535" height="49.606"/><rect class="cls-16" x="315.065" y="10.111" width="34.535" height="49.606"/><path id="rect91155-4-89-4" class="cls-17" d="M315.065,57.131v1.4H349.6v-1.4Z"/><path id="rect91155-4-89-4-2" class="cls-17" d="M315.065,53.605v1.4H349.6v-1.4Z"/><path id="rect91155-4-89-4-3" class="cls-17" d="M315.065,50.079v1.4H349.6v-1.4Z"/><path id="rect91155-4-89-4-4" class="cls-17" d="M315.065,46.553v1.4H349.6v-1.4Z"/><path id="rect91155-4-89-4-5" class="cls-17" d="M315.065,43.028v1.4H349.6v-1.4Z"/><path id="rect91155-4-89-4-6" class="cls-17" d="M315.065,39.5v1.4H349.6V39.5Z"/><path id="rect91155-4-89-4-7" class="cls-17" d="M315.065,35.976v1.4H349.6v-1.4Z"/><path id="rect91155-4-89-4-8" class="cls-17" d="M315.065,32.45v1.4H349.6v-1.4Z"/><path id="rect91155-4-89-4-9" class="cls-17" d="M315.065,28.925v1.4H349.6v-1.4Z"/><path id="rect91155-4-89-4-10" class="cls-17" d="M315.065,25.4v1.4H349.6V25.4Z"/><path id="rect91155-4-89-4-11" class="cls-17" d="M315.065,21.873v1.4H349.6v-1.4Z"/><path id="rect91155-4-89-4-12" class="cls-17" d="M315.065,18.347v1.4H349.6v-1.4Z"/><path id="rect91155-4-89-4-13" class="cls-17" d="M315.065,14.821v1.4H349.6v-1.4Z"/><path id="rect91155-4-89-4-16" class="cls-17" d="M315.065,11.3v1.4H349.6V11.3Z"/></g><g id="con-16pin-2"><rect id="rect27317-3-8-2-2" class="cls-18" x="347.169" y="3.798" width="5.627" height="62.23"/><rect class="cls-9" x="352.796" y="5.652" width="10.159" height="58.522"/><rect class="cls-19" x="365.224" y="28.914" width="2.05" height="1.42"/><line class="cls-20" x1="366.644" y1="29.624" x2="362.954" y2="29.624"/><rect class="cls-19" x="365.224" y="11.285" width="2.05" height="1.42"/><line class="cls-20" x1="366.644" y1="11.995" x2="362.954" y2="11.995"/><rect class="cls-19" x="365.224" y="14.811" width="2.05" height="1.42"/><line class="cls-20" x1="366.644" y1="15.521" x2="362.954" y2="15.521"/><rect class="cls-19" x="365.224" y="18.337" width="2.05" height="1.42"/><line class="cls-20" x1="366.644" y1="19.047" x2="362.954" y2="19.047"/><rect class="cls-19" x="365.224" y="21.862" width="2.05" height="1.42"/><line class="cls-20" x1="366.644" y1="22.572" x2="362.954" y2="22.572"/><rect class="cls-19" x="365.224" y="25.388" width="2.05" height="1.42"/><line class="cls-20" x1="366.644" y1="26.098" x2="362.954" y2="26.098"/><rect class="cls-19" x="365.224" y="32.44" width="2.05" height="1.42"/><line class="cls-20" x1="366.644" y1="33.15" x2="362.954" y2="33.15"/><rect class="cls-19" x="365.224" y="35.966" width="2.05" height="1.42"/><line class="cls-20" x1="366.644" y1="36.676" x2="362.954" y2="36.676"/><rect class="cls-19" x="365.224" y="39.491" width="2.05" height="1.42"/><line class="cls-20" x1="366.644" y1="40.201" x2="362.954" y2="40.201"/><rect class="cls-19" x="365.224" y="43.017" width="2.05" height="1.42"/><line class="cls-20" x1="366.644" y1="43.727" x2="362.954" y2="43.727"/><rect class="cls-19" x="365.224" y="46.543" width="2.05" height="1.42"/><line class="cls-20" x1="366.644" y1="47.253" x2="362.954" y2="47.253"/><rect class="cls-19" x="365.224" y="50.069" width="2.05" height="1.42"/><line class="cls-20" x1="366.644" y1="50.779" x2="362.954" y2="50.779"/><rect class="cls-19" x="365.224" y="53.594" width="2.05" height="1.42"/><line class="cls-20" x1="366.644" y1="54.304" x2="362.954" y2="54.304"/><rect class="cls-19" x="365.224" y="57.12" width="2.05" height="1.42"/><line class="cls-20" x1="366.644" y1="57.83" x2="362.954" y2="57.83"/></g><g id="T-SOT23-6"><path id="path3487-1-2-2-2-2" class="cls-21" d="M306.01,68.894v-1.62h-2.56v1.62Z"/><path id="path3487-1-2-3" class="cls-21" d="M306.01,63.368v-1.62h-2.56v1.62Z"/><path id="path3487-1-2-3-2-2" class="cls-21" d="M306.01,66.178v-1.62h-2.56v1.62Z"/><path id="path3487-1-2-2-2-2-2" class="cls-21" d="M297.588,61.748v1.62h2.56v-1.62Z"/><path id="path3487-1-2-2-2-3" class="cls-21" d="M297.588,64.558v1.62h2.56v-1.62Z"/><path id="path3487-1-2-2-2-4" class="cls-21" d="M297.588,67.278V68.9h2.56v-1.62Z"/><path id="path3477-9-2-2-2" class="cls-22" d="M300.06,69.577V61.159h3.48v8.418Z"/></g><g id="R-0805"><rect id="rect21332-8-1-9-3-8-2-40-6-2-0-6-6-0-5-6-4-8-7-2-0-7-2-3-9-16-6" class="cls-23" x="269.081" y="47.613" width="3.4" height="2.9"/><rect id="rect21332-8-1-9-3-8-2-40-6-2-0-6-6-0-5-6-4-8-7-2-0-7-2-3-10-16-6" class="cls-23" x="269.081" y="42.593" width="3.4" height="2.9"/><path class="cls-24" d="M269.081,48.973v-4.84a.421.421,0,0,1,.42-.42h2.55a.411.411,0,0,1,.43.388h0v4.841a.41.41,0,0,1-.41.409h-2.56a.429.429,0,0,1-.43-.409h0Z"/><g id="path26345-3-6-9-3-6-4-2-5-6-8-7-9-0-90-3-1-3-9-2-2-8-5-0-2-3-5-16-6"><rect class="cls-25" x="269.081" y="44.433" width="3.4" height="4.25"/></g><path id="path26341-4-2-6-0-8-1-1-1-5-0-3-3-1-8-3-8-7-7-7-2-4-9-7-2-3-5-16-6" class="cls-26" d="M272.48,47.963v-2.83h-3.4v2.83Z"/></g><g id="транзистор"><rect class="cls-27" x="297.854" y="31.584" width="2.813" height="6.573"/><rect class="cls-9" x="300.667" y="34.352" width="2.264" height="1.234"/><rect class="cls-9" x="295.156" y="32.196" width="2.697" height="1.291"/><rect class="cls-9" x="295.156" y="36.411" width="2.697" height="1.291"/></g><g id="транзистор-2" data-name="транзистор"><rect class="cls-27" x="269.998" y="54.593" width="1.698" height="3.969"/><rect class="cls-9" x="268.631" y="56.264" width="1.367" height="0.745"/><rect class="cls-9" x="271.696" y="54.962" width="1.629" height="0.78"/><rect class="cls-9" x="271.696" y="57.507" width="1.629" height="0.78"/></g><g id="конденсатор"><rect class="cls-28" x="298.015" y="57.337" width="1.308" height="1.055"/><rect class="cls-28" x="298.001" y="55.87" width="1.308" height="1.055"/><rect class="cls-29" x="298.109" y="56.329" width="1.105" height="1.586"/></g><g id="конденсатор-2" data-name="конденсатор"><rect class="cls-28" x="305.016" y="57.337" width="1.308" height="1.055"/><rect class="cls-28" x="305.001" y="55.87" width="1.308" height="1.055"/><rect class="cls-29" x="305.11" y="56.329" width="1.105" height="1.586"/></g><g id="конденсатор-3" data-name="конденсатор"><rect class="cls-28" x="298.015" y="74.338" width="1.308" height="1.055"/><rect class="cls-28" x="298.001" y="72.871" width="1.308" height="1.055"/><rect class="cls-29" x="298.109" y="73.33" width="1.105" height="1.586"/></g><g id="конденсатор-4" data-name="конденсатор"><rect class="cls-28" x="305.016" y="74.338" width="1.308" height="1.055"/><rect class="cls-28" x="305.001" y="72.871" width="1.308" height="1.055"/><rect class="cls-29" x="305.11" y="73.33" width="1.105" height="1.586"/></g><g id="конденсатор-5" data-name="конденсатор"><rect class="cls-28" x="305.016" y="49.07" width="1.308" height="1.055"/><rect class="cls-28" x="305.001" y="47.603" width="1.308" height="1.055"/><rect class="cls-29" x="305.11" y="48.062" width="1.105" height="1.586"/></g><g id="конденсатор-6" data-name="конденсатор"><rect class="cls-28" x="272.136" y="35.077" width="1.308" height="1.055"/><rect class="cls-28" x="272.121" y="33.61" width="1.308" height="1.055"/><rect class="cls-29" x="272.23" y="34.069" width="1.105" height="1.586"/></g><g id="конденсатор-7" data-name="конденсатор"><rect class="cls-28" x="271.183" y="39.21" width="1.055" height="1.308"/><rect class="cls-28" x="269.717" y="39.224" width="1.055" height="1.308"/><rect class="cls-29" x="270.176" y="39.318" width="1.586" height="1.105"/></g><g id="конденсатор-8" data-name="конденсатор"><rect class="cls-28" x="271.183" y="67.212" width="1.055" height="1.308"/><rect class="cls-28" x="269.717" y="67.226" width="1.055" height="1.308"/><rect class="cls-29" x="270.176" y="67.32" width="1.586" height="1.105"/></g><g id="конденсатор-9" data-name="конденсатор"><rect class="cls-28" x="271.183" y="70.212" width="1.055" height="1.308"/><rect class="cls-28" x="269.717" y="70.226" width="1.055" height="1.308"/><rect class="cls-29" x="270.176" y="70.32" width="1.586" height="1.105"/></g><g id="конденсатор-10" data-name="конденсатор"><rect class="cls-28" x="272.121" y="73.612" width="1.308" height="1.055"/><rect class="cls-28" x="272.136" y="75.079" width="1.308" height="1.055"/><rect class="cls-29" x="272.23" y="74.089" width="1.105" height="1.586"/></g><g id="чип"><rect class="cls-19" x="288.952" y="66.868" width="1.312" height="0.943"/><line class="cls-30" x1="290.166" y1="67.356" x2="288.846" y2="67.356"/><rect class="cls-19" x="288.952" y="67.941" width="1.341" height="0.943"/><line class="cls-30" x1="290.166" y1="68.428" x2="288.846" y2="68.428"/><rect class="cls-19" x="288.952" y="65.796" width="1.312" height="0.943"/><line class="cls-30" x1="290.166" y1="66.284" x2="288.846" y2="66.284"/><line class="cls-30" x1="290.166" y1="67.356" x2="288.846" y2="67.356"/><line class="cls-30" x1="290.166" y1="66.284" x2="288.846" y2="66.284"/><rect class="cls-19" x="288.952" y="63.652" width="1.312" height="0.943"/><line class="cls-30" x1="290.166" y1="64.139" x2="288.846" y2="64.139"/><rect class="cls-19" x="288.952" y="64.724" width="1.312" height="0.943"/><line class="cls-30" x1="290.166" y1="65.212" x2="288.846" y2="65.212"/><rect class="cls-19" x="288.953" y="71.156" width="1.312" height="0.943"/><line class="cls-30" x1="290.162" y1="71.641" x2="288.842" y2="71.641"/><rect class="cls-19" x="288.953" y="70.084" width="1.312" height="0.943"/><line class="cls-30" x1="290.166" y1="70.572" x2="288.842" y2="70.569"/><line class="cls-30" x1="290.162" y1="71.641" x2="288.842" y2="71.641"/><line class="cls-30" x1="290.166" y1="70.572" x2="288.842" y2="70.569"/><rect class="cls-19" x="288.953" y="69.012" width="1.312" height="0.943"/><line class="cls-30" x1="290.166" y1="69.5" x2="288.846" y2="69.5"/><rect class="cls-19" x="278.236" y="67.942" width="1.303" height="0.943"/><line class="cls-30" x1="278.323" y1="68.398" x2="279.643" y2="68.398"/><rect class="cls-19" x="278.236" y="66.87" width="1.303" height="0.943"/><line class="cls-30" x1="278.323" y1="67.326" x2="279.643" y2="67.326"/><rect class="cls-19" x="278.236" y="69.014" width="1.303" height="0.943"/><line class="cls-30" x1="278.323" y1="69.47" x2="279.643" y2="69.47"/><line class="cls-30" x1="278.323" y1="68.398" x2="279.643" y2="68.398"/><line class="cls-30" x1="278.323" y1="69.47" x2="279.643" y2="69.47"/><rect class="cls-19" x="278.236" y="71.158" width="1.303" height="0.943"/><line class="cls-30" x1="278.326" y1="71.61" x2="279.646" y2="71.61"/><rect class="cls-19" x="278.236" y="70.086" width="1.303" height="0.943"/><line class="cls-30" x1="278.323" y1="70.542" x2="279.646" y2="70.538"/><rect class="cls-19" x="278.235" y="63.654" width="1.303" height="0.943"/><line class="cls-30" x1="278.326" y1="64.113" x2="279.646" y2="64.113"/><rect class="cls-19" x="278.235" y="64.726" width="1.303" height="0.943"/><line class="cls-30" x1="278.323" y1="65.181" x2="279.646" y2="65.185"/><line class="cls-30" x1="278.326" y1="64.113" x2="279.646" y2="64.113"/><line class="cls-30" x1="278.323" y1="65.181" x2="279.646" y2="65.185"/><rect class="cls-19" x="278.235" y="65.798" width="1.303" height="0.943"/><line class="cls-30" x1="278.323" y1="66.253" x2="279.643" y2="66.253"/><rect class="cls-19" x="283.235" y="61.826" width="0.943" height="1.341"/><line class="cls-30" x1="283.723" y1="61.958" x2="283.723" y2="63.278"/><rect class="cls-19" x="284.307" y="61.826" width="0.943" height="1.341"/><line class="cls-30" x1="284.795" y1="61.958" x2="284.795" y2="63.278"/><rect class="cls-19" x="282.163" y="61.827" width="0.943" height="1.341"/><line class="cls-30" x1="282.654" y1="61.955" x2="282.654" y2="63.275"/><line class="cls-30" x1="283.723" y1="61.958" x2="283.723" y2="63.278"/><line class="cls-30" x1="282.654" y1="61.955" x2="282.654" y2="63.275"/><rect class="cls-19" x="280.024" y="61.827" width="0.943" height="1.341"/><line class="cls-30" x1="280.51" y1="61.955" x2="280.51" y2="63.275"/><rect class="cls-19" x="281.091" y="61.827" width="0.943" height="1.341"/><line class="cls-30" x1="281.582" y1="61.955" x2="281.582" y2="63.275"/><rect class="cls-19" x="287.523" y="61.826" width="0.943" height="1.341"/><line class="cls-30" x1="288.008" y1="61.955" x2="288.008" y2="63.275"/><rect class="cls-19" x="286.451" y="61.826" width="0.943" height="1.341"/><line class="cls-30" x1="286.936" y1="61.955" x2="286.936" y2="63.275"/><line class="cls-30" x1="288.008" y1="61.955" x2="288.008" y2="63.275"/><line class="cls-30" x1="286.936" y1="61.955" x2="286.936" y2="63.275"/><rect class="cls-19" x="285.379" y="61.826" width="0.943" height="1.341"/><line class="cls-30" x1="285.864" y1="61.955" x2="285.867" y2="63.278"/><rect class="cls-19" x="284.345" y="72.583" width="0.943" height="1.322"/><line class="cls-30" x1="284.805" y1="73.795" x2="284.805" y2="72.475"/><rect class="cls-19" x="283.278" y="72.583" width="0.943" height="1.322"/><line class="cls-30" x1="283.733" y1="73.795" x2="283.733" y2="72.475"/><rect class="cls-19" x="285.417" y="72.583" width="0.943" height="1.322"/><line class="cls-30" x1="285.877" y1="73.795" x2="285.877" y2="72.475"/><line class="cls-30" x1="284.805" y1="73.795" x2="284.805" y2="72.475"/><line class="cls-30" x1="285.877" y1="73.795" x2="285.877" y2="72.475"/><rect class="cls-19" x="287.561" y="72.582" width="0.943" height="1.322"/><line class="cls-30" x1="288.021" y1="73.795" x2="288.021" y2="72.475"/><rect class="cls-19" x="286.489" y="72.582" width="0.943" height="1.322"/><line class="cls-30" x1="286.949" y1="73.795" x2="286.949" y2="72.475"/><rect class="cls-19" x="280.062" y="72.584" width="0.943" height="1.322"/><line class="cls-30" x1="280.517" y1="73.795" x2="280.517" y2="72.475"/><rect class="cls-19" x="281.134" y="72.583" width="0.943" height="1.322"/><line class="cls-30" x1="281.589" y1="73.795" x2="281.589" y2="72.475"/><line class="cls-30" x1="280.517" y1="73.795" x2="280.517" y2="72.475"/><line class="cls-30" x1="281.589" y1="73.795" x2="281.589" y2="72.475"/><rect class="cls-19" x="282.206" y="72.583" width="0.943" height="1.322"/><line class="cls-30" x1="282.661" y1="73.795" x2="282.661" y2="72.475"/><path class="cls-31" d="M288.048,72.475h-7.605a.8.8,0,0,1-.8-.8V64.072a.8.8,0,0,1,.8-.8h7.605a.8.8,0,0,1,.8.8v7.605A.8.8,0,0,1,288.048,72.475Z"/></g><rect class="cls-22" x="275.923" y="35.507" width="13.94" height="10.81"/><rect class="cls-21" x="276.643" y="46.307" width="1.77" height="5.07"/><rect class="cls-21" x="280.283" y="46.307" width="1.76" height="5.07"/><rect class="cls-21" x="283.923" y="46.307" width="1.76" height="5.07"/><rect class="cls-21" x="287.523" y="46.307" width="1.76" height="5.07"/><rect class="cls-21" x="287.523" y="30.427" width="1.76" height="5.07"/><rect class="cls-21" x="283.883" y="30.427" width="1.77" height="5.07"/><rect class="cls-21" x="280.243" y="30.427" width="1.77" height="5.07"/><rect class="cls-21" x="276.603" y="30.427" width="1.76" height="5.07"/><g id="_102" data-name="102"><rect class="cls-32" x="284.916" y="56.218" width="1.612" height="1.996"/><rect class="cls-32" x="288.259" y="56.199" width="1.612" height="1.996"/><rect class="cls-27" x="286.198" y="56.363" width="2.42" height="1.692"/><path class="cls-33" d="M286.987,57.42h-.3v-.056h.115V57h-.115v-.05a.289.289,0,0,0,.05,0,.107.107,0,0,0,.04-.011.077.077,0,0,0,.027-.023.081.081,0,0,0,.011-.038h.057v.493h.112Z"/><path class="cls-33" d="M287.421,57.146a.4.4,0,0,1-.046.216.184.184,0,0,1-.288,0,.4.4,0,0,1-.045-.214.406.406,0,0,1,.046-.216.162.162,0,0,1,.143-.07.158.158,0,0,1,.144.071A.4.4,0,0,1,287.421,57.146Zm-.1.167a.232.232,0,0,0,.017-.07.686.686,0,0,0,0-.1.694.694,0,0,0,0-.1.218.218,0,0,0-.017-.07.1.1,0,0,0-.035-.042.1.1,0,0,0-.058-.015.1.1,0,0,0-.057.015.092.092,0,0,0-.036.043.264.264,0,0,0-.017.071.946.946,0,0,0,0,.1.873.873,0,0,0,0,.1.233.233,0,0,0,.017.069.094.094,0,0,0,.034.043.1.1,0,0,0,.059.016.106.106,0,0,0,.058-.015A.085.085,0,0,0,287.324,57.313Z"/><path class="cls-33" d="M287.824,57.146a.394.394,0,0,1-.046.216.161.161,0,0,1-.143.069.158.158,0,0,1-.144-.07.391.391,0,0,1-.046-.214.406.406,0,0,1,.046-.216.162.162,0,0,1,.144-.07.16.16,0,0,1,.144.071A.406.406,0,0,1,287.824,57.146Zm-.1.167a.266.266,0,0,0,.017-.07.877.877,0,0,0,0-.1.891.891,0,0,0,0-.1.217.217,0,0,0-.018-.07.092.092,0,0,0-.035-.042.116.116,0,0,0-.114,0,.086.086,0,0,0-.036.043.228.228,0,0,0-.018.071.946.946,0,0,0,0,.1.873.873,0,0,0,0,.1.232.232,0,0,0,.018.069.082.082,0,0,0,.034.043.094.094,0,0,0,.059.016.1.1,0,0,0,.057-.015A.086.086,0,0,0,287.728,57.313Z"/><path class="cls-33" d="M288.228,57.42h-.371v-.077l.078-.066.072-.066a.769.769,0,0,0,.1-.108.162.162,0,0,0,.025-.087.085.085,0,0,0-.027-.067.118.118,0,0,0-.079-.024.252.252,0,0,0-.073.012.259.259,0,0,0-.075.036h0V56.9a.3.3,0,0,1,.069-.024.367.367,0,0,1,.085-.011.2.2,0,0,1,.132.041.139.139,0,0,1,.048.11.214.214,0,0,1-.008.058.221.221,0,0,1-.024.052.42.42,0,0,1-.033.044c-.013.015-.029.031-.047.049s-.053.051-.082.075l-.078.067h.3Z"/></g><g id="_102-2" data-name="102"><rect class="cls-32" x="268.5" y="59.581" width="1.612" height="1.996"/><rect class="cls-32" x="271.843" y="59.562" width="1.612" height="1.996"/><rect class="cls-27" x="269.782" y="59.726" width="2.42" height="1.692"/><path class="cls-33" d="M270.571,60.783h-.3v-.056h.115V60.36h-.115v-.05a.289.289,0,0,0,.05,0,.107.107,0,0,0,.04-.011.078.078,0,0,0,.027-.024.075.075,0,0,0,.011-.038h.057v.494h.112Z"/><path class="cls-33" d="M271.005,60.509a.393.393,0,0,1-.047.216.183.183,0,0,1-.287,0,.531.531,0,0,1,0-.43.16.16,0,0,1,.143-.07.158.158,0,0,1,.144.071A.4.4,0,0,1,271.005,60.509Zm-.1.167a.239.239,0,0,0,.017-.071.671.671,0,0,0,0-.1.694.694,0,0,0,0-.1.218.218,0,0,0-.017-.07.109.109,0,0,0-.035-.043.111.111,0,0,0-.058-.014.109.109,0,0,0-.057.014.1.1,0,0,0-.036.044.231.231,0,0,0-.017.071.946.946,0,0,0,0,.1.842.842,0,0,0,0,.095.248.248,0,0,0,.017.07.1.1,0,0,0,.034.043.1.1,0,0,0,.059.015.106.106,0,0,0,.058-.014A.094.094,0,0,0,270.908,60.676Z"/><path class="cls-33" d="M271.408,60.509a.394.394,0,0,1-.046.216.161.161,0,0,1-.143.069.158.158,0,0,1-.144-.07.391.391,0,0,1-.046-.214.4.4,0,0,1,.046-.216.162.162,0,0,1,.144-.07.16.16,0,0,1,.144.071A.406.406,0,0,1,271.408,60.509Zm-.1.167a.274.274,0,0,0,.017-.071.885.885,0,0,0,0-.1.917.917,0,0,0,0-.1.217.217,0,0,0-.018-.07.1.1,0,0,0-.035-.043.123.123,0,0,0-.114,0,.1.1,0,0,0-.037.044.264.264,0,0,0-.017.071.946.946,0,0,0,0,.1.842.842,0,0,0,0,.095.287.287,0,0,0,.017.07.093.093,0,0,0,.094.058.1.1,0,0,0,.057-.014A.1.1,0,0,0,271.312,60.676Z"/><path class="cls-33" d="M271.812,60.783h-.371v-.077l.078-.066.072-.066a.764.764,0,0,0,.1-.109.16.16,0,0,0,.025-.087.084.084,0,0,0-.027-.066.113.113,0,0,0-.079-.024.288.288,0,0,0-.073.011.309.309,0,0,0-.076.036h0v-.077a.446.446,0,0,1,.069-.024.427.427,0,0,1,.085-.01.193.193,0,0,1,.132.041.139.139,0,0,1,.048.11.214.214,0,0,1-.008.058.2.2,0,0,1-.024.051.345.345,0,0,1-.033.045c-.013.015-.029.031-.047.049s-.053.05-.082.075l-.078.067h.3Z"/></g><g id="_102-3" data-name="102"><rect class="cls-32" x="268.727" y="35.611" width="1.996" height="1.612"/><rect class="cls-32" x="268.708" y="32.268" width="1.996" height="1.612"/><rect class="cls-27" x="268.873" y="33.521" width="1.692" height="2.42"/><path class="cls-33" d="M269.93,35.152v.3h-.056v-.114h-.367v.114h-.05a.3.3,0,0,0,0-.05.12.12,0,0,0-.011-.04.067.067,0,0,0-.024-.026.069.069,0,0,0-.038-.012v-.056h.494v-.112Z"/><path class="cls-33" d="M269.656,34.718a.394.394,0,0,1,.216.046.161.161,0,0,1,.069.143.158.158,0,0,1-.07.144.391.391,0,0,1-.214.046.4.4,0,0,1-.216-.046.162.162,0,0,1-.07-.144.16.16,0,0,1,.071-.144A.406.406,0,0,1,269.656,34.718Zm.167.1a.274.274,0,0,0-.071-.017.858.858,0,0,0-.1,0,.891.891,0,0,0-.1,0,.217.217,0,0,0-.07.018.1.1,0,0,0-.043.035.123.123,0,0,0,0,.114.1.1,0,0,0,.044.036.228.228,0,0,0,.071.018.946.946,0,0,0,.1,0,.842.842,0,0,0,.1,0,.248.248,0,0,0,.07-.018.087.087,0,0,0,.043-.034.1.1,0,0,0,.015-.059.109.109,0,0,0-.014-.057A.1.1,0,0,0,269.823,34.814Z"/><path class="cls-33" d="M269.656,34.314a.393.393,0,0,1,.216.047.16.16,0,0,1,.069.143.158.158,0,0,1-.07.144.4.4,0,0,1-.214.045.394.394,0,0,1-.216-.046.181.181,0,0,1,0-.287A.4.4,0,0,1,269.656,34.314Zm.167.1a.274.274,0,0,0-.071-.017.858.858,0,0,0-.1,0,.891.891,0,0,0-.1,0,.217.217,0,0,0-.07.018.094.094,0,0,0-.043.035.1.1,0,0,0-.014.057.109.109,0,0,0,.014.057.1.1,0,0,0,.044.036.231.231,0,0,0,.071.017.93.93,0,0,0,.1.005c.038,0,.07,0,.1,0a.248.248,0,0,0,.07-.018.092.092,0,0,0,.043-.034.105.105,0,0,0,.015-.059.109.109,0,0,0-.014-.057A.09.09,0,0,0,269.823,34.411Z"/><path class="cls-33" d="M269.93,33.911v.371h-.077l-.066-.078q-.033-.039-.066-.072a.764.764,0,0,0-.109-.1.161.161,0,0,0-.087-.026.088.088,0,0,0-.067.028.118.118,0,0,0-.023.079.243.243,0,0,0,.011.072.293.293,0,0,0,.036.076v0H269.4a.374.374,0,0,1-.024-.07.418.418,0,0,1-.01-.084.193.193,0,0,1,.041-.132.133.133,0,0,1,.109-.048.221.221,0,0,1,.059.008.2.2,0,0,1,.051.023.443.443,0,0,1,.045.034c.015.013.031.028.049.047l.075.081.067.079v-.3Z"/></g><g id="_102-4" data-name="102"><rect class="cls-32" x="268.5" y="62.581" width="1.612" height="1.996"/><rect class="cls-32" x="271.843" y="62.562" width="1.612" height="1.996"/><rect class="cls-27" x="269.782" y="62.726" width="2.42" height="1.692"/><path class="cls-33" d="M270.571,63.783h-.3v-.055h.115V63.36h-.115v-.049a.438.438,0,0,0,.05,0,.127.127,0,0,0,.04-.012.087.087,0,0,0,.027-.023.078.078,0,0,0,.011-.038h.057v.494h.112Z"/><path class="cls-33" d="M271.005,63.509a.4.4,0,0,1-.047.217.185.185,0,0,1-.287,0,.533.533,0,0,1,0-.431.183.183,0,0,1,.287,0A.4.4,0,0,1,271.005,63.509Zm-.1.167a.232.232,0,0,0,.017-.07.686.686,0,0,0,0-.1.694.694,0,0,0,0-.1.225.225,0,0,0-.017-.07.105.105,0,0,0-.035-.042.1.1,0,0,0-.058-.015.1.1,0,0,0-.057.015.1.1,0,0,0-.036.043.238.238,0,0,0-.017.071.946.946,0,0,0,0,.1.873.873,0,0,0,0,.1.233.233,0,0,0,.017.069.1.1,0,0,0,.034.044.105.105,0,0,0,.059.015.116.116,0,0,0,.058-.014A.092.092,0,0,0,270.908,63.676Z"/><path class="cls-33" d="M271.408,63.509a.4.4,0,0,1-.046.217.162.162,0,0,1-.143.068.159.159,0,0,1-.144-.069.4.4,0,0,1-.046-.215.408.408,0,0,1,.046-.216.184.184,0,0,1,.288,0A.408.408,0,0,1,271.408,63.509Zm-.1.167a.266.266,0,0,0,.017-.07.9.9,0,0,0,0-.1.917.917,0,0,0,0-.1.224.224,0,0,0-.018-.07.1.1,0,0,0-.035-.042.116.116,0,0,0-.114,0,.1.1,0,0,0-.037.043.274.274,0,0,0-.017.071.946.946,0,0,0,0,.1.873.873,0,0,0,0,.1.268.268,0,0,0,.017.069.1.1,0,0,0,.035.044.1.1,0,0,0,.059.015.109.109,0,0,0,.057-.014A.094.094,0,0,0,271.312,63.676Z"/><path class="cls-33" d="M271.812,63.783h-.371v-.076l.078-.067.072-.066a.717.717,0,0,0,.1-.108.16.16,0,0,0,.025-.087.086.086,0,0,0-.027-.067.118.118,0,0,0-.079-.024.252.252,0,0,0-.073.012.309.309,0,0,0-.076.036h0v-.077a.3.3,0,0,1,.069-.024.367.367,0,0,1,.085-.011.2.2,0,0,1,.132.041.14.14,0,0,1,.048.11.221.221,0,0,1-.008.059.235.235,0,0,1-.024.051.337.337,0,0,1-.033.044c-.013.015-.029.032-.047.05s-.053.05-.082.074-.053.047-.078.067h.3Z"/></g><g id="_102-5" data-name="102"><rect class="cls-32" x="268.533" y="75.613" width="1.996" height="1.612"/><rect class="cls-32" x="268.514" y="72.271" width="1.996" height="1.612"/><rect class="cls-27" x="268.679" y="73.523" width="1.692" height="2.42"/><path class="cls-33" d="M269.735,75.155v.3h-.055v-.114h-.368v.114h-.049a.477.477,0,0,0,0-.05.2.2,0,0,0-.011-.04.105.105,0,0,0-.024-.027.078.078,0,0,0-.038-.011v-.056h.494v-.112Z"/><path class="cls-33" d="M269.461,74.721a.4.4,0,0,1,.217.046.161.161,0,0,1,.069.143.158.158,0,0,1-.07.144.525.525,0,0,1-.43,0,.182.182,0,0,1,0-.288A.4.4,0,0,1,269.461,74.721Zm.167.1a.266.266,0,0,0-.07-.017.877.877,0,0,0-.1,0,.905.905,0,0,0-.1,0,.224.224,0,0,0-.07.018.1.1,0,0,0-.042.035.116.116,0,0,0,0,.114A.1.1,0,0,0,269.3,75a.236.236,0,0,0,.071.018c.03,0,.061,0,.1,0s.07,0,.1,0a.232.232,0,0,0,.069-.018.089.089,0,0,0,.044-.034.1.1,0,0,0,.015-.059.109.109,0,0,0-.014-.057A.094.094,0,0,0,269.628,74.817Z"/><path class="cls-33" d="M269.461,74.317a.4.4,0,0,1,.217.047.16.16,0,0,1,.069.143.158.158,0,0,1-.07.144.405.405,0,0,1-.215.045.393.393,0,0,1-.215-.046.181.181,0,0,1,0-.287A.4.4,0,0,1,269.461,74.317Zm.167.1a.266.266,0,0,0-.07-.017.877.877,0,0,0-.1-.005.905.905,0,0,0-.1.005.224.224,0,0,0-.07.018.091.091,0,0,0-.042.035.1.1,0,0,0-.015.057.1.1,0,0,0,.015.057.1.1,0,0,0,.043.036.238.238,0,0,0,.071.017.945.945,0,0,0,.1,0c.038,0,.07,0,.1,0a.232.232,0,0,0,.069-.018.1.1,0,0,0,.044-.034.105.105,0,0,0,.015-.059.109.109,0,0,0-.014-.057A.088.088,0,0,0,269.628,74.414Z"/><path class="cls-33" d="M269.735,73.914v.371h-.076l-.067-.078q-.033-.039-.066-.072a.717.717,0,0,0-.108-.1.161.161,0,0,0-.087-.026.083.083,0,0,0-.067.028.118.118,0,0,0-.024.079.246.246,0,0,0,.012.072.293.293,0,0,0,.036.076v0h-.077a.332.332,0,0,1-.024-.07.359.359,0,0,1-.011-.084.2.2,0,0,1,.041-.132.137.137,0,0,1,.11-.048.221.221,0,0,1,.059.008.23.23,0,0,1,.051.023.346.346,0,0,1,.044.034.522.522,0,0,1,.05.047c.025.026.05.053.074.081l.067.078v-.294Z"/></g><g id="_102-6" data-name="102"><rect class="cls-32" x="297.034" y="42.451" width="1.308" height="1.619"/><rect class="cls-32" x="299.746" y="42.435" width="1.308" height="1.619"/><rect class="cls-27" x="298.074" y="42.569" width="1.963" height="5.769"/></g><g id="_102-7" data-name="102"><rect class="cls-32" x="297.034" y="44.293" width="1.308" height="1.619"/><rect class="cls-32" x="299.746" y="44.278" width="1.308" height="1.619"/></g><g id="_102-8" data-name="102"><rect class="cls-32" x="297.034" y="46.136" width="1.308" height="1.619"/><rect class="cls-32" x="299.746" y="46.12" width="1.308" height="1.619"/></g><g id="_102-9" data-name="102"><rect class="cls-32" x="297.034" y="47.978" width="1.308" height="1.619"/><rect class="cls-32" x="299.746" y="47.963" width="1.308" height="1.619"/><rect class="cls-27" x="298.074" y="43.679" width="1.963" height="5.789"/></g></g><g id="D-SMA"><path id="path32590-0-9-7-9-9" class="cls-27" d="M409.615,44.292h-9.567V59.528h9.567Z"/><path id="path32578-9-7-2-9-4" class="cls-9" d="M407.474,59.528H402.18V61.9h5.31Z"/><path id="path32578-9-7-2-9-4-2" class="cls-9" d="M407.474,41.851H402.18v2.375h5.31Z"/></g><g id="SOT2223"><path id="path13471-0-1" class="cls-9" d="M340.041,75.757h-10v-6.18h10Z"/><path id="path13485-5-7" class="cls-9" d="M330.321,93.187h-3.27v-7.5h3.27Z"/><path id="path13499-3-4" class="cls-9" d="M343.094,92.855h-3.271v-7.5h3.271Z"/><path id="path13513-8-8" class="cls-9" d="M336.7,92.855h-3.25v-7.5h3.26Z"/><path id="path13523-6-9" class="cls-27" d="M344.252,85.586h-18.36V75.7h18.36Z"/></g><path class="cls-6" d="M411.68,51.117a1.253,1.253,0,0,1-.684-.182,1.214,1.214,0,0,1-.445-.507,1.71,1.71,0,0,1-.156-.75v-.047a1.7,1.7,0,0,1,.157-.753,1.249,1.249,0,0,1,.43-.505,1.1,1.1,0,0,1,.622-.182,1.806,1.806,0,0,1,.563.077,1.261,1.261,0,0,1,.4.2v.574h-.316l-.041-.412a.725.725,0,0,0-.234-.095,1.486,1.486,0,0,0-.328-.032.741.741,0,0,0-.44.14.961.961,0,0,0-.308.392,1.407,1.407,0,0,0-.114.587v.051a1.543,1.543,0,0,0,.105.593.876.876,0,0,0,.3.392.839.839,0,0,0,.489.14,1.4,1.4,0,0,0,.33-.034,1.084,1.084,0,0,0,.238-.089v-.668l-.545-.02v-.283h.93v1.1a1.149,1.149,0,0,1-.353.21A1.568,1.568,0,0,1,411.68,51.117Z"/><path class="cls-6" d="M413.35,51.076V50.83l.318-.055v-2.24l-.318-.055v-.248h.707l1.394,2.217.012,0v-1.91l-.35-.055v-.248h1.022v.248l-.319.055v2.541h-.351l-1.432-2.228-.012,0v1.923l.35.055v.246Z"/><path class="cls-6" d="M416.775,51.076V50.83l.319-.055v-2.24l-.319-.055v-.248h1.114a1.192,1.192,0,0,1,.657.18,1.218,1.218,0,0,1,.436.494,1.6,1.6,0,0,1,.157.719v.061a1.636,1.636,0,0,1-.151.71,1.225,1.225,0,0,1-.426.5,1.16,1.16,0,0,1-.654.182Zm.7-.3h.41a.738.738,0,0,0,.463-.147.962.962,0,0,0,.3-.4,1.386,1.386,0,0,0,.105-.547v-.065a1.4,1.4,0,0,0-.105-.556.917.917,0,0,0-.3-.387.761.761,0,0,0-.463-.143h-.41Z"/><path class="cls-6" d="M413.8,58.01v-.246l.318-.055v-2.24l-.318-.055v-.246h1.267a1.314,1.314,0,0,1,.524.093.7.7,0,0,1,.326.268.79.79,0,0,1,.111.43.767.767,0,0,1-.109.42.672.672,0,0,1-.307.257,1.262,1.262,0,0,1-.472.093l-.637.011v.969l.318.055v.246Zm.7-1.572h.525a.725.725,0,0,0,.469-.124.442.442,0,0,0,.147-.359.461.461,0,0,0-.141-.355.624.624,0,0,0-.436-.131H414.5Zm1.174,1.572-.633-1.42.385,0,.525,1.137.2.035v.252Z"/><path class="cls-6" d="M416.819,58.01v-.246l.246-.043.881-1.155-.816-1.109-.248-.043v-.248h.922v.248l-.268.025.629.877.6-.877-.274-.025v-.248h.928v.248l-.26.043-.771,1.109.855,1.155.252.043v.246h-.933v-.246l.275-.026-.674-.924-.672.924.26.026v.246Z"/><path class="cls-6" d="M414.493,65.05V64.8l.319-.055V62.5h-.645l-.057.4h-.289v-.686h2.364v.686H415.9l-.058-.4H415.2v2.252l.319.055v.246Z"/><path class="cls-6" d="M416.856,65.05V64.8l.247-.043.88-1.155-.816-1.109-.248-.043v-.248h.922v.248l-.268.025.629.877.6-.877-.274-.025v-.248h.928v.248l-.26.043-.771,1.109.855,1.155.252.043v.246H418.6V64.8l.275-.026-.674-.924-.672.924.26.026v.246Z"/><path class="cls-6" d="M414.673,72.154a1.012,1.012,0,0,1-.431-.088.679.679,0,0,1-.3-.26.77.77,0,0,1-.1-.429l0-.012h.347a.453.453,0,0,0,.479.489.456.456,0,0,0,.379-.172.745.745,0,0,0,.135-.471.707.707,0,0,0-.136-.45.451.451,0,0,0-.376-.175.6.6,0,0,0-.329.068.394.394,0,0,0-.15.209l-.32-.033.164-1.56h1.5v.562h-.289l-.037-.221h-.85l-.092.8a.82.82,0,0,1,.127-.079.915.915,0,0,1,.15-.056.751.751,0,0,1,.177-.023.84.84,0,0,1,.451.114.756.756,0,0,1,.291.332,1.183,1.183,0,0,1,.1.509,1.141,1.141,0,0,1-.1.5.759.759,0,0,1-.3.331A.952.952,0,0,1,414.673,72.154Z"/><path class="cls-6" d="M417.392,72.113l-.954-2.564-.226-.031V69.27h.9v.248l-.259.041.636,1.808.067.225h.011l.071-.225.66-1.81-.289-.039V69.27h.9v.248l-.228.031-.953,2.564Z"/><g id="транзистор-3" data-name="транзистор"><rect class="cls-27" x="355.65" y="82.317" width="3.662" height="8.559"/><rect class="cls-9" x="359.313" y="85.921" width="2.948" height="1.607"/><rect class="cls-9" x="352.138" y="83.114" width="3.512" height="1.681"/><rect class="cls-9" x="352.138" y="88.602" width="3.512" height="1.681"/></g><g id="конденсатор-11" data-name="конденсатор"><rect class="cls-28" x="347.125" y="92.227" width="3.62" height="2.92"/><rect class="cls-28" x="347.085" y="88.167" width="3.62" height="2.92"/><rect class="cls-29" x="347.385" y="89.437" width="3.06" height="4.39"/></g><g id="конденсатор-12" data-name="конденсатор"><rect class="cls-28" x="347.125" y="81.226" width="3.62" height="2.92"/><rect class="cls-28" x="347.085" y="77.166" width="3.62" height="2.92"/></g><g id="конденсатор-13" data-name="конденсатор"><rect class="cls-28" x="340.819" y="105.661" width="2.92" height="3.62"/><rect class="cls-28" x="336.759" y="105.701" width="2.92" height="3.62"/><rect class="cls-29" x="338.029" y="105.961" width="4.39" height="3.06"/></g><g id="_102-10" data-name="102"><rect class="cls-32" x="398.419" y="31.594" width="3.438" height="4.255"/><rect class="cls-32" x="405.547" y="31.553" width="3.438" height="4.255"/><rect class="cls-34" x="401.152" y="31.904" width="5.161" height="3.608"/></g><g id="_102-11" data-name="102"><rect class="cls-32" x="380.594" y="44.742" width="3.438" height="4.255"/><rect class="cls-32" x="387.723" y="44.701" width="3.438" height="4.255"/><rect class="cls-27" x="383.328" y="45.052" width="5.161" height="3.608"/><path class="cls-33" d="M384.917,47.352h-.7V47.22h.267v-.863h-.267V46.24a.831.831,0,0,0,.117-.009.317.317,0,0,0,.094-.026.185.185,0,0,0,.062-.055.168.168,0,0,0,.027-.09h.133v1.16h.263Z"/><path class="cls-33" d="M385.938,46.708a.935.935,0,0,1-.109.508.431.431,0,0,1-.675,0,.944.944,0,0,1-.107-.5.933.933,0,0,1,.108-.506.429.429,0,0,1,.676,0A.955.955,0,0,1,385.938,46.708Zm-.228.392a.579.579,0,0,0,.041-.164,1.889,1.889,0,0,0,.011-.228,1.918,1.918,0,0,0-.011-.229.553.553,0,0,0-.042-.164.229.229,0,0,0-.082-.1.241.241,0,0,0-.135-.034.248.248,0,0,0-.135.034.228.228,0,0,0-.084.1.545.545,0,0,0-.04.167c-.006.068-.01.143-.01.225s0,.166.009.226a.565.565,0,0,0,.04.163.222.222,0,0,0,.082.1.284.284,0,0,0,.273,0A.214.214,0,0,0,385.71,47.1Z"/><path class="cls-33" d="M386.885,46.708a.926.926,0,0,1-.109.508.376.376,0,0,1-.337.162.37.37,0,0,1-.337-.164.934.934,0,0,1-.108-.5.923.923,0,0,1,.109-.506.428.428,0,0,1,.675,0A.946.946,0,0,1,386.885,46.708Zm-.228.392a.547.547,0,0,0,.041-.164,1.889,1.889,0,0,0,.011-.228,1.918,1.918,0,0,0-.011-.229.524.524,0,0,0-.042-.164.223.223,0,0,0-.082-.1.241.241,0,0,0-.135-.034.245.245,0,0,0-.134.034.221.221,0,0,0-.084.1.517.517,0,0,0-.04.167,2.2,2.2,0,0,0-.011.225,2.032,2.032,0,0,0,.01.226.534.534,0,0,0,.04.163.22.22,0,0,0,.081.1.284.284,0,0,0,.273,0A.208.208,0,0,0,386.657,47.1Z"/><path class="cls-33" d="M387.835,47.352h-.872v-.181l.183-.156c.06-.052.117-.1.169-.154a1.7,1.7,0,0,0,.228-.256.375.375,0,0,0,.061-.2.2.2,0,0,0-.066-.157.274.274,0,0,0-.184-.056.572.572,0,0,0-.171.027A.68.68,0,0,0,387,46.3H387v-.182a.865.865,0,0,1,.164-.055.826.826,0,0,1,.2-.025.47.47,0,0,1,.311.1.322.322,0,0,1,.112.259.5.5,0,0,1-.018.137.549.549,0,0,1-.055.121.759.759,0,0,1-.079.105c-.03.035-.067.073-.11.115-.062.061-.125.119-.192.176l-.183.158h.692Z"/></g><g id="_102-12" data-name="102"><rect class="cls-32" x="392.989" y="45.736" width="4.255" height="3.438"/><rect class="cls-32" x="392.949" y="38.607" width="4.255" height="3.438"/><rect class="cls-34" x="393.299" y="41.279" width="3.608" height="5.161"/></g><g id="_102-13" data-name="102"><rect class="cls-32" x="392.989" y="61.737" width="4.255" height="3.438"/><rect class="cls-32" x="392.949" y="54.608" width="4.255" height="3.438"/><rect class="cls-34" x="393.299" y="57.28" width="3.608" height="5.161"/></g><g id="_102-14" data-name="102"><rect class="cls-32" x="397.911" y="66.991" width="3.438" height="4.255"/><rect class="cls-32" x="405.039" y="66.95" width="3.438" height="4.255"/><rect class="cls-34" x="400.644" y="67.3" width="5.161" height="3.608"/></g><polyline class="cls-35" points="412.278 110.67 414.268 110.67 414.268 103.05 412.278 103.05"/><polyline class="cls-35" points="370.008 103.05 368.018 103.05 368.018 110.67 370.008 110.67"/><polyline class="cls-35" points="409.238 82.15 411.748 82.15 411.748 79.25 408.208 79.25"/><polyline class="cls-35" points="370.008 82.15 367.498 82.15 367.498 79.25 371.028 79.25"/><rect class="cls-35" x="396.328" y="75.35" width="2.57" height="6.04"/><rect class="cls-35" x="393.158" y="75.35" width="2.57" height="6.04"/><rect class="cls-35" x="389.988" y="75.35" width="2.57" height="6.04"/><rect class="cls-35" x="386.818" y="75.35" width="2.57" height="6.04"/><rect class="cls-35" x="383.648" y="75.35" width="2.57" height="6.04"/><rect class="cls-35" x="380.468" y="75.35" width="2.57" height="6.04"/><rect class="cls-35" x="377.298" y="75.35" width="2.57" height="6.04"/><rect class="cls-35" x="374.128" y="75.35" width="2.57" height="6.04"/><rect class="cls-35" x="370.958" y="75.35" width="2.57" height="6.04"/><path class="cls-36" d="M412.278,120.76V83.9a.29.29,0,0,0-.29-.29h-2.46a.29.29,0,0,1-.29-.29h0V79.54a.29.29,0,0,0-.29-.29h-38.66a.28.28,0,0,0-.28.28v39.19a.28.28,0,0,0,.226.326.327.327,0,0,0,.054,0h26.15l8,2h7.55a.29.29,0,0,0,.29-.29Z"/><rect class="cls-37" x="369.998" y="83.69" width="3.07" height="11"/><polygon class="cls-38" points="370.008 80.25 373.068 81.14 373.068 83.69 370.008 83.69 370.008 80.25"/><path class="cls-39" d="M370.228,94.8l.78-1.3a2.622,2.622,0,0,0,.21-1.5,1.989,1.989,0,0,0-.09-.33l-.79-2.87a1.924,1.924,0,0,1-.12-.53,2.311,2.311,0,0,1,.45-1.58l.77-1.3"/><polygon class="cls-37" points="412.228 115.97 411.378 115.97 411.378 102.88 405.848 102.88 405.848 106.64 408.438 109.5 408.438 115.97 407.698 115.97 407.698 109.67 405.118 106.75 405.118 102.17 412.228 102.17 412.228 115.97"/><path class="cls-37" d="M395.258,93.89v8.16a.18.18,0,0,1-.17.17h-.49a.18.18,0,0,1-.17-.17v-9a.17.17,0,0,1,.17-.17h4.06a.17.17,0,0,1,.17.17v9a.18.18,0,0,1-.17.17h-.46a.18.18,0,0,1-.17-.17V93.93a.18.18,0,0,0-.17-.18h-2.43A.18.18,0,0,0,395.258,93.89Z"/><path class="cls-37" d="M375.4,93.89v8.16a.18.18,0,0,1-.17.17h-.49a.18.18,0,0,1-.17-.17v-9a.17.17,0,0,1,.17-.17h4.06a.17.17,0,0,1,.17.17v9a.18.18,0,0,1-.17.17h-.46a.18.18,0,0,1-.17-.17V93.93a.18.18,0,0,0-.17-.18h-2.43A.18.18,0,0,0,375.4,93.89Z"/><line class="cls-40" x1="412.108" y1="101.94" x2="412.108" y2="120.76"/><g id="конденсатор-14" data-name="конденсатор"><rect class="cls-19" x="336.26" y="97.828" width="2.343" height="5.118"/><rect class="cls-19" x="343.036" y="97.78" width="2.343" height="5.118"/><rect class="cls-34" x="337.75" y="98.2" width="6.2" height="4.337"/></g></g><g id="top"><path class="cls-3" d="M204.37.038H6.52A6.521,6.521,0,0,0,0,6.558v108.06a6.521,6.521,0,0,0,6.52,6.52H204.37a6.515,6.515,0,0,0,6.52-6.52V6.558A6.515,6.515,0,0,0,204.37.038ZM9.07,116.6a4.535,4.535,0,1,1,4.53-4.53A4.535,4.535,0,0,1,9.07,116.6Zm0-102.95a4.535,4.535,0,1,1,4.53-4.54A4.537,4.537,0,0,1,9.07,13.648ZM201.82,116.6a4.535,4.535,0,1,1,4.54-4.53A4.532,4.532,0,0,1,201.82,116.6Zm0-102.95a4.535,4.535,0,1,1,4.54-4.54A4.535,4.535,0,0,1,201.82,13.648Z"/><path class="cls-4" d="M9.069,4.576A4.536,4.536,0,1,1,4.533,9.111,4.535,4.535,0,0,1,9.069,4.576m0-1.418a5.953,5.953,0,1,0,5.952,5.953A5.96,5.96,0,0,0,9.069,3.158Z"/><path class="cls-4" d="M201.825,4.576a4.536,4.536,0,1,1-4.536,4.535,4.535,4.535,0,0,1,4.536-4.535m0-1.418a5.953,5.953,0,1,0,5.952,5.953,5.96,5.96,0,0,0-5.952-5.953Z"/><path class="cls-4" d="M9.069,107.53a4.536,4.536,0,1,1-4.536,4.535,4.536,4.536,0,0,1,4.536-4.535m0-1.417a5.953,5.953,0,1,0,5.952,5.952,5.959,5.959,0,0,0-5.952-5.952Z"/><path class="cls-4" d="M201.825,107.53a4.536,4.536,0,1,1-4.536,4.535,4.536,4.536,0,0,1,4.536-4.535m0-1.417a5.953,5.953,0,1,0,5.952,5.952,5.959,5.959,0,0,0-5.952-5.952Z"/><rect class="cls-6" x="19.144" y="1.058" width="173.346" height="119.06"/><rect class="cls-41" x="19.144" y="20.703" width="5.448" height="79.77"/><rect class="cls-42" x="39.45" y="5.344" width="149.82" height="110.488"/><rect class="cls-37" x="24.592" y="5.344" width="14.858" height="110.488"/><rect class="cls-43" x="19.144" y="30.823" width="5.448" height="59.53"/><line class="cls-44" x1="24.592" y1="32.621" x2="19.144" y2="32.621"/><line class="cls-44" x1="24.592" y1="41.022" x2="19.144" y2="41.022"/><line class="cls-44" x1="24.592" y1="40.181" x2="19.144" y2="40.181"/><line class="cls-44" x1="24.592" y1="39.341" x2="19.144" y2="39.341"/><line class="cls-44" x1="24.592" y1="38.501" x2="19.144" y2="38.501"/><line class="cls-44" x1="24.592" y1="37.661" x2="19.144" y2="37.661"/><line class="cls-44" x1="24.592" y1="36.821" x2="19.144" y2="36.821"/><line class="cls-44" x1="24.592" y1="49.422" x2="19.144" y2="49.422"/><line class="cls-44" x1="24.592" y1="48.582" x2="19.144" y2="48.582"/><line class="cls-44" x1="24.592" y1="47.742" x2="19.144" y2="47.742"/><line class="cls-44" x1="24.592" y1="46.902" x2="19.144" y2="46.902"/><line class="cls-44" x1="24.592" y1="57.822" x2="19.144" y2="57.822"/><line class="cls-44" x1="24.592" y1="58.662" x2="19.144" y2="58.662"/><line class="cls-44" x1="24.592" y1="59.502" x2="19.144" y2="59.502"/><line class="cls-44" x1="24.592" y1="66.223" x2="19.144" y2="66.223"/><line class="cls-44" x1="24.592" y1="74.623" x2="19.144" y2="74.623"/><line class="cls-44" x1="24.592" y1="73.783" x2="19.144" y2="73.783"/><line class="cls-44" x1="24.592" y1="72.943" x2="19.144" y2="72.943"/><line class="cls-44" x1="24.592" y1="72.103" x2="19.144" y2="72.103"/><line class="cls-44" x1="24.592" y1="71.263" x2="19.144" y2="71.263"/><line class="cls-44" x1="24.592" y1="70.423" x2="19.144" y2="70.423"/><line class="cls-44" x1="24.592" y1="69.583" x2="19.144" y2="69.583"/><line class="cls-44" x1="24.592" y1="68.743" x2="19.144" y2="68.743"/><line class="cls-44" x1="24.592" y1="67.903" x2="19.144" y2="67.903"/><line class="cls-44" x1="24.592" y1="67.063" x2="19.144" y2="67.063"/><line class="cls-44" x1="24.592" y1="83.023" x2="19.144" y2="83.023"/><line class="cls-44" x1="24.592" y1="82.183" x2="19.144" y2="82.183"/><line class="cls-44" x1="24.592" y1="81.343" x2="19.144" y2="81.343"/><line class="cls-44" x1="24.592" y1="80.503" x2="19.144" y2="80.503"/><line class="cls-44" x1="24.592" y1="79.663" x2="19.144" y2="79.663"/><rect class="cls-45" x="24.592" y="5.344" width="164.678" height="110.488"/><path class="cls-37" d="M19.144,1.058v119.06H192.489V1.058ZM189.27,115.832H24.592V5.344H189.27Z"/><path class="cls-43" d="M20.812,37.661H19.144l-.743-.84v-17l.743-.476h1.668a.487.487,0,0,1,.495.476V37.185A.487.487,0,0,1,20.812,37.661Z"/><path class="cls-46" d="M22.741,3.2V116.784a1.215,1.215,0,0,0,1.238,1.191H189.641a1.216,1.216,0,0,0,1.239-1.191V4.391a1.216,1.216,0,0,0-1.239-1.19H21.89a1.215,1.215,0,0,0-1.238,1.19V22.416"/><line class="cls-47" x1="19.144" y1="22.416" x2="21.307" y2="22.416"/><line class="cls-47" x1="19.144" y1="30.817" x2="21.307" y2="30.817"/><line class="cls-47" x1="19.144" y1="35.017" x2="21.307" y2="35.017"/><line class="cls-47" x1="19.144" y1="26.616" x2="21.307" y2="26.616"/><line class="cls-48" x1="21.307" y1="35.017" x2="22.085" y2="35.017"/><line class="cls-47" x1="21.307" y1="30.817" x2="22.085" y2="30.817"/><line class="cls-48" x1="21.307" y1="26.616" x2="22.085" y2="26.616"/></g></svg>