<svg id="_1580" data-name="1580" xmlns="http://www.w3.org/2000/svg" xmlns:xlink="http://www.w3.org/1999/xlink" viewBox="0 0 210.9 121.1"><defs><style>.cls-1{fill:#181818;}.cls-2{fill:#995f1a;}.cls-3{fill:#dd962f;}.cls-4{fill:#f9e382;}.cls-5{isolation:isolate;}.cls-6{fill:#fff;}.cls-20,.cls-30,.cls-39,.cls-40,.cls-7{fill:none;}.cls-7{stroke:#fff;stroke-width:0.425px;}.cls-20,.cls-30,.cls-36,.cls-39,.cls-40,.cls-7{stroke-miterlimit:10;}.cls-8{fill:#b57733;}.cls-9{fill:#9e9b9c;}.cls-10,.cls-13{fill:#f1f3e6;}.cls-11{fill:#c2b990;}.cls-12{fill:#ad9e73;}.cls-13{stroke:#e3e2e6;stroke-width:0.128px;}.cls-14{fill:#108759;}.cls-15{fill:#c97e1b;}.cls-16{fill-opacity:0.573;fill:url(#Безымянный_градиент_179);}.cls-17{fill:#be7400;}.cls-18{fill:#494949;}.cls-19{fill:#cdc5ba;}.cls-20,.cls-30{stroke:#e5e5e5;}.cls-21{fill:#9f9c9c;}.cls-22{fill:#36312f;}.cls-23{fill:#d2d1d3;}.cls-24{fill:#b7b8b9;}.cls-25{fill:#d7d3d5;}.cls-26{fill:#242424;}.cls-27{fill:#363331;}.cls-28{fill:#d0c9bd;}.cls-29{fill:#987743;}.cls-30{stroke-width:0.837px;}.cls-31{fill:#2d2d2d;}.cls-32{fill:#cdc7bc;}.cls-33{fill:#b7b8b5;}.cls-34{fill:#ae7d52;}.cls-35{fill:#cbc5ba;}.cls-36{fill:#f2f2f2;stroke:#999;stroke-width:0.1px;}.cls-37{fill:#313131;}.cls-38{fill:#666566;}.cls-39,.cls-40{stroke:#f2f2f2;}.cls-39{stroke-width:0.41px;}.cls-40{stroke-width:0.25px;}</style><linearGradient id="Безымянный_градиент_179" x1="57.091" y1="34.914" x2="91.626" y2="34.914" gradientTransform="matrix(-1, 0, 0, 1, 167.184, 0)" gradientUnits="userSpaceOnUse"><stop offset="0" stop-color="#f79300" stop-opacity="0"/><stop offset="0.461" stop-color="#fff" stop-opacity="0.4"/><stop offset="0.572" stop-color="#f4dbc3" stop-opacity="0.555"/><stop offset="0.764" stop-color="#e4a465" stop-opacity="0.796"/><stop offset="0.913" stop-color="#da822c" stop-opacity="0.945"/><stop offset="1" stop-color="#d67516"/></linearGradient></defs><g id="bottom"><polygon class="cls-1" points="187.96 3.898 187.96 117.278 19.98 117.278 21.89 3.898 187.96 3.898"/><rect class="cls-2" x="19.98" y="10.111" width="58.61" height="72.399"/><path class="cls-3" d="M204.375,0H6.515A6.521,6.521,0,0,0,0,6.52V114.58a6.521,6.521,0,0,0,6.52,6.52h197.86a6.521,6.521,0,0,0,6.52-6.52V6.52A6.521,6.521,0,0,0,204.375,0ZM9.065,116.56a4.535,4.535,0,1,1,4.54-4.53A4.532,4.532,0,0,1,9.065,116.56Zm0-102.95a4.535,4.535,0,1,1,4.54-4.54A4.535,4.535,0,0,1,9.065,13.61Zm72.29,67.46H21.825V7.37h59.53Zm120.47,35.49a4.535,4.535,0,1,1,4.53-4.53A4.535,4.535,0,0,1,201.825,116.56Zm0-102.95a4.535,4.535,0,1,1,4.53-4.54A4.537,4.537,0,0,1,201.825,13.61Z" transform="translate(0.005)"/><path class="cls-4" d="M9.068,4.538A4.536,4.536,0,1,1,4.532,9.073,4.536,4.536,0,0,1,9.068,4.538m0-1.417A5.953,5.953,0,1,0,15.02,9.073,5.959,5.959,0,0,0,9.068,3.121Z" transform="translate(0.005)"/><path class="cls-4" d="M201.824,4.538a4.536,4.536,0,1,1-4.536,4.535,4.536,4.536,0,0,1,4.536-4.535m0-1.417a5.953,5.953,0,1,0,5.952,5.952,5.959,5.959,0,0,0-5.952-5.952Z" transform="translate(0.005)"/><path class="cls-4" d="M9.068,107.492a4.536,4.536,0,1,1-4.536,4.536,4.536,4.536,0,0,1,4.536-4.536m0-1.417a5.953,5.953,0,1,0,5.952,5.953,5.959,5.959,0,0,0-5.952-5.953Z" transform="translate(0.005)"/><path class="cls-4" d="M201.824,107.492a4.536,4.536,0,1,1-4.536,4.536,4.536,4.536,0,0,1,4.536-4.536m0-1.417a5.953,5.953,0,1,0,5.952,5.953,5.959,5.959,0,0,0-5.952-5.953Z" transform="translate(0.005)"/><g class="cls-5"><path class="cls-6" d="M45.467,109.592v.654l-2.192,2.484h2.192v.654H42.623v-.654l2.2-2.491h-2.2v-.647Z" transform="translate(0.005)"/><path class="cls-6" d="M44.152,105.092v2.138H45.16v-2.483h.307v3.134H42.623v-3.1h.307v2.45h.916v-2.138Z" transform="translate(0.005)"/><path class="cls-6" d="M43.713,101.771l-1.09-1.183v-.765l1.41,1.558,1.434-1.595v.772l-1.11,1.213,1.11,1.22v.769l-1.434-1.6-1.41,1.562v-.763Z" transform="translate(0.005)"/><path class="cls-6" d="M42.93,95.066v1.586h2.537V97.3H42.93v1.583h-.307V95.066Z" transform="translate(0.005)"/><path class="cls-6" d="M45.467,93.081v.65H42.623v-.65Z" transform="translate(0.005)"/><path class="cls-6" d="M44.137,87.541a1.143,1.143,0,0,1,.729.244,1.507,1.507,0,0,1,.476.691,3.035,3.035,0,0,1,.164,1.044,2.993,2.993,0,0,1-.165,1.033,1.572,1.572,0,0,1-.471.7,1.121,1.121,0,0,1-.708.256h-.2a1.142,1.142,0,0,1-.725-.248,1.547,1.547,0,0,1-.481-.7,2.988,2.988,0,0,1-.167-1.035,3.046,3.046,0,0,1,.165-1.046,1.5,1.5,0,0,1,.479-.7,1.151,1.151,0,0,1,.729-.244Zm-.184.647a.917.917,0,0,0-.776.353,1.586,1.586,0,0,0-.271.986,1.569,1.569,0,0,0,.271.971.92.92,0,0,0,.751.364h.209a.924.924,0,0,0,.77-.358,1.554,1.554,0,0,0,.281-.984,1.581,1.581,0,0,0-.265-.977.925.925,0,0,0-.759-.355Z" transform="translate(0.005)"/><path class="cls-6" d="M45.467,82.217v.654l-2.192,2.484h2.192v.654H42.623v-.654l2.2-2.491h-2.2v-.647Z" transform="translate(0.005)"/></g><polygon class="cls-7" points="39.391 109.504 26.868 102.503 26.868 95.232 39.391 102.233 39.391 109.504"/><polygon class="cls-7" points="39.391 100.253 31.824 95.989 31.824 91.561 39.391 95.825 39.391 100.253"/><polygon class="cls-7" points="39.391 94.278 34.344 91.3 34.344 88.206 39.391 91.184 39.391 94.278"/><path class="cls-8" d="M14.759,89.882v.66l-3.835,2.5h3.835v.66H9.782v-.66l3.852-2.512H9.782v-.653Z" transform="translate(0.005)"/><path class="cls-8" d="M11.689,86.475,9.782,85.282V84.51l2.468,1.572,2.509-1.61v.779l-1.942,1.224,1.942,1.231v.775L12.25,86.868,9.782,88.444v-.769Z" transform="translate(0.005)"/><path class="cls-8" d="M11.963,82.4v-.476a1.05,1.05,0,0,0-.235-.7.792.792,0,0,0-.62-.256.772.772,0,0,0-.875.872.907.907,0,0,0,.235.654.817.817,0,0,0,.62.244v.633a1.27,1.27,0,0,1-.983-.432,1.581,1.581,0,0,1-.391-1.1,1.552,1.552,0,0,1,.373-1.1,1.343,1.343,0,0,1,1.035-.4,1.085,1.085,0,0,1,.629.21,1.274,1.274,0,0,1,.455.572,1.22,1.22,0,0,1,.43-.633,1.194,1.194,0,0,1,.735-.225,1.361,1.361,0,0,1,1.064.438,1.641,1.641,0,0,1,.392,1.138,1.687,1.687,0,0,1-.379,1.14,1.26,1.26,0,0,1-1,.439v-.635a.813.813,0,0,0,.629-.257.977.977,0,0,0,.237-.687.957.957,0,0,0-.241-.7.921.921,0,0,0-.686-.242.84.84,0,0,0-.667.266,1.159,1.159,0,0,0-.239.769V82.4Z" transform="translate(0.005)"/><path class="cls-8" d="M14.759,75.562v3.261H14.3L12.39,77.1a4.035,4.035,0,0,0-.7-.528,1.184,1.184,0,0,0-.563-.146.893.893,0,0,0-.639.236.823.823,0,0,0-.25.629.976.976,0,0,0,.269.733,1.023,1.023,0,0,0,.747.262v.632a1.466,1.466,0,0,1-1.111-.443,1.637,1.637,0,0,1-.424-1.184,1.576,1.576,0,0,1,.364-1.1,1.241,1.241,0,0,1,.969-.4,2.848,2.848,0,0,1,1.75.936l1.446,1.333v-2.5Z" transform="translate(0.005)"/><path class="cls-8" d="M14.759,71.072v3.261H14.3L12.39,72.61a4.087,4.087,0,0,0-.7-.528,1.183,1.183,0,0,0-.563-.145.892.892,0,0,0-.639.235.824.824,0,0,0-.25.629.975.975,0,0,0,.269.733,1.023,1.023,0,0,0,.747.262v.632a1.463,1.463,0,0,1-1.111-.443A1.637,1.637,0,0,1,9.714,72.8a1.576,1.576,0,0,1,.364-1.1,1.241,1.241,0,0,1,.969-.4,2.848,2.848,0,0,1,1.75.936l1.446,1.333v-2.5Z" transform="translate(0.005)"/><path class="cls-8" d="M13.087,67.173v-.691H13.6v.691h1.155v.636H13.6v2.266h-.373L9.782,67.846v-.673Zm0,2.184V67.809h-2.44l.137.075Z" transform="translate(0.005)"/><path class="cls-8" d="M14.759,63.273v.636H10.544l.469,1.275h-.575l-.679-1.811v-.1Z" transform="translate(0.005)"/><path class="cls-8" d="M12.562,57.952v2.089h2.2V60.7H9.782V57.614h.537v2.427h1.7V57.952Z" transform="translate(0.005)"/><path class="cls-8" d="M12.636,53.311a2.9,2.9,0,0,1,1.651.379,1.577,1.577,0,0,1,.012,2.366,2.746,2.746,0,0,1-1.577.4h-.844a2.83,2.83,0,0,1-1.631-.379,1.6,1.6,0,0,1-.018-2.372,2.725,2.725,0,0,1,1.586-.39Zm-.865.632a2.319,2.319,0,0,0-1.17.226.775.775,0,0,0-.368.714.766.766,0,0,0,.366.708,2.271,2.271,0,0,0,1.125.229h1.011a2.348,2.348,0,0,0,1.192-.235.774.774,0,0,0,.385-.709.765.765,0,0,0-.364-.7,2.258,2.258,0,0,0-1.14-.238Z" transform="translate(0.005)"/><path class="cls-8" d="M14.759,48.68v3.261H14.3L12.39,50.218a4.141,4.141,0,0,0-.7-.528,1.183,1.183,0,0,0-.563-.145.893.893,0,0,0-.639.236.821.821,0,0,0-.25.629.976.976,0,0,0,.269.733,1.027,1.027,0,0,0,.747.261v.633a1.466,1.466,0,0,1-1.111-.443,1.639,1.639,0,0,1-.424-1.184,1.579,1.579,0,0,1,.364-1.1,1.241,1.241,0,0,1,.969-.4,2.845,2.845,0,0,1,1.75.937l1.446,1.333v-2.5Z" transform="translate(0.005)"/><path class="cls-8" d="M13.087,44.781V44.09H13.6v.691h1.155v.636H13.6v2.266h-.373L9.782,45.454v-.673Zm0,2.184V45.417h-2.44l.137.075Z" transform="translate(0.005)"/><path class="cls-8" d="M15.274,40.229v3.13h-.515v-3.13Z" transform="translate(0.005)"/><path class="cls-8" d="M12.636,36.121a2.891,2.891,0,0,1,1.651.379,1.576,1.576,0,0,1,.012,2.365,2.745,2.745,0,0,1-1.577.4h-.844a2.829,2.829,0,0,1-1.631-.38,1.6,1.6,0,0,1-.018-2.372,2.718,2.718,0,0,1,1.586-.389Zm-.865.632a2.308,2.308,0,0,0-1.17.226.774.774,0,0,0-.368.714.765.765,0,0,0,.366.707,2.26,2.26,0,0,0,1.125.229h1.011a2.36,2.36,0,0,0,1.192-.234.775.775,0,0,0,.385-.709.763.763,0,0,0-.364-.7,2.258,2.258,0,0,0-1.14-.238Z" transform="translate(0.005)"/><path class="cls-8" d="M14.759,32.673v.636H10.544l.469,1.274h-.575l-.679-1.811v-.1Z" transform="translate(0.005)"/><path class="cls-8" d="M14.759,28.182v.636H10.544l.469,1.275h-.575l-.679-1.812v-.1Z" transform="translate(0.005)"/><g id="jst-xh-4pin"><polygon id="polygon19706-3-6-8-2-3-4-3-12" class="cls-9" points="188.788 51.394 180.284 51.394 180.284 47.772 188.788 47.772 188.788 51.394"/><polygon id="polygon19706-3-6-8-2-3-4-3-13" class="cls-9" points="188.788 58.478 180.284 58.478 180.284 54.856 188.788 54.856 188.788 58.478"/><polygon id="polygon19706-3-6-8-2-3-4-3-14" class="cls-9" points="188.788 65.561 180.284 65.561 180.284 61.939 188.788 61.939 188.788 65.561"/><polygon id="polygon19706-3-6-8-2-3-4-3-15" class="cls-9" points="188.788 72.644 180.284 72.644 180.284 69.022 188.788 69.022 188.788 72.644"/><path id="path19730-0-0-6-5-4-7-3" class="cls-10" d="M188.784,43.476h-3.571V38.718h3.571Z" transform="translate(0.005)"/><path id="path19736-6-8-2-9-9-1-3" class="cls-10" d="M188.784,81.648h-3.571V76.889h3.571Z" transform="translate(0.005)"/><rect id="rect19748-4-6-0-9-5-2-3" class="cls-11" x="188.391" y="76.889" width="0.397" height="4.759"/><rect id="rect19750-9-59-4-6-5-8-3" class="cls-11" x="188.391" y="38.717" width="0.397" height="4.759"/><rect id="rect19716-5-7-8-3-4-5-3" class="cls-12" x="188.789" y="38.789" width="22.11" height="42.858"/><polygon id="polygon19742-1-8-7-6-3-9-3" class="cls-13" points="188.789 47.821 188.789 38.788 210.785 38.788 210.785 81.648 188.789 81.648 188.789 73.074 206.385 73.074 206.385 67.717 188.789 67.717 188.789 53.177 206.385 53.177 206.385 47.821 188.789 47.821"/></g><rect class="cls-14" x="25.18" y="26.883" width="45.504" height="52.083" rx="4.163"/><g id="con-16pin"><g id="ribbon-cable-16pin"><rect class="cls-15" x="75.558" y="10.111" width="34.535" height="49.606"/><rect class="cls-16" x="75.558" y="10.111" width="34.535" height="49.606"/><path id="rect91155-4-89-4" class="cls-17" d="M75.554,57.131v1.4h34.534v-1.4Z" transform="translate(0.005)"/><path id="rect91155-4-89-4-2" class="cls-17" d="M75.554,53.605v1.4h34.534v-1.4Z" transform="translate(0.005)"/><path id="rect91155-4-89-4-3" class="cls-17" d="M75.554,50.079v1.4h34.534v-1.4Z" transform="translate(0.005)"/><path id="rect91155-4-89-4-4" class="cls-17" d="M75.554,46.553v1.4h34.534v-1.4Z" transform="translate(0.005)"/><path id="rect91155-4-89-4-5" class="cls-17" d="M75.554,43.028v1.4h34.534v-1.4Z" transform="translate(0.005)"/><path id="rect91155-4-89-4-6" class="cls-17" d="M75.554,39.5v1.4h34.534V39.5Z" transform="translate(0.005)"/><path id="rect91155-4-89-4-7" class="cls-17" d="M75.554,35.976v1.4h34.534v-1.4Z" transform="translate(0.005)"/><path id="rect91155-4-89-4-8" class="cls-17" d="M75.554,32.45v1.4h34.534v-1.4Z" transform="translate(0.005)"/><path id="rect91155-4-89-4-9" class="cls-17" d="M75.554,28.925v1.4h34.534v-1.4Z" transform="translate(0.005)"/><path id="rect91155-4-89-4-10" class="cls-17" d="M75.554,25.4v1.4h34.534V25.4Z" transform="translate(0.005)"/><path id="rect91155-4-89-4-11" class="cls-17" d="M75.554,21.873v1.4h34.534v-1.4Z" transform="translate(0.005)"/><path id="rect91155-4-89-4-12" class="cls-17" d="M75.554,18.347v1.4h34.534v-1.4Z" transform="translate(0.005)"/><path id="rect91155-4-89-4-13" class="cls-17" d="M75.554,14.821v1.4h34.534v-1.4Z" transform="translate(0.005)"/><path id="rect91155-4-89-4-16" class="cls-17" d="M75.554,11.3v1.4h34.534V11.3Z" transform="translate(0.005)"/></g><g id="con-16pin-2"><rect id="rect27317-3-8-2-2" class="cls-18" x="107.663" y="3.798" width="5.627" height="62.23"/><rect class="cls-9" x="113.29" y="5.652" width="10.159" height="58.522"/><rect class="cls-19" x="125.718" y="28.914" width="2.05" height="1.42"/><line class="cls-20" x1="127.138" y1="29.624" x2="123.448" y2="29.624"/><rect class="cls-19" x="125.718" y="11.285" width="2.05" height="1.42"/><line class="cls-20" x1="127.138" y1="11.995" x2="123.448" y2="11.995"/><rect class="cls-19" x="125.718" y="14.811" width="2.05" height="1.42"/><line class="cls-20" x1="127.138" y1="15.521" x2="123.448" y2="15.521"/><rect class="cls-19" x="125.718" y="18.337" width="2.05" height="1.42"/><line class="cls-20" x1="127.138" y1="19.047" x2="123.448" y2="19.047"/><rect class="cls-19" x="125.718" y="21.862" width="2.05" height="1.42"/><line class="cls-20" x1="127.138" y1="22.572" x2="123.448" y2="22.572"/><rect class="cls-19" x="125.718" y="25.388" width="2.05" height="1.42"/><line class="cls-20" x1="127.138" y1="26.098" x2="123.448" y2="26.098"/><rect class="cls-19" x="125.718" y="32.44" width="2.05" height="1.42"/><line class="cls-20" x1="127.138" y1="33.15" x2="123.448" y2="33.15"/><rect class="cls-19" x="125.718" y="35.966" width="2.05" height="1.42"/><line class="cls-20" x1="127.138" y1="36.676" x2="123.448" y2="36.676"/><rect class="cls-19" x="125.718" y="39.491" width="2.05" height="1.42"/><line class="cls-20" x1="127.138" y1="40.201" x2="123.448" y2="40.201"/><rect class="cls-19" x="125.718" y="43.017" width="2.05" height="1.42"/><line class="cls-20" x1="127.138" y1="43.727" x2="123.448" y2="43.727"/><rect class="cls-19" x="125.718" y="46.543" width="2.05" height="1.42"/><line class="cls-20" x1="127.138" y1="47.253" x2="123.448" y2="47.253"/><rect class="cls-19" x="125.718" y="50.069" width="2.05" height="1.42"/><line class="cls-20" x1="127.138" y1="50.779" x2="123.448" y2="50.779"/><rect class="cls-19" x="125.718" y="53.594" width="2.05" height="1.42"/><line class="cls-20" x1="127.138" y1="54.304" x2="123.448" y2="54.304"/><rect class="cls-19" x="125.718" y="57.12" width="2.05" height="1.42"/><line class="cls-20" x1="127.138" y1="57.83" x2="123.448" y2="57.83"/></g><g id="T-SOT23-6"><path id="path3487-1-2-2-2-2" class="cls-21" d="M66.5,68.894v-1.62h-2.56v1.62Z" transform="translate(0.005)"/><path id="path3487-1-2-3" class="cls-21" d="M66.5,63.368v-1.62h-2.56v1.62Z" transform="translate(0.005)"/><path id="path3487-1-2-3-2-2" class="cls-21" d="M66.5,66.178v-1.62h-2.56v1.62Z" transform="translate(0.005)"/><path id="path3487-1-2-2-2-2-2" class="cls-21" d="M58.077,61.748v1.62h2.56v-1.62Z" transform="translate(0.005)"/><path id="path3487-1-2-2-2-3" class="cls-21" d="M58.077,64.558v1.62h2.56v-1.62Z" transform="translate(0.005)"/><path id="path3487-1-2-2-2-4" class="cls-21" d="M58.077,67.278V68.9h2.56v-1.62Z" transform="translate(0.005)"/><path id="path3477-9-2-2-2" class="cls-22" d="M60.549,69.577V61.159h3.48v8.418Z" transform="translate(0.005)"/></g><g id="R-0805"><rect id="rect21332-8-1-9-3-8-2-40-6-2-0-6-6-0-5-6-4-8-7-2-0-7-2-3-9-16-6" class="cls-23" x="29.574" y="47.613" width="3.4" height="2.9"/><rect id="rect21332-8-1-9-3-8-2-40-6-2-0-6-6-0-5-6-4-8-7-2-0-7-2-3-10-16-6" class="cls-23" x="29.574" y="42.593" width="3.4" height="2.9"/><path class="cls-24" d="M29.569,48.973v-4.84a.421.421,0,0,1,.42-.42h2.55a.41.41,0,0,1,.43.388h0v4.841a.41.41,0,0,1-.41.409H30a.429.429,0,0,1-.43-.409h0Z" transform="translate(0.005)"/><g id="path26345-3-6-9-3-6-4-2-5-6-8-7-9-0-90-3-1-3-9-2-2-8-5-0-2-3-5-16-6"><rect class="cls-25" x="29.574" y="44.433" width="3.4" height="4.25"/></g><path id="path26341-4-2-6-0-8-1-1-1-5-0-3-3-1-8-3-8-7-7-7-2-4-9-7-2-3-5-16-6" class="cls-26" d="M32.968,47.963v-2.83h-3.4v2.83Z" transform="translate(0.005)"/></g><g id="транзистор"><rect class="cls-27" x="58.348" y="31.584" width="2.813" height="6.573"/><rect class="cls-9" x="61.161" y="34.352" width="2.264" height="1.234"/><rect class="cls-9" x="55.65" y="32.196" width="2.697" height="1.291"/><rect class="cls-9" x="55.65" y="36.411" width="2.697" height="1.291"/></g><g id="транзистор-2" data-name="транзистор"><rect class="cls-27" x="30.491" y="54.593" width="1.698" height="3.969"/><rect class="cls-9" x="29.124" y="56.264" width="1.367" height="0.745"/><rect class="cls-9" x="32.19" y="54.962" width="1.629" height="0.78"/><rect class="cls-9" x="32.19" y="57.507" width="1.629" height="0.78"/></g><g id="конденсатор"><rect class="cls-28" x="58.509" y="57.337" width="1.308" height="1.055"/><rect class="cls-28" x="58.495" y="55.87" width="1.308" height="1.055"/><rect class="cls-29" x="58.603" y="56.329" width="1.105" height="1.586"/></g><g id="конденсатор-2" data-name="конденсатор"><rect class="cls-28" x="65.509" y="57.337" width="1.308" height="1.055"/><rect class="cls-28" x="65.495" y="55.87" width="1.308" height="1.055"/><rect class="cls-29" x="65.603" y="56.329" width="1.105" height="1.586"/></g><g id="конденсатор-3" data-name="конденсатор"><rect class="cls-28" x="58.509" y="74.338" width="1.308" height="1.055"/><rect class="cls-28" x="58.495" y="72.871" width="1.308" height="1.055"/><rect class="cls-29" x="58.603" y="73.33" width="1.105" height="1.586"/></g><g id="конденсатор-4" data-name="конденсатор"><rect class="cls-28" x="65.509" y="74.338" width="1.308" height="1.055"/><rect class="cls-28" x="65.495" y="72.871" width="1.308" height="1.055"/><rect class="cls-29" x="65.603" y="73.33" width="1.105" height="1.586"/></g><g id="конденсатор-5" data-name="конденсатор"><rect class="cls-28" x="65.509" y="49.07" width="1.308" height="1.055"/><rect class="cls-28" x="65.495" y="47.603" width="1.308" height="1.055"/><rect class="cls-29" x="65.603" y="48.062" width="1.105" height="1.586"/></g><g id="конденсатор-6" data-name="конденсатор"><rect class="cls-28" x="32.63" y="35.077" width="1.308" height="1.055"/><rect class="cls-28" x="32.615" y="33.61" width="1.308" height="1.055"/><rect class="cls-29" x="32.723" y="34.069" width="1.105" height="1.586"/></g><g id="конденсатор-7" data-name="конденсатор"><rect class="cls-28" x="31.677" y="39.21" width="1.055" height="1.308"/><rect class="cls-28" x="30.21" y="39.224" width="1.055" height="1.308"/><rect class="cls-29" x="30.669" y="39.318" width="1.586" height="1.105"/></g><g id="конденсатор-8" data-name="конденсатор"><rect class="cls-28" x="31.677" y="67.212" width="1.055" height="1.308"/><rect class="cls-28" x="30.21" y="67.226" width="1.055" height="1.308"/><rect class="cls-29" x="30.669" y="67.32" width="1.586" height="1.105"/></g><g id="конденсатор-9" data-name="конденсатор"><rect class="cls-28" x="31.677" y="70.212" width="1.055" height="1.308"/><rect class="cls-28" x="30.21" y="70.226" width="1.055" height="1.308"/><rect class="cls-29" x="30.669" y="70.32" width="1.586" height="1.105"/></g><g id="конденсатор-10" data-name="конденсатор"><rect class="cls-28" x="32.615" y="73.612" width="1.308" height="1.055"/><rect class="cls-28" x="32.63" y="75.079" width="1.308" height="1.055"/><rect class="cls-29" x="32.723" y="74.089" width="1.105" height="1.586"/></g><g id="чип"><rect class="cls-19" x="49.446" y="66.868" width="1.312" height="0.943"/><line class="cls-30" x1="50.659" y1="67.356" x2="49.339" y2="67.356"/><rect class="cls-19" x="49.446" y="67.941" width="1.341" height="0.943"/><line class="cls-30" x1="50.659" y1="68.428" x2="49.339" y2="68.428"/><rect class="cls-19" x="49.446" y="65.796" width="1.312" height="0.943"/><line class="cls-30" x1="50.659" y1="66.284" x2="49.339" y2="66.284"/><line class="cls-30" x1="50.659" y1="67.356" x2="49.339" y2="67.356"/><line class="cls-30" x1="50.659" y1="66.284" x2="49.339" y2="66.284"/><rect class="cls-19" x="49.445" y="63.652" width="1.312" height="0.943"/><line class="cls-30" x1="50.659" y1="64.139" x2="49.339" y2="64.139"/><rect class="cls-19" x="49.446" y="64.724" width="1.312" height="0.943"/><line class="cls-30" x1="50.659" y1="65.212" x2="49.339" y2="65.212"/><rect class="cls-19" x="49.447" y="71.156" width="1.312" height="0.943"/><line class="cls-30" x1="50.656" y1="71.641" x2="49.336" y2="71.641"/><rect class="cls-19" x="49.447" y="70.084" width="1.312" height="0.943"/><line class="cls-30" x1="50.659" y1="70.572" x2="49.336" y2="70.569"/><line class="cls-30" x1="50.656" y1="71.641" x2="49.336" y2="71.641"/><line class="cls-30" x1="50.659" y1="70.572" x2="49.336" y2="70.569"/><rect class="cls-19" x="49.446" y="69.012" width="1.312" height="0.943"/><line class="cls-30" x1="50.659" y1="69.5" x2="49.339" y2="69.5"/><rect class="cls-19" x="38.729" y="67.942" width="1.303" height="0.943"/><line class="cls-30" x1="38.816" y1="68.398" x2="40.136" y2="68.398"/><rect class="cls-19" x="38.729" y="66.87" width="1.303" height="0.943"/><line class="cls-30" x1="38.816" y1="67.326" x2="40.136" y2="67.326"/><rect class="cls-19" x="38.73" y="69.014" width="1.303" height="0.943"/><line class="cls-30" x1="38.816" y1="69.47" x2="40.136" y2="69.47"/><line class="cls-30" x1="38.816" y1="68.398" x2="40.136" y2="68.398"/><line class="cls-30" x1="38.816" y1="69.47" x2="40.136" y2="69.47"/><rect class="cls-19" x="38.73" y="71.158" width="1.303" height="0.943"/><line class="cls-30" x1="38.82" y1="71.61" x2="40.14" y2="71.61"/><rect class="cls-19" x="38.73" y="70.086" width="1.303" height="0.943"/><line class="cls-30" x1="38.816" y1="70.542" x2="40.14" y2="70.538"/><rect class="cls-19" x="38.729" y="63.654" width="1.303" height="0.943"/><line class="cls-30" x1="38.82" y1="64.113" x2="40.14" y2="64.113"/><rect class="cls-19" x="38.729" y="64.726" width="1.303" height="0.943"/><line class="cls-30" x1="38.816" y1="65.181" x2="40.14" y2="65.185"/><line class="cls-30" x1="38.82" y1="64.113" x2="40.14" y2="64.113"/><line class="cls-30" x1="38.816" y1="65.181" x2="40.14" y2="65.185"/><rect class="cls-19" x="38.729" y="65.798" width="1.303" height="0.943"/><line class="cls-30" x1="38.816" y1="66.253" x2="40.136" y2="66.253"/><rect class="cls-19" x="43.729" y="61.826" width="0.943" height="1.341"/><line class="cls-30" x1="44.217" y1="61.958" x2="44.217" y2="63.278"/><rect class="cls-19" x="44.801" y="61.826" width="0.943" height="1.341"/><line class="cls-30" x1="45.289" y1="61.958" x2="45.289" y2="63.278"/><rect class="cls-19" x="42.657" y="61.827" width="0.943" height="1.341"/><line class="cls-30" x1="43.148" y1="61.955" x2="43.148" y2="63.275"/><line class="cls-30" x1="44.217" y1="61.958" x2="44.217" y2="63.278"/><line class="cls-30" x1="43.148" y1="61.955" x2="43.148" y2="63.275"/><rect class="cls-19" x="40.518" y="61.827" width="0.943" height="1.341"/><line class="cls-30" x1="41.004" y1="61.955" x2="41.004" y2="63.275"/><rect class="cls-19" x="41.585" y="61.827" width="0.943" height="1.341"/><line class="cls-30" x1="42.076" y1="61.955" x2="42.076" y2="63.275"/><rect class="cls-19" x="48.017" y="61.826" width="0.943" height="1.341"/><line class="cls-30" x1="48.502" y1="61.955" x2="48.502" y2="63.275"/><rect class="cls-19" x="46.945" y="61.826" width="0.943" height="1.341"/><line class="cls-30" x1="47.43" y1="61.955" x2="47.43" y2="63.275"/><line class="cls-30" x1="48.502" y1="61.955" x2="48.502" y2="63.275"/><line class="cls-30" x1="47.43" y1="61.955" x2="47.43" y2="63.275"/><rect class="cls-19" x="45.873" y="61.826" width="0.943" height="1.341"/><line class="cls-30" x1="46.358" y1="61.955" x2="46.361" y2="63.278"/><rect class="cls-19" x="44.839" y="72.583" width="0.943" height="1.322"/><line class="cls-30" x1="45.299" y1="73.795" x2="45.299" y2="72.475"/><rect class="cls-19" x="43.772" y="72.583" width="0.943" height="1.322"/><line class="cls-30" x1="44.227" y1="73.795" x2="44.227" y2="72.475"/><rect class="cls-19" x="45.911" y="72.583" width="0.943" height="1.322"/><line class="cls-30" x1="46.371" y1="73.795" x2="46.371" y2="72.475"/><line class="cls-30" x1="45.299" y1="73.795" x2="45.299" y2="72.475"/><line class="cls-30" x1="46.371" y1="73.795" x2="46.371" y2="72.475"/><rect class="cls-19" x="48.055" y="72.582" width="0.943" height="1.322"/><line class="cls-30" x1="48.515" y1="73.795" x2="48.515" y2="72.475"/><rect class="cls-19" x="46.983" y="72.582" width="0.943" height="1.322"/><line class="cls-30" x1="47.443" y1="73.795" x2="47.443" y2="72.475"/><rect class="cls-19" x="40.556" y="72.584" width="0.943" height="1.322"/><line class="cls-30" x1="41.011" y1="73.795" x2="41.011" y2="72.475"/><rect class="cls-19" x="41.628" y="72.583" width="0.943" height="1.322"/><line class="cls-30" x1="42.083" y1="73.795" x2="42.083" y2="72.475"/><line class="cls-30" x1="41.011" y1="73.795" x2="41.011" y2="72.475"/><line class="cls-30" x1="42.083" y1="73.795" x2="42.083" y2="72.475"/><rect class="cls-19" x="42.7" y="72.583" width="0.943" height="1.322"/><line class="cls-30" x1="43.155" y1="73.795" x2="43.155" y2="72.475"/><path class="cls-31" d="M48.537,72.475h-7.6a.8.8,0,0,1-.8-.8V64.072a.8.8,0,0,1,.8-.8h7.6a.8.8,0,0,1,.8.8v7.605A.8.8,0,0,1,48.537,72.475Z" transform="translate(0.005)"/></g><rect class="cls-22" x="36.417" y="35.507" width="13.94" height="10.81"/><rect class="cls-21" x="37.137" y="46.307" width="1.77" height="5.07"/><rect class="cls-21" x="40.777" y="46.307" width="1.76" height="5.07"/><rect class="cls-21" x="44.417" y="46.307" width="1.76" height="5.07"/><rect class="cls-21" x="48.017" y="46.307" width="1.76" height="5.07"/><rect class="cls-21" x="48.017" y="30.427" width="1.76" height="5.07"/><rect class="cls-21" x="44.377" y="30.427" width="1.77" height="5.07"/><rect class="cls-21" x="40.737" y="30.427" width="1.77" height="5.07"/><rect class="cls-21" x="37.097" y="30.427" width="1.76" height="5.07"/><g id="_102" data-name="102"><rect class="cls-32" x="45.41" y="56.218" width="1.612" height="1.996"/><rect class="cls-32" x="48.753" y="56.199" width="1.612" height="1.996"/><rect class="cls-27" x="46.692" y="56.363" width="2.42" height="1.692"/><path class="cls-33" d="M47.476,57.42h-.3v-.056h.114V57h-.114v-.05a.3.3,0,0,0,.05,0,.107.107,0,0,0,.04-.011.087.087,0,0,0,.027-.023.081.081,0,0,0,.011-.038h.057v.493h.112Z" transform="translate(0.005)"/><path class="cls-33" d="M47.91,57.146a.393.393,0,0,1-.047.216.183.183,0,0,1-.287,0,.4.4,0,0,1-.045-.214.4.4,0,0,1,.046-.216.181.181,0,0,1,.287,0A.4.4,0,0,1,47.91,57.146Zm-.1.167a.266.266,0,0,0,.017-.07.877.877,0,0,0,.005-.1.891.891,0,0,0-.005-.1.217.217,0,0,0-.018-.07.087.087,0,0,0-.035-.042.1.1,0,0,0-.057-.015.1.1,0,0,0-.057.015.092.092,0,0,0-.036.043.231.231,0,0,0-.017.071.93.93,0,0,0-.005.1c0,.038,0,.07,0,.1a.232.232,0,0,0,.018.069.088.088,0,0,0,.034.043.1.1,0,0,0,.059.016.1.1,0,0,0,.057-.015A.082.082,0,0,0,47.813,57.313Z" transform="translate(0.005)"/><path class="cls-33" d="M48.313,57.146a.4.4,0,0,1-.046.216.184.184,0,0,1-.288,0,.4.4,0,0,1-.045-.214.406.406,0,0,1,.046-.216.182.182,0,0,1,.288,0A.406.406,0,0,1,48.313,57.146Zm-.1.167a.232.232,0,0,0,.017-.07.686.686,0,0,0,.005-.1.694.694,0,0,0-.005-.1.218.218,0,0,0-.017-.07.1.1,0,0,0-.035-.042.1.1,0,0,0-.057-.015.106.106,0,0,0-.058.015.1.1,0,0,0-.036.043.264.264,0,0,0-.017.071.946.946,0,0,0,0,.1.873.873,0,0,0,0,.1.233.233,0,0,0,.017.069.094.094,0,0,0,.034.043.1.1,0,0,0,.06.016.1.1,0,0,0,.057-.015A.085.085,0,0,0,48.216,57.313Z" transform="translate(0.005)"/><path class="cls-33" d="M48.717,57.42h-.371v-.077l.078-.066q.039-.033.072-.066a.769.769,0,0,0,.1-.108.163.163,0,0,0,.026-.087.085.085,0,0,0-.028-.067.118.118,0,0,0-.079-.024.258.258,0,0,0-.073.012.271.271,0,0,0-.075.036h0V56.9a.3.3,0,0,1,.07-.024.352.352,0,0,1,.084-.011.2.2,0,0,1,.132.041.135.135,0,0,1,.048.11.214.214,0,0,1-.008.058.217.217,0,0,1-.023.052.434.434,0,0,1-.034.044c-.013.015-.028.031-.047.049s-.053.051-.082.075l-.078.067h.3Z" transform="translate(0.005)"/></g><g id="_102-2" data-name="102"><rect class="cls-32" x="28.994" y="59.581" width="1.612" height="1.996"/><rect class="cls-32" x="32.337" y="59.562" width="1.612" height="1.996"/><rect class="cls-27" x="30.276" y="59.726" width="2.42" height="1.692"/><path class="cls-33" d="M31.06,60.783h-.3v-.056h.114V60.36h-.114v-.05a.3.3,0,0,0,.05,0,.107.107,0,0,0,.04-.011.078.078,0,0,0,.027-.024.075.075,0,0,0,.011-.038h.057v.494h.112Z" transform="translate(0.005)"/><path class="cls-33" d="M31.494,60.509a.393.393,0,0,1-.047.216.183.183,0,0,1-.287,0,.4.4,0,0,1-.045-.214.394.394,0,0,1,.046-.216.181.181,0,0,1,.287,0A.4.4,0,0,1,31.494,60.509Zm-.1.167a.274.274,0,0,0,.017-.071.858.858,0,0,0,0-.1.891.891,0,0,0,0-.1.217.217,0,0,0-.018-.07.094.094,0,0,0-.035-.043.1.1,0,0,0-.057-.014.109.109,0,0,0-.057.014.1.1,0,0,0-.036.044.231.231,0,0,0-.017.071.93.93,0,0,0,0,.1c0,.038,0,.07,0,.095a.248.248,0,0,0,.018.07.092.092,0,0,0,.034.043.1.1,0,0,0,.059.015.1.1,0,0,0,.057-.014A.09.09,0,0,0,31.4,60.676Z" transform="translate(0.005)"/><path class="cls-33" d="M31.9,60.509a.4.4,0,0,1-.046.216.184.184,0,0,1-.288,0,.531.531,0,0,1,0-.43.182.182,0,0,1,.288,0A.406.406,0,0,1,31.9,60.509Zm-.1.167a.239.239,0,0,0,.017-.071.671.671,0,0,0,0-.1.694.694,0,0,0,0-.1.218.218,0,0,0-.017-.07.09.09,0,0,0-.092-.057.116.116,0,0,0-.058.014.107.107,0,0,0-.036.044.264.264,0,0,0-.017.071.946.946,0,0,0,0,.1.842.842,0,0,0,0,.095.248.248,0,0,0,.017.07.09.09,0,0,0,.094.058.1.1,0,0,0,.057-.014A.094.094,0,0,0,31.8,60.676Z" transform="translate(0.005)"/><path class="cls-33" d="M32.3,60.783H31.93v-.077l.078-.066q.039-.033.072-.066a.764.764,0,0,0,.1-.109.161.161,0,0,0,.026-.087.084.084,0,0,0-.028-.066.113.113,0,0,0-.079-.024.294.294,0,0,0-.073.011.3.3,0,0,0-.075.036h0v-.077a.427.427,0,0,1,.07-.024.409.409,0,0,1,.084-.01.193.193,0,0,1,.132.041.135.135,0,0,1,.048.11.214.214,0,0,1-.008.058.2.2,0,0,1-.023.051.354.354,0,0,1-.034.045c-.013.015-.028.031-.047.049s-.053.05-.082.075l-.078.067h.3Z" transform="translate(0.005)"/></g><g id="_102-3" data-name="102"><rect class="cls-32" x="29.221" y="35.611" width="1.996" height="1.612"/><rect class="cls-32" x="29.202" y="32.268" width="1.996" height="1.612"/><rect class="cls-27" x="29.366" y="33.521" width="1.692" height="2.42"/><path class="cls-33" d="M30.418,35.152v.3h-.055v-.114H30v.114h-.05a.477.477,0,0,0,0-.05.15.15,0,0,0-.011-.04.076.076,0,0,0-.024-.026.069.069,0,0,0-.038-.012v-.056h.494v-.112Z" transform="translate(0.005)"/><path class="cls-33" d="M30.145,34.718a.394.394,0,0,1,.216.046.161.161,0,0,1,.069.143.158.158,0,0,1-.07.144.393.393,0,0,1-.214.046.4.4,0,0,1-.216-.046.182.182,0,0,1,0-.288A.4.4,0,0,1,30.145,34.718Zm.167.1a.274.274,0,0,0-.071-.017.872.872,0,0,0-.1,0,.911.911,0,0,0-.1,0,.217.217,0,0,0-.069.018.1.1,0,0,0-.043.035.116.116,0,0,0,0,.114.1.1,0,0,0,.044.036.229.229,0,0,0,.07.018.967.967,0,0,0,.1,0,.854.854,0,0,0,.095,0,.248.248,0,0,0,.07-.018.087.087,0,0,0,.043-.034.1.1,0,0,0,.015-.059.109.109,0,0,0-.014-.057A.1.1,0,0,0,30.312,34.814Z" transform="translate(0.005)"/><path class="cls-33" d="M30.145,34.314a.393.393,0,0,1,.216.047.16.16,0,0,1,.069.143.158.158,0,0,1-.07.144.4.4,0,0,1-.214.045.394.394,0,0,1-.216-.046.181.181,0,0,1,0-.287A.4.4,0,0,1,30.145,34.314Zm.167.1a.274.274,0,0,0-.071-.017.872.872,0,0,0-.1,0,.911.911,0,0,0-.1,0,.217.217,0,0,0-.069.018.089.089,0,0,0-.043.035.1.1,0,0,0-.015.057.1.1,0,0,0,.015.057.1.1,0,0,0,.044.036.231.231,0,0,0,.07.017.95.95,0,0,0,.1.005c.038,0,.069,0,.095,0a.248.248,0,0,0,.07-.018.092.092,0,0,0,.043-.034.105.105,0,0,0,.015-.059.109.109,0,0,0-.014-.057A.09.09,0,0,0,30.312,34.411Z" transform="translate(0.005)"/><path class="cls-33" d="M30.418,33.911v.37h-.076l-.067-.077c-.022-.026-.044-.05-.066-.073a.647.647,0,0,0-.108-.1.161.161,0,0,0-.087-.026.083.083,0,0,0-.067.028.117.117,0,0,0-.024.078.247.247,0,0,0,.012.073.309.309,0,0,0,.036.076v0h-.077a.332.332,0,0,1-.024-.07.361.361,0,0,1-.011-.085.2.2,0,0,1,.041-.132.139.139,0,0,1,.11-.047.273.273,0,0,1,.059.007.263.263,0,0,1,.051.024.443.443,0,0,1,.045.034.646.646,0,0,1,.049.046l.075.082.066.078v-.294Z" transform="translate(0.005)"/></g><g id="_102-4" data-name="102"><rect class="cls-32" x="28.994" y="62.581" width="1.612" height="1.996"/><rect class="cls-32" x="32.337" y="62.562" width="1.612" height="1.996"/><rect class="cls-27" x="30.276" y="62.726" width="2.42" height="1.692"/><path class="cls-33" d="M31.06,63.783h-.3v-.055h.114V63.36h-.114v-.049a.457.457,0,0,0,.05,0,.127.127,0,0,0,.04-.012.087.087,0,0,0,.027-.023.078.078,0,0,0,.011-.038h.057v.494h.112Z" transform="translate(0.005)"/><path class="cls-33" d="M31.494,63.509a.4.4,0,0,1-.047.217.185.185,0,0,1-.287,0,.408.408,0,0,1-.045-.215.4.4,0,0,1,.046-.216.183.183,0,0,1,.287,0A.4.4,0,0,1,31.494,63.509Zm-.1.167a.266.266,0,0,0,.017-.07.877.877,0,0,0,0-.1.891.891,0,0,0,0-.1.224.224,0,0,0-.018-.07.091.091,0,0,0-.035-.042.1.1,0,0,0-.057-.015.1.1,0,0,0-.057.015.1.1,0,0,0-.036.043.238.238,0,0,0-.017.071.93.93,0,0,0,0,.1c0,.038,0,.07,0,.1a.232.232,0,0,0,.018.069.1.1,0,0,0,.034.044.105.105,0,0,0,.059.015.109.109,0,0,0,.057-.014A.088.088,0,0,0,31.4,63.676Z" transform="translate(0.005)"/><path class="cls-33" d="M31.9,63.509a.407.407,0,0,1-.046.217.186.186,0,0,1-.288,0,.533.533,0,0,1,0-.431.184.184,0,0,1,.288,0A.408.408,0,0,1,31.9,63.509Zm-.1.167a.232.232,0,0,0,.017-.07.686.686,0,0,0,0-.1.694.694,0,0,0,0-.1.225.225,0,0,0-.017-.07.105.105,0,0,0-.035-.042.1.1,0,0,0-.057-.015.106.106,0,0,0-.058.015.1.1,0,0,0-.036.043.274.274,0,0,0-.017.071.946.946,0,0,0,0,.1.873.873,0,0,0,0,.1.233.233,0,0,0,.017.069.1.1,0,0,0,.034.044.107.107,0,0,0,.06.015.112.112,0,0,0,.057-.014A.092.092,0,0,0,31.8,63.676Z" transform="translate(0.005)"/><path class="cls-33" d="M32.3,63.783H31.93v-.076l.078-.067q.039-.033.072-.066a.717.717,0,0,0,.1-.108.161.161,0,0,0,.026-.087.087.087,0,0,0-.028-.067.118.118,0,0,0-.079-.024.258.258,0,0,0-.073.012.3.3,0,0,0-.075.036h0v-.077a.3.3,0,0,1,.07-.024.352.352,0,0,1,.084-.011.2.2,0,0,1,.132.041.137.137,0,0,1,.048.11.221.221,0,0,1-.008.059.23.23,0,0,1-.023.051.346.346,0,0,1-.034.044.675.675,0,0,1-.047.05c-.026.025-.053.05-.082.074s-.053.047-.078.067h.3Z" transform="translate(0.005)"/></g><g id="_102-5" data-name="102"><rect class="cls-32" x="29.027" y="75.613" width="1.996" height="1.612"/><rect class="cls-32" x="29.008" y="72.271" width="1.996" height="1.612"/><rect class="cls-27" x="29.172" y="73.523" width="1.692" height="2.42"/><path class="cls-33" d="M30.224,75.155v.3h-.056v-.114H29.8v.114h-.05a.46.46,0,0,0,0-.05.147.147,0,0,0-.012-.04.087.087,0,0,0-.023-.027.078.078,0,0,0-.038-.011v-.056h.493v-.112Z" transform="translate(0.005)"/><path class="cls-33" d="M29.95,74.721a.4.4,0,0,1,.217.046.162.162,0,0,1,.068.143.159.159,0,0,1-.069.144.528.528,0,0,1-.431,0,.161.161,0,0,1-.069-.144.159.159,0,0,1,.07-.144A.408.408,0,0,1,29.95,74.721Zm.167.1a.266.266,0,0,0-.07-.017.877.877,0,0,0-.1,0,.891.891,0,0,0-.1,0,.224.224,0,0,0-.07.018.1.1,0,0,0-.042.035.116.116,0,0,0,0,.114.1.1,0,0,0,.043.036.236.236,0,0,0,.071.018c.029,0,.061,0,.1,0s.07,0,.1,0A.232.232,0,0,0,30.116,75a.089.089,0,0,0,.044-.034.1.1,0,0,0,.015-.059.109.109,0,0,0-.014-.057A.094.094,0,0,0,30.117,74.817Z" transform="translate(0.005)"/><path class="cls-33" d="M29.95,74.317a.4.4,0,0,1,.217.047.161.161,0,0,1,.068.143.159.159,0,0,1-.069.144.408.408,0,0,1-.215.045.4.4,0,0,1-.216-.046.183.183,0,0,1,0-.287A.407.407,0,0,1,29.95,74.317Zm.167.1a.266.266,0,0,0-.07-.017.877.877,0,0,0-.1-.005.891.891,0,0,0-.1.005.224.224,0,0,0-.07.018.091.091,0,0,0-.042.035.1.1,0,0,0-.015.057.1.1,0,0,0,.015.057.1.1,0,0,0,.043.036.238.238,0,0,0,.071.017.93.93,0,0,0,.1,0c.038,0,.07,0,.1,0a.232.232,0,0,0,.069-.018.1.1,0,0,0,.044-.034.105.105,0,0,0,.015-.059.109.109,0,0,0-.014-.057A.088.088,0,0,0,30.117,74.414Z" transform="translate(0.005)"/><path class="cls-33" d="M30.224,73.914v.37h-.077l-.066-.077c-.022-.026-.044-.05-.066-.073a.647.647,0,0,0-.108-.1.161.161,0,0,0-.087-.026.083.083,0,0,0-.067.028.116.116,0,0,0-.024.078.247.247,0,0,0,.012.073.309.309,0,0,0,.036.076v0H29.7a.332.332,0,0,1-.024-.07.361.361,0,0,1-.011-.085.2.2,0,0,1,.041-.132.139.139,0,0,1,.11-.047.227.227,0,0,1,.059.007.293.293,0,0,1,.051.024A.459.459,0,0,1,29.97,74c.015.013.031.029.05.047s.05.054.074.082l.067.078v-.294Z" transform="translate(0.005)"/></g><g id="_102-6" data-name="102"><rect class="cls-32" x="57.528" y="42.451" width="1.308" height="1.619"/><rect class="cls-32" x="60.239" y="42.435" width="1.308" height="1.619"/><rect class="cls-27" x="58.567" y="42.569" width="1.963" height="5.769"/></g><g id="_102-7" data-name="102"><rect class="cls-32" x="57.528" y="44.293" width="1.308" height="1.619"/><rect class="cls-32" x="60.239" y="44.278" width="1.308" height="1.619"/></g><g id="_102-8" data-name="102"><rect class="cls-32" x="57.528" y="46.136" width="1.308" height="1.619"/><rect class="cls-32" x="60.239" y="46.12" width="1.308" height="1.619"/></g><g id="_102-9" data-name="102"><rect class="cls-32" x="57.528" y="47.978" width="1.308" height="1.619"/><rect class="cls-32" x="60.239" y="47.963" width="1.308" height="1.619"/><rect class="cls-27" x="58.567" y="43.679" width="1.963" height="5.789"/></g></g><g id="D-SMA"><path id="path32590-0-9-7-9-9" class="cls-27" d="M170.1,44.292h-9.567V59.528H170.1Z" transform="translate(0.005)"/><path id="path32578-9-7-2-9-4" class="cls-9" d="M167.963,59.528h-5.294V61.9h5.31Z" transform="translate(0.005)"/><path id="path32578-9-7-2-9-4-2" class="cls-9" d="M167.963,41.851h-5.294v2.375h5.31Z" transform="translate(0.005)"/></g><g id="SOT2223"><path id="path13471-0-1" class="cls-9" d="M100.53,75.757h-10v-6.18h10Z" transform="translate(0.005)"/><path id="path13485-5-7" class="cls-9" d="M90.81,93.187H87.54v-7.5h3.27Z" transform="translate(0.005)"/><path id="path13499-3-4" class="cls-9" d="M103.583,92.855h-3.271v-7.5h3.271Z" transform="translate(0.005)"/><path id="path13513-8-8" class="cls-9" d="M97.19,92.855H93.94v-7.5H97.2Z" transform="translate(0.005)"/><path id="path13523-6-9" class="cls-27" d="M104.741,85.586H86.381V75.7h18.36Z" transform="translate(0.005)"/></g><path class="cls-6" d="M172.168,51.117a1.249,1.249,0,0,1-.683-.182,1.207,1.207,0,0,1-.445-.507,1.71,1.71,0,0,1-.157-.75v-.047a1.7,1.7,0,0,1,.158-.753,1.242,1.242,0,0,1,.43-.505,1.1,1.1,0,0,1,.621-.182,1.817,1.817,0,0,1,.564.077,1.261,1.261,0,0,1,.395.2v.574h-.316l-.041-.412a.731.731,0,0,0-.235-.095,1.486,1.486,0,0,0-.328-.032.738.738,0,0,0-.439.14.963.963,0,0,0-.309.392,1.423,1.423,0,0,0-.113.587v.051a1.543,1.543,0,0,0,.1.593.862.862,0,0,0,.305.392.836.836,0,0,0,.488.14,1.41,1.41,0,0,0,.331-.034,1.124,1.124,0,0,0,.238-.089v-.668l-.545-.02v-.283h.93v1.1a1.162,1.162,0,0,1-.353.21A1.577,1.577,0,0,1,172.168,51.117Z" transform="translate(0.005)"/><path class="cls-6" d="M173.838,51.076V50.83l.318-.055v-2.24l-.318-.055v-.248h.707l1.394,2.217.012,0v-1.91l-.349-.055v-.248h1.021v.248l-.318.055v2.541h-.352l-1.432-2.228-.011,0v1.923l.349.055v.246Z" transform="translate(0.005)"/><path class="cls-6" d="M177.264,51.076V50.83l.318-.055v-2.24l-.318-.055v-.248h1.113a1.19,1.19,0,0,1,.657.18,1.213,1.213,0,0,1,.437.494,1.6,1.6,0,0,1,.156.719v.061a1.635,1.635,0,0,1-.15.71,1.228,1.228,0,0,1-.427.5,1.156,1.156,0,0,1-.654.182Zm.7-.3h.41a.736.736,0,0,0,.463-.147.955.955,0,0,0,.3-.4,1.385,1.385,0,0,0,.1-.547v-.065a1.4,1.4,0,0,0-.1-.556.911.911,0,0,0-.3-.387.759.759,0,0,0-.463-.143h-.41Z" transform="translate(0.005)"/><path class="cls-6" d="M174.285,58.01v-.246l.319-.055v-2.24l-.319-.055v-.246h1.268a1.31,1.31,0,0,1,.524.093.7.7,0,0,1,.325.268.782.782,0,0,1,.112.43.758.758,0,0,1-.109.42.677.677,0,0,1-.307.257,1.268,1.268,0,0,1-.473.093l-.637.011v.969l.319.055v.246Zm.7-1.572h.526a.72.72,0,0,0,.468-.124.442.442,0,0,0,.147-.359.461.461,0,0,0-.141-.355.62.62,0,0,0-.435-.131h-.565Zm1.174,1.572-.633-1.42.385,0,.525,1.137.2.035v.252Z" transform="translate(0.005)"/><path class="cls-6" d="M177.308,58.01v-.246l.246-.043.881-1.155-.816-1.109-.248-.043v-.248h.921v.248l-.267.025.629.877.6-.877-.273-.025v-.248h.928v.248l-.26.043-.771,1.109.855,1.155.252.043v.246h-.934v-.246l.276-.026-.674-.924-.672.924.26.026v.246Z" transform="translate(0.005)"/><path class="cls-6" d="M174.982,65.05V64.8l.318-.055V62.5h-.644l-.057.4h-.289v-.686h2.363v.686h-.285l-.058-.4h-.645v2.252L176,64.8v.246Z" transform="translate(0.005)"/><path class="cls-6" d="M177.345,65.05V64.8l.246-.043.881-1.155-.817-1.109-.248-.043v-.248h.922v.248l-.267.025.628.877.6-.877-.273-.025v-.248h.927v.248l-.259.043-.772,1.109.856,1.155.252.043v.246h-.934V64.8l.275-.026-.673-.924-.672.924.259.026v.246Z" transform="translate(0.005)"/><path class="cls-6" d="M175.162,72.154a1.009,1.009,0,0,1-.431-.088.674.674,0,0,1-.3-.26.761.761,0,0,1-.1-.429l0-.012h.348a.453.453,0,0,0,.479.489.457.457,0,0,0,.379-.172.751.751,0,0,0,.134-.471.713.713,0,0,0-.135-.45.452.452,0,0,0-.376-.175.611.611,0,0,0-.33.068.392.392,0,0,0-.149.209l-.32-.033.164-1.56h1.5v.562h-.289l-.037-.221h-.85l-.092.8a.82.82,0,0,1,.127-.079.882.882,0,0,1,.15-.056.742.742,0,0,1,.176-.023.838.838,0,0,1,.451.114.749.749,0,0,1,.291.332,1.182,1.182,0,0,1,.1.509,1.141,1.141,0,0,1-.1.5.765.765,0,0,1-.3.331A.955.955,0,0,1,175.162,72.154Z" transform="translate(0.005)"/><path class="cls-6" d="M177.88,72.113l-.953-2.564-.227-.031V69.27h.9v.248l-.26.041.637,1.808.066.225h.012l.07-.225.66-1.81-.289-.039V69.27h.9v.248l-.229.031-.953,2.564Z" transform="translate(0.005)"/><g id="транзистор-3" data-name="транзистор"><rect class="cls-27" x="116.144" y="82.317" width="3.662" height="8.559"/><rect class="cls-9" x="119.807" y="85.921" width="2.948" height="1.607"/><rect class="cls-9" x="112.631" y="83.114" width="3.512" height="1.681"/><rect class="cls-9" x="112.631" y="88.602" width="3.512" height="1.681"/></g><g id="конденсатор-11" data-name="конденсатор"><rect class="cls-28" x="107.619" y="92.227" width="3.62" height="2.92"/><rect class="cls-28" x="107.579" y="88.167" width="3.62" height="2.92"/><rect class="cls-29" x="107.879" y="89.437" width="3.06" height="4.39"/></g><g id="конденсатор-12" data-name="конденсатор"><rect class="cls-28" x="107.619" y="81.226" width="3.62" height="2.92"/><rect class="cls-28" x="107.579" y="77.166" width="3.62" height="2.92"/></g><g id="конденсатор-13" data-name="конденсатор"><rect class="cls-28" x="101.313" y="105.661" width="2.92" height="3.62"/><rect class="cls-28" x="97.253" y="105.701" width="2.92" height="3.62"/><rect class="cls-29" x="98.523" y="105.961" width="4.39" height="3.06"/></g><g id="_102-10" data-name="102"><rect class="cls-32" x="158.912" y="31.594" width="3.438" height="4.255"/><rect class="cls-32" x="166.041" y="31.553" width="3.438" height="4.255"/><rect class="cls-34" x="161.646" y="31.904" width="5.161" height="3.608"/></g><g id="_102-11" data-name="102"><rect class="cls-32" x="141.088" y="44.742" width="3.438" height="4.255"/><rect class="cls-32" x="148.216" y="44.701" width="3.438" height="4.255"/><rect class="cls-27" x="143.821" y="45.052" width="5.161" height="3.608"/><path class="cls-33" d="M145.406,47.352h-.7V47.22h.268v-.863h-.268V46.24a.831.831,0,0,0,.117-.009.317.317,0,0,0,.094-.026.176.176,0,0,0,.062-.055.168.168,0,0,0,.027-.09h.134v1.16h.262Z" transform="translate(0.005)"/><path class="cls-33" d="M146.427,46.708a.926.926,0,0,1-.109.508.376.376,0,0,1-.337.162.37.37,0,0,1-.337-.164.934.934,0,0,1-.108-.5.923.923,0,0,1,.109-.506.428.428,0,0,1,.675,0A.946.946,0,0,1,146.427,46.708Zm-.228.392a.547.547,0,0,0,.041-.164,1.889,1.889,0,0,0,.011-.228,1.918,1.918,0,0,0-.011-.229.524.524,0,0,0-.042-.164.223.223,0,0,0-.082-.1.241.241,0,0,0-.135-.034.245.245,0,0,0-.134.034.221.221,0,0,0-.084.1.493.493,0,0,0-.04.167,2.2,2.2,0,0,0-.011.225,2.032,2.032,0,0,0,.01.226.534.534,0,0,0,.04.163.22.22,0,0,0,.081.1.284.284,0,0,0,.273,0A.208.208,0,0,0,146.2,47.1Z" transform="translate(0.005)"/><path class="cls-33" d="M147.375,46.708a.936.936,0,0,1-.108.508.378.378,0,0,1-.337.162.37.37,0,0,1-.338-.164.943.943,0,0,1-.108-.5.932.932,0,0,1,.109-.506.429.429,0,0,1,.676,0A.956.956,0,0,1,147.375,46.708Zm-.228.392a.519.519,0,0,0,.041-.164,1.889,1.889,0,0,0,.011-.228,1.918,1.918,0,0,0-.011-.229.5.5,0,0,0-.042-.164.216.216,0,0,0-.082-.1.24.24,0,0,0-.134-.034.246.246,0,0,0-.135.034.221.221,0,0,0-.084.1.517.517,0,0,0-.04.167,2.2,2.2,0,0,0-.011.225,2.032,2.032,0,0,0,.01.226.534.534,0,0,0,.04.163.22.22,0,0,0,.081.1.284.284,0,0,0,.273,0A.2.2,0,0,0,147.147,47.1Z" transform="translate(0.005)"/><path class="cls-33" d="M148.325,47.352h-.872v-.181l.183-.156c.06-.052.117-.1.17-.154a1.742,1.742,0,0,0,.227-.256.375.375,0,0,0,.061-.2.2.2,0,0,0-.066-.157.274.274,0,0,0-.184-.056.572.572,0,0,0-.171.027.7.7,0,0,0-.179.085h-.009v-.182a.865.865,0,0,1,.164-.055.828.828,0,0,1,.2-.025.469.469,0,0,1,.31.1.323.323,0,0,1,.113.259.463.463,0,0,1-.019.137.507.507,0,0,1-.055.121.759.759,0,0,1-.079.105c-.03.035-.067.073-.11.115-.062.061-.125.119-.192.176l-.183.158h.692Z" transform="translate(0.005)"/></g><g id="_102-12" data-name="102"><rect class="cls-32" x="153.483" y="45.736" width="4.255" height="3.438"/><rect class="cls-32" x="153.442" y="38.607" width="4.255" height="3.438"/><rect class="cls-34" x="153.793" y="41.279" width="3.608" height="5.161"/></g><g id="_102-13" data-name="102"><rect class="cls-32" x="153.483" y="61.737" width="4.255" height="3.438"/><rect class="cls-32" x="153.442" y="54.608" width="4.255" height="3.438"/><rect class="cls-34" x="153.793" y="57.28" width="3.608" height="5.161"/></g><g id="_102-14" data-name="102"><rect class="cls-32" x="158.405" y="66.991" width="3.438" height="4.255"/><rect class="cls-32" x="165.533" y="66.95" width="3.438" height="4.255"/><rect class="cls-34" x="161.138" y="67.3" width="5.161" height="3.608"/></g><polyline class="cls-35" points="172.772 110.67 174.762 110.67 174.762 103.05 172.772 103.05"/><polyline class="cls-35" points="130.502 103.05 128.512 103.05 128.512 110.67 130.502 110.67"/><polyline class="cls-35" points="169.732 82.15 172.242 82.15 172.242 79.25 168.702 79.25"/><polyline class="cls-35" points="130.502 82.15 127.992 82.15 127.992 79.25 131.522 79.25"/><rect class="cls-35" x="156.822" y="75.35" width="2.57" height="6.04"/><rect class="cls-35" x="153.652" y="75.35" width="2.57" height="6.04"/><rect class="cls-35" x="150.482" y="75.35" width="2.57" height="6.04"/><rect class="cls-35" x="147.312" y="75.35" width="2.57" height="6.04"/><rect class="cls-35" x="144.142" y="75.35" width="2.57" height="6.04"/><rect class="cls-35" x="140.962" y="75.35" width="2.57" height="6.04"/><rect class="cls-35" x="137.792" y="75.35" width="2.57" height="6.04"/><rect class="cls-35" x="134.622" y="75.35" width="2.57" height="6.04"/><rect class="cls-35" x="131.452" y="75.35" width="2.57" height="6.04"/><path class="cls-36" d="M172.767,120.76V83.9a.29.29,0,0,0-.29-.29h-2.46a.29.29,0,0,1-.29-.29h0V79.54a.29.29,0,0,0-.29-.29h-38.66a.28.28,0,0,0-.28.28v39.19a.28.28,0,0,0,.225.326.331.331,0,0,0,.055,0h26.15l8,2h7.55a.29.29,0,0,0,.29-.29Z" transform="translate(0.005)"/><rect class="cls-37" x="130.492" y="83.69" width="3.07" height="11"/><polygon class="cls-38" points="130.502 80.25 133.562 81.14 133.562 83.69 130.502 83.69 130.502 80.25"/><path class="cls-39" d="M130.717,94.8l.78-1.3a2.639,2.639,0,0,0,.21-1.5,2.091,2.091,0,0,0-.09-.33l-.79-2.87a1.924,1.924,0,0,1-.12-.53,2.306,2.306,0,0,1,.45-1.58l.77-1.3" transform="translate(0.005)"/><polygon class="cls-37" points="172.722 115.97 171.872 115.97 171.872 102.88 166.342 102.88 166.342 106.64 168.932 109.5 168.932 115.97 168.192 115.97 168.192 109.67 165.612 106.75 165.612 102.17 172.722 102.17 172.722 115.97"/><path class="cls-37" d="M155.747,93.89v8.16a.18.18,0,0,1-.17.17h-.49a.18.18,0,0,1-.17-.17v-9a.17.17,0,0,1,.17-.17h4.06a.17.17,0,0,1,.17.17v9a.18.18,0,0,1-.17.17h-.46a.18.18,0,0,1-.17-.17V93.93a.181.181,0,0,0-.17-.18h-2.43A.18.18,0,0,0,155.747,93.89Z" transform="translate(0.005)"/><path class="cls-37" d="M135.887,93.89v8.16a.18.18,0,0,1-.17.17h-.49a.18.18,0,0,1-.17-.17v-9a.17.17,0,0,1,.17-.17h4.06a.17.17,0,0,1,.17.17v9a.18.18,0,0,1-.17.17h-.46a.18.18,0,0,1-.17-.17V93.93a.181.181,0,0,0-.17-.18h-2.43A.18.18,0,0,0,135.887,93.89Z" transform="translate(0.005)"/><line class="cls-40" x1="172.602" y1="101.94" x2="172.602" y2="120.76"/><g id="конденсатор-14" data-name="конденсатор"><rect class="cls-19" x="96.753" y="97.828" width="2.343" height="5.118"/><rect class="cls-19" x="103.53" y="97.78" width="2.343" height="5.118"/><rect class="cls-34" x="98.243" y="98.2" width="6.2" height="4.337"/></g></g></svg>