<svg id="_Layer_" data-name="&lt;Layer&gt;" xmlns="http://www.w3.org/2000/svg" xmlns:xlink="http://www.w3.org/1999/xlink" viewBox="0 0 84.648 230.686"><defs><style>.cls-1{fill:none;stroke:#000;stroke-width:7.087px;}.cls-1,.cls-2{stroke-miterlimit:11.339;}.cls-2{stroke:#b3b3b3;stroke-linecap:round;stroke-width:0.283px;fill-rule:evenodd;fill:url(#radial-gradient);}.cls-3{fill:#d2d2d2;}.cls-4{fill:#e0e0e0;}.cls-5{fill:#a5a5a5;}.cls-6{fill:#232323;}</style><radialGradient id="radial-gradient" cx="40.233" cy="39.815" r="39.673" gradientUnits="userSpaceOnUse"><stop offset="0.008" stop-color="#e6e7e8"/><stop offset="0.546" stop-color="#e8e9ea"/><stop offset="0.74" stop-color="#efeff0"/><stop offset="0.877" stop-color="#fafbfb"/><stop offset="0.913" stop-color="#fff"/><stop offset="0.956" stop-color="#fdfdfd"/><stop offset="0.971" stop-color="#f6f7f7"/><stop offset="0.982" stop-color="#ebebec"/><stop offset="0.99" stop-color="#dadbdc"/><stop offset="0.998" stop-color="#c4c6c7"/><stop offset="1" stop-color="#bcbec0"/></radialGradient></defs><g id="top"><path id="path4642-5" class="cls-1" d="M40.72,74.016C36.093,146.09,68.4,85.592,67.173,161.295" transform="translate(-0.418)"/><g id="g4709"><path id="rect4686" class="cls-2" d="M40.233.142h0A39.673,39.673,0,0,1,79.906,39.815h0A39.673,39.673,0,0,1,40.233,79.488h0A39.673,39.673,0,0,1,.56,39.815h0A39.673,39.673,0,0,1,40.233.142Z" transform="translate(-0.418)"/></g></g><rect class="cls-3" x="55.7" y="204.317" width="22.945" height="29.792" transform="translate(-152.459 286.386) rotate(-90)"/><rect class="cls-4" x="65.157" y="187.833" width="4.032" height="35.787" transform="translate(-138.972 272.899) rotate(-90)"/><rect class="cls-4" x="68.437" y="222.119" width="4.032" height="8.467" transform="translate(140.488 452.705) rotate(-180)"/><rect class="cls-5" x="66.499" y="224.624" width="7.908" height="3.464" transform="translate(296.391 155.903) rotate(90)"/><rect class="cls-4" x="74.997" y="222.119" width="4.032" height="8.467" transform="translate(153.608 452.705) rotate(-180)"/><rect class="cls-5" x="73.06" y="224.624" width="7.908" height="3.464" transform="translate(302.951 149.342) rotate(90)"/><rect class="cls-4" x="55.316" y="222.119" width="4.032" height="8.467" transform="translate(114.246 452.705) rotate(-180)"/><rect class="cls-5" x="53.378" y="224.624" width="7.908" height="3.464" transform="translate(283.27 169.024) rotate(90)"/><rect class="cls-4" x="61.876" y="222.119" width="4.032" height="8.467" transform="translate(127.367 452.705) rotate(-180)"/><rect class="cls-5" x="59.939" y="224.624" width="7.908" height="3.464" transform="translate(289.83 162.463) rotate(90)"/><path class="cls-6" d="M52.835,203.71l3.51-6.6A42.274,42.274,0,0,0,61.288,177.6l.175-22.3H72.882l.168,22.262a42.265,42.265,0,0,0,4.924,19.484l3.536,6.67Z" transform="translate(-0.418)"/></svg>