<svg id="_Layer_" data-name="&lt;Layer&gt;" xmlns="http://www.w3.org/2000/svg" xmlns:xlink="http://www.w3.org/1999/xlink" viewBox="0 0 85.066 230.686"><defs><style>.cls-1{fill:#d2d2d2;}.cls-2{fill:#e0e0e0;}.cls-3{fill:#232323;}.cls-4{fill:#b3b3b3;fill-rule:evenodd;}.cls-5{stroke:#b3b3b3;stroke-width:0.283px;fill:url(#radial-gradient);}.cls-11,.cls-5,.cls-7{stroke-linecap:round;}.cls-5,.cls-6{stroke-miterlimit:11.339;}.cls-11,.cls-6{fill:none;}.cls-6{stroke:#000;stroke-width:7.087px;}.cls-7{fill:#f9f9f9;stroke:#d2d2d2;stroke-linejoin:round;stroke-width:0.238px;}.cls-8{fill:#8c8c8c;}.cls-10,.cls-9{fill:red;}.cls-10{fill-opacity:0.588;}.cls-11{stroke:red;stroke-miterlimit:10.767;stroke-width:0.398px;}.cls-12{fill:#bcbec0;}</style><radialGradient id="radial-gradient" cx="45.654" cy="39.413" r="39.271" gradientUnits="userSpaceOnUse"><stop offset="0.008" stop-color="#e6e7e8"/><stop offset="0.546" stop-color="#e8e9ea"/><stop offset="0.74" stop-color="#efeff0"/><stop offset="0.877" stop-color="#fafbfb"/><stop offset="0.913" stop-color="#fff"/><stop offset="0.956" stop-color="#fdfdfd"/><stop offset="0.971" stop-color="#f6f7f7"/><stop offset="0.982" stop-color="#ebebec"/><stop offset="0.99" stop-color="#dadbdc"/><stop offset="0.998" stop-color="#c4c6c7"/><stop offset="1" stop-color="#bcbec0"/></radialGradient></defs><rect class="cls-1" x="6.421" y="204.317" width="22.945" height="29.792" transform="translate(-201.32 237.107) rotate(-90)"/><rect class="cls-2" x="15.878" y="187.833" width="4.032" height="35.787" transform="translate(-187.833 223.62) rotate(-90)"/><polygon class="cls-2" points="25.92 226.434 22.921 226.434 22.921 206.97 26.014 206.97 26.014 216.965 29.053 219.217 25.92 226.434"/><polygon class="cls-2" points="9.867 226.434 12.866 226.434 12.866 206.97 9.773 206.97 9.773 216.965 6.734 219.217 9.867 226.434"/><path class="cls-3" d="M3.556,203.71l3.51-6.6A42.274,42.274,0,0,0,12.009,177.6l.175-22.3H23.6l.168,22.262A42.265,42.265,0,0,0,28.7,197.04l3.536,6.67Z" transform="translate(0 0)"/><g id="bottom"><g id="g5452"><path id="rect6227" class="cls-4" d="M45.654.768h0A38.645,38.645,0,0,1,84.3,39.413h0A38.645,38.645,0,0,1,45.654,78.058h0A38.646,38.646,0,0,1,7.008,39.413h0A38.646,38.646,0,0,1,45.654.768Z" transform="translate(0 0)"/><path id="path4485-34" class="cls-5" d="M45.654.142A39.27,39.27,0,0,0,6.383,39.412h0a39.27,39.27,0,0,0,39.27,39.271h0q.834-.024,1.667-.084h.073v0A39.246,39.246,0,0,0,45.654.142Zm-1.609.895V2.572h3.349V1.062a38.441,38.441,0,0,1,17.19,5.006l-.861,1.426,2.865,1.731.829-1.371A38.432,38.432,0,0,1,78.926,20.417l-1.437.774,1.591,2.946,1.387-.748a38.433,38.433,0,0,1,3.554,14.349H82.512v3.349h1.493A38.439,38.439,0,0,1,80.532,55.34l-1.452-.784L77.489,57.5,79,58.315A38.44,38.44,0,0,1,67.424,71l-.836-1.383-2.865,1.733.874,1.444a38.433,38.433,0,0,1-17.2,5v-1.5H44.046v1.479a38.428,38.428,0,0,1-17.293-4.991l.866-1.432-2.865-1.733-.835,1.381A38.433,38.433,0,0,1,12.335,58.334l1.539-.832-1.591-2.946-1.482.8a38.442,38.442,0,0,1-3.52-14.271H8.829V37.738H7.3a38.415,38.415,0,0,1,3.516-14.393l1.467.792,1.591-2.946-1.511-.815A38.421,38.421,0,0,1,23.894,7.87l.82,1.355,2.865-1.731-.854-1.412A38.443,38.443,0,0,1,44.046,1.037Z" transform="translate(0 0)"/><path id="path4642-5" class="cls-6" d="M17.923,161.295q-.016-1.021-.023-2.009c-.543-72.539,35.5-9.551,30.441-85.27" transform="translate(0 0)"/><path id="path4485-3" class="cls-7" d="M45.654,2.585a36.827,36.827,0,0,0-36.709,34h1.406v5.654H8.968a36.8,36.8,0,0,0,73.391,0H80.771V36.585h1.566a36.825,36.825,0,0,0-36.684-34ZM29.73,13.563a4.254,4.254,0,1,1-4.255,4.255A4.246,4.246,0,0,1,29.73,13.563Z" transform="translate(0 0)"/><g id="g6203"><g id="g6179"><circle id="circle12901-5-2" class="cls-8" cx="29.726" cy="17.808" r="1.774"/><circle id="color_circle1-3-8" data-name="color circle1-3-8" class="cls-9" cx="29.726" cy="17.808" r="0.672"/><circle id="color_circle2-2-6" data-name="color circle2-2-6" class="cls-10" cx="29.726" cy="17.808" r="3.526"/><circle id="path16388-2-3" class="cls-11" cx="29.726" cy="17.808" r="3.583"/></g></g><rect class="cls-12" x="18.265" y="26.068" width="54.772" height="31.641" rx="3.486"/><path d="M31.186,38.759,29.43,41.275l1.753,2.574H30.4l-1.387-2.095-1.422,2.095h-.739l1.774-2.543-1.733-2.547h.78l1.37,2.068,1.4-2.068Z" transform="translate(0 0)"/><path d="M36.19,43.849h-.878L33.3,41.583l-.506.54v1.726h-.677v-5.09h.677v2.656l2.471-2.656h.82l-2.273,2.393Z" transform="translate(0 0)"/><path d="M40.88,43.48c-.126.054-.239.106-.34.153a3.3,3.3,0,0,1-.4.151,4.174,4.174,0,0,1-.453.111,2.878,2.878,0,0,1-.538.046,3.084,3.084,0,0,1-1.007-.156,2.034,2.034,0,0,1-.787-.487,2.211,2.211,0,0,1-.513-.825,3.362,3.362,0,0,1-.184-1.164,3.327,3.327,0,0,1,.177-1.124,2.284,2.284,0,0,1,.513-.838,2.152,2.152,0,0,1,.785-.506,2.858,2.858,0,0,1,1.02-.174,3.46,3.46,0,0,1,.818.1,4.348,4.348,0,0,1,.908.349v.8h-.052a3,3,0,0,0-.834-.513,2.419,2.419,0,0,0-.885-.16,1.847,1.847,0,0,0-.7.124,1.522,1.522,0,0,0-.552.388,1.774,1.774,0,0,0-.368.648,2.856,2.856,0,0,0-.131.9,2.619,2.619,0,0,0,.145.923,1.859,1.859,0,0,0,.374.629,1.5,1.5,0,0,0,.559.374,1.883,1.883,0,0,0,.675.122,2.481,2.481,0,0,0,.916-.168,2.648,2.648,0,0,0,.8-.5h.048Z" transform="translate(0 0)"/><path d="M43.638,41.931H41.505v-.618h2.133Z" transform="translate(0 0)"/><path d="M47.969,38.759l-1.791,2.858v2.232H45.5v-2.16l-1.8-2.93h.748l1.392,2.277,1.4-2.277Z" transform="translate(0 0)"/><path d="M51.985,43.849H48.539v-.715l.72-.615q.36-.307.671-.612a6.546,6.546,0,0,0,.9-1.009,1.458,1.458,0,0,0,.243-.809.771.771,0,0,0-.262-.62,1.079,1.079,0,0,0-.729-.224,2.327,2.327,0,0,0-.673.109,2.749,2.749,0,0,0-.708.335h-.034v-.718a3.225,3.225,0,0,1,.647-.218,3.313,3.313,0,0,1,.785-.1,1.834,1.834,0,0,1,1.227.378,1.275,1.275,0,0,1,.444,1.024,1.925,1.925,0,0,1-.073.542,1.84,1.84,0,0,1-.217.476,3.264,3.264,0,0,1-.313.417c-.119.137-.265.288-.436.455q-.364.358-.755.7t-.728.623h2.738Z" transform="translate(0 0)"/><path d="M56.394,42.232a1.824,1.824,0,0,1-.13.68,1.569,1.569,0,0,1-.355.547,1.674,1.674,0,0,1-.587.367,2.208,2.208,0,0,1-.787.129,3.6,3.6,0,0,1-.8-.088,3.26,3.26,0,0,1-.653-.21v-.721h.048a2.937,2.937,0,0,0,.657.3,2.306,2.306,0,0,0,.738.125,1.649,1.649,0,0,0,.47-.068.988.988,0,0,0,.405-.239.958.958,0,0,0,.227-.352,1.333,1.333,0,0,0,.077-.475.98.98,0,0,0-.091-.445.745.745,0,0,0-.251-.29,1.087,1.087,0,0,0-.432-.183,2.76,2.76,0,0,0-.569-.053,4.03,4.03,0,0,0-.58.041c-.185.027-.346.055-.48.082V38.759H56.36v.6h-2.4v1.353c.1-.009.2-.016.3-.02s.191-.007.266-.007a3.313,3.313,0,0,1,.725.07A1.628,1.628,0,0,1,55.82,41a1.278,1.278,0,0,1,.423.485A1.634,1.634,0,0,1,56.394,42.232Z" transform="translate(0 0)"/><path d="M59.545,41.931H57.412v-.618h2.133Z" transform="translate(0 0)"/><path d="M64.594,38.759l-1.853,5.09h-.9l-1.853-5.09h.725l1.6,4.478,1.6-4.478Z" transform="translate(0 0)"/></g></g></svg>