<?xml version="1.0" encoding="utf-8"?>
<!-- Generator: Adobe Illustrator 25.2.1, SVG Export Plug-In . SVG Version: 6.00 Build 0)  -->
<svg version="1.1" id="Layer_2" xmlns="http://www.w3.org/2000/svg" xmlns:xlink="http://www.w3.org/1999/xlink" x="0px" y="0px"
	 viewBox="0 0 85.04 85.04" style="enable-background:new 0 0 85.04 85.04;" xml:space="preserve">
<style type="text/css">
	.st0{fill:#131314;}
	.st1{fill:#FFFFFF;}
	.st2{fill:#9F9C9C;}
	.st3{fill:none;stroke:#FFFFFF;stroke-width:0.5;stroke-linecap:round;stroke-miterlimit:10;}
	.st4{fill:#CDC5BA;}
	.st5{fill:#34302C;}
	.st6{fill:#B3B4B3;}
	.st7{fill:none;stroke:#656565;stroke-width:0.25;stroke-miterlimit:10;}
	.st8{fill:#AE7D52;}
	.st9{fill:#CFC7BC;}
	.st10{fill:#36312F;}
	.st11{fill:#B5B5B4;}
	.st12{display:none;fill:#C9D24B;stroke:#E8E24A;stroke-width:0.25;stroke-miterlimit:10;}
	.st13{fill:#F5AC4F;}
	.st14{fill:#10A75D;}
	.st15{opacity:0.37;fill:none;stroke:#FFFFFF;stroke-width:0.5;stroke-miterlimit:10;}
	.st16{fill:#E5E5E5;}
	.st17{fill:#19120E;}
	.st18{fill:#EFEEEE;}
	.st19{fill:#E2E1E2;}
	.st20{fill:#2F2F2F;}
	.st21{fill:none;stroke:#E5E5E5;stroke-width:0.8369;stroke-miterlimit:10;}
	.st22{fill:#2D2D2D;}
	.st23{fill:none;stroke:#B2B2B2;stroke-miterlimit:10;}
</style>
<path class="st0" d="M0,0v85.04h85.04V0H0z M9.92,79.51c-2.43,0-4.39-1.97-4.39-4.39c0-2.43,1.97-4.39,4.39-4.39
	c2.43,0,4.39,1.97,4.39,4.39C14.31,77.54,12.35,79.51,9.92,79.51z M9.92,14.31c-2.43,0-4.39-1.97-4.39-4.39
	c0-2.43,1.97-4.39,4.39-4.39c2.43,0,4.39,1.97,4.39,4.39C14.31,12.35,12.35,14.31,9.92,14.31z M75.12,79.51
	c-2.43,0-4.39-1.97-4.39-4.39c0-2.43,1.97-4.39,4.39-4.39c2.43,0,4.39,1.97,4.39,4.39C79.51,77.54,77.54,79.51,75.12,79.51z
	 M75.12,14.31c-2.43,0-4.39-1.97-4.39-4.39c0-2.43,1.97-4.39,4.39-4.39c2.43,0,4.39,1.97,4.39,4.39
	C79.51,12.35,77.54,14.31,75.12,14.31z M8.25,31.66c0,0.86-0.7,1.56-1.56,1.56s-1.56-0.7-1.56-1.56c0-0.86,0.7-1.56,1.56-1.56
	S8.25,30.8,8.25,31.66z M8.25,24.49c0,0.86-0.7,1.56-1.56,1.56s-1.56-0.7-1.56-1.56c0-0.86,0.7-1.56,1.56-1.56
	S8.25,23.63,8.25,24.49z M15.46,24.49c0,0.86-0.7,1.56-1.56,1.56s-1.56-0.7-1.56-1.56c0-0.86,0.7-1.56,1.56-1.56
	S15.46,23.63,15.46,24.49z M15.41,31.66c0,0.86-0.7,1.56-1.56,1.56c-0.86,0-1.56-0.7-1.56-1.56c0-0.86,0.7-1.56,1.56-1.56
	C14.71,30.1,15.41,30.8,15.41,31.66z M22.66,31.66c0,0.86-0.7,1.56-1.56,1.56s-1.56-0.7-1.56-1.56c0-0.86,0.7-1.56,1.56-1.56
	S22.66,30.8,22.66,31.66z M22.66,24.49c0,0.86-0.7,1.56-1.56,1.56s-1.56-0.7-1.56-1.56c0-0.86,0.7-1.56,1.56-1.56
	S22.66,23.63,22.66,24.49z M29.87,24.49c0,0.86-0.7,1.56-1.56,1.56s-1.56-0.7-1.56-1.56c0-0.86,0.7-1.56,1.56-1.56
	S29.87,23.63,29.87,24.49z M29.82,31.66c0,0.86-0.7,1.56-1.56,1.56s-1.56-0.7-1.56-1.56c0-0.86,0.7-1.56,1.56-1.56
	S29.82,30.8,29.82,31.66z M36.96,24.49c0,0.86-0.7,1.56-1.56,1.56c-0.86,0-1.56-0.7-1.56-1.56c0-0.86,0.7-1.56,1.56-1.56
	C36.26,22.93,36.96,23.63,36.96,24.49z M29.77,4.62c0,0.86-0.7,1.56-1.56,1.56s-1.56-0.7-1.56-1.56s0.7-1.56,1.56-1.56
	S29.77,3.76,29.77,4.62z M36.98,4.62c0,0.86-0.7,1.56-1.56,1.56c-0.86,0-1.56-0.7-1.56-1.56s0.7-1.56,1.56-1.56
	C36.28,3.06,36.98,3.76,36.98,4.62z M44.18,4.62c0,0.86-0.7,1.56-1.56,1.56c-0.86,0-1.56-0.7-1.56-1.56s0.7-1.56,1.56-1.56
	C43.49,3.06,44.18,3.76,44.18,4.62z M51.39,4.62c0,0.86-0.7,1.56-1.56,1.56c-0.86,0-1.56-0.7-1.56-1.56s0.7-1.56,1.56-1.56
	C50.69,3.06,51.39,3.76,51.39,4.62z M58.48,4.62c0,0.86-0.7,1.56-1.56,1.56c-0.86,0-1.56-0.7-1.56-1.56s0.7-1.56,1.56-1.56
	C57.78,3.06,58.48,3.76,58.48,4.62z M36.92,31.66c0,0.86-0.7,1.56-1.56,1.56c-0.86,0-1.56-0.7-1.56-1.56c0-0.86,0.7-1.56,1.56-1.56
	C36.22,30.1,36.92,30.8,36.92,31.66z M8.25,38.83c0,0.86-0.7,1.56-1.56,1.56s-1.56-0.7-1.56-1.56c0-0.86,0.7-1.56,1.56-1.56
	S8.25,37.97,8.25,38.83z M15.41,38.83c0,0.86-0.7,1.56-1.56,1.56c-0.86,0-1.56-0.7-1.56-1.56c0-0.86,0.7-1.56,1.56-1.56
	C14.71,37.27,15.41,37.97,15.41,38.83z M22.66,38.83c0,0.86-0.7,1.56-1.56,1.56s-1.56-0.7-1.56-1.56c0-0.86,0.7-1.56,1.56-1.56
	S22.66,37.97,22.66,38.83z M29.82,38.83c0,0.86-0.7,1.56-1.56,1.56s-1.56-0.7-1.56-1.56c0-0.86,0.7-1.56,1.56-1.56
	S29.82,37.97,29.82,38.83z M36.92,38.83c0,0.86-0.7,1.56-1.56,1.56c-0.86,0-1.56-0.7-1.56-1.56c0-0.86,0.7-1.56,1.56-1.56
	C36.22,37.27,36.92,37.97,36.92,38.83z M8.25,53.23c0,0.86-0.7,1.56-1.56,1.56s-1.56-0.7-1.56-1.56c0-0.86,0.7-1.56,1.56-1.56
	S8.25,52.37,8.25,53.23z M8.25,46.06c0,0.86-0.7,1.56-1.56,1.56s-1.56-0.7-1.56-1.56s0.7-1.56,1.56-1.56S8.25,45.2,8.25,46.06z
	 M15.46,46.06c0,0.86-0.7,1.56-1.56,1.56s-1.56-0.7-1.56-1.56s0.7-1.56,1.56-1.56S15.46,45.2,15.46,46.06z M15.41,53.23
	c0,0.86-0.7,1.56-1.56,1.56c-0.86,0-1.56-0.7-1.56-1.56c0-0.86,0.7-1.56,1.56-1.56C14.71,51.67,15.41,52.37,15.41,53.23z
	 M22.66,53.23c0,0.86-0.7,1.56-1.56,1.56s-1.56-0.7-1.56-1.56c0-0.86,0.7-1.56,1.56-1.56S22.66,52.37,22.66,53.23z M22.66,46.06
	c0,0.86-0.7,1.56-1.56,1.56s-1.56-0.7-1.56-1.56s0.7-1.56,1.56-1.56S22.66,45.2,22.66,46.06z M29.87,46.06
	c0,0.86-0.7,1.56-1.56,1.56s-1.56-0.7-1.56-1.56s0.7-1.56,1.56-1.56S29.87,45.2,29.87,46.06z M29.82,53.23
	c0,0.86-0.7,1.56-1.56,1.56s-1.56-0.7-1.56-1.56c0-0.86,0.7-1.56,1.56-1.56S29.82,52.37,29.82,53.23z M36.96,46.06
	c0,0.86-0.7,1.56-1.56,1.56c-0.86,0-1.56-0.7-1.56-1.56s0.7-1.56,1.56-1.56C36.26,44.5,36.96,45.2,36.96,46.06z M36.92,53.23
	c0,0.86-0.7,1.56-1.56,1.56c-0.86,0-1.56-0.7-1.56-1.56c0-0.86,0.7-1.56,1.56-1.56C36.22,51.67,36.92,52.37,36.92,53.23z M8.25,60.4
	c0,0.86-0.7,1.56-1.56,1.56s-1.56-0.7-1.56-1.56c0-0.86,0.7-1.56,1.56-1.56S8.25,59.54,8.25,60.4z M15.41,60.4
	c0,0.86-0.7,1.56-1.56,1.56c-0.86,0-1.56-0.7-1.56-1.56c0-0.86,0.7-1.56,1.56-1.56C14.71,58.84,15.41,59.54,15.41,60.4z M22.66,60.4
	c0,0.86-0.7,1.56-1.56,1.56s-1.56-0.7-1.56-1.56c0-0.86,0.7-1.56,1.56-1.56S22.66,59.54,22.66,60.4z M29.82,60.4
	c0,0.86-0.7,1.56-1.56,1.56s-1.56-0.7-1.56-1.56c0-0.86,0.7-1.56,1.56-1.56S29.82,59.54,29.82,60.4z M36.92,60.4
	c0,0.86-0.7,1.56-1.56,1.56c-0.86,0-1.56-0.7-1.56-1.56c0-0.86,0.7-1.56,1.56-1.56C36.22,58.84,36.92,59.54,36.92,60.4z
	 M44.07,53.23c0,0.86-0.7,1.56-1.56,1.56c-0.86,0-1.56-0.7-1.56-1.56c0-0.86,0.7-1.56,1.56-1.56
	C43.37,51.67,44.07,52.37,44.07,53.23z M44.07,46.06c0,0.86-0.7,1.56-1.56,1.56c-0.86,0-1.56-0.7-1.56-1.56s0.7-1.56,1.56-1.56
	C43.37,44.5,44.07,45.2,44.07,46.06z M51.27,46.06c0,0.86-0.7,1.56-1.56,1.56c-0.86,0-1.56-0.7-1.56-1.56s0.7-1.56,1.56-1.56
	C50.57,44.5,51.27,45.2,51.27,46.06z M51.23,53.23c0,0.86-0.7,1.56-1.56,1.56s-1.56-0.7-1.56-1.56c0-0.86,0.7-1.56,1.56-1.56
	S51.23,52.37,51.23,53.23z M58.48,53.23c0,0.86-0.7,1.56-1.56,1.56s-1.56-0.7-1.56-1.56c0-0.86,0.7-1.56,1.56-1.56
	S58.48,52.37,58.48,53.23z M58.48,46.06c0,0.86-0.7,1.56-1.56,1.56s-1.56-0.7-1.56-1.56s0.7-1.56,1.56-1.56S58.48,45.2,58.48,46.06z
	 M65.68,46.06c0,0.86-0.7,1.56-1.56,1.56c-0.86,0-1.56-0.7-1.56-1.56s0.7-1.56,1.56-1.56C64.99,44.5,65.68,45.2,65.68,46.06z
	 M65.64,53.23c0,0.86-0.7,1.56-1.56,1.56c-0.86,0-1.56-0.7-1.56-1.56c0-0.86,0.7-1.56,1.56-1.56
	C64.94,51.67,65.64,52.37,65.64,53.23z M72.77,46.06c0,0.86-0.7,1.56-1.56,1.56s-1.56-0.7-1.56-1.56s0.7-1.56,1.56-1.56
	S72.77,45.2,72.77,46.06z M72.73,53.23c0,0.86-0.7,1.56-1.56,1.56s-1.56-0.7-1.56-1.56c0-0.86,0.7-1.56,1.56-1.56
	S72.73,52.37,72.73,53.23z M44.07,60.4c0,0.86-0.7,1.56-1.56,1.56c-0.86,0-1.56-0.7-1.56-1.56c0-0.86,0.7-1.56,1.56-1.56
	C43.37,58.84,44.07,59.54,44.07,60.4z M51.23,60.4c0,0.86-0.7,1.56-1.56,1.56s-1.56-0.7-1.56-1.56c0-0.86,0.7-1.56,1.56-1.56
	S51.23,59.54,51.23,60.4z M33.47,75.12c0,0.86-0.7,1.56-1.56,1.56c-0.86,0-1.56-0.7-1.56-1.56s0.7-1.56,1.56-1.56
	C32.77,73.56,33.47,74.26,33.47,75.12z M40.56,75.12c0,0.86-0.7,1.56-1.56,1.56c-0.86,0-1.56-0.7-1.56-1.56s0.7-1.56,1.56-1.56
	C39.86,73.56,40.56,74.26,40.56,75.12z M47.71,75.12c0,0.86-0.7,1.56-1.56,1.56c-0.86,0-1.56-0.7-1.56-1.56s0.7-1.56,1.56-1.56
	C47.01,73.56,47.71,74.26,47.71,75.12z M54.87,75.12c0,0.86-0.7,1.56-1.56,1.56c-0.86,0-1.56-0.7-1.56-1.56s0.7-1.56,1.56-1.56
	C54.18,73.56,54.87,74.26,54.87,75.12z M58.48,60.4c0,0.86-0.7,1.56-1.56,1.56s-1.56-0.7-1.56-1.56c0-0.86,0.7-1.56,1.56-1.56
	S58.48,59.54,58.48,60.4z M65.64,60.4c0,0.86-0.7,1.56-1.56,1.56c-0.86,0-1.56-0.7-1.56-1.56c0-0.86,0.7-1.56,1.56-1.56
	C64.94,58.84,65.64,59.54,65.64,60.4z M72.73,60.4c0,0.86-0.7,1.56-1.56,1.56s-1.56-0.7-1.56-1.56c0-0.86,0.7-1.56,1.56-1.56
	S72.73,59.54,72.73,60.4z M79.95,46.06c0,0.86-0.7,1.56-1.56,1.56s-1.56-0.7-1.56-1.56s0.7-1.56,1.56-1.56S79.95,45.2,79.95,46.06z
	 M72.77,38.81c0,0.86-0.7,1.56-1.56,1.56s-1.56-0.7-1.56-1.56c0-0.86,0.7-1.56,1.56-1.56S72.77,37.95,72.77,38.81z M79.95,38.81
	c0,0.86-0.7,1.56-1.56,1.56s-1.56-0.7-1.56-1.56c0-0.86,0.7-1.56,1.56-1.56S79.95,37.95,79.95,38.81z M79.9,53.23
	c0,0.86-0.7,1.56-1.56,1.56s-1.56-0.7-1.56-1.56c0-0.86,0.7-1.56,1.56-1.56S79.9,52.37,79.9,53.23z M79.9,60.4
	c0,0.86-0.7,1.56-1.56,1.56s-1.56-0.7-1.56-1.56c0-0.86,0.7-1.56,1.56-1.56S79.9,59.54,79.9,60.4z"/>
<path class="st1" d="M84.83,43v6.21H0.35V43H84.83z M6.69,44.5c-0.86,0-1.56,0.7-1.56,1.56s0.7,1.56,1.56,1.56s1.56-0.7,1.56-1.56
	S7.55,44.5,6.69,44.5z M13.9,44.5c-0.86,0-1.56,0.7-1.56,1.56s0.7,1.56,1.56,1.56s1.56-0.7,1.56-1.56S14.76,44.5,13.9,44.5z
	 M21.1,44.5c-0.86,0-1.56,0.7-1.56,1.56s0.7,1.56,1.56,1.56s1.56-0.7,1.56-1.56S21.96,44.5,21.1,44.5z M28.31,44.5
	c-0.86,0-1.56,0.7-1.56,1.56s0.7,1.56,1.56,1.56s1.56-0.7,1.56-1.56S29.17,44.5,28.31,44.5z M35.4,44.5c-0.86,0-1.56,0.7-1.56,1.56
	s0.7,1.56,1.56,1.56c0.86,0,1.56-0.7,1.56-1.56S36.26,44.5,35.4,44.5z M42.5,44.5c-0.86,0-1.56,0.7-1.56,1.56s0.7,1.56,1.56,1.56
	c0.86,0,1.56-0.7,1.56-1.56S43.37,44.5,42.5,44.5z M49.71,44.5c-0.86,0-1.56,0.7-1.56,1.56s0.7,1.56,1.56,1.56
	c0.86,0,1.56-0.7,1.56-1.56S50.57,44.5,49.71,44.5z M56.91,44.5c-0.86,0-1.56,0.7-1.56,1.56s0.7,1.56,1.56,1.56s1.56-0.7,1.56-1.56
	S57.78,44.5,56.91,44.5z M64.12,44.5c-0.86,0-1.56,0.7-1.56,1.56s0.7,1.56,1.56,1.56c0.86,0,1.56-0.7,1.56-1.56
	S64.99,44.5,64.12,44.5z M71.21,44.5c-0.86,0-1.56,0.7-1.56,1.56s0.7,1.56,1.56,1.56s1.56-0.7,1.56-1.56S72.08,44.5,71.21,44.5z
	 M78.38,44.5c-0.86,0-1.56,0.7-1.56,1.56s0.7,1.56,1.56,1.56s1.56-0.7,1.56-1.56S79.25,44.5,78.38,44.5z"/>
<path class="st1" d="M39.65,35.76v6.21H0.35v-6.21H39.65z M6.67,37.27c-0.86,0-1.56,0.7-1.56,1.56c0,0.86,0.7,1.56,1.56,1.56
	s1.56-0.7,1.56-1.56C8.24,37.97,7.54,37.27,6.67,37.27z M13.88,37.27c-0.86,0-1.56,0.7-1.56,1.56c0,0.86,0.7,1.56,1.56,1.56
	s1.56-0.7,1.56-1.56C15.44,37.97,14.74,37.27,13.88,37.27z M21.09,37.27c-0.86,0-1.56,0.7-1.56,1.56c0,0.86,0.7,1.56,1.56,1.56
	c0.86,0,1.56-0.7,1.56-1.56C22.65,37.97,21.95,37.27,21.09,37.27z M28.29,37.27c-0.86,0-1.56,0.7-1.56,1.56
	c0,0.86,0.7,1.56,1.56,1.56c0.86,0,1.56-0.7,1.56-1.56C29.86,37.97,29.16,37.27,28.29,37.27z M35.38,37.27
	c-0.86,0-1.56,0.7-1.56,1.56c0,0.86,0.7,1.56,1.56,1.56c0.86,0,1.56-0.7,1.56-1.56C36.95,37.97,36.25,37.27,35.38,37.27z"/>
<path class="st1" d="M31.28,8.25h-6.25V0.2h6.25V8.25z M28.21,3.06c-0.86,0-1.56,0.7-1.56,1.56s0.7,1.56,1.56,1.56
	s1.56-0.7,1.56-1.56S29.07,3.06,28.21,3.06z"/>
<path class="st1" d="M56.42,78.41h-6.23v-7.12h6.23V78.41z M53.31,73.56c-0.86,0-1.56,0.7-1.56,1.56s0.7,1.56,1.56,1.56
	c0.86,0,1.56-0.7,1.56-1.56S54.18,73.56,53.31,73.56z"/>
<g id="pin_x26_txt">
	<path class="st2" d="M9.92,3.95c-3.29,0-5.95,2.68-5.95,5.98c0,3.3,2.66,5.98,5.95,5.98c3.29,0,5.95-2.68,5.95-5.98
		C15.87,6.62,13.21,3.95,9.92,3.95z M9.92,14.31c-2.43,0-4.39-1.97-4.39-4.39c0-2.43,1.97-4.39,4.39-4.39
		c2.43,0,4.39,1.97,4.39,4.39C14.31,12.35,12.35,14.31,9.92,14.31z"/>
	<path class="st2" d="M75.12,3.95c-3.29,0-5.95,2.68-5.95,5.98c0,3.3,2.66,5.98,5.95,5.98c3.29,0,5.95-2.68,5.95-5.98
		C81.07,6.62,78.41,3.95,75.12,3.95z M75.12,14.31c-2.43,0-4.39-1.97-4.39-4.39c0-2.43,1.97-4.39,4.39-4.39
		c2.43,0,4.39,1.97,4.39,4.39C79.51,12.35,77.54,14.31,75.12,14.31z"/>
	<path class="st2" d="M9.92,69.14c-3.29,0-5.95,2.68-5.95,5.98c0,3.3,2.66,5.98,5.95,5.98c3.29,0,5.95-2.68,5.95-5.98
		C15.87,71.82,13.21,69.14,9.92,69.14z M9.92,79.51c-2.43,0-4.39-1.97-4.39-4.39c0-2.43,1.97-4.39,4.39-4.39
		c2.43,0,4.39,1.97,4.39,4.39C14.31,77.55,12.35,79.51,9.92,79.51z"/>
	<path class="st2" d="M75.12,69.14c-3.29,0-5.95,2.68-5.95,5.98c0,3.3,2.66,5.98,5.95,5.98c3.29,0,5.95-2.68,5.95-5.98
		C81.07,71.82,78.41,69.14,75.12,69.14z M75.12,79.51c-2.43,0-4.39-1.97-4.39-4.39c0-2.43,1.97-4.39,4.39-4.39
		c2.43,0,4.39,1.97,4.39,4.39C79.51,77.55,77.54,79.51,75.12,79.51z"/>
</g>
<g>
	<line class="st3" x1="18.44" y1="16.14" x2="18.44" y2="13.06"/>
	<g>
		<g id="XMLID_105_">
			<g>
				<rect x="19.5" y="13.89" class="st4" width="1.72" height="1.34"/>
			</g>
			<g>
			</g>
		</g>
		<g id="XMLID_104_">
			<g>
				<rect x="27.96" y="13.89" class="st4" width="1.72" height="1.34"/>
			</g>
			<g>
			</g>
		</g>
		<g id="XMLID_103_">
			<g>
				<rect x="21.15" y="12.29" class="st5" width="6.8" height="4.54"/>
			</g>
			<g>
			</g>
		</g>
		<g>
			<path class="st6" d="M25.63,14.25c0-0.13,0.04-0.24,0.13-0.32c0.09-0.08,0.19-0.12,0.32-0.12c0.06,0,0.12,0.01,0.17,0.03
				s0.1,0.05,0.14,0.09c0.05,0.05,0.09,0.11,0.11,0.19c0.03,0.08,0.04,0.17,0.04,0.29c0,0.11-0.01,0.21-0.04,0.3
				s-0.06,0.17-0.12,0.24c-0.05,0.06-0.12,0.12-0.2,0.15s-0.17,0.05-0.28,0.05c-0.03,0-0.06,0-0.09,0c-0.02,0-0.05-0.01-0.07-0.02
				v-0.17h0.01c0.02,0.01,0.04,0.02,0.07,0.02c0.03,0.01,0.07,0.01,0.1,0.01c0.12,0,0.22-0.04,0.3-0.12
				c0.07-0.08,0.12-0.18,0.13-0.31c-0.05,0.03-0.1,0.05-0.14,0.07c-0.05,0.02-0.1,0.02-0.16,0.02c-0.05,0-0.1,0-0.14-0.02
				c-0.04-0.01-0.08-0.03-0.13-0.06c-0.05-0.04-0.09-0.08-0.11-0.13C25.64,14.39,25.63,14.33,25.63,14.25z M25.8,14.24
				c0,0.05,0.01,0.1,0.02,0.13c0.02,0.04,0.04,0.07,0.08,0.09c0.03,0.02,0.06,0.03,0.09,0.04c0.03,0.01,0.07,0.01,0.1,0.01
				c0.05,0,0.09-0.01,0.14-0.02c0.04-0.01,0.09-0.03,0.13-0.05c0-0.01,0-0.02,0-0.04s0-0.03,0-0.04c0-0.09-0.01-0.16-0.03-0.22
				c-0.02-0.05-0.04-0.09-0.08-0.12c-0.03-0.03-0.06-0.04-0.09-0.06s-0.06-0.02-0.1-0.02c-0.08,0-0.15,0.03-0.2,0.08
				C25.83,14.07,25.8,14.15,25.8,14.24z"/>
			<path class="st6" d="M24.69,14.93l0.58-1.09h0.19l-0.62,1.14h0.73v0.15h-0.88V14.93z"/>
		</g>
		<line class="st7" x1="22.11" y1="16.83" x2="22.11" y2="12.29"/>
		<line class="st7" x1="22.54" y1="16.83" x2="22.54" y2="12.29"/>
		<line class="st7" x1="21.65" y1="16.83" x2="21.65" y2="12.29"/>
	</g>
</g>
<g id="конденсатор_2_">
	<g id="XMLID_111_">
		<g>
			<rect x="61.9" y="0.91" class="st4" width="4.26" height="1.95"/>
		</g>
		<g>
		</g>
	</g>
	<g id="XMLID_107_">
		<g>
			<rect x="61.94" y="6.55" class="st4" width="4.26" height="1.95"/>
		</g>
		<g>
		</g>
	</g>
	<g id="XMLID_106_">
		<g>
			<rect x="62.24" y="2.15" class="st8" width="3.61" height="5.16"/>
		</g>
		<g>
		</g>
	</g>
</g>
<g id="конденсатор_3_">
	<g id="XMLID_300_">
		<g>
			<rect x="38.6" y="79.05" class="st4" width="1.95" height="4.26"/>
		</g>
		<g>
		</g>
	</g>
	<g id="XMLID_299_">
		<g>
			<rect x="44.24" y="79.01" class="st4" width="1.95" height="4.26"/>
		</g>
		<g>
		</g>
	</g>
	<g id="XMLID_298_">
		<g>
			<rect x="39.84" y="79.36" class="st8" width="5.16" height="3.61"/>
		</g>
		<g>
		</g>
	</g>
</g>
<g>
	<path class="st1" d="M54.95,65.65c0-0.1,0.03-0.19,0.1-0.25c0.07-0.07,0.15-0.1,0.26-0.1c0.11,0,0.2,0.03,0.26,0.1
		s0.1,0.15,0.1,0.26v0.07c0,0.1-0.03,0.19-0.1,0.25c-0.07,0.07-0.15,0.1-0.26,0.1c-0.11,0-0.2-0.03-0.26-0.1
		c-0.07-0.07-0.1-0.15-0.1-0.25V65.65z"/>
	<path class="st1" d="M57.41,65.88c-0.07,0.08-0.15,0.15-0.25,0.2c-0.1,0.05-0.2,0.08-0.31,0.08c-0.15,0-0.28-0.04-0.39-0.11
		c-0.11-0.07-0.2-0.18-0.26-0.31c-0.06-0.13-0.09-0.28-0.09-0.44c0-0.17,0.03-0.33,0.1-0.47s0.16-0.25,0.28-0.32
		c0.12-0.07,0.26-0.11,0.42-0.11c0.26,0,0.46,0.1,0.61,0.29s0.22,0.45,0.22,0.78v0.1c0,0.5-0.1,0.87-0.3,1.1
		c-0.2,0.23-0.5,0.35-0.9,0.36h-0.06v-0.28h0.07c0.27,0,0.48-0.08,0.63-0.21S57.39,66.18,57.41,65.88z M56.9,65.88
		c0.11,0,0.21-0.03,0.3-0.1s0.16-0.15,0.2-0.25V65.4c0-0.22-0.05-0.39-0.14-0.53c-0.09-0.13-0.21-0.2-0.36-0.2
		c-0.14,0-0.26,0.05-0.35,0.17c-0.09,0.11-0.13,0.26-0.13,0.44c0,0.18,0.04,0.32,0.13,0.44C56.64,65.82,56.76,65.88,56.9,65.88z"/>
</g>
<g>
	<path class="st1" d="M33.36,65.65c0-0.1,0.03-0.19,0.1-0.25c0.07-0.07,0.15-0.1,0.26-0.1c0.11,0,0.2,0.03,0.26,0.1
		s0.1,0.15,0.1,0.26v0.07c0,0.1-0.03,0.19-0.1,0.25c-0.07,0.07-0.15,0.1-0.26,0.1c-0.11,0-0.2-0.03-0.26-0.1
		c-0.07-0.07-0.1-0.15-0.1-0.25V65.65z"/>
	<path class="st1" d="M35.85,64.43v0.28h-0.06c-0.26,0-0.46,0.08-0.61,0.23c-0.15,0.15-0.24,0.35-0.26,0.62
		c0.14-0.16,0.32-0.23,0.56-0.23c0.22,0,0.41,0.08,0.54,0.24c0.13,0.16,0.2,0.36,0.2,0.61c0,0.27-0.07,0.48-0.22,0.64
		c-0.15,0.16-0.34,0.24-0.58,0.24c-0.25,0-0.45-0.09-0.6-0.29c-0.15-0.19-0.23-0.43-0.23-0.73v-0.13c0-0.48,0.1-0.84,0.3-1.09
		c0.2-0.25,0.51-0.38,0.91-0.39H35.85z M35.42,65.59c-0.11,0-0.22,0.03-0.31,0.1s-0.16,0.15-0.2,0.25v0.12
		c0,0.21,0.05,0.38,0.14,0.52c0.1,0.13,0.22,0.2,0.36,0.2c0.15,0,0.26-0.05,0.35-0.16c0.08-0.11,0.13-0.25,0.13-0.43
		c0-0.18-0.04-0.32-0.13-0.43C35.67,65.65,35.56,65.59,35.42,65.59z"/>
</g>
<g>
	<path class="st1" d="M25.94,65.65c0-0.1,0.03-0.19,0.1-0.25c0.07-0.07,0.15-0.1,0.26-0.1c0.11,0,0.2,0.03,0.26,0.1
		s0.1,0.15,0.1,0.26v0.07c0,0.1-0.03,0.19-0.1,0.25c-0.07,0.07-0.15,0.1-0.26,0.1c-0.11,0-0.2-0.03-0.26-0.1
		c-0.07-0.07-0.1-0.15-0.1-0.25V65.65z"/>
	<path class="st1" d="M27.29,65.72l0.13-1.29h1.33v0.3H27.7l-0.08,0.71c0.13-0.08,0.27-0.11,0.43-0.11c0.24,0,0.42,0.08,0.56,0.23
		c0.14,0.16,0.21,0.37,0.21,0.63c0,0.27-0.07,0.48-0.22,0.63c-0.14,0.15-0.35,0.23-0.6,0.23c-0.23,0-0.42-0.06-0.56-0.19
		s-0.23-0.3-0.25-0.53h0.31c0.02,0.15,0.07,0.26,0.16,0.33c0.08,0.08,0.2,0.11,0.34,0.11c0.15,0,0.27-0.05,0.36-0.16
		c0.09-0.1,0.13-0.25,0.13-0.43c0-0.17-0.05-0.31-0.14-0.42c-0.09-0.1-0.22-0.16-0.38-0.16c-0.14,0-0.26,0.03-0.34,0.09l-0.09,0.07
		L27.29,65.72z"/>
</g>
<g>
	<path class="st1" d="M11.68,65.65c0-0.1,0.03-0.19,0.1-0.25c0.07-0.07,0.15-0.1,0.26-0.1c0.11,0,0.2,0.03,0.26,0.1
		s0.1,0.15,0.1,0.26v0.07c0,0.1-0.03,0.19-0.1,0.25c-0.07,0.07-0.15,0.1-0.26,0.1c-0.11,0-0.2-0.03-0.26-0.1
		c-0.07-0.07-0.1-0.15-0.1-0.25V65.65z"/>
	<path class="st1" d="M13.36,65.56h0.25c0.16,0,0.28-0.04,0.37-0.12c0.09-0.08,0.13-0.19,0.13-0.32c0-0.3-0.15-0.46-0.45-0.46
		c-0.14,0-0.26,0.04-0.34,0.12c-0.08,0.08-0.13,0.19-0.13,0.32h-0.33c0-0.21,0.07-0.38,0.22-0.51s0.34-0.2,0.57-0.2
		c0.24,0,0.44,0.07,0.57,0.19s0.21,0.31,0.21,0.54c0,0.11-0.04,0.22-0.11,0.33c-0.07,0.11-0.17,0.18-0.3,0.24
		c0.14,0.04,0.25,0.12,0.33,0.22c0.08,0.1,0.12,0.23,0.12,0.38c0,0.23-0.08,0.42-0.23,0.55c-0.15,0.14-0.35,0.2-0.59,0.2
		s-0.44-0.07-0.59-0.2c-0.15-0.13-0.23-0.3-0.23-0.52h0.33c0,0.14,0.04,0.25,0.13,0.33s0.21,0.12,0.36,0.12
		c0.16,0,0.28-0.04,0.36-0.12s0.13-0.2,0.13-0.36c0-0.15-0.05-0.27-0.14-0.35c-0.09-0.08-0.23-0.12-0.4-0.12h-0.25V65.56z"/>
</g>
<g>
	<path class="st1" d="M50.55,65.1c0,0.13-0.03,0.24-0.1,0.35c-0.07,0.1-0.16,0.18-0.28,0.24c0.13,0.06,0.24,0.14,0.32,0.25
		c0.08,0.11,0.12,0.24,0.12,0.38c0,0.22-0.08,0.4-0.23,0.54c-0.15,0.13-0.35,0.2-0.6,0.2c-0.25,0-0.45-0.07-0.6-0.2
		c-0.15-0.13-0.22-0.31-0.22-0.53c0-0.14,0.04-0.27,0.11-0.38c0.08-0.11,0.18-0.2,0.32-0.26c-0.12-0.06-0.21-0.14-0.27-0.24
		s-0.1-0.21-0.1-0.34c0-0.22,0.07-0.39,0.21-0.52c0.14-0.13,0.32-0.19,0.55-0.19c0.23,0,0.41,0.06,0.55,0.19S50.55,64.89,50.55,65.1
		z M50.28,66.31c0-0.14-0.05-0.26-0.14-0.35c-0.09-0.09-0.21-0.14-0.36-0.14s-0.27,0.04-0.36,0.13c-0.09,0.09-0.13,0.21-0.13,0.36
		c0,0.15,0.04,0.26,0.13,0.35c0.09,0.08,0.21,0.13,0.36,0.13c0.15,0,0.27-0.04,0.36-0.13C50.24,66.57,50.28,66.46,50.28,66.31z
		 M49.79,64.66c-0.13,0-0.23,0.04-0.31,0.12s-0.12,0.19-0.12,0.33c0,0.13,0.04,0.24,0.12,0.32c0.08,0.08,0.18,0.12,0.32,0.12
		c0.13,0,0.24-0.04,0.32-0.12c0.08-0.08,0.12-0.19,0.12-0.32s-0.04-0.24-0.12-0.32C50.02,64.71,49.91,64.66,49.79,64.66z"/>
</g>
<g>
	<path class="st1" d="M43.46,64.61l-1.07,2.4h-0.34l1.07-2.32h-1.4v-0.27h1.75V64.61z"/>
</g>
<g>
	<path class="st1" d="M21.47,66.15h0.36v0.27h-0.36v0.6h-0.33v-0.6h-1.18v-0.19l1.16-1.79h0.35V66.15z M20.33,66.15h0.8v-1.27
		l-0.04,0.07L20.33,66.15z"/>
</g>
<g>
	<path class="st1" d="M22.53,82.01c0,0.25-0.04,0.48-0.13,0.66c-0.08,0.19-0.21,0.33-0.36,0.43c-0.16,0.1-0.34,0.15-0.55,0.15
		c-0.2,0-0.38-0.05-0.54-0.15c-0.16-0.1-0.28-0.24-0.37-0.43s-0.13-0.4-0.13-0.64v-0.19c0-0.25,0.04-0.47,0.13-0.66
		c0.09-0.19,0.21-0.34,0.37-0.44s0.34-0.15,0.54-0.15c0.21,0,0.39,0.05,0.55,0.15c0.16,0.1,0.28,0.25,0.37,0.44
		c0.09,0.19,0.13,0.41,0.13,0.66V82.01z M22.19,81.85c0-0.31-0.06-0.54-0.19-0.71s-0.3-0.25-0.52-0.25c-0.22,0-0.39,0.08-0.51,0.25
		s-0.19,0.39-0.19,0.68v0.19c0,0.3,0.06,0.53,0.19,0.7c0.12,0.17,0.3,0.25,0.52,0.25c0.22,0,0.39-0.08,0.51-0.24
		c0.12-0.16,0.18-0.39,0.19-0.69V81.85z"/>
	<path class="st1" d="M25.03,83.22h-0.34l-1.3-1.99v1.99h-0.34v-2.59h0.34l1.31,2v-2h0.34V83.22z"/>
</g>
<g>
	<path class="st1" d="M58.8,82.94h1.23v0.28h-1.57v-2.59h0.34V82.94z"/>
	<path class="st1" d="M63.22,83.22h-0.33v-2.19l-0.66,0.24v-0.3l0.94-0.35h0.05V83.22z"/>
	<path class="st1" d="M64.66,81.77h0.25c0.16,0,0.28-0.04,0.37-0.12c0.09-0.08,0.13-0.19,0.13-0.32c0-0.3-0.15-0.46-0.45-0.46
		c-0.14,0-0.26,0.04-0.34,0.12c-0.08,0.08-0.13,0.19-0.13,0.32h-0.33c0-0.21,0.07-0.38,0.22-0.51s0.34-0.2,0.57-0.2
		c0.24,0,0.44,0.07,0.57,0.19s0.21,0.31,0.21,0.54c0,0.11-0.04,0.22-0.11,0.33c-0.07,0.11-0.17,0.18-0.3,0.24
		c0.14,0.04,0.25,0.12,0.33,0.22c0.08,0.1,0.12,0.23,0.12,0.38c0,0.23-0.08,0.42-0.23,0.55c-0.15,0.14-0.35,0.2-0.59,0.2
		s-0.44-0.07-0.59-0.2c-0.15-0.13-0.23-0.3-0.23-0.52h0.33c0,0.14,0.04,0.25,0.13,0.33s0.21,0.12,0.36,0.12
		c0.16,0,0.28-0.04,0.36-0.12s0.13-0.2,0.13-0.36c0-0.15-0.05-0.27-0.14-0.35c-0.09-0.08-0.23-0.12-0.4-0.12h-0.25V81.77z"/>
</g>
<g>
	<path class="st1" d="M7.55,67.02h-1.7v-0.24l0.9-1c0.13-0.15,0.22-0.27,0.27-0.37c0.05-0.09,0.08-0.19,0.08-0.29
		c0-0.13-0.04-0.25-0.12-0.33c-0.08-0.09-0.19-0.13-0.33-0.13c-0.16,0-0.29,0.05-0.38,0.14s-0.14,0.22-0.14,0.39H5.8
		c0-0.24,0.08-0.43,0.23-0.58c0.15-0.15,0.36-0.22,0.62-0.22c0.24,0,0.43,0.06,0.57,0.19s0.21,0.29,0.21,0.5
		c0,0.25-0.16,0.56-0.49,0.91l-0.69,0.75h1.3V67.02z"/>
</g>
<g>
	<g id="XMLID_114_">
		<g>
			<rect x="58.69" y="70.05" class="st9" width="1.72" height="4.26"/>
		</g>
		<g>
		</g>
	</g>
	<g id="XMLID_113_">
		<g>
			<rect x="64.1" y="70.01" class="st9" width="1.72" height="4.26"/>
		</g>
		<g>
		</g>
	</g>
	<g id="XMLID_112_">
		<g>
			<rect x="59.7" y="70.36" class="st10" width="5.16" height="3.61"/>
		</g>
		<g>
		</g>
	</g>
	<g>
		<path class="st11" d="M61.35,72.71h-0.7v-0.13h0.27v-0.86h-0.27V71.6c0.04,0,0.08,0,0.12-0.01s0.07-0.01,0.09-0.03
			c0.03-0.01,0.05-0.03,0.06-0.05c0.02-0.02,0.03-0.05,0.03-0.09h0.13v1.16h0.26V72.71z"/>
		<path class="st11" d="M62.37,72.06c0,0.23-0.04,0.4-0.11,0.51c-0.07,0.11-0.19,0.16-0.34,0.16c-0.15,0-0.27-0.05-0.34-0.16
			c-0.07-0.11-0.11-0.28-0.11-0.5c0-0.23,0.04-0.4,0.11-0.51c0.07-0.11,0.18-0.16,0.34-0.16c0.15,0,0.27,0.06,0.34,0.17
			C62.33,71.67,62.37,71.84,62.37,72.06z M62.14,72.46c0.02-0.05,0.03-0.1,0.04-0.17c0.01-0.06,0.01-0.14,0.01-0.23
			c0-0.09,0-0.16-0.01-0.23c-0.01-0.06-0.02-0.12-0.04-0.16c-0.02-0.04-0.05-0.08-0.08-0.1s-0.08-0.03-0.13-0.03
			c-0.05,0-0.1,0.01-0.13,0.03c-0.04,0.02-0.06,0.06-0.08,0.1c-0.02,0.04-0.03,0.1-0.04,0.17c-0.01,0.07-0.01,0.14-0.01,0.23
			c0,0.09,0,0.17,0.01,0.23s0.02,0.11,0.04,0.16c0.02,0.04,0.05,0.08,0.08,0.1c0.04,0.02,0.08,0.04,0.14,0.04
			c0.05,0,0.1-0.01,0.13-0.03C62.09,72.54,62.12,72.5,62.14,72.46z"/>
		<path class="st11" d="M63.31,72.06c0,0.23-0.04,0.4-0.11,0.51c-0.07,0.11-0.18,0.16-0.34,0.16c-0.15,0-0.27-0.05-0.34-0.16
			c-0.07-0.11-0.11-0.28-0.11-0.5c0-0.23,0.04-0.4,0.11-0.51c0.07-0.11,0.18-0.16,0.34-0.16c0.15,0,0.27,0.06,0.34,0.17
			C63.28,71.67,63.31,71.84,63.31,72.06z M63.09,72.46c0.02-0.05,0.04-0.1,0.04-0.17c0.01-0.06,0.01-0.14,0.01-0.23
			c0-0.09,0-0.16-0.01-0.23c-0.01-0.06-0.02-0.12-0.04-0.16c-0.02-0.04-0.05-0.08-0.08-0.1c-0.03-0.02-0.08-0.03-0.13-0.03
			s-0.1,0.01-0.13,0.03s-0.06,0.06-0.08,0.1c-0.02,0.04-0.03,0.1-0.04,0.17c-0.01,0.07-0.01,0.14-0.01,0.23c0,0.09,0,0.17,0.01,0.23
			s0.02,0.11,0.04,0.16c0.02,0.04,0.05,0.08,0.08,0.1c0.03,0.02,0.08,0.04,0.14,0.04c0.05,0,0.1-0.01,0.13-0.03
			C63.04,72.54,63.07,72.5,63.09,72.46z"/>
		<path class="st11" d="M64.19,72.71h-0.7v-0.13h0.27v-0.86h-0.27V71.6c0.04,0,0.08,0,0.12-0.01c0.04-0.01,0.07-0.01,0.09-0.03
			c0.03-0.01,0.05-0.03,0.06-0.05c0.02-0.02,0.02-0.05,0.03-0.09h0.13v1.16h0.26V72.71z"/>
	</g>
</g>
<g>
	<g id="XMLID_222_">
		<g>
			<rect x="19.26" y="70.05" class="st9" width="1.72" height="4.26"/>
		</g>
		<g>
		</g>
	</g>
	<g id="XMLID_221_">
		<g>
			<rect x="24.67" y="70.01" class="st9" width="1.72" height="4.26"/>
		</g>
		<g>
		</g>
	</g>
	<g id="XMLID_220_">
		<g>
			<rect x="20.27" y="70.36" class="st10" width="5.16" height="3.61"/>
		</g>
		<g>
		</g>
	</g>
	<g>
		<path class="st11" d="M21.91,72.71h-0.7v-0.13h0.27v-0.86h-0.27V71.6c0.04,0,0.08,0,0.12-0.01s0.07-0.01,0.09-0.03
			c0.03-0.01,0.05-0.03,0.06-0.05c0.02-0.02,0.02-0.05,0.03-0.09h0.13v1.16h0.26V72.71z"/>
		<path class="st11" d="M22.93,72.06c0,0.23-0.04,0.4-0.11,0.51c-0.07,0.11-0.18,0.16-0.34,0.16c-0.15,0-0.27-0.05-0.34-0.16
			c-0.07-0.11-0.11-0.28-0.11-0.5c0-0.23,0.04-0.4,0.11-0.51c0.07-0.11,0.18-0.16,0.34-0.16c0.15,0,0.27,0.06,0.34,0.17
			C22.9,71.67,22.93,71.84,22.93,72.06z M22.71,72.46c0.02-0.05,0.03-0.1,0.04-0.17c0.01-0.06,0.01-0.14,0.01-0.23
			c0-0.09,0-0.16-0.01-0.23c-0.01-0.06-0.02-0.12-0.04-0.16c-0.02-0.04-0.05-0.08-0.08-0.1c-0.03-0.02-0.08-0.03-0.13-0.03
			c-0.05,0-0.1,0.01-0.13,0.03c-0.04,0.02-0.06,0.06-0.08,0.1c-0.02,0.04-0.03,0.1-0.04,0.17c-0.01,0.07-0.01,0.14-0.01,0.23
			c0,0.09,0,0.17,0.01,0.23s0.02,0.11,0.04,0.16c0.02,0.04,0.05,0.08,0.08,0.1c0.03,0.02,0.08,0.04,0.14,0.04
			c0.05,0,0.1-0.01,0.13-0.03S22.69,72.5,22.71,72.46z"/>
		<path class="st11" d="M23.88,72.06c0,0.23-0.04,0.4-0.11,0.51c-0.07,0.11-0.18,0.16-0.34,0.16c-0.15,0-0.27-0.05-0.34-0.16
			c-0.07-0.11-0.11-0.28-0.11-0.5c0-0.23,0.04-0.4,0.11-0.51c0.07-0.11,0.18-0.16,0.34-0.16c0.15,0,0.27,0.06,0.34,0.17
			C23.85,71.67,23.88,71.84,23.88,72.06z M23.65,72.46c0.02-0.05,0.03-0.1,0.04-0.17c0.01-0.06,0.01-0.14,0.01-0.23
			c0-0.09,0-0.16-0.01-0.23c-0.01-0.06-0.02-0.12-0.04-0.16c-0.02-0.04-0.05-0.08-0.08-0.1c-0.03-0.02-0.08-0.03-0.13-0.03
			c-0.05,0-0.1,0.01-0.13,0.03c-0.04,0.02-0.06,0.06-0.08,0.1c-0.02,0.04-0.03,0.1-0.04,0.17c-0.01,0.07-0.01,0.14-0.01,0.23
			c0,0.09,0,0.17,0.01,0.23s0.02,0.11,0.04,0.16c0.02,0.04,0.05,0.08,0.08,0.1c0.03,0.02,0.08,0.04,0.14,0.04
			c0.05,0,0.1-0.01,0.13-0.03S23.63,72.5,23.65,72.46z"/>
		<path class="st11" d="M24.76,72.71h-0.7v-0.13h0.27v-0.86h-0.27V71.6c0.04,0,0.08,0,0.12-0.01s0.07-0.01,0.09-0.03
			c0.03-0.01,0.05-0.03,0.06-0.05c0.02-0.02,0.02-0.05,0.03-0.09h0.13v1.16h0.26V72.71z"/>
	</g>
</g>
<g id="_x31_03_10_">
	<g id="XMLID_117_">
		<g>
			<rect x="18.83" y="1.19" class="st4" width="4.26" height="1.55"/>
		</g>
		<g>
		</g>
	</g>
	<g id="XMLID_116_">
		<g>
			<rect x="18.87" y="6.43" class="st4" width="4.26" height="1.72"/>
		</g>
		<g>
		</g>
	</g>
	<g id="XMLID_115_">
		<g>
			<rect x="19.17" y="2.04" class="st5" width="3.61" height="5.16"/>
		</g>
		<g>
		</g>
	</g>
	<g>
		<path class="st6" d="M21.64,5.71v0.7h-0.13V6.14h-0.86v0.27h-0.12c0-0.04,0-0.08-0.01-0.12S20.51,6.22,20.5,6.2
			c-0.01-0.03-0.03-0.05-0.05-0.06c-0.02-0.02-0.05-0.02-0.09-0.03V5.98h1.16V5.71H21.64z"/>
		<path class="st6" d="M21,4.69c0.23,0,0.4,0.04,0.51,0.11s0.16,0.18,0.16,0.34c0,0.15-0.05,0.27-0.16,0.34
			C21.4,5.55,21.23,5.58,21,5.58c-0.23,0-0.4-0.04-0.51-0.11c-0.11-0.07-0.16-0.18-0.16-0.34c0-0.15,0.06-0.27,0.17-0.34
			S20.78,4.69,21,4.69z M21.39,4.92c-0.05-0.02-0.1-0.03-0.16-0.04C21.16,4.87,21.09,4.87,21,4.87c-0.09,0-0.16,0-0.23,0.01
			c-0.06,0.01-0.12,0.02-0.16,0.04c-0.04,0.02-0.08,0.05-0.1,0.08c-0.02,0.03-0.03,0.08-0.03,0.13c0,0.05,0.01,0.1,0.03,0.13
			c0.02,0.04,0.06,0.06,0.1,0.08c0.04,0.02,0.1,0.03,0.17,0.04c0.07,0.01,0.14,0.01,0.23,0.01c0.09,0,0.17,0,0.23-0.01
			s0.11-0.02,0.16-0.04c0.04-0.02,0.08-0.05,0.1-0.08c0.02-0.03,0.04-0.08,0.04-0.14c0-0.05-0.01-0.1-0.03-0.13
			S21.44,4.94,21.39,4.92z"/>
		<path class="st6" d="M21,3.75c0.23,0,0.4,0.04,0.51,0.11s0.16,0.18,0.16,0.34c0,0.15-0.05,0.27-0.16,0.34
			C21.4,4.6,21.23,4.64,21,4.64c-0.23,0-0.4-0.04-0.51-0.11c-0.11-0.07-0.16-0.18-0.16-0.34c0-0.15,0.06-0.27,0.17-0.34
			S20.78,3.75,21,3.75z M21.39,3.97c-0.05-0.02-0.1-0.03-0.16-0.04C21.16,3.93,21.09,3.92,21,3.92c-0.09,0-0.16,0-0.23,0.01
			c-0.06,0.01-0.12,0.02-0.16,0.04c-0.04,0.02-0.08,0.05-0.1,0.08c-0.02,0.03-0.03,0.08-0.03,0.13c0,0.05,0.01,0.1,0.03,0.13
			c0.02,0.04,0.06,0.06,0.1,0.08c0.04,0.02,0.1,0.03,0.17,0.04c0.07,0.01,0.14,0.01,0.23,0.01c0.09,0,0.17,0,0.23-0.01
			s0.11-0.02,0.16-0.04c0.04-0.02,0.08-0.05,0.1-0.08c0.02-0.03,0.04-0.08,0.04-0.14c0-0.05-0.01-0.1-0.03-0.13
			S21.44,3.99,21.39,3.97z"/>
		<path class="st6" d="M21.64,2.8v0.87h-0.18c-0.05-0.06-0.1-0.12-0.16-0.18c-0.05-0.06-0.1-0.12-0.15-0.17
			c-0.11-0.11-0.19-0.19-0.26-0.23c-0.06-0.04-0.13-0.06-0.2-0.06c-0.07,0-0.12,0.02-0.16,0.07c-0.04,0.04-0.06,0.11-0.06,0.18
			c0,0.05,0.01,0.11,0.03,0.17s0.05,0.12,0.08,0.18v0.01h-0.18c-0.02-0.04-0.04-0.1-0.06-0.16c-0.02-0.07-0.03-0.13-0.03-0.2
			c0-0.13,0.03-0.24,0.1-0.31c0.06-0.07,0.15-0.11,0.26-0.11c0.05,0,0.09,0.01,0.14,0.02c0.04,0.01,0.08,0.03,0.12,0.06
			c0.04,0.02,0.07,0.05,0.11,0.08c0.03,0.03,0.07,0.07,0.11,0.11c0.06,0.06,0.12,0.13,0.18,0.19c0.06,0.07,0.11,0.13,0.16,0.18V2.8
			H21.64z"/>
	</g>
</g>
<g id="Светодиод_1_">
	
		<rect x="17.99" y="76.02" transform="matrix(-1 -1.224647e-16 1.224647e-16 -1 36.3182 155.1496)" class="st1" width="0.34" height="3.11"/>
	<g>
		<g id="XMLID_119_">
			<g>
				<rect x="18.67" y="75.45" class="st4" width="2.26" height="4.26"/>
			</g>
			<g>
			</g>
		</g>
		<g id="XMLID_118_">
			<g>
				<rect x="24.62" y="75.45" class="st4" width="2.6" height="4.26"/>
			</g>
			<g>
			</g>
		</g>
		<circle class="st12" cx="22.83" cy="77.45" r="0.55"/>
	</g>
	<path class="st13" d="M25.45,77.57c0-0.29,0.14-0.6,0.43-0.69c0.06-0.02,0.06-1.43,0.06-1.43s-0.74,0-1.48,0v4.26
		c0.74,0,1.48,0,1.48,0s0-1.41-0.06-1.43C25.59,78.18,25.45,77.87,25.45,77.57"/>
	<path class="st13" d="M25.73,77.57c0-0.29,0.14-0.6,0.43-0.69c0.06-0.02,0.06-1.43,0.06-1.43s-0.74,0-1.48,0v4.26
		c0.74,0,1.48,0,1.48,0s0-1.41-0.06-1.43C25.87,78.18,25.73,77.87,25.73,77.57"/>
	<path class="st13" d="M19.94,77.57c0,0.29-0.14,0.6-0.43,0.69c-0.06,0.02-0.06,1.43-0.06,1.43s0.74,0,1.48,0v-4.26
		c-0.74,0-1.48,0-1.48,0s0,1.41,0.06,1.43C19.8,76.97,19.94,77.28,19.94,77.57"/>
	<path class="st13" d="M20.16,77.57c0-0.29-0.14-0.6-0.43-0.69c-0.06-0.02-0.06-1.43-0.06-1.43s0.74,0,1.48,0v4.26
		c-0.74,0-1.48,0-1.48,0s0-1.41,0.06-1.43C20.01,78.18,20.16,77.87,20.16,77.57"/>
	
		<rect x="21.14" y="75.45" transform="matrix(-1 -1.224647e-16 1.224647e-16 -1 45.6022 155.1496)" class="st14" width="3.32" height="4.26"/>
	
		<rect x="21.14" y="75.45" transform="matrix(-1 -1.224647e-16 1.224647e-16 -1 45.6022 155.1496)" class="st15" width="3.32" height="4.26"/>
</g>
<g id="Светодиод_2_">
	<rect x="66.71" y="75.99" class="st1" width="0.34" height="3.11"/>
	<g>
		<g id="XMLID_219_">
			<g>
				<rect x="64.12" y="75.42" class="st4" width="2.26" height="4.26"/>
			</g>
			<g>
			</g>
		</g>
		<g id="XMLID_218_">
			<g>
				<rect x="57.82" y="75.42" class="st4" width="2.6" height="4.26"/>
			</g>
			<g>
			</g>
		</g>
		<circle class="st12" cx="62.21" cy="77.67" r="0.55"/>
	</g>
	<path class="st13" d="M59.6,77.54c0,0.29-0.14,0.6-0.43,0.69c-0.06,0.02-0.06,1.43-0.06,1.43s0.74,0,1.48,0v-4.26
		c-0.74,0-1.48,0-1.48,0s0,1.41,0.06,1.43C59.45,76.94,59.6,77.25,59.6,77.54"/>
	<path class="st13" d="M59.31,77.54c0,0.29-0.14,0.6-0.43,0.69c-0.06,0.02-0.06,1.43-0.06,1.43s0.74,0,1.48,0v-4.26
		c-0.74,0-1.48,0-1.48,0s0,1.41,0.06,1.43C59.17,76.94,59.31,77.25,59.31,77.54"/>
	<path class="st13" d="M65.1,77.54c0-0.29,0.14-0.6,0.43-0.69c0.06-0.02,0.06-1.43,0.06-1.43s-0.74,0-1.48,0v4.26
		c0.74,0,1.48,0,1.48,0s0-1.41-0.06-1.43C65.25,78.15,65.1,77.84,65.1,77.54"/>
	<path class="st13" d="M64.89,77.54c0,0.29,0.14,0.6,0.43,0.69c0.06,0.02,0.06,1.43,0.06,1.43s-0.74,0-1.48,0v-4.26
		c0.74,0,1.48,0,1.48,0s0,1.41-0.06,1.43C65.03,76.94,64.88,77.25,64.89,77.54"/>
	<rect x="60.58" y="75.42" class="st14" width="3.32" height="4.26"/>
	<rect x="60.58" y="75.42" class="st15" width="3.32" height="4.26"/>
</g>
<g id="Кварц_2_">
	<g id="XMLID_120_">
		<g>
			<path class="st4" d="M43.86,13.01v2.97c0,0.29-0.23,0.52-0.52,0.52h-8.75c-0.28,0-0.52-0.23-0.52-0.52v-2.97
				c0-0.29,0.24-0.52,0.52-0.52h8.75C43.63,12.49,43.86,12.72,43.86,13.01z"/>
		</g>
		<g>
		</g>
	</g>
	<path class="st13" d="M43.22,16.13h-8.5c-0.16,0-0.28-0.13-0.28-0.28v-2.7c0-0.16,0.13-0.28,0.28-0.28h8.5
		c0.16,0,0.28,0.13,0.28,0.28v2.7C43.5,16,43.38,16.13,43.22,16.13z"/>
	<path class="st16" d="M42.86,15.85h-7.78c-0.2,0-0.36-0.16-0.36-0.36v-1.98c0-0.2,0.16-0.36,0.36-0.36h7.78
		c0.2,0,0.36,0.16,0.36,0.36v1.98C43.22,15.69,43.06,15.85,42.86,15.85z"/>
	<g>
		<path class="st6" d="M36.54,15.27h-0.79v-0.15h0.3v-0.97h-0.3v-0.13c0.04,0,0.08,0,0.13-0.01s0.08-0.02,0.11-0.03
			c0.03-0.02,0.05-0.04,0.07-0.06s0.03-0.06,0.03-0.1h0.15v1.31h0.3V15.27z"/>
		<path class="st6" d="M37.91,14.8c0,0.15-0.05,0.27-0.15,0.36s-0.22,0.14-0.36,0.14c-0.07,0-0.14-0.01-0.2-0.03
			s-0.11-0.06-0.16-0.1c-0.06-0.05-0.1-0.13-0.13-0.21s-0.05-0.2-0.05-0.32c0-0.13,0.01-0.24,0.04-0.34s0.07-0.19,0.13-0.27
			c0.06-0.07,0.13-0.13,0.22-0.17s0.2-0.06,0.32-0.06c0.04,0,0.07,0,0.1,0s0.05,0.01,0.08,0.02V14h-0.01
			c-0.02-0.01-0.05-0.02-0.08-0.03s-0.07-0.01-0.11-0.01c-0.14,0-0.25,0.04-0.33,0.13s-0.13,0.21-0.15,0.35
			c0.05-0.03,0.11-0.06,0.16-0.08s0.11-0.03,0.18-0.03c0.06,0,0.12,0.01,0.16,0.02s0.1,0.03,0.15,0.07c0.06,0.04,0.1,0.09,0.13,0.15
			S37.91,14.71,37.91,14.8z M37.71,14.81c0-0.06-0.01-0.11-0.03-0.15s-0.05-0.07-0.09-0.1c-0.03-0.02-0.06-0.03-0.1-0.04
			s-0.07-0.01-0.11-0.01c-0.06,0-0.11,0.01-0.15,0.02s-0.1,0.03-0.15,0.06c0,0.01,0,0.03,0,0.04s0,0.03,0,0.05
			c0,0.1,0.01,0.18,0.03,0.24s0.05,0.11,0.09,0.14c0.03,0.03,0.06,0.05,0.1,0.06s0.07,0.02,0.11,0.02c0.09,0,0.17-0.03,0.22-0.09
			S37.71,14.91,37.71,14.81z"/>
		<path class="st6" d="M38.5,15.27h-0.23v-0.28h0.23V15.27z"/>
		<path class="st6" d="M39.89,14.54c0,0.26-0.04,0.45-0.12,0.57s-0.21,0.18-0.38,0.18c-0.17,0-0.3-0.06-0.38-0.19
			s-0.12-0.31-0.12-0.57c0-0.26,0.04-0.45,0.12-0.57s0.21-0.19,0.38-0.19c0.17,0,0.3,0.06,0.38,0.19S39.89,14.29,39.89,14.54z
			 M39.63,14.98c0.02-0.05,0.04-0.11,0.05-0.19s0.01-0.16,0.01-0.26c0-0.1,0-0.19-0.01-0.26s-0.02-0.13-0.05-0.19
			c-0.02-0.05-0.05-0.09-0.09-0.11s-0.09-0.04-0.15-0.04c-0.06,0-0.11,0.01-0.15,0.04s-0.07,0.06-0.1,0.12
			c-0.02,0.05-0.04,0.11-0.05,0.19s-0.01,0.16-0.01,0.25c0,0.1,0,0.19,0.01,0.25s0.02,0.13,0.05,0.18c0.02,0.05,0.05,0.09,0.09,0.12
			s0.09,0.04,0.16,0.04c0.06,0,0.11-0.01,0.15-0.04S39.61,15.04,39.63,14.98z"/>
		<path class="st6" d="M41.16,14.54c0,0.26-0.04,0.45-0.12,0.57s-0.21,0.18-0.38,0.18c-0.17,0-0.3-0.06-0.38-0.19
			s-0.12-0.31-0.12-0.57c0-0.26,0.04-0.45,0.12-0.57s0.21-0.19,0.38-0.19c0.17,0,0.3,0.06,0.38,0.19S41.16,14.29,41.16,14.54z
			 M40.9,14.98c0.02-0.05,0.04-0.11,0.05-0.19s0.01-0.16,0.01-0.26c0-0.1,0-0.19-0.01-0.26s-0.02-0.13-0.05-0.19
			c-0.02-0.05-0.05-0.09-0.09-0.11s-0.09-0.04-0.15-0.04c-0.06,0-0.11,0.01-0.15,0.04s-0.07,0.06-0.1,0.12
			c-0.02,0.05-0.04,0.11-0.05,0.19s-0.01,0.16-0.01,0.25c0,0.1,0,0.19,0.01,0.25s0.02,0.13,0.05,0.18c0.02,0.05,0.05,0.09,0.09,0.12
			s0.09,0.04,0.16,0.04c0.06,0,0.11-0.01,0.15-0.04S40.88,15.04,40.9,14.98z"/>
		<path class="st6" d="M42.43,14.54c0,0.26-0.04,0.45-0.12,0.57s-0.21,0.18-0.38,0.18c-0.17,0-0.3-0.06-0.38-0.19
			s-0.12-0.31-0.12-0.57c0-0.26,0.04-0.45,0.12-0.57s0.21-0.19,0.38-0.19c0.17,0,0.3,0.06,0.38,0.19S42.43,14.29,42.43,14.54z
			 M42.17,14.98c0.02-0.05,0.04-0.11,0.05-0.19s0.01-0.16,0.01-0.26c0-0.1,0-0.19-0.01-0.26s-0.02-0.13-0.05-0.19
			c-0.02-0.05-0.05-0.09-0.09-0.11s-0.09-0.04-0.15-0.04c-0.06,0-0.11,0.01-0.15,0.04s-0.07,0.06-0.1,0.12
			c-0.02,0.05-0.04,0.11-0.05,0.19s-0.01,0.16-0.01,0.25c0,0.1,0,0.19,0.01,0.25s0.02,0.13,0.05,0.18c0.02,0.05,0.05,0.09,0.09,0.12
			s0.09,0.04,0.16,0.04c0.06,0,0.11-0.01,0.15-0.04S42.15,15.04,42.17,14.98z"/>
	</g>
</g>
<g id="кнопка">
	
		<rect x="78.23" y="16.06" transform="matrix(6.123234e-17 -1 1 6.123234e-17 57.7863 99.2575)" class="st17" width="0.59" height="9.35"/>
	
		<rect x="78.23" y="27.8" transform="matrix(-1.836970e-16 1 -1 -1.836970e-16 110.9977 -46.046)" class="st17" width="0.59" height="9.35"/>
	<g id="XMLID_124_">
		<g>
			<rect x="74.58" y="18.19" class="st18" width="1.88" height="2.25"/>
		</g>
		<g>
		</g>
	</g>
	<g id="XMLID_123_">
		<g>
			<rect x="74.59" y="32.77" class="st18" width="1.88" height="2.25"/>
		</g>
		<g>
		</g>
	</g>
	<path class="st18" d="M82.89,32.5h-8.73c-0.17,0-0.31-0.13-0.31-0.3V21c0-0.16,0.14-0.3,0.31-0.3h8.73c0.17,0,0.31,0.13,0.31,0.3
		v11.2C83.2,32.37,83.06,32.5,82.89,32.5z"/>
	<path class="st19" d="M74.63,31.51v-9.8c0-0.25,0.22-0.46,0.48-0.46h6.83c0.27,0,0.48,0.2,0.48,0.46v9.8
		c0,0.25-0.22,0.46-0.48,0.46h-6.83C74.84,31.96,74.63,31.76,74.63,31.51z"/>
	<path class="st20" d="M75.4,29.07v-4.93c0-0.99,0.8-1.79,1.79-1.79h2.66c0.99,0,1.79,0.8,1.79,1.79v4.93c0,0.99-0.8,1.79-1.79,1.79
		h-2.66C76.2,30.86,75.4,30.06,75.4,29.07z"/>
	<polygon class="st18" points="74.59,32.77 74.46,32.5 76.59,32.5 76.47,32.77 	"/>
	<polygon class="st18" points="76.46,20.44 76.59,20.71 74.46,20.71 74.58,20.44 	"/>
	<g id="XMLID_122_">
		<g>
			<rect x="80.63" y="18.19" class="st18" width="1.88" height="2.25"/>
		</g>
		<g>
		</g>
	</g>
	<g id="XMLID_121_">
		<g>
			<rect x="80.63" y="32.77" class="st18" width="1.88" height="2.25"/>
		</g>
		<g>
		</g>
	</g>
	<polygon class="st18" points="80.63,32.77 80.51,32.5 82.63,32.5 82.51,32.77 	"/>
	<polygon class="st18" points="82.51,20.44 82.64,20.71 80.51,20.71 80.63,20.44 	"/>
</g>
<g id="чип">
	<g id="XMLID_137_">
		<g>
			
				<rect x="64.87" y="32.49" transform="matrix(0.7071 -0.7071 0.7071 0.7071 -4.6631 56.4945)" class="st4" width="1.99" height="2.77"/>
		</g>
		<g>
		</g>
	</g>
	<line class="st21" x1="66.67" y1="34.73" x2="64.7" y2="32.76"/>
	<g id="XMLID_136_">
		<g>
			
				<rect x="63.29" y="34.08" transform="matrix(0.7071 -0.7071 0.7071 0.7071 -6.2723 55.8552)" class="st4" width="1.99" height="2.83"/>
		</g>
		<g>
		</g>
	</g>
	<line class="st21" x1="65.07" y1="36.33" x2="63.1" y2="34.36"/>
	<g id="XMLID_134_">
		<g>
			
				<rect x="66.47" y="30.89" transform="matrix(0.7071 -0.7071 0.7071 0.7071 -3.0636 57.157)" class="st4" width="1.99" height="2.77"/>
		</g>
		<g>
		</g>
	</g>
	<line class="st21" x1="68.27" y1="33.13" x2="66.3" y2="31.16"/>
	<line class="st21" x1="66.67" y1="34.73" x2="64.7" y2="32.76"/>
	<line class="st21" x1="68.27" y1="33.13" x2="66.3" y2="31.16"/>
	<g id="XMLID_138_">
		<g>
			
				<rect x="69.67" y="27.69" transform="matrix(0.7071 -0.7071 0.7071 0.7071 0.1354 58.4821)" class="st4" width="1.99" height="2.77"/>
		</g>
		<g>
		</g>
	</g>
	<line class="st21" x1="71.47" y1="29.93" x2="69.5" y2="27.96"/>
	<g id="XMLID_135_">
		<g>
			
				<rect x="68.07" y="29.29" transform="matrix(0.7071 -0.7071 0.7071 0.7071 -1.4641 57.8196)" class="st4" width="1.99" height="2.77"/>
		</g>
		<g>
		</g>
	</g>
	<line class="st21" x1="69.87" y1="31.53" x2="67.9" y2="29.56"/>
	<g id="XMLID_142_">
		<g>
			
				<rect x="58.47" y="38.89" transform="matrix(0.7071 -0.7071 0.7071 0.7071 -11.0612 53.8443)" class="st4" width="1.99" height="2.77"/>
		</g>
		<g>
		</g>
	</g>
	<line class="st21" x1="60.27" y1="41.12" x2="58.3" y2="39.15"/>
	<g id="XMLID_140_">
		<g>
			
				<rect x="60.07" y="37.29" transform="matrix(0.7071 -0.7071 0.7071 0.7071 -9.4617 54.5069)" class="st4" width="1.99" height="2.77"/>
		</g>
		<g>
		</g>
	</g>
	<line class="st21" x1="61.87" y1="39.53" x2="59.9" y2="37.55"/>
	<line class="st21" x1="60.27" y1="41.12" x2="58.3" y2="39.15"/>
	<line class="st21" x1="61.87" y1="39.53" x2="59.9" y2="37.55"/>
	<g id="XMLID_133_">
		<g>
			
				<rect x="61.67" y="35.69" transform="matrix(0.7071 -0.7071 0.7071 0.7071 -7.8622 55.1694)" class="st4" width="1.99" height="2.77"/>
		</g>
		<g>
		</g>
	</g>
	<line class="st21" x1="63.47" y1="37.93" x2="61.5" y2="35.96"/>
	<g id="XMLID_148_">
		<g>
			
				<rect x="47.26" y="18.1" transform="matrix(0.7071 -0.7071 0.7071 0.7071 0.3671 39.8269)" class="st4" width="1.99" height="2.75"/>
		</g>
		<g>
		</g>
	</g>
	<line class="st21" x1="47.44" y1="18.61" x2="49.41" y2="20.58"/>
	<g id="XMLID_147_">
		<g>
			
				<rect x="48.86" y="16.5" transform="matrix(0.7071 -0.7071 0.7071 0.7071 1.9666 40.4894)" class="st4" width="1.99" height="2.75"/>
		</g>
		<g>
		</g>
	</g>
	<line class="st21" x1="49.04" y1="17.01" x2="51.01" y2="18.98"/>
	<g id="XMLID_146_">
		<g>
			
				<rect x="45.66" y="19.7" transform="matrix(0.7071 -0.7071 0.7071 0.7071 -1.2324 39.1643)" class="st4" width="1.99" height="2.75"/>
		</g>
		<g>
		</g>
	</g>
	<line class="st21" x1="45.84" y1="20.21" x2="47.81" y2="22.18"/>
	<line class="st21" x1="47.44" y1="18.61" x2="49.41" y2="20.58"/>
	<line class="st21" x1="45.84" y1="20.21" x2="47.81" y2="22.18"/>
	<g id="XMLID_145_">
		<g>
			
				<rect x="42.46" y="22.9" transform="matrix(0.7071 -0.7071 0.7071 0.7071 -4.4314 37.8393)" class="st4" width="1.99" height="2.75"/>
		</g>
		<g>
		</g>
	</g>
	<line class="st21" x1="42.65" y1="23.41" x2="44.62" y2="25.38"/>
	<g id="XMLID_144_">
		<g>
			
				<rect x="44.06" y="21.3" transform="matrix(0.7071 -0.7071 0.7071 0.7071 -2.8319 38.5018)" class="st4" width="1.99" height="2.75"/>
		</g>
		<g>
		</g>
	</g>
	<line class="st21" x1="44.24" y1="21.81" x2="46.22" y2="23.78"/>
	<g id="XMLID_143_">
		<g>
			
				<rect x="53.66" y="11.7" transform="matrix(0.7071 -0.7071 0.7071 0.7071 6.7651 42.477)" class="st4" width="1.99" height="2.75"/>
		</g>
		<g>
		</g>
	</g>
	<line class="st21" x1="53.84" y1="12.22" x2="55.81" y2="14.19"/>
	<g id="XMLID_141_">
		<g>
			
				<rect x="52.06" y="13.3" transform="matrix(0.7071 -0.7071 0.7071 0.7071 5.1656 41.8145)" class="st4" width="1.99" height="2.75"/>
		</g>
		<g>
		</g>
	</g>
	<line class="st21" x1="52.24" y1="13.81" x2="54.21" y2="15.79"/>
	<line class="st21" x1="53.84" y1="12.22" x2="55.81" y2="14.19"/>
	<line class="st21" x1="52.24" y1="13.81" x2="54.21" y2="15.79"/>
	<g id="XMLID_139_">
		<g>
			
				<rect x="50.46" y="14.9" transform="matrix(0.7071 -0.7071 0.7071 0.7071 3.5661 41.1519)" class="st4" width="1.99" height="2.75"/>
		</g>
		<g>
		</g>
	</g>
	<line class="st21" x1="50.64" y1="15.41" x2="52.61" y2="17.38"/>
	<g id="XMLID_156_">
		<g>
			
				<rect x="62.87" y="16.84" transform="matrix(0.7071 -0.7071 0.7071 0.7071 6.2148 50.6836)" class="st4" width="2.83" height="1.99"/>
		</g>
		<g>
		</g>
	</g>
	<line class="st21" x1="65.11" y1="17.06" x2="63.14" y2="19.03"/>
	<g id="XMLID_155_">
		<g>
			
				<rect x="64.47" y="18.44" transform="matrix(0.7071 -0.7071 0.7071 0.7071 5.5523 52.2831)" class="st4" width="2.83" height="1.99"/>
		</g>
		<g>
		</g>
	</g>
	<line class="st21" x1="66.71" y1="18.66" x2="64.74" y2="20.63"/>
	<g id="XMLID_154_">
		<g>
			
				<rect x="61.27" y="15.24" transform="matrix(0.7071 -0.7071 0.7071 0.7071 6.8773 49.0841)" class="st4" width="2.83" height="1.99"/>
		</g>
		<g>
		</g>
	</g>
	<line class="st21" x1="63.52" y1="15.46" x2="61.55" y2="17.43"/>
	<line class="st21" x1="65.11" y1="17.06" x2="63.14" y2="19.03"/>
	<line class="st21" x1="63.52" y1="15.46" x2="61.55" y2="17.43"/>
	<g id="XMLID_153_">
		<g>
			
				<rect x="58.07" y="12.05" transform="matrix(0.7071 -0.7071 0.7071 0.7071 8.2024 45.8851)" class="st4" width="2.83" height="1.99"/>
		</g>
		<g>
		</g>
	</g>
	<line class="st21" x1="60.32" y1="12.26" x2="58.35" y2="14.23"/>
	<g id="XMLID_152_">
		<g>
			
				<rect x="59.67" y="13.64" transform="matrix(0.7071 -0.7071 0.7071 0.7071 7.5399 47.4846)" class="st4" width="2.83" height="1.99"/>
		</g>
		<g>
		</g>
	</g>
	<line class="st21" x1="61.92" y1="13.86" x2="59.95" y2="15.83"/>
	<g id="XMLID_151_">
		<g>
			
				<rect x="69.27" y="23.24" transform="matrix(0.7071 -0.7071 0.7071 0.7071 3.5647 57.0817)" class="st4" width="2.83" height="1.99"/>
		</g>
		<g>
		</g>
	</g>
	<line class="st21" x1="71.51" y1="23.45" x2="69.54" y2="25.42"/>
	<g id="XMLID_150_">
		<g>
			
				<rect x="67.67" y="21.64" transform="matrix(0.7071 -0.7071 0.7071 0.7071 4.2272 55.4822)" class="st4" width="2.83" height="1.99"/>
		</g>
		<g>
		</g>
	</g>
	<line class="st21" x1="69.91" y1="21.85" x2="67.94" y2="23.82"/>
	<line class="st21" x1="71.51" y1="23.45" x2="69.54" y2="25.42"/>
	<line class="st21" x1="69.91" y1="21.85" x2="67.94" y2="23.82"/>
	<g id="XMLID_149_">
		<g>
			
				<rect x="66.07" y="20.04" transform="matrix(0.7071 -0.7071 0.7071 0.7071 4.8897 53.8827)" class="st4" width="2.83" height="1.99"/>
		</g>
		<g>
		</g>
	</g>
	<line class="st21" x1="68.31" y1="20.25" x2="66.34" y2="22.23"/>
	<g id="XMLID_164_">
		<g>
			
				<rect x="48.51" y="34.54" transform="matrix(0.7071 -0.7071 0.7071 0.7071 -10.515 45.6957)" class="st4" width="2.79" height="1.99"/>
		</g>
		<g>
		</g>
	</g>
	<line class="st21" x1="49.06" y1="36.34" x2="51.03" y2="34.37"/>
	<g id="XMLID_163_">
		<g>
			
				<rect x="46.91" y="32.95" transform="matrix(0.7071 -0.7071 0.7071 0.7071 -9.8525 44.0962)" class="st4" width="2.79" height="1.99"/>
		</g>
		<g>
		</g>
	</g>
	<line class="st21" x1="47.46" y1="34.74" x2="49.43" y2="32.77"/>
	<g id="XMLID_162_">
		<g>
			
				<rect x="50.11" y="36.14" transform="matrix(0.7071 -0.7071 0.7071 0.7071 -11.1776 47.2952)" class="st4" width="2.79" height="1.99"/>
		</g>
		<g>
		</g>
	</g>
	<line class="st21" x1="50.66" y1="37.94" x2="52.63" y2="35.97"/>
	<line class="st21" x1="49.06" y1="36.34" x2="51.03" y2="34.37"/>
	<line class="st21" x1="50.66" y1="37.94" x2="52.63" y2="35.97"/>
	<g id="XMLID_161_">
		<g>
			
				<rect x="53.31" y="39.34" transform="matrix(0.7071 -0.7071 0.7071 0.7071 -12.5026 50.4942)" class="st4" width="2.79" height="1.99"/>
		</g>
		<g>
		</g>
	</g>
	<line class="st21" x1="53.86" y1="41.14" x2="55.83" y2="39.17"/>
	<g id="XMLID_160_">
		<g>
			
				<rect x="51.71" y="37.74" transform="matrix(0.7071 -0.7071 0.7071 0.7071 -11.8401 48.8947)" class="st4" width="2.79" height="1.99"/>
		</g>
		<g>
		</g>
	</g>
	<line class="st21" x1="52.26" y1="39.54" x2="54.23" y2="37.57"/>
	<g id="XMLID_127_">
		<g>
			
				<rect x="42.11" y="28.15" transform="matrix(0.7071 -0.7071 0.7071 0.7071 -7.8649 39.2976)" class="st4" width="2.79" height="1.99"/>
		</g>
		<g>
		</g>
	</g>
	<line class="st21" x1="42.66" y1="29.94" x2="44.63" y2="27.97"/>
	<g id="XMLID_126_">
		<g>
			
				<rect x="43.71" y="29.75" transform="matrix(0.7071 -0.7071 0.7071 0.7071 -8.5274 40.8971)" class="st4" width="2.79" height="1.99"/>
		</g>
		<g>
		</g>
	</g>
	<line class="st21" x1="44.26" y1="31.54" x2="46.23" y2="29.57"/>
	<line class="st21" x1="42.66" y1="29.94" x2="44.63" y2="27.97"/>
	<line class="st21" x1="44.26" y1="31.54" x2="46.23" y2="29.57"/>
	<g id="XMLID_125_">
		<g>
			
				<rect x="45.31" y="31.35" transform="matrix(0.7071 -0.7071 0.7071 0.7071 -9.1899 42.4967)" class="st4" width="2.79" height="1.99"/>
		</g>
		<g>
		</g>
	</g>
	<line class="st21" x1="45.86" y1="33.14" x2="47.83" y2="31.17"/>
	<path class="st22" d="M55.87,39.21L44.52,27.86c-0.66-0.66-0.66-1.72,0-2.38l11.35-11.35c0.66-0.66,1.72-0.66,2.38,0L69.6,25.48
		c0.66,0.66,0.66,1.72,0,2.38L58.25,39.21C57.59,39.87,56.52,39.87,55.87,39.21z"/>
	<g>
		<path class="st6" d="M50.73,31.16h-0.21l-0.14-0.41h-0.63l-0.14,0.41h-0.2l0.53-1.45h0.26L50.73,31.16z M50.33,30.59l-0.25-0.71
			l-0.26,0.71H50.33z"/>
		<path class="st6" d="M51.79,29.88h-0.52v1.28h-0.19v-1.28h-0.52V29.7h1.23V29.88z"/>
		<path class="st6" d="M53.08,31.16h-0.19V29.9l-0.4,0.85h-0.12l-0.4-0.85v1.25h-0.18V29.7h0.26l0.39,0.81l0.38-0.81h0.27V31.16z"/>
		<path class="st6" d="M54.23,31.16h-0.96V29.7h0.96v0.17h-0.76v0.4h0.76v0.17h-0.76v0.54h0.76V31.16z"/>
		<path class="st6" d="M55.55,31.05c-0.08,0.04-0.17,0.07-0.26,0.1s-0.19,0.04-0.27,0.04c-0.11,0-0.22-0.02-0.31-0.05
			s-0.17-0.08-0.24-0.14c-0.07-0.06-0.12-0.14-0.16-0.24s-0.05-0.21-0.05-0.33c0-0.23,0.07-0.42,0.2-0.55s0.32-0.2,0.56-0.2
			c0.08,0,0.17,0.01,0.25,0.03s0.18,0.05,0.28,0.1v0.23h-0.02c-0.02-0.02-0.05-0.04-0.09-0.06s-0.08-0.05-0.11-0.06
			c-0.04-0.02-0.1-0.04-0.15-0.05s-0.12-0.02-0.19-0.02c-0.16,0-0.29,0.05-0.39,0.16s-0.14,0.25-0.14,0.42
			c0,0.19,0.05,0.33,0.15,0.44s0.23,0.16,0.4,0.16c0.06,0,0.12-0.01,0.19-0.02s0.12-0.03,0.16-0.05V30.6h-0.39v-0.17h0.58V31.05z"/>
		<path class="st6" d="M56.83,31.16h-0.21l-0.14-0.41h-0.63l-0.14,0.41h-0.2l0.53-1.45h0.26L56.83,31.16z M56.43,30.59l-0.25-0.71
			l-0.26,0.71H56.43z"/>
		<path class="st6" d="M58.18,30.46c0.03,0.03,0.06,0.06,0.08,0.11c0.02,0.04,0.03,0.1,0.03,0.16c0,0.07-0.01,0.13-0.04,0.18
			c-0.02,0.06-0.06,0.1-0.1,0.14c-0.05,0.05-0.11,0.08-0.17,0.1c-0.07,0.02-0.14,0.03-0.22,0.03c-0.08,0-0.16-0.01-0.24-0.03
			s-0.14-0.04-0.19-0.06v-0.2h0.01c0.06,0.04,0.12,0.07,0.2,0.09s0.15,0.04,0.22,0.04c0.04,0,0.08-0.01,0.13-0.02
			c0.05-0.01,0.08-0.03,0.11-0.06c0.03-0.03,0.05-0.06,0.07-0.09s0.02-0.08,0.02-0.13c0-0.05-0.01-0.1-0.02-0.13
			s-0.04-0.06-0.07-0.08c-0.03-0.02-0.06-0.03-0.11-0.04c-0.04-0.01-0.09-0.01-0.13-0.01h-0.09v-0.16h0.07
			c0.1,0,0.18-0.02,0.24-0.06c0.06-0.04,0.09-0.1,0.09-0.18c0-0.04-0.01-0.07-0.02-0.09c-0.01-0.03-0.04-0.05-0.06-0.06
			s-0.06-0.03-0.09-0.04c-0.03-0.01-0.07-0.01-0.11-0.01c-0.06,0-0.13,0.01-0.2,0.03s-0.14,0.05-0.2,0.09h-0.01v-0.2
			c0.05-0.02,0.11-0.04,0.19-0.06s0.15-0.03,0.22-0.03c0.07,0,0.13,0.01,0.19,0.02c0.05,0.01,0.1,0.03,0.15,0.06
			c0.05,0.03,0.08,0.07,0.11,0.11c0.02,0.04,0.04,0.1,0.04,0.16c0,0.08-0.03,0.15-0.08,0.21c-0.06,0.06-0.12,0.1-0.2,0.11v0.01
			c0.03,0.01,0.07,0.02,0.11,0.03C58.12,30.41,58.15,30.43,58.18,30.46z"/>
		<path class="st6" d="M59.38,31.16h-0.98v-0.2c0.07-0.06,0.14-0.12,0.21-0.18c0.07-0.06,0.13-0.12,0.19-0.17
			c0.12-0.12,0.21-0.22,0.26-0.29c0.05-0.07,0.07-0.15,0.07-0.23c0-0.08-0.02-0.13-0.07-0.18s-0.12-0.06-0.21-0.06
			c-0.06,0-0.12,0.01-0.19,0.03c-0.07,0.02-0.14,0.05-0.2,0.1h-0.01v-0.21c0.05-0.02,0.11-0.04,0.19-0.06s0.15-0.03,0.22-0.03
			c0.15,0,0.27,0.04,0.35,0.11c0.08,0.07,0.13,0.17,0.13,0.29c0,0.06-0.01,0.11-0.02,0.15c-0.01,0.05-0.04,0.09-0.06,0.14
			c-0.03,0.04-0.05,0.08-0.09,0.12s-0.08,0.08-0.12,0.13c-0.07,0.07-0.14,0.13-0.22,0.2s-0.14,0.12-0.21,0.18h0.78V31.16z"/>
		<path class="st6" d="M60.46,30.75c0,0.13-0.05,0.23-0.15,0.31c-0.1,0.08-0.22,0.12-0.37,0.12c-0.16,0-0.28-0.04-0.38-0.12
			c-0.09-0.08-0.14-0.19-0.14-0.31c0-0.08,0.02-0.15,0.07-0.22s0.11-0.12,0.2-0.16v-0.01c-0.08-0.04-0.14-0.09-0.17-0.14
			c-0.04-0.05-0.06-0.11-0.06-0.19c0-0.11,0.04-0.2,0.13-0.27s0.2-0.11,0.34-0.11c0.14,0,0.26,0.03,0.35,0.1
			c0.09,0.07,0.13,0.16,0.13,0.27c0,0.07-0.02,0.13-0.06,0.19s-0.1,0.11-0.18,0.15v0.01c0.09,0.04,0.16,0.09,0.21,0.14
			C60.43,30.59,60.46,30.66,60.46,30.75z M60.26,30.77c0-0.06-0.01-0.11-0.04-0.14s-0.08-0.07-0.15-0.11
			c-0.03-0.01-0.06-0.03-0.1-0.04c-0.04-0.01-0.08-0.03-0.15-0.05c-0.06,0.03-0.11,0.08-0.14,0.13c-0.04,0.05-0.05,0.12-0.05,0.19
			c0,0.09,0.03,0.16,0.09,0.22s0.14,0.09,0.23,0.09c0.09,0,0.17-0.02,0.23-0.07C60.23,30.92,60.26,30.86,60.26,30.77z M60.23,30.04
			c0-0.07-0.03-0.12-0.08-0.17s-0.12-0.06-0.21-0.06c-0.08,0-0.15,0.02-0.2,0.06c-0.05,0.04-0.08,0.09-0.08,0.16
			c0,0.05,0.01,0.09,0.04,0.12s0.07,0.06,0.12,0.09c0.02,0.01,0.06,0.03,0.1,0.05c0.05,0.02,0.09,0.03,0.13,0.05
			c0.06-0.04,0.11-0.09,0.13-0.13C60.21,30.16,60.23,30.1,60.23,30.04z"/>
		<path class="st6" d="M61.52,30.14c0,0.06-0.01,0.12-0.03,0.18s-0.05,0.1-0.09,0.14c-0.05,0.05-0.11,0.09-0.18,0.11
			s-0.16,0.04-0.26,0.04h-0.19v0.54h-0.19V29.7h0.39c0.09,0,0.16,0.01,0.22,0.02s0.11,0.04,0.16,0.07c0.05,0.04,0.1,0.08,0.13,0.14
			S61.52,30.06,61.52,30.14z M61.32,30.15c0-0.05-0.01-0.09-0.03-0.13s-0.04-0.07-0.08-0.09c-0.03-0.02-0.07-0.03-0.11-0.04
			s-0.09-0.01-0.15-0.01h-0.19v0.58h0.16c0.08,0,0.14-0.01,0.19-0.02s0.09-0.04,0.12-0.07c0.03-0.03,0.05-0.06,0.06-0.1
			S61.32,30.19,61.32,30.15z"/>
		<path class="st6" d="M62.14,30.61h-0.61v-0.18h0.61V30.61z"/>
		<path class="st6" d="M63.43,31.16h-0.21l-0.14-0.41h-0.63l-0.14,0.41h-0.2l0.53-1.45h0.26L63.43,31.16z M63.03,30.59l-0.25-0.71
			l-0.26,0.71H63.03z"/>
		<path class="st6" d="M64.55,30.57c0,0.11-0.01,0.2-0.03,0.28c-0.02,0.08-0.06,0.14-0.11,0.2c-0.05,0.05-0.11,0.09-0.18,0.11
			c-0.07,0.02-0.14,0.03-0.23,0.03c-0.09,0-0.17-0.01-0.24-0.04c-0.07-0.02-0.12-0.06-0.17-0.11c-0.05-0.05-0.09-0.12-0.11-0.19
			c-0.02-0.08-0.04-0.17-0.04-0.28V29.7h0.19v0.88c0,0.08,0.01,0.14,0.02,0.19s0.03,0.09,0.05,0.12c0.03,0.04,0.07,0.07,0.12,0.1
			c0.05,0.02,0.11,0.03,0.18,0.03c0.07,0,0.13-0.01,0.18-0.03s0.09-0.05,0.12-0.1c0.03-0.04,0.04-0.08,0.05-0.13
			s0.02-0.11,0.02-0.18V29.7h0.19V30.57z"/>
	</g>
	<g>
		<polygon class="st6" points="50.63,27.06 52.53,23.57 53.47,23.57 53.47,27.06 52.48,27.06 52.48,25.62 51.91,26.64 52.17,26.64 
			52.17,27.06 		"/>
		<polygon class="st6" points="53.8,27.06 53.8,23.28 52.66,23.28 53.32,22.18 63.49,22.18 63.49,23.28 54.82,23.28 54.82,27.06 		
			"/>
		<path class="st6" d="M55.09,27.06v-3.49l2.96,0.01c0.34,0,0.61,0.27,0.61,0.61v0v2.87h-0.98v-2.78c0-0.16-0.13-0.28-0.28-0.28
			h-0.03v3.06h-0.98V24H56.1v3.06H55.09z"/>
		<polygon class="st6" points="58.97,27.06 58.97,23.57 61.12,23.57 61.12,24.57 59.71,24.57 59.71,24.83 61.12,24.83 61.12,25.81 
			59.71,25.81 59.71,26.07 61.12,26.07 61.12,27.06 		"/>
		<polygon class="st6" points="61.42,23.57 62.45,23.57 62.45,26.09 63.49,26.09 62.97,27.06 61.42,27.06 		"/>
		<polygon class="st6" points="50.63,27.33 62.79,27.33 62.29,28.23 50.63,28.23 		"/>
	</g>
</g>
<g>
	<path class="st1" d="M77.74,67.02h-0.33v-2.19l-0.66,0.24v-0.3l0.94-0.35h0.05V67.02z"/>
	<path class="st1" d="M80.4,67.02h-1.7v-0.24l0.9-1c0.13-0.15,0.22-0.27,0.27-0.37c0.05-0.09,0.08-0.19,0.08-0.29
		c0-0.13-0.04-0.25-0.12-0.33c-0.08-0.09-0.19-0.13-0.33-0.13c-0.16,0-0.29,0.05-0.38,0.14s-0.14,0.22-0.14,0.39h-0.33
		c0-0.24,0.08-0.43,0.23-0.58c0.15-0.15,0.36-0.22,0.62-0.22c0.24,0,0.43,0.06,0.57,0.19s0.21,0.29,0.21,0.5
		c0,0.25-0.16,0.56-0.49,0.91l-0.69,0.75h1.3V67.02z"/>
</g>
<g>
	<path class="st1" d="M5.86,20.31H5.52v-2.19l-0.66,0.24v-0.3l0.94-0.35h0.05V20.31z"/>
	<path class="st1" d="M7.3,18.86h0.25c0.16,0,0.28-0.04,0.37-0.12c0.09-0.08,0.13-0.19,0.13-0.32c0-0.3-0.15-0.46-0.45-0.46
		c-0.14,0-0.26,0.04-0.34,0.12c-0.08,0.08-0.13,0.19-0.13,0.32H6.79c0-0.21,0.07-0.38,0.22-0.51s0.34-0.2,0.57-0.2
		c0.24,0,0.44,0.07,0.57,0.19s0.21,0.31,0.21,0.54c0,0.11-0.04,0.22-0.11,0.33c-0.07,0.11-0.17,0.18-0.3,0.24
		c0.14,0.04,0.25,0.12,0.33,0.22c0.08,0.1,0.12,0.23,0.12,0.38c0,0.23-0.08,0.42-0.23,0.55c-0.15,0.14-0.35,0.2-0.59,0.2
		S7.15,20.28,7,20.15c-0.15-0.13-0.23-0.3-0.23-0.52H7.1c0,0.14,0.04,0.25,0.13,0.33s0.21,0.12,0.36,0.12
		c0.16,0,0.28-0.04,0.36-0.12c0.08-0.08,0.13-0.2,0.13-0.36c0-0.15-0.05-0.27-0.14-0.35c-0.09-0.08-0.23-0.12-0.4-0.12H7.3V18.86z"
		/>
</g>
<g>
	<path class="st1" d="M13.07,19.64h-1.08l-0.24,0.68h-0.35l0.99-2.59h0.3l0.99,2.59h-0.35L13.07,19.64z M12.09,19.36h0.88
		l-0.44-1.21L12.09,19.36z"/>
	<path class="st1" d="M15.56,19.21c0,0.38-0.07,0.67-0.2,0.86s-0.34,0.28-0.62,0.28c-0.28,0-0.48-0.09-0.61-0.27
		c-0.13-0.18-0.2-0.46-0.21-0.82v-0.44c0-0.38,0.07-0.66,0.2-0.85c0.13-0.18,0.34-0.28,0.62-0.28c0.28,0,0.48,0.09,0.62,0.27
		c0.13,0.18,0.2,0.45,0.2,0.83V19.21z M15.23,18.76c0-0.28-0.04-0.48-0.12-0.61c-0.08-0.13-0.2-0.19-0.37-0.19s-0.29,0.06-0.37,0.19
		s-0.12,0.32-0.12,0.58v0.53c0,0.28,0.04,0.49,0.12,0.62c0.08,0.13,0.2,0.2,0.37,0.2c0.16,0,0.28-0.06,0.36-0.19
		c0.08-0.13,0.12-0.32,0.12-0.59V18.76z"/>
</g>
<g>
	<path class="st1" d="M20.4,19.64h-1.08l-0.24,0.68h-0.35l0.99-2.59h0.3L21,20.31h-0.35L20.4,19.64z M19.42,19.36h0.88l-0.44-1.21
		L19.42,19.36z"/>
	<path class="st1" d="M22.35,20.31h-0.33v-2.19l-0.66,0.24v-0.3l0.94-0.35h0.05V20.31z"/>
</g>
<g>
	<path class="st1" d="M27.52,19.64h-1.08l-0.24,0.68h-0.35l0.99-2.59h0.3l0.99,2.59h-0.35L27.52,19.64z M26.54,19.36h0.88
		l-0.44-1.21L26.54,19.36z"/>
	<path class="st1" d="M30.07,20.31h-1.7v-0.24l0.9-1c0.13-0.15,0.22-0.27,0.27-0.37c0.05-0.09,0.08-0.19,0.08-0.29
		c0-0.13-0.04-0.25-0.12-0.33c-0.08-0.09-0.19-0.13-0.33-0.13c-0.16,0-0.29,0.05-0.38,0.14s-0.14,0.22-0.14,0.39h-0.33
		c0-0.24,0.08-0.43,0.23-0.58c0.15-0.15,0.36-0.22,0.62-0.22c0.24,0,0.43,0.06,0.57,0.19s0.21,0.29,0.21,0.5
		c0,0.25-0.16,0.56-0.49,0.91l-0.69,0.75h1.3V20.31z"/>
</g>
<g>
	<path class="st1" d="M26.79,10.77c-0.09,0.13-0.21,0.22-0.37,0.28c-0.16,0.06-0.34,0.09-0.55,0.09c-0.21,0-0.4-0.05-0.56-0.15
		c-0.16-0.1-0.29-0.24-0.38-0.42s-0.14-0.39-0.14-0.63V9.72c0-0.39,0.09-0.69,0.27-0.91c0.18-0.21,0.44-0.32,0.77-0.32
		c0.27,0,0.49,0.07,0.65,0.21c0.17,0.14,0.27,0.33,0.3,0.59h-0.34c-0.06-0.34-0.27-0.52-0.61-0.52c-0.23,0-0.4,0.08-0.52,0.24
		c-0.12,0.16-0.18,0.39-0.18,0.7v0.21c0,0.29,0.07,0.52,0.2,0.69c0.13,0.17,0.31,0.26,0.54,0.26c0.13,0,0.24-0.01,0.34-0.04
		c0.1-0.03,0.17-0.08,0.24-0.14V10.1h-0.6V9.82h0.94V10.77z"/>
	<path class="st1" d="M29.17,11.11h-0.34l-1.3-1.99v1.99h-0.34V8.52h0.34l1.31,2v-2h0.34V11.11z"/>
	<path class="st1" d="M29.59,11.11V8.52h0.73c0.22,0,0.42,0.05,0.6,0.15s0.31,0.24,0.4,0.42c0.09,0.18,0.14,0.39,0.14,0.63V9.9
		c0,0.24-0.05,0.46-0.14,0.64c-0.09,0.18-0.23,0.33-0.4,0.42c-0.17,0.1-0.38,0.15-0.61,0.15H29.59z M29.93,8.8v2.03h0.36
		c0.26,0,0.47-0.08,0.61-0.25c0.15-0.16,0.22-0.4,0.22-0.7V9.74c0-0.29-0.07-0.52-0.21-0.69c-0.14-0.16-0.33-0.25-0.59-0.25H29.93z"
		/>
</g>
<g>
	<path class="st1" d="M33.61,10.66l0.74-2.13h0.37l-0.96,2.59h-0.3L32.5,8.52h0.37L33.61,10.66z"/>
	<path class="st1" d="M36.79,10.29c-0.03,0.27-0.13,0.49-0.3,0.63s-0.4,0.22-0.68,0.22c-0.31,0-0.55-0.11-0.73-0.33
		c-0.18-0.22-0.28-0.51-0.28-0.88V9.69c0-0.24,0.04-0.45,0.13-0.63s0.21-0.32,0.37-0.42c0.16-0.1,0.34-0.15,0.55-0.15
		c0.28,0,0.5,0.08,0.66,0.23s0.26,0.37,0.29,0.64h-0.34C36.42,9.15,36.35,9,36.25,8.91c-0.1-0.09-0.24-0.14-0.42-0.14
		c-0.22,0-0.39,0.08-0.51,0.24S35.14,9.4,35.14,9.7v0.25c0,0.28,0.06,0.5,0.18,0.67s0.28,0.25,0.49,0.25c0.19,0,0.33-0.04,0.44-0.13
		s0.17-0.24,0.2-0.45H36.79z"/>
	<path class="st1" d="M38.98,10.29c-0.03,0.27-0.13,0.49-0.3,0.63s-0.4,0.22-0.68,0.22c-0.31,0-0.55-0.11-0.73-0.33
		c-0.18-0.22-0.28-0.51-0.28-0.88V9.69c0-0.24,0.04-0.45,0.13-0.63s0.21-0.32,0.37-0.42c0.16-0.1,0.34-0.15,0.55-0.15
		c0.28,0,0.5,0.08,0.66,0.23s0.26,0.37,0.29,0.64h-0.34C38.61,9.15,38.54,9,38.44,8.91c-0.1-0.09-0.24-0.14-0.42-0.14
		c-0.22,0-0.39,0.08-0.51,0.24S37.33,9.4,37.33,9.7v0.25c0,0.28,0.06,0.5,0.18,0.67s0.28,0.25,0.49,0.25c0.19,0,0.33-0.04,0.44-0.13
		s0.17-0.24,0.2-0.45H38.98z"/>
</g>
<g>
	<path class="st1" d="M41.55,10.07h-0.61v1.05H40.6V8.52h0.86c0.29,0,0.52,0.07,0.67,0.2s0.24,0.33,0.24,0.58
		c0,0.16-0.04,0.3-0.13,0.42c-0.09,0.12-0.21,0.21-0.36,0.27l0.61,1.1v0.02h-0.37L41.55,10.07z M40.94,9.79h0.52
		c0.17,0,0.3-0.04,0.4-0.13c0.1-0.09,0.15-0.21,0.15-0.35c0-0.16-0.05-0.28-0.14-0.37c-0.09-0.09-0.23-0.13-0.41-0.13h-0.52V9.79z"
		/>
	<path class="st1" d="M43.5,9.52l0.62-0.99h0.4l-0.82,1.28l0.84,1.3h-0.41L43.5,10.1l-0.64,1.01h-0.4l0.84-1.3l-0.82-1.28h0.4
		L43.5,9.52z"/>
</g>
<g>
	<path class="st1" d="M83.65,40.98v0.61h1.05v0.34h-2.59v-0.86c0-0.29,0.07-0.52,0.2-0.67s0.33-0.24,0.58-0.24
		c0.16,0,0.3,0.04,0.42,0.13c0.12,0.09,0.21,0.21,0.27,0.36l1.1-0.61h0.02v0.37L83.65,40.98z M83.37,41.59v-0.52
		c0-0.17-0.04-0.3-0.13-0.4c-0.09-0.1-0.21-0.15-0.35-0.15c-0.16,0-0.28,0.05-0.37,0.14c-0.09,0.09-0.13,0.23-0.13,0.41v0.52H83.37z
		"/>
	<path class="st1" d="M83.5,38.23v1.12h0.92v-1.3h0.28v1.64h-2.59v-1.63h0.28v1.29h0.83v-1.12H83.5z"/>
	<path class="st1" d="M83.54,36.86c-0.08,0.29-0.19,0.5-0.31,0.64c-0.12,0.13-0.27,0.2-0.45,0.2c-0.2,0-0.37-0.08-0.51-0.25
		c-0.13-0.16-0.2-0.37-0.2-0.63c0-0.18,0.04-0.34,0.1-0.48c0.07-0.14,0.16-0.25,0.28-0.32c0.12-0.08,0.25-0.11,0.4-0.11v0.34
		c-0.16,0-0.28,0.05-0.37,0.15s-0.13,0.24-0.13,0.42c0,0.17,0.04,0.3,0.11,0.39c0.07,0.09,0.18,0.14,0.31,0.14
		c0.11,0,0.2-0.04,0.27-0.13c0.07-0.09,0.14-0.24,0.2-0.46c0.06-0.21,0.13-0.38,0.2-0.5c0.07-0.12,0.16-0.21,0.25-0.27
		c0.1-0.06,0.21-0.09,0.34-0.09c0.21,0,0.38,0.08,0.5,0.25c0.13,0.16,0.19,0.38,0.19,0.66c0,0.18-0.03,0.34-0.1,0.5
		s-0.16,0.27-0.28,0.36c-0.12,0.08-0.25,0.12-0.4,0.12v-0.34c0.16,0,0.28-0.06,0.37-0.17c0.09-0.12,0.14-0.27,0.14-0.46
		c0-0.18-0.04-0.32-0.11-0.41c-0.07-0.1-0.17-0.14-0.3-0.14s-0.22,0.04-0.29,0.13S83.61,36.62,83.54,36.86z"/>
</g>
<g>
	<path class="st1" d="M49.67,8.73h-0.83v2.31H48.5V8.73h-0.83V8.45h2V8.73z"/>
	<path class="st1" d="M50.72,9.44l0.62-0.99h0.4l-0.82,1.28l0.84,1.3h-0.41l-0.64-1.01l-0.64,1.01h-0.4l0.84-1.3L49.7,8.45h0.4
		L50.72,9.44z"/>
</g>
<g>
	<path class="st1" d="M53.98,11.11V8.52h0.73c0.22,0,0.42,0.05,0.6,0.15s0.31,0.24,0.4,0.42c0.09,0.18,0.14,0.39,0.14,0.63V9.9
		c0,0.24-0.05,0.46-0.14,0.64c-0.09,0.18-0.23,0.33-0.4,0.42c-0.17,0.1-0.38,0.15-0.61,0.15H53.98z M54.32,8.8v2.03h0.36
		c0.26,0,0.47-0.08,0.61-0.25c0.15-0.16,0.22-0.4,0.22-0.7V9.74c0-0.29-0.07-0.52-0.21-0.69c-0.14-0.16-0.33-0.25-0.59-0.25H54.32z"
		/>
	<path class="st1" d="M57.97,8.8h-0.83v2.31H56.8V8.8h-0.83V8.52h2V8.8z"/>
	<path class="st1" d="M59.12,10.07h-0.61v1.05h-0.34V8.52h0.86c0.29,0,0.52,0.07,0.67,0.2s0.24,0.33,0.24,0.58
		c0,0.16-0.04,0.3-0.13,0.42c-0.09,0.12-0.21,0.21-0.36,0.27l0.61,1.1v0.02h-0.37L59.12,10.07z M58.51,9.79h0.52
		c0.17,0,0.3-0.04,0.4-0.13c0.1-0.09,0.15-0.21,0.15-0.35c0-0.16-0.05-0.28-0.14-0.37c-0.09-0.09-0.23-0.13-0.41-0.13h-0.52V9.79z"
		/>
</g>
<g>
	<path class="st1" d="M29.56,69.67c-0.29-0.08-0.5-0.19-0.64-0.31c-0.13-0.12-0.2-0.27-0.2-0.45c0-0.2,0.08-0.37,0.25-0.51
		c0.16-0.13,0.37-0.2,0.63-0.2c0.18,0,0.34,0.04,0.48,0.1c0.14,0.07,0.25,0.16,0.32,0.28c0.08,0.12,0.11,0.25,0.11,0.4h-0.34
		c0-0.16-0.05-0.28-0.15-0.37s-0.24-0.13-0.42-0.13c-0.17,0-0.3,0.04-0.39,0.11c-0.09,0.07-0.14,0.18-0.14,0.31
		c0,0.11,0.04,0.2,0.13,0.27c0.09,0.07,0.24,0.14,0.46,0.2c0.21,0.06,0.38,0.13,0.5,0.2c0.12,0.07,0.21,0.16,0.27,0.25
		c0.06,0.1,0.09,0.21,0.09,0.34c0,0.21-0.08,0.38-0.25,0.5c-0.16,0.13-0.38,0.19-0.66,0.19c-0.18,0-0.34-0.03-0.5-0.1
		s-0.27-0.16-0.36-0.28c-0.08-0.12-0.12-0.25-0.12-0.4h0.34c0,0.16,0.06,0.28,0.17,0.37c0.12,0.09,0.27,0.14,0.46,0.14
		c0.18,0,0.32-0.04,0.41-0.11c0.1-0.07,0.14-0.17,0.14-0.3s-0.04-0.22-0.13-0.29S29.79,69.73,29.56,69.67z"/>
	<path class="st1" d="M32.58,70c-0.03,0.27-0.13,0.49-0.3,0.63s-0.4,0.22-0.68,0.22c-0.31,0-0.55-0.11-0.73-0.33
		c-0.18-0.22-0.28-0.51-0.28-0.88V69.4c0-0.24,0.04-0.45,0.13-0.63s0.21-0.32,0.37-0.42c0.16-0.1,0.34-0.15,0.55-0.15
		c0.28,0,0.5,0.08,0.66,0.23s0.26,0.37,0.29,0.64h-0.34c-0.03-0.21-0.09-0.36-0.19-0.45c-0.1-0.09-0.24-0.14-0.42-0.14
		c-0.22,0-0.39,0.08-0.51,0.24s-0.19,0.39-0.19,0.69v0.25c0,0.28,0.06,0.5,0.18,0.67s0.28,0.25,0.49,0.25
		c0.19,0,0.33-0.04,0.44-0.13s0.17-0.24,0.2-0.45H32.58z"/>
	<path class="st1" d="M33.12,70.54h1.23v0.28h-1.57v-2.59h0.34V70.54z"/>
</g>
<g>
	<path class="st1" d="M36.75,69.67c-0.29-0.08-0.5-0.19-0.64-0.31c-0.13-0.12-0.2-0.27-0.2-0.45c0-0.2,0.08-0.37,0.25-0.51
		c0.16-0.13,0.37-0.2,0.63-0.2c0.18,0,0.34,0.04,0.48,0.1c0.14,0.07,0.25,0.16,0.32,0.28c0.08,0.12,0.11,0.25,0.11,0.4h-0.34
		c0-0.16-0.05-0.28-0.15-0.37s-0.24-0.13-0.42-0.13c-0.17,0-0.3,0.04-0.39,0.11c-0.09,0.07-0.14,0.18-0.14,0.31
		c0,0.11,0.04,0.2,0.13,0.27c0.09,0.07,0.24,0.14,0.46,0.2c0.21,0.06,0.38,0.13,0.5,0.2c0.12,0.07,0.21,0.16,0.27,0.25
		c0.06,0.1,0.09,0.21,0.09,0.34c0,0.21-0.08,0.38-0.25,0.5c-0.16,0.13-0.38,0.19-0.66,0.19c-0.18,0-0.34-0.03-0.5-0.1
		s-0.27-0.16-0.36-0.28c-0.08-0.12-0.12-0.25-0.12-0.4h0.34c0,0.16,0.06,0.28,0.17,0.37c0.12,0.09,0.27,0.14,0.46,0.14
		c0.18,0,0.32-0.04,0.41-0.11c0.1-0.07,0.14-0.17,0.14-0.3s-0.04-0.22-0.13-0.29S36.98,69.73,36.75,69.67z"/>
	<path class="st1" d="M37.87,70.82v-2.59h0.73c0.22,0,0.42,0.05,0.6,0.15s0.31,0.24,0.4,0.42c0.09,0.18,0.14,0.39,0.14,0.63v0.17
		c0,0.24-0.05,0.46-0.14,0.64c-0.09,0.18-0.23,0.33-0.4,0.42c-0.17,0.1-0.38,0.15-0.61,0.15H37.87z M38.21,68.51v2.03h0.36
		c0.26,0,0.47-0.08,0.61-0.25c0.15-0.16,0.22-0.4,0.22-0.7v-0.15c0-0.29-0.07-0.52-0.21-0.69c-0.14-0.16-0.33-0.25-0.59-0.25H38.21z
		"/>
	<path class="st1" d="M41.42,70.14h-1.08l-0.24,0.68h-0.35l0.99-2.59h0.3l0.99,2.59h-0.35L41.42,70.14z M40.43,69.86h0.88
		l-0.44-1.21L40.43,69.86z"/>
</g>
<g>
	<path class="st1" d="M44,70.37l0.74-2.13h0.37l-0.96,2.59h-0.3l-0.96-2.59h0.37L44,70.37z"/>
	<path class="st1" d="M47.09,70c-0.03,0.27-0.13,0.49-0.3,0.63s-0.4,0.22-0.68,0.22c-0.31,0-0.55-0.11-0.73-0.33
		c-0.18-0.22-0.28-0.51-0.28-0.88V69.4c0-0.24,0.04-0.45,0.13-0.63s0.21-0.32,0.37-0.42c0.16-0.1,0.34-0.15,0.55-0.15
		c0.28,0,0.5,0.08,0.66,0.23s0.26,0.37,0.29,0.64h-0.34c-0.03-0.21-0.09-0.36-0.19-0.45c-0.1-0.09-0.24-0.14-0.42-0.14
		c-0.22,0-0.39,0.08-0.51,0.24s-0.19,0.39-0.19,0.69v0.25c0,0.28,0.06,0.5,0.18,0.67s0.28,0.25,0.49,0.25
		c0.19,0,0.33-0.04,0.44-0.13s0.17-0.24,0.2-0.45H47.09z"/>
	<path class="st1" d="M49.19,70c-0.03,0.27-0.13,0.49-0.3,0.63s-0.4,0.22-0.68,0.22c-0.31,0-0.55-0.11-0.73-0.33
		c-0.18-0.22-0.28-0.51-0.28-0.88V69.4c0-0.24,0.04-0.45,0.13-0.63s0.21-0.32,0.37-0.42c0.16-0.1,0.34-0.15,0.55-0.15
		c0.28,0,0.5,0.08,0.66,0.23s0.26,0.37,0.29,0.64h-0.34c-0.03-0.21-0.09-0.36-0.19-0.45c-0.1-0.09-0.24-0.14-0.42-0.14
		c-0.22,0-0.39,0.08-0.51,0.24s-0.19,0.39-0.19,0.69v0.25c0,0.28,0.06,0.5,0.18,0.67s0.28,0.25,0.49,0.25
		c0.19,0,0.33-0.04,0.44-0.13s0.17-0.24,0.2-0.45H49.19z"/>
</g>
<g>
	<path class="st1" d="M52.07,70.48c-0.09,0.13-0.21,0.22-0.37,0.28c-0.16,0.06-0.34,0.09-0.55,0.09c-0.21,0-0.4-0.05-0.56-0.15
		c-0.16-0.1-0.29-0.24-0.38-0.42s-0.14-0.39-0.14-0.63v-0.23c0-0.39,0.09-0.69,0.27-0.91c0.18-0.21,0.44-0.32,0.77-0.32
		c0.27,0,0.49,0.07,0.65,0.21c0.17,0.14,0.27,0.33,0.3,0.59h-0.34c-0.06-0.34-0.27-0.52-0.61-0.52c-0.23,0-0.4,0.08-0.52,0.24
		c-0.12,0.16-0.18,0.39-0.18,0.7v0.21c0,0.29,0.07,0.52,0.2,0.69c0.13,0.17,0.31,0.26,0.54,0.26c0.13,0,0.24-0.01,0.34-0.04
		c0.1-0.03,0.17-0.08,0.24-0.14v-0.58h-0.6v-0.28h0.94V70.48z"/>
	<path class="st1" d="M54.35,70.82h-0.34l-1.3-1.99v1.99h-0.34v-2.59h0.34l1.31,2v-2h0.34V70.82z"/>
	<path class="st1" d="M54.69,70.82v-2.59h0.73c0.22,0,0.42,0.05,0.6,0.15s0.31,0.24,0.4,0.42c0.09,0.18,0.14,0.39,0.14,0.63v0.17
		c0,0.24-0.05,0.46-0.14,0.64c-0.09,0.18-0.23,0.33-0.4,0.42c-0.17,0.1-0.38,0.15-0.61,0.15H54.69z M55.03,68.51v2.03h0.36
		c0.26,0,0.47-0.08,0.61-0.25c0.15-0.16,0.22-0.4,0.22-0.7v-0.15c0-0.29-0.07-0.52-0.21-0.69c-0.14-0.16-0.33-0.25-0.59-0.25H55.03z
		"/>
</g>
<g>
	<path class="st1" d="M34.68,19.64H33.6l-0.24,0.68h-0.35l0.99-2.59h0.3l0.99,2.59h-0.35L34.68,19.64z M33.7,19.36h0.88l-0.44-1.21
		L33.7,19.36z"/>
	<path class="st1" d="M36.02,18.86h0.25c0.16,0,0.28-0.04,0.37-0.12c0.09-0.08,0.13-0.19,0.13-0.32c0-0.3-0.15-0.46-0.45-0.46
		c-0.14,0-0.26,0.04-0.34,0.12c-0.08,0.08-0.13,0.19-0.13,0.32h-0.33c0-0.21,0.07-0.38,0.22-0.51s0.34-0.2,0.57-0.2
		c0.24,0,0.44,0.07,0.57,0.19s0.21,0.31,0.21,0.54c0,0.11-0.04,0.22-0.11,0.33c-0.07,0.11-0.17,0.18-0.3,0.24
		c0.14,0.04,0.25,0.12,0.33,0.22c0.08,0.1,0.12,0.23,0.12,0.38c0,0.23-0.08,0.42-0.23,0.55c-0.15,0.14-0.35,0.2-0.59,0.2
		s-0.44-0.07-0.59-0.2c-0.15-0.13-0.23-0.3-0.23-0.52h0.33c0,0.14,0.04,0.25,0.13,0.33s0.21,0.12,0.36,0.12
		c0.16,0,0.28-0.04,0.36-0.12s0.13-0.2,0.13-0.36c0-0.15-0.05-0.27-0.14-0.35c-0.09-0.08-0.23-0.12-0.4-0.12h-0.25V18.86z"/>
</g>
<g>
	<path class="st1" d="M68.21,65.65c0-0.1,0.03-0.19,0.1-0.25c0.07-0.07,0.15-0.1,0.26-0.1c0.11,0,0.2,0.03,0.26,0.1
		s0.1,0.15,0.1,0.26v0.07c0,0.1-0.03,0.19-0.1,0.25c-0.07,0.07-0.15,0.1-0.26,0.1c-0.11,0-0.2-0.03-0.26-0.1
		c-0.07-0.07-0.1-0.15-0.1-0.25V65.65z"/>
	<path class="st1" d="M70.49,67.02h-0.33v-2.19l-0.66,0.24v-0.3l0.94-0.35h0.05V67.02z"/>
	<path class="st1" d="M72.53,67.02H72.2v-2.19l-0.66,0.24v-0.3l0.94-0.35h0.05V67.02z"/>
</g>
<g>
	<path class="st1" d="M60.98,65.65c0-0.1,0.03-0.19,0.1-0.25c0.07-0.07,0.15-0.1,0.26-0.1c0.11,0,0.2,0.03,0.26,0.1
		s0.1,0.15,0.1,0.26v0.07c0,0.1-0.03,0.19-0.1,0.25c-0.07,0.07-0.15,0.1-0.26,0.1c-0.11,0-0.2-0.03-0.26-0.1
		c-0.07-0.07-0.1-0.15-0.1-0.25V65.65z"/>
	<path class="st1" d="M63.25,67.02h-0.33v-2.19l-0.66,0.24v-0.3l0.94-0.35h0.05V67.02z"/>
	<path class="st1" d="M65.84,65.91c0,0.38-0.07,0.67-0.2,0.86s-0.34,0.28-0.62,0.28c-0.28,0-0.48-0.09-0.61-0.27
		c-0.13-0.18-0.2-0.46-0.21-0.82v-0.44c0-0.38,0.07-0.66,0.2-0.85c0.13-0.18,0.34-0.28,0.62-0.28c0.28,0,0.48,0.09,0.62,0.27
		c0.13,0.18,0.2,0.45,0.2,0.83V65.91z M65.51,65.46c0-0.28-0.04-0.48-0.12-0.61c-0.08-0.13-0.2-0.19-0.37-0.19s-0.29,0.06-0.37,0.19
		s-0.12,0.32-0.12,0.58v0.53c0,0.28,0.04,0.49,0.12,0.62c0.08,0.13,0.2,0.2,0.37,0.2c0.16,0,0.28-0.06,0.36-0.19
		c0.08-0.13,0.12-0.32,0.12-0.59V65.46z"/>
</g>
<g>
	<rect x="27.73" y="78.66" class="st1" width="8.56" height="4.58"/>
	<g>
		<path class="st17" d="M28.49,79.58v-0.31h1.27v0.31l-0.39,0.07v2.8l0.39,0.07v0.31h-1.27v-0.31l0.39-0.07v-2.8L28.49,79.58z"/>
		<path class="st17" d="M30.16,82.83V82.5l1.16-1.29c0.21-0.23,0.35-0.42,0.42-0.55s0.11-0.28,0.11-0.42c0-0.18-0.05-0.33-0.16-0.45
			s-0.24-0.18-0.41-0.18c-0.24,0-0.42,0.06-0.54,0.19c-0.12,0.13-0.17,0.3-0.17,0.53h-0.46l0-0.01c-0.01-0.31,0.09-0.56,0.3-0.77
			c0.21-0.21,0.5-0.31,0.87-0.31c0.32,0,0.57,0.09,0.76,0.28c0.19,0.19,0.28,0.42,0.28,0.71c0,0.19-0.06,0.39-0.17,0.58
			c-0.11,0.19-0.27,0.4-0.48,0.63l-0.93,1.02l0,0.01H32l0.04-0.41h0.4v0.78H30.16z"/>
		<path class="st17" d="M35.57,80.36h-0.34l-0.09-0.5c-0.08-0.08-0.17-0.14-0.29-0.19c-0.11-0.05-0.25-0.07-0.4-0.07
			c-0.37,0-0.65,0.13-0.85,0.4c-0.2,0.27-0.29,0.61-0.29,1.02v0.06c0,0.41,0.1,0.75,0.29,1.02c0.19,0.27,0.46,0.4,0.8,0.4
			c0.16,0,0.31-0.03,0.44-0.08c0.13-0.05,0.23-0.11,0.3-0.19l0.09-0.5h0.34v0.63c-0.1,0.13-0.25,0.25-0.46,0.35
			c-0.2,0.1-0.44,0.15-0.71,0.15c-0.46,0-0.83-0.17-1.13-0.51c-0.29-0.34-0.44-0.77-0.44-1.29v-0.05c0-0.52,0.14-0.95,0.43-1.29
			c0.29-0.34,0.67-0.51,1.14-0.51c0.27,0,0.5,0.05,0.71,0.16c0.2,0.1,0.36,0.22,0.46,0.35V80.36z"/>
	</g>
</g>
<g>
	<path class="st1" d="M55.45,81.33c0,0,1.16-0.89,1.32-0.98c0.16-0.09,0.5-0.1,0.5-0.1l-0.54,0.67c0,0-0.45-0.01-0.45,0.22
		c0,0.23,0.19,0.35,0.19,0.35s-0.37-0.03-0.4,0.21c-0.03,0.24,0.23,0.27,0.32,0.39c0.1,0.12-0.01,0.81-0.01,0.81l-0.36-0.57
		l-0.53-0.32c0,0,0.23,0,0.2-0.32C55.69,81.38,55.45,81.33,55.45,81.33z"/>
	<path class="st1" d="M53.38,83.26l0.69-0.36c0,0-0.1,0.1,0,0.15c0.1,0.05,0.29,0.03,0.29,0.03s-0.14,0.03-0.16,0.22
		c-0.02,0.19,0.56,0.44,0.56,0.44s-0.44,0.24-0.69,0.12C53.82,83.74,53.38,83.26,53.38,83.26z"/>
	<path class="st1" d="M52.76,79.81c0,0,0.89-0.5,1.17-0.59c0.29-0.09,0.71-0.15,0.71-0.15l-0.45,0.41c0,0-0.36-0.01-0.31,0.15
		c0.04,0.16,0.13,0.08,0.13,0.08s-0.16,0.06-0.14,0.16c0.03,0.1-0.14,0.14-0.01,0.23c0.13,0.09,0.13-0.01,0.21,0.23
		c0.09,0.24,0.18,0.19,0.18,0.19s-0.14,0.09-0.18,0.15c-0.04,0.06-0.1,0.14-0.1,0.14L52.76,79.81z"/>
	<path class="st1" d="M55.57,81.63c-0.06-0.1-0.13-0.06-0.34-0.09c-0.21-0.03-2.41-1.29-2.41-1.29s-0.09-0.62-0.47-0.82
		c-0.37-0.19-0.82-0.14-0.97,0c-0.16,0.14-0.49,1-0.49,1l-0.1,0.05c0,0-0.15-0.21-0.34-0.24c-0.19-0.03-0.29,0.09-0.39,0.42
		c-0.11,0.34,0.11,0.72,0.11,0.72s-0.19,0.72-0.07,1.14c0.11,0.41,0.46,0.71,1,0.84c0.54,0.14,1.37,0.04,1.77-0.06
		c0.39-0.09,1.11-0.47,1.33-0.62c0.22-0.15,1.25-0.76,1.31-0.86C55.55,81.73,55.62,81.73,55.57,81.63z M50.6,81.46
		c-0.18,0.04-0.37-0.14-0.42-0.39c-0.06-0.25,0.04-0.49,0.22-0.53c0.18-0.04,0.37,0.14,0.42,0.39
		C50.88,81.18,50.78,81.42,50.6,81.46z M52.56,80.88c-0.14,0.54-0.58,0.89-0.99,0.79c-0.41-0.11-0.63-0.63-0.49-1.17
		c0.14-0.54,0.58-0.89,0.99-0.79C52.48,79.82,52.7,80.34,52.56,80.88z"/>
</g>
<circle class="st23" cx="6.69" cy="31.66" r="1.56"/>
<circle class="st23" cx="6.69" cy="24.49" r="1.56"/>
<circle class="st23" cx="13.9" cy="24.49" r="1.56"/>
<circle class="st23" cx="13.85" cy="31.66" r="1.56"/>
<circle class="st23" cx="21.1" cy="31.66" r="1.56"/>
<circle class="st23" cx="21.1" cy="24.49" r="1.56"/>
<circle class="st23" cx="28.31" cy="24.49" r="1.56"/>
<circle class="st23" cx="28.26" cy="31.66" r="1.56"/>
<circle class="st23" cx="35.4" cy="24.49" r="1.56"/>
<circle class="st23" cx="28.21" cy="4.62" r="1.56"/>
<circle class="st23" cx="35.42" cy="4.62" r="1.56"/>
<circle class="st23" cx="42.62" cy="4.62" r="1.56"/>
<circle class="st23" cx="49.83" cy="4.62" r="1.56"/>
<circle class="st23" cx="56.92" cy="4.62" r="1.56"/>
<circle class="st23" cx="35.35" cy="31.66" r="1.56"/>
<circle class="st23" cx="6.69" cy="38.83" r="1.56"/>
<circle class="st23" cx="13.85" cy="38.83" r="1.56"/>
<circle class="st23" cx="21.1" cy="38.83" r="1.56"/>
<circle class="st23" cx="28.26" cy="38.83" r="1.56"/>
<circle class="st23" cx="35.35" cy="38.83" r="1.56"/>
<circle class="st23" cx="6.69" cy="53.23" r="1.56"/>
<circle class="st23" cx="6.69" cy="46.06" r="1.56"/>
<circle class="st23" cx="13.9" cy="46.06" r="1.56"/>
<circle class="st23" cx="13.85" cy="53.23" r="1.56"/>
<circle class="st23" cx="21.1" cy="53.23" r="1.56"/>
<circle class="st23" cx="21.1" cy="46.06" r="1.56"/>
<circle class="st23" cx="28.31" cy="46.06" r="1.56"/>
<circle class="st23" cx="28.26" cy="53.23" r="1.56"/>
<circle class="st23" cx="35.4" cy="46.06" r="1.56"/>
<circle class="st23" cx="35.35" cy="53.23" r="1.56"/>
<circle class="st23" cx="6.69" cy="60.4" r="1.56"/>
<circle class="st23" cx="13.85" cy="60.4" r="1.56"/>
<circle class="st23" cx="21.1" cy="60.4" r="1.56"/>
<circle class="st23" cx="28.26" cy="60.4" r="1.56"/>
<circle class="st23" cx="35.35" cy="60.4" r="1.56"/>
<circle class="st23" cx="42.5" cy="53.23" r="1.56"/>
<circle class="st23" cx="42.5" cy="46.06" r="1.56"/>
<circle class="st23" cx="49.71" cy="46.06" r="1.56"/>
<circle class="st23" cx="49.67" cy="53.23" r="1.56"/>
<circle class="st23" cx="56.92" cy="53.23" r="1.56"/>
<circle class="st23" cx="56.92" cy="46.06" r="1.56"/>
<circle class="st23" cx="64.12" cy="46.06" r="1.56"/>
<circle class="st23" cx="64.08" cy="53.23" r="1.56"/>
<circle class="st23" cx="71.21" cy="46.06" r="1.56"/>
<circle class="st23" cx="71.17" cy="53.23" r="1.56"/>
<circle class="st23" cx="42.5" cy="60.4" r="1.56"/>
<circle class="st23" cx="49.67" cy="60.4" r="1.56"/>
<circle class="st23" cx="31.91" cy="75.12" r="1.56"/>
<circle class="st23" cx="39" cy="75.12" r="1.56"/>
<circle class="st23" cx="46.15" cy="75.12" r="1.56"/>
<circle class="st23" cx="53.31" cy="75.12" r="1.56"/>
<circle class="st23" cx="56.92" cy="60.4" r="1.56"/>
<circle class="st23" cx="64.08" cy="60.4" r="1.56"/>
<circle class="st23" cx="71.17" cy="60.4" r="1.56"/>
<path class="st1" d="M75.12,35.76v6.21h-7.68v-6.21H75.12z M71.21,37.25c-0.86,0-1.56,0.7-1.56,1.56c0,0.86,0.7,1.56,1.56,1.56
	s1.56-0.7,1.56-1.56C72.78,37.95,72.08,37.25,71.21,37.25z"/>
<circle class="st23" cx="78.38" cy="46.06" r="1.56"/>
<circle class="st23" cx="71.21" cy="38.81" r="1.56"/>
<circle class="st23" cx="78.38" cy="38.81" r="1.56"/>
<circle class="st23" cx="78.34" cy="53.23" r="1.56"/>
<circle class="st23" cx="78.34" cy="60.4" r="1.56"/>
<g>
</g>
<g>
</g>
<g>
</g>
<g>
</g>
<g>
</g>
<g>
</g>
</svg>
