<svg id="Layer_1" data-name="Layer 1" xmlns="http://www.w3.org/2000/svg" viewBox="0 0 134.934 70.021"><defs><style>.cls-1{fill:#0f4bb5;}.cls-2{fill:lime;}.cls-11,.cls-14,.cls-3{fill:none;}.cls-3{stroke:#e8dfcf;}.cls-11,.cls-14,.cls-15,.cls-16,.cls-17,.cls-25,.cls-29,.cls-3{stroke-miterlimit:10;}.cls-4{fill:#cfc7bc;}.cls-5{fill:#36312f;}.cls-6{fill:#b3b3b2;}.cls-7{fill:#e8dfcf;}.cls-8{fill:#51aff7;}.cls-9{fill:#229ae6;}.cls-10{fill:#efd68f;}.cls-11{stroke:#eead4b;stroke-width:0.709px;}.cls-12{fill:#fff;}.cls-13{fill:#b27d51;}.cls-14{stroke:#fff;stroke-width:0.247px;}.cls-15,.cls-16,.cls-20{fill:#4c4c4c;}.cls-15,.cls-16,.cls-17{stroke:#000105;}.cls-15,.cls-17{stroke-width:0.25px;}.cls-16{stroke-width:0.418px;}.cls-17,.cls-21{fill:#000105;}.cls-18{fill:#171818;}.cls-19{fill:#ccc6bb;}.cls-22{fill:#f1f2f1;}.cls-23{fill:#e5e5e5;}.cls-24{fill:#313131;}.cls-25{fill:#271b21;stroke:#271b21;stroke-width:0.4px;}.cls-26{fill:#cdc7bc;}.cls-27{fill:#e6e6e6;}.cls-28{fill:#666566;}.cls-29{fill:#ebad4f;stroke:#ebad4f;stroke-width:0.2px;}.cls-30{fill:gray;}</style></defs><g id="top"><path class="cls-1" d="M134.934,70.02V0H0V70.02ZM130.5,3.01a1.42,1.42,0,1,1-1.42,1.42A1.425,1.425,0,0,1,130.5,3.01Zm0,61.17a1.415,1.415,0,1,1-1.42,1.42A1.419,1.419,0,0,1,130.5,64.18Zm-11.94-6.29a4.535,4.535,0,1,1-4.54,4.53A4.532,4.532,0,0,1,118.564,57.89ZM16.454,3.06a4.535,4.535,0,1,1-4.54,4.54A4.535,4.535,0,0,1,16.454,3.06ZM4.494,67.01a1.415,1.415,0,1,1,1.42-1.41A1.417,1.417,0,0,1,4.494,67.01Zm-.07-64h.03a1.415,1.415,0,0,1-.03,2.83,1.5,1.5,0,0,1-.22-.02A1.4,1.4,0,0,1,3,4.43,1.419,1.419,0,0,1,4.424,3.01Z"/><path class="cls-2" d="M4.454,3.01h.04a1.42,1.42,0,0,1,0,2.84.17.17,0,0,1-.07-.01,1.415,1.415,0,0,0,.03-2.83Z"/><circle class="cls-3" cx="118.563" cy="62.422" r="4.535"/><circle class="cls-3" cx="16.507" cy="7.655" r="4.535"/><g id="R-0805-stroke"><rect class="cls-4" x="72.524" y="58.891" width="4.26" height="3.44"/><rect class="cls-4" x="72.564" y="66.021" width="4.26" height="3.44"/><rect class="cls-5" x="72.864" y="61.621" width="3.61" height="5.16"/><path class="cls-6" d="M74.638,63.558a.339.339,0,0,1-.106.078.385.385,0,0,1-.164.03.456.456,0,0,1-.183-.036.448.448,0,0,1-.145-.1.466.466,0,0,1-.1-.173.644.644,0,0,1-.033-.216A1.13,1.13,0,0,1,74,62.708h.2v.015a.763.763,0,0,0-.089.2.685.685,0,0,0-.038.217.443.443,0,0,0,.022.13.283.283,0,0,0,.06.113.3.3,0,0,0,.094.067.351.351,0,0,0,.131.022.276.276,0,0,0,.13-.026.193.193,0,0,0,.081-.068.278.278,0,0,0,.041-.107.711.711,0,0,0,.012-.134v-.088h.162v.068a.4.4,0,0,0,.061.237.208.208,0,0,0,.181.088.175.175,0,0,0,.158-.085.263.263,0,0,0,.035-.089.6.6,0,0,0,.01-.109.688.688,0,0,0-.033-.2.81.81,0,0,0-.094-.2v-.01h.2a.834.834,0,0,1,.064.185.988.988,0,0,1,.028.224.812.812,0,0,1-.019.188.465.465,0,0,1-.063.146.306.306,0,0,1-.267.143.3.3,0,0,1-.212-.085.386.386,0,0,1-.115-.2h-.013a.464.464,0,0,1-.033.108A.363.363,0,0,1,74.638,63.558Z"/><path class="cls-6" d="M74.638,64.83a.337.337,0,0,1-.106.077.37.37,0,0,1-.164.03.44.44,0,0,1-.183-.036.431.431,0,0,1-.145-.1.474.474,0,0,1-.1-.173.654.654,0,0,1-.033-.217,1,1,0,0,1,.029-.238A1.016,1.016,0,0,1,74,63.979h.2v.015a.779.779,0,0,0-.089.195.694.694,0,0,0-.038.217.455.455,0,0,0,.022.131.272.272,0,0,0,.06.112.3.3,0,0,0,.094.068.374.374,0,0,0,.131.021.29.29,0,0,0,.13-.025.2.2,0,0,0,.081-.069.273.273,0,0,0,.041-.106.721.721,0,0,0,.012-.135v-.088h.162v.069a.405.405,0,0,0,.061.237.208.208,0,0,0,.181.088.189.189,0,0,0,.093-.023.183.183,0,0,0,.065-.062.268.268,0,0,0,.035-.09.584.584,0,0,0,.01-.108.7.7,0,0,0-.033-.2.828.828,0,0,0-.094-.2v-.01h.2a.845.845,0,0,1,.064.186.974.974,0,0,1,.028.224.8.8,0,0,1-.019.187.461.461,0,0,1-.063.147.3.3,0,0,1-.267.142.294.294,0,0,1-.212-.085.383.383,0,0,1-.115-.2h-.013a.473.473,0,0,1-.033.107A.369.369,0,0,1,74.638,64.83Z"/><path class="cls-6" d="M73.937,66.146v-.787h.148v.3h.975v-.3h.133a1.056,1.056,0,0,0,.01.132.319.319,0,0,0,.031.107.19.19,0,0,0,.061.07.2.2,0,0,0,.1.03v.151H74.085v.3Z"/></g><path class="cls-7" d="M134.929,70.021v-8.85h-8.85v8.85Zm-4.43-5.84a1.415,1.415,0,1,1-1.41,1.42A1.413,1.413,0,0,1,130.5,64.181Z"/><path class="cls-7" d="M8.85,70.021v-8.85H0v8.85Zm-4.43-5.84A1.415,1.415,0,1,1,3.01,65.6,1.413,1.413,0,0,1,4.42,64.181Z"/><path class="cls-7" d="M8.85,8.855V.005H0v8.85ZM4.42,3.015a1.415,1.415,0,1,1-1.41,1.42A1.413,1.413,0,0,1,4.42,3.015Z"/><path class="cls-7" d="M134.929,8.855V.005h-8.85v8.85Zm-4.43-5.84a1.415,1.415,0,1,1-1.41,1.42A1.413,1.413,0,0,1,130.5,3.015Z"/><polygon class="cls-8" points="79.084 69.01 79.084 51.21 81.774 51.21 81.774 54.2 108.384 54.2 108.384 51.21 111.074 51.21 111.074 69.01 79.084 69.01"/><polygon class="cls-9" points="79.084 69.01 79.084 51.21 81.774 51.21 81.774 54.2 108.384 54.2 108.384 51.21 111.074 51.21 111.074 69.01 79.084 69.01"/><circle class="cls-10" cx="108.383" cy="65.353" r="2.452"/><line class="cls-11" x1="110.752" y1="65.987" x2="106.015" y2="64.718"/><path d="M94.959,59.541h3.149v.594H96.9v3.9h1.211v.531a3.73,3.73,0,0,0-.528.041,1.346,1.346,0,0,0-.425.119.717.717,0,0,0-.4.653h-.6V60.135H94.959Z"/><path d="M89.549,62.451a4.215,4.215,0,0,1,.49-2.3,1.947,1.947,0,0,1,3.051.01,5.619,5.619,0,0,1-.006,4.572,1.936,1.936,0,0,1-3.053-.011A4.279,4.279,0,0,1,89.549,62.451Zm1.027-1.773a2.648,2.648,0,0,0-.185.744,9.38,9.38,0,0,0-.049,1.029,9.564,9.564,0,0,0,.049,1.031,2.414,2.414,0,0,0,.189.742,1.03,1.03,0,0,0,.373.454,1.29,1.29,0,0,0,1.215,0,1.043,1.043,0,0,0,.381-.461,2.441,2.441,0,0,0,.182-.754,9.965,9.965,0,0,0,.049-1.02c0-.406-.015-.746-.043-1.019a2.5,2.5,0,0,0-.184-.735,1.032,1.032,0,0,0-.365-.465,1.1,1.1,0,0,0-.627-.16,1.124,1.124,0,0,0-.61.153A.985.985,0,0,0,90.576,60.678Z"/><path d="M84.967,62.342a1.345,1.345,0,0,1-.309-.422,1.528,1.528,0,0,1-.121-.656,1.8,1.8,0,0,1,.145-.731,1.74,1.74,0,0,1,.406-.578,1.838,1.838,0,0,1,.69-.4,2.731,2.731,0,0,1,.869-.131,3.97,3.97,0,0,1,.953.115,4.5,4.5,0,0,1,.769.252V60.6h-.058a3.187,3.187,0,0,0-.781-.363,2.842,2.842,0,0,0-.868-.144,1.83,1.83,0,0,0-.523.082,1.091,1.091,0,0,0-.449.242,1.139,1.139,0,0,0-.268.379,1.355,1.355,0,0,0-.088.523,1.175,1.175,0,0,0,.1.518.8.8,0,0,0,.275.322,1.071,1.071,0,0,0,.426.166,3.053,3.053,0,0,0,.539.045h.352v.648h-.274a1.622,1.622,0,0,0-.947.248.832.832,0,0,0-.354.725.711.711,0,0,0,.34.629,1.126,1.126,0,0,0,.36.141,2.26,2.26,0,0,0,.433.039,2.625,2.625,0,0,0,.789-.133,3.244,3.244,0,0,0,.789-.375H88.2v.816a3.769,3.769,0,0,1-.74.252,3.69,3.69,0,0,1-.9.115,3.224,3.224,0,0,1-.75-.078,1.841,1.841,0,0,1-.586-.25,1.213,1.213,0,0,1-.571-1.074A1.2,1.2,0,0,1,85,63.23a1.507,1.507,0,0,1,.807-.455v-.054a2.062,2.062,0,0,1-.43-.131A1.459,1.459,0,0,1,84.967,62.342Z"/><path class="cls-12" d="M1.736,59.785H1.361V56.941h.375Z"/><path class="cls-12" d="M4.607,59.785H4.23L2.8,57.593v2.192H2.421V56.941H2.8l1.436,2.2v-2.2h.373Z"/><path class="cls-12" d="M6.9,58.513H5.271v-.295H6.9Z"/><path class="cls-12" d="M126.27,58.454a1.757,1.757,0,0,1-.141.73,1.073,1.073,0,0,1-.4.476,1.1,1.1,0,0,1-1.6-.472,1.691,1.691,0,0,1-.147-.708v-.2a1.756,1.756,0,0,1,.142-.725,1.087,1.087,0,0,1,.4-.481,1.075,1.075,0,0,1,.6-.167,1.1,1.1,0,0,1,.6.165,1.061,1.061,0,0,1,.4.478,1.764,1.764,0,0,1,.141.73Zm-.373-.183a1.28,1.28,0,0,0-.2-.777.673.673,0,0,0-.569-.27.661.661,0,0,0-.559.27,1.252,1.252,0,0,0-.21.751v.209a1.274,1.274,0,0,0,.206.771.723.723,0,0,0,1.13.016,1.279,1.279,0,0,0,.205-.759Z"/><path class="cls-12" d="M128.834,56.941v1.933a.91.91,0,0,1-.253.659,1.021,1.021,0,0,1-.68.287l-.1,0a1.063,1.063,0,0,1-.744-.252.9.9,0,0,1-.281-.694V56.941h.371v1.926a.593.593,0,0,0,.654.65.657.657,0,0,0,.487-.17.647.647,0,0,0,.169-.478V56.941Z"/><path class="cls-12" d="M131.391,57.247h-.914v2.538H130.1V57.247h-.912v-.306h2.2Z"/><path class="cls-12" d="M133.442,58.513h-1.631v-.295h1.631Z"/><path class="cls-12" d="M126.266,12.512a1.757,1.757,0,0,1-.141.73,1.065,1.065,0,0,1-.4.475,1.1,1.1,0,0,1-1.6-.472,1.7,1.7,0,0,1-.147-.708v-.205a1.751,1.751,0,0,1,.142-.724,1.056,1.056,0,0,1,1-.649,1.113,1.113,0,0,1,.6.165,1.064,1.064,0,0,1,.4.479,1.762,1.762,0,0,1,.141.729Zm-.373-.184a1.276,1.276,0,0,0-.2-.776.672.672,0,0,0-.569-.27.662.662,0,0,0-.559.27,1.25,1.25,0,0,0-.21.751v.209a1.274,1.274,0,0,0,.206.771.722.722,0,0,0,1.13.015,1.268,1.268,0,0,0,.2-.759Z"/><path class="cls-12" d="M128.83,11v1.934a.906.906,0,0,1-.253.658,1.016,1.016,0,0,1-.68.287l-.1,0a1.064,1.064,0,0,1-.744-.252.9.9,0,0,1-.281-.693V11h.371v1.926a.593.593,0,0,0,.654.651.657.657,0,0,0,.487-.17.65.65,0,0,0,.169-.479V11Z"/><path class="cls-12" d="M131.387,11.305h-.914v2.537H130.1V11.305h-.912V11h2.2Z"/><path class="cls-12" d="M132.787,12.317h.793v.342h-.793v.9h-.363v-.9h-.793v-.342h.793v-.83h.363Z"/><path class="cls-12" d="M1.736,13.842H1.361V11h.375Z"/><path class="cls-12" d="M4.607,13.842H4.23L2.8,11.651v2.191H2.421V11H2.8l1.436,2.2V11h.373Z"/><path class="cls-12" d="M6.251,12.317h.793v.342H6.251v.9H5.888v-.9H5.1v-.342h.793v-.83h.363Z"/><g id="конденсатор"><rect class="cls-4" x="66.126" y="31.633" width="4.26" height="3.44"/><rect class="cls-4" x="66.166" y="38.763" width="4.26" height="3.44"/><rect class="cls-13" x="66.466" y="34.373" width="3.61" height="5.16"/></g><g id="конденсатор-2" data-name="конденсатор"><rect class="cls-4" x="107.994" y="14.807" width="3.44" height="4.26"/><rect class="cls-4" x="115.124" y="14.767" width="3.44" height="4.26"/><rect class="cls-13" x="110.734" y="15.117" width="5.16" height="3.61"/></g><g id="конденсатор-3"><rect class="cls-4" x="79.792" y="2.408" width="4.61" height="5.74"/><rect class="cls-4" x="70.222" y="2.468" width="4.61" height="5.74"/><rect class="cls-13" x="73.192" y="2.868" width="7.84" height="4.87"/></g><g id="Катушка"><rect class="cls-14" x="30.398" y="2.358" width="34.724" height="34.441"/><path class="cls-15" d="M42.752,2.358H52.768a12.035,12.035,0,0,1,12,12V24.8a12.035,12.035,0,0,1-12,12H42.752a12.035,12.035,0,0,1-12-12V14.358A12.035,12.035,0,0,1,42.752,2.358Z"/><circle class="cls-16" cx="47.76" cy="19.579" r="14.173"/><path class="cls-17" d="M59.121,28.054a2.126,2.126,0,1,1-3.016,2.981"/><path class="cls-17" d="M39.414,31.035A2.126,2.126,0,1,1,36.4,28.054"/><path class="cls-17" d="M36.424,11.07A2.126,2.126,0,1,1,39.443,8.1"/><path class="cls-17" d="M56.076,8.1A2.126,2.126,0,1,1,59.1,11.07"/><path class="cls-18" d="M45.563,20.032h-.648V21.26h-.562V20.032H42.264v-.674L44.376,16.9h.539v2.666h.648Zm-1.21-.469V17.6l-1.691,1.968Z"/><path class="cls-18" d="M49.289,17.551,47.315,21.26h-.627l2.1-3.85H46.3V16.9h2.985Z"/><path class="cls-18" d="M53.086,19.077a3.162,3.162,0,0,1-.368,1.724,1.46,1.46,0,0,1-2.287-.007,3.189,3.189,0,0,1-.362-1.711,3.176,3.176,0,0,1,.366-1.718,1.45,1.45,0,0,1,2.289.008A3.2,3.2,0,0,1,53.086,19.077Zm-.77,1.33a1.965,1.965,0,0,0,.138-.558,6.792,6.792,0,0,0,.037-.772,6.91,6.91,0,0,0-.037-.773,1.806,1.806,0,0,0-.141-.557.772.772,0,0,0-.281-.34.825.825,0,0,0-.455-.114.834.834,0,0,0-.455.114.765.765,0,0,0-.286.346,1.827,1.827,0,0,0-.136.565,7.209,7.209,0,0,0-.037.765,7.383,7.383,0,0,0,.033.765,1.856,1.856,0,0,0,.137.55.771.771,0,0,0,.274.349.825.825,0,0,0,.47.12.844.844,0,0,0,.457-.114A.739.739,0,0,0,52.316,20.407Z"/></g><g id="Катушка-2" data-name="Катушка"><rect class="cls-14" x="71.4" y="12.359" width="34.724" height="34.441"/><path class="cls-15" d="M83.755,12.359H93.77a12.035,12.035,0,0,1,12,12V34.8a12.035,12.035,0,0,1-12,12H83.755a12.035,12.035,0,0,1-12-12V24.359A12.035,12.035,0,0,1,83.755,12.359Z"/><circle class="cls-16" cx="88.762" cy="29.579" r="14.173"/><path class="cls-17" d="M100.123,38.055a2.126,2.126,0,1,1-3.015,2.981"/><path class="cls-17" d="M80.416,41.035A2.126,2.126,0,1,1,77.4,38.054"/><path class="cls-17" d="M77.426,21.071a2.126,2.126,0,1,1,3.02-2.968"/><path class="cls-17" d="M97.079,18.1A2.126,2.126,0,1,1,100.1,21.07"/><path class="cls-18" d="M88.309,27.382v-.647H87.081v-.563h1.228V24.083h.674L91.444,26.2v.539H88.778v.647Zm.469-1.21h1.968l-1.968-1.69Z"/><path class="cls-18" d="M90.79,31.109l-3.709-1.975v-.627l3.85,2.1V28.123h.513v2.986Z"/><path class="cls-18" d="M89.264,34.906a3.152,3.152,0,0,1-1.724-.369,1.458,1.458,0,0,1,.007-2.287,4.22,4.22,0,0,1,3.429,0,1.451,1.451,0,0,1-.008,2.289A3.2,3.2,0,0,1,89.264,34.906Zm-1.33-.771a2.009,2.009,0,0,0,.557.139,7.066,7.066,0,0,0,.773.037,7.158,7.158,0,0,0,.773-.037,1.833,1.833,0,0,0,.557-.142.77.77,0,0,0,.34-.28.965.965,0,0,0,0-.91.77.77,0,0,0-.346-.286,1.772,1.772,0,0,0-.565-.136,6.953,6.953,0,0,0-.765-.037q-.457,0-.765.032a1.826,1.826,0,0,0-.55.138.763.763,0,0,0-.349.273.828.828,0,0,0-.12.471.846.846,0,0,0,.114.457A.737.737,0,0,0,87.934,34.135Z"/></g><g id="микросхема"><rect class="cls-19" x="64.06" y="53.112" width="4.255" height="3.438"/><rect class="cls-19" x="64.114" y="62.766" width="4.255" height="3.438"/><rect class="cls-19" x="64.114" y="57.939" width="4.255" height="3.438"/><rect class="cls-19" x="64.114" y="48.269" width="4.255" height="3.438"/><rect class="cls-19" x="64.114" y="43.442" width="4.255" height="3.438"/><rect class="cls-20" x="32.163" y="41.649" width="22.961" height="26.362"/><circle class="cls-21" cx="53.58" cy="66.609" r="0.543"/><polygon class="cls-22" points="28.911 68.72 32.163 68.72 32.163 40.94 28.911 40.94 27.911 45.373 27.911 64.328 28.911 68.72"/><rect class="cls-23" x="55.124" y="63.082" width="12.756" height="2.835"/><rect class="cls-23" x="55.124" y="58.247" width="12.756" height="2.835"/><rect class="cls-23" x="55.124" y="53.413" width="12.756" height="2.835"/><rect class="cls-23" x="55.124" y="48.578" width="12.756" height="2.835"/><rect class="cls-23" x="55.124" y="43.743" width="12.756" height="2.835"/><rect class="cls-24" x="32.164" y="40.94" width="22.961" height="0.709"/><rect class="cls-24" x="32.163" y="68.011" width="22.961" height="0.709"/><rect class="cls-24" x="31.495" y="40.94" width="0.709" height="27.78"/></g><g id="диод"><rect class="cls-19" x="88.725" y="2.335" width="2.904" height="6.047"/><rect class="cls-19" x="102.528" y="2.382" width="2.904" height="6.047"/><rect class="cls-25" x="91.629" y="1.726" width="10.792" height="7.358"/><path class="cls-6" d="M95.65,5.551a.4.4,0,0,1-.151.308.594.594,0,0,1-.181.1.813.813,0,0,1-.251.035,1.276,1.276,0,0,1-.283-.029,1.479,1.479,0,0,1-.255-.087V5.634h.013a.79.79,0,0,0,.255.141.846.846,0,0,0,.272.05.5.5,0,0,0,.28-.067.208.208,0,0,0,.1-.18.2.2,0,0,0-.046-.143.339.339,0,0,0-.145-.071,1.335,1.335,0,0,0-.158-.032c-.058-.008-.118-.019-.182-.032a.553.553,0,0,1-.287-.14.368.368,0,0,1-.093-.259.361.361,0,0,1,.155-.3.627.627,0,0,1,.391-.117,1.289,1.289,0,0,1,.508.1v.228h-.014a.649.649,0,0,0-.218-.116.844.844,0,0,0-.277-.047.434.434,0,0,0-.249.065.193.193,0,0,0-.094.166.2.2,0,0,0,.046.142.314.314,0,0,0,.165.079c.042.01.1.02.178.034s.142.026.195.04a.5.5,0,0,1,.245.129A.348.348,0,0,1,95.65,5.551Z"/><path class="cls-6" d="M97,5.551a.4.4,0,0,1-.15.308.6.6,0,0,1-.182.1.8.8,0,0,1-.251.035,1.273,1.273,0,0,1-.282-.029,1.518,1.518,0,0,1-.256-.087V5.634h.014a.79.79,0,0,0,.255.141.84.84,0,0,0,.271.05.5.5,0,0,0,.281-.067.208.208,0,0,0,.1-.18.191.191,0,0,0-.047-.143.334.334,0,0,0-.144-.071,1.377,1.377,0,0,0-.158-.032c-.058-.008-.119-.019-.182-.032a.549.549,0,0,1-.287-.14.384.384,0,0,1,.061-.558.632.632,0,0,1,.392-.117,1.3,1.3,0,0,1,.508.1v.228h-.014A.655.655,0,0,0,96.7,4.7a.834.834,0,0,0-.276-.047.43.43,0,0,0-.249.065.192.192,0,0,0-.095.166.2.2,0,0,0,.047.142A.31.31,0,0,0,96.3,5.1c.042.01.1.02.178.034s.141.026.195.04a.492.492,0,0,1,.244.129A.343.343,0,0,1,97,5.551Z"/><path class="cls-6" d="M98.24,5.5A.511.511,0,0,1,98.2,5.7a.434.434,0,0,1-.1.156.474.474,0,0,1-.167.1A.634.634,0,0,1,97.709,6a1.06,1.06,0,0,1-.416-.085V5.705h.014a.874.874,0,0,0,.187.086.664.664,0,0,0,.211.036.431.431,0,0,0,.134-.02.274.274,0,0,0,.116-.068.286.286,0,0,0,.066-.1.436.436,0,0,0,.021-.136.3.3,0,0,0-.025-.127.224.224,0,0,0-.072-.083.325.325,0,0,0-.123-.052.754.754,0,0,0-.164-.016,1.1,1.1,0,0,0-.165.012c-.053.008-.1.016-.137.024V4.512h.875v.17h-.687v.387l.086-.006.076,0a.968.968,0,0,1,.207.02.487.487,0,0,1,.163.071.372.372,0,0,1,.122.139A.478.478,0,0,1,98.24,5.5Z"/><path class="cls-6" d="M99.557,5.556h-.216v.41h-.187v-.41h-.7V5.332l.7-.82h.18V5.4h.216Zm-.4-.156V4.744L98.59,5.4Z"/></g><g id="диод-2" data-name="диод"><rect class="cls-19" x="19.005" y="64.34" width="6.047" height="2.904"/><rect class="cls-19" x="19.053" y="50.537" width="6.047" height="2.904"/><rect class="cls-25" x="18.397" y="53.548" width="7.358" height="10.792"/><path class="cls-6" d="M22.221,60.32a.389.389,0,0,1,.168.039.4.4,0,0,1,.141.111.577.577,0,0,1,.1.182.776.776,0,0,1,.035.251,1.216,1.216,0,0,1-.029.282,1.358,1.358,0,0,1-.087.256H22.3v-.014a.812.812,0,0,0,.142-.255A.832.832,0,0,0,22.5,60.9a.5.5,0,0,0-.067-.281.208.208,0,0,0-.18-.1.189.189,0,0,0-.142.047.334.334,0,0,0-.072.144c-.012.049-.023.1-.032.158s-.018.119-.032.182a.534.534,0,0,1-.14.287.383.383,0,0,1-.557-.061.632.632,0,0,1-.117-.392,1.231,1.231,0,0,1,.029-.281,1.319,1.319,0,0,1,.072-.227h.229v.014a.674.674,0,0,0-.117.219.837.837,0,0,0-.046.276.43.43,0,0,0,.064.249.193.193,0,0,0,.166.095.207.207,0,0,0,.143-.047.31.31,0,0,0,.079-.165c.009-.042.02-.1.033-.178s.026-.141.04-.2a.5.5,0,0,1,.13-.244A.339.339,0,0,1,22.221,60.32Z"/><path class="cls-6" d="M22.221,58.974a.4.4,0,0,1,.168.039.414.414,0,0,1,.141.111.588.588,0,0,1,.1.182.776.776,0,0,1,.035.251,1.216,1.216,0,0,1-.029.282,1.358,1.358,0,0,1-.087.256H22.3v-.014a.818.818,0,0,0,.142-.254.843.843,0,0,0,.049-.272.5.5,0,0,0-.067-.28.207.207,0,0,0-.18-.1.193.193,0,0,0-.142.047.333.333,0,0,0-.072.145c-.012.048-.023.1-.032.158s-.018.118-.032.181a.542.542,0,0,1-.14.288.365.365,0,0,1-.258.092.357.357,0,0,1-.3-.154.63.63,0,0,1-.117-.392,1.231,1.231,0,0,1,.029-.281,1.28,1.28,0,0,1,.072-.226h.229v.013a.674.674,0,0,0-.117.219.841.841,0,0,0-.046.276.43.43,0,0,0,.064.249.193.193,0,0,0,.166.095.207.207,0,0,0,.143-.047.31.31,0,0,0,.079-.165c.009-.042.02-.1.033-.178s.026-.141.04-.2a.51.51,0,0,1,.13-.244A.339.339,0,0,1,22.221,58.974Z"/><path class="cls-6" d="M22.174,57.729a.527.527,0,0,1,.194.037.432.432,0,0,1,.157.1.457.457,0,0,1,.105.167.625.625,0,0,1,.036.225,1.088,1.088,0,0,1-.024.23.943.943,0,0,1-.061.186h-.206v-.014a.853.853,0,0,0,.087-.187.657.657,0,0,0,.035-.211.462.462,0,0,0-.019-.134.266.266,0,0,0-.069-.116.275.275,0,0,0-.1-.065.4.4,0,0,0-.136-.022.3.3,0,0,0-.127.025.234.234,0,0,0-.083.073.327.327,0,0,0-.052.123.815.815,0,0,0-.015.163,1.247,1.247,0,0,0,.011.165q.012.081.024.138h-.749v-.875h.171v.686h.387l-.006-.086c0-.029,0-.054,0-.076a.975.975,0,0,1,.02-.207.458.458,0,0,1,.071-.163.365.365,0,0,1,.138-.121A.481.481,0,0,1,22.174,57.729Z"/><path class="cls-6" d="M22.227,56.412v.216h.409v.188h-.409v.7H22l-.82-.7v-.18h.889v-.216Zm-.156.4h-.657l.657.563Z"/></g><g id="Конденсатор-3-2" data-name="Конденсатор"><rect class="cls-26" x="12.825" y="42.971" width="3.438" height="4.255"/><rect class="cls-26" x="13.555" y="16.039" width="3.438" height="4.255"/><path class="cls-24" d="M25.881,43.255H3.2V25.68l5.67-5.669H20.211l5.67,5.669Z"/><path class="cls-27" d="M4.405,36.717a11.339,11.339,0,1,1,20.278-.007"/><path class="cls-28" d="M4.415,36.712l20.268,0a11.342,11.342,0,0,1-20.278.007Z"/><path d="M11.045,33.665v2.461h-.51c-.146-.172-.293-.342-.439-.514s-.292-.331-.438-.48a4.727,4.727,0,0,0-.721-.642,1.035,1.035,0,0,0-.577-.173.557.557,0,0,0-.444.186.783.783,0,0,0-.159.522,1.632,1.632,0,0,0,.078.48,1.958,1.958,0,0,0,.239.506v.024H7.562a2.164,2.164,0,0,1-.156-.462,2.32,2.32,0,0,1-.072-.56,1.312,1.312,0,0,1,.27-.877.909.909,0,0,1,.731-.317,1.367,1.367,0,0,1,.387.052,1.346,1.346,0,0,1,.341.156,2.277,2.277,0,0,1,.3.222c.1.086.206.19.325.312q.256.261.5.54c.161.185.309.358.446.519V33.665Z"/><path d="M11.045,30.487v2.461h-.51l-.439-.515c-.147-.172-.292-.331-.438-.48a4.727,4.727,0,0,0-.721-.642,1.043,1.043,0,0,0-.577-.173.557.557,0,0,0-.444.187.78.78,0,0,0-.159.521,1.638,1.638,0,0,0,.078.481,1.967,1.967,0,0,0,.239.505v.025H7.562a2.175,2.175,0,0,1-.156-.463,2.313,2.313,0,0,1-.072-.56,1.312,1.312,0,0,1,.27-.877.909.909,0,0,1,.731-.317,1.366,1.366,0,0,1,.387.053,1.342,1.342,0,0,1,.341.155,2.287,2.287,0,0,1,.3.223c.1.086.206.189.325.311.171.174.336.355.5.54s.309.359.446.52V30.487Z"/><path d="M9.227,27.312a2.626,2.626,0,0,1,1.436.307,1.217,1.217,0,0,1-.006,1.907,2.663,2.663,0,0,1-1.425.3A2.655,2.655,0,0,1,7.8,29.522a1.21,1.21,0,0,1,.008-1.908A2.657,2.657,0,0,1,9.227,27.312Zm1.108.642a1.7,1.7,0,0,0-.466-.116,5.851,5.851,0,0,0-.642-.03,6,6,0,0,0-.645.03,1.548,1.548,0,0,0-.464.118.644.644,0,0,0-.283.234.693.693,0,0,0-.095.38.7.7,0,0,0,.095.38.654.654,0,0,0,.288.237,1.5,1.5,0,0,0,.471.114,5.967,5.967,0,0,0,.638.03,5.938,5.938,0,0,0,.636-.027,1.568,1.568,0,0,0,.459-.114.643.643,0,0,0,.291-.229.681.681,0,0,0,.1-.391.7.7,0,0,0-.1-.381A.619.619,0,0,0,10.335,27.954Z"/><path d="M15.3,33.985a.81.81,0,0,1,.264-.193.959.959,0,0,1,.41-.076,1.132,1.132,0,0,1,.456.09,1.1,1.1,0,0,1,.361.254,1.145,1.145,0,0,1,.253.432,1.7,1.7,0,0,1,.082.543,2.478,2.478,0,0,1-.072.6,2.858,2.858,0,0,1-.157.481h-.511v-.036a1.994,1.994,0,0,0,.228-.489,1.8,1.8,0,0,0,.089-.542,1.157,1.157,0,0,0-.05-.327.684.684,0,0,0-.152-.28.716.716,0,0,0-.237-.168.851.851,0,0,0-.327-.055.729.729,0,0,0-.323.063.487.487,0,0,0-.2.172.7.7,0,0,0-.1.265,1.9,1.9,0,0,0-.027.338v.219H14.87V35.1a1.011,1.011,0,0,0-.155-.593.518.518,0,0,0-.453-.221.443.443,0,0,0-.393.212.7.7,0,0,0-.088.225,1.393,1.393,0,0,0-.024.271,1.613,1.613,0,0,0,.083.494,2.024,2.024,0,0,0,.234.493v.024h-.51a2.322,2.322,0,0,1-.158-.463,2.362,2.362,0,0,1-.072-.559,2.041,2.041,0,0,1,.049-.469,1.172,1.172,0,0,1,.156-.367.759.759,0,0,1,.672-.356.749.749,0,0,1,.529.213.943.943,0,0,1,.284.5h.034a1.276,1.276,0,0,1,.082-.267A.875.875,0,0,1,15.3,33.985Z"/><path d="M15.891,30.516a1.287,1.287,0,0,1,.485.092,1.122,1.122,0,0,1,.391.254,1.213,1.213,0,0,1,.263.419,1.613,1.613,0,0,1,.091.563,2.62,2.62,0,0,1-.062.573,2.364,2.364,0,0,1-.151.466h-.514V32.85a2.191,2.191,0,0,0,.216-.469,1.678,1.678,0,0,0,.088-.527,1.142,1.142,0,0,0-.048-.336.7.7,0,0,0-.171-.289.686.686,0,0,0-.251-.163.981.981,0,0,0-.34-.055.7.7,0,0,0-.317.065.531.531,0,0,0-.207.179.774.774,0,0,0-.131.309,1.949,1.949,0,0,0-.038.407,2.77,2.77,0,0,0,.029.413c.019.133.039.247.058.343H13.41V30.539h.427v1.717H14.8c-.006-.07-.011-.141-.015-.215s0-.136,0-.19a2.407,2.407,0,0,1,.05-.518,1.17,1.17,0,0,1,.178-.407.907.907,0,0,1,.347-.3A1.164,1.164,0,0,1,15.891,30.516Z"/><path d="M13.41,26.807l3.635,1.323v.645L13.41,30.1V29.58l3.2-1.139L13.41,27.3Z"/><path d="M21.585,33.294a2.482,2.482,0,0,1,.69.086,1.108,1.108,0,0,1,.76.725,2.025,2.025,0,0,1,0,1.181,1.11,1.11,0,0,1-.266.427,1.152,1.152,0,0,1-.484.284,2.4,2.4,0,0,1-.7.087H19.41V35.6h2.2a2.179,2.179,0,0,0,.466-.04.91.91,0,0,0,.31-.136.656.656,0,0,0,.239-.292,1.094,1.094,0,0,0,.081-.442,1.108,1.108,0,0,0-.08-.446.687.687,0,0,0-.24-.293.925.925,0,0,0-.318-.134,2.01,2.01,0,0,0-.446-.041H19.41v-.483Z"/><path d="M19.84,29.779v1.3h3.205v.484H19.84v1.3h-.43V29.779Z"/><polyline class="cls-20" points="22.257 40.172 23.099 39.37 24.323 37.719 25.6 35.915 25.881 35.915 25.881 43.255 18.541 43.255 18.541 42.975 20.345 41.698 21.996 40.473 22.798 39.631"/><polyline class="cls-20" points="6.828 40.172 5.985 39.37 4.761 37.719 3.484 35.915 3.203 35.915 3.203 43.255 10.543 43.255 10.543 42.975 8.739 41.698 7.088 40.473 6.286 39.631"/><polyline class="cls-20" points="20.211 20.011 18.541 20.011 18.541 20.291 20.345 21.568 21.996 22.793 22.798 23.635 22.257 23.093 23.099 23.896 24.323 25.547 25.6 27.351 25.881 27.351 25.881 25.68"/><polyline class="cls-20" points="3.203 25.68 3.203 27.351 3.484 27.351 4.761 25.547 5.985 23.896 6.828 23.093 6.286 23.635 7.088 22.793 8.739 21.568 10.543 20.291 10.543 20.011 8.873 20.011"/></g><g id="Конденсатор-4" data-name="Конденсатор"><rect class="cls-26" x="119.832" y="46.972" width="3.438" height="4.255"/><rect class="cls-26" x="120.561" y="20.039" width="3.438" height="4.255"/><path class="cls-24" d="M132.887,47.255H110.21V29.68l5.669-5.669h11.339l5.669,5.669Z"/><path class="cls-27" d="M111.411,40.718a11.339,11.339,0,1,1,20.279-.008"/><path class="cls-28" d="M111.421,40.713l20.269,0a11.343,11.343,0,0,1-20.279.008Z"/><path d="M117.052,37.665v2.461h-.51c-.146-.172-.293-.342-.439-.514s-.292-.331-.438-.48a4.727,4.727,0,0,0-.721-.642,1.038,1.038,0,0,0-.578-.173.556.556,0,0,0-.443.186.783.783,0,0,0-.159.522,1.632,1.632,0,0,0,.078.48,1.958,1.958,0,0,0,.239.506v.024h-.512a2.216,2.216,0,0,1-.157-.462,2.368,2.368,0,0,1-.071-.56,1.312,1.312,0,0,1,.27-.877.908.908,0,0,1,.731-.317,1.367,1.367,0,0,1,.387.052,1.346,1.346,0,0,1,.341.156,2.2,2.2,0,0,1,.3.222c.1.086.206.19.326.312q.257.261.5.54c.161.185.309.358.446.519V37.665Z"/><path d="M117.052,34.487v2.461h-.51l-.439-.515c-.147-.172-.292-.331-.438-.48a4.727,4.727,0,0,0-.721-.642,1.046,1.046,0,0,0-.578-.173.557.557,0,0,0-.443.187.78.78,0,0,0-.159.521,1.638,1.638,0,0,0,.078.481,1.967,1.967,0,0,0,.239.505v.025h-.512a2.227,2.227,0,0,1-.157-.463,2.361,2.361,0,0,1-.071-.56,1.312,1.312,0,0,1,.27-.877.908.908,0,0,1,.731-.317,1.366,1.366,0,0,1,.387.053,1.342,1.342,0,0,1,.341.155,2.214,2.214,0,0,1,.3.223c.1.086.206.189.326.311.171.174.336.355.5.54s.309.359.446.52V34.487Z"/><path d="M115.234,31.312a2.626,2.626,0,0,1,1.436.307,1.217,1.217,0,0,1-.006,1.907,3.521,3.521,0,0,1-2.858,0,1.21,1.21,0,0,1,.008-1.908A2.657,2.657,0,0,1,115.234,31.312Zm1.108.642a1.7,1.7,0,0,0-.466-.116,5.863,5.863,0,0,0-.642-.03,6,6,0,0,0-.645.03,1.54,1.54,0,0,0-.464.118.644.644,0,0,0-.283.234.693.693,0,0,0-.1.38.7.7,0,0,0,.1.38.654.654,0,0,0,.288.237,1.49,1.49,0,0,0,.471.114,7.134,7.134,0,0,0,1.274,0,1.576,1.576,0,0,0,.459-.114.643.643,0,0,0,.291-.229.681.681,0,0,0,.1-.391.7.7,0,0,0-.095-.381A.619.619,0,0,0,116.342,31.954Z"/><path d="M121.3,37.985a.8.8,0,0,1,.264-.193.959.959,0,0,1,.41-.076,1.132,1.132,0,0,1,.456.09,1.1,1.1,0,0,1,.361.254,1.172,1.172,0,0,1,.253.432,1.7,1.7,0,0,1,.082.543,2.478,2.478,0,0,1-.072.6,2.858,2.858,0,0,1-.157.481h-.511v-.036a1.957,1.957,0,0,0,.227-.489,1.772,1.772,0,0,0,.09-.542,1.157,1.157,0,0,0-.05-.327.7.7,0,0,0-.152-.28.716.716,0,0,0-.237-.168.851.851,0,0,0-.327-.055.734.734,0,0,0-.324.063.49.49,0,0,0-.2.172.685.685,0,0,0-.1.265,1.9,1.9,0,0,0-.028.338v.219h-.405V39.1a1.019,1.019,0,0,0-.155-.593.519.519,0,0,0-.453-.221.443.443,0,0,0-.393.212.7.7,0,0,0-.088.225,1.393,1.393,0,0,0-.024.271,1.613,1.613,0,0,0,.083.494,2.024,2.024,0,0,0,.234.493v.024h-.51a2.627,2.627,0,0,1-.23-1.022,2.041,2.041,0,0,1,.049-.469,1.172,1.172,0,0,1,.156-.367.756.756,0,0,1,.672-.356.745.745,0,0,1,.528.213.944.944,0,0,1,.285.5h.034a1.219,1.219,0,0,1,.082-.267A.875.875,0,0,1,121.3,37.985Z"/><path d="M121.9,34.516a1.287,1.287,0,0,1,.485.092,1.122,1.122,0,0,1,.391.254,1.2,1.2,0,0,1,.262.419,1.59,1.59,0,0,1,.092.563,2.62,2.62,0,0,1-.062.573,2.364,2.364,0,0,1-.151.466H122.4V36.85a2.143,2.143,0,0,0,.215-.469,1.652,1.652,0,0,0,.089-.527,1.111,1.111,0,0,0-.049-.336.691.691,0,0,0-.421-.452.981.981,0,0,0-.34-.055.712.712,0,0,0-.318.065.538.538,0,0,0-.207.179.787.787,0,0,0-.13.309,1.946,1.946,0,0,0-.039.407,2.768,2.768,0,0,0,.03.413c.019.133.039.247.058.343h-1.872V34.539h.427v1.717h.967c-.006-.07-.011-.141-.015-.215s-.005-.136-.005-.19a2.407,2.407,0,0,1,.05-.518,1.17,1.17,0,0,1,.178-.407.911.911,0,0,1,.346-.3A1.171,1.171,0,0,1,121.9,34.516Z"/><path d="M119.417,30.807l3.635,1.323v.645L119.417,34.1V33.58l3.2-1.139-3.2-1.141Z"/><path d="M127.592,37.294a2.47,2.47,0,0,1,.689.086,1.107,1.107,0,0,1,.761.725,1.787,1.787,0,0,1,.086.586,1.755,1.755,0,0,1-.091.595,1.1,1.1,0,0,1-.265.427,1.152,1.152,0,0,1-.484.284,2.4,2.4,0,0,1-.7.087h-2.175V39.6h2.2a2.183,2.183,0,0,0,.467-.04.91.91,0,0,0,.31-.136.662.662,0,0,0,.239-.292,1.094,1.094,0,0,0,.081-.442,1.108,1.108,0,0,0-.08-.446.687.687,0,0,0-.24-.293.922.922,0,0,0-.319-.134,2,2,0,0,0-.445-.041h-2.212v-.483Z"/><path d="M125.847,33.779v1.3h3.2v.484h-3.2v1.3h-.43V33.779Z"/><polyline class="cls-20" points="129.263 44.173 130.106 43.37 131.33 41.72 132.607 39.915 132.887 39.915 132.887 47.255 125.548 47.255 125.548 46.975 127.352 45.698 129.003 44.474 129.805 43.631"/><polyline class="cls-20" points="113.834 44.173 112.992 43.37 111.767 41.72 110.491 39.915 110.21 39.915 110.21 47.255 117.55 47.255 117.55 46.975 115.746 45.698 114.095 44.474 113.293 43.631"/><polyline class="cls-20" points="127.218 24.011 125.548 24.011 125.548 24.292 127.352 25.568 129.003 26.793 129.805 27.635 129.263 27.094 130.106 27.896 131.33 29.547 132.607 31.351 132.887 31.351 132.887 29.68"/><polyline class="cls-20" points="110.21 29.68 110.21 31.351 110.491 31.351 111.767 29.547 112.992 27.896 113.834 27.094 113.293 27.635 114.095 26.793 115.746 25.568 117.55 24.292 117.55 24.011 115.879 24.011"/></g><g id="Катушка_индуктивности" data-name="Катушка индуктивности"><path class="cls-26" d="M120.561,3.441h-4.47V9.152h4.47Z"/><path class="cls-26" d="M108.227,9.152h4.47V3.441h-4.47Z"/><polygon class="cls-29" points="119.586 1.991 117.67 1.652 119.587 1.652 119.586 1.652 119.586 1.991"/><polygon class="cls-29" points="119.586 10.594 117.67 10.932 119.587 10.932 119.586 10.932 119.586 10.594"/><polygon class="cls-29" points="109.239 10.594 111.156 10.932 109.238 10.932 109.239 10.932 109.239 10.594"/><polygon class="cls-29" points="109.239 1.991 111.156 1.652 109.238 1.652 109.239 1.652 109.239 1.991"/><path class="cls-28" d="M119.717,10.726V1.867c0-.46-10.646-.459-10.646,0v8.859C109.071,11.185,119.717,11.185,119.717,10.726Z"/><ellipse class="cls-30" cx="114.394" cy="6.296" rx="0.683" ry="0.612"/><path d="M109.714,4.665V2.7h.408q.177.2.352.411c.117.137.234.265.349.384a3.789,3.789,0,0,0,.579.513.826.826,0,0,0,.461.139.443.443,0,0,0,.355-.15.621.621,0,0,0,.127-.417,1.32,1.32,0,0,0-.063-.384,1.552,1.552,0,0,0-.191-.405V2.769h.41a1.8,1.8,0,0,1,.125.37,1.872,1.872,0,0,1,.057.448,1.047,1.047,0,0,1-.215.7.733.733,0,0,1-.586.254,1.054,1.054,0,0,1-.582-.166,1.888,1.888,0,0,1-.238-.178c-.078-.069-.164-.152-.26-.249q-.206-.21-.4-.432c-.129-.148-.249-.287-.358-.416V4.665Z"/><path d="M109.714,7.722v-.5l1.156-.973V5.7h-1.156V5.316h2.908V6.13a2.363,2.363,0,0,1-.033.44.923.923,0,0,1-.123.316.72.72,0,0,1-.25.247.744.744,0,0,1-.385.089.855.855,0,0,1-.525-.158.963.963,0,0,1-.32-.436Zm2.09-.9a.541.541,0,0,0,.223-.044.388.388,0,0,0,.162-.146.54.54,0,0,0,.08-.2,1.53,1.53,0,0,0,.021-.271V5.7h-1.1v.391a1.369,1.369,0,0,0,.033.32.5.5,0,0,0,.119.233.538.538,0,0,0,.189.13A.743.743,0,0,0,111.8,6.818Z"/><path d="M109.714,9.99V8.021h.408c.118.137.235.273.352.411s.234.266.349.384a3.734,3.734,0,0,0,.579.513.826.826,0,0,0,.461.139.445.445,0,0,0,.355-.149.624.624,0,0,0,.127-.417,1.331,1.331,0,0,0-.063-.385,1.532,1.532,0,0,0-.191-.4v-.02h.41a1.8,1.8,0,0,1,.125.37,1.878,1.878,0,0,1,.057.448,1.05,1.05,0,0,1-.215.7.733.733,0,0,1-.586.254,1.1,1.1,0,0,1-.309-.042A1.136,1.136,0,0,1,111.3,9.7a2,2,0,0,1-.238-.179c-.078-.069-.164-.152-.26-.249-.137-.14-.269-.283-.4-.432s-.249-.287-.358-.416V9.99Z"/></g></g></svg>