<svg id="Layer_1" data-name="Layer 1" xmlns="http://www.w3.org/2000/svg" viewBox="0 0 134.934 70.021"><defs><style>.cls-1{fill:#0f4bb5;}.cls-2{fill:lime;}.cls-3,.cls-6{fill:none;}.cls-3{stroke:#e8dfcf;stroke-miterlimit:10;}.cls-4{fill:#e8dfcf;}.cls-5{fill:#fff;}.cls-6{stroke:#fff;stroke-linecap:round;stroke-linejoin:round;stroke-width:1.001px;}</style></defs><g id="bottom"><path class="cls-1" d="M0,0v70.02H134.93V0Zm129.08,65.59a1.42,1.42,0,1,1,1.42,1.42A1.425,1.425,0,0,1,129.08,65.591Zm0-61.17a1.42,1.42,0,1,1,1.42,1.42A1.417,1.417,0,0,1,129.08,4.421ZM114.02,7.6a4.535,4.535,0,1,1,4.54,4.53A4.537,4.537,0,0,1,114.02,7.6ZM11.91,62.421a4.535,4.535,0,1,1,4.54,4.54A4.535,4.535,0,0,1,11.91,62.421Zm-6-58a1.42,1.42,0,1,1-1.42-1.41A1.419,1.419,0,0,1,5.91,4.421ZM3,65.591A1.4,1.4,0,0,1,4.2,64.2a1.5,1.5,0,0,1,.22-.02,1.415,1.415,0,0,1,.03,2.83H4.42A1.419,1.419,0,0,1,3,65.591Z" transform="translate(0)"/><path class="cls-2" d="M130.48,67.011h-.04a1.42,1.42,0,1,1,0-2.84.17.17,0,0,1,.07.01,1.415,1.415,0,0,0-.03,2.83Z" transform="translate(0)"/><circle class="cls-3" cx="118.427" cy="7.599" r="4.535"/><circle class="cls-3" cx="16.371" cy="62.366" r="4.535"/><path class="cls-4" d="M.005,0V8.85h8.85V0Zm4.43,5.84a1.415,1.415,0,1,1,1.41-1.42A1.413,1.413,0,0,1,4.435,5.84Z" transform="translate(0)"/><path class="cls-4" d="M126.084,0V8.85h8.85V0Zm4.43,5.84a1.415,1.415,0,1,1,1.41-1.42A1.413,1.413,0,0,1,130.514,5.84Z" transform="translate(0)"/><path class="cls-4" d="M126.084,61.166v8.85h8.85v-8.85Zm4.43,5.84a1.415,1.415,0,1,1,1.41-1.42A1.413,1.413,0,0,1,130.514,67.006Z" transform="translate(0)"/><path class="cls-4" d="M.005,61.166v8.85h8.85v-8.85Zm4.43,5.84a1.415,1.415,0,1,1,1.41-1.42A1.413,1.413,0,0,1,4.435,67.006Z" transform="translate(0)"/><path class="cls-5" d="M3.186,12.605a1.757,1.757,0,0,1-.141.73,1.065,1.065,0,0,1-.4.475,1.091,1.091,0,0,1-.6.164,1.09,1.09,0,0,1-.6-.165,1.1,1.1,0,0,1-.4-.47A1.691,1.691,0,0,1,.9,12.631v-.206a1.751,1.751,0,0,1,.142-.724,1.056,1.056,0,0,1,1-.649,1.113,1.113,0,0,1,.6.165,1.064,1.064,0,0,1,.4.479,1.762,1.762,0,0,1,.141.729Zm-.373-.183a1.278,1.278,0,0,0-.2-.777.673.673,0,0,0-.569-.27.661.661,0,0,0-.559.27,1.25,1.25,0,0,0-.21.751v.209a1.274,1.274,0,0,0,.206.771.664.664,0,0,0,.567.28.663.663,0,0,0,.563-.265,1.273,1.273,0,0,0,.205-.758Z" transform="translate(0)"/><path class="cls-5" d="M5.75,11.091v1.934a.906.906,0,0,1-.253.658,1.016,1.016,0,0,1-.68.287l-.1,0a1.063,1.063,0,0,1-.744-.252.9.9,0,0,1-.281-.693V11.091h.371v1.926a.593.593,0,0,0,.654.651A.657.657,0,0,0,5.2,13.5a.65.65,0,0,0,.169-.479V11.091Z" transform="translate(0)"/><path class="cls-5" d="M8.307,11.4H7.393v2.537H7.02V11.4H6.108v-.307h2.2Z" transform="translate(0)"/><path class="cls-5" d="M9.707,12.41H10.5v.342H9.707v.9H9.344v-.9H8.551V12.41h.793v-.83h.363Z" transform="translate(0)"/><path class="cls-5" d="M3.186,58.608a1.757,1.757,0,0,1-.141.73,1.065,1.065,0,0,1-.4.475,1.091,1.091,0,0,1-.6.164,1.09,1.09,0,0,1-.6-.165,1.1,1.1,0,0,1-.4-.471A1.684,1.684,0,0,1,.9,58.633v-.205a1.751,1.751,0,0,1,.142-.724,1.056,1.056,0,0,1,1-.649,1.113,1.113,0,0,1,.6.165,1.064,1.064,0,0,1,.4.479,1.762,1.762,0,0,1,.141.729Zm-.373-.183a1.278,1.278,0,0,0-.2-.777.673.673,0,0,0-.569-.27.661.661,0,0,0-.559.27,1.25,1.25,0,0,0-.21.751v.209a1.274,1.274,0,0,0,.206.771.664.664,0,0,0,.567.28.666.666,0,0,0,.563-.265,1.275,1.275,0,0,0,.205-.759Z" transform="translate(0)"/><path class="cls-5" d="M5.75,57.094v1.934a.906.906,0,0,1-.253.658,1.016,1.016,0,0,1-.68.287l-.1,0a1.063,1.063,0,0,1-.744-.252.9.9,0,0,1-.281-.693V57.094h.371V59.02a.593.593,0,0,0,.654.651A.657.657,0,0,0,5.2,59.5a.65.65,0,0,0,.169-.479V57.094Z" transform="translate(0)"/><path class="cls-5" d="M8.307,57.4H7.393v2.537H7.02V57.4H6.108v-.307h2.2Z" transform="translate(0)"/><path class="cls-5" d="M10.358,58.667H8.727v-.3h1.631Z" transform="translate(0)"/><path class="cls-5" d="M30.441,30.294V26.029h1.2a1.937,1.937,0,0,1,.984.246,1.654,1.654,0,0,1,.66.7,2.258,2.258,0,0,1,.237,1.043v.272a2.291,2.291,0,0,1-.233,1.058,1.642,1.642,0,0,1-.666.7,2.062,2.062,0,0,1-1.006.249ZM31,26.488v3.346H31.6a1.291,1.291,0,0,0,1.013-.405,1.674,1.674,0,0,0,.361-1.152v-.249a1.693,1.693,0,0,0-.342-1.13,1.213,1.213,0,0,0-.968-.41Z" transform="translate(0)"/><path class="cls-5" d="M37.513,28.941a1.571,1.571,0,0,1-.5,1.044,1.635,1.635,0,0,1-1.117.368,1.5,1.5,0,0,1-1.211-.542,2.175,2.175,0,0,1-.456-1.45V27.95a2.427,2.427,0,0,1,.212-1.046,1.582,1.582,0,0,1,.6-.692,1.671,1.671,0,0,1,.9-.242,1.538,1.538,0,0,1,1.089.379,1.587,1.587,0,0,1,.478,1.051h-.565a1.235,1.235,0,0,0-.318-.741.962.962,0,0,0-.684-.229,1,1,0,0,0-.845.4,1.823,1.823,0,0,0-.307,1.135v.413a1.882,1.882,0,0,0,.29,1.105.938.938,0,0,0,.812.411,1.081,1.081,0,0,0,.719-.213,1.178,1.178,0,0,0,.333-.739Z" transform="translate(0)"/><path class="cls-5" d="M40.724,28.387H38.278v-.442h2.446Z" transform="translate(0)"/><path class="cls-5" d="M41.708,30.294V26.029h1.2a1.941,1.941,0,0,1,.985.246,1.654,1.654,0,0,1,.66.7,2.27,2.27,0,0,1,.236,1.043v.272a2.3,2.3,0,0,1-.232,1.058,1.642,1.642,0,0,1-.666.7,2.062,2.062,0,0,1-1.006.249Zm.563-3.806v3.346h.592a1.289,1.289,0,0,0,1.012-.405,1.675,1.675,0,0,0,.362-1.152v-.249A1.7,1.7,0,0,0,43.9,26.9a1.215,1.215,0,0,0-.968-.41Z" transform="translate(0)"/><path class="cls-5" d="M48.781,28.941a1.571,1.571,0,0,1-.5,1.044,1.64,1.64,0,0,1-1.118.368,1.5,1.5,0,0,1-1.211-.542,2.181,2.181,0,0,1-.456-1.45V27.95a2.442,2.442,0,0,1,.212-1.046,1.591,1.591,0,0,1,.6-.692,1.668,1.668,0,0,1,.9-.242,1.541,1.541,0,0,1,1.09.379,1.591,1.591,0,0,1,.478,1.051h-.566a1.234,1.234,0,0,0-.317-.741.965.965,0,0,0-.685-.229,1.006,1.006,0,0,0-.845.4,1.823,1.823,0,0,0-.306,1.135v.413a1.875,1.875,0,0,0,.29,1.105.936.936,0,0,0,.811.411,1.077,1.077,0,0,0,.719-.213,1.173,1.173,0,0,0,.333-.739Z" transform="translate(0)"/><path class="cls-5" d="M80.444,30.294V26.029h1.2a1.937,1.937,0,0,1,.984.246,1.654,1.654,0,0,1,.66.7,2.27,2.27,0,0,1,.237,1.043v.272a2.3,2.3,0,0,1-.233,1.058,1.642,1.642,0,0,1-.666.7,2.062,2.062,0,0,1-1.006.249Zm.562-3.806v3.346H81.6a1.292,1.292,0,0,0,1.013-.405,1.674,1.674,0,0,0,.361-1.152v-.249a1.693,1.693,0,0,0-.342-1.13,1.213,1.213,0,0,0-.968-.41Z" transform="translate(0)"/><path class="cls-5" d="M86.822,28.387H84.375v-.442h2.447Z" transform="translate(0)"/><path class="cls-5" d="M89.063,28.393a2.641,2.641,0,0,1-1.053-.511.975.975,0,0,1-.33-.749,1.031,1.031,0,0,1,.4-.833,1.6,1.6,0,0,1,1.048-.33,1.754,1.754,0,0,1,.784.17,1.293,1.293,0,0,1,.534.469,1.205,1.205,0,0,1,.188.653h-.565a.777.777,0,0,0-.247-.61,1,1,0,0,0-.694-.222,1.029,1.029,0,0,0-.649.183.614.614,0,0,0-.233.51.55.55,0,0,0,.221.441,2.133,2.133,0,0,0,.754.33,3.547,3.547,0,0,1,.832.33,1.276,1.276,0,0,1,.445.421,1.077,1.077,0,0,1,.145.565,1,1,0,0,1-.405.831,1.721,1.721,0,0,1-1.081.312,1.993,1.993,0,0,1-.82-.169,1.374,1.374,0,0,1-.587-.461,1.124,1.124,0,0,1-.207-.665h.566a.732.732,0,0,0,.286.611,1.2,1.2,0,0,0,.762.224,1.107,1.107,0,0,0,.683-.182.59.59,0,0,0,.237-.495.58.58,0,0,0-.219-.485A2.537,2.537,0,0,0,89.063,28.393Z" transform="translate(0)"/><path class="cls-5" d="M94.368,26.029v2.9a1.364,1.364,0,0,1-.378.987,1.531,1.531,0,0,1-1.022.431l-.149.006a1.6,1.6,0,0,1-1.117-.378,1.35,1.35,0,0,1-.421-1.04V26.029h.556v2.888a.891.891,0,0,0,.982.976.988.988,0,0,0,.731-.255.978.978,0,0,0,.253-.718V26.029Z" transform="translate(0)"/><path class="cls-5" d="M98.534,30.294h-.565l-2.147-3.287v3.287h-.566V26.029h.566l2.153,3.3v-3.3h.559Z" transform="translate(0)"/><line class="cls-6" x1="57.176" y1="28.785" x2="73.293" y2="28.785"/><polygon class="cls-5" points="50.111 28.785 60.067 32.853 57.704 28.785 60.067 24.718 50.111 28.785"/><path class="cls-5" d="M127.62,59.878h-.375V57.034h.375Z" transform="translate(0)"/><path class="cls-5" d="M130.491,59.878h-.376l-1.432-2.192v2.192h-.377V57.034h.377l1.435,2.2v-2.2h.373Z" transform="translate(0)"/><path class="cls-5" d="M132.786,58.606h-1.63v-.3h1.63Z" transform="translate(0)"/><path class="cls-5" d="M127.62,13.935h-.375V11.091h.375Z" transform="translate(0)"/><path class="cls-5" d="M130.491,13.935h-.376l-1.432-2.191v2.191h-.377V11.091h.377l1.435,2.2v-2.2h.373Z" transform="translate(0)"/><path class="cls-5" d="M132.136,12.41h.793v.342h-.793v.9h-.363v-.9h-.793V12.41h.793v-.83h.363Z" transform="translate(0)"/></g></svg>