<svg id="Layer_1" data-name="Layer 1" xmlns="http://www.w3.org/2000/svg" viewBox="0 0 194.51 67.307"><defs><style>.cls-1{fill:#201d1c;}.cls-13,.cls-2,.cls-4,.cls-6{fill:none;}.cls-2{stroke:#999;stroke-width:2.126px;}.cls-11,.cls-12,.cls-13,.cls-2,.cls-4,.cls-5,.cls-6{stroke-miterlimit:10;}.cls-3,.cls-5{fill:#fff;}.cls-4{stroke:#000;}.cls-4,.cls-5,.cls-6{stroke-width:0.283px;}.cls-5{stroke:#201d1c;}.cls-6{stroke:#fff;}.cls-7{fill:#cec7bd;}.cls-8{fill:#918c84;}.cls-9{fill:#313131;}.cls-10{fill:#0d0e0f;}.cls-11{fill:#e39344;stroke:#666566;stroke-width:0.023px;}.cls-12{fill:#ebad4f;stroke:#b3b3b3;stroke-width:0.025px;}.cls-13{stroke:gray;stroke-width:0.011px;}.cls-14{fill:#e9a854;}</style></defs><g id="bottom"><path class="cls-1" d="M194.34,26.918a4.162,4.162,0,0,0-.13.723c-.008,4.329-.014,8.659,0,12.988a1.574,1.574,0,0,1-.511,1.241q-5.767,5.7-11.5,11.436a1.377,1.377,0,0,1-1.094.392q-11.115-.011-22.231-.005c-.581,0-1.164-.021-1.744.007a1.248,1.248,0,0,1-1.022-.418c-2.06-2.082-4.148-4.137-6.2-6.229a1.645,1.645,0,0,0-1.3-.525q-51.5.017-103.008,0a1.64,1.64,0,0,0-1.3.528c-2.005,2.046-4.05,4.053-6.062,6.092a1.671,1.671,0,0,1-1.3.555q-11.922-.023-23.845,0a1.452,1.452,0,0,1-1.137-.453q-4.59-4.593-9.209-9.156c-.856-.85-1.7-1.712-2.564-2.554A1.076,1.076,0,0,1-.17,40.7q.014-13.828,0-27.656A1.094,1.094,0,0,1,.182,12.2C2.444,9.95,4.691,7.689,6.951,5.441c1.7-1.685,3.407-3.353,5.1-5.042a1.17,1.17,0,0,1,.906-.373q12.084.014,24.169,0a1.4,1.4,0,0,1,1.063.491c2.064,2.077,4.144,4.141,6.2,6.223a1.376,1.376,0,0,0,1.07.449q51.664-.015,103.331,0a1.3,1.3,0,0,0,1.019-.416c2.089-2.114,4.2-4.2,6.294-6.317a1.3,1.3,0,0,1,1.014-.427q12.051.017,24.1,0a1.306,1.306,0,0,1,1.013.426q3.639,3.67,7.306,7.315,2.334,2.325,4.683,4.634c.027.027.076.03.115.045Zm-57.509.015a6.6,6.6,0,0,0-1.156-3.9,7.09,7.09,0,0,0-7.735-2.968,1.716,1.716,0,0,1-.751-.009,8.022,8.022,0,0,0-2.687-.145,7.057,7.057,0,1,0,2.628,13.846,1.875,1.875,0,0,1,.947.008,7.066,7.066,0,0,0,8.754-6.831Zm-61-.04a6.494,6.494,0,0,0-1.113-3.8,7.082,7.082,0,0,0-7.766-3.033,1.556,1.556,0,0,1-.689.011,7.8,7.8,0,0,0-2.813-.158A7.066,7.066,0,1,0,66.181,33.76a1.874,1.874,0,0,1,.813,0,8.2,8.2,0,0,0,2.689.147A7.093,7.093,0,0,0,75.827,26.893Z" transform="translate(0.17 -0.023)"/><path class="cls-2" d="M137.2,27.245a6.6,6.6,0,0,0-1.156-3.9,7.09,7.09,0,0,0-7.735-2.968,1.736,1.736,0,0,1-.752-.009,8.016,8.016,0,0,0-2.686-.145A7.056,7.056,0,1,0,127.5,34.067a1.875,1.875,0,0,1,.947.009,7.066,7.066,0,0,0,8.754-6.831Zm-61-.04a6.492,6.492,0,0,0-1.113-3.8,7.085,7.085,0,0,0-7.766-3.034,1.527,1.527,0,0,1-.689.011,7.822,7.822,0,0,0-2.813-.157,7.066,7.066,0,1,0,2.735,13.844,1.874,1.874,0,0,1,.813,0,8.2,8.2,0,0,0,2.689.147A7.094,7.094,0,0,0,76.195,27.205Z" transform="translate(0.17 -0.023)"/><path class="cls-3" d="M12.953,15.634c-.057,0-.122,0-.193-.007l-.163-.01-.007-.763a1.082,1.082,0,0,0,.13.011l.14,0a.6.6,0,0,0,.406-.119.913.913,0,0,0,.227-.363l.075-.188-1.429-2.939-.53-.072v-.6h1.956v.6l-.37.058.681,1.511.119.307h.021l.676-1.808-.345-.068v-.6H16.21v.6l-.485.065-1.419,3.367a2.62,2.62,0,0,1-.318.551,1.142,1.142,0,0,1-.422.346A1.432,1.432,0,0,1,12.953,15.634Z" transform="translate(0.17 -0.023)"/><path class="cls-3" d="M16.309,15.562l-.014-.786.11,0a.463.463,0,0,0,.345-.119.742.742,0,0,0,.159-.41,5.76,5.76,0,0,0,.043-.8v-.871l-.533-.1v-.6h3.947v.6l-.533.1v2.293l.533.1v.6H18.305v-.6l.533-.1V12.636H17.95v.8a3,3,0,0,1-.337,1.608,1.264,1.264,0,0,1-1.147.515Z" transform="translate(0.17 -0.023)"/><path class="cls-3" d="M23.142,13.057a1.854,1.854,0,0,1,1.177.336,1.088,1.088,0,0,1,.426.9,1.131,1.131,0,0,1-.428.922,1.8,1.8,0,0,1-1.175.349H20.917v-.6l.533-.1V12.568l-.533-.1v-.6h2.064v.6l-.533.1v.489Zm0,1.743a.663.663,0,0,0,.458-.138.474.474,0,0,0,.15-.365.5.5,0,0,0-.148-.376.647.647,0,0,0-.46-.143h-.694V14.8Z" transform="translate(0.17 -0.023)"/><path class="cls-3" d="M25.459,15.562v-.6l.53-.1V12.626H25.37l-.037.5h-.766V11.864h3.862v1.261h-.765l-.041-.5H26.99v2.235l.53.1v.6Z" transform="translate(0.17 -0.023)"/><path class="cls-3" d="M28.819,16.984v-.6l.482-.1V12.568l-.533-.1v-.6h1.449l.048.43a1.177,1.177,0,0,1,.4-.369,1.126,1.126,0,0,1,.554-.13,1.221,1.221,0,0,1,.766.245,1.53,1.53,0,0,1,.486.682,2.8,2.8,0,0,1,.17,1.022v.071a2.462,2.462,0,0,1-.17.956,1.426,1.426,0,0,1-.488.636,1.3,1.3,0,0,1-.771.227,1.213,1.213,0,0,1-.525-.108,1.052,1.052,0,0,1-.388-.316v1.07l.482.1v.6Zm2.092-2.116a.6.6,0,0,0,.555-.284,1.47,1.47,0,0,0,.173-.769v-.071a2.154,2.154,0,0,0-.079-.614.887.887,0,0,0-.241-.41.592.592,0,0,0-.415-.149.684.684,0,0,0-.36.093.665.665,0,0,0-.249.263v1.62a.622.622,0,0,0,.249.239A.771.771,0,0,0,30.911,14.868Z" transform="translate(0.17 -0.023)"/><path class="cls-3" d="M34.318,15.634a1.253,1.253,0,0,1-.875-.3,1.035,1.035,0,0,1-.324-.8,1.024,1.024,0,0,1,.189-.612,1.251,1.251,0,0,1,.561-.413,2.444,2.444,0,0,1,.914-.151h.489v-.273a.558.558,0,0,0-.622-.6,1,1,0,0,0-.289.039.823.823,0,0,0-.231.111l-.078.489h-.718l-.014-.96a3.074,3.074,0,0,1,.629-.267,2.618,2.618,0,0,1,.756-.1,1.786,1.786,0,0,1,1.145.337,1.161,1.161,0,0,1,.42.962v1.525c0,.05,0,.1,0,.148a1.073,1.073,0,0,0,.012.142l.386.055v.6H35.433c-.025-.064-.051-.132-.076-.205a1.346,1.346,0,0,1-.054-.219,1.411,1.411,0,0,1-.419.361A1.139,1.139,0,0,1,34.318,15.634Zm.267-.738a.876.876,0,0,0,.4-.1.729.729,0,0,0,.29-.247v-.585H34.78a.726.726,0,0,0-.5.151.464.464,0,0,0-.17.362.384.384,0,0,0,.125.306A.513.513,0,0,0,34.585,14.9Z" transform="translate(0.17 -0.023)"/><path class="cls-3" d="M38.574,15.63A2.2,2.2,0,0,1,37.8,15.5a1.265,1.265,0,0,1-.555-.386.907.907,0,0,1-.192-.624l0-.021h.967a.389.389,0,0,0,.07.228.47.47,0,0,0,.2.158.75.75,0,0,0,.311.059.6.6,0,0,0,.433-.135.457.457,0,0,0,.138-.337.412.412,0,0,0-.137-.342.666.666,0,0,0-.42-.109h-.534v-.636h.534a.547.547,0,0,0,.372-.107.393.393,0,0,0,.12-.307A.412.412,0,0,0,39,12.645a.525.525,0,0,0-.39-.122.7.7,0,0,0-.272.05.425.425,0,0,0-.184.14.348.348,0,0,0-.067.214h-.967l-.007-.021a.866.866,0,0,1,.176-.579,1.252,1.252,0,0,1,.526-.388,2.289,2.289,0,0,1,1.884.139.885.885,0,0,1,.411.777.8.8,0,0,1-.15.474,1,1,0,0,1-.417.329.849.849,0,0,1,.632.855.925.925,0,0,1-.2.6,1.273,1.273,0,0,1-.562.385A2.413,2.413,0,0,1,38.574,15.63Z" transform="translate(0.17 -0.023)"/><path class="cls-3" d="M40.751,15.562v-.6l.533-.1V12.568l-.533-.1v-.6h2.078a2.173,2.173,0,0,1,1.15.256.834.834,0,0,1,.412.755.737.737,0,0,1-.164.477,1.03,1.03,0,0,1-.5.313,1.143,1.143,0,0,1,.648.313.784.784,0,0,1,.207.548.872.872,0,0,1-.392.771,1.994,1.994,0,0,1-1.123.265Zm1.528-2.191h.578a.717.717,0,0,0,.408-.1A.322.322,0,0,0,43.393,13c0-.249-.185-.373-.557-.373h-.557Zm0,1.432h.786a.649.649,0,0,0,.392-.1.346.346,0,0,0,.128-.292.364.364,0,0,0-.12-.291.612.612,0,0,0-.4-.1h-.789Z" transform="translate(0.17 -0.023)"/><path class="cls-3" d="M46.022,17.056a1.918,1.918,0,0,1-.275-.022,2.2,2.2,0,0,1-.276-.06l.113-.732a1.341,1.341,0,0,0,.144.021c.052,0,.1.007.136.007a.624.624,0,0,0,.373-.113.638.638,0,0,0,.229-.325l.082-.229L45.311,12.53l-.455-.065v-.6h1.962v.6l-.451.069.581,1.63.072.2h.02l.687-1.839-.441-.062v-.6h1.829v.6l-.417.058-1.412,3.589a2.113,2.113,0,0,1-.261.471,1.209,1.209,0,0,1-.4.343A1.276,1.276,0,0,1,46.022,17.056Z" transform="translate(0.17 -0.023)"/><path class="cls-3" d="M49.484,15.562v-.6l.533-.1V12.568l-.533-.1v-.6h1.982v.6l-.454.1v.7h.342l.553-.82a1.772,1.772,0,0,1,.434-.484.915.915,0,0,1,.547-.162,1.025,1.025,0,0,1,.332.048,1.354,1.354,0,0,1,.273.129l-.167.691-.132-.033a.43.43,0,0,0-.087-.008.384.384,0,0,0-.226.078.825.825,0,0,0-.191.2l-.479.7.858,1.275.5.082v.6H52.2L51.4,14.178h-.383v.683l.454.1v.6Z" transform="translate(0.17 -0.023)"/><path class="cls-3" d="M55.5,15.634a1.777,1.777,0,0,1-.94-.239,1.583,1.583,0,0,1-.6-.665,2.2,2.2,0,0,1-.208-.98v-.071a2.192,2.192,0,0,1,.208-.976,1.581,1.581,0,0,1,.6-.666,1.937,1.937,0,0,1,1.875,0,1.578,1.578,0,0,1,.6.664,2.191,2.191,0,0,1,.209.978v.071a2.2,2.2,0,0,1-.209.98,1.58,1.58,0,0,1-.6.665A1.754,1.754,0,0,1,55.5,15.634Zm0-.766a.634.634,0,0,0,.424-.14.819.819,0,0,0,.242-.392,1.942,1.942,0,0,0,.079-.586v-.071a1.928,1.928,0,0,0-.079-.58.816.816,0,0,0-.244-.392.708.708,0,0,0-.853,0,.809.809,0,0,0-.244.392,2,2,0,0,0-.077.58v.071a2.03,2.03,0,0,0,.077.588.8.8,0,0,0,.244.392A.657.657,0,0,0,55.5,14.868Z" transform="translate(0.17 -0.023)"/><path class="cls-3" d="M57.759,15.562v-.6l.533-.1V12.568l-.533-.1v-.6h2.078a2.176,2.176,0,0,1,1.15.256.834.834,0,0,1,.412.755.737.737,0,0,1-.164.477,1.03,1.03,0,0,1-.5.313,1.136,1.136,0,0,1,.647.313.78.78,0,0,1,.207.548.871.871,0,0,1-.391.771,1.994,1.994,0,0,1-1.123.265Zm1.528-2.191h.577a.721.721,0,0,0,.409-.1A.322.322,0,0,0,60.4,13q0-.374-.557-.373h-.557Zm0,1.432h.786a.645.645,0,0,0,.391-.1.346.346,0,0,0,.128-.292.363.363,0,0,0-.119-.291.612.612,0,0,0-.4-.1h-.789Z" transform="translate(0.17 -0.023)"/><path class="cls-3" d="M63.805,15.634a1.78,1.78,0,0,1-.94-.239,1.574,1.574,0,0,1-.6-.665,2.2,2.2,0,0,1-.209-.98v-.071a2.192,2.192,0,0,1,.209-.976,1.579,1.579,0,0,1,.6-.666,1.937,1.937,0,0,1,1.875,0,1.578,1.578,0,0,1,.6.664,2.178,2.178,0,0,1,.209.978v.071a2.187,2.187,0,0,1-.209.98,1.58,1.58,0,0,1-.6.665A1.749,1.749,0,0,1,63.805,15.634Zm0-.766a.63.63,0,0,0,.424-.14.828.828,0,0,0,.243-.392,1.976,1.976,0,0,0,.078-.586v-.071a1.962,1.962,0,0,0-.078-.58.831.831,0,0,0-.244-.392.638.638,0,0,0-.43-.143.63.63,0,0,0-.423.143.81.81,0,0,0-.245.392,2,2,0,0,0-.077.58v.071a2.03,2.03,0,0,0,.077.588.8.8,0,0,0,.245.392A.653.653,0,0,0,63.805,14.868Z" transform="translate(0.17 -0.023)"/><path class="cls-3" d="M66.041,15.562v-.6l.533-.1V12.568l-.533-.1v-.6H68.05v.6l-.478.1v1.541l.02,0,1.2-2.249h1.528v.6l-.529.1v2.293l.529.1v.6H68.317v-.6l.478-.1V13.313l-.02,0-1.2,2.252Zm2.153-4.317a1.3,1.3,0,0,1-.875-.279.862.862,0,0,1-.311-.716l.007-.02h.676a.461.461,0,0,0,.122.328.624.624,0,0,0,.757,0,.468.468,0,0,0,.12-.332h.683l.007.02a.883.883,0,0,1-.315.716A1.282,1.282,0,0,1,68.194,11.245Z" transform="translate(0.17 -0.023)"/><path class="cls-3" d="M72.552,16.669l-.075-1.879H72.8a2.482,2.482,0,0,0,.277-.34,1.567,1.567,0,0,0,.174-.356,2.183,2.183,0,0,0,.1-.427,4.969,4.969,0,0,0,.04-.556l.013-.543-.522-.1v-.6H76.67v.6l-.533.1V14.8h.537l-.068,1.873h-.93V15.562H73.485v1.107Zm1.388-1.876h1.206V12.66h-.752l-.01.451a3.884,3.884,0,0,1-.133.966A2.775,2.775,0,0,1,73.94,14.793Z" transform="translate(0.17 -0.023)"/><path class="cls-3" d="M78.369,15.634a1.253,1.253,0,0,1-.875-.3,1.036,1.036,0,0,1-.325-.8,1.025,1.025,0,0,1,.19-.612,1.247,1.247,0,0,1,.56-.413,2.453,2.453,0,0,1,.915-.151h.489v-.273a.558.558,0,0,0-.622-.6,1,1,0,0,0-.289.039.823.823,0,0,0-.231.111l-.078.489h-.718l-.014-.96A3.051,3.051,0,0,1,78,11.9a2.616,2.616,0,0,1,.755-.1,1.784,1.784,0,0,1,1.145.337,1.159,1.159,0,0,1,.421.962v1.525c0,.05,0,.1,0,.148a1.073,1.073,0,0,0,.012.142l.386.055v.6H79.483c-.024-.064-.05-.132-.075-.205a1.25,1.25,0,0,1-.054-.219,1.411,1.411,0,0,1-.419.361A1.139,1.139,0,0,1,78.369,15.634Zm.267-.738a.869.869,0,0,0,.4-.1.733.733,0,0,0,.291-.247v-.585h-.492a.726.726,0,0,0-.5.151.464.464,0,0,0-.17.362.384.384,0,0,0,.125.306A.513.513,0,0,0,78.636,14.9Z" transform="translate(0.17 -0.023)"/><path class="cls-3" d="M81.886,15.562v-.6l.53-.1V12.626H81.8l-.037.5h-.766V11.864h3.863v1.261h-.766l-.041-.5h-.632v2.235l.529.1v.6Z" transform="translate(0.17 -0.023)"/><path class="cls-3" d="M87.427,15.562v-.6l.533-.1V14.39a2.169,2.169,0,0,1-.26.039c-.089.008-.177.012-.266.012a2.4,2.4,0,0,1-.91-.154,1.194,1.194,0,0,1-.574-.468,1.464,1.464,0,0,1-.2-.793v-.462l-.53-.1v-.6h1.955v.6l-.427.1v.462a.91.91,0,0,0,.068.385.4.4,0,0,0,.221.2,1.09,1.09,0,0,0,.395.06,2.568,2.568,0,0,0,.268-.014,2.607,2.607,0,0,0,.258-.041V12.568l-.431-.1v-.6h1.962v.6l-.533.1v2.293l.533.1v.6Z" transform="translate(0.17 -0.023)"/><path class="cls-3" d="M90.045,15.562v-.6l.533-.1V12.568l-.533-.1v-.6h2.01v.6l-.479.1v1.541l.021,0,1.2-2.249h1.528v.6l-.53.1v2.293l.53.1v.6H92.321v-.6l.479-.1V13.313l-.021,0-1.2,2.252Z" transform="translate(0.17 -0.023)"/><path class="cls-3" d="M94.909,15.562v-.6l.533-.1V12.568l-.533-.1v-.6h1.982v.6l-.454.1v.7h.341l.554-.82a1.772,1.772,0,0,1,.434-.484.915.915,0,0,1,.547-.162,1.033,1.033,0,0,1,.332.048,1.354,1.354,0,0,1,.273.129l-.167.691-.132-.033a.43.43,0,0,0-.087-.008.384.384,0,0,0-.226.078.788.788,0,0,0-.191.2l-.479.7.858,1.275.5.082v.6H97.626l-.807-1.384h-.382v.683l.454.1v.6Z" transform="translate(0.17 -0.023)"/><path class="cls-3" d="M118.711,16.984v-.6l.481-.1V12.568l-.533-.1v-.6h1.449l.048.43a1.19,1.19,0,0,1,.4-.369,1.123,1.123,0,0,1,.554-.13,1.218,1.218,0,0,1,.765.245,1.524,1.524,0,0,1,.487.682,2.817,2.817,0,0,1,.169,1.022v.071a2.481,2.481,0,0,1-.169.956,1.426,1.426,0,0,1-.488.636,1.3,1.3,0,0,1-.771.227,1.21,1.21,0,0,1-.525-.108,1.044,1.044,0,0,1-.388-.316v1.07l.482.1v.6Zm2.091-2.116a.6.6,0,0,0,.556-.284,1.47,1.47,0,0,0,.172-.769v-.071a2.156,2.156,0,0,0-.078-.614.9.9,0,0,0-.241-.41.593.593,0,0,0-.416-.149.689.689,0,0,0-.36.093.663.663,0,0,0-.248.263v1.62a.619.619,0,0,0,.248.239A.773.773,0,0,0,120.8,14.868Z" transform="translate(0.17 -0.023)"/><path class="cls-3" d="M124.21,15.634a1.25,1.25,0,0,1-.875-.3,1.036,1.036,0,0,1-.325-.8,1.025,1.025,0,0,1,.19-.612,1.247,1.247,0,0,1,.56-.413,2.453,2.453,0,0,1,.915-.151h.489v-.273a.559.559,0,0,0-.622-.6.991.991,0,0,0-.289.039.81.81,0,0,0-.231.111l-.079.489h-.717l-.014-.96a3.051,3.051,0,0,1,.629-.267,2.606,2.606,0,0,1,.755-.1,1.784,1.784,0,0,1,1.145.337,1.159,1.159,0,0,1,.421.962v1.525c0,.05,0,.1,0,.148a1.278,1.278,0,0,0,.011.142l.387.055v.6h-1.238c-.025-.064-.05-.132-.075-.205a1.35,1.35,0,0,1-.055-.219,1.4,1.4,0,0,1-.418.361A1.142,1.142,0,0,1,124.21,15.634Zm.267-.738a.869.869,0,0,0,.4-.1.733.733,0,0,0,.291-.247v-.585h-.493a.729.729,0,0,0-.5.151.467.467,0,0,0-.169.362.383.383,0,0,0,.124.306A.518.518,0,0,0,124.477,14.9Z" transform="translate(0.17 -0.023)"/><path class="cls-3" d="M128.657,15.634a1.721,1.721,0,0,1-.921-.239,1.583,1.583,0,0,1-.6-.662,2.15,2.15,0,0,1-.208-.965v-.1a2.121,2.121,0,0,1,.212-.967,1.608,1.608,0,0,1,.6-.661,1.668,1.668,0,0,1,.909-.242,2.154,2.154,0,0,1,.859.156,2.109,2.109,0,0,1,.587.361l-.007,1.059h-.752l-.133-.66a.625.625,0,0,0-.209-.133.679.679,0,0,0-.256-.051.722.722,0,0,0-.453.137.815.815,0,0,0-.268.389,1.865,1.865,0,0,0-.089.612v.1a1.669,1.669,0,0,0,.1.623.785.785,0,0,0,.265.361.684.684,0,0,0,.793-.022.733.733,0,0,0,.22-.392h.851l.011.021a1.828,1.828,0,0,1-.231.68,1.146,1.146,0,0,1-.485.441A1.8,1.8,0,0,1,128.657,15.634Z" transform="translate(0.17 -0.023)"/><path class="cls-3" d="M132.355,15.634a1.723,1.723,0,0,1-.921-.239,1.589,1.589,0,0,1-.6-.662,2.15,2.15,0,0,1-.208-.965v-.1a2.121,2.121,0,0,1,.212-.967,1.615,1.615,0,0,1,.6-.661,1.671,1.671,0,0,1,.909-.242,2.159,2.159,0,0,1,.86.156,2.1,2.1,0,0,1,.586.361l-.007,1.059h-.752l-.133-.66a.625.625,0,0,0-.209-.133.679.679,0,0,0-.256-.051.722.722,0,0,0-.453.137.815.815,0,0,0-.268.389,1.865,1.865,0,0,0-.089.612v.1a1.669,1.669,0,0,0,.1.623.785.785,0,0,0,.265.361.628.628,0,0,0,.371.116.622.622,0,0,0,.422-.138.733.733,0,0,0,.22-.392h.852l.01.021a1.828,1.828,0,0,1-.231.68,1.146,1.146,0,0,1-.485.441A1.8,1.8,0,0,1,132.355,15.634Z" transform="translate(0.17 -0.023)"/><path class="cls-3" d="M135.178,15.562v-.6l.53-.1V12.626h-.619l-.037.5h-.766V11.864h3.862v1.261h-.765l-.041-.5h-.632v2.235l.529.1v.6Z" transform="translate(0.17 -0.023)"/><path class="cls-3" d="M140.223,15.634a1.777,1.777,0,0,1-.94-.239,1.574,1.574,0,0,1-.6-.665,2.2,2.2,0,0,1-.209-.98v-.071a2.192,2.192,0,0,1,.209-.976,1.579,1.579,0,0,1,.6-.666,1.937,1.937,0,0,1,1.875,0,1.578,1.578,0,0,1,.6.664,2.178,2.178,0,0,1,.209.978v.071a2.187,2.187,0,0,1-.209.98,1.58,1.58,0,0,1-.6.665A1.749,1.749,0,0,1,140.223,15.634Zm0-.766a.63.63,0,0,0,.424-.14.828.828,0,0,0,.243-.392,1.976,1.976,0,0,0,.078-.586v-.071a1.962,1.962,0,0,0-.078-.58.831.831,0,0,0-.244-.392.638.638,0,0,0-.43-.143.628.628,0,0,0-.423.143.81.81,0,0,0-.245.392,2,2,0,0,0-.077.58v.071a2.03,2.03,0,0,0,.077.588.8.8,0,0,0,.245.392A.653.653,0,0,0,140.223,14.868Z" transform="translate(0.17 -0.023)"/><path class="cls-3" d="M142.459,15.562v-.6l.393-.062.471-.827a1.175,1.175,0,0,1-.48-.408,1.03,1.03,0,0,1-.166-.576,1.082,1.082,0,0,1,.2-.637,1.283,1.283,0,0,1,.55-.435,2.092,2.092,0,0,1,.838-.155h2.16v.6l-.53.1v2.293l.53.1v.6h-1.955v-.6l.431-.1v-.594h-.54l-.667,1.3Zm1.784-1.969h.653v-.967h-.636a.6.6,0,0,0-.434.15.466.466,0,0,0-.154.342.451.451,0,0,0,.148.334A.594.594,0,0,0,144.243,13.593Z" transform="translate(0.17 -0.023)"/><path class="cls-3" d="M146.946,15.562v-.6l.534-.1V12.568l-.534-.1v-.6h1.959v.6l-.431.1v.793h1.217v-.793l-.427-.1v-.6h1.958v.6l-.533.1v2.293l.533.1v.6h-1.958v-.6l.427-.1v-.735h-1.217v.735l.431.1v.6Z" transform="translate(0.17 -0.023)"/><path class="cls-3" d="M151.783,15.562v-.6l.533-.1V12.568l-.533-.1v-.6h2.01v.6l-.479.1v1.541l.021,0,1.2-2.249h1.527v.6l-.529.1v2.293l.529.1v.6h-2.006v-.6l.479-.1V13.313l-.021,0-1.2,2.252Z" transform="translate(0.17 -0.023)"/><path class="cls-3" d="M156.626,15.562v-.6l.393-.062.472-.827a1.172,1.172,0,0,1-.481-.408,1.037,1.037,0,0,1-.165-.576,1.082,1.082,0,0,1,.195-.637,1.271,1.271,0,0,1,.55-.435,2.087,2.087,0,0,1,.837-.155h2.16v.6l-.529.1v2.293l.529.1v.6h-1.955v-.6l.431-.1v-.594h-.54l-.666,1.3Zm1.784-1.969h.653v-.967h-.636a.6.6,0,0,0-.434.15.47.47,0,0,0-.154.342.449.449,0,0,0,.149.334A.59.59,0,0,0,158.41,13.593Z" transform="translate(0.17 -0.023)"/><path class="cls-3" d="M115.51,43.646l1.015-2.932h.513l-1.318,3.555h-.415l-1.316-3.555h.51Z" transform="translate(0.17 -0.023)"/><path class="cls-3" d="M120.1,43.141a1.3,1.3,0,0,1-.416.87,1.361,1.361,0,0,1-.931.307,1.254,1.254,0,0,1-1.01-.452,1.817,1.817,0,0,1-.38-1.208v-.342a2.012,2.012,0,0,1,.178-.872,1.318,1.318,0,0,1,.5-.577,1.4,1.4,0,0,1,.752-.2,1.282,1.282,0,0,1,.908.316,1.318,1.318,0,0,1,.4.875h-.471a1.016,1.016,0,0,0-.265-.617.8.8,0,0,0-.57-.191.843.843,0,0,0-.7.332,1.535,1.535,0,0,0-.254.946v.344a1.566,1.566,0,0,0,.241.921.783.783,0,0,0,.677.343.9.9,0,0,0,.6-.178.976.976,0,0,0,.277-.616Z" transform="translate(0.17 -0.023)"/><path class="cls-3" d="M123.352,43.141a1.309,1.309,0,0,1-.416.87,1.364,1.364,0,0,1-.932.307,1.255,1.255,0,0,1-1.01-.452,1.817,1.817,0,0,1-.379-1.208v-.342a2.026,2.026,0,0,1,.177-.872,1.32,1.32,0,0,1,.5-.577,1.4,1.4,0,0,1,.751-.2,1.285,1.285,0,0,1,.909.316,1.323,1.323,0,0,1,.4.875h-.472a1.01,1.01,0,0,0-.265-.617.8.8,0,0,0-.57-.191.84.84,0,0,0-.7.332,1.528,1.528,0,0,0-.255.946v.344a1.566,1.566,0,0,0,.242.921.781.781,0,0,0,.676.343.906.906,0,0,0,.6-.178.981.981,0,0,0,.276-.616Z" transform="translate(0.17 -0.023)"/><path class="cls-3" d="M75.418,43.8a1.1,1.1,0,0,1-.5.387,2.05,2.05,0,0,1-.754.128,1.458,1.458,0,0,1-.771-.2,1.349,1.349,0,0,1-.521-.58,1.994,1.994,0,0,1-.189-.871v-.31a1.871,1.871,0,0,1,.375-1.246,1.3,1.3,0,0,1,1.053-.441,1.348,1.348,0,0,1,.9.284,1.244,1.244,0,0,1,.415.807h-.469a.775.775,0,0,0-.84-.708.826.826,0,0,0-.713.331,1.611,1.611,0,0,0-.247.959v.291a1.519,1.519,0,0,0,.274.952.889.889,0,0,0,.74.353,1.628,1.628,0,0,0,.461-.059.715.715,0,0,0,.327-.2v-.8h-.822V42.5h1.289Z" transform="translate(0.17 -0.023)"/><path class="cls-3" d="M78.931,44.269H78.46L76.67,41.53v2.739H76.2V40.714h.471l1.8,2.752V40.714h.466Z" transform="translate(0.17 -0.023)"/><path class="cls-3" d="M79.764,44.269V40.714h1a1.62,1.62,0,0,1,.82.2,1.388,1.388,0,0,1,.551.584,1.9,1.9,0,0,1,.2.869V42.6a1.894,1.894,0,0,1-.194.881,1.366,1.366,0,0,1-.554.582,1.717,1.717,0,0,1-.839.207Zm.468-3.171v2.788h.494a1.069,1.069,0,0,0,.842-.338,1.387,1.387,0,0,0,.3-.96V42.38a1.422,1.422,0,0,0-.284-.942,1.011,1.011,0,0,0-.807-.34Z" transform="translate(0.17 -0.023)"/><path class="cls-3" d="M94.021,34.491v1.54h1.26V34.242h.383V36.5H92.109V34.266h.384v1.765h1.145v-1.54Z" transform="translate(0.17 -0.023)"/><path class="cls-3" d="M94.536,31.043a1.309,1.309,0,0,1,.87.416,1.364,1.364,0,0,1,.307.932,1.252,1.252,0,0,1-.452,1.01,1.817,1.817,0,0,1-1.208.379h-.342a2.026,2.026,0,0,1-.872-.177,1.33,1.33,0,0,1-.577-.5,1.4,1.4,0,0,1-.2-.752,1.285,1.285,0,0,1,.316-.909,1.323,1.323,0,0,1,.875-.4v.472a1.016,1.016,0,0,0-.617.265.8.8,0,0,0-.191.57.84.84,0,0,0,.332.7,1.528,1.528,0,0,0,.946.255h.344a1.559,1.559,0,0,0,.921-.242.781.781,0,0,0,.343-.676.9.9,0,0,0-.178-.6.976.976,0,0,0-.616-.277Z" transform="translate(0.17 -0.023)"/><path class="cls-3" d="M95.664,27.672v.471H94.021v1.792h1.643V30.4H92.109v-.469h1.529V28.143H92.109v-.471Z" transform="translate(0.17 -0.023)"/><path class="cls-3" d="M94,24.105a2.2,2.2,0,0,1,.911.176,1.33,1.33,0,0,1,.595.5,1.373,1.373,0,0,1-.59,2,2.111,2.111,0,0,1-.885.185h-.256a2.186,2.186,0,0,1-.906-.178,1.322,1.322,0,0,1-.81-1.25,1.378,1.378,0,0,1,.206-.754,1.326,1.326,0,0,1,.6-.5,2.211,2.211,0,0,1,.912-.176Zm-.23.466a1.594,1.594,0,0,0-.97.254.838.838,0,0,0-.339.711.827.827,0,0,0,.339.7,1.56,1.56,0,0,0,.938.263H94a1.6,1.6,0,0,0,.963-.258.9.9,0,0,0,.019-1.412,1.587,1.587,0,0,0-.948-.257Z" transform="translate(0.17 -0.023)"/><path class="cls-3" d="M99.714,34.044v1.143h3.172v.466H99.714v1.14h-.383V34.044Z" transform="translate(0.17 -0.023)"/><path class="cls-3" d="M101.448,32.213v.835h1.438v.471H99.331V32.342a1.39,1.39,0,0,1,.274-.924.984.984,0,0,1,.8-.323.96.96,0,0,1,.579.179,1.074,1.074,0,0,1,.369.5l1.509-.835h.029v.5Zm-.383.835v-.72a.813.813,0,0,0-.182-.556.611.611,0,0,0-.484-.206.643.643,0,0,0-.506.2.835.835,0,0,0-.179.568v.718Z" transform="translate(0.17 -0.023)"/><path class="cls-3" d="M102.886,29.935V30.4H99.331v-.469Z" transform="translate(0.17 -0.023)"/><path class="cls-3" d="M102.419,26.454a1.081,1.081,0,0,1,.388.5,2.04,2.04,0,0,1,.128.753,1.458,1.458,0,0,1-.2.771,1.354,1.354,0,0,1-.58.521,2.013,2.013,0,0,1-.872.19h-.31a1.87,1.87,0,0,1-1.245-.375,1.308,1.308,0,0,1-.442-1.053,1.352,1.352,0,0,1,.284-.9,1.24,1.24,0,0,1,.808-.415v.468a.775.775,0,0,0-.708.84.829.829,0,0,0,.331.714,1.616,1.616,0,0,0,.959.246h.291a1.514,1.514,0,0,0,.951-.274.883.883,0,0,0,.353-.74,1.635,1.635,0,0,0-.058-.461.708.708,0,0,0-.2-.327h-.8v.823h-.383V26.454Z" transform="translate(0.17 -0.023)"/><path class="cls-3" d="M16.972,51.045v-.308l.4-.068v-2.8l-.4-.069v-.307h1.585a1.652,1.652,0,0,1,.655.115.885.885,0,0,1,.407.336.993.993,0,0,1,.139.537.949.949,0,0,1-.136.525.834.834,0,0,1-.384.321,1.546,1.546,0,0,1-.591.116l-.8.015v1.211l.4.068v.308Zm.879-1.965h.657a.91.91,0,0,0,.586-.154.555.555,0,0,0,.183-.449.58.58,0,0,0-.176-.445.778.778,0,0,0-.544-.163h-.706Zm1.467,1.965-.791-1.775.481-.005.657,1.421.247.044v.315Z" transform="translate(0.17 -0.023)"/><path class="cls-3" d="M22,51.1a1.443,1.443,0,0,1-.654-.144,1.107,1.107,0,0,1-.454-.411,1.19,1.19,0,0,1-.166-.641V47.869l-.4-.069v-.31H21.6v.31l-.4.069V49.9a.9.9,0,0,0,.1.447.66.66,0,0,0,.282.272.914.914,0,0,0,.417.091.954.954,0,0,0,.424-.09.655.655,0,0,0,.288-.271.89.89,0,0,0,.1-.449V47.869l-.4-.069v-.31H23.7v.31l-.4.069V49.9a1.229,1.229,0,0,1-.163.653,1.036,1.036,0,0,1-.455.405A1.594,1.594,0,0,1,22,51.1Z" transform="translate(0.17 -0.023)"/><path class="cls-3" d="M25.351,51.1A2.071,2.071,0,0,1,24.726,51a2.013,2.013,0,0,1-.574-.293v-.759h.374l.081.559a1.347,1.347,0,0,0,.344.151,1.422,1.422,0,0,0,.4.054,1.039,1.039,0,0,0,.414-.074.6.6,0,0,0,.26-.207.571.571,0,0,0,.012-.6.653.653,0,0,0-.257-.218,2.058,2.058,0,0,0-.49-.165,2.344,2.344,0,0,1-.619-.228,1.064,1.064,0,0,1-.383-.347.849.849,0,0,1-.131-.467.874.874,0,0,1,.148-.5,1,1,0,0,1,.411-.347,1.4,1.4,0,0,1,.616-.127,1.776,1.776,0,0,1,.66.114,1.612,1.612,0,0,1,.472.274v.711h-.373l-.081-.508a.928.928,0,0,0-.273-.147,1.214,1.214,0,0,0-.4-.058.872.872,0,0,0-.362.071.6.6,0,0,0-.244.2.536.536,0,0,0-.088.3.468.468,0,0,0,.079.269.658.658,0,0,0,.259.2,2.623,2.623,0,0,0,.48.163,1.881,1.881,0,0,1,.851.411.886.886,0,0,1,.289.673.86.86,0,0,1-.154.506,1.018,1.018,0,0,1-.433.346A1.6,1.6,0,0,1,25.351,51.1Z" transform="translate(0.17 -0.023)"/><path class="cls-3" d="M28.3,51.1A2.076,2.076,0,0,1,27.67,51a2,2,0,0,1-.573-.293v-.759h.373l.081.559a1.378,1.378,0,0,0,.344.151,1.427,1.427,0,0,0,.4.054,1.048,1.048,0,0,0,.415-.074.6.6,0,0,0,.259-.207.569.569,0,0,0,.013-.6.664.664,0,0,0-.258-.218,2.058,2.058,0,0,0-.49-.165,2.336,2.336,0,0,1-.618-.228,1.059,1.059,0,0,1-.384-.347.848.848,0,0,1-.13-.467.866.866,0,0,1,.148-.5,1,1,0,0,1,.411-.347,1.4,1.4,0,0,1,.615-.127,1.776,1.776,0,0,1,.66.114,1.618,1.618,0,0,1,.473.274v.711h-.374l-.08-.508a.947.947,0,0,0-.274-.147,1.214,1.214,0,0,0-.405-.058.868.868,0,0,0-.361.071.6.6,0,0,0-.245.2.535.535,0,0,0-.087.3.461.461,0,0,0,.079.269.647.647,0,0,0,.258.2,2.65,2.65,0,0,0,.48.163,1.89,1.89,0,0,1,.852.411.89.89,0,0,1,.289.673.867.867,0,0,1-.154.506,1.024,1.024,0,0,1-.433.346A1.611,1.611,0,0,1,28.3,51.1Z" transform="translate(0.17 -0.023)"/><path class="cls-3" d="M29.958,51.045v-.308l.4-.068v-2.8l-.4-.069v-.31h1.277v.31l-.4.069v2.8l.4.068v.308Z" transform="translate(0.17 -0.023)"/><path class="cls-3" d="M31.6,51.045v-.308l.263-.036L33.11,47.49h.413l1.22,3.211.261.036v.308h-1.02v-.308l.269-.046-.235-.654H32.6l-.242.654.269.046v.308Zm1.14-1.411h1.128l-.523-1.446-.029-.08h-.015l-.029.08Z" transform="translate(0.17 -0.023)"/><path class="cls-3" d="M23.857,33.419v6.3h-.546v-6.3Z" transform="translate(0.17 -0.023)"/><path class="cls-3" d="M24.97,38.45l-.189,1.269h-.5l.938-6.3h.792l.938,6.3H26.4L26.21,38.45Zm.07-.6h1.093l-.553-3.636Z" transform="translate(0.17 -0.023)"/><path class="cls-3" d="M28.465,33.419a.946.946,0,0,1,.837.369,1.878,1.878,0,0,1,.256,1.071v.513a2.082,2.082,0,0,1-.147.846.837.837,0,0,1-.463.45.8.8,0,0,1,.476.464,2.216,2.216,0,0,1,.141.85v.981c0,.139,0,.272.014.4a1.068,1.068,0,0,0,.084.355h-.554a1.434,1.434,0,0,1-.07-.292,3.891,3.891,0,0,1-.021-.473v-.99a1.1,1.1,0,0,0-.185-.733.682.682,0,0,0-.529-.2h-.385v2.691h-.546v-6.3Zm-.14,2.97a.706.706,0,0,0,.511-.175.963.963,0,0,0,.182-.689v-.6a1.29,1.29,0,0,0-.129-.648.471.471,0,0,0-.438-.216h-.532v2.331Z" transform="translate(0.17 -0.023)"/><path class="cls-3" d="M31.28,33.419a.932.932,0,0,1,.844.419,2.1,2.1,0,0,1,.27,1.147v3.177a2.078,2.078,0,0,1-.27,1.143.935.935,0,0,1-.844.414H30.132v-6.3Zm-.007,5.661a.481.481,0,0,0,.438-.229,1.254,1.254,0,0,0,.144-.662v-3.24a1.25,1.25,0,0,0-.144-.661.488.488,0,0,0-.445-.23h-.588V39.08Z" transform="translate(0.17 -0.023)"/><path class="cls-3" d="M33.423,38.234a1.363,1.363,0,0,0,.137.671.467.467,0,0,0,.438.238.459.459,0,0,0,.43-.238,1.352,1.352,0,0,0,.137-.671V33.419h.511V38.2a2.209,2.209,0,0,1-.266,1.157,1.008,1.008,0,0,1-1.66,0,2.209,2.209,0,0,1-.266-1.157V33.419h.539Z" transform="translate(0.17 -0.023)"/><path class="cls-3" d="M36.162,33.419v6.3h-.546v-6.3Z" transform="translate(0.17 -0.023)"/><path class="cls-3" d="M37.205,39.719h-.49v-6.3h.693l1.135,4.554V33.419h.483v6.3h-.567l-1.254-5.094Z" transform="translate(0.17 -0.023)"/><path class="cls-3" d="M39.544,34.94a2.1,2.1,0,0,1,.277-1.156,1.049,1.049,0,0,1,1.691,0,2.084,2.084,0,0,1,.281,1.156V38.2a2.09,2.09,0,0,1-.281,1.152,1.043,1.043,0,0,1-1.691,0,2.108,2.108,0,0,1-.277-1.152Zm.54,3.294a1.3,1.3,0,0,0,.143.671.525.525,0,0,0,.879,0,1.338,1.338,0,0,0,.14-.671V34.9a1.334,1.334,0,0,0-.14-.67.524.524,0,0,0-.879,0,1.3,1.3,0,0,0-.143.67Z" transform="translate(0.17 -0.023)"/><path class="cls-3" d="M42.766,38.846v.873h-.525v-.873Z" transform="translate(0.17 -0.023)"/><path class="cls-3" d="M44.419,33.419a.944.944,0,0,1,.836.369,1.87,1.87,0,0,1,.256,1.071v.513a2.065,2.065,0,0,1-.147.846.835.835,0,0,1-.462.45.8.8,0,0,1,.476.464,2.237,2.237,0,0,1,.14.85v.981c0,.139.005.272.014.4a1.093,1.093,0,0,0,.084.355h-.553a1.371,1.371,0,0,1-.07-.292,3.891,3.891,0,0,1-.021-.473v-.99a1.094,1.094,0,0,0-.186-.733.681.681,0,0,0-.529-.2h-.384v2.691h-.547v-6.3Zm-.141,2.97a.707.707,0,0,0,.512-.175.968.968,0,0,0,.182-.689v-.6a1.278,1.278,0,0,0-.13-.648.468.468,0,0,0-.437-.216h-.532v2.331Z" transform="translate(0.17 -0.023)"/><path class="cls-3" d="M46.6,38.234a1.364,1.364,0,0,0,.136.671.467.467,0,0,0,.438.238.458.458,0,0,0,.43-.238,1.352,1.352,0,0,0,.137-.671V33.419h.511V38.2a2.2,2.2,0,0,1-.266,1.157,1.007,1.007,0,0,1-1.659,0,2.2,2.2,0,0,1-.266-1.157V33.419H46.6Z" transform="translate(0.17 -0.023)"/><path class="cls-3" d="M23.9,41.764a.407.407,0,0,1,.316.1.453.453,0,0,1,.1.314v.09a.519.519,0,0,1-.049.244.271.271,0,0,1-.173.131.3.3,0,0,1,.2.144.528.528,0,0,1,.058.261v.159a.474.474,0,0,1-.105.329.424.424,0,0,1-.327.114h-.434v-1.89Zm-.051.8a.3.3,0,0,0,.191-.051.25.25,0,0,0,.063-.2v-.11a.313.313,0,0,0-.047-.189.194.194,0,0,0-.161-.06h-.208v.61Zm.062.9c.15,0,.224-.086.224-.256v-.167a.3.3,0,0,0-.063-.22.28.28,0,0,0-.2-.062h-.184v.705Z" transform="translate(0.17 -0.023)"/><path class="cls-3" d="M25.014,41.746a.39.39,0,0,1,.323.129.537.537,0,0,1,.1.345v.17h-.2v-.181a.338.338,0,0,0-.052-.2.235.235,0,0,0-.337,0,.331.331,0,0,0-.054.2v1a.33.33,0,0,0,.054.2.235.235,0,0,0,.337,0,.337.337,0,0,0,.052-.2v-.246h.2V43.2a.537.537,0,0,1-.1.345.463.463,0,0,1-.643,0,.537.537,0,0,1-.1-.345V42.22a.692.692,0,0,1,.026-.2.4.4,0,0,1,.078-.15.34.34,0,0,1,.133-.1A.466.466,0,0,1,25.014,41.746Z" transform="translate(0.17 -0.023)"/><path class="cls-3" d="M26.372,42.6v.19H25.91v.671h.568v.192H25.7v-1.89h.778v.192H25.91V42.6Zm-.362-1.19v.243h-.183v-.243Zm.338,0v.243h-.186v-.243Z" transform="translate(0.17 -0.023)"/><path class="cls-3" d="M28.157,43.914v-.26h-.773v.26h-.2v-.447H27.3a.262.262,0,0,0,.063-.121.931.931,0,0,0,.02-.154l.073-1.428h.759v1.7h.143v.447Zm-.565-.724a.762.762,0,0,1-.023.167.229.229,0,0,1-.063.11h.5V41.956h-.351Z" transform="translate(0.17 -0.023)"/><path class="cls-3" d="M29.016,41.956l-.043,1.228a1.2,1.2,0,0,1-.025.2.378.378,0,0,1-.062.147.284.284,0,0,1-.114.094.45.45,0,0,1-.18.032h-.035v-.192a.305.305,0,0,0,.105-.016.145.145,0,0,0,.064-.05.209.209,0,0,0,.03-.085.792.792,0,0,0,.011-.119l.051-1.431h.77v1.89h-.21v-1.7Z" transform="translate(0.17 -0.023)"/><path class="cls-3" d="M30.368,42.847a.3.3,0,0,0-.2.061.274.274,0,0,0-.072.219v.3a.957.957,0,0,1-.008.142.393.393,0,0,1-.027.088h-.214a.334.334,0,0,0,.032-.107,1.176,1.176,0,0,0,.006-.12v-.294a.558.558,0,0,1,.053-.256.282.282,0,0,1,.182-.138.357.357,0,0,1-.232-.389V42.2a.47.47,0,0,1,.1-.321.414.414,0,0,1,.323-.111h.421v1.89h-.21v-.807Zm-.056-.891a.2.2,0,0,0-.169.065.308.308,0,0,0-.05.194V42.4a.244.244,0,0,0,.07.206.317.317,0,0,0,.194.053h.16v-.7Z" transform="translate(0.17 -0.023)"/><path class="cls-3" d="M31.91,41.764a.4.4,0,0,1,.324.123.527.527,0,0,1,.1.339v.227a.486.486,0,0,1-.107.341.432.432,0,0,1-.333.115h-.187v.745H31.5v-1.89Zm-.016.956a.234.234,0,0,0,.175-.058.273.273,0,0,0,.057-.2v-.251a.315.315,0,0,0-.05-.194.2.2,0,0,0-.166-.065h-.2v.764Z" transform="translate(0.17 -0.023)"/><path class="cls-3" d="M32.779,43.273l-.072.381h-.2l.362-1.89h.3l.362,1.89H33.33l-.073-.381Zm.027-.181h.422L33.014,42Z" transform="translate(0.17 -0.023)"/><path class="cls-3" d="M34.7,43.914v-.26h-.772v.26h-.2v-.447h.121a.262.262,0,0,0,.063-.121,1.043,1.043,0,0,0,.021-.154l.072-1.428h.759v1.7h.143v.447Zm-.564-.724a.907.907,0,0,1-.023.167.239.239,0,0,1-.064.11h.5V41.956H34.2Z" transform="translate(0.17 -0.023)"/><path class="cls-3" d="M35.66,42.777l-.281.877H35.16v-1.89h.187v1.409l.194-.6.275-.813h.235v1.89h-.189v-1.5Z" transform="translate(0.17 -0.023)"/><path class="cls-3" d="M36.316,42.22a.528.528,0,0,1,.106-.346.48.48,0,0,1,.653,0,.517.517,0,0,1,.108.346V43.2a.522.522,0,0,1-.108.345.475.475,0,0,1-.653,0,.532.532,0,0,1-.106-.345Zm.208.988a.33.33,0,0,0,.055.2.238.238,0,0,0,.339,0,.33.33,0,0,0,.054-.2v-1a.331.331,0,0,0-.054-.2.238.238,0,0,0-.339,0,.331.331,0,0,0-.055.2Z" transform="translate(0.17 -0.023)"/><path class="cls-3" d="M37.852,41.956l-.043,1.228a1.321,1.321,0,0,1-.024.2.393.393,0,0,1-.062.147.287.287,0,0,1-.115.094.45.45,0,0,1-.18.032h-.035v-.192a.311.311,0,0,0,.106-.016.148.148,0,0,0,.063-.05.225.225,0,0,0,.031-.085A1.186,1.186,0,0,0,37.6,43.2l.051-1.431h.769v1.89h-.21v-1.7Z" transform="translate(0.17 -0.023)"/><path class="cls-3" d="M39.634,41.746a.4.4,0,0,1,.326.128.522.522,0,0,1,.106.346V43.2a.527.527,0,0,1-.106.345.474.474,0,0,1-.652,0A.522.522,0,0,1,39.2,43.2v-.4h-.273v.851h-.211v-1.89h.211v.851H39.2v-.4a.517.517,0,0,1,.108-.346A.4.4,0,0,1,39.634,41.746Zm0,.191a.2.2,0,0,0-.17.071.331.331,0,0,0-.054.2v1a.33.33,0,0,0,.054.2.238.238,0,0,0,.339,0,.324.324,0,0,0,.055-.2v-1a.324.324,0,0,0-.055-.2A.2.2,0,0,0,39.634,41.937Z" transform="translate(0.17 -0.023)"/><path class="cls-3" d="M40.768,42.544a.469.469,0,0,1,.334.107.447.447,0,0,1,.111.336V43.2a.5.5,0,0,1-.105.341.418.418,0,0,1-.329.118h-.44v-1.89h.8v.192h-.589v.588Zm.011.918a.218.218,0,0,0,.17-.06A.29.29,0,0,0,41,43.208v-.234a.24.24,0,0,0-.06-.189.256.256,0,0,0-.175-.052h-.222v.729Z" transform="translate(0.17 -0.023)"/><path class="cls-3" d="M41.986,42.777l-.281.877h-.219v-1.89h.187v1.409l.194-.6.276-.813h.235v1.89h-.189v-1.5Z" transform="translate(0.17 -0.023)"/><path class="cls-3" d="M42.947,43.654v-1.7H42.6v-.192h.907v.192h-.348v1.7Z" transform="translate(0.17 -0.023)"/><path class="cls-3" d="M44.4,42.6v.19H43.94v.671h.568v.192H43.73v-1.89h.778v.192H43.94V42.6Z" transform="translate(0.17 -0.023)"/><path class="cls-3" d="M45.172,41.956l-.043,1.228a1.321,1.321,0,0,1-.024.2.41.41,0,0,1-.062.147.287.287,0,0,1-.115.094.45.45,0,0,1-.18.032h-.035v-.192a.305.305,0,0,0,.1-.016.145.145,0,0,0,.064-.05.225.225,0,0,0,.031-.085.965.965,0,0,0,.01-.119l.052-1.431h.769v1.89h-.21v-1.7Z" transform="translate(0.17 -0.023)"/><path class="cls-3" d="M46.708,42.6v.19h-.462v.671h.568v.192h-.778v-1.89h.778v.192h-.568V42.6Z" transform="translate(0.17 -0.023)"/><path class="cls-3" d="M47.58,42.76l-.286.894h-.219v-1.89h.187v1.409l.178-.553.292-.856h.234v1.89h-.189v-1.5Zm.243-1.385a.252.252,0,0,1-.077.2.3.3,0,0,1-.214.07.3.3,0,0,1-.212-.07.273.273,0,0,1-.08-.2h.132a.135.135,0,0,0,.049.108.189.189,0,0,0,.111.03.2.2,0,0,0,.112-.03.132.132,0,0,0,.049-.108Z" transform="translate(0.17 -0.023)"/><rect class="cls-3" x="6.243" y="33.63" width="15.428" height="9.459"/><line class="cls-4" x1="6.243" y1="38.36" x2="21.671" y2="38.36"/><line class="cls-4" x1="13.957" y1="43.089" x2="13.957" y2="38.36"/><rect class="cls-1" x="8.532" y="35.739" width="11.048" height="4.939"/><rect class="cls-5" x="13.086" y="34.725" width="2.267" height="1.891"/><rect class="cls-5" x="15.763" y="39.732" width="2.267" height="1.891"/><rect class="cls-5" x="10.083" y="39.732" width="2.267" height="1.891"/><line class="cls-6" x1="139.739" y1="33.932" x2="139.739" y2="42.842"/><line class="cls-6" x1="140.352" y1="38.826" x2="140.352" y2="42.842"/><line class="cls-6" x1="140.965" y1="38.826" x2="140.965" y2="42.842"/><line class="cls-6" x1="142.192" y1="38.826" x2="142.192" y2="42.842"/><line class="cls-6" x1="141.579" y1="38.826" x2="141.579" y2="42.842"/><line class="cls-6" x1="142.805" y1="37.253" x2="142.805" y2="42.842"/><line class="cls-6" x1="145.844" y1="33.932" x2="145.844" y2="42.842"/><line class="cls-6" x1="143.391" y1="38.826" x2="143.391" y2="42.842"/><line class="cls-6" x1="144.004" y1="38.826" x2="144.004" y2="42.842"/><line class="cls-6" x1="145.231" y1="38.826" x2="145.231" y2="42.842"/><line class="cls-6" x1="144.618" y1="38.826" x2="144.618" y2="42.842"/><path class="cls-3" d="M145.036,35.669h-1.181v-.223h.454V33.984h-.454v-.2a1.414,1.414,0,0,0,.2-.015.477.477,0,0,0,.159-.045.3.3,0,0,0,.107-.093.3.3,0,0,0,.044-.152h.227v1.966h.446Z" transform="translate(0.17 -0.023)"/><line class="cls-6" x1="146.412" y1="38.826" x2="146.412" y2="42.842"/><line class="cls-6" x1="147.025" y1="38.826" x2="147.025" y2="42.842"/><line class="cls-6" x1="148.252" y1="38.826" x2="148.252" y2="42.842"/><line class="cls-6" x1="147.639" y1="38.826" x2="147.639" y2="42.842"/><line class="cls-6" x1="148.865" y1="37.253" x2="148.865" y2="42.842"/><line class="cls-6" x1="151.905" y1="33.932" x2="151.905" y2="42.842"/><line class="cls-6" x1="149.451" y1="38.826" x2="149.451" y2="42.842"/><line class="cls-6" x1="150.065" y1="38.826" x2="150.065" y2="42.842"/><line class="cls-6" x1="151.291" y1="38.826" x2="151.291" y2="42.842"/><line class="cls-6" x1="150.678" y1="38.826" x2="150.678" y2="42.842"/><path class="cls-3" d="M151.026,35.669H149.55v-.306l.308-.264c.1-.088.2-.175.288-.262a2.783,2.783,0,0,0,.385-.433.618.618,0,0,0,.1-.346.33.33,0,0,0-.112-.266.464.464,0,0,0-.312-.1.977.977,0,0,0-.289.047,1.16,1.16,0,0,0-.3.143H149.6v-.307a1.321,1.321,0,0,1,.277-.094,1.442,1.442,0,0,1,.337-.043.793.793,0,0,1,.526.162.546.546,0,0,1,.19.439.862.862,0,0,1-.031.232.817.817,0,0,1-.093.2,1.292,1.292,0,0,1-.135.179c-.05.059-.113.124-.186.2q-.158.155-.324.3c-.111.1-.215.185-.312.267h1.173Z" transform="translate(0.17 -0.023)"/><line class="cls-6" x1="152.518" y1="38.826" x2="152.518" y2="42.842"/><line class="cls-6" x1="153.131" y1="38.826" x2="153.131" y2="42.842"/><line class="cls-6" x1="154.358" y1="38.826" x2="154.358" y2="42.842"/><line class="cls-6" x1="153.745" y1="38.826" x2="153.745" y2="42.842"/><line class="cls-6" x1="154.971" y1="37.253" x2="154.971" y2="42.842"/><line class="cls-6" x1="158.01" y1="33.932" x2="158.01" y2="42.842"/><line class="cls-6" x1="155.557" y1="38.826" x2="155.557" y2="42.842"/><line class="cls-6" x1="156.17" y1="38.826" x2="156.17" y2="42.842"/><line class="cls-6" x1="157.397" y1="38.826" x2="157.397" y2="42.842"/><line class="cls-6" x1="156.784" y1="38.826" x2="156.784" y2="42.842"/><path class="cls-3" d="M157.017,34.618a.484.484,0,0,1,.116.158.575.575,0,0,1,.045.246.68.68,0,0,1-.054.274.66.66,0,0,1-.152.217.694.694,0,0,1-.259.151,1.027,1.027,0,0,1-.326.049,1.478,1.478,0,0,1-.357-.043,1.636,1.636,0,0,1-.289-.094V35.27h.022a1.222,1.222,0,0,0,.293.136,1.068,1.068,0,0,0,.325.054.682.682,0,0,0,.2-.031.4.4,0,0,0,.268-.233.483.483,0,0,0,.033-.2.442.442,0,0,0-.037-.194.3.3,0,0,0-.1-.121.4.4,0,0,0-.16-.062,1.162,1.162,0,0,0-.2-.017h-.132v-.243h.1a.609.609,0,0,0,.355-.093.313.313,0,0,0,.133-.272.283.283,0,0,0-.034-.139.29.29,0,0,0-.094-.1.437.437,0,0,0-.135-.053.881.881,0,0,0-.162-.014.952.952,0,0,0-.3.05,1.215,1.215,0,0,0-.3.14H155.8v-.306a1.527,1.527,0,0,1,.278-.095,1.434,1.434,0,0,1,.336-.043,1.181,1.181,0,0,1,.281.03.676.676,0,0,1,.22.093.453.453,0,0,1,.214.4.445.445,0,0,1-.129.317.553.553,0,0,1-.3.171v.021a.746.746,0,0,1,.161.048A.565.565,0,0,1,157.017,34.618Z" transform="translate(0.17 -0.023)"/><line class="cls-6" x1="158.624" y1="38.826" x2="158.624" y2="42.842"/><line class="cls-6" x1="159.237" y1="38.826" x2="159.237" y2="42.842"/><line class="cls-6" x1="160.464" y1="38.826" x2="160.464" y2="42.842"/><line class="cls-6" x1="159.85" y1="38.826" x2="159.85" y2="42.842"/><line class="cls-6" x1="161.077" y1="37.253" x2="161.077" y2="42.842"/><line class="cls-6" x1="164.116" y1="33.932" x2="164.116" y2="42.842"/><line class="cls-6" x1="161.663" y1="38.826" x2="161.663" y2="42.842"/><line class="cls-6" x1="162.276" y1="38.826" x2="162.276" y2="42.842"/><line class="cls-6" x1="163.503" y1="38.826" x2="163.503" y2="42.842"/><line class="cls-6" x1="162.889" y1="38.826" x2="162.889" y2="42.842"/><path class="cls-3" d="M163.249,35.054h-.324v.614h-.281v-.614H161.6v-.337l1.056-1.23h.269V34.82h.324Zm-.6-.234v-.985l-.845.985Z" transform="translate(0.17 -0.023)"/><line class="cls-6" x1="164.729" y1="38.826" x2="164.729" y2="42.842"/><line class="cls-6" x1="165.343" y1="38.826" x2="165.343" y2="42.842"/><line class="cls-6" x1="166.569" y1="38.826" x2="166.569" y2="42.842"/><line class="cls-6" x1="165.956" y1="38.826" x2="165.956" y2="42.842"/><line class="cls-6" x1="167.183" y1="37.253" x2="167.183" y2="42.842"/><line class="cls-6" x1="170.222" y1="33.932" x2="170.222" y2="42.842"/><line class="cls-6" x1="167.769" y1="38.826" x2="167.769" y2="42.842"/><line class="cls-6" x1="168.382" y1="38.826" x2="168.382" y2="42.842"/><line class="cls-6" x1="169.608" y1="38.826" x2="169.608" y2="42.842"/><line class="cls-6" x1="168.995" y1="38.826" x2="168.995" y2="42.842"/><path class="cls-3" d="M169.374,34.975a.763.763,0,0,1-.056.292.668.668,0,0,1-.152.234.713.713,0,0,1-.251.157.951.951,0,0,1-.338.055,1.55,1.55,0,0,1-.344-.037,1.443,1.443,0,0,1-.28-.09v-.309h.021a1.237,1.237,0,0,0,.281.129.99.99,0,0,0,.316.054.715.715,0,0,0,.2-.029.427.427,0,0,0,.173-.1.407.407,0,0,0,.1-.151.572.572,0,0,0,.033-.2.422.422,0,0,0-.039-.191.318.318,0,0,0-.108-.124.494.494,0,0,0-.185-.079,1.215,1.215,0,0,0-.244-.022,1.656,1.656,0,0,0-.248.017c-.08.012-.148.024-.206.035V33.487h1.312v.256H168.33v.58q.063-.006.129-.009c.044,0,.082,0,.114,0a1.423,1.423,0,0,1,.31.03.7.7,0,0,1,.245.106.546.546,0,0,1,.182.208A.7.7,0,0,1,169.374,34.975Z" transform="translate(0.17 -0.023)"/><line class="cls-6" x1="170.835" y1="38.816" x2="170.835" y2="42.832"/><line class="cls-6" x1="171.448" y1="38.816" x2="171.448" y2="42.832"/><line class="cls-6" x1="172.675" y1="38.816" x2="172.675" y2="42.832"/><line class="cls-6" x1="172.062" y1="38.816" x2="172.062" y2="42.832"/><line class="cls-6" x1="173.288" y1="37.243" x2="173.288" y2="42.832"/><line class="cls-6" x1="176.328" y1="33.922" x2="176.328" y2="42.832"/><line class="cls-6" x1="173.874" y1="38.816" x2="173.874" y2="42.832"/><line class="cls-6" x1="174.488" y1="38.816" x2="174.488" y2="42.832"/><line class="cls-6" x1="175.714" y1="38.816" x2="175.714" y2="42.832"/><line class="cls-6" x1="175.101" y1="38.816" x2="175.101" y2="42.832"/><path class="cls-3" d="M175.368,34.951a.717.717,0,0,1-.219.542.743.743,0,0,1-.537.211.83.83,0,0,1-.293-.05.69.69,0,0,1-.233-.148.814.814,0,0,1-.194-.322,1.527,1.527,0,0,1-.068-.484,1.946,1.946,0,0,1,.062-.514,1.137,1.137,0,0,1,.2-.4.868.868,0,0,1,.333-.259,1.126,1.126,0,0,1,.474-.093,1.179,1.179,0,0,1,.145.007.656.656,0,0,1,.119.027v.28h-.015a.516.516,0,0,0-.124-.042.68.68,0,0,0-.169-.02.661.661,0,0,0-.5.2.859.859,0,0,0-.218.532,1.192,1.192,0,0,1,.242-.113.888.888,0,0,1,.276-.039,1.052,1.052,0,0,1,.245.026.642.642,0,0,1,.218.1.578.578,0,0,1,.194.226A.766.766,0,0,1,175.368,34.951Zm-.3.011a.563.563,0,0,0-.04-.225.384.384,0,0,0-.133-.155.37.37,0,0,0-.149-.062.957.957,0,0,0-.172-.015.849.849,0,0,0-.231.03.982.982,0,0,0-.22.09c0,.022,0,.043,0,.063s0,.045,0,.075a1.125,1.125,0,0,0,.048.366.5.5,0,0,0,.131.211.432.432,0,0,0,.146.095.471.471,0,0,0,.17.03.433.433,0,0,0,.334-.13A.524.524,0,0,0,175.071,34.962Z" transform="translate(0.17 -0.023)"/><line class="cls-6" x1="176.895" y1="38.816" x2="176.895" y2="42.832"/><line class="cls-6" x1="177.509" y1="38.816" x2="177.509" y2="42.832"/><line class="cls-6" x1="178.735" y1="38.816" x2="178.735" y2="42.832"/><line class="cls-6" x1="178.122" y1="38.816" x2="178.122" y2="42.832"/><line class="cls-6" x1="179.349" y1="37.243" x2="179.349" y2="42.832"/><line class="cls-6" x1="182.388" y1="33.922" x2="182.388" y2="42.832"/><line class="cls-6" x1="179.934" y1="38.816" x2="179.934" y2="42.832"/><line class="cls-6" x1="180.548" y1="38.816" x2="180.548" y2="42.832"/><line class="cls-6" x1="181.774" y1="38.816" x2="181.774" y2="42.832"/><line class="cls-6" x1="181.161" y1="38.816" x2="181.161" y2="42.832"/><path class="cls-3" d="M181.516,33.8l-.988,1.854h-.313l1.05-1.925h-1.242v-.256h1.493Z" transform="translate(0.17 -0.023)"/><line class="cls-6" x1="183.001" y1="38.816" x2="183.001" y2="42.832"/><line class="cls-6" x1="183.614" y1="38.816" x2="183.614" y2="42.832"/><line class="cls-6" x1="184.841" y1="38.816" x2="184.841" y2="42.832"/><line class="cls-6" x1="184.228" y1="38.816" x2="184.228" y2="42.832"/><line class="cls-6" x1="185.454" y1="37.243" x2="185.454" y2="42.832"/><line class="cls-6" x1="188.493" y1="33.922" x2="188.493" y2="42.832"/><line class="cls-6" x1="186.04" y1="38.816" x2="186.04" y2="42.832"/><line class="cls-6" x1="186.654" y1="38.816" x2="186.654" y2="42.832"/><line class="cls-6" x1="187.88" y1="38.816" x2="187.88" y2="42.832"/><line class="cls-6" x1="187.267" y1="38.816" x2="187.267" y2="42.832"/><path class="cls-3" d="M187.454,35.05a.592.592,0,0,1-.221.47.934.934,0,0,1-1.119,0,.593.593,0,0,1-.21-.468.553.553,0,0,1,.1-.329.721.721,0,0,1,.3-.234v-.009a.779.779,0,0,1-.261-.2.448.448,0,0,1-.084-.278.507.507,0,0,1,.2-.41.784.784,0,0,1,.514-.164.809.809,0,0,1,.521.156.491.491,0,0,1,.2.4.536.536,0,0,1-.092.291.617.617,0,0,1-.271.223v.009a.812.812,0,0,1,.313.217A.488.488,0,0,1,187.454,35.05Zm-.3.028a.355.355,0,0,0-.06-.216.6.6,0,0,0-.232-.164c-.045-.021-.1-.041-.15-.06s-.128-.044-.219-.077a.563.563,0,0,0-.211.194.5.5,0,0,0-.08.279.428.428,0,0,0,.136.326.483.483,0,0,0,.346.129.506.506,0,0,0,.342-.11A.376.376,0,0,0,187.152,35.078Zm-.045-1.093a.3.3,0,0,0-.121-.25.494.494,0,0,0-.309-.093.488.488,0,0,0-.3.088.28.28,0,0,0-.118.237.3.3,0,0,0,.059.183.52.52,0,0,0,.18.137c.036.017.088.04.156.068a1.756,1.756,0,0,0,.2.071.6.6,0,0,0,.2-.2A.5.5,0,0,0,187.107,33.985Z" transform="translate(0.17 -0.023)"/><path class="cls-7" d="M111.178,27.982a2.241,2.241,0,1,1-2.223,2.239A2.23,2.23,0,0,1,111.178,27.982Z" transform="translate(0.17 -0.023)"/><ellipse class="cls-8" cx="111.347" cy="30.199" rx="1.519" ry="1.532"/><path class="cls-7" d="M111.178,13.781a2.241,2.241,0,1,1-2.223,2.24A2.231,2.231,0,0,1,111.178,13.781Z" transform="translate(0.17 -0.023)"/><ellipse class="cls-8" cx="111.347" cy="15.999" rx="1.519" ry="1.532"/><path class="cls-7" d="M181.247,27.143a3.367,3.367,0,1,1,3.365,3.338A3.352,3.352,0,0,1,181.247,27.143Z" transform="translate(0.17 -0.023)"/><ellipse class="cls-8" cx="184.783" cy="27.12" rx="2.301" ry="2.281"/><path class="cls-7" d="M151.913,27.143a3.367,3.367,0,1,1,3.365,3.338A3.351,3.351,0,0,1,151.913,27.143Z" transform="translate(0.17 -0.023)"/><ellipse class="cls-8" cx="155.449" cy="27.12" rx="2.301" ry="2.281"/><path class="cls-7" d="M37.238,27.143A3.367,3.367,0,1,1,40.6,30.481,3.351,3.351,0,0,1,37.238,27.143Z" transform="translate(0.17 -0.023)"/><ellipse class="cls-8" cx="40.774" cy="27.12" rx="2.301" ry="2.281"/><path class="cls-7" d="M7.9,27.143a3.367,3.367,0,1,1,3.365,3.338A3.351,3.351,0,0,1,7.9,27.143Z" transform="translate(0.17 -0.023)"/><ellipse class="cls-8" cx="11.44" cy="27.12" rx="2.301" ry="2.281"/><polygon class="cls-9" points="104.764 44.899 103.519 46.142 98.958 46.169 97.686 44.895 97.687 40.364 98.944 39.109 103.493 39.093 104.764 40.366 104.764 44.899"/><path class="cls-10" d="M97.522,40.39l.635-.635.635-.634h4.527l.635.634.635.635v4.528l-.356.355-.914.914H98.792l-1.27-1.269V40.39m-.01,0v4.536L98.788,46.2h4.535l1.276-1.275V40.386l-1.276-1.275H98.788l-1.276,1.275Z" transform="translate(0.17 -0.023)"/><rect class="cls-11" x="100.342" y="41.724" width="1.768" height="1.814"/><rect class="cls-12" x="100.742" y="42.135" width="0.967" height="0.992"/><line class="cls-13" x1="102.109" y1="43.538" x2="101.709" y2="43.127"/><line class="cls-13" x1="100.742" y1="43.127" x2="100.342" y2="43.538"/><line class="cls-13" x1="100.742" y1="42.135" x2="100.342" y2="41.724"/><line class="cls-13" x1="101.709" y1="42.135" x2="102.109" y2="41.724"/><polygon class="cls-9" points="111.908 44.899 110.662 46.142 106.101 46.169 104.829 44.895 104.831 40.364 106.087 39.109 110.637 39.093 111.908 40.366 111.908 44.899"/><path class="cls-10" d="M104.666,40.39l.635-.634.634-.635h4.528l.634.635.635.634v4.528l-.355.355-.914.914h-4.528l-1.269-1.269V40.39m-.01,0v4.536l1.275,1.275h4.536l1.275-1.275V40.386l-1.275-1.275h-4.536l-1.275,1.275Z" transform="translate(0.17 -0.023)"/><rect class="cls-11" x="107.485" y="41.724" width="1.768" height="1.814"/><rect class="cls-12" x="107.886" y="42.135" width="0.967" height="0.992"/><line class="cls-13" x1="109.253" y1="43.538" x2="108.852" y2="43.127"/><line class="cls-13" x1="107.886" y1="43.127" x2="107.485" y2="43.538"/><line class="cls-13" x1="107.886" y1="42.135" x2="107.485" y2="41.724"/><line class="cls-13" x1="108.852" y1="42.135" x2="109.253" y2="41.724"/><polygon class="cls-9" points="90.477 44.899 89.203 46.171 84.671 46.169 83.399 44.895 83.401 40.363 84.658 39.109 89.207 39.092 90.477 40.365 90.477 44.899"/><path class="cls-10" d="M83.236,40.39l.635-.635.635-.634h4.527l.635.634.634.635v4.527l-.355.356-.914.914H84.506l-1.27-1.27V40.39m-.01,0v4.536L84.5,46.2h4.536l1.275-1.275V40.386L89.037,39.11H84.5l-1.275,1.276Z" transform="translate(0.17 -0.023)"/><rect class="cls-11" x="86.055" y="41.724" width="1.768" height="1.814"/><rect class="cls-12" x="86.456" y="42.135" width="0.967" height="0.992"/><line class="cls-13" x1="87.823" y1="43.538" x2="87.422" y2="43.127"/><line class="cls-13" x1="86.456" y1="43.127" x2="86.055" y2="43.538"/><line class="cls-13" x1="86.456" y1="42.135" x2="86.055" y2="41.724"/><line class="cls-13" x1="87.422" y1="42.135" x2="87.823" y2="41.724"/><polygon class="cls-9" points="97.621 44.899 96.375 46.142 91.815 46.17 90.56 44.913 90.544 40.363 91.818 39.091 96.35 39.093 97.621 40.365 97.621 44.899"/><path class="cls-10" d="M90.379,40.391l1.27-1.27h4.527l.914.914.356.356v4.527l-.635.635-.635.634H91.649l-.536-.535-.734-.734V40.391m-.01,0v4.536L91.645,46.2H96.18l1.276-1.275V40.386L96.18,39.111H91.645l-1.276,1.275Z" transform="translate(0.17 -0.023)"/><rect class="cls-11" x="93.198" y="41.724" width="1.768" height="1.814"/><rect class="cls-12" x="93.599" y="42.135" width="0.967" height="0.992"/><line class="cls-13" x1="94.966" y1="43.538" x2="94.566" y2="43.127"/><line class="cls-13" x1="93.599" y1="43.127" x2="93.198" y2="43.538"/><line class="cls-13" x1="93.599" y1="42.135" x2="93.198" y2="41.724"/><line class="cls-13" x1="94.566" y1="42.135" x2="94.966" y2="41.724"/><rect class="cls-14" x="86.089" y="43.538" width="1.701" height="23.769"/><rect class="cls-14" x="100.375" y="43.538" width="1.701" height="23.769"/><rect class="cls-14" x="93.232" y="43.538" width="1.701" height="23.769"/><rect class="cls-14" x="107.519" y="43.538" width="1.701" height="23.769"/></g></svg>