<svg xmlns="http://www.w3.org/2000/svg" viewBox="0 0 197.631 151.218"><defs><style>.cls-1{fill:#676767;}.cls-12,.cls-2,.cls-3{fill:#4d4c4d;}.cls-10,.cls-14,.cls-18,.cls-2,.cls-20,.cls-21,.cls-3{stroke:#000;}.cls-10,.cls-13,.cls-14,.cls-16,.cls-17,.cls-18,.cls-19,.cls-2,.cls-20,.cls-21,.cls-3,.cls-5,.cls-6,.cls-7{stroke-miterlimit:10;}.cls-2{stroke-width:0.244px;}.cls-3{stroke-width:0.05px;}.cls-4{fill:#181819;}.cls-5{fill:#f5923e;}.cls-5,.cls-6,.cls-7{stroke:#f06640;stroke-width:0.02px;}.cls-6{fill:#faac47;}.cls-7{fill:none;}.cls-8{fill:#cec5ba;}.cls-9{fill:#928982;}.cls-10,.cls-11,.cls-20{fill:#fff;}.cls-10{stroke-width:0.25px;}.cls-13{fill:#e4e4e3;stroke:#f5923e;stroke-width:0.739px;}.cls-14,.cls-16{stroke-width:0.5px;}.cls-15,.cls-16{fill:#cdcbca;}.cls-16{stroke:#cdcbca;}.cls-17,.cls-19{stroke:#ccc3b9;}.cls-17{stroke-width:1.443px;}.cls-18{stroke-width:0.976px;}.cls-19,.cls-21{fill:#ccc3b9;}.cls-19{stroke-width:0.1px;}.cls-20{stroke-width:0.104px;}.cls-21{stroke-width:0.095px;}</style></defs><g id="bottom"><g id="Разъём"><g id="AUX"><polygon class="cls-1" points="194.915 131.019 194.915 113.769 193.411 113.769 193.411 131.019 193.618 131.019 194.915 131.019"/><path class="cls-2" d="M191.327,121.1h10.308a.283.283,0,0,1,.283.283v2.31a0,0,0,0,1,0,0H191.043a0,0,0,0,1,0,0v-2.31A.283.283,0,0,1,191.327,121.1Z" transform="translate(318.606 -74.087) rotate(90)"/><rect class="cls-3" x="188.994" y="121.642" width="10.875" height="1.504" transform="translate(316.557 -72.038) rotate(90)"/></g></g><path id="arduino-shield-2" class="cls-4" d="M.269,43.926v92.89l7.2,7.2V151.2c.009,0,187.027.022,187.022.019L194.489,0,11.779.026l-4.3,4.3v32.4Zm11.72,6.48a4.5,4.5,0,0,1-4.5,4.46l.01-.02a4.488,4.488,0,0,1-4.45-4.49h0a4.462,4.462,0,0,1,4.45-4.45h.01a4.493,4.493,0,0,1,4.48,4.48Zm-6.43,21.68a1.43,1.43,0,0,1,1.43-1.43h.02a1.435,1.435,0,1,1-1.45,1.43Zm1.43,5.78,1.245,1.245a.517.517,0,0,1,.162.445,1.429,1.429,0,0,1-2.837-.24V79.3A1.43,1.43,0,0,1,6.989,77.866Zm-1.43-13a1.43,1.43,0,1,1,1.43,1.43A1.43,1.43,0,0,1,5.559,64.866Zm145,79.19a4.48,4.48,0,0,1,4.48-4.48h.22a4.4,4.4,0,0,1,4.3,4.39v.11a4.475,4.475,0,0,1-4.5,4.44l-.04.02a4.488,4.488,0,0,1-4.46-4.48Zm-3.6-136.75a4.513,4.513,0,0,1,4.5-4.5h.09a4.423,4.423,0,0,1,4.41,4.41v.07a4.475,4.475,0,0,1-4.5,4.44s-4.456-.641-4.5-4.4Zm-31.75,111.16a1.841,1.841,0,1,1-1.29,2.27A1.834,1.834,0,0,1,115.209,118.466Zm-7.2,0a1.843,1.843,0,1,1-1.28,2.27A1.844,1.844,0,0,1,108.009,118.466Zm-7.12,0a1.843,1.843,0,1,1-1.28,2.27A1.844,1.844,0,0,1,100.889,118.466Zm-7.17,0a1.843,1.843,0,1,1-1.28,2.27A1.844,1.844,0,0,1,93.719,118.466Zm-80.94-39.18a1.42,1.42,0,1,1,1.43,1.45h0a1.434,1.434,0,0,1-1.43-1.43Zm0-7.2a1.42,1.42,0,1,1,1.41,1.43l.01.01a1.439,1.439,0,0,1-1.42-1.42Zm0-7.22a1.42,1.42,0,1,1,1.43,1.43h-.02A1.432,1.432,0,0,1,12.779,64.866Zm-9.79,64.79a4.513,4.513,0,0,1,4.5-4.5h.16a4.353,4.353,0,0,1,4.34,4.34v.12a4.513,4.513,0,0,1-4.5,4.5h-.06a4.466,4.466,0,0,1-4.44-4.46Z" transform="translate(-0.269 0)"/><rect class="cls-5" x="21.265" y="6.176" width="1.134" height="2.098" transform="translate(14.338 29.056) rotate(-90)"/><rect class="cls-6" x="21.622" y="6.512" width="0.425" height="1.417" transform="translate(14.346 29.056) rotate(-90)"/><line class="cls-7" x1="20.514" y1="7.791" x2="20.858" y2="7.433"/><line class="cls-7" x1="20.858" y1="7.008" x2="20.514" y2="6.657"/><line class="cls-7" x1="22.275" y1="7.008" x2="22.612" y2="6.657"/><line class="cls-7" x1="22.275" y1="7.433" x2="22.612" y2="7.791"/><rect class="cls-5" x="14.065" y="6.176" width="1.134" height="2.098" transform="translate(7.138 21.856) rotate(-90)"/><rect class="cls-6" x="14.422" y="6.512" width="0.425" height="1.417" transform="translate(7.146 21.856) rotate(-90)"/><line class="cls-7" x1="13.314" y1="7.791" x2="13.658" y2="7.433"/><line class="cls-7" x1="13.658" y1="7.008" x2="13.314" y2="6.657"/><line class="cls-7" x1="15.075" y1="7.008" x2="15.412" y2="6.657"/><line class="cls-7" x1="15.075" y1="7.433" x2="15.412" y2="7.791"/><rect class="cls-5" x="28.465" y="6.176" width="1.134" height="2.098" transform="translate(21.538 36.256) rotate(-90)"/><rect class="cls-6" x="28.822" y="6.512" width="0.425" height="1.417" transform="translate(21.546 36.256) rotate(-90)"/><line class="cls-7" x1="27.714" y1="7.791" x2="28.058" y2="7.433"/><line class="cls-7" x1="28.058" y1="7.008" x2="27.714" y2="6.657"/><line class="cls-7" x1="29.475" y1="7.008" x2="29.812" y2="6.657"/><line class="cls-7" x1="29.475" y1="7.433" x2="29.812" y2="7.791"/><rect class="cls-5" x="35.668" y="6.172" width="1.134" height="2.098" transform="translate(28.746 43.456) rotate(-90)"/><rect class="cls-6" x="36.026" y="6.508" width="0.425" height="1.417" transform="translate(28.753 43.456) rotate(-90)"/><line class="cls-7" x1="34.918" y1="7.788" x2="35.261" y2="7.43"/><line class="cls-7" x1="35.261" y1="7.005" x2="34.918" y2="6.654"/><line class="cls-7" x1="36.679" y1="7.005" x2="37.015" y2="6.654"/><line class="cls-7" x1="36.679" y1="7.43" x2="37.015" y2="7.788"/><rect class="cls-5" x="42.868" y="6.176" width="1.134" height="2.098" transform="translate(35.942 50.659) rotate(-90)"/><rect class="cls-6" x="43.226" y="6.512" width="0.425" height="1.417" transform="translate(35.949 50.659) rotate(-90)"/><line class="cls-7" x1="42.118" y1="7.791" x2="42.461" y2="7.433"/><line class="cls-7" x1="42.461" y1="7.008" x2="42.118" y2="6.657"/><line class="cls-7" x1="43.879" y1="7.008" x2="44.215" y2="6.657"/><line class="cls-7" x1="43.879" y1="7.433" x2="44.215" y2="7.791"/><rect class="cls-5" x="50.065" y="6.176" width="1.134" height="2.098" transform="translate(43.138 57.856) rotate(-90)"/><rect class="cls-6" x="50.422" y="6.512" width="0.425" height="1.417" transform="translate(43.146 57.856) rotate(-90)"/><line class="cls-7" x1="49.314" y1="7.791" x2="49.658" y2="7.433"/><line class="cls-7" x1="49.658" y1="7.008" x2="49.314" y2="6.657"/><line class="cls-7" x1="51.075" y1="7.008" x2="51.412" y2="6.657"/><line class="cls-7" x1="51.075" y1="7.433" x2="51.412" y2="7.791"/><rect class="cls-5" x="57.265" y="6.176" width="1.134" height="2.098" transform="translate(50.338 65.056) rotate(-90)"/><rect class="cls-6" x="57.622" y="6.512" width="0.425" height="1.417" transform="translate(50.346 65.056) rotate(-90)"/><line class="cls-7" x1="56.514" y1="7.791" x2="56.858" y2="7.433"/><line class="cls-7" x1="56.858" y1="7.008" x2="56.514" y2="6.657"/><line class="cls-7" x1="58.275" y1="7.008" x2="58.612" y2="6.657"/><line class="cls-7" x1="58.275" y1="7.433" x2="58.612" y2="7.791"/><rect class="cls-5" x="64.465" y="6.176" width="1.134" height="2.098" transform="translate(57.538 72.256) rotate(-90)"/><rect class="cls-6" x="64.822" y="6.512" width="0.425" height="1.417" transform="translate(57.546 72.256) rotate(-90)"/><line class="cls-7" x1="63.714" y1="7.791" x2="64.058" y2="7.433"/><line class="cls-7" x1="64.058" y1="7.008" x2="63.714" y2="6.657"/><line class="cls-7" x1="65.475" y1="7.008" x2="65.812" y2="6.657"/><line class="cls-7" x1="65.475" y1="7.433" x2="65.812" y2="7.791"/><rect class="cls-5" x="75.985" y="6.176" width="1.134" height="2.098" transform="translate(69.058 83.776) rotate(-90)"/><rect class="cls-6" x="76.342" y="6.512" width="0.425" height="1.417" transform="translate(69.066 83.776) rotate(-90)"/><line class="cls-7" x1="75.234" y1="7.791" x2="75.578" y2="7.433"/><line class="cls-7" x1="75.578" y1="7.008" x2="75.234" y2="6.657"/><line class="cls-7" x1="76.995" y1="7.008" x2="77.332" y2="6.657"/><line class="cls-7" x1="76.995" y1="7.433" x2="77.332" y2="7.791"/><rect class="cls-5" x="83.185" y="6.176" width="1.134" height="2.098" transform="translate(76.258 90.976) rotate(-90)"/><rect class="cls-6" x="83.542" y="6.512" width="0.425" height="1.417" transform="translate(76.266 90.976) rotate(-90)"/><line class="cls-7" x1="82.434" y1="7.791" x2="82.778" y2="7.433"/><line class="cls-7" x1="82.778" y1="7.008" x2="82.434" y2="6.657"/><line class="cls-7" x1="84.195" y1="7.008" x2="84.532" y2="6.657"/><line class="cls-7" x1="84.195" y1="7.433" x2="84.532" y2="7.791"/><rect class="cls-5" x="90.385" y="6.176" width="1.134" height="2.098" transform="translate(83.458 98.176) rotate(-90)"/><rect class="cls-6" x="90.742" y="6.512" width="0.425" height="1.417" transform="translate(83.466 98.176) rotate(-90)"/><line class="cls-7" x1="89.634" y1="7.791" x2="89.978" y2="7.433"/><line class="cls-7" x1="89.978" y1="7.008" x2="89.634" y2="6.657"/><line class="cls-7" x1="91.395" y1="7.008" x2="91.732" y2="6.657"/><line class="cls-7" x1="91.395" y1="7.433" x2="91.732" y2="7.791"/><rect class="cls-5" x="97.585" y="6.176" width="1.134" height="2.098" transform="translate(90.658 105.376) rotate(-90)"/><rect class="cls-6" x="97.942" y="6.512" width="0.425" height="1.417" transform="translate(90.666 105.376) rotate(-90)"/><line class="cls-7" x1="96.834" y1="7.791" x2="97.178" y2="7.433"/><line class="cls-7" x1="97.178" y1="7.008" x2="96.834" y2="6.657"/><line class="cls-7" x1="98.595" y1="7.008" x2="98.932" y2="6.657"/><line class="cls-7" x1="98.595" y1="7.433" x2="98.932" y2="7.791"/><rect class="cls-5" x="104.785" y="6.176" width="1.134" height="2.098" transform="translate(97.858 112.576) rotate(-90)"/><rect class="cls-6" x="105.142" y="6.512" width="0.425" height="1.417" transform="translate(97.866 112.576) rotate(-90)"/><line class="cls-7" x1="104.034" y1="7.791" x2="104.378" y2="7.433"/><line class="cls-7" x1="104.378" y1="7.008" x2="104.034" y2="6.657"/><line class="cls-7" x1="105.795" y1="7.008" x2="106.132" y2="6.657"/><line class="cls-7" x1="105.795" y1="7.433" x2="106.132" y2="7.791"/><rect class="cls-5" x="111.985" y="6.176" width="1.134" height="2.098" transform="translate(105.058 119.776) rotate(-90)"/><rect class="cls-6" x="112.342" y="6.512" width="0.425" height="1.417" transform="translate(105.066 119.776) rotate(-90)"/><line class="cls-7" x1="111.234" y1="7.791" x2="111.578" y2="7.433"/><line class="cls-7" x1="111.578" y1="7.008" x2="111.234" y2="6.657"/><line class="cls-7" x1="112.995" y1="7.008" x2="113.332" y2="6.657"/><line class="cls-7" x1="112.995" y1="7.433" x2="113.332" y2="7.791"/><rect class="cls-5" x="119.185" y="6.176" width="1.134" height="2.098" transform="translate(112.258 126.976) rotate(-90)"/><rect class="cls-6" x="119.542" y="6.512" width="0.425" height="1.417" transform="translate(112.266 126.976) rotate(-90)"/><line class="cls-7" x1="118.434" y1="7.791" x2="118.778" y2="7.433"/><line class="cls-7" x1="118.778" y1="7.008" x2="118.434" y2="6.657"/><line class="cls-7" x1="120.195" y1="7.008" x2="120.532" y2="6.657"/><line class="cls-7" x1="120.195" y1="7.433" x2="120.532" y2="7.791"/><rect class="cls-5" x="126.388" y="6.176" width="1.134" height="2.098" transform="translate(119.462 134.179) rotate(-90)"/><rect class="cls-6" x="126.746" y="6.512" width="0.425" height="1.417" transform="translate(119.469 134.179) rotate(-90)"/><line class="cls-7" x1="125.638" y1="7.791" x2="125.981" y2="7.433"/><line class="cls-7" x1="125.981" y1="7.008" x2="125.638" y2="6.657"/><line class="cls-7" x1="127.399" y1="7.008" x2="127.735" y2="6.657"/><line class="cls-7" x1="127.399" y1="7.433" x2="127.735" y2="7.791"/><rect class="cls-5" x="133.585" y="6.176" width="1.134" height="2.098" transform="translate(126.658 141.376) rotate(-90)"/><rect class="cls-6" x="133.942" y="6.512" width="0.425" height="1.417" transform="translate(126.666 141.376) rotate(-90)"/><line class="cls-7" x1="132.834" y1="7.791" x2="133.178" y2="7.433"/><line class="cls-7" x1="133.178" y1="7.008" x2="132.834" y2="6.657"/><line class="cls-7" x1="134.595" y1="7.008" x2="134.932" y2="6.657"/><line class="cls-7" x1="134.595" y1="7.433" x2="134.932" y2="7.791"/><rect class="cls-5" x="140.785" y="6.176" width="1.134" height="2.098" transform="translate(133.858 148.576) rotate(-90)"/><rect class="cls-6" x="141.142" y="6.512" width="0.425" height="1.417" transform="translate(133.866 148.576) rotate(-90)"/><line class="cls-7" x1="140.034" y1="7.791" x2="140.378" y2="7.433"/><line class="cls-7" x1="140.378" y1="7.008" x2="140.034" y2="6.657"/><line class="cls-7" x1="141.795" y1="7.008" x2="142.132" y2="6.657"/><line class="cls-7" x1="141.795" y1="7.433" x2="142.132" y2="7.791"/><rect class="cls-5" x="64.468" y="142.946" width="1.134" height="2.098" transform="translate(-79.229 209.03) rotate(-90)"/><rect class="cls-6" x="64.826" y="143.283" width="0.425" height="1.417" transform="translate(-79.221 209.03) rotate(-90)"/><line class="cls-7" x1="63.718" y1="144.562" x2="64.061" y2="144.204"/><line class="cls-7" x1="64.061" y1="143.779" x2="63.718" y2="143.428"/><line class="cls-7" x1="65.479" y1="143.779" x2="65.815" y2="143.428"/><line class="cls-7" x1="65.479" y1="144.204" x2="65.815" y2="144.562"/><rect class="cls-5" x="71.665" y="142.976" width="1.134" height="2.098" transform="translate(-72.062 216.256) rotate(-90)"/><rect class="cls-6" x="72.022" y="143.312" width="0.425" height="1.417" transform="translate(-72.054 216.256) rotate(-90)"/><line class="cls-7" x1="70.914" y1="144.591" x2="71.258" y2="144.233"/><line class="cls-7" x1="71.258" y1="143.808" x2="70.914" y2="143.457"/><line class="cls-7" x1="72.675" y1="143.808" x2="73.012" y2="143.457"/><line class="cls-7" x1="72.675" y1="144.233" x2="73.012" y2="144.591"/><rect class="cls-5" x="78.865" y="142.976" width="1.134" height="2.098" transform="translate(-64.862 223.456) rotate(-90)"/><rect class="cls-6" x="79.222" y="143.312" width="0.425" height="1.417" transform="translate(-64.854 223.456) rotate(-90)"/><line class="cls-7" x1="78.114" y1="144.591" x2="78.458" y2="144.233"/><line class="cls-7" x1="78.458" y1="143.808" x2="78.114" y2="143.457"/><line class="cls-7" x1="79.875" y1="143.808" x2="80.212" y2="143.457"/><line class="cls-7" x1="79.875" y1="144.233" x2="80.212" y2="144.591"/><rect class="cls-5" x="86.065" y="142.976" width="1.134" height="2.098" transform="translate(-57.662 230.656) rotate(-90)"/><rect class="cls-6" x="86.422" y="143.312" width="0.425" height="1.417" transform="translate(-57.654 230.656) rotate(-90)"/><line class="cls-7" x1="85.314" y1="144.591" x2="85.658" y2="144.233"/><line class="cls-7" x1="85.658" y1="143.808" x2="85.314" y2="143.457"/><line class="cls-7" x1="87.075" y1="143.808" x2="87.412" y2="143.457"/><line class="cls-7" x1="87.075" y1="144.233" x2="87.412" y2="144.591"/><rect class="cls-5" x="93.265" y="142.976" width="1.134" height="2.098" transform="translate(-50.462 237.856) rotate(-90)"/><rect class="cls-6" x="93.622" y="143.312" width="0.425" height="1.417" transform="translate(-50.454 237.856) rotate(-90)"/><line class="cls-7" x1="92.514" y1="144.591" x2="92.858" y2="144.233"/><line class="cls-7" x1="92.858" y1="143.808" x2="92.514" y2="143.457"/><line class="cls-7" x1="94.275" y1="143.808" x2="94.612" y2="143.457"/><line class="cls-7" x1="94.275" y1="144.233" x2="94.612" y2="144.591"/><rect class="cls-5" x="100.465" y="142.976" width="1.134" height="2.098" transform="translate(-43.262 245.056) rotate(-90)"/><rect class="cls-6" x="100.822" y="143.312" width="0.425" height="1.417" transform="translate(-43.254 245.056) rotate(-90)"/><line class="cls-7" x1="99.714" y1="144.591" x2="100.058" y2="144.233"/><line class="cls-7" x1="100.058" y1="143.808" x2="99.714" y2="143.457"/><line class="cls-7" x1="101.475" y1="143.808" x2="101.812" y2="143.457"/><line class="cls-7" x1="101.475" y1="144.233" x2="101.812" y2="144.591"/><rect class="cls-5" x="107.665" y="142.976" width="1.134" height="2.098" transform="translate(-36.062 252.256) rotate(-90)"/><rect class="cls-6" x="108.022" y="143.312" width="0.425" height="1.417" transform="translate(-36.054 252.256) rotate(-90)"/><line class="cls-7" x1="106.914" y1="144.591" x2="107.258" y2="144.233"/><line class="cls-7" x1="107.258" y1="143.808" x2="106.914" y2="143.457"/><line class="cls-7" x1="108.675" y1="143.808" x2="109.012" y2="143.457"/><line class="cls-7" x1="108.675" y1="144.233" x2="109.012" y2="144.591"/><rect class="cls-5" x="114.865" y="142.976" width="1.134" height="2.098" transform="translate(-28.862 259.456) rotate(-90)"/><rect class="cls-6" x="115.222" y="143.312" width="0.425" height="1.417" transform="translate(-28.854 259.456) rotate(-90)"/><line class="cls-7" x1="114.114" y1="144.591" x2="114.458" y2="144.233"/><line class="cls-7" x1="114.458" y1="143.808" x2="114.114" y2="143.457"/><line class="cls-7" x1="115.875" y1="143.808" x2="116.212" y2="143.457"/><line class="cls-7" x1="115.875" y1="144.233" x2="116.212" y2="144.591"/><rect class="cls-5" x="50.068" y="142.972" width="1.134" height="2.098" transform="translate(-93.654 194.656) rotate(-90)"/><rect class="cls-6" x="50.426" y="143.308" width="0.425" height="1.417" transform="translate(-93.647 194.656) rotate(-90)"/><line class="cls-7" x1="49.318" y1="144.588" x2="49.661" y2="144.23"/><line class="cls-7" x1="49.661" y1="143.805" x2="49.318" y2="143.454"/><line class="cls-7" x1="51.079" y1="143.805" x2="51.415" y2="143.454"/><line class="cls-7" x1="51.079" y1="144.23" x2="51.415" y2="144.588"/><rect class="cls-5" x="42.865" y="142.976" width="1.134" height="2.098" transform="translate(-100.862 187.456) rotate(-90)"/><rect class="cls-6" x="43.222" y="143.312" width="0.425" height="1.417" transform="translate(-100.854 187.456) rotate(-90)"/><line class="cls-7" x1="42.114" y1="144.591" x2="42.458" y2="144.233"/><line class="cls-7" x1="42.458" y1="143.808" x2="42.114" y2="143.457"/><line class="cls-7" x1="43.875" y1="143.808" x2="44.212" y2="143.457"/><line class="cls-7" x1="43.875" y1="144.233" x2="44.212" y2="144.591"/><rect class="cls-5" x="35.665" y="142.976" width="1.134" height="2.098" transform="translate(-108.062 180.256) rotate(-90)"/><rect class="cls-6" x="36.022" y="143.312" width="0.425" height="1.417" transform="translate(-108.054 180.256) rotate(-90)"/><line class="cls-7" x1="34.914" y1="144.591" x2="35.258" y2="144.233"/><line class="cls-7" x1="35.258" y1="143.808" x2="34.914" y2="143.457"/><line class="cls-7" x1="36.675" y1="143.808" x2="37.012" y2="143.457"/><line class="cls-7" x1="36.675" y1="144.233" x2="37.012" y2="144.591"/><rect class="cls-5" x="28.465" y="142.976" width="1.134" height="2.098" transform="translate(-115.262 173.056) rotate(-90)"/><rect class="cls-6" x="28.822" y="143.312" width="0.425" height="1.417" transform="translate(-115.254 173.056) rotate(-90)"/><line class="cls-7" x1="27.714" y1="144.591" x2="28.058" y2="144.233"/><line class="cls-7" x1="28.058" y1="143.808" x2="27.714" y2="143.457"/><line class="cls-7" x1="29.475" y1="143.808" x2="29.812" y2="143.457"/><line class="cls-7" x1="29.475" y1="144.233" x2="29.812" y2="144.591"/><rect class="cls-5" x="21.268" y="142.972" width="1.134" height="2.098" transform="translate(-122.454 165.856) rotate(-90)"/><rect class="cls-6" x="21.626" y="143.308" width="0.425" height="1.417" transform="translate(-122.447 165.856) rotate(-90)"/><line class="cls-7" x1="20.518" y1="144.588" x2="20.861" y2="144.23"/><line class="cls-7" x1="20.861" y1="143.805" x2="20.518" y2="143.454"/><line class="cls-7" x1="22.279" y1="143.805" x2="22.615" y2="143.454"/><line class="cls-7" x1="22.279" y1="144.23" x2="22.615" y2="144.588"/><rect class="cls-5" x="14.065" y="142.976" width="1.134" height="2.098" transform="translate(-129.662 158.656) rotate(-90)"/><rect class="cls-6" x="14.422" y="143.312" width="0.425" height="1.417" transform="translate(-129.654 158.656) rotate(-90)"/><line class="cls-7" x1="13.314" y1="144.591" x2="13.658" y2="144.233"/><line class="cls-7" x1="13.658" y1="143.808" x2="13.314" y2="143.457"/><line class="cls-7" x1="15.075" y1="143.808" x2="15.412" y2="143.457"/><line class="cls-7" x1="15.075" y1="144.233" x2="15.412" y2="144.591"/><path class="cls-8" d="M142.131,141.746a2.241,2.241,0,1,1-2.222,2.24A2.231,2.231,0,0,1,142.131,141.746Z" transform="translate(-0.269 0)"/><ellipse class="cls-9" cx="141.863" cy="143.987" rx="1.519" ry="1.532"/><path class="cls-8" d="M142.131,134.543a2.241,2.241,0,1,1-2.222,2.24A2.231,2.231,0,0,1,142.131,134.543Z" transform="translate(-0.269 0)"/><ellipse class="cls-9" cx="141.863" cy="136.784" rx="1.519" ry="1.532"/><path class="cls-8" d="M142.165,118.447a2.241,2.241,0,1,1-2.222,2.24A2.231,2.231,0,0,1,142.165,118.447Z" transform="translate(-0.269 0)"/><ellipse class="cls-9" cx="141.897" cy="120.688" rx="1.519" ry="1.532"/><path class="cls-8" d="M142.165,111.232a2.241,2.241,0,1,1-2.222,2.239A2.231,2.231,0,0,1,142.165,111.232Z" transform="translate(-0.269 0)"/><ellipse class="cls-9" cx="141.897" cy="113.472" rx="1.519" ry="1.532"/><polygon class="cls-10" points="65.731 69.794 62.324 69.794 62.324 79.262 76.793 79.262 76.793 74.95 73.699 74.95 73.699 77.669 67.512 77.669 67.512 74.95 65.793 74.95 65.731 69.794"/><polygon class="cls-10" points="65.731 68.231 62.324 68.231 62.324 58.7 92.762 58.7 92.762 68.231 89.268 68.231 89.268 63.065 80.586 63.042 80.586 60.324 74.481 60.324 74.481 63.042 65.731 63.042 65.731 68.231"/><polygon class="cls-10" points="78.293 74.95 78.293 79.262 92.762 79.262 92.762 69.794 89.268 69.794 89.268 74.95 87.512 74.95 87.512 77.637 81.387 77.669 81.387 74.95 78.293 74.95"/><rect class="cls-10" x="68.656" y="74.007" width="3.812" height="2.435"/><rect class="cls-10" x="75.609" y="61.501" width="3.824" height="2.447"/><rect class="cls-10" x="82.559" y="74.012" width="3.859" height="2.438"/><path class="cls-11" d="M97.754,57.9v14.11h-1.3V57.9Z" transform="translate(-0.269 0)"/><path class="cls-11" d="M100.829,69.17l-.451,2.842h-1.2l2.24-14.11h1.89l2.239,14.11h-1.3l-.451-2.842ZM101,67.819h2.609l-1.322-8.143Z" transform="translate(-0.269 0)"/><path class="cls-11" d="M109.589,57.9a2.32,2.32,0,0,1,2,.827,4,4,0,0,1,.61,2.4v1.149a4.373,4.373,0,0,1-.351,1.9,1.938,1.938,0,0,1-1.1,1.008,1.861,1.861,0,0,1,1.137,1.038,4.7,4.7,0,0,1,.335,1.905v2.2q0,.463.033.9a2.336,2.336,0,0,0,.2.8h-1.32a2.946,2.946,0,0,1-.167-.656,8.244,8.244,0,0,1-.05-1.058V68.081a2.353,2.353,0,0,0-.443-1.643,1.687,1.687,0,0,0-1.263-.453h-.919v6.027h-1.3V57.9Zm-.334,6.652a1.753,1.753,0,0,0,1.22-.393,2.066,2.066,0,0,0,.435-1.542v-1.35a2.734,2.734,0,0,0-.309-1.452,1.146,1.146,0,0,0-1.045-.484h-1.271v5.221Z" transform="translate(-0.269 0)"/><path class="cls-11" d="M116.728,57.9a2.271,2.271,0,0,1,2.014.938,4.483,4.483,0,0,1,.644,2.57v7.115a4.429,4.429,0,0,1-.644,2.559,2.279,2.279,0,0,1-2.014.928h-2.741V57.9Zm-.017,12.679a1.171,1.171,0,0,0,1.045-.514,2.667,2.667,0,0,0,.343-1.482V61.329a2.661,2.661,0,0,0-.343-1.481,1.186,1.186,0,0,0-1.061-.515h-1.4V70.581Z" transform="translate(-0.269 0)"/><path class="cls-11" d="M122.261,68.686a2.891,2.891,0,0,0,.326,1.5,1.132,1.132,0,0,0,1.045.535,1.114,1.114,0,0,0,1.028-.535,2.88,2.88,0,0,0,.327-1.5V57.9h1.219v10.7a4.691,4.691,0,0,1-.634,2.59,2.5,2.5,0,0,1-3.962,0,4.683,4.683,0,0,1-.636-2.59V57.9h1.287Z" transform="translate(-0.269 0)"/><path class="cls-11" d="M129.215,57.9v14.11h-1.3V57.9Z" transform="translate(-0.269 0)"/><path class="cls-11" d="M132.124,72.012h-1.17V57.9h1.655l2.709,10.2V57.9h1.153v14.11h-1.355L132.124,60.6Z" transform="translate(-0.269 0)"/><path class="cls-11" d="M138.125,61.309a4.5,4.5,0,0,1,.66-2.59,2.605,2.605,0,0,1,4.037,0,4.442,4.442,0,0,1,.669,2.59v7.3a4.449,4.449,0,0,1-.669,2.58,2.589,2.589,0,0,1-4.037,0,4.5,4.5,0,0,1-.66-2.58Zm1.287,7.377a2.777,2.777,0,0,0,.343,1.5,1.3,1.3,0,0,0,2.1,0,2.827,2.827,0,0,0,.335-1.5V61.228a2.827,2.827,0,0,0-.335-1.5,1.3,1.3,0,0,0-2.1,0,2.777,2.777,0,0,0-.343,1.5Z" transform="translate(-0.269 0)"/><path class="cls-11" d="M146.234,70.057v1.955H144.98V70.057Z" transform="translate(-0.269 0)"/><path class="cls-11" d="M150.6,57.9a2.32,2.32,0,0,1,2,.827,4,4,0,0,1,.61,2.4v1.149a4.373,4.373,0,0,1-.351,1.9,1.941,1.941,0,0,1-1.1,1.008,1.864,1.864,0,0,1,1.137,1.038,4.7,4.7,0,0,1,.335,1.905v2.2q0,.463.033.9a2.336,2.336,0,0,0,.2.8h-1.32a2.946,2.946,0,0,1-.167-.656,8.244,8.244,0,0,1-.05-1.058V68.081a2.353,2.353,0,0,0-.443-1.643,1.687,1.687,0,0,0-1.263-.453h-.919v6.027h-1.3V57.9Zm-.334,6.652a1.754,1.754,0,0,0,1.22-.393,2.066,2.066,0,0,0,.435-1.542v-1.35a2.734,2.734,0,0,0-.309-1.452,1.146,1.146,0,0,0-1.045-.484h-1.271v5.221Z" transform="translate(-0.269 0)"/><path class="cls-11" d="M156.23,68.686a2.891,2.891,0,0,0,.326,1.5,1.131,1.131,0,0,0,1.045.535,1.115,1.115,0,0,0,1.028-.535,2.881,2.881,0,0,0,.326-1.5V57.9h1.22v10.7a4.683,4.683,0,0,1-.635,2.59,2.5,2.5,0,0,1-3.962,0,4.691,4.691,0,0,1-.635-2.59V57.9h1.287Z" transform="translate(-0.269 0)"/><path class="cls-11" d="M97.72,74.366a1.2,1.2,0,0,1,.88.27,1.126,1.126,0,0,1,.263.815v.232a1.281,1.281,0,0,1-.136.633.749.749,0,0,1-.481.339.845.845,0,0,1,.545.371,1.317,1.317,0,0,1,.161.68v.412a1.16,1.16,0,0,1-.293.851,1.226,1.226,0,0,1-.909.3H96.539v-4.9Zm-.143,2.079a.873.873,0,0,0,.53-.133.614.614,0,0,0,.176-.517v-.287a.754.754,0,0,0-.131-.487.554.554,0,0,0-.448-.158h-.578v1.582Zm.173,2.324q.624,0,.624-.665v-.433a.739.739,0,0,0-.177-.57.821.821,0,0,0-.56-.159h-.511v1.827Z" transform="translate(-0.269 0)"/><path class="cls-11" d="M100.621,74.317a1.127,1.127,0,0,1,.9.336,1.33,1.33,0,0,1,.289.9v.44h-.556v-.469a.828.828,0,0,0-.146-.521.683.683,0,0,0-.937,0,.816.816,0,0,0-.15.521v2.59a.813.813,0,0,0,.15.522.686.686,0,0,0,.937,0,.825.825,0,0,0,.146-.522v-.636h.556v.609a1.321,1.321,0,0,1-.289.895,1.124,1.124,0,0,1-.9.336,1.11,1.11,0,0,1-.89-.336,1.316,1.316,0,0,1-.29-.895V75.55a1.676,1.676,0,0,1,.072-.508,1.024,1.024,0,0,1,.218-.389.973.973,0,0,1,.368-.248A1.423,1.423,0,0,1,100.621,74.317Z" transform="translate(-0.269 0)"/><path class="cls-11" d="M104.215,76.536v.49H102.93v1.743h1.578v.5h-2.165v-4.9h2.165v.5H102.93v1.673Zm-1.008-3.087v.631h-.51v-.631Zm.941,0v.631h-.519v-.631Z" transform="translate(-0.269 0)"/><path class="cls-11" d="M108.809,79.938v-.671h-2.151v.671H106.1V78.783h.338a.667.667,0,0,0,.177-.314,2.658,2.658,0,0,0,.056-.4l.2-3.7h2.113v4.417h.4v1.155Zm-1.571-1.876a1.968,1.968,0,0,1-.065.435.619.619,0,0,1-.176.286h1.391v-3.92h-.978Z" transform="translate(-0.269 0)"/><path class="cls-11" d="M111.011,74.863l-.12,3.186a3.036,3.036,0,0,1-.068.517.979.979,0,0,1-.173.382.758.758,0,0,1-.32.241,1.292,1.292,0,0,1-.5.084h-.1v-.5a.84.84,0,0,0,.294-.042.367.367,0,0,0,.175-.129.492.492,0,0,0,.087-.22,2.514,2.514,0,0,0,.031-.309l.142-3.71h2.143v4.9h-.586v-4.4Z" transform="translate(-0.269 0)"/><path class="cls-11" d="M114.589,77.174a.9.9,0,0,0-.567.157.691.691,0,0,0-.2.57v.771a2.217,2.217,0,0,1-.022.367.86.86,0,0,1-.075.228h-.594a.774.774,0,0,0,.086-.277,2.414,2.414,0,0,0,.02-.311v-.763a1.34,1.34,0,0,1,.146-.662.779.779,0,0,1,.507-.36.925.925,0,0,1-.647-1.008v-.4a1.162,1.162,0,0,1,.275-.833,1.2,1.2,0,0,1,.9-.287h1.173v4.9H115V77.174Zm-.157-2.311a.581.581,0,0,0-.47.168.771.771,0,0,0-.14.5v.47a.616.616,0,0,0,.2.535.934.934,0,0,0,.542.137H115V74.863Z" transform="translate(-0.269 0)"/><path class="cls-11" d="M118.506,74.366a1.141,1.141,0,0,1,.9.319,1.291,1.291,0,0,1,.278.878v.588a1.2,1.2,0,0,1-.3.886,1.265,1.265,0,0,1-.928.3h-.519v1.932h-.586v-4.9Zm-.045,2.479a.561.561,0,0,0,.647-.659v-.651a.777.777,0,0,0-.14-.5.572.572,0,0,0-.462-.168h-.564v1.982Z" transform="translate(-0.269 0)"/><path class="cls-11" d="M120.738,78.279l-.2.988h-.541l1.008-4.9h.849l1.008,4.9h-.586l-.2-.988Zm.076-.469h1.173l-.594-2.828Z" transform="translate(-0.269 0)"/><path class="cls-11" d="M125.911,79.938v-.671h-2.15v.671H123.2V78.783h.338a.658.658,0,0,0,.177-.314,2.65,2.65,0,0,0,.057-.4l.2-3.7h2.112v4.417h.4v1.155Zm-1.571-1.876a1.975,1.975,0,0,1-.064.435.627.627,0,0,1-.176.286h1.39v-3.92h-.977Z" transform="translate(-0.269 0)"/><path class="cls-11" d="M128.376,77.006l-.773,2.261h-.61v-4.9h.519V78.02l.466-1.35.843-2.3h.653v4.9h-.526v-3.9Z" transform="translate(-0.269 0)"/><path class="cls-11" d="M130.024,75.55a1.3,1.3,0,0,1,.3-.9,1.155,1.155,0,0,1,.905-.333,1.168,1.168,0,0,1,.91.333,1.3,1.3,0,0,1,.3.9v2.534a1.292,1.292,0,0,1-.3.895,1.159,1.159,0,0,1-.91.336,1.146,1.146,0,0,1-.905-.336,1.3,1.3,0,0,1-.3-.895Zm.579,2.561a.8.8,0,0,0,.153.522.576.576,0,0,0,.47.185.569.569,0,0,0,.473-.185.8.8,0,0,0,.151-.522v-2.59A.8.8,0,0,0,131.7,75a.573.573,0,0,0-.473-.186.58.58,0,0,0-.47.186.8.8,0,0,0-.153.521Z" transform="translate(-0.269 0)"/><path class="cls-11" d="M134.113,74.863l-.12,3.186a3.043,3.043,0,0,1-.067.517.98.98,0,0,1-.174.382.755.755,0,0,1-.319.241,1.292,1.292,0,0,1-.5.084h-.1v-.5a.836.836,0,0,0,.294-.042.369.369,0,0,0,.176-.129.5.5,0,0,0,.087-.22,2.745,2.745,0,0,0,.03-.309l.143-3.71h2.142v4.9h-.586v-4.4Z" transform="translate(-0.269 0)"/><path class="cls-11" d="M138.887,74.317a1.156,1.156,0,0,1,.906.333,1.3,1.3,0,0,1,.3.9v2.534a1.3,1.3,0,0,1-.3.895,1.394,1.394,0,0,1-1.815,0,1.292,1.292,0,0,1-.3-.895V77.061h-.76v2.206h-.586v-4.9h.586v2.2h.76V75.55a1.3,1.3,0,0,1,.3-.9A1.167,1.167,0,0,1,138.887,74.317Zm0,.5a.579.579,0,0,0-.474.186.816.816,0,0,0-.15.521v2.59a.813.813,0,0,0,.15.522.7.7,0,0,0,.945,0,.8.8,0,0,0,.153-.522v-2.59a.8.8,0,0,0-.153-.521A.582.582,0,0,0,138.887,74.814Z" transform="translate(-0.269 0)"/><path class="cls-11" d="M141.857,76.39a1.356,1.356,0,0,1,.927.276,1.11,1.11,0,0,1,.313.872v.538a1.235,1.235,0,0,1-.293.883,1.217,1.217,0,0,1-.918.308h-1.225v-4.9h2.218v.5h-1.64V76.39Zm.029,2.379a.628.628,0,0,0,.474-.157.708.708,0,0,0,.15-.5V77.5a.6.6,0,0,0-.165-.49.763.763,0,0,0-.488-.133h-.618v1.889Z" transform="translate(-0.269 0)"/><path class="cls-11" d="M145.051,77.006l-.773,2.261h-.61v-4.9h.519V78.02l.466-1.35.842-2.3h.654v4.9h-.526v-3.9Z" transform="translate(-0.269 0)"/><path class="cls-11" d="M147.548,79.267v-4.4h-.97v-.5H149.1v.5h-.97v4.4Z" transform="translate(-0.269 0)"/><path class="cls-11" d="M151.411,76.536v.49h-1.286v1.743H151.7v.5h-2.165v-4.9H151.7v.5h-1.579v1.673Z" transform="translate(-0.269 0)"/><path class="cls-11" d="M153.366,74.863l-.12,3.186a3.043,3.043,0,0,1-.067.517.98.98,0,0,1-.174.382.755.755,0,0,1-.319.241,1.292,1.292,0,0,1-.5.084h-.1v-.5a.836.836,0,0,0,.294-.042.369.369,0,0,0,.176-.129.5.5,0,0,0,.087-.22,2.745,2.745,0,0,0,.03-.309l.143-3.71h2.142v4.9h-.586v-4.4Z" transform="translate(-0.269 0)"/><path class="cls-11" d="M157.456,76.536v.49H156.17v1.743h1.579v.5h-2.165v-4.9h2.165v.5H156.17v1.673Z" transform="translate(-0.269 0)"/><path class="cls-11" d="M159.719,76.907l-.819,2.36h-.61v-4.9h.519V78.02l.489-1.414.819-2.24h.654v4.9h-.526v-3.9Zm.653-3.542a.624.624,0,0,1-.214.5.888.888,0,0,1-.6.183.861.861,0,0,1-.59-.183.676.676,0,0,1-.222-.5h.368a.336.336,0,0,0,.135.28.56.56,0,0,0,.309.078.572.572,0,0,0,.311-.078.331.331,0,0,0,.14-.28Z" transform="translate(-0.269 0)"/><g id="Колодка_прав-верх" data-name="Колодка прав-верх"><rect class="cls-12" x="10.766" y="3.621" width="7.2" height="7.2" rx="3.6"/><rect class="cls-12" x="17.966" y="3.621" width="7.2" height="7.2" rx="3.6"/><rect class="cls-12" x="25.166" y="3.621" width="7.2" height="7.2" rx="3.6"/><rect class="cls-12" x="32.366" y="3.621" width="7.2" height="7.2" rx="3.6"/><rect class="cls-12" x="39.566" y="3.621" width="7.2" height="7.2" rx="3.6"/><rect class="cls-12" x="46.766" y="3.621" width="7.2" height="7.2" rx="3.6"/><rect class="cls-12" x="53.966" y="3.621" width="7.2" height="7.2" rx="3.6"/><rect class="cls-12" x="61.166" y="3.621" width="7.2" height="7.2" rx="3.6"/></g><g id="Колодка_прав-ниж" data-name="Колодка прав-ниж"><rect class="cls-12" x="72.686" y="3.621" width="7.2" height="7.2" rx="3.6"/><rect class="cls-12" x="79.886" y="3.621" width="7.2" height="7.2" rx="3.6"/><rect class="cls-12" x="87.086" y="3.621" width="7.2" height="7.2" rx="3.6"/><rect class="cls-12" x="94.286" y="3.621" width="7.2" height="7.2" rx="3.6"/><rect class="cls-12" x="101.486" y="3.621" width="7.2" height="7.2" rx="3.6"/><rect class="cls-12" x="108.686" y="3.621" width="7.2" height="7.2" rx="3.6"/><rect class="cls-12" x="115.886" y="3.621" width="7.2" height="7.2" rx="3.6"/><rect class="cls-12" x="123.086" y="3.621" width="7.2" height="7.2" rx="3.6"/><rect class="cls-12" x="130.286" y="3.621" width="7.2" height="7.2" rx="3.6"/><rect class="cls-12" x="137.486" y="3.621" width="7.2" height="7.2" rx="3.6"/></g><g id="Колодка_лев-верх" data-name="Колодка лев-верх"><rect class="cls-12" x="10.766" y="140.421" width="7.2" height="7.2" rx="3.6"/><rect class="cls-12" x="17.966" y="140.421" width="7.2" height="7.2" rx="3.6"/><rect class="cls-12" x="25.166" y="140.421" width="7.2" height="7.2" rx="3.6"/><rect class="cls-12" x="32.366" y="140.421" width="7.2" height="7.2" rx="3.6"/><rect class="cls-12" x="39.566" y="140.421" width="7.2" height="7.2" rx="3.6"/><rect class="cls-12" x="46.766" y="140.421" width="7.2" height="7.2" rx="3.6"/></g><g id="Колодка_лев-ниж" data-name="Колодка лев-ниж"><rect class="cls-12" x="61.166" y="140.421" width="7.2" height="7.2" rx="3.6"/><rect class="cls-12" x="68.366" y="140.421" width="7.2" height="7.2" rx="3.6"/><rect class="cls-12" x="75.566" y="140.421" width="7.2" height="7.2" rx="3.6"/><rect class="cls-12" x="82.766" y="140.421" width="7.2" height="7.2" rx="3.6"/><rect class="cls-12" x="89.966" y="140.421" width="7.2" height="7.2" rx="3.6"/><rect class="cls-12" x="97.166" y="140.421" width="7.2" height="7.2" rx="3.6"/><rect class="cls-12" x="104.366" y="140.421" width="7.2" height="7.2" rx="3.6"/><rect class="cls-12" x="111.566" y="140.421" width="7.2" height="7.2" rx="3.6"/></g><circle class="cls-13" cx="97.056" cy="38.297" r="1.007"/><circle class="cls-14" cx="97.056" cy="38.297" r="0.609"/><circle class="cls-13" cx="57.433" cy="22.163" r="1.007"/><circle class="cls-14" cx="57.433" cy="22.163" r="0.609"/><circle class="cls-13" cx="169.594" cy="49.351" r="1.007"/><circle class="cls-14" cx="169.594" cy="49.351" r="0.609"/><circle class="cls-13" cx="161.998" cy="49.351" r="1.007"/><circle class="cls-14" cx="161.998" cy="49.351" r="0.609"/><circle class="cls-13" cx="169.594" cy="74.352" r="1.007"/><circle class="cls-14" cx="169.594" cy="74.352" r="0.609"/><circle class="cls-13" cx="161.998" cy="74.352" r="1.007"/><circle class="cls-14" cx="161.998" cy="74.352" r="0.609"/><circle class="cls-13" cx="183.594" cy="74.352" r="1.007"/><circle class="cls-14" cx="183.594" cy="74.352" r="0.609"/><circle class="cls-13" cx="175.999" cy="74.352" r="1.007"/><circle class="cls-14" cx="175.999" cy="74.352" r="0.609"/><circle class="cls-13" cx="61.587" cy="52.351" r="1.007"/><circle class="cls-14" cx="61.587" cy="52.351" r="0.609"/><circle class="cls-13" cx="53.991" cy="52.351" r="1.007"/><circle class="cls-14" cx="53.991" cy="52.351" r="0.609"/><circle class="cls-13" cx="80.049" cy="68.526" r="1.007"/><circle class="cls-14" cx="80.049" cy="68.526" r="0.609"/><circle class="cls-13" cx="74.993" cy="68.526" r="1.007"/><circle class="cls-14" cx="74.993" cy="68.526" r="0.609"/><circle class="cls-13" cx="61.289" cy="99.354" r="1.007"/><circle class="cls-14" cx="61.289" cy="99.354" r="0.609"/><circle class="cls-13" cx="61.289" cy="104.354" r="1.007"/><circle class="cls-14" cx="61.289" cy="104.354" r="0.609"/><circle class="cls-13" cx="67.587" cy="99.354" r="1.007"/><circle class="cls-14" cx="67.587" cy="99.354" r="0.609"/><circle class="cls-13" cx="103.105" cy="101.11" r="1.007"/><circle class="cls-14" cx="103.105" cy="101.11" r="0.609"/><circle class="cls-13" cx="67.587" cy="104.354" r="1.007"/><circle class="cls-14" cx="67.587" cy="104.354" r="0.609"/><circle class="cls-13" cx="54.991" cy="99.354" r="1.007"/><circle class="cls-14" cx="54.991" cy="99.354" r="0.609"/><circle class="cls-13" cx="52.587" cy="84.928" r="1.007"/><circle class="cls-14" cx="52.587" cy="84.928" r="0.609"/><circle class="cls-13" cx="43.586" cy="104.93" r="1.007"/><circle class="cls-14" cx="43.586" cy="104.93" r="0.609"/><g id="Контакты"><path class="cls-15" d="M41.907,99.84H38.982V95.007h2.925a2.418,2.418,0,0,1,0,4.833Z" transform="translate(-0.269 0)"/><path class="cls-15" d="M35.368,95.007H38.21V99.84H35.368a2.422,2.422,0,0,1,0-4.833Z" transform="translate(-0.269 0)"/><line class="cls-16" x1="35.567" y1="97.424" x2="41.238" y2="97.424"/><path class="cls-11" d="M34.2,92.087a.721.721,0,0,1-.318-.07.548.548,0,0,1-.23-.213.742.742,0,0,1-.095-.356l0-.009h.274a.479.479,0,0,0,.1.317.338.338,0,0,0,.263.1.347.347,0,0,0,.2-.052.318.318,0,0,0,.114-.143.576.576,0,0,0,.037-.211v-1.3l-.282-.038v-.189h.8v.186l-.237.041v1.3a.737.737,0,0,1-.072.334.519.519,0,0,1-.212.223A.707.707,0,0,1,34.2,92.087Z" transform="translate(-0.269 0)"/><path class="cls-11" d="M35.289,92.056v-.184l.238-.041V90.15l-.238-.041v-.186h.972a.864.864,0,0,1,.387.08.583.583,0,0,1,.244.224.658.658,0,0,1,.084.335.666.666,0,0,1-.084.337.574.574,0,0,1-.244.223.878.878,0,0,1-.387.079h-.448v.63l.236.041v.184Zm.524-1.081h.448a.386.386,0,0,0,.429-.41.423.423,0,0,0-.107-.3.411.411,0,0,0-.322-.119h-.448Z" transform="translate(-0.269 0)"/><path class="cls-11" d="M37.9,92.056v-.184l.156-.022.739-1.927h.245l.727,1.927.156.022v.184h-.607v-.184l.16-.028-.141-.393h-.845l-.145.393.16.028v.184Zm.677-.847h.671l-.31-.867-.018-.048h-.009l-.017.048Z" transform="translate(-0.269 0)"/><path class="cls-11" d="M40.142,92.056v-.184l.237-.041V90.15l-.237-.041v-.186h.526L41.7,91.586l.009,0V90.15l-.26-.041v-.186h.76v.186l-.236.041v1.906h-.262l-1.064-1.671-.01,0v1.443l.261.041v.184Z" transform="translate(-0.269 0)"/><path class="cls-11" d="M42.973,92.056v-.184l.236-.041V90.142H42.73l-.042.3h-.215v-.514h1.758v.514h-.213l-.043-.3H43.5v1.689l.237.041v.184Z" transform="translate(-0.269 0)"/></g><g id="прошивка"><circle class="cls-17" cx="179.793" cy="21.044" r="1.966"/><circle class="cls-18" cx="179.793" cy="21.044" r="1.188"/><circle class="cls-17" cx="179.824" cy="29.583" r="1.966"/><circle class="cls-18" cx="179.824" cy="29.583" r="1.188"/></g><g id="прошивка-2" data-name="прошивка"><path class="cls-19" d="M91.623,120.4a2.68,2.68,0,1,0,2.68-2.679A2.68,2.68,0,0,0,91.623,120.4Zm4.452,0a1.772,1.772,0,1,1-1.772-1.771A1.772,1.772,0,0,1,96.075,120.4Z" transform="translate(-0.269 0)"/><path class="cls-19" d="M98.8,120.4a2.68,2.68,0,1,0,2.68-2.679A2.68,2.68,0,0,0,98.8,120.4Zm4.451,0a1.772,1.772,0,1,1-1.771-1.771A1.771,1.771,0,0,1,103.246,120.4Z" transform="translate(-0.269 0)"/><path class="cls-19" d="M105.959,120.4a2.68,2.68,0,1,0,2.679-2.679A2.679,2.679,0,0,0,105.959,120.4Zm4.451,0a1.772,1.772,0,1,1-1.772-1.771A1.772,1.772,0,0,1,110.41,120.4Z" transform="translate(-0.269 0)"/><path class="cls-19" d="M113.122,120.4a2.68,2.68,0,1,0,2.68-2.679A2.68,2.68,0,0,0,113.122,120.4Zm4.452,0a1.772,1.772,0,1,1-1.772-1.771A1.772,1.772,0,0,1,117.574,120.4Z" transform="translate(-0.269 0)"/></g><g id="разъем"><path class="cls-20" d="M5.132,79.32a2.363,2.363,0,1,0,2.362-2.362A2.363,2.363,0,0,0,5.132,79.32Zm3.447,0a1.085,1.085,0,1,1-1.085-1.084A1.084,1.084,0,0,1,8.579,79.32Z" transform="translate(-0.269 0)"/><path class="cls-21" d="M5.326,79.32a2.169,2.169,0,1,0,2.168-2.169A2.168,2.168,0,0,0,5.326,79.32Zm3.253,0a1.085,1.085,0,1,1-1.085-1.084A1.084,1.084,0,0,1,8.579,79.32Z" transform="translate(-0.269 0)"/><path class="cls-20" d="M5.132,72.073A2.363,2.363,0,1,0,7.494,69.71,2.363,2.363,0,0,0,5.132,72.073Zm3.447,0a1.085,1.085,0,1,1-1.085-1.084A1.085,1.085,0,0,1,8.579,72.072Z" transform="translate(-0.269 0)"/><path class="cls-21" d="M5.326,72.073A2.169,2.169,0,1,0,7.494,69.9,2.168,2.168,0,0,0,5.326,72.073Zm3.253,0a1.085,1.085,0,1,1-1.085-1.085A1.085,1.085,0,0,1,8.579,72.073Z" transform="translate(-0.269 0)"/><path class="cls-20" d="M5.132,64.9a2.363,2.363,0,1,0,2.362-2.363A2.363,2.363,0,0,0,5.132,64.9Zm3.447,0a1.085,1.085,0,1,1-1.085-1.085A1.085,1.085,0,0,1,8.579,64.9Z" transform="translate(-0.269 0)"/><path class="cls-21" d="M5.326,64.9a2.169,2.169,0,1,0,2.168-2.169A2.168,2.168,0,0,0,5.326,64.9Zm3.253,0a1.085,1.085,0,1,1-1.085-1.085A1.085,1.085,0,0,1,8.579,64.9Z" transform="translate(-0.269 0)"/><path class="cls-20" d="M12.306,79.32a2.362,2.362,0,1,0,2.362-2.362A2.363,2.363,0,0,0,12.306,79.32Zm3.446,0a1.084,1.084,0,1,1-1.084-1.084A1.084,1.084,0,0,1,15.752,79.32Z" transform="translate(-0.269 0)"/><path class="cls-21" d="M12.5,79.32a2.169,2.169,0,1,0,2.168-2.169A2.168,2.168,0,0,0,12.5,79.32Zm3.252,0a1.084,1.084,0,1,1-1.084-1.084A1.084,1.084,0,0,1,15.752,79.32Z" transform="translate(-0.269 0)"/><path class="cls-20" d="M12.306,72.073a2.362,2.362,0,1,0,2.362-2.363A2.363,2.363,0,0,0,12.306,72.073Zm3.446,0a1.084,1.084,0,1,1-1.084-1.084A1.084,1.084,0,0,1,15.752,72.072Z" transform="translate(-0.269 0)"/><path class="cls-21" d="M12.5,72.073A2.169,2.169,0,1,0,14.668,69.9,2.168,2.168,0,0,0,12.5,72.073Zm3.252,0a1.084,1.084,0,1,1-1.084-1.085A1.084,1.084,0,0,1,15.752,72.073Z" transform="translate(-0.269 0)"/><path class="cls-20" d="M12.306,64.9a2.362,2.362,0,1,0,2.362-2.363A2.363,2.363,0,0,0,12.306,64.9Zm3.446,0a1.084,1.084,0,1,1-1.084-1.085A1.084,1.084,0,0,1,15.752,64.9Z" transform="translate(-0.269 0)"/><path class="cls-21" d="M12.5,64.9a2.169,2.169,0,1,0,2.168-2.169A2.168,2.168,0,0,0,12.5,64.9Zm3.252,0a1.084,1.084,0,1,1-1.084-1.085A1.084,1.084,0,0,1,15.752,64.9Z" transform="translate(-0.269 0)"/></g><rect class="cls-12" x="138.343" y="109.826" width="7.2" height="7.2" rx="3.6"/><rect class="cls-12" x="138.343" y="117.026" width="7.2" height="7.2" rx="3.6"/><rect class="cls-12" x="138.567" y="132.293" width="7.2" height="7.2" rx="3.6"/><rect class="cls-12" x="138.567" y="139.493" width="7.2" height="7.2" rx="3.6"/></g></svg>