<svg id="_1581" data-name="1581" xmlns="http://www.w3.org/2000/svg" xmlns:xlink="http://www.w3.org/1999/xlink" viewBox="0 0 240.94 142.163"><defs><style>.cls-1{fill:#181818;}.cls-2{fill:#995f1a;}.cls-3{fill:#dd962f;}.cls-4{fill:#f9e382;}.cls-5{fill:#fff;}.cls-19,.cls-29,.cls-38,.cls-39,.cls-6{fill:none;}.cls-6{stroke:#fff;stroke-width:0.425px;}.cls-19,.cls-29,.cls-35,.cls-38,.cls-39,.cls-6{stroke-miterlimit:10;}.cls-7{fill:#b57733;}.cls-8{fill:#9e9b9c;}.cls-12,.cls-9{fill:#f1f3e6;}.cls-10{fill:#c2b990;}.cls-11{fill:#ad9e73;}.cls-12{stroke:#e3e2e6;stroke-width:0.128px;}.cls-13{fill:#108759;}.cls-14{fill:#c97e1b;}.cls-15{fill-opacity:0.573;fill:url(#Безымянный_градиент_179);}.cls-16{fill:#be7400;}.cls-17{fill:#494949;}.cls-18{fill:#cdc5ba;}.cls-19,.cls-29{stroke:#e5e5e5;}.cls-20{fill:#9f9c9c;}.cls-21{fill:#36312f;}.cls-22{fill:#d2d1d3;}.cls-23{fill:#b7b8b9;}.cls-24{fill:#d7d3d5;}.cls-25{fill:#242424;}.cls-26{fill:#363331;}.cls-27{fill:#d0c9bd;}.cls-28{fill:#987743;}.cls-29{stroke-width:0.837px;}.cls-30{fill:#2d2d2d;}.cls-31{fill:#cdc7bc;}.cls-32{fill:#b7b8b5;}.cls-33{fill:#ae7d52;}.cls-34{fill:#cbc5ba;}.cls-35{fill:#f2f2f2;stroke:#999;stroke-width:0.1px;}.cls-36{fill:#313131;}.cls-37{fill:#666566;}.cls-38,.cls-39{stroke:#f2f2f2;}.cls-38{stroke-width:0.41px;}.cls-39{stroke-width:0.25px;}</style><linearGradient id="Безымянный_градиент_179" x1="-286.568" y1="35.278" x2="-252.033" y2="35.278" gradientTransform="matrix(-1, 0, 0, 1, -172.823, 0)" gradientUnits="userSpaceOnUse"><stop offset="0" stop-color="#f79300" stop-opacity="0"/><stop offset="0.461" stop-color="#fff" stop-opacity="0.4"/><stop offset="0.572" stop-color="#f4dbc3" stop-opacity="0.555"/><stop offset="0.764" stop-color="#e4a465" stop-opacity="0.796"/><stop offset="0.913" stop-color="#da822c" stop-opacity="0.945"/><stop offset="1" stop-color="#d67516"/></linearGradient></defs><g id="bottom"><rect class="cls-1" x="27.116" y="0.381" width="196.734" height="141.732"/><rect class="cls-2" x="27.701" y="10.851" width="54.399" height="72.302"/><path class="cls-3" d="M234.622,0H6.322A6.321,6.321,0,0,0,0,6.32V135.4a6.323,6.323,0,0,0,6.32,6.33h228.3a6.323,6.323,0,0,0,6.32-6.33V6.32A6.321,6.321,0,0,0,234.622,0ZM9.072,137.12a4.535,4.535,0,1,1,4.53-4.54A4.537,4.537,0,0,1,9.072,137.12Zm0-123.59A4.535,4.535,0,1,1,13.6,8.99,4.537,4.537,0,0,1,9.072,13.53Zm81.71,65.01a3.6,3.6,0,0,1-3.6,3.6H32.022a3.606,3.606,0,0,1-3.61-3.6V12.05a3.615,3.615,0,0,1,3.61-3.61h55.16a3.613,3.613,0,0,1,3.6,3.61Zm141.09,58.65a4.535,4.535,0,1,1,4.54-4.53A4.532,4.532,0,0,1,231.872,137.19Zm0-123.59a4.535,4.535,0,1,1,4.54-4.53A4.532,4.532,0,0,1,231.872,13.6Z" transform="translate(-0.002)"/><path class="cls-4" d="M9.07,4.48A4.536,4.536,0,1,1,4.535,9.016,4.536,4.536,0,0,1,9.07,4.48m0-1.417a5.953,5.953,0,1,0,5.953,5.953A5.959,5.959,0,0,0,9.07,3.063Z" transform="translate(-0.002)"/><path class="cls-4" d="M231.874,4.556a4.536,4.536,0,1,1-4.536,4.536,4.536,4.536,0,0,1,4.536-4.536m0-1.417a5.953,5.953,0,1,0,5.952,5.953,5.959,5.959,0,0,0-5.952-5.953Z" transform="translate(-0.002)"/><path class="cls-4" d="M9.07,128.071a4.536,4.536,0,1,1-4.535,4.535,4.536,4.536,0,0,1,4.535-4.535m0-1.417a5.953,5.953,0,1,0,5.953,5.952,5.959,5.959,0,0,0-5.953-5.952Z" transform="translate(-0.002)"/><path class="cls-4" d="M231.874,128.147a4.536,4.536,0,1,1-4.536,4.535,4.535,4.535,0,0,1,4.536-4.535m0-1.417a5.953,5.953,0,1,0,5.952,5.952,5.959,5.959,0,0,0-5.952-5.952Z" transform="translate(-0.002)"/><path class="cls-5" d="M46.354,115.735v.654l-2.191,2.484h2.191v.654H43.51v-.654l2.2-2.491h-2.2v-.647Z" transform="translate(-0.002)"/><path class="cls-5" d="M45.04,111.235v2.138h1.007V110.89h.307v3.134H43.51v-3.1h.307v2.45h.916v-2.138Z" transform="translate(-0.002)"/><path class="cls-5" d="M44.6,107.914l-1.09-1.183v-.765l1.41,1.558,1.434-1.595v.772l-1.109,1.213,1.109,1.22v.769l-1.434-1.6-1.41,1.562V109.1Z" transform="translate(-0.002)"/><path class="cls-5" d="M43.817,101.209V102.8h2.537v.646H43.817v1.583H43.51v-3.815Z" transform="translate(-0.002)"/><path class="cls-5" d="M46.354,99.224v.65H43.51v-.65Z" transform="translate(-0.002)"/><path class="cls-5" d="M45.024,93.684a1.143,1.143,0,0,1,.729.244,1.5,1.5,0,0,1,.476.691,3.035,3.035,0,0,1,.164,1.044,2.989,2.989,0,0,1-.165,1.033,1.572,1.572,0,0,1-.471.7,1.121,1.121,0,0,1-.708.256h-.2a1.137,1.137,0,0,1-.724-.248,1.548,1.548,0,0,1-.482-.7,2.988,2.988,0,0,1-.167-1.035,3.046,3.046,0,0,1,.165-1.046,1.5,1.5,0,0,1,.479-.7,1.151,1.151,0,0,1,.729-.244Zm-.184.647a.917.917,0,0,0-.776.353,1.586,1.586,0,0,0-.271.986,1.569,1.569,0,0,0,.271.971.922.922,0,0,0,.751.364h.209a.923.923,0,0,0,.77-.358,1.554,1.554,0,0,0,.281-.984,1.576,1.576,0,0,0-.265-.976.923.923,0,0,0-.759-.356Z" transform="translate(-0.002)"/><path class="cls-5" d="M46.354,88.36v.654L44.163,91.5h2.191v.654H43.51V91.5l2.2-2.491h-2.2V88.36Z" transform="translate(-0.002)"/><polygon class="cls-6" points="40.271 115.647 27.748 108.647 27.748 101.376 40.271 108.376 40.271 115.647"/><polygon class="cls-6" points="40.271 106.396 32.704 102.132 32.704 97.704 40.271 101.968 40.271 106.396"/><polygon class="cls-6" points="40.271 100.421 35.224 97.443 35.224 94.349 40.271 97.327 40.271 100.421"/><path class="cls-7" d="M14.341,101.021v.66l-3.835,2.505h3.835v.66H9.365v-.66l3.851-2.512H9.365v-.653Z" transform="translate(-0.002)"/><path class="cls-7" d="M11.272,97.614,9.365,96.421v-.773l2.468,1.573,2.508-1.61v.779L12.4,97.614l1.941,1.23v.776l-2.508-1.613L9.365,99.583v-.77Z" transform="translate(-0.002)"/><path class="cls-7" d="M11.545,93.533v-.475a1.045,1.045,0,0,0-.235-.7.788.788,0,0,0-.619-.256.772.772,0,0,0-.875.871.907.907,0,0,0,.234.655.82.82,0,0,0,.62.244V94.5a1.269,1.269,0,0,1-.982-.432,1.574,1.574,0,0,1-.392-1.1,1.555,1.555,0,0,1,.373-1.1,1.347,1.347,0,0,1,1.036-.4,1.086,1.086,0,0,1,.628.211,1.259,1.259,0,0,1,.456.572,1.221,1.221,0,0,1,.429-.634,1.2,1.2,0,0,1,.736-.224,1.359,1.359,0,0,1,1.063.438,1.637,1.637,0,0,1,.393,1.138,1.682,1.682,0,0,1-.379,1.139,1.261,1.261,0,0,1-1,.44v-.636a.814.814,0,0,0,.629-.256.976.976,0,0,0,.236-.687.957.957,0,0,0-.24-.7.924.924,0,0,0-.687-.243.839.839,0,0,0-.667.267,1.164,1.164,0,0,0-.238.769v.475Z" transform="translate(-0.002)"/><path class="cls-7" d="M14.341,86.7v3.261h-.455l-1.914-1.723a4.1,4.1,0,0,0-.7-.528,1.179,1.179,0,0,0-.562-.145.893.893,0,0,0-.639.236.821.821,0,0,0-.25.629.98.98,0,0,0,.268.733,1.028,1.028,0,0,0,.748.261v.633a1.469,1.469,0,0,1-1.112-.443A1.643,1.643,0,0,1,9.3,88.431a1.574,1.574,0,0,1,.365-1.1,1.238,1.238,0,0,1,.968-.4,2.84,2.84,0,0,1,1.75.937L13.826,89.2V86.7Z" transform="translate(-0.002)"/><path class="cls-7" d="M14.341,82.21v3.261h-.455l-1.914-1.722a4,4,0,0,0-.7-.528,1.181,1.181,0,0,0-.562-.146.893.893,0,0,0-.639.236.823.823,0,0,0-.25.629.98.98,0,0,0,.268.733,1.024,1.024,0,0,0,.748.262v.632a1.469,1.469,0,0,1-1.112-.443A1.642,1.642,0,0,1,9.3,83.94a1.572,1.572,0,0,1,.365-1.1,1.239,1.239,0,0,1,.968-.4,2.84,2.84,0,0,1,1.75.937l1.447,1.333v-2.5Z" transform="translate(-0.002)"/><path class="cls-7" d="M12.669,78.312v-.691h.517v.691h1.155v.635H13.186v2.266h-.372L9.365,78.985v-.673Zm0,2.184V78.947H10.23l.137.075Z" transform="translate(-0.002)"/><path class="cls-7" d="M12.144,73.582V75.67h2.2v.656H9.365V73.243H9.9V75.67h1.705V73.582Z" transform="translate(-0.002)"/><path class="cls-7" d="M12.218,68.94a2.9,2.9,0,0,1,1.652.38,1.575,1.575,0,0,1,.011,2.365,2.751,2.751,0,0,1-1.577.4H11.46a2.823,2.823,0,0,1-1.63-.38A1.358,1.358,0,0,1,9.3,70.513a1.372,1.372,0,0,1,.515-1.183,2.728,2.728,0,0,1,1.587-.39Zm-.864.633a2.325,2.325,0,0,0-1.171.225.778.778,0,0,0-.367.715.767.767,0,0,0,.365.707,2.26,2.26,0,0,0,1.125.229h1.012a2.356,2.356,0,0,0,1.191-.234.775.775,0,0,0,.385-.709.763.763,0,0,0-.363-.695,2.26,2.26,0,0,0-1.141-.238Z" transform="translate(-0.002)"/><path class="cls-7" d="M14.341,64.31v3.26h-.455l-1.914-1.722a4.049,4.049,0,0,0-.7-.528,1.181,1.181,0,0,0-.562-.146.893.893,0,0,0-.639.236.823.823,0,0,0-.25.629.978.978,0,0,0,.268.733,1.024,1.024,0,0,0,.748.262v.632a1.465,1.465,0,0,1-1.112-.443A1.642,1.642,0,0,1,9.3,66.039a1.572,1.572,0,0,1,.365-1.1,1.238,1.238,0,0,1,.968-.4,2.843,2.843,0,0,1,1.75.936l1.447,1.333v-2.5Z" transform="translate(-0.002)"/><path class="cls-7" d="M10.664,60.062a1.157,1.157,0,0,1,.663.2,1.343,1.343,0,0,1,.454.532,1.426,1.426,0,0,1,.489-.617A1.227,1.227,0,0,1,13,59.945a1.3,1.3,0,0,1,1.029.436,1.91,1.91,0,0,1,0,2.3A1.307,1.307,0,0,1,13,63.11a1.267,1.267,0,0,1-.728-.22,1.362,1.362,0,0,1-.492-.61,1.316,1.316,0,0,1-.454.523,1.181,1.181,0,0,1-.66.191,1.286,1.286,0,0,1-1-.4,1.709,1.709,0,0,1,0-2.124A1.28,1.28,0,0,1,10.664,60.062Zm-.848,1.466a.817.817,0,0,0,.23.6.957.957,0,0,0,1.242,0,.907.907,0,0,0,0-1.214.849.849,0,0,0-.615-.227.84.84,0,0,0-.618.236A.8.8,0,0,0,9.816,61.528Zm3.168-.95a.918.918,0,0,0-.68.265.936.936,0,0,0-.263.692.889.889,0,0,0,.943.943.882.882,0,0,0,.667-.251,1.12,1.12,0,0,0,0-1.4A.879.879,0,0,0,12.984,60.578Z" transform="translate(-0.002)"/><path class="cls-7" d="M14.857,55.858v3.131h-.516V55.858Z" transform="translate(-0.002)"/><path class="cls-7" d="M12.218,51.75a2.9,2.9,0,0,1,1.652.379,1.576,1.576,0,0,1,.011,2.366,2.743,2.743,0,0,1-1.577.4H11.46a2.824,2.824,0,0,1-1.63-.379,1.6,1.6,0,0,1-.019-2.372,2.728,2.728,0,0,1,1.587-.39Zm-.864.632a2.323,2.323,0,0,0-1.171.226.776.776,0,0,0-.367.714.768.768,0,0,0,.365.708,2.271,2.271,0,0,0,1.125.229h1.012a2.344,2.344,0,0,0,1.191-.235.774.774,0,0,0,.385-.709.763.763,0,0,0-.363-.7,2.26,2.26,0,0,0-1.141-.238Z" transform="translate(-0.002)"/><path class="cls-7" d="M14.341,48.3v.636H10.126l.469,1.274h-.574L9.341,48.4v-.1Z" transform="translate(-0.002)"/><path class="cls-7" d="M14.341,43.812v.635H10.126l.469,1.275h-.574l-.68-1.811v-.1Z" transform="translate(-0.002)"/><path class="cls-5" d="M201.525,61.834a1.249,1.249,0,0,1-.683-.182,1.2,1.2,0,0,1-.446-.507,1.724,1.724,0,0,1-.156-.75v-.047a1.717,1.717,0,0,1,.157-.753,1.244,1.244,0,0,1,.431-.5,1.1,1.1,0,0,1,.621-.181,1.819,1.819,0,0,1,.564.076,1.282,1.282,0,0,1,.395.2v.574h-.316l-.041-.412a.751.751,0,0,0-.235-.095,1.48,1.48,0,0,0-.328-.032.735.735,0,0,0-.439.141.945.945,0,0,0-.309.391,1.41,1.41,0,0,0-.113.587V60.4a1.559,1.559,0,0,0,.1.593.854.854,0,0,0,.306.392.838.838,0,0,0,.488.14,1.4,1.4,0,0,0,.33-.034,1.113,1.113,0,0,0,.239-.089v-.668l-.545-.02v-.283h.93v1.1a1.2,1.2,0,0,1-.353.211A1.6,1.6,0,0,1,201.525,61.834Z" transform="translate(-0.002)"/><path class="cls-5" d="M203.2,61.793v-.246l.319-.054V59.252L203.2,59.2V58.95h.707l1.4,2.217.012,0V59.252l-.35-.054V58.95h1.021V59.2l-.318.054v2.541h-.351l-1.432-2.228-.012,0v1.924l.35.054v.246Z" transform="translate(-0.002)"/><path class="cls-5" d="M206.621,61.793v-.246l.318-.054V59.252l-.318-.054V58.95h1.113a1.189,1.189,0,0,1,.657.179,1.222,1.222,0,0,1,.437.5,1.593,1.593,0,0,1,.156.718V60.4a1.632,1.632,0,0,1-.15.71,1.21,1.21,0,0,1-.428.5,1.149,1.149,0,0,1-.652.182Zm.7-.3h.41a.737.737,0,0,0,.463-.148.936.936,0,0,0,.3-.394,1.391,1.391,0,0,0,.106-.548v-.065a1.394,1.394,0,0,0-.106-.555.911.911,0,0,0-.3-.388.759.759,0,0,0-.463-.143h-.41Z" transform="translate(-0.002)"/><path class="cls-5" d="M203.642,68.727v-.246l.318-.055v-2.24l-.318-.055v-.246h1.267a1.337,1.337,0,0,1,.525.093.7.7,0,0,1,.325.269.787.787,0,0,1,.111.429.767.767,0,0,1-.108.42.68.68,0,0,1-.308.257,1.244,1.244,0,0,1-.473.093l-.636.012v.968l.318.055v.246Zm.7-1.572h.525a.726.726,0,0,0,.469-.123.442.442,0,0,0,.146-.36.464.464,0,0,0-.14-.355.624.624,0,0,0-.436-.131h-.564Zm1.174,1.572-.633-1.42.385,0,.525,1.137.2.035v.252Z" transform="translate(-0.002)"/><path class="cls-5" d="M206.665,68.727v-.246l.246-.043.881-1.154-.816-1.11-.248-.043v-.248h.921v.248l-.267.026.629.877.6-.877-.273-.026v-.248h.928v.248l-.26.043-.772,1.11.856,1.154.252.043v.246h-.934v-.246l.276-.025-.674-.924-.672.924.26.025v.246Z" transform="translate(-0.002)"/><path class="cls-5" d="M204.339,75.767v-.246l.318-.055V73.214h-.644l-.057.395h-.289v-.686h2.363v.686h-.285l-.058-.395h-.645v2.252l.318.055v.246Z" transform="translate(-0.002)"/><path class="cls-5" d="M206.7,75.767v-.246l.246-.043.881-1.154-.816-1.11-.248-.043v-.248h.922v.248l-.268.026.629.877.6-.877-.274-.026v-.248h.928v.248l-.26.043-.771,1.11.855,1.154.252.043v.246h-.934v-.246l.276-.025-.674-.924-.672.924.26.025v.246Z" transform="translate(-0.002)"/><path class="cls-5" d="M204.519,82.872a1.009,1.009,0,0,1-.431-.088.67.67,0,0,1-.3-.261.772.772,0,0,1-.1-.428l0-.012h.348a.453.453,0,0,0,.479.488.45.45,0,0,0,.378-.172.74.74,0,0,0,.135-.47.707.707,0,0,0-.136-.45.445.445,0,0,0-.375-.175.611.611,0,0,0-.33.068.389.389,0,0,0-.149.209l-.32-.033.164-1.561h1.5v.563H205.1l-.037-.221h-.85l-.092.8a.75.75,0,0,1,.127-.079.85.85,0,0,1,.149-.056.765.765,0,0,1,.177-.023.838.838,0,0,1,.451.114.744.744,0,0,1,.291.332,1.165,1.165,0,0,1,.1.509,1.127,1.127,0,0,1-.1.5.756.756,0,0,1-.3.331A.952.952,0,0,1,204.519,82.872Z" transform="translate(-0.002)"/><path class="cls-5" d="M207.237,82.831l-.953-2.564-.226-.032v-.248h.9v.248l-.26.041.637,1.809.066.225h.012l.07-.225.661-1.811-.289-.039v-.248h.9v.248l-.228.032-.954,2.564Z" transform="translate(-0.002)"/><g id="jst-xh-4pin"><polygon id="polygon19706-3-6-8-2-3-4-3-12" class="cls-8" points="218.829 62.427 210.325 62.427 210.325 58.805 218.829 58.805 218.829 62.427"/><polygon id="polygon19706-3-6-8-2-3-4-3-13" class="cls-8" points="218.829 69.511 210.325 69.511 210.325 65.889 218.829 65.889 218.829 69.511"/><polygon id="polygon19706-3-6-8-2-3-4-3-14" class="cls-8" points="218.829 76.594 210.325 76.594 210.325 72.972 218.829 72.972 218.829 76.594"/><polygon id="polygon19706-3-6-8-2-3-4-3-15" class="cls-8" points="218.829 83.677 210.325 83.677 210.325 80.055 218.829 80.055 218.829 83.677"/><path id="path19730-0-0-6-5-4-7-3" class="cls-9" d="M218.832,54.509h-3.571V49.751h3.571Z" transform="translate(-0.002)"/><path id="path19736-6-8-2-9-9-1-3" class="cls-9" d="M218.832,92.68h-3.571V87.921h3.571Z" transform="translate(-0.002)"/><rect id="rect19748-4-6-0-9-5-2-3" class="cls-10" x="218.432" y="87.921" width="0.397" height="4.759"/><rect id="rect19750-9-59-4-6-5-8-3" class="cls-10" x="218.432" y="49.75" width="0.397" height="4.759"/><rect id="rect19716-5-7-8-3-4-5-3" class="cls-11" x="218.83" y="49.822" width="22.11" height="42.858"/><polygon id="polygon19742-1-8-7-6-3-9-3" class="cls-12" points="218.83 58.853 218.83 49.82 240.826 49.82 240.826 92.68 218.83 92.68 218.83 84.107 236.426 84.107 236.426 78.75 218.83 78.75 218.83 64.21 236.426 64.21 236.426 58.853 218.83 58.853"/></g><rect class="cls-13" x="28.831" y="27.247" width="45.504" height="52.083" rx="4.163"/><g id="ribbon-cable-16pin"><rect class="cls-14" x="79.21" y="10.475" width="34.535" height="49.606"/><rect class="cls-15" x="79.21" y="10.475" width="34.535" height="49.606"/><path id="rect91155-4-89-4" class="cls-16" d="M79.212,57.5v1.4h34.535V57.5Z" transform="translate(-0.002)"/><path id="rect91155-4-89-4-2" class="cls-16" d="M79.212,53.969v1.4h34.535v-1.4Z" transform="translate(-0.002)"/><path id="rect91155-4-89-4-3" class="cls-16" d="M79.212,50.444v1.4h34.535v-1.4Z" transform="translate(-0.002)"/><path id="rect91155-4-89-4-4" class="cls-16" d="M79.212,46.918v1.4h34.535v-1.4Z" transform="translate(-0.002)"/><path id="rect91155-4-89-4-5" class="cls-16" d="M79.212,43.392v1.4h34.535v-1.4Z" transform="translate(-0.002)"/><path id="rect91155-4-89-4-6" class="cls-16" d="M79.212,39.866v1.4h34.535v-1.4Z" transform="translate(-0.002)"/><path id="rect91155-4-89-4-7" class="cls-16" d="M79.212,36.341v1.4h34.535v-1.4Z" transform="translate(-0.002)"/><path id="rect91155-4-89-4-8" class="cls-16" d="M79.212,32.815v1.4h34.535v-1.4Z" transform="translate(-0.002)"/><path id="rect91155-4-89-4-9" class="cls-16" d="M79.212,29.289v1.4h34.535v-1.4Z" transform="translate(-0.002)"/><path id="rect91155-4-89-4-10" class="cls-16" d="M79.212,25.763v1.4h34.535v-1.4Z" transform="translate(-0.002)"/><path id="rect91155-4-89-4-11" class="cls-16" d="M79.212,22.237v1.4h34.535v-1.4Z" transform="translate(-0.002)"/><path id="rect91155-4-89-4-12" class="cls-16" d="M79.212,18.712v1.4h34.535v-1.4Z" transform="translate(-0.002)"/><path id="rect91155-4-89-4-13" class="cls-16" d="M79.212,15.186v1.4h34.535v-1.4Z" transform="translate(-0.002)"/><path id="rect91155-4-89-4-16" class="cls-16" d="M79.212,11.66v1.4h34.535v-1.4Z" transform="translate(-0.002)"/></g><g id="con-16pin-2"><rect id="rect27317-3-8-2-2" class="cls-17" x="111.314" y="4.162" width="5.627" height="62.23"/><rect class="cls-8" x="116.941" y="6.016" width="10.159" height="58.522"/><rect class="cls-18" x="129.369" y="29.278" width="2.05" height="1.42"/><line class="cls-19" x1="130.789" y1="29.988" x2="127.099" y2="29.988"/><rect class="cls-18" x="129.369" y="11.65" width="2.05" height="1.42"/><line class="cls-19" x1="130.789" y1="12.36" x2="127.099" y2="12.36"/><rect class="cls-18" x="129.369" y="15.175" width="2.05" height="1.42"/><line class="cls-19" x1="130.789" y1="15.885" x2="127.099" y2="15.885"/><rect class="cls-18" x="129.369" y="18.701" width="2.05" height="1.42"/><line class="cls-19" x1="130.789" y1="19.411" x2="127.099" y2="19.411"/><rect class="cls-18" x="129.369" y="22.227" width="2.05" height="1.42"/><line class="cls-19" x1="130.789" y1="22.937" x2="127.099" y2="22.937"/><rect class="cls-18" x="129.369" y="25.753" width="2.05" height="1.42"/><line class="cls-19" x1="130.789" y1="26.463" x2="127.099" y2="26.463"/><rect class="cls-18" x="129.369" y="32.804" width="2.05" height="1.42"/><line class="cls-19" x1="130.789" y1="33.514" x2="127.099" y2="33.514"/><rect class="cls-18" x="129.369" y="36.33" width="2.05" height="1.42"/><line class="cls-19" x1="130.789" y1="37.04" x2="127.099" y2="37.04"/><rect class="cls-18" x="129.369" y="39.856" width="2.05" height="1.42"/><line class="cls-19" x1="130.789" y1="40.566" x2="127.099" y2="40.566"/><rect class="cls-18" x="129.369" y="43.381" width="2.05" height="1.42"/><line class="cls-19" x1="130.789" y1="44.091" x2="127.099" y2="44.091"/><rect class="cls-18" x="129.369" y="46.907" width="2.05" height="1.42"/><line class="cls-19" x1="130.789" y1="47.617" x2="127.099" y2="47.617"/><rect class="cls-18" x="129.369" y="50.433" width="2.05" height="1.42"/><line class="cls-19" x1="130.789" y1="51.143" x2="127.099" y2="51.143"/><rect class="cls-18" x="129.369" y="53.959" width="2.05" height="1.42"/><line class="cls-19" x1="130.789" y1="54.669" x2="127.099" y2="54.669"/><rect class="cls-18" x="129.369" y="57.485" width="2.05" height="1.42"/><line class="cls-19" x1="130.789" y1="58.195" x2="127.099" y2="58.195"/></g><g id="T-SOT23-6"><path id="path3487-1-2-2-2-2" class="cls-20" d="M70.157,69.258v-1.62H67.6v1.62Z" transform="translate(-0.002)"/><path id="path3487-1-2-3" class="cls-20" d="M70.157,63.732v-1.62H67.6v1.62Z" transform="translate(-0.002)"/><path id="path3487-1-2-3-2-2" class="cls-20" d="M70.157,66.542v-1.62H67.6v1.62Z" transform="translate(-0.002)"/><path id="path3487-1-2-2-2-2-2" class="cls-20" d="M61.735,62.112v1.62H64.3v-1.62Z" transform="translate(-0.002)"/><path id="path3487-1-2-2-2-3" class="cls-20" d="M61.735,64.922v1.62H64.3v-1.62Z" transform="translate(-0.002)"/><path id="path3487-1-2-2-2-4" class="cls-20" d="M61.735,67.642v1.62H64.3v-1.62Z" transform="translate(-0.002)"/><path id="path3477-9-2-2-2" class="cls-21" d="M64.207,69.941V61.523h3.48v8.418Z" transform="translate(-0.002)"/></g><g id="R-0805"><rect id="rect21332-8-1-9-3-8-2-40-6-2-0-6-6-0-5-6-4-8-7-2-0-7-2-3-9-16-6" class="cls-22" x="33.225" y="47.978" width="3.4" height="2.9"/><rect id="rect21332-8-1-9-3-8-2-40-6-2-0-6-6-0-5-6-4-8-7-2-0-7-2-3-10-16-6" class="cls-22" x="33.225" y="42.958" width="3.4" height="2.9"/><path class="cls-23" d="M33.228,49.338V44.5a.42.42,0,0,1,.42-.42H36.2a.41.41,0,0,1,.43.387h0v4.841a.41.41,0,0,1-.41.409h-2.56a.428.428,0,0,1-.43-.409h0Z" transform="translate(-0.002)"/><g id="path26345-3-6-9-3-6-4-2-5-6-8-7-9-0-90-3-1-3-9-2-2-8-5-0-2-3-5-16-6"><rect class="cls-24" x="33.225" y="44.798" width="3.4" height="4.25"/></g><path id="path26341-4-2-6-0-8-1-1-1-5-0-3-3-1-8-3-8-7-7-7-2-4-9-7-2-3-5-16-6" class="cls-25" d="M36.627,48.328V45.5h-3.4v2.83Z" transform="translate(-0.002)"/></g><g id="транзистор"><rect class="cls-26" x="61.999" y="31.949" width="2.813" height="6.573"/><rect class="cls-8" x="64.812" y="34.716" width="2.264" height="1.234"/><rect class="cls-8" x="59.301" y="32.56" width="2.697" height="1.291"/><rect class="cls-8" x="59.301" y="36.775" width="2.697" height="1.291"/></g><g id="транзистор-2" data-name="транзистор"><rect class="cls-26" x="34.143" y="54.957" width="1.698" height="3.969"/><rect class="cls-8" x="32.775" y="56.628" width="1.367" height="0.745"/><rect class="cls-8" x="35.841" y="55.326" width="1.629" height="0.78"/><rect class="cls-8" x="35.841" y="57.871" width="1.629" height="0.78"/></g><g id="конденсатор"><rect class="cls-27" x="62.16" y="57.701" width="1.308" height="1.055"/><rect class="cls-27" x="62.146" y="56.234" width="1.308" height="1.055"/><rect class="cls-28" x="62.254" y="56.693" width="1.105" height="1.586"/></g><g id="конденсатор-2" data-name="конденсатор"><rect class="cls-27" x="69.161" y="57.701" width="1.308" height="1.055"/><rect class="cls-27" x="69.146" y="56.234" width="1.308" height="1.055"/><rect class="cls-28" x="69.254" y="56.693" width="1.105" height="1.586"/></g><g id="конденсатор-3" data-name="конденсатор"><rect class="cls-27" x="62.16" y="74.702" width="1.308" height="1.055"/><rect class="cls-27" x="62.146" y="73.235" width="1.308" height="1.055"/><rect class="cls-28" x="62.254" y="73.694" width="1.105" height="1.586"/></g><g id="конденсатор-4" data-name="конденсатор"><rect class="cls-27" x="69.161" y="74.702" width="1.308" height="1.055"/><rect class="cls-27" x="69.146" y="73.235" width="1.308" height="1.055"/><rect class="cls-28" x="69.254" y="73.694" width="1.105" height="1.586"/></g><g id="конденсатор-5" data-name="конденсатор"><rect class="cls-27" x="69.161" y="49.434" width="1.308" height="1.055"/><rect class="cls-27" x="69.146" y="47.967" width="1.308" height="1.055"/><rect class="cls-28" x="69.254" y="48.426" width="1.105" height="1.586"/></g><g id="конденсатор-6" data-name="конденсатор"><rect class="cls-27" x="36.281" y="35.441" width="1.308" height="1.055"/><rect class="cls-27" x="36.266" y="33.974" width="1.308" height="1.055"/><rect class="cls-28" x="36.375" y="34.433" width="1.105" height="1.586"/></g><g id="конденсатор-7" data-name="конденсатор"><rect class="cls-27" x="35.328" y="39.574" width="1.055" height="1.308"/><rect class="cls-27" x="33.861" y="39.589" width="1.055" height="1.308"/><rect class="cls-28" x="34.32" y="39.683" width="1.586" height="1.105"/></g><g id="конденсатор-8" data-name="конденсатор"><rect class="cls-27" x="35.328" y="67.576" width="1.055" height="1.308"/><rect class="cls-27" x="33.861" y="67.59" width="1.055" height="1.308"/><rect class="cls-28" x="34.32" y="67.684" width="1.586" height="1.105"/></g><g id="конденсатор-9" data-name="конденсатор"><rect class="cls-27" x="35.328" y="70.576" width="1.055" height="1.308"/><rect class="cls-27" x="33.861" y="70.591" width="1.055" height="1.308"/><rect class="cls-28" x="34.32" y="70.685" width="1.586" height="1.105"/></g><g id="конденсатор-10" data-name="конденсатор"><rect class="cls-27" x="36.266" y="73.977" width="1.308" height="1.055"/><rect class="cls-27" x="36.281" y="75.443" width="1.308" height="1.055"/><rect class="cls-28" x="36.375" y="74.454" width="1.105" height="1.586"/></g><g id="чип"><rect class="cls-18" x="53.097" y="67.232" width="1.312" height="0.943"/><line class="cls-29" x1="54.31" y1="67.72" x2="52.99" y2="67.72"/><rect class="cls-18" x="53.097" y="68.306" width="1.341" height="0.943"/><line class="cls-29" x1="54.31" y1="68.792" x2="52.99" y2="68.792"/><rect class="cls-18" x="53.097" y="66.16" width="1.312" height="0.943"/><line class="cls-29" x1="54.31" y1="66.648" x2="52.99" y2="66.648"/><line class="cls-29" x1="54.31" y1="67.72" x2="52.99" y2="67.72"/><line class="cls-29" x1="54.31" y1="66.648" x2="52.99" y2="66.648"/><rect class="cls-18" x="53.096" y="64.016" width="1.312" height="0.943"/><line class="cls-29" x1="54.31" y1="64.504" x2="52.99" y2="64.504"/><rect class="cls-18" x="53.097" y="65.088" width="1.312" height="0.943"/><line class="cls-29" x1="54.31" y1="65.576" x2="52.99" y2="65.576"/><rect class="cls-18" x="53.098" y="71.52" width="1.312" height="0.943"/><line class="cls-29" x1="54.307" y1="72.005" x2="52.987" y2="72.005"/><rect class="cls-18" x="53.098" y="70.448" width="1.312" height="0.943"/><line class="cls-29" x1="54.31" y1="70.936" x2="52.987" y2="70.933"/><line class="cls-29" x1="54.307" y1="72.005" x2="52.987" y2="72.005"/><line class="cls-29" x1="54.31" y1="70.936" x2="52.987" y2="70.933"/><rect class="cls-18" x="53.098" y="69.376" width="1.312" height="0.943"/><line class="cls-29" x1="54.31" y1="69.864" x2="52.99" y2="69.864"/><rect class="cls-18" x="42.381" y="68.306" width="1.303" height="0.943"/><line class="cls-29" x1="42.467" y1="68.762" x2="43.787" y2="68.762"/><rect class="cls-18" x="42.38" y="67.234" width="1.303" height="0.943"/><line class="cls-29" x1="42.467" y1="67.69" x2="43.787" y2="67.69"/><rect class="cls-18" x="42.381" y="69.378" width="1.303" height="0.943"/><line class="cls-29" x1="42.467" y1="69.834" x2="43.787" y2="69.834"/><line class="cls-29" x1="42.467" y1="68.762" x2="43.787" y2="68.762"/><line class="cls-29" x1="42.467" y1="69.834" x2="43.787" y2="69.834"/><rect class="cls-18" x="42.381" y="71.522" width="1.303" height="0.943"/><line class="cls-29" x1="42.471" y1="71.975" x2="43.791" y2="71.975"/><rect class="cls-18" x="42.381" y="70.45" width="1.303" height="0.943"/><line class="cls-29" x1="42.467" y1="70.906" x2="43.791" y2="70.903"/><rect class="cls-18" x="42.38" y="64.019" width="1.303" height="0.943"/><line class="cls-29" x1="42.471" y1="64.477" x2="43.791" y2="64.477"/><rect class="cls-18" x="42.38" y="65.091" width="1.303" height="0.943"/><line class="cls-29" x1="42.467" y1="65.546" x2="43.791" y2="65.549"/><line class="cls-29" x1="42.471" y1="64.477" x2="43.791" y2="64.477"/><line class="cls-29" x1="42.467" y1="65.546" x2="43.791" y2="65.549"/><rect class="cls-18" x="42.38" y="66.163" width="1.303" height="0.943"/><line class="cls-29" x1="42.467" y1="66.618" x2="43.787" y2="66.618"/><rect class="cls-18" x="47.38" y="62.191" width="0.943" height="1.341"/><line class="cls-29" x1="47.868" y1="62.323" x2="47.868" y2="63.643"/><rect class="cls-18" x="48.452" y="62.191" width="0.943" height="1.341"/><line class="cls-29" x1="48.94" y1="62.323" x2="48.94" y2="63.643"/><rect class="cls-18" x="46.308" y="62.191" width="0.943" height="1.341"/><line class="cls-29" x1="46.799" y1="62.32" x2="46.799" y2="63.639"/><line class="cls-29" x1="47.868" y1="62.323" x2="47.868" y2="63.643"/><line class="cls-29" x1="46.799" y1="62.32" x2="46.799" y2="63.639"/><rect class="cls-18" x="44.169" y="62.192" width="0.943" height="1.341"/><line class="cls-29" x1="44.655" y1="62.32" x2="44.655" y2="63.639"/><rect class="cls-18" x="45.236" y="62.191" width="0.943" height="1.341"/><line class="cls-29" x1="45.727" y1="62.32" x2="45.727" y2="63.639"/><rect class="cls-18" x="51.668" y="62.19" width="0.943" height="1.341"/><line class="cls-29" x1="52.153" y1="62.32" x2="52.153" y2="63.639"/><rect class="cls-18" x="50.596" y="62.19" width="0.943" height="1.341"/><line class="cls-29" x1="51.081" y1="62.32" x2="51.081" y2="63.639"/><line class="cls-29" x1="52.153" y1="62.32" x2="52.153" y2="63.639"/><line class="cls-29" x1="51.081" y1="62.32" x2="51.081" y2="63.639"/><rect class="cls-18" x="49.524" y="62.19" width="0.943" height="1.341"/><line class="cls-29" x1="50.009" y1="62.32" x2="50.012" y2="63.643"/><rect class="cls-18" x="48.49" y="72.947" width="0.943" height="1.322"/><line class="cls-29" x1="48.95" y1="74.159" x2="48.95" y2="72.839"/><rect class="cls-18" x="47.423" y="72.947" width="0.943" height="1.322"/><line class="cls-29" x1="47.878" y1="74.159" x2="47.878" y2="72.839"/><rect class="cls-18" x="49.562" y="72.947" width="0.943" height="1.322"/><line class="cls-29" x1="50.022" y1="74.159" x2="50.022" y2="72.839"/><line class="cls-29" x1="48.95" y1="74.159" x2="48.95" y2="72.839"/><line class="cls-29" x1="50.022" y1="74.159" x2="50.022" y2="72.839"/><rect class="cls-18" x="51.706" y="72.946" width="0.943" height="1.322"/><line class="cls-29" x1="52.166" y1="74.159" x2="52.166" y2="72.839"/><rect class="cls-18" x="50.634" y="72.947" width="0.943" height="1.322"/><line class="cls-29" x1="51.094" y1="74.159" x2="51.094" y2="72.839"/><rect class="cls-18" x="44.207" y="72.948" width="0.943" height="1.322"/><line class="cls-29" x1="44.662" y1="74.159" x2="44.662" y2="72.839"/><rect class="cls-18" x="45.279" y="72.948" width="0.943" height="1.322"/><line class="cls-29" x1="45.734" y1="74.159" x2="45.734" y2="72.839"/><line class="cls-29" x1="44.662" y1="74.159" x2="44.662" y2="72.839"/><line class="cls-29" x1="45.734" y1="74.159" x2="45.734" y2="72.839"/><rect class="cls-18" x="46.351" y="72.948" width="0.943" height="1.322"/><line class="cls-29" x1="46.806" y1="74.159" x2="46.806" y2="72.839"/><path class="cls-30" d="M52.2,72.839h-7.6a.8.8,0,0,1-.8-.8V64.437a.8.8,0,0,1,.8-.8h7.6a.8.8,0,0,1,.8.8v7.605A.8.8,0,0,1,52.2,72.839Z" transform="translate(-0.002)"/></g><rect class="cls-21" x="40.068" y="35.871" width="13.94" height="10.81"/><rect class="cls-20" x="40.788" y="46.671" width="1.77" height="5.07"/><rect class="cls-20" x="44.428" y="46.671" width="1.76" height="5.07"/><rect class="cls-20" x="48.068" y="46.671" width="1.76" height="5.07"/><rect class="cls-20" x="51.668" y="46.671" width="1.76" height="5.07"/><rect class="cls-20" x="51.668" y="30.791" width="1.76" height="5.07"/><rect class="cls-20" x="48.028" y="30.791" width="1.77" height="5.07"/><rect class="cls-20" x="44.388" y="30.791" width="1.77" height="5.07"/><rect class="cls-20" x="40.748" y="30.791" width="1.76" height="5.07"/><g id="_102" data-name="102"><rect class="cls-31" x="49.061" y="56.582" width="1.612" height="1.996"/><rect class="cls-31" x="52.404" y="56.563" width="1.612" height="1.996"/><rect class="cls-26" x="50.343" y="56.727" width="2.42" height="1.692"/><path class="cls-32" d="M51.134,57.784h-.3v-.055h.114v-.368h-.114v-.049a.457.457,0,0,0,.05,0,.147.147,0,0,0,.04-.012.087.087,0,0,0,.027-.023.078.078,0,0,0,.011-.038h.056v.494h.112Z" transform="translate(-0.002)"/><path class="cls-32" d="M51.568,57.51a.4.4,0,0,1-.046.217.162.162,0,0,1-.143.068.159.159,0,0,1-.144-.069.528.528,0,0,1,0-.431.184.184,0,0,1,.288,0A.408.408,0,0,1,51.568,57.51Zm-.1.167a.266.266,0,0,0,.017-.07.877.877,0,0,0,.005-.1.891.891,0,0,0-.005-.1.224.224,0,0,0-.018-.07.1.1,0,0,0-.035-.042.116.116,0,0,0-.114,0,.1.1,0,0,0-.036.043.211.211,0,0,0-.017.071.93.93,0,0,0,0,.1c0,.038,0,.07,0,.1a.232.232,0,0,0,.018.069.089.089,0,0,0,.034.044.1.1,0,0,0,.059.015.109.109,0,0,0,.057-.014A.094.094,0,0,0,51.472,57.677Z" transform="translate(-0.002)"/><path class="cls-32" d="M51.972,57.51a.4.4,0,0,1-.047.217.185.185,0,0,1-.287,0,.408.408,0,0,1-.045-.215.4.4,0,0,1,.046-.216.183.183,0,0,1,.287,0A.4.4,0,0,1,51.972,57.51Zm-.1.167a.266.266,0,0,0,.017-.07.686.686,0,0,0,0-.1.694.694,0,0,0,0-.1.256.256,0,0,0-.017-.07.1.1,0,0,0-.036-.042.1.1,0,0,0-.057-.015.1.1,0,0,0-.057.015.1.1,0,0,0-.036.043.238.238,0,0,0-.017.071.93.93,0,0,0,0,.1c0,.038,0,.07,0,.1a.232.232,0,0,0,.018.069.1.1,0,0,0,.034.044.105.105,0,0,0,.059.015.109.109,0,0,0,.057-.014A.088.088,0,0,0,51.875,57.677Z" transform="translate(-0.002)"/><path class="cls-32" d="M52.375,57.784h-.37v-.076l.078-.067.072-.066a.647.647,0,0,0,.1-.108.153.153,0,0,0,.026-.087.086.086,0,0,0-.027-.067.12.12,0,0,0-.079-.024.252.252,0,0,0-.073.012.309.309,0,0,0-.076.036h0V57.26a.3.3,0,0,1,.069-.024.367.367,0,0,1,.085-.011.2.2,0,0,1,.132.041.14.14,0,0,1,.048.11.221.221,0,0,1-.008.059.235.235,0,0,1-.024.051.337.337,0,0,1-.033.044c-.013.015-.029.032-.047.05s-.053.05-.082.074l-.078.067h.294Z" transform="translate(-0.002)"/></g><g id="_102-2" data-name="102"><rect class="cls-31" x="32.645" y="59.945" width="1.612" height="1.996"/><rect class="cls-31" x="35.988" y="59.926" width="1.612" height="1.996"/><rect class="cls-26" x="33.927" y="60.09" width="2.42" height="1.692"/><path class="cls-32" d="M34.718,61.147h-.3v-.056h.115v-.367h-.115v-.05a.289.289,0,0,0,.05,0,.107.107,0,0,0,.04-.011.087.087,0,0,0,.027-.023.081.081,0,0,0,.011-.038h.057v.493h.112Z" transform="translate(-0.002)"/><path class="cls-32" d="M35.152,60.873a.393.393,0,0,1-.047.216.183.183,0,0,1-.287,0,.4.4,0,0,1-.045-.214.406.406,0,0,1,.046-.216.16.16,0,0,1,.143-.07.158.158,0,0,1,.144.071A.4.4,0,0,1,35.152,60.873Zm-.1.167a.266.266,0,0,0,.017-.07.686.686,0,0,0,0-.1.694.694,0,0,0,0-.1.256.256,0,0,0-.017-.07.105.105,0,0,0-.035-.042.1.1,0,0,0-.058-.015.1.1,0,0,0-.057.015.1.1,0,0,0-.036.043.238.238,0,0,0-.017.071.946.946,0,0,0,0,.1.873.873,0,0,0,0,.1.206.206,0,0,0,.017.069.1.1,0,0,0,.034.044.105.105,0,0,0,.059.015.106.106,0,0,0,.058-.015A.085.085,0,0,0,35.055,61.04Z" transform="translate(-0.002)"/><path class="cls-32" d="M35.555,60.873a.394.394,0,0,1-.046.216.161.161,0,0,1-.143.069.158.158,0,0,1-.144-.07.391.391,0,0,1-.046-.214.406.406,0,0,1,.046-.216.182.182,0,0,1,.288,0A.408.408,0,0,1,35.555,60.873Zm-.1.167a.231.231,0,0,0,.018-.07.9.9,0,0,0,0-.1.917.917,0,0,0,0-.1.224.224,0,0,0-.018-.07.1.1,0,0,0-.035-.042.116.116,0,0,0-.114,0,.1.1,0,0,0-.037.043.274.274,0,0,0-.017.071.946.946,0,0,0,0,.1.873.873,0,0,0,0,.1.268.268,0,0,0,.017.069.1.1,0,0,0,.035.044.12.12,0,0,0,.116,0A.085.085,0,0,0,35.458,61.04Z" transform="translate(-0.002)"/><path class="cls-32" d="M35.959,61.147h-.371V61.07L35.666,61q.039-.033.072-.066a.769.769,0,0,0,.1-.108.163.163,0,0,0,.026-.087.082.082,0,0,0-.028-.067.118.118,0,0,0-.079-.024.246.246,0,0,0-.072.012.264.264,0,0,0-.076.036h0v-.077a.332.332,0,0,1,.07-.024.359.359,0,0,1,.084-.011.2.2,0,0,1,.132.041.135.135,0,0,1,.048.11.214.214,0,0,1-.008.058.217.217,0,0,1-.023.052.434.434,0,0,1-.034.044c-.013.015-.028.031-.047.049s-.053.051-.081.075l-.078.067h.294Z" transform="translate(-0.002)"/></g><g id="_102-3" data-name="102"><rect class="cls-31" x="32.872" y="35.975" width="1.996" height="1.612"/><rect class="cls-31" x="32.853" y="32.632" width="1.996" height="1.612"/><rect class="cls-26" x="33.017" y="33.885" width="1.692" height="2.42"/><path class="cls-32" d="M34.077,35.516v.3h-.056V35.7h-.367v.114H33.6a.285.285,0,0,0,0-.049.107.107,0,0,0-.011-.04.07.07,0,0,0-.024-.027.069.069,0,0,0-.038-.011v-.057h.494v-.112Z" transform="translate(-0.002)"/><path class="cls-32" d="M33.8,35.082a.4.4,0,0,1,.216.046.184.184,0,0,1,0,.288.531.531,0,0,1-.43,0,.182.182,0,0,1,0-.288A.406.406,0,0,1,33.8,35.082Zm.167.1a.239.239,0,0,0-.071-.017.671.671,0,0,0-.1-.005.694.694,0,0,0-.1.005.218.218,0,0,0-.07.017.109.109,0,0,0-.043.035.1.1,0,0,0-.014.057.091.091,0,0,0,.058.094.264.264,0,0,0,.071.017.946.946,0,0,0,.1,0,.842.842,0,0,0,.095,0,.248.248,0,0,0,.07-.017.1.1,0,0,0,.043-.034.107.107,0,0,0,.015-.06.112.112,0,0,0-.014-.057A.094.094,0,0,0,33.97,35.179Z" transform="translate(-0.002)"/><path class="cls-32" d="M33.8,34.679a.394.394,0,0,1,.216.046.161.161,0,0,1,.069.143.158.158,0,0,1-.07.144.525.525,0,0,1-.43,0,.162.162,0,0,1-.07-.144.16.16,0,0,1,.071-.144A.406.406,0,0,1,33.8,34.679Zm.167.1a.274.274,0,0,0-.071-.017.858.858,0,0,0-.1-.005.891.891,0,0,0-.1.005.217.217,0,0,0-.07.018.1.1,0,0,0,0,.185.228.228,0,0,0,.071.018c.029,0,.061,0,.1,0s.07,0,.095,0a.248.248,0,0,0,.07-.018.087.087,0,0,0,.043-.034.1.1,0,0,0,.015-.059.109.109,0,0,0-.014-.057A.1.1,0,0,0,33.97,34.775Z" transform="translate(-0.002)"/><path class="cls-32" d="M34.077,34.275v.371H34l-.066-.078q-.033-.039-.066-.072a.764.764,0,0,0-.109-.1.161.161,0,0,0-.087-.026.085.085,0,0,0-.067.028.117.117,0,0,0-.023.078.244.244,0,0,0,.011.073.293.293,0,0,0,.036.076v0h-.077a.4.4,0,0,1-.024-.07.356.356,0,0,1-.01-.084.19.19,0,0,1,.041-.132.133.133,0,0,1,.109-.048.221.221,0,0,1,.059.008.2.2,0,0,1,.051.023.443.443,0,0,1,.045.034.514.514,0,0,1,.049.047l.075.081.067.078v-.294Z" transform="translate(-0.002)"/></g><g id="_102-4" data-name="102"><rect class="cls-31" x="32.645" y="62.945" width="1.612" height="1.996"/><rect class="cls-31" x="35.988" y="62.926" width="1.612" height="1.996"/><rect class="cls-26" x="33.927" y="63.091" width="2.42" height="1.692"/><path class="cls-32" d="M34.718,64.147h-.3v-.055h.115v-.367h-.115v-.05a.438.438,0,0,0,.05,0,.131.131,0,0,0,.04-.011.09.09,0,0,0,.027-.024.078.078,0,0,0,.011-.038h.057v.494h.112Z" transform="translate(-0.002)"/><path class="cls-32" d="M35.152,63.874a.393.393,0,0,1-.047.216.183.183,0,0,1-.287,0,.531.531,0,0,1,0-.43.181.181,0,0,1,.287,0A.393.393,0,0,1,35.152,63.874Zm-.1.167a.274.274,0,0,0,.017-.071.679.679,0,0,0,0-.1.709.709,0,0,0,0-.1.249.249,0,0,0-.017-.069.092.092,0,0,0-.093-.058.1.1,0,0,0-.057.015.1.1,0,0,0-.036.044.231.231,0,0,0-.017.07.967.967,0,0,0,0,.1.854.854,0,0,0,0,.095.218.218,0,0,0,.017.07.1.1,0,0,0,.034.043.105.105,0,0,0,.059.015.116.116,0,0,0,.058-.014A.094.094,0,0,0,35.055,64.041Z" transform="translate(-0.002)"/><path class="cls-32" d="M35.555,63.874a.394.394,0,0,1-.046.216.161.161,0,0,1-.143.069.158.158,0,0,1-.144-.07.393.393,0,0,1-.046-.214.4.4,0,0,1,.046-.216.182.182,0,0,1,.288,0A.4.4,0,0,1,35.555,63.874Zm-.1.167a.238.238,0,0,0,.018-.071.9.9,0,0,0,0-.1.937.937,0,0,0,0-.1.217.217,0,0,0-.018-.069.1.1,0,0,0-.035-.043.116.116,0,0,0-.114,0,.1.1,0,0,0-.037.044.265.265,0,0,0-.017.07.967.967,0,0,0,0,.1.854.854,0,0,0,0,.095.287.287,0,0,0,.017.07.094.094,0,0,0,.035.043.1.1,0,0,0,.059.015.109.109,0,0,0,.057-.014A.094.094,0,0,0,35.458,64.041Z" transform="translate(-0.002)"/><path class="cls-32" d="M35.959,64.147h-.371v-.076L35.666,64q.039-.033.072-.066a.717.717,0,0,0,.1-.108.161.161,0,0,0,.026-.087.083.083,0,0,0-.028-.067.118.118,0,0,0-.079-.024.246.246,0,0,0-.072.012.293.293,0,0,0-.076.036h0v-.077a.332.332,0,0,1,.07-.024.359.359,0,0,1,.084-.011.2.2,0,0,1,.132.041.137.137,0,0,1,.048.11.221.221,0,0,1-.008.059.211.211,0,0,1-.023.051.443.443,0,0,1-.034.045c-.013.015-.028.031-.047.049l-.081.075-.078.066h.294Z" transform="translate(-0.002)"/></g><g id="_102-5" data-name="102"><rect class="cls-31" x="32.678" y="75.978" width="1.996" height="1.612"/><rect class="cls-31" x="32.659" y="72.635" width="1.996" height="1.612"/><rect class="cls-26" x="32.823" y="73.888" width="1.692" height="2.42"/><path class="cls-32" d="M33.883,75.52v.3h-.056V75.7H33.46v.114h-.05a.285.285,0,0,0,0-.049.107.107,0,0,0-.011-.04.077.077,0,0,0-.023-.027.072.072,0,0,0-.039-.012v-.056h.494V75.52Z" transform="translate(-0.002)"/><path class="cls-32" d="M33.609,75.086a.4.4,0,0,1,.216.046.161.161,0,0,1,.069.143.158.158,0,0,1-.07.144.391.391,0,0,1-.214.046.4.4,0,0,1-.216-.046.182.182,0,0,1,0-.288A.406.406,0,0,1,33.609,75.086Zm.167.1a.212.212,0,0,0-.07-.017.943.943,0,0,0-.194,0,.194.194,0,0,0-.07.017.09.09,0,0,0-.057.092.116.116,0,0,0,.014.058.107.107,0,0,0,.044.036.264.264,0,0,0,.071.017.946.946,0,0,0,.1,0,.873.873,0,0,0,.1,0,.291.291,0,0,0,.069-.017.089.089,0,0,0,.043-.035.094.094,0,0,0,.015-.059.1.1,0,0,0-.014-.057A.089.089,0,0,0,33.776,75.183Z" transform="translate(-0.002)"/><path class="cls-32" d="M33.609,74.683a.394.394,0,0,1,.216.046.161.161,0,0,1,.069.143.158.158,0,0,1-.07.144.525.525,0,0,1-.43,0,.162.162,0,0,1-.07-.144.16.16,0,0,1,.071-.144A.406.406,0,0,1,33.609,74.683Zm.167.1a.276.276,0,0,0-.07-.017.943.943,0,0,0-.194,0,.217.217,0,0,0-.07.018.1.1,0,0,0-.043.035.123.123,0,0,0,0,.114.1.1,0,0,0,.044.036.205.205,0,0,0,.071.017.93.93,0,0,0,.1,0c.038,0,.07,0,.1,0a.25.25,0,0,0,.069-.018.082.082,0,0,0,.043-.034.1.1,0,0,0,.015-.059.1.1,0,0,0-.014-.057A.091.091,0,0,0,33.776,74.779Z" transform="translate(-0.002)"/><path class="cls-32" d="M33.883,74.279v.37h-.077l-.066-.077q-.033-.039-.066-.072a.705.705,0,0,0-.109-.1.158.158,0,0,0-.086-.026.082.082,0,0,0-.067.028.117.117,0,0,0-.024.078.262.262,0,0,0,.048.149v0h-.078a.507.507,0,0,1-.024-.07.419.419,0,0,1-.01-.085.189.189,0,0,1,.041-.131.135.135,0,0,1,.11-.048.214.214,0,0,1,.058.008.2.2,0,0,1,.051.023.354.354,0,0,1,.045.034.514.514,0,0,1,.049.047q.039.039.075.081l.067.078v-.294Z" transform="translate(-0.002)"/></g><g id="_102-6" data-name="102"><rect class="cls-31" x="61.179" y="42.815" width="1.308" height="1.619"/><rect class="cls-31" x="63.89" y="42.8" width="1.308" height="1.619"/><rect class="cls-26" x="62.219" y="42.933" width="1.963" height="5.769"/></g><g id="_102-7" data-name="102"><rect class="cls-31" x="61.179" y="44.658" width="1.308" height="1.619"/><rect class="cls-31" x="63.89" y="44.642" width="1.308" height="1.619"/></g><g id="_102-8" data-name="102"><rect class="cls-31" x="61.179" y="46.5" width="1.308" height="1.619"/><rect class="cls-31" x="63.89" y="46.485" width="1.308" height="1.619"/></g><g id="_102-9" data-name="102"><rect class="cls-31" x="61.179" y="48.343" width="1.308" height="1.619"/><rect class="cls-31" x="63.89" y="48.327" width="1.308" height="1.619"/><rect class="cls-26" x="62.219" y="44.043" width="1.963" height="5.789"/></g><g id="D-SMA"><path id="path32590-0-9-7-9-9" class="cls-26" d="M199.04,62.976h-9.567V78.212h9.567Z" transform="translate(-0.002)"/><path id="path32578-9-7-2-9-4" class="cls-8" d="M196.9,78.212h-5.294v2.375h5.31Z" transform="translate(-0.002)"/><path id="path32578-9-7-2-9-4-2" class="cls-8" d="M196.9,60.535h-5.294V62.91h5.31Z" transform="translate(-0.002)"/></g><g id="SOT2223"><path id="path13471-0-1" class="cls-8" d="M111.965,74.43h-10V68.25h10Z" transform="translate(-0.002)"/><path id="path13485-5-7" class="cls-8" d="M102.245,91.86h-3.27v-7.5h3.27Z" transform="translate(-0.002)"/><path id="path13499-3-4" class="cls-8" d="M115.018,91.528h-3.271v-7.5h3.271Z" transform="translate(-0.002)"/><path id="path13513-8-8" class="cls-8" d="M108.625,91.528h-3.25v-7.5h3.26Z" transform="translate(-0.002)"/><path id="path13523-6-9" class="cls-26" d="M116.176,84.259H97.816V74.376h18.36Z" transform="translate(-0.002)"/></g><g id="транзистор-3" data-name="транзистор"><rect class="cls-26" x="136.459" y="81.772" width="3.662" height="8.559"/><rect class="cls-8" x="140.122" y="85.376" width="2.948" height="1.607"/><rect class="cls-8" x="132.947" y="82.568" width="3.512" height="1.681"/><rect class="cls-8" x="132.947" y="88.057" width="3.512" height="1.681"/></g><g id="конденсатор-11" data-name="конденсатор"><rect class="cls-27" x="124.147" y="90.415" width="3.62" height="2.92"/><rect class="cls-27" x="124.107" y="86.355" width="3.62" height="2.92"/><rect class="cls-28" x="124.407" y="87.625" width="3.06" height="4.39"/></g><g id="конденсатор-12" data-name="конденсатор"><rect class="cls-27" x="119.307" y="80.789" width="3.62" height="2.92"/><rect class="cls-27" x="119.267" y="76.729" width="3.62" height="2.92"/></g><g id="конденсатор-13" data-name="конденсатор"><rect class="cls-27" x="111.884" y="102.864" width="2.92" height="3.62"/><rect class="cls-27" x="107.824" y="102.904" width="2.92" height="3.62"/><rect class="cls-28" x="109.094" y="103.164" width="4.39" height="3.06"/></g><g id="_102-10" data-name="102"><rect class="cls-31" x="192.366" y="54.065" width="4.255" height="3.438"/><rect class="cls-31" x="192.325" y="46.937" width="4.255" height="3.438"/><rect class="cls-33" x="192.676" y="49.608" width="3.608" height="5.161"/></g><g id="_102-11" data-name="102"><rect class="cls-31" x="166.276" y="63.781" width="3.438" height="4.255"/><rect class="cls-31" x="173.404" y="63.741" width="3.438" height="4.255"/><rect class="cls-26" x="169.009" y="64.091" width="5.161" height="3.608"/><path class="cls-32" d="M170.6,66.391h-.7V66.26h.268V65.4h-.268V65.28a1.014,1.014,0,0,0,.117-.009.28.28,0,0,0,.094-.027.17.17,0,0,0,.063-.055.174.174,0,0,0,.026-.089h.134v1.16h.263Z" transform="translate(-0.002)"/><path class="cls-32" d="M171.622,65.747a.938.938,0,0,1-.108.509.378.378,0,0,1-.337.162.372.372,0,0,1-.338-.164.945.945,0,0,1-.108-.505.936.936,0,0,1,.109-.507.428.428,0,0,1,.676,0A.952.952,0,0,1,171.622,65.747Zm-.227.393a.586.586,0,0,0,.041-.165,2.121,2.121,0,0,0,.01-.228,2.159,2.159,0,0,0-.01-.228.553.553,0,0,0-.042-.164.238.238,0,0,0-.082-.1.293.293,0,0,0-.27,0,.239.239,0,0,0-.084.1.531.531,0,0,0-.04.167,2.236,2.236,0,0,0-.011.226,2.044,2.044,0,0,0,.01.226.566.566,0,0,0,.04.162.235.235,0,0,0,.081.1.241.241,0,0,0,.139.035.255.255,0,0,0,.135-.033A.224.224,0,0,0,171.4,66.14Z" transform="translate(-0.002)"/><path class="cls-32" d="M172.57,65.747a.938.938,0,0,1-.108.509.431.431,0,0,1-.675,0,.946.946,0,0,1-.107-.505.937.937,0,0,1,.108-.507.428.428,0,0,1,.676,0A.952.952,0,0,1,172.57,65.747Zm-.227.393a.586.586,0,0,0,.041-.165,1.867,1.867,0,0,0,.011-.228,1.9,1.9,0,0,0-.011-.228.553.553,0,0,0-.042-.164.238.238,0,0,0-.082-.1.25.25,0,0,0-.135-.033.255.255,0,0,0-.135.033.239.239,0,0,0-.084.1.56.56,0,0,0-.04.167,2.236,2.236,0,0,0-.011.226,2.044,2.044,0,0,0,.01.226.566.566,0,0,0,.04.162.235.235,0,0,0,.081.1.241.241,0,0,0,.139.035.25.25,0,0,0,.135-.033A.224.224,0,0,0,172.343,66.14Z" transform="translate(-0.002)"/><path class="cls-32" d="M173.521,66.391h-.873V66.21c.061-.051.123-.1.183-.155s.117-.1.17-.155a1.716,1.716,0,0,0,.228-.255.374.374,0,0,0,.06-.2.193.193,0,0,0-.065-.156.277.277,0,0,0-.185-.057.612.612,0,0,0-.171.027.747.747,0,0,0-.179.085h-.008v-.181a.779.779,0,0,1,.164-.055.77.77,0,0,1,.2-.026.466.466,0,0,1,.311.1.321.321,0,0,1,.112.259.473.473,0,0,1-.019.137.5.5,0,0,1-.054.12.842.842,0,0,1-.08.106c-.03.034-.067.073-.11.115-.061.06-.125.119-.191.175l-.184.158h.693Z" transform="translate(-0.002)"/></g><g id="_102-12" data-name="102"><rect class="cls-31" x="181.356" y="66.045" width="4.255" height="3.438"/><rect class="cls-31" x="181.315" y="58.916" width="4.255" height="3.438"/><rect class="cls-33" x="181.666" y="61.588" width="3.608" height="5.161"/></g><g id="_102-13" data-name="102"><rect class="cls-31" x="181.377" y="80.836" width="4.255" height="3.438"/><rect class="cls-31" x="181.336" y="73.708" width="4.255" height="3.438"/><rect class="cls-33" x="181.686" y="76.379" width="3.608" height="5.161"/></g><g id="_102-14" data-name="102"><rect class="cls-31" x="192.386" y="91.13" width="4.255" height="3.438"/><rect class="cls-31" x="192.346" y="84.001" width="4.255" height="3.438"/><rect class="cls-33" x="192.696" y="86.673" width="3.608" height="5.161"/></g><polyline class="cls-34" points="181.359 131.733 183.349 131.733 183.349 124.113 181.359 124.113"/><polyline class="cls-34" points="139.089 124.113 137.099 124.113 137.099 131.733 139.089 131.733"/><polyline class="cls-34" points="178.319 103.213 180.829 103.213 180.829 100.313 177.289 100.313"/><polyline class="cls-34" points="139.089 103.213 136.579 103.213 136.579 100.313 140.109 100.313"/><rect class="cls-34" x="165.409" y="96.413" width="2.57" height="6.04"/><rect class="cls-34" x="162.239" y="96.413" width="2.57" height="6.04"/><rect class="cls-34" x="159.069" y="96.413" width="2.57" height="6.04"/><rect class="cls-34" x="155.899" y="96.413" width="2.57" height="6.04"/><rect class="cls-34" x="152.729" y="96.413" width="2.57" height="6.04"/><rect class="cls-34" x="149.549" y="96.413" width="2.57" height="6.04"/><rect class="cls-34" x="146.379" y="96.413" width="2.57" height="6.04"/><rect class="cls-34" x="143.209" y="96.413" width="2.57" height="6.04"/><rect class="cls-34" x="140.039" y="96.413" width="2.57" height="6.04"/><path class="cls-35" d="M181.361,141.823v-36.86a.29.29,0,0,0-.29-.29h-2.46a.29.29,0,0,1-.29-.29h0V100.6a.29.29,0,0,0-.29-.29h-38.66a.28.28,0,0,0-.28.28v39.19a.282.282,0,0,0,.226.326.327.327,0,0,0,.054,0h26.15l8,2h7.55a.29.29,0,0,0,.29-.29Z" transform="translate(-0.002)"/><rect class="cls-36" x="139.079" y="104.753" width="3.07" height="11"/><polygon class="cls-37" points="139.089 101.313 142.149 102.203 142.149 104.753 139.089 104.753 139.089 101.313"/><path class="cls-38" d="M139.311,115.863l.78-1.3a2.622,2.622,0,0,0,.21-1.5,1.9,1.9,0,0,0-.09-.33l-.79-2.87a1.961,1.961,0,0,1-.12-.53,2.317,2.317,0,0,1,.45-1.58l.77-1.3" transform="translate(-0.002)"/><polygon class="cls-36" points="181.309 137.033 180.459 137.033 180.459 123.943 174.929 123.943 174.929 127.703 177.519 130.563 177.519 137.033 176.779 137.033 176.779 130.733 174.199 127.813 174.199 123.233 181.309 123.233 181.309 137.033"/><path class="cls-36" d="M164.341,114.953v8.16a.179.179,0,0,1-.17.17h-.49a.18.18,0,0,1-.17-.17v-9a.17.17,0,0,1,.17-.17h4.06a.17.17,0,0,1,.17.17v9a.179.179,0,0,1-.17.17h-.46a.18.18,0,0,1-.17-.17v-8.12a.179.179,0,0,0-.17-.18h-2.43A.182.182,0,0,0,164.341,114.953Z" transform="translate(-0.002)"/><path class="cls-36" d="M144.481,114.953v8.16a.179.179,0,0,1-.17.17h-.49a.18.18,0,0,1-.17-.17v-9a.17.17,0,0,1,.17-.17h4.06a.17.17,0,0,1,.17.17v9a.179.179,0,0,1-.17.17h-.46a.18.18,0,0,1-.17-.17v-8.12a.179.179,0,0,0-.17-.18h-2.43A.182.182,0,0,0,144.481,114.953Z" transform="translate(-0.002)"/><line class="cls-39" x1="181.189" y1="123.003" x2="181.189" y2="141.823"/><g id="конденсатор-14" data-name="конденсатор"><rect class="cls-18" x="110.487" y="94.849" width="2.343" height="5.118"/><rect class="cls-18" x="117.264" y="94.801" width="2.343" height="5.118"/><rect class="cls-33" x="111.977" y="95.222" width="6.2" height="4.337"/></g></g></svg>