<svg id="_1581" data-name="1581" xmlns="http://www.w3.org/2000/svg" xmlns:xlink="http://www.w3.org/1999/xlink" viewBox="0 0 510.436 142.163"><defs><style>.cls-1{fill:#181818;}.cls-2{fill:#995f1a;}.cls-3{fill:#dd962f;}.cls-4{fill:#f9e382;}.cls-49,.cls-5{fill:#fff;}.cls-19,.cls-29,.cls-38,.cls-39,.cls-41,.cls-48,.cls-50,.cls-51,.cls-52,.cls-6{fill:none;}.cls-50,.cls-51,.cls-52,.cls-6{stroke:#fff;}.cls-19,.cls-29,.cls-35,.cls-38,.cls-39,.cls-41,.cls-48,.cls-50,.cls-51,.cls-52,.cls-6{stroke-miterlimit:10;}.cls-6{stroke-width:0.425px;}.cls-7{fill:#b57733;}.cls-8{fill:#9e9b9c;}.cls-12,.cls-9{fill:#f1f3e6;}.cls-10{fill:#c2b990;}.cls-11{fill:#ad9e73;}.cls-12{stroke:#e3e2e6;stroke-width:0.128px;}.cls-13{fill:#108759;}.cls-14{fill:#c97e1b;}.cls-15{fill-opacity:0.573;fill:url(#Безымянный_градиент_179);}.cls-16{fill:#be7400;}.cls-17{fill:#494949;}.cls-18{fill:#cdc5ba;}.cls-19,.cls-29{stroke:#e5e5e5;}.cls-20{fill:#9f9c9c;}.cls-21{fill:#36312f;}.cls-22{fill:#d2d1d3;}.cls-23{fill:#b7b8b9;}.cls-24{fill:#d7d3d5;}.cls-25{fill:#242424;}.cls-26{fill:#363331;}.cls-27{fill:#d0c9bd;}.cls-28{fill:#987743;}.cls-29{stroke-width:0.837px;}.cls-30{fill:#2d2d2d;}.cls-31{fill:#cdc7bc;}.cls-32{fill:#b7b8b5;}.cls-33{fill:#ae7d52;}.cls-34{fill:#cbc5ba;}.cls-35{fill:#f2f2f2;stroke:#999;stroke-width:0.1px;}.cls-36{fill:#313131;}.cls-37{fill:#666566;}.cls-38,.cls-39{stroke:#f2f2f2;}.cls-38{stroke-width:0.41px;}.cls-39,.cls-48{stroke-width:0.25px;}.cls-40{fill:#54391b;}.cls-40,.cls-42,.cls-43{fill-opacity:0.944;}.cls-41{stroke:#c15f0e;}.cls-42,.cls-43{opacity:0.77;}.cls-42{fill:url(#linear-gradient);}.cls-43{fill:url(#linear-gradient-2);}.cls-44{fill:#3a3a3a;}.cls-45{fill:#0d0e0f;}.cls-46{fill:url(#linear-gradient-3);}.cls-47{fill:#e39344;}.cls-48{stroke:#666566;}.cls-49{opacity:0.2;}.cls-49,.cls-52{isolation:isolate;}.cls-50{stroke-width:1.5px;}.cls-51,.cls-52{stroke-width:4px;}.cls-52{opacity:0.7;}</style><linearGradient id="Безымянный_градиент_179" x1="-556.061" y1="35.278" x2="-521.526" y2="35.278" gradientTransform="matrix(-1, 0, 0, 1, -172.821, 0)" gradientUnits="userSpaceOnUse"><stop offset="0" stop-color="#f79300" stop-opacity="0"/><stop offset="0.461" stop-color="#fff" stop-opacity="0.4"/><stop offset="0.572" stop-color="#f4dbc3" stop-opacity="0.555"/><stop offset="0.764" stop-color="#e4a465" stop-opacity="0.796"/><stop offset="0.913" stop-color="#da822c" stop-opacity="0.945"/><stop offset="1" stop-color="#d67516"/></linearGradient><linearGradient id="linear-gradient" x1="16.846" y1="65.918" x2="21.817" y2="65.918" gradientTransform="translate(-46.587 85.25) rotate(-90)" gradientUnits="userSpaceOnUse"><stop offset="0.005" stop-color="#b86d00"/><stop offset="0.029" stop-color="#b06801"/><stop offset="0.114" stop-color="#985b05"/><stop offset="0.204" stop-color="#875108"/><stop offset="0.303" stop-color="#7d4b09"/><stop offset="0.425" stop-color="#7a490a"/><stop offset="0.982" stop-color="#a15f14" stop-opacity="0"/></linearGradient><linearGradient id="linear-gradient-2" x1="-799.94" y1="-241.776" x2="-799.94" y2="-246.769" gradientTransform="translate(819.254 269.438)" xlink:href="#linear-gradient"/><linearGradient id="linear-gradient-3" x1="46.488" y1="297.553" x2="209.531" y2="297.553" gradientTransform="matrix(1, 0, 0, -1, 0, 368.724)" gradientUnits="userSpaceOnUse"><stop offset="0.016" stop-color="#313131" stop-opacity="0.7"/><stop offset="0.027" stop-color="#252525" stop-opacity="0.716"/><stop offset="0.05" stop-color="#141414" stop-opacity="0.748"/><stop offset="0.078" stop-color="#090909" stop-opacity="0.788"/><stop offset="0.117" stop-color="#020202" stop-opacity="0.844"/><stop offset="0.226"/><stop offset="0.449" stop-color="#0c0c0b"/><stop offset="0.869" stop-color="#0d0e0f"/><stop offset="0.883" stop-color="#111212"/><stop offset="0.901" stop-color="#171919"/><stop offset="0.921" stop-color="#202222"/><stop offset="0.943" stop-color="#2f3031"/><stop offset="0.966" stop-color="#454747"/><stop offset="0.99" stop-color="#636364"/><stop offset="0.992" stop-color="#666566"/></linearGradient></defs><g id="bottom"><rect class="cls-1" x="296.612" y="0.381" width="196.734" height="141.732"/><rect class="cls-2" x="297.197" y="10.851" width="54.399" height="72.302"/><path class="cls-3" d="M504.116,0h-228.3a6.321,6.321,0,0,0-6.32,6.32V135.4a6.323,6.323,0,0,0,6.32,6.33h228.3a6.323,6.323,0,0,0,6.32-6.33V6.32A6.321,6.321,0,0,0,504.116,0ZM278.566,137.12a4.535,4.535,0,1,1,4.53-4.54A4.537,4.537,0,0,1,278.566,137.12Zm0-123.59a4.535,4.535,0,1,1,4.53-4.54A4.537,4.537,0,0,1,278.566,13.53Zm81.71,65.01a3.6,3.6,0,0,1-3.6,3.6h-55.16a3.606,3.606,0,0,1-3.61-3.6V12.05a3.615,3.615,0,0,1,3.61-3.61h55.16a3.613,3.613,0,0,1,3.6,3.61Zm141.09,58.65a4.535,4.535,0,1,1,4.54-4.53A4.532,4.532,0,0,1,501.366,137.19Zm0-123.59a4.535,4.535,0,1,1,4.54-4.53A4.532,4.532,0,0,1,501.366,13.6Z"/><path class="cls-4" d="M278.564,4.48a4.536,4.536,0,1,1-4.535,4.536,4.536,4.536,0,0,1,4.535-4.536m0-1.417a5.953,5.953,0,1,0,5.953,5.953,5.96,5.96,0,0,0-5.953-5.953Z"/><path class="cls-4" d="M501.367,4.556a4.536,4.536,0,1,1-4.535,4.536,4.536,4.536,0,0,1,4.535-4.536m0-1.417a5.953,5.953,0,1,0,5.953,5.953,5.959,5.959,0,0,0-5.953-5.953Z"/><path class="cls-4" d="M278.564,128.071a4.536,4.536,0,1,1-4.535,4.535,4.536,4.536,0,0,1,4.535-4.535m0-1.417a5.953,5.953,0,1,0,5.953,5.952,5.96,5.96,0,0,0-5.953-5.952Z"/><path class="cls-4" d="M501.367,128.147a4.536,4.536,0,1,1-4.535,4.535,4.535,4.535,0,0,1,4.535-4.535m0-1.417a5.953,5.953,0,1,0,5.953,5.952,5.959,5.959,0,0,0-5.953-5.952Z"/><path class="cls-5" d="M315.848,115.735v.654l-2.192,2.484h2.192v.654H313v-.654l2.2-2.491H313v-.647Z"/><path class="cls-5" d="M314.533,111.235v2.138h1.008V110.89h.307v3.134H313v-3.1h.307v2.45h.916v-2.138Z"/><path class="cls-5" d="M314.094,107.915,313,106.732v-.765l1.41,1.558,1.434-1.595v.772l-1.11,1.213,1.11,1.22v.769l-1.434-1.6L313,109.867V109.1Z"/><path class="cls-5" d="M313.311,101.209V102.8h2.537v.646h-2.537v1.583H313v-3.815Z"/><path class="cls-5" d="M315.848,99.225v.65H313v-.65Z"/><path class="cls-5" d="M314.518,93.684a1.143,1.143,0,0,1,.729.244,1.507,1.507,0,0,1,.476.691,3.035,3.035,0,0,1,.164,1.044,2.989,2.989,0,0,1-.165,1.033,1.572,1.572,0,0,1-.471.7,1.119,1.119,0,0,1-.708.256h-.2a1.14,1.14,0,0,1-.725-.248,1.547,1.547,0,0,1-.481-.7,2.988,2.988,0,0,1-.167-1.035,3.07,3.07,0,0,1,.165-1.046,1.5,1.5,0,0,1,.478-.7,1.154,1.154,0,0,1,.73-.244Zm-.184.647a.917.917,0,0,0-.776.353,1.586,1.586,0,0,0-.271.986,1.569,1.569,0,0,0,.271.971.92.92,0,0,0,.751.364h.209a.922.922,0,0,0,.77-.358,1.548,1.548,0,0,0,.28-.984,1.576,1.576,0,0,0-.264-.976.923.923,0,0,0-.759-.356Z"/><path class="cls-5" d="M315.848,88.361v.654L313.656,91.5h2.192v.654H313V91.5l2.2-2.491H313v-.647Z"/><polygon class="cls-6" points="309.767 115.647 297.244 108.647 297.244 101.376 309.767 108.376 309.767 115.647"/><polygon class="cls-6" points="309.767 106.396 302.2 102.132 302.2 97.704 309.767 101.968 309.767 106.396"/><polygon class="cls-6" points="309.767 100.421 304.72 97.443 304.72 94.349 309.767 97.327 309.767 100.421"/><path class="cls-7" d="M283.835,101.021v.66L280,104.186h3.835v.66h-4.977v-.66l3.852-2.512h-3.852v-.653Z"/><path class="cls-7" d="M280.766,97.614l-1.908-1.193v-.773l2.468,1.573,2.509-1.61v.779l-1.941,1.224,1.941,1.23v.776l-2.509-1.613-2.468,1.576v-.77Z"/><path class="cls-7" d="M281.039,93.533v-.475a1.05,1.05,0,0,0-.235-.7.791.791,0,0,0-.619-.256.772.772,0,0,0-.875.871.907.907,0,0,0,.234.655.817.817,0,0,0,.62.244V94.5a1.268,1.268,0,0,1-.982-.432,1.574,1.574,0,0,1-.392-1.1,1.555,1.555,0,0,1,.373-1.1,1.346,1.346,0,0,1,1.035-.4,1.087,1.087,0,0,1,.629.211,1.257,1.257,0,0,1,.455.572,1.222,1.222,0,0,1,.43-.634,1.2,1.2,0,0,1,.735-.224,1.36,1.36,0,0,1,1.064.438,1.641,1.641,0,0,1,.392,1.138,1.682,1.682,0,0,1-.379,1.139,1.258,1.258,0,0,1-1,.44v-.636a.813.813,0,0,0,.629-.256.972.972,0,0,0,.237-.687.953.953,0,0,0-.241-.7.921.921,0,0,0-.686-.243.838.838,0,0,0-.667.267,1.164,1.164,0,0,0-.238.769v.475Z"/><path class="cls-7" d="M283.835,86.7v3.261h-.455l-1.914-1.723a4.141,4.141,0,0,0-.7-.528,1.18,1.18,0,0,0-.563-.145.89.89,0,0,0-.638.236.821.821,0,0,0-.25.629.976.976,0,0,0,.268.733,1.027,1.027,0,0,0,.747.261v.633a1.466,1.466,0,0,1-1.111-.443,1.643,1.643,0,0,1-.424-1.184,1.579,1.579,0,0,1,.364-1.1,1.241,1.241,0,0,1,.969-.4,2.845,2.845,0,0,1,1.75.937l1.446,1.333V86.7Z"/><path class="cls-7" d="M283.835,82.21v3.261h-.455l-1.914-1.722a4.035,4.035,0,0,0-.7-.528,1.181,1.181,0,0,0-.563-.146.89.89,0,0,0-.638.236.823.823,0,0,0-.25.629.976.976,0,0,0,.268.733,1.023,1.023,0,0,0,.747.262v.632a1.466,1.466,0,0,1-1.111-.443,1.642,1.642,0,0,1-.424-1.184,1.576,1.576,0,0,1,.364-1.1,1.241,1.241,0,0,1,.969-.4,2.845,2.845,0,0,1,1.75.937l1.446,1.333v-2.5Z"/><path class="cls-7" d="M282.163,78.312v-.691h.517v.691h1.155v.635H282.68v2.266h-.372l-3.45-2.228v-.673Zm0,2.184V78.947h-2.439l.136.075Z"/><path class="cls-7" d="M281.638,73.582V75.67h2.2v.656h-4.977V73.243h.538V75.67h1.7V73.582Z"/><path class="cls-7" d="M281.712,68.94a2.89,2.89,0,0,1,1.651.38,1.576,1.576,0,0,1,.012,2.365,2.753,2.753,0,0,1-1.577.4h-.844a2.829,2.829,0,0,1-1.631-.38,1.6,1.6,0,0,1-.018-2.372,2.726,2.726,0,0,1,1.587-.39Zm-.864.633a2.322,2.322,0,0,0-1.171.225.778.778,0,0,0-.367.715.767.767,0,0,0,.365.707,2.26,2.26,0,0,0,1.125.229h1.012A2.356,2.356,0,0,0,283,71.215a.775.775,0,0,0,.385-.709.761.761,0,0,0-.364-.695,2.258,2.258,0,0,0-1.14-.238Z"/><path class="cls-7" d="M283.835,64.31v3.26h-.455l-1.914-1.722a4.087,4.087,0,0,0-.7-.528,1.181,1.181,0,0,0-.563-.146.89.89,0,0,0-.638.236.823.823,0,0,0-.25.629.974.974,0,0,0,.268.733,1.023,1.023,0,0,0,.747.262v.632a1.463,1.463,0,0,1-1.111-.443,1.642,1.642,0,0,1-.424-1.184,1.576,1.576,0,0,1,.364-1.1,1.241,1.241,0,0,1,.969-.4,2.848,2.848,0,0,1,1.75.936l1.446,1.333v-2.5Z"/><path class="cls-7" d="M280.157,60.062a1.154,1.154,0,0,1,.663.2,1.327,1.327,0,0,1,.454.532,1.436,1.436,0,0,1,.49-.617,1.226,1.226,0,0,1,.727-.228,1.3,1.3,0,0,1,1.03.436,1.914,1.914,0,0,1,0,2.3,1.308,1.308,0,0,1-1.028.432,1.264,1.264,0,0,1-.727-.22,1.371,1.371,0,0,1-.493-.61,1.3,1.3,0,0,1-.454.523,1.179,1.179,0,0,1-.66.191,1.286,1.286,0,0,1-1-.4,1.713,1.713,0,0,1,0-2.124A1.28,1.28,0,0,1,280.157,60.062Zm-.847,1.466a.817.817,0,0,0,.23.6.955.955,0,0,0,1.241,0,.9.9,0,0,0,0-1.214.935.935,0,0,0-1.232.009A.8.8,0,0,0,279.31,61.528Zm3.168-.95a.916.916,0,0,0-.68.265.936.936,0,0,0-.264.692.89.89,0,0,0,.944.943.884.884,0,0,0,.667-.251,1.12,1.12,0,0,0,0-1.4A.881.881,0,0,0,282.478,60.578Z"/><path class="cls-7" d="M284.351,55.858v3.131h-.516V55.858Z"/><path class="cls-7" d="M281.712,51.75a2.891,2.891,0,0,1,1.651.379,1.577,1.577,0,0,1,.012,2.366,2.746,2.746,0,0,1-1.577.4h-.844a2.83,2.83,0,0,1-1.631-.379,1.6,1.6,0,0,1-.018-2.372,2.726,2.726,0,0,1,1.587-.39Zm-.864.632a2.321,2.321,0,0,0-1.171.226.776.776,0,0,0-.367.714.768.768,0,0,0,.365.708,2.271,2.271,0,0,0,1.125.229h1.012A2.344,2.344,0,0,0,283,54.024a.774.774,0,0,0,.385-.709.761.761,0,0,0-.364-.7,2.258,2.258,0,0,0-1.14-.238Z"/><path class="cls-7" d="M283.835,48.3v.636H279.62l.469,1.274h-.574l-.68-1.811v-.1Z"/><path class="cls-7" d="M283.835,43.812v.635H279.62l.469,1.275h-.574l-.68-1.811v-.1Z"/><path class="cls-5" d="M471.02,61.834a1.248,1.248,0,0,1-.684-.182,1.194,1.194,0,0,1-.445-.507,1.7,1.7,0,0,1-.157-.75v-.047a1.689,1.689,0,0,1,.158-.753,1.234,1.234,0,0,1,.43-.5,1.1,1.1,0,0,1,.621-.181,1.815,1.815,0,0,1,.564.076,1.282,1.282,0,0,1,.395.2v.574h-.316l-.041-.412a.754.754,0,0,0-.234-.095,1.509,1.509,0,0,0-.329-.032.73.73,0,0,0-.439.141.945.945,0,0,0-.309.391,1.41,1.41,0,0,0-.113.587V60.4a1.521,1.521,0,0,0,.105.593.845.845,0,0,0,.305.392.837.837,0,0,0,.489.14,1.413,1.413,0,0,0,.33-.034,1.124,1.124,0,0,0,.238-.089v-.668l-.545-.02v-.283h.93v1.1a1.2,1.2,0,0,1-.353.211A1.6,1.6,0,0,1,471.02,61.834Z"/><path class="cls-5" d="M472.688,61.793v-.246l.319-.054V59.252l-.319-.054V58.95h.708l1.394,2.217.012,0V59.252l-.35-.054V58.95h1.022V59.2l-.319.054v2.541H474.8l-1.432-2.228-.012,0v1.924l.35.054v.246Z"/><path class="cls-5" d="M476.114,61.793v-.246l.319-.054V59.252l-.319-.054V58.95h1.114a1.189,1.189,0,0,1,.657.179,1.213,1.213,0,0,1,.436.5,1.58,1.58,0,0,1,.157.718V60.4a1.618,1.618,0,0,1-.151.71,1.193,1.193,0,0,1-.427.5,1.15,1.15,0,0,1-.653.182Zm.7-.3h.411a.734.734,0,0,0,.462-.148.938.938,0,0,0,.3-.394,1.373,1.373,0,0,0,.105-.548v-.065a1.377,1.377,0,0,0-.105-.555.912.912,0,0,0-.3-.388.756.756,0,0,0-.462-.143h-.411Z"/><path class="cls-5" d="M473.136,68.727v-.246l.318-.055v-2.24l-.318-.055v-.246H474.4a1.337,1.337,0,0,1,.525.093.7.7,0,0,1,.325.269.787.787,0,0,1,.111.429.767.767,0,0,1-.108.42.675.675,0,0,1-.308.257,1.243,1.243,0,0,1-.472.093l-.637.012v.968l.318.055v.246Zm.7-1.572h.525a.726.726,0,0,0,.469-.123.442.442,0,0,0,.146-.36.46.46,0,0,0-.14-.355.624.624,0,0,0-.436-.131h-.564Zm1.174,1.572-.633-1.42.385,0,.525,1.137.2.035v.252Z"/><path class="cls-5" d="M476.158,68.727v-.246l.246-.043.881-1.154-.816-1.11-.248-.043v-.248h.922v.248l-.268.026.629.877.6-.877-.274-.026v-.248h.928v.248l-.26.043-.771,1.11.855,1.154.252.043v.246H477.9v-.246l.276-.025-.674-.924-.672.924.26.025v.246Z"/><path class="cls-5" d="M473.833,75.767v-.246l.318-.055V73.214h-.644l-.057.395h-.289v-.686h2.363v.686h-.285l-.058-.395h-.645v2.252l.318.055v.246Z"/><path class="cls-5" d="M476.2,75.767v-.246l.246-.043.881-1.154-.816-1.11-.248-.043v-.248h.922v.248l-.268.026.629.877.6-.877-.274-.026v-.248h.928v.248l-.26.043-.771,1.11.855,1.154.252.043v.246h-.933v-.246l.275-.025-.674-.924-.672.924.26.025v.246Z"/><path class="cls-5" d="M474.013,82.872a1.012,1.012,0,0,1-.431-.088.665.665,0,0,1-.3-.261.756.756,0,0,1-.1-.428l0-.012h.347a.453.453,0,0,0,.479.488.454.454,0,0,0,.379-.172.746.746,0,0,0,.134-.47.719.719,0,0,0-.135-.45.449.449,0,0,0-.376-.175.6.6,0,0,0-.329.068.385.385,0,0,0-.15.209l-.32-.033.164-1.561h1.5v.563h-.289l-.037-.221h-.85l-.092.8a.713.713,0,0,1,.127-.079.779.779,0,0,1,.15-.056.735.735,0,0,1,.176-.023.846.846,0,0,1,.452.114.763.763,0,0,1,.291.332,1.194,1.194,0,0,1,.1.509,1.141,1.141,0,0,1-.1.5.77.77,0,0,1-.3.331A.955.955,0,0,1,474.013,82.872Z"/><path class="cls-5" d="M476.73,82.831l-.953-2.564-.226-.032v-.248h.9v.248l-.26.041.637,1.809.067.225h.011l.071-.225.66-1.811-.289-.039v-.248h.9v.248l-.228.032-.953,2.564Z"/><g id="jst-xh-4pin"><polygon id="polygon19706-3-6-8-2-3-4-3-12" class="cls-8" points="488.325 62.427 479.821 62.427 479.821 58.805 488.325 58.805 488.325 62.427"/><polygon id="polygon19706-3-6-8-2-3-4-3-13" class="cls-8" points="488.325 69.511 479.821 69.511 479.821 65.889 488.325 65.889 488.325 69.511"/><polygon id="polygon19706-3-6-8-2-3-4-3-14" class="cls-8" points="488.325 76.594 479.821 76.594 479.821 72.972 488.325 72.972 488.325 76.594"/><polygon id="polygon19706-3-6-8-2-3-4-3-15" class="cls-8" points="488.325 83.677 479.821 83.677 479.821 80.055 488.325 80.055 488.325 83.677"/><path id="path19730-0-0-6-5-4-7-3" class="cls-9" d="M488.326,54.509h-3.571V49.751h3.571Z"/><path id="path19736-6-8-2-9-9-1-3" class="cls-9" d="M488.326,92.68h-3.571V87.921h3.571Z"/><rect id="rect19748-4-6-0-9-5-2-3" class="cls-10" x="487.928" y="87.921" width="0.397" height="4.759"/><rect id="rect19750-9-59-4-6-5-8-3" class="cls-10" x="487.928" y="49.75" width="0.397" height="4.759"/><rect id="rect19716-5-7-8-3-4-5-3" class="cls-11" x="488.326" y="49.822" width="22.11" height="42.858"/><polygon id="polygon19742-1-8-7-6-3-9-3" class="cls-12" points="488.326 58.853 488.326 49.82 510.322 49.82 510.322 92.68 488.326 92.68 488.326 84.107 505.922 84.107 505.922 78.75 488.326 78.75 488.326 64.21 505.922 64.21 505.922 58.853 488.326 58.853"/></g><rect class="cls-13" x="298.327" y="27.247" width="45.504" height="52.083" rx="4.163"/><g id="ribbon-cable-16pin"><rect class="cls-14" x="348.706" y="10.475" width="34.535" height="49.606"/><rect class="cls-15" x="348.706" y="10.475" width="34.535" height="49.606"/><path id="rect91155-4-89-4" class="cls-16" d="M348.706,57.5v1.4H383.24V57.5Z"/><path id="rect91155-4-89-4-2" class="cls-16" d="M348.706,53.969v1.4H383.24v-1.4Z"/><path id="rect91155-4-89-4-3" class="cls-16" d="M348.706,50.444v1.4H383.24v-1.4Z"/><path id="rect91155-4-89-4-4" class="cls-16" d="M348.706,46.918v1.4H383.24v-1.4Z"/><path id="rect91155-4-89-4-5" class="cls-16" d="M348.706,43.392v1.4H383.24v-1.4Z"/><path id="rect91155-4-89-4-6" class="cls-16" d="M348.706,39.866v1.4H383.24v-1.4Z"/><path id="rect91155-4-89-4-7" class="cls-16" d="M348.706,36.341v1.4H383.24v-1.4Z"/><path id="rect91155-4-89-4-8" class="cls-16" d="M348.706,32.815v1.4H383.24v-1.4Z"/><path id="rect91155-4-89-4-9" class="cls-16" d="M348.706,29.289v1.4H383.24v-1.4Z"/><path id="rect91155-4-89-4-10" class="cls-16" d="M348.706,25.763v1.4H383.24v-1.4Z"/><path id="rect91155-4-89-4-11" class="cls-16" d="M348.706,22.237v1.4H383.24v-1.4Z"/><path id="rect91155-4-89-4-12" class="cls-16" d="M348.706,18.712v1.4H383.24v-1.4Z"/><path id="rect91155-4-89-4-13" class="cls-16" d="M348.706,15.186v1.4H383.24v-1.4Z"/><path id="rect91155-4-89-4-16" class="cls-16" d="M348.706,11.66v1.4H383.24v-1.4Z"/></g><g id="con-16pin-2"><rect id="rect27317-3-8-2-2" class="cls-17" x="380.81" y="4.162" width="5.627" height="62.23"/><rect class="cls-8" x="386.437" y="6.016" width="10.159" height="58.522"/><rect class="cls-18" x="398.865" y="29.278" width="2.05" height="1.42"/><line class="cls-19" x1="400.285" y1="29.988" x2="396.595" y2="29.988"/><rect class="cls-18" x="398.865" y="11.65" width="2.05" height="1.42"/><line class="cls-19" x1="400.285" y1="12.36" x2="396.595" y2="12.36"/><rect class="cls-18" x="398.865" y="15.175" width="2.05" height="1.42"/><line class="cls-19" x1="400.285" y1="15.885" x2="396.595" y2="15.885"/><rect class="cls-18" x="398.865" y="18.701" width="2.05" height="1.42"/><line class="cls-19" x1="400.285" y1="19.411" x2="396.595" y2="19.411"/><rect class="cls-18" x="398.865" y="22.227" width="2.05" height="1.42"/><line class="cls-19" x1="400.285" y1="22.937" x2="396.595" y2="22.937"/><rect class="cls-18" x="398.865" y="25.753" width="2.05" height="1.42"/><line class="cls-19" x1="400.285" y1="26.463" x2="396.595" y2="26.463"/><rect class="cls-18" x="398.865" y="32.804" width="2.05" height="1.42"/><line class="cls-19" x1="400.285" y1="33.514" x2="396.595" y2="33.514"/><rect class="cls-18" x="398.865" y="36.33" width="2.05" height="1.42"/><line class="cls-19" x1="400.285" y1="37.04" x2="396.595" y2="37.04"/><rect class="cls-18" x="398.865" y="39.856" width="2.05" height="1.42"/><line class="cls-19" x1="400.285" y1="40.566" x2="396.595" y2="40.566"/><rect class="cls-18" x="398.865" y="43.381" width="2.05" height="1.42"/><line class="cls-19" x1="400.285" y1="44.091" x2="396.595" y2="44.091"/><rect class="cls-18" x="398.865" y="46.907" width="2.05" height="1.42"/><line class="cls-19" x1="400.285" y1="47.617" x2="396.595" y2="47.617"/><rect class="cls-18" x="398.865" y="50.433" width="2.05" height="1.42"/><line class="cls-19" x1="400.285" y1="51.143" x2="396.595" y2="51.143"/><rect class="cls-18" x="398.865" y="53.959" width="2.05" height="1.42"/><line class="cls-19" x1="400.285" y1="54.669" x2="396.595" y2="54.669"/><rect class="cls-18" x="398.865" y="57.485" width="2.05" height="1.42"/><line class="cls-19" x1="400.285" y1="58.195" x2="396.595" y2="58.195"/></g><g id="T-SOT23-6"><path id="path3487-1-2-2-2-2" class="cls-20" d="M339.651,69.258v-1.62h-2.56v1.62Z"/><path id="path3487-1-2-3" class="cls-20" d="M339.651,63.732v-1.62h-2.56v1.62Z"/><path id="path3487-1-2-3-2-2" class="cls-20" d="M339.651,66.542v-1.62h-2.56v1.62Z"/><path id="path3487-1-2-2-2-2-2" class="cls-20" d="M331.229,62.112v1.62h2.56v-1.62Z"/><path id="path3487-1-2-2-2-3" class="cls-20" d="M331.229,64.922v1.62h2.56v-1.62Z"/><path id="path3487-1-2-2-2-4" class="cls-20" d="M331.229,67.642v1.62h2.56v-1.62Z"/><path id="path3477-9-2-2-2" class="cls-21" d="M333.7,69.941V61.523h3.48v8.418Z"/></g><g id="R-0805"><rect id="rect21332-8-1-9-3-8-2-40-6-2-0-6-6-0-5-6-4-8-7-2-0-7-2-3-9-16-6" class="cls-22" x="302.722" y="47.978" width="3.4" height="2.9"/><rect id="rect21332-8-1-9-3-8-2-40-6-2-0-6-6-0-5-6-4-8-7-2-0-7-2-3-10-16-6" class="cls-22" x="302.722" y="42.958" width="3.4" height="2.9"/><path class="cls-23" d="M302.722,49.338V44.5a.42.42,0,0,1,.42-.42h2.55a.41.41,0,0,1,.43.387h0v4.841a.41.41,0,0,1-.41.409h-2.56a.428.428,0,0,1-.43-.409h0Z"/><g id="path26345-3-6-9-3-6-4-2-5-6-8-7-9-0-90-3-1-3-9-2-2-8-5-0-2-3-5-16-6"><rect class="cls-24" x="302.722" y="44.798" width="3.4" height="4.25"/></g><path id="path26341-4-2-6-0-8-1-1-1-5-0-3-3-1-8-3-8-7-7-7-2-4-9-7-2-3-5-16-6" class="cls-25" d="M306.121,48.328V45.5h-3.4v2.83Z"/></g><g id="транзистор"><rect class="cls-26" x="331.495" y="31.949" width="2.813" height="6.573"/><rect class="cls-8" x="334.308" y="34.716" width="2.264" height="1.234"/><rect class="cls-8" x="328.797" y="32.56" width="2.697" height="1.291"/><rect class="cls-8" x="328.797" y="36.775" width="2.697" height="1.291"/></g><g id="транзистор-2" data-name="транзистор"><rect class="cls-26" x="303.639" y="54.957" width="1.698" height="3.969"/><rect class="cls-8" x="302.272" y="56.628" width="1.367" height="0.745"/><rect class="cls-8" x="305.337" y="55.326" width="1.629" height="0.78"/><rect class="cls-8" x="305.337" y="57.871" width="1.629" height="0.78"/></g><g id="конденсатор"><rect class="cls-27" x="331.656" y="57.701" width="1.308" height="1.055"/><rect class="cls-27" x="331.642" y="56.234" width="1.308" height="1.055"/><rect class="cls-28" x="331.75" y="56.693" width="1.105" height="1.586"/></g><g id="конденсатор-2" data-name="конденсатор"><rect class="cls-27" x="338.657" y="57.701" width="1.308" height="1.055"/><rect class="cls-27" x="338.642" y="56.234" width="1.308" height="1.055"/><rect class="cls-28" x="338.751" y="56.693" width="1.105" height="1.586"/></g><g id="конденсатор-3" data-name="конденсатор"><rect class="cls-27" x="331.656" y="74.702" width="1.308" height="1.055"/><rect class="cls-27" x="331.642" y="73.235" width="1.308" height="1.055"/><rect class="cls-28" x="331.75" y="73.694" width="1.105" height="1.586"/></g><g id="конденсатор-4" data-name="конденсатор"><rect class="cls-27" x="338.657" y="74.702" width="1.308" height="1.055"/><rect class="cls-27" x="338.642" y="73.235" width="1.308" height="1.055"/><rect class="cls-28" x="338.751" y="73.694" width="1.105" height="1.586"/></g><g id="конденсатор-5" data-name="конденсатор"><rect class="cls-27" x="338.657" y="49.434" width="1.308" height="1.055"/><rect class="cls-27" x="338.642" y="47.967" width="1.308" height="1.055"/><rect class="cls-28" x="338.751" y="48.426" width="1.105" height="1.586"/></g><g id="конденсатор-6" data-name="конденсатор"><rect class="cls-27" x="305.777" y="35.441" width="1.308" height="1.055"/><rect class="cls-27" x="305.762" y="33.974" width="1.308" height="1.055"/><rect class="cls-28" x="305.871" y="34.433" width="1.105" height="1.586"/></g><g id="конденсатор-7" data-name="конденсатор"><rect class="cls-27" x="304.824" y="39.574" width="1.055" height="1.308"/><rect class="cls-27" x="303.358" y="39.589" width="1.055" height="1.308"/><rect class="cls-28" x="303.817" y="39.683" width="1.586" height="1.105"/></g><g id="конденсатор-8" data-name="конденсатор"><rect class="cls-27" x="304.824" y="67.576" width="1.055" height="1.308"/><rect class="cls-27" x="303.358" y="67.59" width="1.055" height="1.308"/><rect class="cls-28" x="303.817" y="67.684" width="1.586" height="1.105"/></g><g id="конденсатор-9" data-name="конденсатор"><rect class="cls-27" x="304.824" y="70.576" width="1.055" height="1.308"/><rect class="cls-27" x="303.358" y="70.591" width="1.055" height="1.308"/><rect class="cls-28" x="303.817" y="70.685" width="1.586" height="1.105"/></g><g id="конденсатор-10" data-name="конденсатор"><rect class="cls-27" x="305.762" y="73.977" width="1.308" height="1.055"/><rect class="cls-27" x="305.777" y="75.443" width="1.308" height="1.055"/><rect class="cls-28" x="305.871" y="74.454" width="1.105" height="1.586"/></g><g id="чип"><rect class="cls-18" x="322.593" y="67.232" width="1.312" height="0.943"/><line class="cls-29" x1="323.807" y1="67.72" x2="322.487" y2="67.72"/><rect class="cls-18" x="322.593" y="68.306" width="1.341" height="0.943"/><line class="cls-29" x1="323.807" y1="68.792" x2="322.487" y2="68.792"/><rect class="cls-18" x="322.593" y="66.16" width="1.312" height="0.943"/><line class="cls-29" x1="323.807" y1="66.648" x2="322.487" y2="66.648"/><line class="cls-29" x1="323.807" y1="67.72" x2="322.487" y2="67.72"/><line class="cls-29" x1="323.807" y1="66.648" x2="322.487" y2="66.648"/><rect class="cls-18" x="322.593" y="64.016" width="1.312" height="0.943"/><line class="cls-29" x1="323.807" y1="64.504" x2="322.487" y2="64.504"/><rect class="cls-18" x="322.593" y="65.088" width="1.312" height="0.943"/><line class="cls-29" x1="323.807" y1="65.576" x2="322.487" y2="65.576"/><rect class="cls-18" x="322.594" y="71.52" width="1.312" height="0.943"/><line class="cls-29" x1="323.803" y1="72.005" x2="322.483" y2="72.005"/><rect class="cls-18" x="322.594" y="70.448" width="1.312" height="0.943"/><line class="cls-29" x1="323.807" y1="70.936" x2="322.483" y2="70.933"/><line class="cls-29" x1="323.803" y1="72.005" x2="322.483" y2="72.005"/><line class="cls-29" x1="323.807" y1="70.936" x2="322.483" y2="70.933"/><rect class="cls-18" x="322.594" y="69.376" width="1.312" height="0.943"/><line class="cls-29" x1="323.807" y1="69.864" x2="322.487" y2="69.864"/><rect class="cls-18" x="311.877" y="68.306" width="1.303" height="0.943"/><line class="cls-29" x1="311.964" y1="68.762" x2="313.284" y2="68.762"/><rect class="cls-18" x="311.877" y="67.234" width="1.303" height="0.943"/><line class="cls-29" x1="311.964" y1="67.69" x2="313.284" y2="67.69"/><rect class="cls-18" x="311.877" y="69.378" width="1.303" height="0.943"/><line class="cls-29" x1="311.964" y1="69.834" x2="313.284" y2="69.834"/><line class="cls-29" x1="311.964" y1="68.762" x2="313.284" y2="68.762"/><line class="cls-29" x1="311.964" y1="69.834" x2="313.284" y2="69.834"/><rect class="cls-18" x="311.877" y="71.522" width="1.303" height="0.943"/><line class="cls-29" x1="311.967" y1="71.975" x2="313.287" y2="71.975"/><rect class="cls-18" x="311.877" y="70.45" width="1.303" height="0.943"/><line class="cls-29" x1="311.964" y1="70.906" x2="313.287" y2="70.903"/><rect class="cls-18" x="311.876" y="64.019" width="1.303" height="0.943"/><line class="cls-29" x1="311.967" y1="64.477" x2="313.287" y2="64.477"/><rect class="cls-18" x="311.876" y="65.091" width="1.303" height="0.943"/><line class="cls-29" x1="311.964" y1="65.546" x2="313.287" y2="65.549"/><line class="cls-29" x1="311.967" y1="64.477" x2="313.287" y2="64.477"/><line class="cls-29" x1="311.964" y1="65.546" x2="313.287" y2="65.549"/><rect class="cls-18" x="311.876" y="66.163" width="1.303" height="0.943"/><line class="cls-29" x1="311.964" y1="66.618" x2="313.284" y2="66.618"/><rect class="cls-18" x="316.876" y="62.191" width="0.943" height="1.341"/><line class="cls-29" x1="317.364" y1="62.323" x2="317.364" y2="63.643"/><rect class="cls-18" x="317.948" y="62.191" width="0.943" height="1.341"/><line class="cls-29" x1="318.436" y1="62.323" x2="318.436" y2="63.643"/><rect class="cls-18" x="315.804" y="62.191" width="0.943" height="1.341"/><line class="cls-29" x1="316.295" y1="62.32" x2="316.295" y2="63.639"/><line class="cls-29" x1="317.364" y1="62.323" x2="317.364" y2="63.643"/><line class="cls-29" x1="316.295" y1="62.32" x2="316.295" y2="63.639"/><rect class="cls-18" x="313.665" y="62.192" width="0.943" height="1.341"/><line class="cls-29" x1="314.151" y1="62.32" x2="314.151" y2="63.639"/><rect class="cls-18" x="314.732" y="62.191" width="0.943" height="1.341"/><line class="cls-29" x1="315.223" y1="62.32" x2="315.223" y2="63.639"/><rect class="cls-18" x="321.164" y="62.19" width="0.943" height="1.341"/><line class="cls-29" x1="321.649" y1="62.32" x2="321.649" y2="63.639"/><rect class="cls-18" x="320.092" y="62.19" width="0.943" height="1.341"/><line class="cls-29" x1="320.577" y1="62.32" x2="320.577" y2="63.639"/><line class="cls-29" x1="321.649" y1="62.32" x2="321.649" y2="63.639"/><line class="cls-29" x1="320.577" y1="62.32" x2="320.577" y2="63.639"/><rect class="cls-18" x="319.02" y="62.19" width="0.943" height="1.341"/><line class="cls-29" x1="319.505" y1="62.32" x2="319.508" y2="63.643"/><rect class="cls-18" x="317.986" y="72.947" width="0.943" height="1.322"/><line class="cls-29" x1="318.446" y1="74.159" x2="318.446" y2="72.839"/><rect class="cls-18" x="316.919" y="72.947" width="0.943" height="1.322"/><line class="cls-29" x1="317.374" y1="74.159" x2="317.374" y2="72.839"/><rect class="cls-18" x="319.058" y="72.947" width="0.943" height="1.322"/><line class="cls-29" x1="319.518" y1="74.159" x2="319.518" y2="72.839"/><line class="cls-29" x1="318.446" y1="74.159" x2="318.446" y2="72.839"/><line class="cls-29" x1="319.518" y1="74.159" x2="319.518" y2="72.839"/><rect class="cls-18" x="321.202" y="72.946" width="0.943" height="1.322"/><line class="cls-29" x1="321.662" y1="74.159" x2="321.662" y2="72.839"/><rect class="cls-18" x="320.13" y="72.947" width="0.943" height="1.322"/><line class="cls-29" x1="320.59" y1="74.159" x2="320.59" y2="72.839"/><rect class="cls-18" x="313.703" y="72.948" width="0.943" height="1.322"/><line class="cls-29" x1="314.158" y1="74.159" x2="314.158" y2="72.839"/><rect class="cls-18" x="314.775" y="72.948" width="0.943" height="1.322"/><line class="cls-29" x1="315.23" y1="74.159" x2="315.23" y2="72.839"/><line class="cls-29" x1="314.158" y1="74.159" x2="314.158" y2="72.839"/><line class="cls-29" x1="315.23" y1="74.159" x2="315.23" y2="72.839"/><rect class="cls-18" x="315.847" y="72.948" width="0.943" height="1.322"/><line class="cls-29" x1="316.302" y1="74.159" x2="316.302" y2="72.839"/><path class="cls-30" d="M321.689,72.839h-7.605a.8.8,0,0,1-.8-.8V64.437a.8.8,0,0,1,.8-.8h7.605a.8.8,0,0,1,.8.8v7.605A.8.8,0,0,1,321.689,72.839Z"/></g><rect class="cls-21" x="309.564" y="35.871" width="13.94" height="10.81"/><rect class="cls-20" x="310.284" y="46.671" width="1.77" height="5.07"/><rect class="cls-20" x="313.924" y="46.671" width="1.76" height="5.07"/><rect class="cls-20" x="317.564" y="46.671" width="1.76" height="5.07"/><rect class="cls-20" x="321.164" y="46.671" width="1.76" height="5.07"/><rect class="cls-20" x="321.164" y="30.791" width="1.76" height="5.07"/><rect class="cls-20" x="317.524" y="30.791" width="1.77" height="5.07"/><rect class="cls-20" x="313.884" y="30.791" width="1.77" height="5.07"/><rect class="cls-20" x="310.244" y="30.791" width="1.76" height="5.07"/><g id="_102" data-name="102"><rect class="cls-31" x="318.558" y="56.582" width="1.612" height="1.996"/><rect class="cls-31" x="321.9" y="56.563" width="1.612" height="1.996"/><rect class="cls-26" x="319.839" y="56.727" width="2.42" height="1.692"/><path class="cls-32" d="M320.628,57.784h-.3v-.055h.114v-.368h-.114v-.049a.457.457,0,0,0,.05,0,.147.147,0,0,0,.04-.012.083.083,0,0,0,.026-.023.069.069,0,0,0,.012-.038h.057v.494h.111Z"/><path class="cls-32" d="M321.062,57.51a.4.4,0,0,1-.046.217.161.161,0,0,1-.143.068.159.159,0,0,1-.144-.069.4.4,0,0,1-.045-.215.409.409,0,0,1,.045-.216.184.184,0,0,1,.288,0A.408.408,0,0,1,321.062,57.51Zm-.1.167a.267.267,0,0,0,.016-.07.686.686,0,0,0,0-.1.694.694,0,0,0,0-.1.225.225,0,0,0-.017-.07.105.105,0,0,0-.035-.042.1.1,0,0,0-.057-.015.106.106,0,0,0-.058.015.112.112,0,0,0-.036.043.241.241,0,0,0-.016.071.93.93,0,0,0,0,.1c0,.038,0,.07,0,.1a.268.268,0,0,0,.017.069.1.1,0,0,0,.034.044.125.125,0,0,0,.117,0A.1.1,0,0,0,320.966,57.677Z"/><path class="cls-32" d="M321.466,57.51a.4.4,0,0,1-.047.217.185.185,0,0,1-.287,0,.533.533,0,0,1,0-.431.183.183,0,0,1,.287,0A.407.407,0,0,1,321.466,57.51Zm-.1.167a.266.266,0,0,0,.017-.07.686.686,0,0,0,0-.1.694.694,0,0,0,0-.1.224.224,0,0,0-.018-.07.093.093,0,0,0-.092-.057.1.1,0,0,0-.057.015.1.1,0,0,0-.036.043.238.238,0,0,0-.017.071.93.93,0,0,0,0,.1c0,.038,0,.07,0,.1a.232.232,0,0,0,.018.069.089.089,0,0,0,.034.044.1.1,0,0,0,.059.015.109.109,0,0,0,.057-.014A.094.094,0,0,0,321.369,57.677Z"/><path class="cls-32" d="M321.869,57.784H321.5v-.076l.078-.067q.039-.033.072-.066a.664.664,0,0,0,.1-.108.161.161,0,0,0,.026-.087.083.083,0,0,0-.028-.067.118.118,0,0,0-.079-.024.246.246,0,0,0-.072.012.278.278,0,0,0-.076.036h0V57.26a.313.313,0,0,1,.07-.024.352.352,0,0,1,.084-.011.2.2,0,0,1,.132.041.137.137,0,0,1,.048.11.221.221,0,0,1-.008.059.2.2,0,0,1-.024.051.266.266,0,0,1-.033.044.513.513,0,0,1-.047.05c-.026.025-.053.05-.082.074s-.053.047-.078.067h.3Z"/></g><g id="_102-2" data-name="102"><rect class="cls-31" x="302.141" y="59.945" width="1.612" height="1.996"/><rect class="cls-31" x="305.484" y="59.926" width="1.612" height="1.996"/><rect class="cls-26" x="303.423" y="60.09" width="2.42" height="1.692"/><path class="cls-32" d="M304.212,61.147h-.3v-.056h.114v-.367h-.114v-.05a.3.3,0,0,0,.05,0,.114.114,0,0,0,.04-.011.077.077,0,0,0,.027-.023.081.081,0,0,0,.011-.038h.057v.493h.112Z"/><path class="cls-32" d="M304.646,60.873a.4.4,0,0,1-.046.216.163.163,0,0,1-.144.069.16.16,0,0,1-.144-.07.4.4,0,0,1-.045-.214.407.407,0,0,1,.045-.216.165.165,0,0,1,.144-.07.162.162,0,0,1,.145.071A.408.408,0,0,1,304.646,60.873Zm-.1.167a.232.232,0,0,0,.017-.07.877.877,0,0,0,.005-.1.891.891,0,0,0-.005-.1.225.225,0,0,0-.017-.07.105.105,0,0,0-.035-.042.1.1,0,0,0-.058-.015.1.1,0,0,0-.057.015.1.1,0,0,0-.036.043.238.238,0,0,0-.017.071.946.946,0,0,0,0,.1.873.873,0,0,0,0,.1.233.233,0,0,0,.017.069.1.1,0,0,0,.034.044.105.105,0,0,0,.059.015.106.106,0,0,0,.058-.015A.085.085,0,0,0,304.549,61.04Z"/><path class="cls-32" d="M305.049,60.873a.4.4,0,0,1-.046.216.161.161,0,0,1-.144.069.157.157,0,0,1-.143-.07.4.4,0,0,1-.046-.214.406.406,0,0,1,.046-.216.182.182,0,0,1,.288,0A.408.408,0,0,1,305.049,60.873Zm-.1.167a.231.231,0,0,0,.018-.07.877.877,0,0,0,0-.1.891.891,0,0,0,0-.1.224.224,0,0,0-.018-.07.1.1,0,0,0-.035-.042.1.1,0,0,0-.058-.015.1.1,0,0,0-.056.015.086.086,0,0,0-.036.043.236.236,0,0,0-.018.071.946.946,0,0,0,0,.1.873.873,0,0,0,0,.1.232.232,0,0,0,.018.069.089.089,0,0,0,.034.044.1.1,0,0,0,.058.015.1.1,0,0,0,.058-.015A.08.08,0,0,0,304.952,61.04Z"/><path class="cls-32" d="M305.452,61.147h-.37V61.07l.077-.066a.941.941,0,0,0,.072-.066.709.709,0,0,0,.1-.108.155.155,0,0,0,.026-.087.082.082,0,0,0-.028-.067.116.116,0,0,0-.078-.024.252.252,0,0,0-.073.012.259.259,0,0,0-.075.036h0v-.077a.3.3,0,0,1,.069-.024.367.367,0,0,1,.085-.011.2.2,0,0,1,.132.041.139.139,0,0,1,.048.11.214.214,0,0,1-.008.058.271.271,0,0,1-.024.052.326.326,0,0,1-.034.044.514.514,0,0,1-.047.049c-.026.026-.052.051-.081.075l-.078.067h.294Z"/></g><g id="_102-3" data-name="102"><rect class="cls-31" x="302.368" y="35.975" width="1.996" height="1.612"/><rect class="cls-31" x="302.349" y="32.632" width="1.996" height="1.612"/><rect class="cls-26" x="302.514" y="33.885" width="1.692" height="2.42"/><path class="cls-32" d="M303.57,35.516v.3h-.055V35.7h-.368v.114H303.1a.285.285,0,0,0,0-.049.107.107,0,0,0-.011-.04.105.105,0,0,0-.023-.027.075.075,0,0,0-.039-.011v-.057h.494v-.112Z"/><path class="cls-32" d="M303.3,35.082a.4.4,0,0,1,.216.046.184.184,0,0,1,0,.288.531.531,0,0,1-.43,0,.182.182,0,0,1,0-.288A.4.4,0,0,1,303.3,35.082Zm.167.1a.248.248,0,0,0-.07-.017.7.7,0,0,0-.1-.005.718.718,0,0,0-.1.005.211.211,0,0,0-.069.017.109.109,0,0,0-.043.035.1.1,0,0,0-.015.057.094.094,0,0,0,.059.094.256.256,0,0,0,.07.017.967.967,0,0,0,.1,0,.885.885,0,0,0,.1,0,.249.249,0,0,0,.069-.017.105.105,0,0,0,.043-.034.1.1,0,0,0,.015-.06.1.1,0,0,0-.014-.057A.094.094,0,0,0,303.464,35.179Z"/><path class="cls-32" d="M303.3,34.679a.394.394,0,0,1,.216.046.161.161,0,0,1,.069.143.158.158,0,0,1-.07.144.525.525,0,0,1-.43,0,.182.182,0,0,1,0-.288A.4.4,0,0,1,303.3,34.679Zm.167.1a.287.287,0,0,0-.07-.017.905.905,0,0,0-.1-.005.925.925,0,0,0-.1.005.21.21,0,0,0-.069.018.1.1,0,0,0,0,.185.221.221,0,0,0,.07.018c.029,0,.062,0,.1,0s.069,0,.1,0a.25.25,0,0,0,.069-.018.091.091,0,0,0,.043-.034.094.094,0,0,0,.015-.059.1.1,0,0,0-.014-.057A.1.1,0,0,0,303.464,34.775Z"/><path class="cls-32" d="M303.57,34.275v.371h-.076c-.022-.026-.045-.052-.066-.078s-.044-.049-.067-.072a.717.717,0,0,0-.108-.1.157.157,0,0,0-.087-.025.082.082,0,0,0-.066.027.114.114,0,0,0-.025.079.258.258,0,0,0,.012.073.287.287,0,0,0,.036.075v0h-.077a.3.3,0,0,1-.024-.07.409.409,0,0,1-.01-.084.193.193,0,0,1,.041-.132.133.133,0,0,1,.109-.048.191.191,0,0,1,.11.032.337.337,0,0,1,.044.033c.016.013.032.029.05.047s.05.053.074.082l.068.078v-.3Z"/></g><g id="_102-4" data-name="102"><rect class="cls-31" x="302.141" y="62.945" width="1.612" height="1.996"/><rect class="cls-31" x="305.484" y="62.926" width="1.612" height="1.996"/><rect class="cls-26" x="303.423" y="63.091" width="2.42" height="1.692"/><path class="cls-32" d="M304.212,64.147h-.3v-.055h.114v-.367h-.114v-.05a.457.457,0,0,0,.05,0,.14.14,0,0,0,.04-.011.079.079,0,0,0,.027-.024.078.078,0,0,0,.011-.038h.057v.494h.112Z"/><path class="cls-32" d="M304.646,63.874a.4.4,0,0,1-.046.216.163.163,0,0,1-.144.069.16.16,0,0,1-.144-.07.536.536,0,0,1,0-.43.183.183,0,0,1,.289,0A.4.4,0,0,1,304.646,63.874Zm-.1.167a.239.239,0,0,0,.017-.071.872.872,0,0,0,.005-.1.911.911,0,0,0-.005-.1.218.218,0,0,0-.017-.069.1.1,0,0,0-.035-.043.1.1,0,0,0-.058-.015.1.1,0,0,0-.057.015.1.1,0,0,0-.036.044.231.231,0,0,0-.017.07.967.967,0,0,0,0,.1.854.854,0,0,0,0,.095.248.248,0,0,0,.017.07.1.1,0,0,0,.034.043.105.105,0,0,0,.059.015.116.116,0,0,0,.058-.014A.094.094,0,0,0,304.549,64.041Z"/><path class="cls-32" d="M305.049,63.874a.4.4,0,0,1-.046.216.161.161,0,0,1-.144.069.157.157,0,0,1-.143-.07.525.525,0,0,1,0-.43.182.182,0,0,1,.288,0A.4.4,0,0,1,305.049,63.874Zm-.1.167a.238.238,0,0,0,.018-.071.872.872,0,0,0,0-.1.911.911,0,0,0,0-.1.217.217,0,0,0-.018-.069.1.1,0,0,0-.035-.043.1.1,0,0,0-.058-.015.1.1,0,0,0-.056.015.084.084,0,0,0-.036.044.229.229,0,0,0-.018.07.967.967,0,0,0,0,.1.854.854,0,0,0,0,.095.248.248,0,0,0,.018.07.087.087,0,0,0,.034.043.1.1,0,0,0,.058.015.113.113,0,0,0,.058-.014A.088.088,0,0,0,304.952,64.041Z"/><path class="cls-32" d="M305.452,64.147h-.37v-.076c.025-.023.052-.045.077-.067a.941.941,0,0,0,.072-.066.664.664,0,0,0,.1-.108.153.153,0,0,0,.026-.087.083.083,0,0,0-.028-.067.116.116,0,0,0-.078-.024.252.252,0,0,0-.073.012.287.287,0,0,0-.075.036h0v-.077a.3.3,0,0,1,.069-.024.367.367,0,0,1,.085-.011.2.2,0,0,1,.132.041.14.14,0,0,1,.048.11.221.221,0,0,1-.008.059.263.263,0,0,1-.024.051.332.332,0,0,1-.034.045.514.514,0,0,1-.047.049c-.026.025-.052.05-.081.075s-.053.046-.078.066h.294Z"/></g><g id="_102-5" data-name="102"><rect class="cls-31" x="302.174" y="75.978" width="1.996" height="1.612"/><rect class="cls-31" x="302.155" y="72.635" width="1.996" height="1.612"/><rect class="cls-26" x="302.32" y="73.888" width="1.692" height="2.42"/><path class="cls-32" d="M303.377,75.52v.3h-.057V75.7h-.367v.114H302.9a.44.44,0,0,0,0-.049.131.131,0,0,0-.011-.04.07.07,0,0,0-.024-.027.069.069,0,0,0-.038-.012v-.056h.493V75.52Z"/><path class="cls-32" d="M303.1,75.086a.4.4,0,0,1,.215.046.182.182,0,0,1,0,.287.4.4,0,0,1-.214.046.4.4,0,0,1-.216-.046.182.182,0,0,1,0-.288A.406.406,0,0,1,303.1,75.086Zm.167.1a.206.206,0,0,0-.071-.017.671.671,0,0,0-.1,0,.686.686,0,0,0-.1,0,.2.2,0,0,0-.07.017.1.1,0,0,0-.043.035.1.1,0,0,0-.014.057.106.106,0,0,0,.014.058.1.1,0,0,0,.044.036.274.274,0,0,0,.071.017.934.934,0,0,0,.1,0,.842.842,0,0,0,.1,0,.287.287,0,0,0,.07-.017.094.094,0,0,0,.043-.035.12.12,0,0,0,0-.116A.087.087,0,0,0,303.27,75.183Z"/><path class="cls-32" d="M303.1,74.683a.388.388,0,0,1,.215.046.182.182,0,0,1,0,.287.525.525,0,0,1-.43,0,.162.162,0,0,1-.07-.144.16.16,0,0,1,.071-.144A.406.406,0,0,1,303.1,74.683Zm.167.1a.264.264,0,0,0-.071-.017.858.858,0,0,0-.1,0,.877.877,0,0,0-.1,0,.224.224,0,0,0-.07.018.1.1,0,0,0-.043.035.123.123,0,0,0,0,.114.1.1,0,0,0,.044.036.211.211,0,0,0,.071.017.915.915,0,0,0,.1,0c.038,0,.07,0,.1,0a.248.248,0,0,0,.07-.018.087.087,0,0,0,.043-.034.1.1,0,0,0,.015-.059.1.1,0,0,0-.015-.057A.088.088,0,0,0,303.27,74.779Z"/><path class="cls-32" d="M303.377,74.279v.371H303.3l-.067-.078c-.022-.026-.044-.05-.065-.072a.764.764,0,0,0-.109-.1.16.16,0,0,0-.086-.026.087.087,0,0,0-.068.028.118.118,0,0,0-.024.079.258.258,0,0,0,.012.073.238.238,0,0,0,.037.075v0h-.078a.427.427,0,0,1-.024-.07.352.352,0,0,1-.011-.084.2.2,0,0,1,.041-.132.138.138,0,0,1,.111-.048.22.22,0,0,1,.058.008.2.2,0,0,1,.051.023.443.443,0,0,1,.045.034c.015.013.031.029.049.047s.051.053.074.082.047.053.067.078v-.3Z"/></g><g id="_102-6" data-name="102"><rect class="cls-31" x="330.675" y="42.815" width="1.308" height="1.619"/><rect class="cls-31" x="333.387" y="42.8" width="1.308" height="1.619"/><rect class="cls-26" x="331.715" y="42.933" width="1.963" height="5.769"/></g><g id="_102-7" data-name="102"><rect class="cls-31" x="330.675" y="44.658" width="1.308" height="1.619"/><rect class="cls-31" x="333.387" y="44.642" width="1.308" height="1.619"/></g><g id="_102-8" data-name="102"><rect class="cls-31" x="330.675" y="46.5" width="1.308" height="1.619"/><rect class="cls-31" x="333.387" y="46.485" width="1.308" height="1.619"/></g><g id="_102-9" data-name="102"><rect class="cls-31" x="330.675" y="48.343" width="1.308" height="1.619"/><rect class="cls-31" x="333.387" y="48.327" width="1.308" height="1.619"/><rect class="cls-26" x="331.715" y="44.043" width="1.963" height="5.789"/></g><g id="D-SMA"><path id="path32590-0-9-7-9-9" class="cls-26" d="M468.534,62.976h-9.568V78.212h9.568Z"/><path id="path32578-9-7-2-9-4" class="cls-8" d="M466.393,78.212H461.1v2.375h5.31Z"/><path id="path32578-9-7-2-9-4-2" class="cls-8" d="M466.393,60.535H461.1V62.91h5.31Z"/></g><g id="SOT2223"><path id="path13471-0-1" class="cls-8" d="M381.459,74.43h-10V68.25h10Z"/><path id="path13485-5-7" class="cls-8" d="M371.739,91.86h-3.27v-7.5h3.27Z"/><path id="path13499-3-4" class="cls-8" d="M384.512,91.528h-3.271v-7.5h3.271Z"/><path id="path13513-8-8" class="cls-8" d="M378.119,91.528h-3.25v-7.5h3.26Z"/><path id="path13523-6-9" class="cls-26" d="M385.67,84.259H367.31V74.376h18.36Z"/></g><g id="транзистор-3" data-name="транзистор"><rect class="cls-26" x="405.955" y="81.772" width="3.662" height="8.559"/><rect class="cls-8" x="409.618" y="85.376" width="2.948" height="1.607"/><rect class="cls-8" x="402.443" y="82.568" width="3.512" height="1.681"/><rect class="cls-8" x="402.443" y="88.057" width="3.512" height="1.681"/></g><g id="конденсатор-11" data-name="конденсатор"><rect class="cls-27" x="393.643" y="90.415" width="3.62" height="2.92"/><rect class="cls-27" x="393.603" y="86.355" width="3.62" height="2.92"/><rect class="cls-28" x="393.903" y="87.625" width="3.06" height="4.39"/></g><g id="конденсатор-12" data-name="конденсатор"><rect class="cls-27" x="388.804" y="80.789" width="3.62" height="2.92"/><rect class="cls-27" x="388.764" y="76.729" width="3.62" height="2.92"/></g><g id="конденсатор-13" data-name="конденсатор"><rect class="cls-27" x="381.38" y="102.864" width="2.92" height="3.62"/><rect class="cls-27" x="377.32" y="102.904" width="2.92" height="3.62"/><rect class="cls-28" x="378.59" y="103.164" width="4.39" height="3.06"/></g><g id="_102-10" data-name="102"><rect class="cls-31" x="461.862" y="54.065" width="4.255" height="3.438"/><rect class="cls-31" x="461.821" y="46.937" width="4.255" height="3.438"/><rect class="cls-33" x="462.172" y="49.608" width="3.608" height="5.161"/></g><g id="_102-11" data-name="102"><rect class="cls-31" x="435.772" y="63.781" width="3.438" height="4.255"/><rect class="cls-31" x="442.901" y="63.741" width="3.438" height="4.255"/><rect class="cls-26" x="438.506" y="64.091" width="5.161" height="3.608"/><path class="cls-32" d="M440.1,66.391h-.7V66.26h.268V65.4H439.4V65.28a1.013,1.013,0,0,0,.118-.009.273.273,0,0,0,.093-.027.17.17,0,0,0,.063-.055.174.174,0,0,0,.026-.089h.134v1.16h.263Z"/><path class="cls-32" d="M441.116,65.747a.938.938,0,0,1-.108.509.431.431,0,0,1-.675,0,.946.946,0,0,1-.107-.505.937.937,0,0,1,.108-.507.428.428,0,0,1,.676,0A.952.952,0,0,1,441.116,65.747Zm-.227.393a.586.586,0,0,0,.041-.165,1.889,1.889,0,0,0,.01-.228,1.92,1.92,0,0,0-.01-.228.553.553,0,0,0-.042-.164.238.238,0,0,0-.082-.1.25.25,0,0,0-.135-.033.255.255,0,0,0-.135.033.239.239,0,0,0-.084.1.56.56,0,0,0-.04.167,2.236,2.236,0,0,0-.011.226,2.044,2.044,0,0,0,.01.226.566.566,0,0,0,.04.162.235.235,0,0,0,.081.1.241.241,0,0,0,.139.035.25.25,0,0,0,.135-.033A.224.224,0,0,0,440.889,66.14Z"/><path class="cls-32" d="M442.063,65.747a.938.938,0,0,1-.108.509.431.431,0,0,1-.675,0,.946.946,0,0,1-.107-.505.937.937,0,0,1,.108-.507.428.428,0,0,1,.676,0A.952.952,0,0,1,442.063,65.747Zm-.227.393a.586.586,0,0,0,.041-.165,1.867,1.867,0,0,0,.011-.228,1.9,1.9,0,0,0-.011-.228.553.553,0,0,0-.042-.164.238.238,0,0,0-.082-.1.25.25,0,0,0-.135-.033.257.257,0,0,0-.135.033.239.239,0,0,0-.084.1.56.56,0,0,0-.04.167c-.006.069-.01.144-.01.226s0,.165.009.226a.566.566,0,0,0,.04.162.235.235,0,0,0,.081.1.245.245,0,0,0,.139.035.25.25,0,0,0,.135-.033A.224.224,0,0,0,441.836,66.14Z"/><path class="cls-32" d="M443.014,66.391h-.872V66.21l.182-.155c.061-.052.117-.1.17-.155a1.716,1.716,0,0,0,.228-.255.374.374,0,0,0,.06-.2.193.193,0,0,0-.065-.156.277.277,0,0,0-.185-.057.612.612,0,0,0-.171.027.723.723,0,0,0-.178.085h-.009v-.181a.8.8,0,0,1,.164-.055.776.776,0,0,1,.2-.026.466.466,0,0,1,.311.1.321.321,0,0,1,.112.259.473.473,0,0,1-.019.137.5.5,0,0,1-.054.12.939.939,0,0,1-.079.106c-.031.034-.068.073-.111.115-.061.06-.125.119-.191.175l-.184.158h.693Z"/></g><g id="_102-12" data-name="102"><rect class="cls-31" x="450.852" y="66.045" width="4.255" height="3.438"/><rect class="cls-31" x="450.812" y="58.916" width="4.255" height="3.438"/><rect class="cls-33" x="451.162" y="61.588" width="3.608" height="5.161"/></g><g id="_102-13" data-name="102"><rect class="cls-31" x="450.873" y="80.836" width="4.255" height="3.438"/><rect class="cls-31" x="450.832" y="73.708" width="4.255" height="3.438"/><rect class="cls-33" x="451.183" y="76.379" width="3.608" height="5.161"/></g><g id="_102-14" data-name="102"><rect class="cls-31" x="461.882" y="91.13" width="4.255" height="3.438"/><rect class="cls-31" x="461.842" y="84.001" width="4.255" height="3.438"/><rect class="cls-33" x="462.192" y="86.673" width="3.608" height="5.161"/></g><polyline class="cls-34" points="450.855 131.733 452.845 131.733 452.845 124.113 450.855 124.113"/><polyline class="cls-34" points="408.585 124.113 406.595 124.113 406.595 131.733 408.585 131.733"/><polyline class="cls-34" points="447.815 103.213 450.325 103.213 450.325 100.313 446.785 100.313"/><polyline class="cls-34" points="408.585 103.213 406.075 103.213 406.075 100.313 409.605 100.313"/><rect class="cls-34" x="434.905" y="96.413" width="2.57" height="6.04"/><rect class="cls-34" x="431.735" y="96.413" width="2.57" height="6.04"/><rect class="cls-34" x="428.565" y="96.413" width="2.57" height="6.04"/><rect class="cls-34" x="425.395" y="96.413" width="2.57" height="6.04"/><rect class="cls-34" x="422.225" y="96.413" width="2.57" height="6.04"/><rect class="cls-34" x="419.045" y="96.413" width="2.57" height="6.04"/><rect class="cls-34" x="415.875" y="96.413" width="2.57" height="6.04"/><rect class="cls-34" x="412.705" y="96.413" width="2.57" height="6.04"/><rect class="cls-34" x="409.535" y="96.413" width="2.57" height="6.04"/><path class="cls-35" d="M450.855,141.823v-36.86a.29.29,0,0,0-.29-.29h-2.46a.29.29,0,0,1-.29-.29h0V100.6a.29.29,0,0,0-.29-.29h-38.66a.28.28,0,0,0-.28.28v39.19a.282.282,0,0,0,.226.326.327.327,0,0,0,.054,0h26.15l8,2h7.55a.29.29,0,0,0,.29-.29Z"/><rect class="cls-36" x="408.575" y="104.753" width="3.07" height="11"/><polygon class="cls-37" points="408.585 101.313 411.645 102.203 411.645 104.753 408.585 104.753 408.585 101.313"/><path class="cls-38" d="M408.805,115.863l.78-1.3a2.622,2.622,0,0,0,.21-1.5,1.9,1.9,0,0,0-.09-.33l-.79-2.87a1.961,1.961,0,0,1-.12-.53,2.317,2.317,0,0,1,.45-1.58l.77-1.3"/><polygon class="cls-36" points="450.805 137.033 449.955 137.033 449.955 123.943 444.425 123.943 444.425 127.703 447.015 130.563 447.015 137.033 446.275 137.033 446.275 130.733 443.695 127.813 443.695 123.233 450.805 123.233 450.805 137.033"/><path class="cls-36" d="M433.835,114.953v8.16a.18.18,0,0,1-.17.17h-.49a.18.18,0,0,1-.17-.17v-9a.17.17,0,0,1,.17-.17h4.06a.17.17,0,0,1,.17.17v9a.18.18,0,0,1-.17.17h-.46a.18.18,0,0,1-.17-.17v-8.12a.179.179,0,0,0-.17-.18h-2.43A.18.18,0,0,0,433.835,114.953Z"/><path class="cls-36" d="M413.975,114.953v8.16a.18.18,0,0,1-.17.17h-.49a.18.18,0,0,1-.17-.17v-9a.17.17,0,0,1,.17-.17h4.06a.17.17,0,0,1,.17.17v9a.18.18,0,0,1-.17.17h-.46a.18.18,0,0,1-.17-.17v-8.12a.179.179,0,0,0-.17-.18h-2.43A.18.18,0,0,0,413.975,114.953Z"/><line class="cls-39" x1="450.685" y1="123.003" x2="450.685" y2="141.823"/><g id="конденсатор-14" data-name="конденсатор"><rect class="cls-18" x="379.983" y="94.849" width="2.343" height="5.118"/><rect class="cls-18" x="386.76" y="94.801" width="2.343" height="5.118"/><rect class="cls-33" x="381.473" y="95.222" width="6.2" height="4.337"/></g></g><g id="top"><path class="cls-3" d="M234.62.381H6.325A6.325,6.325,0,0,0,0,6.706V135.788a6.325,6.325,0,0,0,6.325,6.325h228.3a6.325,6.325,0,0,0,6.325-6.325V6.706A6.325,6.325,0,0,0,234.62.381ZM9.071,137.5a4.536,4.536,0,1,1,4.535-4.536A4.536,4.536,0,0,1,9.071,137.5Zm0-123.591a4.536,4.536,0,1,1,4.535-4.535A4.535,4.535,0,0,1,9.071,13.911Zm222.8,123.667a4.536,4.536,0,1,1,4.535-4.536A4.535,4.535,0,0,1,231.874,137.578Zm0-123.591a4.536,4.536,0,1,1,4.535-4.535A4.535,4.535,0,0,1,231.874,13.987Z"/><path class="cls-4" d="M9.071,4.84A4.536,4.536,0,1,1,4.535,9.376,4.535,4.535,0,0,1,9.071,4.84m0-1.417a5.953,5.953,0,1,0,5.953,5.953A5.96,5.96,0,0,0,9.071,3.423Z"/><path class="cls-4" d="M231.874,4.916a4.536,4.536,0,1,1-4.535,4.536,4.535,4.535,0,0,1,4.535-4.536m0-1.417a5.953,5.953,0,1,0,5.953,5.953A5.96,5.96,0,0,0,231.874,3.5Z"/><path class="cls-4" d="M9.071,128.431a4.536,4.536,0,1,1-4.536,4.535,4.535,4.535,0,0,1,4.536-4.535m0-1.417a5.953,5.953,0,1,0,5.953,5.952,5.96,5.96,0,0,0-5.953-5.952Z"/><path class="cls-4" d="M231.874,128.507a4.536,4.536,0,1,1-4.535,4.535,4.535,4.535,0,0,1,4.535-4.535m0-1.417a5.953,5.953,0,1,0,5.953,5.952,5.96,5.96,0,0,0-5.953-5.952Z"/><rect class="cls-40" x="-32.76" y="63.433" width="104.184" height="4.971" transform="translate(85.251 46.586) rotate(90)"/><path class="cls-41" d="M21.817,51.912h-4.97"/><path class="cls-41" d="M21.817,53.387h-4.97"/><path class="cls-41" d="M21.817,54.862h-4.97"/><path class="cls-41" d="M21.817,56.337h-4.97"/><path class="cls-41" d="M21.817,61.175h-4.97"/><path class="cls-41" d="M21.817,65h-4.97"/><path class="cls-41" d="M21.817,68.188h-4.97"/><path class="cls-41" d="M21.817,47.037h-5"/><rect class="cls-42" x="-32.76" y="63.433" width="104.184" height="4.972" transform="translate(85.25 46.587) rotate(90)"/><rect class="cls-43" x="7.975" y="22.668" width="22.676" height="4.993" transform="translate(44.478 5.851) rotate(90)"/><rect class="cls-5" x="19.145" y="0.381" width="199.406" height="141.732"/><rect class="cls-44" x="25.412" y="5.483" width="189.436" height="131.528"/><rect class="cls-45" x="19.145" y="23.767" width="6.267" height="94.961"/><rect class="cls-46" x="46.488" y="9.376" width="163.043" height="123.591"/><rect class="cls-47" x="19.145" y="35.814" width="6.267" height="70.866"/><line class="cls-48" x1="25.412" y1="37.955" x2="19.145" y2="37.955"/><line class="cls-48" x1="25.412" y1="47.955" x2="19.145" y2="47.955"/><line class="cls-48" x1="25.412" y1="46.955" x2="19.145" y2="46.955"/><line class="cls-48" x1="25.412" y1="45.955" x2="19.145" y2="45.955"/><line class="cls-48" x1="25.412" y1="44.955" x2="19.145" y2="44.955"/><line class="cls-48" x1="25.412" y1="43.955" x2="19.145" y2="43.955"/><line class="cls-48" x1="25.412" y1="42.955" x2="19.145" y2="42.955"/><line class="cls-48" x1="25.412" y1="57.955" x2="19.145" y2="57.955"/><line class="cls-48" x1="25.412" y1="56.955" x2="19.145" y2="56.955"/><line class="cls-48" x1="25.412" y1="55.955" x2="19.145" y2="55.955"/><line class="cls-48" x1="25.412" y1="54.955" x2="19.145" y2="54.955"/><line class="cls-48" x1="25.412" y1="67.955" x2="19.145" y2="67.955"/><line class="cls-48" x1="25.412" y1="68.955" x2="19.145" y2="68.955"/><line class="cls-48" x1="25.412" y1="69.955" x2="19.145" y2="69.955"/><line class="cls-48" x1="25.412" y1="77.955" x2="19.145" y2="77.955"/><line class="cls-48" x1="25.412" y1="87.955" x2="19.145" y2="87.955"/><line class="cls-48" x1="25.412" y1="86.955" x2="19.145" y2="86.955"/><line class="cls-48" x1="25.412" y1="85.955" x2="19.145" y2="85.955"/><line class="cls-48" x1="25.412" y1="84.955" x2="19.145" y2="84.955"/><line class="cls-48" x1="25.412" y1="83.955" x2="19.145" y2="83.955"/><line class="cls-48" x1="25.412" y1="82.955" x2="19.145" y2="82.955"/><line class="cls-48" x1="25.412" y1="81.955" x2="19.145" y2="81.955"/><line class="cls-48" x1="25.412" y1="80.955" x2="19.145" y2="80.955"/><line class="cls-48" x1="25.412" y1="79.955" x2="19.145" y2="79.955"/><line class="cls-48" x1="25.412" y1="78.955" x2="19.145" y2="78.955"/><line class="cls-48" x1="25.412" y1="97.955" x2="19.145" y2="97.955"/><line class="cls-48" x1="25.412" y1="96.955" x2="19.145" y2="96.955"/><line class="cls-48" x1="25.412" y1="95.955" x2="19.145" y2="95.955"/><line class="cls-48" x1="25.412" y1="94.955" x2="19.145" y2="94.955"/><line class="cls-48" x1="25.412" y1="93.955" x2="19.145" y2="93.955"/><rect class="cls-49" x="46.488" y="9.376" width="163.043" height="123.591"/><path class="cls-36" d="M19.145.381V142.113H218.551V.381Zm195.7,136.63H25.412V5.483H214.848Z"/><path class="cls-47" d="M21.064,43.955H19.145l-.854-1V22.721l.854-.567h1.919a.57.57,0,0,1,.57.567V43.388A.57.57,0,0,1,21.064,43.955Z"/><path class="cls-50" d="M23.284,2.932V138.145a1.421,1.421,0,0,0,1.424,1.417H215.275a1.421,1.421,0,0,0,1.425-1.417V4.349a1.421,1.421,0,0,0-1.425-1.417H22.305A1.421,1.421,0,0,0,20.88,4.349V25.807"/><line class="cls-51" x1="19.145" y1="25.807" x2="21.634" y2="25.807"/><line class="cls-51" x1="19.145" y1="35.807" x2="21.634" y2="35.807"/><line class="cls-51" x1="19.145" y1="40.807" x2="21.634" y2="40.807"/><line class="cls-51" x1="19.145" y1="30.807" x2="21.634" y2="30.807"/><line class="cls-52" x1="21.634" y1="40.807" x2="22.529" y2="40.807"/><line class="cls-51" x1="21.634" y1="35.807" x2="22.529" y2="35.807"/><line class="cls-52" x1="21.634" y1="30.807" x2="22.529" y2="30.807"/></g></svg>