<svg id="_1581" data-name="1581" xmlns="http://www.w3.org/2000/svg" xmlns:xlink="http://www.w3.org/1999/xlink" viewBox="0 0 240.945 141.732"><defs><style>.cls-1{fill:#dd962f;}.cls-2{fill:#f9e382;}.cls-3{fill:#54391b;}.cls-3,.cls-5,.cls-6{fill-opacity:0.944;}.cls-12,.cls-15,.cls-16,.cls-17,.cls-4{fill:none;stroke-miterlimit:10;}.cls-4{stroke:#c15f0e;}.cls-5,.cls-6{opacity:0.77;}.cls-5{fill:url(#linear-gradient);}.cls-6{fill:url(#linear-gradient-2);}.cls-13,.cls-7{fill:#fff;}.cls-8{fill:#3a3a3a;}.cls-9{fill:#0d0e0f;}.cls-10{fill:url(#linear-gradient-3);}.cls-11{fill:#e39344;}.cls-12{stroke:#666566;stroke-width:0.25px;}.cls-13{opacity:0.2;}.cls-13,.cls-17{isolation:isolate;}.cls-14{fill:#313131;}.cls-15,.cls-16,.cls-17{stroke:#fff;}.cls-15{stroke-width:1.5px;}.cls-16,.cls-17{stroke-width:4px;}.cls-17{opacity:0.7;}</style><linearGradient id="linear-gradient" x1="16.846" y1="65.918" x2="21.817" y2="65.918" gradientTransform="translate(-46.587 85.25) rotate(-90)" gradientUnits="userSpaceOnUse"><stop offset="0.005" stop-color="#b86d00"/><stop offset="0.029" stop-color="#b06801"/><stop offset="0.114" stop-color="#985b05"/><stop offset="0.204" stop-color="#875108"/><stop offset="0.303" stop-color="#7d4b09"/><stop offset="0.425" stop-color="#7a490a"/><stop offset="0.982" stop-color="#a15f14" stop-opacity="0"/></linearGradient><linearGradient id="linear-gradient-2" x1="-799.94" y1="-241.776" x2="-799.94" y2="-246.769" gradientTransform="translate(819.254 269.438)" xlink:href="#linear-gradient"/><linearGradient id="linear-gradient-3" x1="46.488" y1="297.553" x2="209.531" y2="297.553" gradientTransform="matrix(1, 0, 0, -1, 0, 368.344)" gradientUnits="userSpaceOnUse"><stop offset="0.016" stop-color="#313131" stop-opacity="0.7"/><stop offset="0.027" stop-color="#252525" stop-opacity="0.716"/><stop offset="0.05" stop-color="#141414" stop-opacity="0.748"/><stop offset="0.078" stop-color="#090909" stop-opacity="0.788"/><stop offset="0.117" stop-color="#020202" stop-opacity="0.844"/><stop offset="0.226"/><stop offset="0.449" stop-color="#0c0c0b"/><stop offset="0.869" stop-color="#0d0e0f"/><stop offset="0.883" stop-color="#111212"/><stop offset="0.901" stop-color="#171919"/><stop offset="0.921" stop-color="#202222"/><stop offset="0.943" stop-color="#2f3031"/><stop offset="0.966" stop-color="#454747"/><stop offset="0.99" stop-color="#636364"/><stop offset="0.992" stop-color="#666566"/></linearGradient></defs><g id="top"><path class="cls-1" d="M234.62.381H6.325A6.325,6.325,0,0,0,0,6.706V135.788a6.325,6.325,0,0,0,6.325,6.325h228.3a6.325,6.325,0,0,0,6.325-6.325V6.706A6.325,6.325,0,0,0,234.62.381ZM9.071,137.5a4.536,4.536,0,1,1,4.535-4.536A4.536,4.536,0,0,1,9.071,137.5Zm0-123.591a4.536,4.536,0,1,1,4.535-4.535A4.535,4.535,0,0,1,9.071,13.911Zm222.8,123.667a4.536,4.536,0,1,1,4.535-4.536A4.535,4.535,0,0,1,231.874,137.578Zm0-123.591a4.536,4.536,0,1,1,4.535-4.535A4.535,4.535,0,0,1,231.874,13.987Z" transform="translate(0 -0.381)"/><path class="cls-2" d="M9.071,4.84A4.536,4.536,0,1,1,4.535,9.376,4.535,4.535,0,0,1,9.071,4.84m0-1.417a5.953,5.953,0,1,0,5.953,5.953A5.96,5.96,0,0,0,9.071,3.423Z" transform="translate(0 -0.381)"/><path class="cls-2" d="M231.874,4.916a4.536,4.536,0,1,1-4.535,4.536,4.535,4.535,0,0,1,4.535-4.536m0-1.417a5.953,5.953,0,1,0,5.953,5.953A5.96,5.96,0,0,0,231.874,3.5Z" transform="translate(0 -0.381)"/><path class="cls-2" d="M9.071,128.431a4.536,4.536,0,1,1-4.536,4.535,4.535,4.535,0,0,1,4.536-4.535m0-1.417a5.953,5.953,0,1,0,5.953,5.952,5.96,5.96,0,0,0-5.953-5.952Z" transform="translate(0 -0.381)"/><path class="cls-2" d="M231.874,128.507a4.536,4.536,0,1,1-4.535,4.535,4.535,4.535,0,0,1,4.535-4.535m0-1.417a5.953,5.953,0,1,0,5.953,5.952,5.96,5.96,0,0,0-5.953-5.952Z" transform="translate(0 -0.381)"/><rect class="cls-3" x="-32.76" y="63.433" width="104.184" height="4.971" transform="translate(85.251 46.205) rotate(90)"/><path class="cls-4" d="M21.817,51.912h-4.97" transform="translate(0 -0.381)"/><path class="cls-4" d="M21.817,53.387h-4.97" transform="translate(0 -0.381)"/><path class="cls-4" d="M21.817,54.862h-4.97" transform="translate(0 -0.381)"/><path class="cls-4" d="M21.817,56.337h-4.97" transform="translate(0 -0.381)"/><path class="cls-4" d="M21.817,61.175h-4.97" transform="translate(0 -0.381)"/><path class="cls-4" d="M21.817,65h-4.97" transform="translate(0 -0.381)"/><path class="cls-4" d="M21.817,68.188h-4.97" transform="translate(0 -0.381)"/><path class="cls-4" d="M21.817,47.037h-5" transform="translate(0 -0.381)"/><rect class="cls-5" x="-32.76" y="63.433" width="104.184" height="4.972" transform="translate(85.25 46.206) rotate(90)"/><rect class="cls-6" x="7.975" y="22.668" width="22.676" height="4.993" transform="translate(44.478 5.47) rotate(90)"/><rect class="cls-7" x="19.145" width="199.406" height="141.732"/><rect class="cls-8" x="25.412" y="5.102" width="189.436" height="131.528"/><rect class="cls-9" x="19.145" y="23.386" width="6.267" height="94.961"/><rect class="cls-10" x="46.488" y="8.995" width="163.043" height="123.591"/><rect class="cls-11" x="19.145" y="35.433" width="6.267" height="70.866"/><line class="cls-12" x1="25.412" y1="37.574" x2="19.145" y2="37.574"/><line class="cls-12" x1="25.412" y1="47.574" x2="19.145" y2="47.574"/><line class="cls-12" x1="25.412" y1="46.574" x2="19.145" y2="46.574"/><line class="cls-12" x1="25.412" y1="45.574" x2="19.145" y2="45.574"/><line class="cls-12" x1="25.412" y1="44.574" x2="19.145" y2="44.574"/><line class="cls-12" x1="25.412" y1="43.574" x2="19.145" y2="43.574"/><line class="cls-12" x1="25.412" y1="42.574" x2="19.145" y2="42.574"/><line class="cls-12" x1="25.412" y1="57.574" x2="19.145" y2="57.574"/><line class="cls-12" x1="25.412" y1="56.574" x2="19.145" y2="56.574"/><line class="cls-12" x1="25.412" y1="55.574" x2="19.145" y2="55.574"/><line class="cls-12" x1="25.412" y1="54.574" x2="19.145" y2="54.574"/><line class="cls-12" x1="25.412" y1="67.574" x2="19.145" y2="67.574"/><line class="cls-12" x1="25.412" y1="68.574" x2="19.145" y2="68.574"/><line class="cls-12" x1="25.412" y1="69.574" x2="19.145" y2="69.574"/><line class="cls-12" x1="25.412" y1="77.574" x2="19.145" y2="77.574"/><line class="cls-12" x1="25.412" y1="87.574" x2="19.145" y2="87.574"/><line class="cls-12" x1="25.412" y1="86.574" x2="19.145" y2="86.574"/><line class="cls-12" x1="25.412" y1="85.574" x2="19.145" y2="85.574"/><line class="cls-12" x1="25.412" y1="84.574" x2="19.145" y2="84.574"/><line class="cls-12" x1="25.412" y1="83.574" x2="19.145" y2="83.574"/><line class="cls-12" x1="25.412" y1="82.574" x2="19.145" y2="82.574"/><line class="cls-12" x1="25.412" y1="81.574" x2="19.145" y2="81.574"/><line class="cls-12" x1="25.412" y1="80.574" x2="19.145" y2="80.574"/><line class="cls-12" x1="25.412" y1="79.574" x2="19.145" y2="79.574"/><line class="cls-12" x1="25.412" y1="78.574" x2="19.145" y2="78.574"/><line class="cls-12" x1="25.412" y1="97.574" x2="19.145" y2="97.574"/><line class="cls-12" x1="25.412" y1="96.574" x2="19.145" y2="96.574"/><line class="cls-12" x1="25.412" y1="95.574" x2="19.145" y2="95.574"/><line class="cls-12" x1="25.412" y1="94.574" x2="19.145" y2="94.574"/><line class="cls-12" x1="25.412" y1="93.574" x2="19.145" y2="93.574"/><rect class="cls-13" x="46.488" y="8.995" width="163.043" height="123.591"/><path class="cls-14" d="M19.145.381V142.113H218.551V.381Zm195.7,136.63H25.412V5.483H214.848Z" transform="translate(0 -0.381)"/><path class="cls-11" d="M21.064,43.955H19.145l-.854-1V22.721l.854-.567h1.919a.57.57,0,0,1,.57.567V43.388A.57.57,0,0,1,21.064,43.955Z" transform="translate(0 -0.381)"/><path class="cls-15" d="M23.284,2.932V138.145a1.421,1.421,0,0,0,1.424,1.417H215.275a1.421,1.421,0,0,0,1.425-1.417V4.349a1.421,1.421,0,0,0-1.425-1.417H22.305A1.421,1.421,0,0,0,20.88,4.349V25.807" transform="translate(0 -0.381)"/><line class="cls-16" x1="19.145" y1="25.426" x2="21.634" y2="25.426"/><line class="cls-16" x1="19.145" y1="35.426" x2="21.634" y2="35.426"/><line class="cls-16" x1="19.145" y1="40.426" x2="21.634" y2="40.426"/><line class="cls-16" x1="19.145" y1="30.426" x2="21.634" y2="30.426"/><line class="cls-17" x1="21.634" y1="40.426" x2="22.529" y2="40.426"/><line class="cls-16" x1="21.634" y1="35.426" x2="22.529" y2="35.426"/><line class="cls-17" x1="21.634" y1="30.426" x2="22.529" y2="30.426"/></g></svg>