<svg id="_1582" data-name="1582" xmlns="http://www.w3.org/2000/svg" xmlns:xlink="http://www.w3.org/1999/xlink" viewBox="0 0 284.88 156.093"><defs><style>.cls-1{fill:#181818;}.cls-2{fill:#c97e1b;}.cls-3{fill:#dd962f;}.cls-4{fill:#f9e382;}.cls-5{fill:#fff;}.cls-18,.cls-28,.cls-37,.cls-38,.cls-6{fill:none;}.cls-6{stroke:#fff;stroke-width:0.425px;}.cls-18,.cls-28,.cls-34,.cls-37,.cls-38,.cls-6{stroke-miterlimit:10;}.cls-7{fill:#b57733;}.cls-8{fill:#9e9b9c;}.cls-12,.cls-9{fill:#f1f3e6;}.cls-10{fill:#c2b990;}.cls-11{fill:#ad9e73;}.cls-12{stroke:#e3e2e6;stroke-width:0.128px;}.cls-13{fill:#108759;}.cls-14{fill-opacity:0.573;fill:url(#Безымянный_градиент_179);}.cls-15{fill:#be7400;}.cls-16{fill:#494949;}.cls-17{fill:#cdc5ba;}.cls-18,.cls-28{stroke:#e5e5e5;}.cls-19{fill:#9f9c9c;}.cls-20{fill:#36312f;}.cls-21{fill:#d2d1d3;}.cls-22{fill:#b7b8b9;}.cls-23{fill:#d7d3d5;}.cls-24{fill:#242424;}.cls-25{fill:#363331;}.cls-26{fill:#d0c9bd;}.cls-27{fill:#987743;}.cls-28{stroke-width:0.837px;}.cls-29{fill:#2d2d2d;}.cls-30{fill:#cdc7bc;}.cls-31{fill:#b7b8b5;}.cls-32{fill:#ae7d52;}.cls-33{fill:#cbc5ba;}.cls-34{fill:#f2f2f2;stroke:#999;stroke-width:0.1px;}.cls-35{fill:#313131;}.cls-36{fill:#666566;}.cls-37,.cls-38{stroke:#f2f2f2;}.cls-37{stroke-width:0.41px;}.cls-38{stroke-width:0.25px;}</style><linearGradient id="Безымянный_градиент_179" x1="-285.132" y1="39.612" x2="-250.597" y2="39.612" gradientTransform="matrix(-1, 0, 0, 1, -172.821, -0.001)" gradientUnits="userSpaceOnUse"><stop offset="0" stop-color="#f79300" stop-opacity="0"/><stop offset="0.461" stop-color="#fff" stop-opacity="0.4"/><stop offset="0.572" stop-color="#f4dbc3" stop-opacity="0.555"/><stop offset="0.764" stop-color="#e4a465" stop-opacity="0.796"/><stop offset="0.913" stop-color="#da822c" stop-opacity="0.945"/><stop offset="1" stop-color="#d67516"/></linearGradient></defs><g id="bottom"><rect class="cls-1" x="22.55" width="230.87" height="155.735"/><rect class="cls-2" x="20.896" y="14.922" width="57.853" height="79.436"/><path class="cls-3" d="M278.881,0H6.011A6.009,6.009,0,0,0,0,6.011v143.72a6,6,0,0,0,6.01,6h272.87a6,6,0,0,0,6-6V6.011A6.007,6.007,0,0,0,278.881,0ZM9.051,151.2a4.535,4.535,0,1,1,4.53-4.54A4.537,4.537,0,0,1,9.051,151.2Zm0-137.59a4.54,4.54,0,1,1,4.53-4.54A4.537,4.537,0,0,1,9.051,13.611Zm73.02,77.06a2.147,2.147,0,0,1-2.15,2.15H24.7a2.147,2.147,0,0,1-2.15-2.15V15.6a2.147,2.147,0,0,1,2.15-2.15h55.22a2.147,2.147,0,0,1,2.15,2.15Zm193.74,60.53a4.535,4.535,0,1,1,4.54-4.54A4.535,4.535,0,0,1,275.811,151.2Zm0-137.59a4.54,4.54,0,1,1,4.54-4.54A4.535,4.535,0,0,1,275.811,13.611Z" transform="translate(-0.001 -0.001)"/><path class="cls-4" d="M9.062,4.535A4.536,4.536,0,1,1,4.526,9.071,4.536,4.536,0,0,1,9.062,4.535m0-1.417a5.953,5.953,0,1,0,5.952,5.953A5.96,5.96,0,0,0,9.062,3.118Z" transform="translate(-0.001 -0.001)"/><path class="cls-4" d="M9.062,142.129a4.536,4.536,0,1,1-4.536,4.536,4.536,4.536,0,0,1,4.536-4.536m0-1.417a5.953,5.953,0,1,0,5.952,5.953,5.959,5.959,0,0,0-5.952-5.953Z" transform="translate(-0.001 -0.001)"/><path class="cls-4" d="M275.827,4.535a4.536,4.536,0,1,1-4.536,4.536,4.535,4.535,0,0,1,4.536-4.536m0-1.417a5.953,5.953,0,1,0,5.952,5.953,5.96,5.96,0,0,0-5.952-5.953Z" transform="translate(-0.001 -0.001)"/><path class="cls-4" d="M275.827,142.129a4.536,4.536,0,1,1-4.536,4.536,4.535,4.535,0,0,1,4.536-4.536m0-1.417a5.953,5.953,0,1,0,5.952,5.953,5.959,5.959,0,0,0-5.952-5.953Z" transform="translate(-0.001 -0.001)"/><path class="cls-5" d="M46.728,124.142v.653l-2.192,2.484h2.192v.655H43.884v-.655l2.2-2.491h-2.2v-.646Z" transform="translate(-0.001 -0.001)"/><path class="cls-5" d="M45.413,119.642v2.137h1.008V119.3h.307v3.135H43.884v-3.1h.307v2.45h.916v-2.137Z" transform="translate(-0.001 -0.001)"/><path class="cls-5" d="M44.974,116.321l-1.09-1.182v-.766l1.41,1.559,1.434-1.6v.772l-1.11,1.213,1.11,1.22v.77l-1.434-1.6-1.41,1.562v-.762Z" transform="translate(-0.001 -0.001)"/><path class="cls-5" d="M44.191,109.615V111.2h2.537v.647H44.191v1.583h-.307v-3.816Z" transform="translate(-0.001 -0.001)"/><path class="cls-5" d="M46.728,107.631v.65H43.884v-.65Z" transform="translate(-0.001 -0.001)"/><path class="cls-5" d="M45.4,102.09a1.143,1.143,0,0,1,.729.244,1.513,1.513,0,0,1,.476.691,3.035,3.035,0,0,1,.164,1.044A3,3,0,0,1,46.6,105.1a1.578,1.578,0,0,1-.471.7,1.119,1.119,0,0,1-.708.256h-.2a1.142,1.142,0,0,1-.725-.248,1.55,1.55,0,0,1-.481-.7,2.984,2.984,0,0,1-.167-1.035,3.074,3.074,0,0,1,.165-1.046,1.51,1.51,0,0,1,.479-.7,1.151,1.151,0,0,1,.729-.244Zm-.184.647a.917.917,0,0,0-.776.353,1.586,1.586,0,0,0-.271.986,1.567,1.567,0,0,0,.271.971.92.92,0,0,0,.751.364H45.4a.924.924,0,0,0,.77-.357,1.553,1.553,0,0,0,.281-.985,1.57,1.57,0,0,0-.265-.976.923.923,0,0,0-.759-.356Z" transform="translate(-0.001 -0.001)"/><path class="cls-5" d="M46.728,96.768v.653l-2.192,2.484h2.192v.655H43.884v-.655l2.2-2.491h-2.2v-.646Z" transform="translate(-0.001 -0.001)"/><polygon class="cls-6" points="40.646 124.053 28.124 117.052 28.124 109.781 40.646 116.782 40.646 124.053"/><polygon class="cls-6" points="40.646 114.802 33.079 110.538 33.079 106.109 40.646 110.373 40.646 114.802"/><polygon class="cls-6" points="40.646 108.827 35.599 105.848 35.599 102.754 40.646 105.733 40.646 108.827"/><path class="cls-7" d="M11.316,105.053v.66l-3.835,2.505h3.835v.66H6.339v-.66l3.852-2.512H6.339v-.653Z" transform="translate(-0.001 -0.001)"/><path class="cls-7" d="M8.246,101.646l-1.907-1.193v-.772l2.468,1.572,2.509-1.61v.779l-1.942,1.224,1.942,1.23v.776l-2.509-1.613-2.468,1.576v-.769Z" transform="translate(-0.001 -0.001)"/><path class="cls-7" d="M9.644,95.815v-.69h.516v.69h1.156v.636H10.16v2.266H9.788L6.339,96.489v-.674Zm0,2.185V96.451H7.2l.137.075Z" transform="translate(-0.001 -0.001)"/><path class="cls-7" d="M7.638,90.976a1.162,1.162,0,0,1,.663.2,1.349,1.349,0,0,1,.454.532,1.44,1.44,0,0,1,.489-.617,1.233,1.233,0,0,1,.728-.227A1.3,1.3,0,0,1,11,91.3a1.91,1.91,0,0,1,0,2.3,1.3,1.3,0,0,1-1.027.433,1.26,1.26,0,0,1-.728-.221,1.37,1.37,0,0,1-.492-.61,1.288,1.288,0,0,1-.454.523,1.171,1.171,0,0,1-.66.192,1.287,1.287,0,0,1-1-.4,1.713,1.713,0,0,1,0-2.124A1.284,1.284,0,0,1,7.638,90.976ZM6.79,92.442a.812.812,0,0,0,.231.6.843.843,0,0,0,.627.231.841.841,0,0,0,.614-.227.907.907,0,0,0,0-1.214.935.935,0,0,0-1.232.009A.8.8,0,0,0,6.79,92.442Zm3.168-.95a.918.918,0,0,0-.679.265.939.939,0,0,0-.264.692.891.891,0,0,0,.943.944.881.881,0,0,0,.667-.252,1.12,1.12,0,0,0,0-1.4A.882.882,0,0,0,9.958,91.492Z" transform="translate(-0.001 -0.001)"/><path class="cls-7" d="M8.52,88.584v-.475a1.046,1.046,0,0,0-.236-.7.789.789,0,0,0-.619-.257.772.772,0,0,0-.875.872.905.905,0,0,0,.235.655.821.821,0,0,0,.62.244v.632a1.27,1.27,0,0,1-.983-.432,1.579,1.579,0,0,1-.391-1.1,1.555,1.555,0,0,1,.373-1.1,1.343,1.343,0,0,1,1.035-.4,1.087,1.087,0,0,1,.629.211,1.264,1.264,0,0,1,.455.572,1.213,1.213,0,0,1,.43-.634,1.2,1.2,0,0,1,.735-.224,1.364,1.364,0,0,1,1.064.437,1.644,1.644,0,0,1,.392,1.139,1.682,1.682,0,0,1-.379,1.139,1.261,1.261,0,0,1-1,.44V88.96a.813.813,0,0,0,.629-.256.976.976,0,0,0,.236-.687.955.955,0,0,0-.24-.7.917.917,0,0,0-.686-.243.838.838,0,0,0-.667.267,1.159,1.159,0,0,0-.239.769v.475Z" transform="translate(-0.001 -0.001)"/><path class="cls-7" d="M11.316,81.752v3.261h-.455L8.947,83.291a4.035,4.035,0,0,0-.7-.528,1.184,1.184,0,0,0-.563-.146.893.893,0,0,0-.639.236.823.823,0,0,0-.25.629.976.976,0,0,0,.269.733,1.023,1.023,0,0,0,.747.262v.632A1.466,1.466,0,0,1,6.7,84.666a1.637,1.637,0,0,1-.424-1.184,1.576,1.576,0,0,1,.364-1.1,1.241,1.241,0,0,1,.969-.4,2.845,2.845,0,0,1,1.75.937L10.8,84.251v-2.5Z" transform="translate(-0.001 -0.001)"/><path class="cls-7" d="M9.118,77.614V79.7h2.2v.656H6.339V77.275h.537V79.7h1.7V77.614Z" transform="translate(-0.001 -0.001)"/><path class="cls-7" d="M9.193,72.973a2.891,2.891,0,0,1,1.651.379,1.576,1.576,0,0,1,.012,2.365,2.745,2.745,0,0,1-1.577.4H8.435a2.825,2.825,0,0,1-1.631-.38,1.36,1.36,0,0,1-.533-1.189,1.374,1.374,0,0,1,.514-1.183,2.723,2.723,0,0,1,1.587-.389Zm-.865.632a2.308,2.308,0,0,0-1.17.226.774.774,0,0,0-.368.714.765.765,0,0,0,.366.707,2.26,2.26,0,0,0,1.125.229H9.292a2.36,2.36,0,0,0,1.192-.234.774.774,0,0,0,.384-.709.763.763,0,0,0-.363-.695,2.258,2.258,0,0,0-1.14-.238Z" transform="translate(-0.001 -0.001)"/><path class="cls-7" d="M8.52,70.683v-.475a1.046,1.046,0,0,0-.236-.7.788.788,0,0,0-.619-.256.772.772,0,0,0-.875.871.9.9,0,0,0,.235.655.817.817,0,0,0,.62.244v.632a1.27,1.27,0,0,1-.983-.432,1.579,1.579,0,0,1-.391-1.1,1.555,1.555,0,0,1,.373-1.1,1.346,1.346,0,0,1,1.035-.4,1.087,1.087,0,0,1,.629.211,1.264,1.264,0,0,1,.455.572,1.217,1.217,0,0,1,.43-.634,1.2,1.2,0,0,1,.735-.224,1.361,1.361,0,0,1,1.064.438,1.64,1.64,0,0,1,.392,1.138,1.682,1.682,0,0,1-.379,1.139,1.261,1.261,0,0,1-1,.44v-.636a.813.813,0,0,0,.629-.256.976.976,0,0,0,.236-.687.957.957,0,0,0-.24-.7.917.917,0,0,0-.686-.243.838.838,0,0,0-.667.267,1.159,1.159,0,0,0-.239.769v.475Z" transform="translate(-0.001 -0.001)"/><path class="cls-7" d="M8.821,66.821l-2.482-.253V64.019h.584v2.013l1.358.15a1.6,1.6,0,0,1-.215-.83,1.373,1.373,0,0,1,.449-1.081,1.763,1.763,0,0,1,1.215-.4,1.7,1.7,0,0,1,1.212.415,1.512,1.512,0,0,1,.442,1.16,1.577,1.577,0,0,1-.365,1.077A1.463,1.463,0,0,1,10.007,67v-.6a1.008,1.008,0,0,0,.644-.3.95.95,0,0,0,.217-.65.855.855,0,0,0-.3-.692,1.262,1.262,0,0,0-.831-.251,1.161,1.161,0,0,0-.8.271.93.93,0,0,0-.3.724,1.041,1.041,0,0,0,.182.649l.137.167Z" transform="translate(-0.001 -0.001)"/><path class="cls-7" d="M11.831,59.89v3.131h-.515V59.89Z" transform="translate(-0.001 -0.001)"/><path class="cls-7" d="M9.193,55.782a2.89,2.89,0,0,1,1.651.38,1.576,1.576,0,0,1,.012,2.365,2.746,2.746,0,0,1-1.577.4H8.435A2.825,2.825,0,0,1,6.8,58.544a1.605,1.605,0,0,1-.019-2.372,2.73,2.73,0,0,1,1.587-.39Zm-.865.633a2.321,2.321,0,0,0-1.17.225.776.776,0,0,0-.368.714.766.766,0,0,0,.366.708,2.26,2.26,0,0,0,1.125.229H9.292a2.36,2.36,0,0,0,1.192-.234.774.774,0,0,0,.384-.709.765.765,0,0,0-.363-.7,2.249,2.249,0,0,0-1.14-.237Z" transform="translate(-0.001 -0.001)"/><path class="cls-7" d="M11.316,52.334v.636H7.1l.469,1.275H7l-.679-1.812v-.1Z" transform="translate(-0.001 -0.001)"/><path class="cls-7" d="M11.316,47.844v.635H7.1l.469,1.275H7l-.679-1.811v-.1Z" transform="translate(-0.001 -0.001)"/><path class="cls-5" d="M244.686,68.92a1.255,1.255,0,0,1-.684-.183,1.208,1.208,0,0,1-.445-.507,1.7,1.7,0,0,1-.156-.75v-.046a1.7,1.7,0,0,1,.157-.753,1.244,1.244,0,0,1,.431-.5,1.1,1.1,0,0,1,.621-.182,1.838,1.838,0,0,1,.563.076,1.3,1.3,0,0,1,.4.205v.575h-.317l-.041-.412a.7.7,0,0,0-.234-.095,1.428,1.428,0,0,0-.328-.032.737.737,0,0,0-.44.14.961.961,0,0,0-.308.392,1.423,1.423,0,0,0-.114.587v.05a1.559,1.559,0,0,0,.1.593.868.868,0,0,0,.306.393.833.833,0,0,0,.488.139,1.35,1.35,0,0,0,.33-.034.991.991,0,0,0,.238-.089v-.668l-.545-.019v-.283h.93v1.1a1.149,1.149,0,0,1-.353.211A1.568,1.568,0,0,1,244.686,68.92Z" transform="translate(-0.001 -0.001)"/><path class="cls-5" d="M246.356,68.879v-.246l.318-.055v-2.24l-.318-.055v-.248h.707l1.394,2.217.012,0v-1.91l-.35-.055v-.248h1.022v.248l-.318.055v2.541h-.352l-1.432-2.229-.011,0v1.924l.349.055v.246Z" transform="translate(-0.001 -0.001)"/><path class="cls-5" d="M249.782,68.879v-.246l.318-.055v-2.24l-.318-.055v-.248H250.9a1.19,1.19,0,0,1,.657.18,1.22,1.22,0,0,1,.437.494,1.61,1.61,0,0,1,.156.719v.06a1.633,1.633,0,0,1-.151.71,1.213,1.213,0,0,1-.426.5,1.161,1.161,0,0,1-.654.183Zm.7-.3h.41a.743.743,0,0,0,.463-.147.964.964,0,0,0,.3-.395,1.408,1.408,0,0,0,.1-.548v-.064a1.417,1.417,0,0,0-.1-.556.928.928,0,0,0-.3-.388.765.765,0,0,0-.463-.142h-.41Z" transform="translate(-0.001 -0.001)"/><path class="cls-5" d="M246.8,75.812v-.246l.318-.055v-2.24l-.318-.055V72.97h1.268a1.319,1.319,0,0,1,.525.093.694.694,0,0,1,.324.269.787.787,0,0,1,.112.429.767.767,0,0,1-.108.42.68.68,0,0,1-.308.257,1.244,1.244,0,0,1-.473.093l-.637.011v.969l.319.055v.246Zm.7-1.572h.526a.722.722,0,0,0,.468-.123.443.443,0,0,0,.147-.36.461.461,0,0,0-.141-.355.622.622,0,0,0-.435-.131h-.565Zm1.174,1.572-.633-1.42.385,0,.525,1.137.2.035v.252Z" transform="translate(-0.001 -0.001)"/><path class="cls-5" d="M249.826,75.812v-.246l.246-.043.88-1.154-.816-1.11-.248-.043v-.248h.922v.248l-.268.026.629.877.6-.877-.274-.026v-.248h.928v.248l-.26.043-.771,1.11.855,1.154.252.043v.246h-.933v-.246l.275-.025-.674-.924-.672.924.26.025v.246Z" transform="translate(-0.001 -0.001)"/><path class="cls-5" d="M247.5,82.852v-.246l.319-.055V80.3h-.645l-.056.395h-.29v-.686h2.364v.686h-.285l-.059-.395H248.2v2.252l.319.055v.246Z" transform="translate(-0.001 -0.001)"/><path class="cls-5" d="M249.863,82.852v-.246l.246-.043.881-1.154-.817-1.11-.248-.043v-.248h.922v.248l-.268.026.629.877.6-.877-.273-.026v-.248h.927v.248l-.259.043-.772,1.11.855,1.154.252.043v.246H251.6v-.246l.275-.025-.674-.924-.671.924.259.025v.246Z" transform="translate(-0.001 -0.001)"/><path class="cls-5" d="M247.679,89.957a1.012,1.012,0,0,1-.431-.088.667.667,0,0,1-.3-.261.756.756,0,0,1-.1-.428l0-.012h.348a.451.451,0,0,0,.478.488.453.453,0,0,0,.379-.172.74.74,0,0,0,.135-.47.712.712,0,0,0-.136-.451.45.45,0,0,0-.376-.174.607.607,0,0,0-.329.068.4.4,0,0,0-.15.209l-.32-.033.164-1.561h1.5v.563h-.289l-.037-.221h-.85l-.091.8a.75.75,0,0,1,.127-.079.794.794,0,0,1,.149-.056.708.708,0,0,1,.177-.023.838.838,0,0,1,.451.114.744.744,0,0,1,.291.332,1.179,1.179,0,0,1,.1.509,1.141,1.141,0,0,1-.1.5.758.758,0,0,1-.3.331A.952.952,0,0,1,247.679,89.957Z" transform="translate(-0.001 -0.001)"/><path class="cls-5" d="M250.4,89.916l-.953-2.564-.227-.032v-.248h.9v.248l-.26.041.636,1.809.067.225h.012l.07-.225.66-1.811-.289-.039v-.248h.9v.248l-.228.032-.953,2.564Z" transform="translate(-0.001 -0.001)"/><g id="jst-xh-4pin"><polygon id="polygon19706-3-6-8-2-3-4-3-12" class="cls-8" points="262.625 69.044 254.121 69.044 254.121 65.423 262.625 65.423 262.625 69.044"/><polygon id="polygon19706-3-6-8-2-3-4-3-13" class="cls-8" points="262.625 76.129 254.121 76.129 254.121 72.507 262.625 72.507 262.625 76.129"/><polygon id="polygon19706-3-6-8-2-3-4-3-14" class="cls-8" points="262.625 83.212 254.121 83.212 254.121 79.59 262.625 79.59 262.625 83.212"/><polygon id="polygon19706-3-6-8-2-3-4-3-15" class="cls-8" points="262.625 90.294 254.121 90.294 254.121 86.673 262.625 86.673 262.625 90.294"/><path id="path19730-0-0-6-5-4-7-3" class="cls-9" d="M262.627,61.127h-3.571V56.369h3.571Z" transform="translate(-0.001 -0.001)"/><path id="path19736-6-8-2-9-9-1-3" class="cls-9" d="M262.627,99.3h-3.571V94.54h3.571Z" transform="translate(-0.001 -0.001)"/><rect id="rect19748-4-6-0-9-5-2-3" class="cls-10" x="262.228" y="94.539" width="0.397" height="4.759"/><rect id="rect19750-9-59-4-6-5-8-3" class="cls-10" x="262.228" y="56.367" width="0.397" height="4.759"/><rect id="rect19716-5-7-8-3-4-5-3" class="cls-11" x="262.626" y="56.439" width="22.11" height="42.858"/><polygon id="polygon19742-1-8-7-6-3-9-3" class="cls-12" points="262.626 65.471 262.626 56.438 284.622 56.438 284.622 99.298 262.626 99.298 262.626 90.725 280.222 90.725 280.222 85.368 262.626 85.368 262.626 70.828 280.222 70.828 280.222 65.471 262.626 65.471"/></g><rect class="cls-13" x="26.933" y="35.125" width="45.504" height="54.657" rx="4.163"/><g id="ribbon-cable-16pin"><rect class="cls-2" x="77.776" y="14.809" width="34.535" height="49.606"/><rect class="cls-14" x="77.776" y="14.809" width="34.535" height="49.606"/><path id="rect91155-4-89-4" class="cls-15" d="M77.777,61.829v1.4h34.534v-1.4Z" transform="translate(-0.001 -0.001)"/><path id="rect91155-4-89-4-2" class="cls-15" d="M77.777,58.3v1.4h34.534V58.3Z" transform="translate(-0.001 -0.001)"/><path id="rect91155-4-89-4-3" class="cls-15" d="M77.777,54.778v1.4h34.534v-1.4Z" transform="translate(-0.001 -0.001)"/><path id="rect91155-4-89-4-4" class="cls-15" d="M77.777,51.252v1.4h34.534v-1.4Z" transform="translate(-0.001 -0.001)"/><path id="rect91155-4-89-4-5" class="cls-15" d="M77.777,47.726v1.4h34.534v-1.4Z" transform="translate(-0.001 -0.001)"/><path id="rect91155-4-89-4-6" class="cls-15" d="M77.777,44.2v1.4h34.534V44.2Z" transform="translate(-0.001 -0.001)"/><path id="rect91155-4-89-4-7" class="cls-15" d="M77.777,40.675v1.4h34.534v-1.4Z" transform="translate(-0.001 -0.001)"/><path id="rect91155-4-89-4-8" class="cls-15" d="M77.777,37.149v1.4h34.534v-1.4Z" transform="translate(-0.001 -0.001)"/><path id="rect91155-4-89-4-9" class="cls-15" d="M77.777,33.623v1.4h34.534v-1.4Z" transform="translate(-0.001 -0.001)"/><path id="rect91155-4-89-4-10" class="cls-15" d="M77.777,30.1v1.4h34.534V30.1Z" transform="translate(-0.001 -0.001)"/><path id="rect91155-4-89-4-11" class="cls-15" d="M77.777,26.572v1.4h34.534v-1.4Z" transform="translate(-0.001 -0.001)"/><path id="rect91155-4-89-4-12" class="cls-15" d="M77.777,23.046v1.4h34.534v-1.4Z" transform="translate(-0.001 -0.001)"/><path id="rect91155-4-89-4-13" class="cls-15" d="M77.777,19.52v1.4h34.534v-1.4Z" transform="translate(-0.001 -0.001)"/><path id="rect91155-4-89-4-16" class="cls-15" d="M77.777,15.994v1.4h34.534v-1.4Z" transform="translate(-0.001 -0.001)"/></g><g id="con-16pin-2"><rect id="rect27317-3-8-2-2" class="cls-16" x="109.88" y="8.495" width="5.627" height="62.23"/><rect class="cls-8" x="115.507" y="10.35" width="10.159" height="58.522"/><rect class="cls-17" x="127.935" y="33.612" width="2.05" height="1.42"/><line class="cls-18" x1="129.355" y1="34.322" x2="125.665" y2="34.322"/><rect class="cls-17" x="127.935" y="15.983" width="2.05" height="1.42"/><line class="cls-18" x1="129.355" y1="16.693" x2="125.665" y2="16.693"/><rect class="cls-17" x="127.935" y="19.509" width="2.05" height="1.42"/><line class="cls-18" x1="129.355" y1="20.219" x2="125.665" y2="20.219"/><rect class="cls-17" x="127.935" y="23.034" width="2.05" height="1.42"/><line class="cls-18" x1="129.355" y1="23.744" x2="125.665" y2="23.744"/><rect class="cls-17" x="127.935" y="26.56" width="2.05" height="1.42"/><line class="cls-18" x1="129.355" y1="27.27" x2="125.665" y2="27.27"/><rect class="cls-17" x="127.935" y="30.086" width="2.05" height="1.42"/><line class="cls-18" x1="129.355" y1="30.796" x2="125.665" y2="30.796"/><rect class="cls-17" x="127.935" y="37.138" width="2.05" height="1.42"/><line class="cls-18" x1="129.355" y1="37.848" x2="125.665" y2="37.848"/><rect class="cls-17" x="127.935" y="40.663" width="2.05" height="1.42"/><line class="cls-18" x1="129.355" y1="41.373" x2="125.665" y2="41.373"/><rect class="cls-17" x="127.935" y="44.189" width="2.05" height="1.42"/><line class="cls-18" x1="129.355" y1="44.899" x2="125.665" y2="44.899"/><rect class="cls-17" x="127.935" y="47.715" width="2.05" height="1.42"/><line class="cls-18" x1="129.355" y1="48.425" x2="125.665" y2="48.425"/><rect class="cls-17" x="127.935" y="51.241" width="2.05" height="1.42"/><line class="cls-18" x1="129.355" y1="51.951" x2="125.665" y2="51.951"/><rect class="cls-17" x="127.935" y="54.766" width="2.05" height="1.42"/><line class="cls-18" x1="129.355" y1="55.476" x2="125.665" y2="55.476"/><rect class="cls-17" x="127.935" y="58.292" width="2.05" height="1.42"/><line class="cls-18" x1="129.355" y1="59.002" x2="125.665" y2="59.002"/><rect class="cls-17" x="127.935" y="61.818" width="2.05" height="1.42"/><line class="cls-18" x1="129.355" y1="62.528" x2="125.665" y2="62.528"/></g><g id="T-SOT23-6"><path id="path3487-1-2-2-2-2" class="cls-19" d="M68,79.192v-1.62h-2.56v1.62Z" transform="translate(-0.001 -0.001)"/><path id="path3487-1-2-3" class="cls-19" d="M68,73.666v-1.62h-2.56v1.62Z" transform="translate(-0.001 -0.001)"/><path id="path3487-1-2-3-2-2" class="cls-19" d="M68,76.476v-1.62h-2.56v1.62Z" transform="translate(-0.001 -0.001)"/><path id="path3487-1-2-2-2-2-2" class="cls-19" d="M59.58,72.046v1.62h2.56v-1.62Z" transform="translate(-0.001 -0.001)"/><path id="path3487-1-2-2-2-3" class="cls-19" d="M59.58,74.856v1.62h2.56v-1.62Z" transform="translate(-0.001 -0.001)"/><path id="path3487-1-2-2-2-4" class="cls-19" d="M59.58,77.576V79.2h2.56v-1.62Z" transform="translate(-0.001 -0.001)"/><path id="path3477-9-2-2-2" class="cls-20" d="M62.052,79.875V71.457h3.48v8.418Z" transform="translate(-0.001 -0.001)"/></g><g id="R-0805"><rect id="rect21332-8-1-9-3-8-2-40-6-2-0-6-6-0-5-6-4-8-7-2-0-7-2-3-9-16-6" class="cls-21" x="30.667" y="58.074" width="3.4" height="2.9"/><rect id="rect21332-8-1-9-3-8-2-40-6-2-0-6-6-0-5-6-4-8-7-2-0-7-2-3-10-16-6" class="cls-21" x="30.667" y="53.054" width="3.4" height="2.9"/><path class="cls-22" d="M30.668,59.435V54.6a.42.42,0,0,1,.42-.42h2.55a.41.41,0,0,1,.43.387h0V59.4a.41.41,0,0,1-.41.409H31.1a.428.428,0,0,1-.43-.409h0Z" transform="translate(-0.001 -0.001)"/><g id="path26345-3-6-9-3-6-4-2-5-6-8-7-9-0-90-3-1-3-9-2-2-8-5-0-2-3-5-16-6"><rect class="cls-23" x="30.667" y="54.894" width="3.4" height="4.25"/></g><path id="path26341-4-2-6-0-8-1-1-1-5-0-3-3-1-8-3-8-7-7-7-2-4-9-7-2-3-5-16-6" class="cls-24" d="M34.067,58.425V55.6h-3.4v2.83Z" transform="translate(-0.001 -0.001)"/></g><g id="транзистор"><rect class="cls-25" x="60.073" y="42.313" width="2.813" height="6.573"/><rect class="cls-8" x="62.887" y="45.081" width="2.264" height="1.234"/><rect class="cls-8" x="57.376" y="42.925" width="2.697" height="1.291"/><rect class="cls-8" x="57.376" y="47.14" width="2.697" height="1.291"/></g><g id="транзистор-2" data-name="транзистор"><rect class="cls-25" x="31.676" y="64.874" width="1.698" height="3.969"/><rect class="cls-8" x="30.309" y="66.545" width="1.367" height="0.745"/><rect class="cls-8" x="33.374" y="65.243" width="1.629" height="0.78"/><rect class="cls-8" x="33.374" y="67.788" width="1.629" height="0.78"/></g><g id="конденсатор"><rect class="cls-26" x="59.487" y="68.004" width="1.308" height="1.055"/><rect class="cls-26" x="59.473" y="66.537" width="1.308" height="1.055"/><rect class="cls-27" x="59.581" y="66.996" width="1.105" height="1.586"/></g><g id="конденсатор-2" data-name="конденсатор"><rect class="cls-26" x="66.488" y="68.004" width="1.308" height="1.055"/><rect class="cls-26" x="66.473" y="66.537" width="1.308" height="1.055"/><rect class="cls-27" x="66.582" y="66.996" width="1.105" height="1.586"/></g><g id="конденсатор-3" data-name="конденсатор"><rect class="cls-26" x="59.487" y="85.201" width="1.308" height="1.055"/><rect class="cls-26" x="59.473" y="83.734" width="1.308" height="1.055"/><rect class="cls-27" x="59.581" y="84.193" width="1.105" height="1.586"/></g><g id="конденсатор-4" data-name="конденсатор"><rect class="cls-26" x="66.488" y="85.201" width="1.308" height="1.055"/><rect class="cls-26" x="66.473" y="83.734" width="1.308" height="1.055"/><rect class="cls-27" x="66.582" y="84.193" width="1.105" height="1.586"/></g><g id="конденсатор-5" data-name="конденсатор"><rect class="cls-26" x="66.488" y="59.317" width="1.308" height="1.055"/><rect class="cls-26" x="66.473" y="57.85" width="1.308" height="1.055"/><rect class="cls-27" x="66.582" y="58.309" width="1.105" height="1.586"/></g><g id="конденсатор-6" data-name="конденсатор"><rect class="cls-26" x="60.824" y="39.262" width="1.055" height="1.308"/><rect class="cls-26" x="59.357" y="39.277" width="1.055" height="1.308"/><rect class="cls-27" x="59.816" y="39.37" width="1.586" height="1.105"/></g><g id="конденсатор-7" data-name="конденсатор"><rect class="cls-26" x="32.736" y="45.186" width="1.308" height="1.055"/><rect class="cls-26" x="32.721" y="43.719" width="1.308" height="1.055"/><rect class="cls-27" x="32.83" y="44.178" width="1.105" height="1.586"/></g><g id="конденсатор-8" data-name="конденсатор"><rect class="cls-26" x="32.502" y="49.194" width="1.055" height="1.308"/><rect class="cls-26" x="31.035" y="49.209" width="1.055" height="1.308"/><rect class="cls-27" x="31.494" y="49.303" width="1.586" height="1.105"/></g><g id="конденсатор-9" data-name="конденсатор"><rect class="cls-26" x="32.809" y="78.097" width="1.055" height="1.308"/><rect class="cls-26" x="31.342" y="78.111" width="1.055" height="1.308"/><rect class="cls-27" x="31.801" y="78.205" width="1.586" height="1.105"/></g><g id="конденсатор-10" data-name="конденсатор"><rect class="cls-26" x="32.809" y="81.102" width="1.055" height="1.308"/><rect class="cls-26" x="31.342" y="81.116" width="1.055" height="1.308"/><rect class="cls-27" x="31.801" y="81.21" width="1.586" height="1.105"/></g><g id="конденсатор-11" data-name="конденсатор"><rect class="cls-26" x="33.312" y="84.728" width="1.308" height="1.055"/><rect class="cls-26" x="33.327" y="86.195" width="1.308" height="1.055"/><rect class="cls-27" x="33.421" y="85.205" width="1.105" height="1.586"/></g><g id="чип"><rect class="cls-17" x="46.476" y="72.891" width="0.943" height="1.341"/><line class="cls-28" x1="46.964" y1="73.023" x2="46.964" y2="74.343"/><rect class="cls-17" x="45.226" y="72.891" width="0.943" height="1.341"/><line class="cls-28" x1="45.714" y1="73.023" x2="45.714" y2="74.343"/><line class="cls-28" x1="45.714" y1="73.023" x2="45.714" y2="74.343"/><rect class="cls-17" x="43.976" y="72.893" width="0.943" height="1.341"/><line class="cls-28" x1="44.467" y1="73.021" x2="44.467" y2="74.341"/><line class="cls-28" x1="44.467" y1="73.021" x2="44.467" y2="74.341"/><rect class="cls-17" x="41.476" y="72.893" width="0.943" height="1.341"/><line class="cls-28" x1="41.963" y1="73.021" x2="41.963" y2="74.341"/><rect class="cls-17" x="42.726" y="72.893" width="0.943" height="1.341"/><line class="cls-28" x1="43.217" y1="73.021" x2="43.217" y2="74.341"/><rect class="cls-17" x="48.976" y="72.892" width="0.943" height="1.341"/><line class="cls-28" x1="49.46" y1="73.022" x2="49.46" y2="74.342"/><line class="cls-28" x1="49.46" y1="73.022" x2="49.46" y2="74.342"/><rect class="cls-17" x="47.726" y="72.891" width="0.943" height="1.341"/><line class="cls-28" x1="48.21" y1="73.02" x2="48.214" y2="74.343"/><rect class="cls-17" x="39.695" y="77.219" width="1.341" height="0.943"/><line class="cls-28" x1="39.827" y1="77.674" x2="41.147" y2="77.674"/><rect class="cls-17" x="39.695" y="78.469" width="1.341" height="0.943"/><line class="cls-28" x1="39.827" y1="78.924" x2="41.147" y2="78.924"/><line class="cls-28" x1="39.827" y1="78.924" x2="41.147" y2="78.924"/><rect class="cls-17" x="39.697" y="79.719" width="1.341" height="0.943"/><line class="cls-28" x1="39.825" y1="80.171" x2="41.145" y2="80.171"/><line class="cls-28" x1="39.825" y1="80.171" x2="41.145" y2="80.171"/><rect class="cls-17" x="39.697" y="82.219" width="1.341" height="0.943"/><line class="cls-28" x1="39.825" y1="82.675" x2="41.145" y2="82.675"/><rect class="cls-17" x="39.697" y="80.969" width="1.341" height="0.943"/><line class="cls-28" x1="39.825" y1="81.421" x2="41.145" y2="81.421"/><rect class="cls-17" x="39.696" y="74.72" width="1.341" height="0.943"/><line class="cls-28" x1="39.826" y1="75.178" x2="41.146" y2="75.178"/><line class="cls-28" x1="39.826" y1="75.178" x2="41.146" y2="75.178"/><rect class="cls-17" x="39.695" y="75.97" width="1.341" height="0.943"/><line class="cls-28" x1="39.824" y1="76.428" x2="41.147" y2="76.424"/><rect class="cls-17" x="50.41" y="77.219" width="1.341" height="0.943"/><line class="cls-28" x1="51.618" y1="77.674" x2="50.298" y2="77.674"/><rect class="cls-17" x="50.409" y="78.469" width="1.341" height="0.943"/><line class="cls-28" x1="51.618" y1="78.924" x2="50.298" y2="78.924"/><line class="cls-28" x1="51.618" y1="78.924" x2="50.298" y2="78.924"/><rect class="cls-17" x="50.408" y="79.719" width="1.341" height="0.943"/><line class="cls-28" x1="51.62" y1="80.171" x2="50.3" y2="80.171"/><line class="cls-28" x1="51.62" y1="80.171" x2="50.3" y2="80.171"/><rect class="cls-17" x="50.407" y="82.219" width="1.341" height="0.943"/><line class="cls-28" x1="51.62" y1="82.675" x2="50.3" y2="82.675"/><rect class="cls-17" x="50.408" y="80.969" width="1.341" height="0.943"/><line class="cls-28" x1="51.62" y1="81.421" x2="50.3" y2="81.421"/><rect class="cls-17" x="50.408" y="74.72" width="1.341" height="0.943"/><line class="cls-28" x1="51.619" y1="75.178" x2="50.299" y2="75.178"/><line class="cls-28" x1="51.619" y1="75.178" x2="50.299" y2="75.178"/><rect class="cls-17" x="50.41" y="75.97" width="1.341" height="0.943"/><line class="cls-28" x1="51.621" y1="76.428" x2="50.298" y2="76.424"/><rect class="cls-17" x="46.477" y="83.654" width="0.943" height="1.341"/><line class="cls-28" x1="46.965" y1="84.863" x2="46.965" y2="83.543"/><rect class="cls-17" x="45.227" y="83.654" width="0.943" height="1.341"/><line class="cls-28" x1="45.715" y1="84.863" x2="45.715" y2="83.543"/><line class="cls-28" x1="45.715" y1="84.863" x2="45.715" y2="83.543"/><rect class="cls-17" x="43.977" y="83.652" width="0.943" height="1.341"/><line class="cls-28" x1="44.468" y1="84.865" x2="44.468" y2="83.545"/><line class="cls-28" x1="44.468" y1="84.865" x2="44.468" y2="83.545"/><rect class="cls-17" x="41.477" y="83.652" width="0.943" height="1.341"/><line class="cls-28" x1="41.964" y1="84.865" x2="41.964" y2="83.545"/><rect class="cls-17" x="42.727" y="83.652" width="0.943" height="1.341"/><line class="cls-28" x1="43.218" y1="84.865" x2="43.218" y2="83.545"/><rect class="cls-17" x="48.976" y="83.653" width="0.943" height="1.341"/><line class="cls-28" x1="49.461" y1="84.864" x2="49.461" y2="83.544"/><line class="cls-28" x1="49.461" y1="84.864" x2="49.461" y2="83.544"/><rect class="cls-17" x="47.726" y="83.654" width="0.943" height="1.341"/><line class="cls-28" x1="48.211" y1="84.866" x2="48.215" y2="83.543"/><path class="cls-29" d="M49.5,83.541H41.9a.8.8,0,0,1-.8-.8V75.139a.8.8,0,0,1,.8-.8H49.5a.8.8,0,0,1,.8.8v7.605A.8.8,0,0,1,49.5,83.541Z" transform="translate(-0.001 -0.001)"/></g><rect class="cls-20" x="38.753" y="45.386" width="13.94" height="10.81"/><rect class="cls-19" x="39.473" y="56.186" width="1.77" height="5.07"/><rect class="cls-19" x="43.113" y="56.186" width="1.76" height="5.07"/><rect class="cls-19" x="46.753" y="56.186" width="1.76" height="5.07"/><rect class="cls-19" x="50.353" y="56.186" width="1.76" height="5.07"/><rect class="cls-19" x="50.353" y="40.306" width="1.76" height="5.07"/><rect class="cls-19" x="46.713" y="40.306" width="1.77" height="5.07"/><rect class="cls-19" x="43.073" y="40.306" width="1.77" height="5.07"/><rect class="cls-19" x="39.433" y="40.306" width="1.76" height="5.07"/><g id="_102" data-name="102"><rect class="cls-30" x="46.428" y="66.8" width="1.612" height="1.996"/><rect class="cls-30" x="49.771" y="66.781" width="1.612" height="1.996"/><rect class="cls-25" x="47.71" y="66.945" width="2.42" height="1.692"/><path class="cls-31" d="M48.5,68h-.3v-.056h.115V67.58H48.2v-.05a.289.289,0,0,0,.05,0,.107.107,0,0,0,.04-.011.077.077,0,0,0,.027-.023.081.081,0,0,0,.011-.038h.057v.493H48.5Z" transform="translate(-0.001 -0.001)"/><path class="cls-31" d="M48.934,67.729a.4.4,0,0,1-.046.216.161.161,0,0,1-.144.069.156.156,0,0,1-.143-.07.391.391,0,0,1-.046-.214.406.406,0,0,1,.046-.216.16.16,0,0,1,.143-.07.157.157,0,0,1,.144.071A.4.4,0,0,1,48.934,67.729Zm-.1.167a.31.31,0,0,0,.018-.07.9.9,0,0,0,0-.1.917.917,0,0,0,0-.1.284.284,0,0,0-.018-.07.106.106,0,0,0-.035-.042.1.1,0,0,0-.058-.015.1.1,0,0,0-.057.015.085.085,0,0,0-.035.043.228.228,0,0,0-.018.071.946.946,0,0,0,0,.1.873.873,0,0,0,0,.1.185.185,0,0,0,.018.069.086.086,0,0,0,.033.043.1.1,0,0,0,.059.016.106.106,0,0,0,.058-.015A.08.08,0,0,0,48.837,67.9Z" transform="translate(-0.001 -0.001)"/><path class="cls-31" d="M49.337,67.729a.385.385,0,0,1-.047.216.183.183,0,0,1-.287,0,.411.411,0,0,1-.045-.214A.406.406,0,0,1,49,67.514a.182.182,0,0,1,.288,0A.406.406,0,0,1,49.337,67.729Zm-.1.167a.233.233,0,0,0,.016-.07.67.67,0,0,0,.006-.1.68.68,0,0,0-.006-.1.194.194,0,0,0-.017-.07.083.083,0,0,0-.036-.042.093.093,0,0,0-.056-.015.1.1,0,0,0-.094.058.231.231,0,0,0-.017.071.946.946,0,0,0,0,.1q0,.057,0,.1a.315.315,0,0,0,.018.069.089.089,0,0,0,.035.043.094.094,0,0,0,.059.016.1.1,0,0,0,.056-.015A.088.088,0,0,0,49.241,67.9Z" transform="translate(-0.001 -0.001)"/><path class="cls-31" d="M49.741,68H49.37v-.077l.078-.066c.026-.022.049-.044.072-.066a.769.769,0,0,0,.1-.108.162.162,0,0,0,.025-.087.085.085,0,0,0-.027-.067.12.12,0,0,0-.079-.024.252.252,0,0,0-.073.012.247.247,0,0,0-.075.036h0v-.077a.321.321,0,0,1,.069-.024.367.367,0,0,1,.085-.011.194.194,0,0,1,.131.041.136.136,0,0,1,.049.11.262.262,0,0,1-.008.058.266.266,0,0,1-.023.052c-.01.015-.022.029-.034.044s-.029.031-.047.049-.054.051-.081.075-.055.046-.078.067h.294Z" transform="translate(-0.001 -0.001)"/></g><g id="_102-2" data-name="102"><rect class="cls-30" x="58.318" y="49.579" width="1.612" height="1.996"/><rect class="cls-30" x="61.66" y="49.56" width="1.612" height="1.996"/><rect class="cls-25" x="59.599" y="49.724" width="2.42" height="1.692"/><path class="cls-31" d="M60.389,50.782h-.3v-.055h.114v-.368h-.114V50.31a.457.457,0,0,0,.05,0,.147.147,0,0,0,.04-.012.083.083,0,0,0,.026-.023.069.069,0,0,0,.012-.038h.057v.494h.111Z" transform="translate(-0.001 -0.001)"/><path class="cls-31" d="M60.824,50.508a.4.4,0,0,1-.047.217.159.159,0,0,1-.143.068.157.157,0,0,1-.144-.069.533.533,0,0,1,0-.431.159.159,0,0,1,.143-.069.161.161,0,0,1,.144.07A.407.407,0,0,1,60.824,50.508Zm-.1.167a.233.233,0,0,0,.016-.07.686.686,0,0,0,0-.1.694.694,0,0,0,0-.1.2.2,0,0,0-.017-.07.105.105,0,0,0-.035-.042.1.1,0,0,0-.057-.015.106.106,0,0,0-.058.015.112.112,0,0,0-.036.043.278.278,0,0,0-.016.071.93.93,0,0,0-.005.1c0,.038,0,.07,0,.1a.268.268,0,0,0,.017.069.1.1,0,0,0,.035.044.1.1,0,0,0,.059.015.109.109,0,0,0,.057-.014A.1.1,0,0,0,60.727,50.675Z" transform="translate(-0.001 -0.001)"/><path class="cls-31" d="M61.227,50.508a.4.4,0,0,1-.047.217.185.185,0,0,1-.287,0,.533.533,0,0,1,0-.431.183.183,0,0,1,.287,0A.407.407,0,0,1,61.227,50.508Zm-.1.167a.266.266,0,0,0,.017-.07.686.686,0,0,0,.005-.1.694.694,0,0,0-.005-.1.224.224,0,0,0-.018-.07.093.093,0,0,0-.092-.057.1.1,0,0,0-.057.015.1.1,0,0,0-.036.043.238.238,0,0,0-.017.071.93.93,0,0,0-.005.1c0,.038,0,.07,0,.1a.232.232,0,0,0,.018.069.089.089,0,0,0,.034.044.1.1,0,0,0,.059.015.109.109,0,0,0,.057-.014A.094.094,0,0,0,61.13,50.675Z" transform="translate(-0.001 -0.001)"/><path class="cls-31" d="M61.63,50.782h-.371v-.076l.078-.067q.039-.033.072-.066a.664.664,0,0,0,.1-.108.161.161,0,0,0,.026-.087.083.083,0,0,0-.028-.067.118.118,0,0,0-.079-.024.246.246,0,0,0-.072.012.278.278,0,0,0-.076.036h0v-.077a.313.313,0,0,1,.07-.024.352.352,0,0,1,.084-.011.2.2,0,0,1,.132.041.137.137,0,0,1,.048.11.221.221,0,0,1-.008.059.23.23,0,0,1-.023.051.346.346,0,0,1-.034.044.513.513,0,0,1-.047.05c-.026.025-.053.05-.082.074s-.053.047-.078.067h.3Z" transform="translate(-0.001 -0.001)"/></g><g id="_102-3" data-name="102"><rect class="cls-30" x="30.342" y="69.996" width="1.612" height="1.996"/><rect class="cls-30" x="33.685" y="69.977" width="1.612" height="1.996"/><rect class="cls-25" x="31.624" y="70.142" width="2.42" height="1.692"/><path class="cls-31" d="M32.413,71.2h-.3v-.055h.115v-.368h-.115v-.049a.438.438,0,0,0,.05,0,.127.127,0,0,0,.04-.012.087.087,0,0,0,.027-.023.069.069,0,0,0,.011-.038H32.3v.494h.111Z" transform="translate(-0.001 -0.001)"/><path class="cls-31" d="M32.848,70.925a.4.4,0,0,1-.047.217.185.185,0,0,1-.287,0,.533.533,0,0,1,0-.431.183.183,0,0,1,.287,0A.407.407,0,0,1,32.848,70.925Zm-.1.167a.266.266,0,0,0,.017-.07.686.686,0,0,0,.005-.1.694.694,0,0,0-.005-.1.224.224,0,0,0-.018-.07.091.091,0,0,0-.035-.042.1.1,0,0,0-.056-.015.095.095,0,0,0-.094.058.238.238,0,0,0-.017.071.93.93,0,0,0-.005.1c0,.038,0,.07,0,.1a.232.232,0,0,0,.018.069.1.1,0,0,0,.034.044.107.107,0,0,0,.06.015.106.106,0,0,0,.056-.014A.094.094,0,0,0,32.751,71.092Z" transform="translate(-0.001 -0.001)"/><path class="cls-31" d="M33.251,70.925a.388.388,0,0,1-.047.217.185.185,0,0,1-.287,0,.533.533,0,0,1,0-.431.183.183,0,0,1,.287,0A.4.4,0,0,1,33.251,70.925Zm-.1.167a.315.315,0,0,0,.016-.07.686.686,0,0,0,.005-.1.694.694,0,0,0-.005-.1.256.256,0,0,0-.017-.07.1.1,0,0,0-.036-.042.1.1,0,0,0-.056-.015.1.1,0,0,0-.058.015.112.112,0,0,0-.036.043.238.238,0,0,0-.017.071c0,.029,0,.061,0,.1s0,.07,0,.1a.206.206,0,0,0,.017.069.1.1,0,0,0,.034.044.107.107,0,0,0,.06.015.106.106,0,0,0,.056-.014A.1.1,0,0,0,33.155,71.092Z" transform="translate(-0.001 -0.001)"/><path class="cls-31" d="M33.655,71.2h-.371v-.076c.026-.023.051-.045.078-.067l.072-.066a.717.717,0,0,0,.1-.108.169.169,0,0,0,.025-.087.086.086,0,0,0-.027-.067.12.12,0,0,0-.079-.024.252.252,0,0,0-.073.012.309.309,0,0,0-.076.036h0v-.077a.332.332,0,0,1,.07-.024.359.359,0,0,1,.084-.011.2.2,0,0,1,.132.041.134.134,0,0,1,.048.11.221.221,0,0,1-.008.059.192.192,0,0,1-.023.051.459.459,0,0,1-.033.044c-.013.015-.029.032-.047.05s-.054.05-.082.074l-.078.067h.3Z" transform="translate(-0.001 -0.001)"/></g><g id="_102-4" data-name="102"><rect class="cls-30" x="29.327" y="45.72" width="1.996" height="1.612"/><rect class="cls-30" x="29.308" y="42.378" width="1.996" height="1.612"/><rect class="cls-25" x="29.473" y="43.63" width="1.692" height="2.42"/><path class="cls-31" d="M30.531,45.262v.3h-.056v-.115h-.367v.115h-.05a.438.438,0,0,0,0-.05.127.127,0,0,0-.012-.04.075.075,0,0,0-.023-.027.078.078,0,0,0-.038-.011v-.057h.494v-.112Z" transform="translate(-0.001 -0.001)"/><path class="cls-31" d="M30.256,44.828a.4.4,0,0,1,.217.047.185.185,0,0,1,0,.287.533.533,0,0,1-.431,0,.16.16,0,0,1-.069-.143.158.158,0,0,1,.07-.144A.4.4,0,0,1,30.256,44.828Zm.167.1a.256.256,0,0,0-.07-.017.686.686,0,0,0-.1-.005.7.7,0,0,0-.1.005.266.266,0,0,0-.07.017.105.105,0,0,0-.042.035.1.1,0,0,0-.014.058.1.1,0,0,0,.014.057.1.1,0,0,0,.043.036.247.247,0,0,0,.071.017.959.959,0,0,0,.1,0,.873.873,0,0,0,.1,0,.233.233,0,0,0,.069-.017.1.1,0,0,0,.044-.034.105.105,0,0,0,.015-.059.116.116,0,0,0-.014-.058A.092.092,0,0,0,30.423,44.925Z" transform="translate(-0.001 -0.001)"/><path class="cls-31" d="M30.256,44.425a.4.4,0,0,1,.217.046.16.16,0,0,1,.068.143.157.157,0,0,1-.069.144.4.4,0,0,1-.215.046.406.406,0,0,1-.216-.046.161.161,0,0,1-.069-.144.159.159,0,0,1,.07-.144A.408.408,0,0,1,30.256,44.425Zm.167.1a.256.256,0,0,0-.07-.017.9.9,0,0,0-.1,0,.929.929,0,0,0-.1,0,.231.231,0,0,0-.07.018.1.1,0,0,0-.042.035.123.123,0,0,0,0,.114.1.1,0,0,0,.043.037.285.285,0,0,0,.071.017.959.959,0,0,0,.1,0,.873.873,0,0,0,.1,0,.268.268,0,0,0,.069-.017.092.092,0,0,0,.044-.035.1.1,0,0,0,.015-.059.109.109,0,0,0-.014-.057A.1.1,0,0,0,30.423,44.521Z" transform="translate(-0.001 -0.001)"/><path class="cls-31" d="M30.531,44.021v.371h-.078l-.066-.078c-.021-.025-.044-.049-.065-.072a.686.686,0,0,0-.109-.1.153.153,0,0,0-.087-.026.087.087,0,0,0-.067.027.12.12,0,0,0-.024.079.252.252,0,0,0,.012.073.309.309,0,0,0,.036.076v0h-.077a.36.36,0,0,1-.024-.069.367.367,0,0,1-.011-.085.2.2,0,0,1,.041-.132.14.14,0,0,1,.11-.048.227.227,0,0,1,.059.008.215.215,0,0,1,.051.024.429.429,0,0,1,.045.033l.049.047c.025.027.05.053.075.082l.066.078v-.3Z" transform="translate(-0.001 -0.001)"/></g><g id="_102-5" data-name="102"><rect class="cls-30" x="30.342" y="73.181" width="1.612" height="1.996"/><rect class="cls-30" x="33.685" y="73.162" width="1.612" height="1.996"/><rect class="cls-25" x="31.624" y="73.327" width="2.42" height="1.692"/><path class="cls-31" d="M32.413,74.384h-.3v-.055h.115v-.368h-.115v-.049a.438.438,0,0,0,.05,0,.127.127,0,0,0,.04-.012.087.087,0,0,0,.027-.023.069.069,0,0,0,.011-.038H32.3v.494h.111Z" transform="translate(-0.001 -0.001)"/><path class="cls-31" d="M32.848,74.11a.4.4,0,0,1-.047.217.183.183,0,0,1-.287,0,.531.531,0,0,1,0-.43.182.182,0,0,1,.287,0A.407.407,0,0,1,32.848,74.11Zm-.1.167a.266.266,0,0,0,.017-.07.686.686,0,0,0,.005-.1.7.7,0,0,0-.005-.1.224.224,0,0,0-.018-.07.091.091,0,0,0-.035-.042.1.1,0,0,0-.056-.015.095.095,0,0,0-.094.058.238.238,0,0,0-.017.071.93.93,0,0,0-.005.1c0,.038,0,.07,0,.1a.232.232,0,0,0,.018.069.1.1,0,0,0,.034.044.107.107,0,0,0,.06.015.106.106,0,0,0,.056-.014A.094.094,0,0,0,32.751,74.277Z" transform="translate(-0.001 -0.001)"/><path class="cls-31" d="M33.251,74.11a.388.388,0,0,1-.047.217.183.183,0,0,1-.287,0,.531.531,0,0,1,0-.43.182.182,0,0,1,.287,0A.4.4,0,0,1,33.251,74.11Zm-.1.167a.315.315,0,0,0,.016-.07.686.686,0,0,0,.005-.1.7.7,0,0,0-.005-.1.256.256,0,0,0-.017-.07.1.1,0,0,0-.036-.042.1.1,0,0,0-.056-.015A.1.1,0,0,0,33,73.9a.112.112,0,0,0-.036.043.238.238,0,0,0-.017.071c0,.029,0,.061,0,.1s0,.07,0,.1a.206.206,0,0,0,.017.069A.1.1,0,0,0,33,74.32a.107.107,0,0,0,.06.015.106.106,0,0,0,.056-.014A.1.1,0,0,0,33.155,74.277Z" transform="translate(-0.001 -0.001)"/><path class="cls-31" d="M33.655,74.384h-.371v-.076c.026-.023.051-.045.078-.067l.072-.066a.717.717,0,0,0,.1-.108.169.169,0,0,0,.025-.087.086.086,0,0,0-.027-.067.12.12,0,0,0-.079-.024.252.252,0,0,0-.073.012.309.309,0,0,0-.076.036h0V73.86a.332.332,0,0,1,.07-.024.359.359,0,0,1,.084-.011.2.2,0,0,1,.132.041.134.134,0,0,1,.048.11.221.221,0,0,1-.008.059.192.192,0,0,1-.023.051.459.459,0,0,1-.033.044c-.013.016-.029.032-.047.05s-.054.05-.082.074l-.078.067h.3Z" transform="translate(-0.001 -0.001)"/></g><g id="_102-6" data-name="102"><rect class="cls-30" x="29.896" y="86.703" width="1.996" height="1.612"/><rect class="cls-30" x="29.877" y="83.36" width="1.996" height="1.612"/><rect class="cls-25" x="30.042" y="84.613" width="1.692" height="2.42"/><path class="cls-31" d="M31.1,86.246v.3h-.056v-.114h-.367v.114h-.05a.457.457,0,0,0,0-.05.14.14,0,0,0-.011-.04.078.078,0,0,0-.024-.027.075.075,0,0,0-.038-.011v-.057h.494v-.111Z" transform="translate(-0.001 -0.001)"/><path class="cls-31" d="M30.826,85.812a.394.394,0,0,1,.216.046.161.161,0,0,1,.069.143.158.158,0,0,1-.07.144.536.536,0,0,1-.43,0,.162.162,0,0,1-.07-.144.16.16,0,0,1,.071-.144A.406.406,0,0,1,30.826,85.812Zm.166.1a.247.247,0,0,0-.07-.017.844.844,0,0,0-.1-.005.877.877,0,0,0-.1.005.217.217,0,0,0-.07.018.082.082,0,0,0-.042.035A.1.1,0,0,0,30.6,86a.1.1,0,0,0,.015.057.089.089,0,0,0,.042.036.218.218,0,0,0,.072.017.91.91,0,0,0,.095,0c.039,0,.071,0,.1,0a.239.239,0,0,0,.07-.018.088.088,0,0,0,.043-.034A.105.105,0,0,0,31.05,86a.109.109,0,0,0-.014-.057A.089.089,0,0,0,30.992,85.908Z" transform="translate(-0.001 -0.001)"/><path class="cls-31" d="M30.826,85.408a.393.393,0,0,1,.216.047.183.183,0,0,1,0,.287.531.531,0,0,1-.43,0,.16.16,0,0,1-.07-.143.158.158,0,0,1,.071-.144A.4.4,0,0,1,30.826,85.408Zm.166.1a.247.247,0,0,0-.07-.017.662.662,0,0,0-.1,0,.686.686,0,0,0-.1,0,.247.247,0,0,0-.07.017.089.089,0,0,0-.042.036.1.1,0,0,0-.015.057.1.1,0,0,0,.015.057.089.089,0,0,0,.042.036.246.246,0,0,0,.072.017.926.926,0,0,0,.095,0,.85.85,0,0,0,.1,0,.212.212,0,0,0,.07-.017.094.094,0,0,0,.043-.034.105.105,0,0,0,.015-.059.109.109,0,0,0-.014-.057A.084.084,0,0,0,30.992,85.505Z" transform="translate(-0.001 -0.001)"/><path class="cls-31" d="M31.1,85.005v.37h-.077c-.023-.025-.044-.051-.067-.077s-.044-.05-.065-.072a.761.761,0,0,0-.108-.1A.166.166,0,0,0,30.7,85.1a.085.085,0,0,0-.068.028.123.123,0,0,0-.023.078.247.247,0,0,0,.012.073.251.251,0,0,0,.036.076v0h-.077a.394.394,0,0,1-.025-.07.359.359,0,0,1-.011-.084.2.2,0,0,1,.041-.132.139.139,0,0,1,.111-.048.22.22,0,0,1,.058.008.211.211,0,0,1,.051.023.354.354,0,0,1,.045.034.514.514,0,0,1,.049.047c.025.026.051.053.075.081l.066.078v-.294Z" transform="translate(-0.001 -0.001)"/></g><g id="_102-7" data-name="102"><rect class="cls-30" x="58.552" y="52.488" width="1.308" height="1.619"/><rect class="cls-30" x="61.263" y="52.473" width="1.308" height="1.619"/><rect class="cls-25" x="59.591" y="52.606" width="1.963" height="5.769"/></g><g id="_102-8" data-name="102"><rect class="cls-30" x="58.552" y="54.331" width="1.308" height="1.619"/><rect class="cls-30" x="61.263" y="54.315" width="1.308" height="1.619"/></g><g id="_102-9" data-name="102"><rect class="cls-30" x="58.552" y="56.173" width="1.308" height="1.619"/><rect class="cls-30" x="61.263" y="56.158" width="1.308" height="1.619"/></g><g id="_102-10" data-name="102"><rect class="cls-30" x="58.552" y="58.016" width="1.308" height="1.619"/><rect class="cls-30" x="61.263" y="58" width="1.308" height="1.619"/><rect class="cls-25" x="59.591" y="53.716" width="1.963" height="5.789"/></g><g id="D-SMA"><path id="path32590-0-9-7-9-9" class="cls-25" d="M231.822,68.947h-9.567V84.183h9.567Z" transform="translate(-0.001 -0.001)"/><path id="path32578-9-7-2-9-4" class="cls-8" d="M229.681,84.183h-5.294v2.375h5.31Z" transform="translate(-0.001 -0.001)"/><path id="path32578-9-7-2-9-4-2" class="cls-8" d="M229.681,66.506h-5.294v2.375h5.31Z" transform="translate(-0.001 -0.001)"/></g><g id="SOT2223"><path id="path13471-0-1" class="cls-8" d="M139.481,84.386h-10v-6.18h10Z" transform="translate(-0.001 -0.001)"/><path id="path13485-5-7" class="cls-8" d="M129.76,101.816h-3.27v-7.5h3.27Z" transform="translate(-0.001 -0.001)"/><path id="path13499-3-4" class="cls-8" d="M142.534,101.484h-3.271v-7.5h3.271Z" transform="translate(-0.001 -0.001)"/><path id="path13513-8-8" class="cls-8" d="M136.14,101.484h-3.25v-7.5h3.26Z" transform="translate(-0.001 -0.001)"/><path id="path13523-6-9" class="cls-25" d="M143.691,94.215h-18.36V84.332h18.36Z" transform="translate(-0.001 -0.001)"/></g><g id="транзистор-3" data-name="транзистор"><rect class="cls-25" x="162.876" y="91.877" width="3.662" height="8.559"/><rect class="cls-8" x="166.539" y="95.481" width="2.948" height="1.607"/><rect class="cls-8" x="159.364" y="92.673" width="3.512" height="1.681"/><rect class="cls-8" x="159.364" y="98.162" width="3.512" height="1.681"/></g><g id="конденсатор-12" data-name="конденсатор"><rect class="cls-26" x="151.701" y="102.361" width="3.62" height="2.92"/><rect class="cls-26" x="151.661" y="98.301" width="3.62" height="2.92"/><rect class="cls-27" x="151.961" y="99.571" width="3.06" height="4.39"/></g><g id="конденсатор-13" data-name="конденсатор"><rect class="cls-26" x="145.382" y="90.159" width="3.62" height="2.92"/><rect class="cls-26" x="145.342" y="86.099" width="3.62" height="2.92"/></g><g id="конденсатор-14" data-name="конденсатор"><rect class="cls-26" x="138.27" y="115.087" width="2.92" height="3.62"/><rect class="cls-26" x="134.21" y="115.127" width="2.92" height="3.62"/><rect class="cls-27" x="135.48" y="115.387" width="4.39" height="3.06"/></g><g id="_102-11" data-name="102"><rect class="cls-30" x="223.8" y="60.201" width="4.255" height="3.438"/><rect class="cls-30" x="223.759" y="53.073" width="4.255" height="3.438"/><rect class="cls-32" x="224.11" y="55.744" width="3.608" height="5.161"/></g><g id="_102-12" data-name="102"><rect class="cls-30" x="199.8" y="69.396" width="3.438" height="4.255"/><rect class="cls-30" x="206.928" y="69.356" width="3.438" height="4.255"/><rect class="cls-25" x="202.533" y="69.706" width="5.161" height="3.608"/><path class="cls-31" d="M204.124,72.006h-.7v-.131h.268v-.863h-.268V70.9a.831.831,0,0,0,.117-.009.287.287,0,0,0,.094-.027.164.164,0,0,0,.062-.054.171.171,0,0,0,.027-.09h.134v1.16h.262Z" transform="translate(-0.001 -0.001)"/><path class="cls-31" d="M205.145,71.362a.928.928,0,0,1-.109.509.375.375,0,0,1-.336.162.37.37,0,0,1-.338-.164,1.234,1.234,0,0,1,0-1.012.427.427,0,0,1,.675,0A.944.944,0,0,1,205.145,71.362Zm-.228.393a.554.554,0,0,0,.041-.165,1.867,1.867,0,0,0,.011-.228,1.911,1.911,0,0,0-.011-.228.524.524,0,0,0-.042-.164.223.223,0,0,0-.082-.1.24.24,0,0,0-.134-.034.246.246,0,0,0-.135.034.221.221,0,0,0-.084.1.517.517,0,0,0-.04.167,2.2,2.2,0,0,0-.011.225,2.044,2.044,0,0,0,.01.226.527.527,0,0,0,.04.162.223.223,0,0,0,.081.1.241.241,0,0,0,.139.036.249.249,0,0,0,.134-.034A.218.218,0,0,0,204.917,71.755Z" transform="translate(-0.001 -0.001)"/><path class="cls-31" d="M206.092,71.362a.938.938,0,0,1-.108.509.378.378,0,0,1-.337.162.37.37,0,0,1-.338-.164.945.945,0,0,1-.108-.5.936.936,0,0,1,.109-.507.428.428,0,0,1,.676,0A.955.955,0,0,1,206.092,71.362Zm-.227.393a.586.586,0,0,0,.041-.165,2.121,2.121,0,0,0,.01-.228,2.172,2.172,0,0,0-.01-.228.553.553,0,0,0-.042-.164.229.229,0,0,0-.082-.1.285.285,0,0,0-.27,0,.228.228,0,0,0-.084.1.545.545,0,0,0-.04.167,2.2,2.2,0,0,0-.011.225,2.044,2.044,0,0,0,.01.226.558.558,0,0,0,.04.162.23.23,0,0,0,.081.1.241.241,0,0,0,.139.036.255.255,0,0,0,.135-.034A.224.224,0,0,0,205.865,71.755Z" transform="translate(-0.001 -0.001)"/><path class="cls-31" d="M207.042,72.006h-.872v-.18l.183-.156c.06-.052.117-.1.17-.154a1.742,1.742,0,0,0,.227-.256.375.375,0,0,0,.061-.2.2.2,0,0,0-.066-.157.272.272,0,0,0-.184-.057.575.575,0,0,0-.171.028.7.7,0,0,0-.179.085H206.2v-.182a.79.79,0,0,1,.165-.055.816.816,0,0,1,.2-.026.467.467,0,0,1,.31.1.32.32,0,0,1,.113.259.463.463,0,0,1-.019.137.507.507,0,0,1-.055.121.8.8,0,0,1-.079.1c-.03.034-.067.073-.11.115-.062.06-.125.119-.191.176l-.184.157h.692Z" transform="translate(-0.001 -0.001)"/></g><g id="_102-13" data-name="102"><rect class="cls-30" x="212.195" y="70.39" width="4.255" height="3.438"/><rect class="cls-30" x="212.154" y="63.262" width="4.255" height="3.438"/><rect class="cls-32" x="212.505" y="65.933" width="3.608" height="5.161"/></g><g id="_102-14" data-name="102"><rect class="cls-30" x="212.195" y="86.391" width="4.255" height="3.438"/><rect class="cls-30" x="212.154" y="79.263" width="4.255" height="3.438"/><rect class="cls-32" x="212.505" y="81.934" width="3.608" height="5.161"/></g><g id="_102-15" data-name="102"><rect class="cls-30" x="223.299" y="97.373" width="4.255" height="3.438"/><rect class="cls-30" x="223.258" y="90.244" width="4.255" height="3.438"/><rect class="cls-32" x="223.608" y="92.916" width="3.608" height="5.161"/></g><polyline class="cls-33" points="225.792 145.663 227.782 145.663 227.782 138.043 225.792 138.043"/><polyline class="cls-33" points="183.522 138.043 181.532 138.043 181.532 145.663 183.522 145.663"/><polyline class="cls-33" points="222.752 117.143 225.262 117.143 225.262 114.243 221.722 114.243"/><polyline class="cls-33" points="183.522 117.143 181.012 117.143 181.012 114.243 184.542 114.243"/><rect class="cls-33" x="209.842" y="110.343" width="2.57" height="6.04"/><rect class="cls-33" x="206.672" y="110.343" width="2.57" height="6.04"/><rect class="cls-33" x="203.502" y="110.343" width="2.57" height="6.04"/><rect class="cls-33" x="200.332" y="110.343" width="2.57" height="6.04"/><rect class="cls-33" x="197.162" y="110.343" width="2.57" height="6.04"/><rect class="cls-33" x="193.982" y="110.343" width="2.57" height="6.04"/><rect class="cls-33" x="190.812" y="110.343" width="2.57" height="6.04"/><rect class="cls-33" x="187.642" y="110.343" width="2.57" height="6.04"/><rect class="cls-33" x="184.472" y="110.343" width="2.57" height="6.04"/><path class="cls-34" d="M225.793,155.753v-36.86a.29.29,0,0,0-.29-.29h-2.46a.29.29,0,0,1-.29-.29h0v-3.78a.29.29,0,0,0-.29-.29H183.8a.281.281,0,0,0-.281.28v39.19a.28.28,0,0,0,.225.326.25.25,0,0,0,.055,0h26.15l8,2h7.55a.29.29,0,0,0,.29-.29Z" transform="translate(-0.001 -0.001)"/><rect class="cls-35" x="183.512" y="118.683" width="3.07" height="11"/><polygon class="cls-36" points="183.522 115.243 186.582 116.133 186.582 118.683 183.522 118.683 183.522 115.243"/><path class="cls-37" d="M183.743,129.793l.78-1.3a2.639,2.639,0,0,0,.21-1.5,2.091,2.091,0,0,0-.09-.33l-.79-2.87a1.924,1.924,0,0,1-.12-.53,2.306,2.306,0,0,1,.45-1.58l.77-1.3" transform="translate(-0.001 -0.001)"/><polygon class="cls-35" points="225.742 150.963 224.892 150.963 224.892 137.873 219.362 137.873 219.362 141.633 221.952 144.493 221.952 150.963 221.212 150.963 221.212 144.663 218.632 141.743 218.632 137.163 225.742 137.163 225.742 150.963"/><path class="cls-35" d="M208.773,128.883v8.16a.18.18,0,0,1-.17.17h-.49a.18.18,0,0,1-.17-.17v-9a.17.17,0,0,1,.17-.17h4.06a.17.17,0,0,1,.17.17v9a.18.18,0,0,1-.17.17h-.46a.18.18,0,0,1-.17-.17v-8.12a.181.181,0,0,0-.17-.18h-2.43A.18.18,0,0,0,208.773,128.883Z" transform="translate(-0.001 -0.001)"/><path class="cls-35" d="M188.913,128.883v8.16a.18.18,0,0,1-.17.17h-.49a.18.18,0,0,1-.17-.17v-9a.17.17,0,0,1,.17-.17h4.06a.17.17,0,0,1,.17.17v9a.18.18,0,0,1-.17.17h-.46a.18.18,0,0,1-.17-.17v-8.12a.181.181,0,0,0-.17-.18h-2.43A.18.18,0,0,0,188.913,128.883Z" transform="translate(-0.001 -0.001)"/><line class="cls-38" x1="225.622" y1="136.933" x2="225.622" y2="155.753"/><g id="конденсатор-15" data-name="конденсатор"><rect class="cls-17" x="137.082" y="107.808" width="2.343" height="5.118"/><rect class="cls-17" x="143.858" y="107.76" width="2.343" height="5.118"/><rect class="cls-32" x="138.571" y="108.18" width="6.2" height="4.337"/></g></g></svg>