<svg id="_1582" data-name="1582" xmlns="http://www.w3.org/2000/svg" xmlns:xlink="http://www.w3.org/1999/xlink" viewBox="0 0 284.882 156.097"><defs><style>.cls-1{fill:#dd962f;}.cls-2{fill:#f9e382;}.cls-3{fill:#54391b;}.cls-3,.cls-5,.cls-6{fill-opacity:0.944;}.cls-12,.cls-14,.cls-15,.cls-16,.cls-4{fill:none;stroke-miterlimit:10;}.cls-4{stroke:#c15f0e;}.cls-5,.cls-6{opacity:0.77;}.cls-5{fill:url(#linear-gradient);}.cls-6{fill:url(#linear-gradient-2);}.cls-13,.cls-7{fill:#fff;}.cls-8{fill:#0d0e0f;}.cls-9{fill:url(#linear-gradient-3);}.cls-10{fill:#313131;}.cls-11{fill:#e39344;}.cls-12{stroke:#666566;stroke-width:0.25px;}.cls-13{opacity:0.2;}.cls-13,.cls-16{isolation:isolate;}.cls-14,.cls-15,.cls-16{stroke:#fff;}.cls-14{stroke-width:1.5px;}.cls-15,.cls-16{stroke-width:4px;}.cls-16{opacity:0.7;}</style><linearGradient id="linear-gradient" x1="19.888" y1="73.432" x2="24.859" y2="73.432" gradientTransform="translate(-51.058 95.805) rotate(-90)" gradientUnits="userSpaceOnUse"><stop offset="0.005" stop-color="#b86d00"/><stop offset="0.029" stop-color="#b06801"/><stop offset="0.114" stop-color="#985b05"/><stop offset="0.204" stop-color="#875108"/><stop offset="0.303" stop-color="#7d4b09"/><stop offset="0.425" stop-color="#7a490a"/><stop offset="0.982" stop-color="#a15f14" stop-opacity="0"/></linearGradient><linearGradient id="linear-gradient-2" x1="-792.427" y1="-244.818" x2="-792.427" y2="-249.811" gradientTransform="translate(814.782 279.992)" xlink:href="#linear-gradient"/><linearGradient id="linear-gradient-3" x1="45.214" y1="290.676" x2="259.137" y2="290.676" gradientTransform="matrix(1, 0, 0, -1, 0, 368.724)" gradientUnits="userSpaceOnUse"><stop offset="0.016" stop-color="#313131" stop-opacity="0.7"/><stop offset="0.027" stop-color="#252525" stop-opacity="0.716"/><stop offset="0.05" stop-color="#141414" stop-opacity="0.748"/><stop offset="0.078" stop-color="#090909" stop-opacity="0.788"/><stop offset="0.117" stop-color="#020202" stop-opacity="0.844"/><stop offset="0.226"/><stop offset="0.449" stop-color="#0c0c0b"/><stop offset="0.869" stop-color="#0d0e0f"/><stop offset="0.883" stop-color="#111212"/><stop offset="0.901" stop-color="#171919"/><stop offset="0.921" stop-color="#202222"/><stop offset="0.943" stop-color="#2f3031"/><stop offset="0.966" stop-color="#454747"/><stop offset="0.99" stop-color="#636364"/><stop offset="0.992" stop-color="#666566"/></linearGradient></defs><g id="top"><path class="cls-1" d="M278.875,0H6.007A6.006,6.006,0,0,0,0,6.007V149.728a6.006,6.006,0,0,0,6.007,6.007H278.875a6.007,6.007,0,0,0,6.007-6.007V6.007A6.007,6.007,0,0,0,278.875,0ZM9.046,151.2a4.536,4.536,0,1,1,4.535-4.535A4.536,4.536,0,0,1,9.046,151.2Zm0-137.594a4.536,4.536,0,1,1,4.535-4.535A4.535,4.535,0,0,1,9.046,13.606ZM275.811,151.2a4.536,4.536,0,1,1,4.535-4.535A4.535,4.535,0,0,1,275.811,151.2Zm0-137.594a4.536,4.536,0,1,1,4.535-4.535A4.535,4.535,0,0,1,275.811,13.606Z"/><path class="cls-2" d="M9.046,4.535A4.536,4.536,0,1,1,4.51,9.071,4.535,4.535,0,0,1,9.046,4.535m0-1.417A5.953,5.953,0,1,0,15,9.071,5.96,5.96,0,0,0,9.046,3.118Z"/><path class="cls-2" d="M9.046,142.129a4.536,4.536,0,1,1-4.536,4.536,4.535,4.535,0,0,1,4.536-4.536m0-1.417A5.953,5.953,0,1,0,15,146.665a5.959,5.959,0,0,0-5.953-5.953Z"/><path class="cls-2" d="M275.811,4.535a4.536,4.536,0,1,1-4.535,4.536,4.535,4.535,0,0,1,4.535-4.536m0-1.417a5.953,5.953,0,1,0,5.953,5.953,5.96,5.96,0,0,0-5.953-5.953Z"/><path class="cls-2" d="M275.811,142.129a4.536,4.536,0,1,1-4.535,4.536,4.535,4.535,0,0,1,4.535-4.536m0-1.417a5.953,5.953,0,1,0,5.953,5.953,5.96,5.96,0,0,0-5.953-5.953Z"/><rect class="cls-3" x="-29.718" y="70.946" width="104.184" height="4.971" transform="translate(95.805 51.058) rotate(90)"/><path class="cls-4" d="M24.859,59.425h-4.97"/><path class="cls-4" d="M24.859,60.9h-4.97"/><path class="cls-4" d="M24.859,62.375h-4.97"/><path class="cls-4" d="M24.859,63.85h-4.97"/><path class="cls-4" d="M24.859,68.688h-4.97"/><path class="cls-4" d="M24.859,72.513h-4.97"/><path class="cls-4" d="M24.859,75.7h-4.97"/><path class="cls-4" d="M24.859,54.55h-5"/><rect class="cls-5" x="-29.719" y="70.946" width="104.184" height="4.972" transform="translate(95.805 51.058) rotate(90)"/><rect class="cls-6" x="11.017" y="30.181" width="22.676" height="4.993" transform="translate(55.033 10.322) rotate(90)"/><rect class="cls-7" x="22.393" width="241.224" height="156.097"/><rect class="cls-8" x="22.393" y="25.756" width="7.581" height="104.585"/><rect class="cls-9" x="45.214" y="5.62" width="213.924" height="144.858"/><rect class="cls-10" x="29.974" y="5.62" width="20.676" height="144.858"/><rect class="cls-11" x="22.393" y="39.024" width="7.581" height="78.049"/><line class="cls-12" x1="29.974" y1="41.382" x2="22.393" y2="41.382"/><line class="cls-12" x1="29.974" y1="52.396" x2="22.393" y2="52.396"/><line class="cls-12" x1="29.974" y1="51.294" x2="22.393" y2="51.294"/><line class="cls-12" x1="29.974" y1="50.193" x2="22.393" y2="50.193"/><line class="cls-12" x1="29.974" y1="49.092" x2="22.393" y2="49.092"/><line class="cls-12" x1="29.974" y1="47.99" x2="22.393" y2="47.99"/><line class="cls-12" x1="29.974" y1="46.889" x2="22.393" y2="46.889"/><line class="cls-12" x1="29.974" y1="63.409" x2="22.393" y2="63.409"/><line class="cls-12" x1="29.974" y1="62.308" x2="22.393" y2="62.308"/><line class="cls-12" x1="29.974" y1="61.207" x2="22.393" y2="61.207"/><line class="cls-12" x1="29.974" y1="60.105" x2="22.393" y2="60.105"/><line class="cls-12" x1="29.974" y1="74.423" x2="22.393" y2="74.423"/><line class="cls-12" x1="29.974" y1="75.524" x2="22.393" y2="75.524"/><line class="cls-12" x1="29.974" y1="76.626" x2="22.393" y2="76.626"/><line class="cls-12" x1="29.974" y1="85.436" x2="22.393" y2="85.436"/><line class="cls-12" x1="29.974" y1="96.45" x2="22.393" y2="96.45"/><line class="cls-12" x1="29.974" y1="95.349" x2="22.393" y2="95.349"/><line class="cls-12" x1="29.974" y1="94.247" x2="22.393" y2="94.247"/><line class="cls-12" x1="29.974" y1="93.146" x2="22.393" y2="93.146"/><line class="cls-12" x1="29.974" y1="92.045" x2="22.393" y2="92.045"/><line class="cls-12" x1="29.974" y1="90.943" x2="22.393" y2="90.943"/><line class="cls-12" x1="29.974" y1="89.842" x2="22.393" y2="89.842"/><line class="cls-12" x1="29.974" y1="88.74" x2="22.393" y2="88.74"/><line class="cls-12" x1="29.974" y1="87.639" x2="22.393" y2="87.639"/><line class="cls-12" x1="29.974" y1="86.538" x2="22.393" y2="86.538"/><line class="cls-12" x1="29.974" y1="107.463" x2="22.393" y2="107.463"/><line class="cls-12" x1="29.974" y1="106.362" x2="22.393" y2="106.362"/><line class="cls-12" x1="29.974" y1="105.261" x2="22.393" y2="105.261"/><line class="cls-12" x1="29.974" y1="104.159" x2="22.393" y2="104.159"/><line class="cls-12" x1="29.974" y1="103.058" x2="22.393" y2="103.058"/><rect class="cls-13" x="29.974" y="5.619" width="229.163" height="144.858"/><path class="cls-10" d="M22.393,0V156.1H263.617V0ZM259.137,150.478H29.974V5.619H259.137Z"/><path class="cls-11" d="M24.715,47.99H22.393l-1.034-1.1V24.6l1.034-.624h2.322a.661.661,0,0,1,.689.624V47.366A.661.661,0,0,1,24.715,47.99Z"/><path class="cls-14" d="M31.039,2.81V151.727a1.633,1.633,0,0,0,1.7,1.561H259.681a1.633,1.633,0,0,0,1.7-1.561V4.371a1.633,1.633,0,0,0-1.7-1.561H29.874a1.633,1.633,0,0,0-1.7,1.561V28"/><line class="cls-15" x1="22.393" y1="28.003" x2="28.924" y2="28.003"/><line class="cls-15" x1="22.393" y1="39.016" x2="30.416" y2="39.016"/><line class="cls-15" x1="22.393" y1="44.523" x2="30.416" y2="44.523"/><line class="cls-15" x1="22.393" y1="33.51" x2="30.416" y2="33.51"/><line class="cls-16" x1="25.404" y1="44.523" x2="30.416" y2="44.523"/><line class="cls-15" x1="25.404" y1="39.016" x2="26.486" y2="39.016"/><line class="cls-16" x1="25.404" y1="33.51" x2="26.486" y2="33.51"/></g></svg>