<svg id="_1582" data-name="1582" xmlns="http://www.w3.org/2000/svg" xmlns:xlink="http://www.w3.org/1999/xlink" viewBox="0 0 594.897 156.097"><defs><style>.cls-1{fill:#181818;}.cls-2{fill:#c97e1b;}.cls-3{fill:#dd962f;}.cls-4{fill:#f9e382;}.cls-47,.cls-5{fill:#fff;}.cls-18,.cls-28,.cls-37,.cls-38,.cls-40,.cls-46,.cls-48,.cls-49,.cls-50,.cls-6{fill:none;}.cls-48,.cls-49,.cls-50,.cls-6{stroke:#fff;}.cls-18,.cls-28,.cls-34,.cls-37,.cls-38,.cls-40,.cls-46,.cls-48,.cls-49,.cls-50,.cls-6{stroke-miterlimit:10;}.cls-6{stroke-width:0.425px;}.cls-7{fill:#b57733;}.cls-8{fill:#9e9b9c;}.cls-12,.cls-9{fill:#f1f3e6;}.cls-10{fill:#c2b990;}.cls-11{fill:#ad9e73;}.cls-12{stroke:#e3e2e6;stroke-width:0.128px;}.cls-13{fill:#108759;}.cls-14{fill-opacity:0.573;fill:url(#Безымянный_градиент_179);}.cls-15{fill:#be7400;}.cls-16{fill:#494949;}.cls-17{fill:#cdc5ba;}.cls-18,.cls-28{stroke:#e5e5e5;}.cls-19{fill:#9f9c9c;}.cls-20{fill:#36312f;}.cls-21{fill:#d2d1d3;}.cls-22{fill:#b7b8b9;}.cls-23{fill:#d7d3d5;}.cls-24{fill:#242424;}.cls-25{fill:#363331;}.cls-26{fill:#d0c9bd;}.cls-27{fill:#987743;}.cls-28{stroke-width:0.837px;}.cls-29{fill:#2d2d2d;}.cls-30{fill:#cdc7bc;}.cls-31{fill:#b7b8b5;}.cls-32{fill:#ae7d52;}.cls-33{fill:#cbc5ba;}.cls-34{fill:#f2f2f2;stroke:#999;stroke-width:0.1px;}.cls-35{fill:#313131;}.cls-36{fill:#666566;}.cls-37,.cls-38{stroke:#f2f2f2;}.cls-37{stroke-width:0.41px;}.cls-38,.cls-46{stroke-width:0.25px;}.cls-39{fill:#54391b;}.cls-39,.cls-41,.cls-42{fill-opacity:0.944;}.cls-40{stroke:#c15f0e;}.cls-41,.cls-42{opacity:0.77;}.cls-41{fill:url(#linear-gradient);}.cls-42{fill:url(#linear-gradient-2);}.cls-43{fill:#0d0e0f;}.cls-44{fill:url(#linear-gradient-3);}.cls-45{fill:#e39344;}.cls-46{stroke:#666566;}.cls-47{opacity:0.2;}.cls-47,.cls-50{isolation:isolate;}.cls-48{stroke-width:1.5px;}.cls-49,.cls-50{stroke-width:4px;}.cls-50{opacity:0.7;}</style><linearGradient id="Безымянный_градиент_179" x1="-595.149" y1="39.612" x2="-560.613" y2="39.612" gradientTransform="matrix(-1, 0, 0, 1, -172.821, 0)" gradientUnits="userSpaceOnUse"><stop offset="0" stop-color="#f79300" stop-opacity="0"/><stop offset="0.461" stop-color="#fff" stop-opacity="0.4"/><stop offset="0.572" stop-color="#f4dbc3" stop-opacity="0.555"/><stop offset="0.764" stop-color="#e4a465" stop-opacity="0.796"/><stop offset="0.913" stop-color="#da822c" stop-opacity="0.945"/><stop offset="1" stop-color="#d67516"/></linearGradient><linearGradient id="linear-gradient" x1="19.888" y1="73.432" x2="24.859" y2="73.432" gradientTransform="translate(-51.058 95.805) rotate(-90)" gradientUnits="userSpaceOnUse"><stop offset="0.005" stop-color="#b86d00"/><stop offset="0.029" stop-color="#b06801"/><stop offset="0.114" stop-color="#985b05"/><stop offset="0.204" stop-color="#875108"/><stop offset="0.303" stop-color="#7d4b09"/><stop offset="0.425" stop-color="#7a490a"/><stop offset="0.982" stop-color="#a15f14" stop-opacity="0"/></linearGradient><linearGradient id="linear-gradient-2" x1="-792.427" y1="-244.818" x2="-792.427" y2="-249.811" gradientTransform="translate(814.782 279.992)" xlink:href="#linear-gradient"/><linearGradient id="linear-gradient-3" x1="45.214" y1="290.676" x2="259.137" y2="290.676" gradientTransform="matrix(1, 0, 0, -1, 0, 368.724)" gradientUnits="userSpaceOnUse"><stop offset="0.016" stop-color="#313131" stop-opacity="0.7"/><stop offset="0.027" stop-color="#252525" stop-opacity="0.716"/><stop offset="0.05" stop-color="#141414" stop-opacity="0.748"/><stop offset="0.078" stop-color="#090909" stop-opacity="0.788"/><stop offset="0.117" stop-color="#020202" stop-opacity="0.844"/><stop offset="0.226"/><stop offset="0.449" stop-color="#0c0c0b"/><stop offset="0.869" stop-color="#0d0e0f"/><stop offset="0.883" stop-color="#111212"/><stop offset="0.901" stop-color="#171919"/><stop offset="0.921" stop-color="#202222"/><stop offset="0.943" stop-color="#2f3031"/><stop offset="0.966" stop-color="#454747"/><stop offset="0.99" stop-color="#636364"/><stop offset="0.992" stop-color="#666566"/></linearGradient></defs><g id="bottom"><rect class="cls-1" x="332.567" y="0.001" width="230.87" height="155.735"/><rect class="cls-2" x="330.913" y="14.923" width="57.853" height="79.436"/><path class="cls-3" d="M588.9,0H316.027a6.009,6.009,0,0,0-6.01,6.01v143.72a6,6,0,0,0,6.01,6H588.9a6,6,0,0,0,6-6V6.011A6.007,6.007,0,0,0,588.9,0ZM319.067,151.2a4.535,4.535,0,1,1,4.53-4.54A4.537,4.537,0,0,1,319.067,151.2Zm0-137.59a4.54,4.54,0,1,1,4.53-4.54A4.537,4.537,0,0,1,319.067,13.611Zm73.02,77.06a2.147,2.147,0,0,1-2.15,2.15h-55.22a2.147,2.147,0,0,1-2.15-2.15V15.6a2.147,2.147,0,0,1,2.15-2.15h55.22a2.147,2.147,0,0,1,2.15,2.15Zm193.74,60.53a4.535,4.535,0,1,1,4.54-4.54A4.535,4.535,0,0,1,585.827,151.2Zm0-137.59a4.54,4.54,0,1,1,4.54-4.54A4.535,4.535,0,0,1,585.827,13.611Z"/><path class="cls-4" d="M319.078,4.535a4.536,4.536,0,1,1-4.536,4.536,4.535,4.535,0,0,1,4.536-4.536m0-1.417a5.953,5.953,0,1,0,5.953,5.953,5.96,5.96,0,0,0-5.953-5.953Z"/><path class="cls-4" d="M319.078,142.129a4.536,4.536,0,1,1-4.536,4.536,4.535,4.535,0,0,1,4.536-4.536m0-1.417a5.953,5.953,0,1,0,5.953,5.953,5.96,5.96,0,0,0-5.953-5.953Z"/><path class="cls-4" d="M585.843,4.535a4.536,4.536,0,1,1-4.535,4.536,4.535,4.535,0,0,1,4.535-4.536m0-1.417A5.953,5.953,0,1,0,591.8,9.071a5.96,5.96,0,0,0-5.953-5.953Z"/><path class="cls-4" d="M585.843,142.129a4.536,4.536,0,1,1-4.535,4.536,4.535,4.535,0,0,1,4.535-4.536m0-1.417a5.953,5.953,0,1,0,5.953,5.953,5.96,5.96,0,0,0-5.953-5.953Z"/><path class="cls-5" d="M356.744,124.142v.653l-2.191,2.484h2.191v.655H353.9v-.655l2.2-2.491h-2.2v-.646Z"/><path class="cls-5" d="M355.43,119.642v2.137h1.008V119.3h.306v3.135H353.9v-3.1h.307v2.45h.916v-2.137Z"/><path class="cls-5" d="M354.99,116.321l-1.09-1.182v-.766l1.411,1.559,1.433-1.6v.772l-1.109,1.213,1.109,1.22v.77l-1.433-1.6-1.411,1.562v-.762Z"/><path class="cls-5" d="M354.207,109.615V111.2h2.537v.647h-2.537v1.583H353.9v-3.816Z"/><path class="cls-5" d="M356.744,107.631v.65H353.9v-.65Z"/><path class="cls-5" d="M355.414,102.09a1.146,1.146,0,0,1,.73.244,1.5,1.5,0,0,1,.475.691,3.011,3.011,0,0,1,.164,1.044,2.976,2.976,0,0,1-.165,1.034,1.561,1.561,0,0,1-.471.7,1.119,1.119,0,0,1-.708.256h-.205a1.139,1.139,0,0,1-.724-.248,1.559,1.559,0,0,1-.482-.7,2.984,2.984,0,0,1-.167-1.035,3.074,3.074,0,0,1,.165-1.046,1.518,1.518,0,0,1,.479-.7,1.151,1.151,0,0,1,.729-.244Zm-.184.647a.92.92,0,0,0-.776.353,1.586,1.586,0,0,0-.27.986,1.567,1.567,0,0,0,.27.971.923.923,0,0,0,.751.364h.209a.927.927,0,0,0,.771-.357,1.9,1.9,0,0,0,.015-1.961.923.923,0,0,0-.759-.356Z"/><path class="cls-5" d="M356.744,96.768v.653l-2.191,2.484h2.191v.655H353.9v-.655l2.2-2.491h-2.2v-.646Z"/><polygon class="cls-6" points="350.663 124.053 338.141 117.053 338.141 109.782 350.663 116.782 350.663 124.053"/><polygon class="cls-6" points="350.663 114.802 343.096 110.539 343.096 106.11 350.663 110.374 350.663 114.802"/><polygon class="cls-6" points="350.663 108.827 345.616 105.849 345.616 102.755 350.663 105.734 350.663 108.827"/><path class="cls-7" d="M321.332,105.053v.66l-3.835,2.505h3.835v.66h-4.977v-.66l3.852-2.512h-3.852v-.653Z"/><path class="cls-7" d="M318.263,101.646l-1.908-1.193v-.772l2.468,1.572,2.509-1.61v.779l-1.941,1.224,1.941,1.23v.776l-2.509-1.613-2.468,1.576v-.769Z"/><path class="cls-7" d="M319.66,95.815v-.69h.517v.69h1.155v.636h-1.155v2.266h-.372l-3.45-2.228v-.674Zm0,2.185V96.451h-2.439l.136.075Z"/><path class="cls-7" d="M317.654,90.976a1.162,1.162,0,0,1,.663.2,1.341,1.341,0,0,1,.454.532,1.442,1.442,0,0,1,.49-.617,1.232,1.232,0,0,1,.727-.227,1.3,1.3,0,0,1,1.03.435,1.914,1.914,0,0,1,0,2.3,1.305,1.305,0,0,1-1.028.433,1.26,1.26,0,0,1-.727-.221,1.357,1.357,0,0,1-.492-.61,1.3,1.3,0,0,1-.455.523,1.171,1.171,0,0,1-.66.192,1.287,1.287,0,0,1-1-.4,1.713,1.713,0,0,1,0-2.124A1.284,1.284,0,0,1,317.654,90.976Zm-.847,1.466a.816.816,0,0,0,.23.6.955.955,0,0,0,1.241,0,.9.9,0,0,0,0-1.214.935.935,0,0,0-1.232.009A.806.806,0,0,0,316.807,92.442Zm3.168-.95a.92.92,0,0,0-.68.265.939.939,0,0,0-.264.692.892.892,0,0,0,.944.944.884.884,0,0,0,.667-.252,1.12,1.12,0,0,0,0-1.4A.883.883,0,0,0,319.975,91.492Z"/><path class="cls-7" d="M318.536,88.584v-.475a1.05,1.05,0,0,0-.235-.7.792.792,0,0,0-.619-.257.772.772,0,0,0-.875.872.909.909,0,0,0,.234.655.821.821,0,0,0,.62.244v.632a1.268,1.268,0,0,1-.982-.432,1.576,1.576,0,0,1-.392-1.1,1.555,1.555,0,0,1,.373-1.1,1.343,1.343,0,0,1,1.035-.4,1.087,1.087,0,0,1,.629.211,1.257,1.257,0,0,1,.455.572,1.218,1.218,0,0,1,.43-.634,1.2,1.2,0,0,1,.735-.224,1.362,1.362,0,0,1,1.064.437,1.639,1.639,0,0,1,.392,1.139,1.682,1.682,0,0,1-.379,1.139,1.257,1.257,0,0,1-1,.44V88.96a.812.812,0,0,0,.628-.256.972.972,0,0,0,.237-.687.955.955,0,0,0-.24-.7.921.921,0,0,0-.687-.243.838.838,0,0,0-.667.267,1.164,1.164,0,0,0-.238.769v.475Z"/><path class="cls-7" d="M321.332,81.752v3.261h-.455l-1.914-1.722a4.035,4.035,0,0,0-.705-.528,1.181,1.181,0,0,0-.563-.146.892.892,0,0,0-.638.236.823.823,0,0,0-.25.629.976.976,0,0,0,.268.733,1.023,1.023,0,0,0,.747.262v.632a1.466,1.466,0,0,1-1.111-.443,1.642,1.642,0,0,1-.424-1.184,1.576,1.576,0,0,1,.364-1.1,1.243,1.243,0,0,1,.969-.4,2.845,2.845,0,0,1,1.75.937l1.446,1.333v-2.5Z"/><path class="cls-7" d="M319.135,77.614V79.7h2.2v.656h-4.977V77.275h.538V79.7H318.6V77.614Z"/><path class="cls-7" d="M319.209,72.973a2.891,2.891,0,0,1,1.651.379,1.576,1.576,0,0,1,.012,2.365,2.743,2.743,0,0,1-1.577.4h-.844a2.829,2.829,0,0,1-1.631-.38,1.6,1.6,0,0,1-.018-2.372,2.721,2.721,0,0,1,1.587-.389Zm-.864.632a2.313,2.313,0,0,0-1.171.226.775.775,0,0,0-.367.714.766.766,0,0,0,.365.707,2.26,2.26,0,0,0,1.125.229h1.012a2.356,2.356,0,0,0,1.191-.234.775.775,0,0,0,.385-.709.761.761,0,0,0-.364-.695,2.258,2.258,0,0,0-1.14-.238Z"/><path class="cls-7" d="M318.536,70.683v-.475a1.05,1.05,0,0,0-.235-.7.791.791,0,0,0-.619-.256.772.772,0,0,0-.875.871.907.907,0,0,0,.234.655.817.817,0,0,0,.62.244v.632a1.268,1.268,0,0,1-.982-.432,1.576,1.576,0,0,1-.392-1.1,1.555,1.555,0,0,1,.373-1.1,1.346,1.346,0,0,1,1.035-.4,1.087,1.087,0,0,1,.629.211,1.257,1.257,0,0,1,.455.572,1.222,1.222,0,0,1,.43-.634,1.2,1.2,0,0,1,.735-.224,1.36,1.36,0,0,1,1.064.438,1.635,1.635,0,0,1,.392,1.138,1.682,1.682,0,0,1-.379,1.139,1.257,1.257,0,0,1-1,.44v-.636a.812.812,0,0,0,.628-.256.972.972,0,0,0,.237-.687.957.957,0,0,0-.24-.7.921.921,0,0,0-.687-.243.838.838,0,0,0-.667.267,1.164,1.164,0,0,0-.238.769v.475Z"/><path class="cls-7" d="M318.837,66.821l-2.482-.253V64.019h.584v2.013l1.358.15a1.6,1.6,0,0,1-.215-.83,1.373,1.373,0,0,1,.449-1.081,1.763,1.763,0,0,1,1.215-.4,1.7,1.7,0,0,1,1.212.415,1.512,1.512,0,0,1,.442,1.16,1.577,1.577,0,0,1-.365,1.077,1.463,1.463,0,0,1-1.012.475v-.6a1,1,0,0,0,.644-.3.946.946,0,0,0,.218-.65.855.855,0,0,0-.3-.692,1.262,1.262,0,0,0-.831-.251,1.161,1.161,0,0,0-.8.271.93.93,0,0,0-.3.724,1.041,1.041,0,0,0,.182.649l.137.167Z"/><path class="cls-7" d="M321.848,59.89v3.131h-.516V59.89Z"/><path class="cls-7" d="M319.209,55.782a2.89,2.89,0,0,1,1.651.38,1.576,1.576,0,0,1,.012,2.365,2.743,2.743,0,0,1-1.577.4h-.844a2.83,2.83,0,0,1-1.631-.379,1.6,1.6,0,0,1-.018-2.372,2.728,2.728,0,0,1,1.587-.39Zm-.864.633a2.325,2.325,0,0,0-1.171.225.777.777,0,0,0-.367.714.768.768,0,0,0,.365.708,2.26,2.26,0,0,0,1.125.229h1.012a2.356,2.356,0,0,0,1.191-.234.775.775,0,0,0,.385-.709.764.764,0,0,0-.364-.7,2.249,2.249,0,0,0-1.14-.237Z"/><path class="cls-7" d="M321.332,52.334v.636h-4.215l.469,1.275h-.574l-.68-1.812v-.1Z"/><path class="cls-7" d="M321.332,47.844v.635h-4.215l.469,1.275h-.574l-.68-1.811v-.1Z"/><path class="cls-5" d="M554.7,68.92a1.25,1.25,0,0,1-.683-.183,1.21,1.21,0,0,1-.446-.507,1.718,1.718,0,0,1-.156-.75v-.046a1.711,1.711,0,0,1,.157-.753,1.251,1.251,0,0,1,.431-.5,1.1,1.1,0,0,1,.621-.182,1.834,1.834,0,0,1,.563.076,1.277,1.277,0,0,1,.4.205v.575h-.316l-.041-.412a.709.709,0,0,0-.235-.095,1.428,1.428,0,0,0-.328-.032.731.731,0,0,0-.439.14.963.963,0,0,0-.309.392,1.423,1.423,0,0,0-.113.587v.05a1.559,1.559,0,0,0,.1.593.875.875,0,0,0,.306.393.837.837,0,0,0,.488.139,1.35,1.35,0,0,0,.33-.034,1.016,1.016,0,0,0,.239-.089v-.668l-.545-.019v-.283h.929v1.1a1.155,1.155,0,0,1-.352.211A1.577,1.577,0,0,1,554.7,68.92Z"/><path class="cls-5" d="M556.372,68.879v-.246l.318-.055v-2.24l-.318-.055v-.248h.707l1.4,2.217.011,0v-1.91l-.349-.055v-.248h1.021v.248l-.318.055v2.541h-.352l-1.431-2.229-.012,0v1.924l.35.055v.246Z"/><path class="cls-5" d="M559.8,68.879v-.246l.318-.055v-2.24l-.318-.055v-.248h1.113a1.19,1.19,0,0,1,.657.18,1.22,1.22,0,0,1,.437.494,1.61,1.61,0,0,1,.156.719v.06a1.647,1.647,0,0,1-.15.71,1.215,1.215,0,0,1-.427.5,1.157,1.157,0,0,1-.653.183Zm.7-.3h.41a.743.743,0,0,0,.463-.147.955.955,0,0,0,.3-.395,1.408,1.408,0,0,0,.1-.548v-.064a1.417,1.417,0,0,0-.1-.556.92.92,0,0,0-.3-.388.765.765,0,0,0-.463-.142h-.41Z"/><path class="cls-5" d="M556.818,75.812v-.246l.319-.055v-2.24l-.319-.055V72.97h1.268a1.315,1.315,0,0,1,.525.093.7.7,0,0,1,.325.269.787.787,0,0,1,.111.429.758.758,0,0,1-.108.42.675.675,0,0,1-.308.257,1.244,1.244,0,0,1-.473.093l-.637.011v.969l.319.055v.246Zm.7-1.572h.526a.726.726,0,0,0,.469-.123.445.445,0,0,0,.146-.36.461.461,0,0,0-.141-.355.62.62,0,0,0-.435-.131h-.565Zm1.174,1.572-.633-1.42.385,0,.526,1.137.2.035v.252Z"/><path class="cls-5" d="M559.842,75.812v-.246l.246-.043.881-1.154-.817-1.11-.248-.043v-.248h.922v.248l-.267.026.629.877.6-.877-.273-.026v-.248h.927v.248l-.259.043-.772,1.11.856,1.154.252.043v.246h-.934v-.246l.275-.025-.673-.924-.672.924.259.025v.246Z"/><path class="cls-5" d="M557.516,82.852v-.246l.318-.055V80.3h-.645l-.056.395h-.289v-.686h2.363v.686h-.285l-.059-.395h-.644v2.252l.318.055v.246Z"/><path class="cls-5" d="M559.879,82.852v-.246l.246-.043.881-1.154-.817-1.11-.248-.043v-.248h.922v.248l-.267.026.629.877.6-.877-.273-.026v-.248h.928v.248l-.26.043-.772,1.11.856,1.154.252.043v.246h-.934v-.246l.276-.025-.674-.924-.672.924.26.025v.246Z"/><path class="cls-5" d="M557.7,89.957a1.008,1.008,0,0,1-.43-.088.67.67,0,0,1-.3-.261.764.764,0,0,1-.1-.428l0-.012h.348a.453.453,0,0,0,.478.488.453.453,0,0,0,.379-.172.74.74,0,0,0,.135-.47.712.712,0,0,0-.136-.451.45.45,0,0,0-.376-.174.609.609,0,0,0-.329.068.389.389,0,0,0-.149.209l-.321-.033.164-1.561h1.5v.563h-.289l-.037-.221h-.849l-.092.8a.75.75,0,0,1,.127-.079.85.85,0,0,1,.149-.056.714.714,0,0,1,.177-.023.838.838,0,0,1,.451.114.744.744,0,0,1,.291.332,1.165,1.165,0,0,1,.1.509,1.127,1.127,0,0,1-.1.5.758.758,0,0,1-.3.331A.947.947,0,0,1,557.7,89.957Z"/><path class="cls-5" d="M560.414,89.916l-.953-2.564-.227-.032v-.248h.9v.248l-.26.041.637,1.809.066.225h.012l.07-.225.66-1.811-.289-.039v-.248h.9v.248l-.229.032-.953,2.564Z"/><g id="jst-xh-4pin"><polygon id="polygon19706-3-6-8-2-3-4-3-12" class="cls-8" points="572.642 69.045 564.138 69.045 564.138 65.423 572.642 65.423 572.642 69.045"/><polygon id="polygon19706-3-6-8-2-3-4-3-13" class="cls-8" points="572.642 76.129 564.138 76.129 564.138 72.507 572.642 72.507 572.642 76.129"/><polygon id="polygon19706-3-6-8-2-3-4-3-14" class="cls-8" points="572.642 83.212 564.138 83.212 564.138 79.59 572.642 79.59 572.642 83.212"/><polygon id="polygon19706-3-6-8-2-3-4-3-15" class="cls-8" points="572.642 90.295 564.138 90.295 564.138 86.673 572.642 86.673 572.642 90.295"/><path id="path19730-0-0-6-5-4-7-3" class="cls-9" d="M572.643,61.127h-3.571V56.369h3.571Z"/><path id="path19736-6-8-2-9-9-1-3" class="cls-9" d="M572.643,99.3h-3.571V94.54h3.571Z"/><rect id="rect19748-4-6-0-9-5-2-3" class="cls-10" x="572.245" y="94.54" width="0.397" height="4.759"/><rect id="rect19750-9-59-4-6-5-8-3" class="cls-10" x="572.245" y="56.368" width="0.397" height="4.759"/><rect id="rect19716-5-7-8-3-4-5-3" class="cls-11" x="572.643" y="56.44" width="22.11" height="42.858"/><polygon id="polygon19742-1-8-7-6-3-9-3" class="cls-12" points="572.643 65.472 572.643 56.439 594.64 56.439 594.64 99.299 572.643 99.299 572.643 90.725 590.239 90.725 590.239 85.369 572.643 85.369 572.643 70.829 590.239 70.829 590.239 65.472 572.643 65.472"/></g><rect class="cls-13" x="336.95" y="35.125" width="45.504" height="54.657" rx="4.163"/><g id="ribbon-cable-16pin"><rect class="cls-2" x="387.793" y="14.809" width="34.535" height="49.606"/><rect class="cls-14" x="387.793" y="14.809" width="34.535" height="49.606"/><path id="rect91155-4-89-4" class="cls-15" d="M387.793,61.829v1.4h34.534v-1.4Z"/><path id="rect91155-4-89-4-2" class="cls-15" d="M387.793,58.3v1.4h34.534V58.3Z"/><path id="rect91155-4-89-4-3" class="cls-15" d="M387.793,54.778v1.4h34.534v-1.4Z"/><path id="rect91155-4-89-4-4" class="cls-15" d="M387.793,51.252v1.4h34.534v-1.4Z"/><path id="rect91155-4-89-4-5" class="cls-15" d="M387.793,47.726v1.4h34.534v-1.4Z"/><path id="rect91155-4-89-4-6" class="cls-15" d="M387.793,44.2v1.4h34.534V44.2Z"/><path id="rect91155-4-89-4-7" class="cls-15" d="M387.793,40.675v1.4h34.534v-1.4Z"/><path id="rect91155-4-89-4-8" class="cls-15" d="M387.793,37.149v1.4h34.534v-1.4Z"/><path id="rect91155-4-89-4-9" class="cls-15" d="M387.793,33.623v1.4h34.534v-1.4Z"/><path id="rect91155-4-89-4-10" class="cls-15" d="M387.793,30.1v1.4h34.534V30.1Z"/><path id="rect91155-4-89-4-11" class="cls-15" d="M387.793,26.572v1.4h34.534v-1.4Z"/><path id="rect91155-4-89-4-12" class="cls-15" d="M387.793,23.046v1.4h34.534v-1.4Z"/><path id="rect91155-4-89-4-13" class="cls-15" d="M387.793,19.52v1.4h34.534v-1.4Z"/><path id="rect91155-4-89-4-16" class="cls-15" d="M387.793,15.994v1.4h34.534v-1.4Z"/></g><g id="con-16pin-2"><rect id="rect27317-3-8-2-2" class="cls-16" x="419.897" y="8.496" width="5.627" height="62.23"/><rect class="cls-8" x="425.524" y="10.35" width="10.159" height="58.522"/><rect class="cls-17" x="437.952" y="33.613" width="2.05" height="1.42"/><line class="cls-18" x1="439.372" y1="34.323" x2="435.682" y2="34.323"/><rect class="cls-17" x="437.952" y="15.984" width="2.05" height="1.42"/><line class="cls-18" x1="439.372" y1="16.694" x2="435.682" y2="16.694"/><rect class="cls-17" x="437.952" y="19.509" width="2.05" height="1.42"/><line class="cls-18" x1="439.372" y1="20.219" x2="435.682" y2="20.219"/><rect class="cls-17" x="437.952" y="23.035" width="2.05" height="1.42"/><line class="cls-18" x1="439.372" y1="23.745" x2="435.682" y2="23.745"/><rect class="cls-17" x="437.952" y="26.561" width="2.05" height="1.42"/><line class="cls-18" x1="439.372" y1="27.271" x2="435.682" y2="27.271"/><rect class="cls-17" x="437.952" y="30.087" width="2.05" height="1.42"/><line class="cls-18" x1="439.372" y1="30.797" x2="435.682" y2="30.797"/><rect class="cls-17" x="437.952" y="37.138" width="2.05" height="1.42"/><line class="cls-18" x1="439.372" y1="37.848" x2="435.682" y2="37.848"/><rect class="cls-17" x="437.952" y="40.664" width="2.05" height="1.42"/><line class="cls-18" x1="439.372" y1="41.374" x2="435.682" y2="41.374"/><rect class="cls-17" x="437.952" y="44.19" width="2.05" height="1.42"/><line class="cls-18" x1="439.372" y1="44.9" x2="435.682" y2="44.9"/><rect class="cls-17" x="437.952" y="47.716" width="2.05" height="1.42"/><line class="cls-18" x1="439.372" y1="48.426" x2="435.682" y2="48.426"/><rect class="cls-17" x="437.952" y="51.241" width="2.05" height="1.42"/><line class="cls-18" x1="439.372" y1="51.951" x2="435.682" y2="51.951"/><rect class="cls-17" x="437.952" y="54.767" width="2.05" height="1.42"/><line class="cls-18" x1="439.372" y1="55.477" x2="435.682" y2="55.477"/><rect class="cls-17" x="437.952" y="58.293" width="2.05" height="1.42"/><line class="cls-18" x1="439.372" y1="59.003" x2="435.682" y2="59.003"/><rect class="cls-17" x="437.952" y="61.819" width="2.05" height="1.42"/><line class="cls-18" x1="439.372" y1="62.529" x2="435.682" y2="62.529"/></g><g id="T-SOT23-6"><path id="path3487-1-2-2-2-2" class="cls-19" d="M378.018,79.192v-1.62h-2.56v1.62Z"/><path id="path3487-1-2-3" class="cls-19" d="M378.018,73.666v-1.62h-2.56v1.62Z"/><path id="path3487-1-2-3-2-2" class="cls-19" d="M378.018,76.476v-1.62h-2.56v1.62Z"/><path id="path3487-1-2-2-2-2-2" class="cls-19" d="M369.6,72.046v1.62h2.56v-1.62Z"/><path id="path3487-1-2-2-2-3" class="cls-19" d="M369.6,74.856v1.62h2.56v-1.62Z"/><path id="path3487-1-2-2-2-4" class="cls-19" d="M369.6,77.576V79.2h2.56v-1.62Z"/><path id="path3477-9-2-2-2" class="cls-20" d="M372.068,79.875V71.457h3.48v8.418Z"/></g><g id="R-0805"><rect id="rect21332-8-1-9-3-8-2-40-6-2-0-6-6-0-5-6-4-8-7-2-0-7-2-3-9-16-6" class="cls-21" x="340.685" y="58.075" width="3.4" height="2.9"/><rect id="rect21332-8-1-9-3-8-2-40-6-2-0-6-6-0-5-6-4-8-7-2-0-7-2-3-10-16-6" class="cls-21" x="340.685" y="53.055" width="3.4" height="2.9"/><path class="cls-22" d="M340.685,59.435V54.6a.42.42,0,0,1,.42-.42h2.55a.411.411,0,0,1,.43.387h0V59.4a.41.41,0,0,1-.41.409h-2.56a.427.427,0,0,1-.43-.409h0Z"/><g id="path26345-3-6-9-3-6-4-2-5-6-8-7-9-0-90-3-1-3-9-2-2-8-5-0-2-3-5-16-6"><rect class="cls-23" x="340.685" y="54.895" width="3.4" height="4.25"/></g><path id="path26341-4-2-6-0-8-1-1-1-5-0-3-3-1-8-3-8-7-7-7-2-4-9-7-2-3-5-16-6" class="cls-24" d="M344.084,58.425V55.6h-3.4v2.83Z"/></g><g id="транзистор"><rect class="cls-25" x="370.091" y="42.314" width="2.813" height="6.573"/><rect class="cls-8" x="372.904" y="45.082" width="2.264" height="1.234"/><rect class="cls-8" x="367.393" y="42.926" width="2.697" height="1.291"/><rect class="cls-8" x="367.393" y="47.141" width="2.697" height="1.291"/></g><g id="транзистор-2" data-name="транзистор"><rect class="cls-25" x="341.693" y="64.875" width="1.698" height="3.969"/><rect class="cls-8" x="340.326" y="66.546" width="1.367" height="0.745"/><rect class="cls-8" x="343.391" y="65.244" width="1.629" height="0.78"/><rect class="cls-8" x="343.391" y="67.789" width="1.629" height="0.78"/></g><g id="конденсатор"><rect class="cls-26" x="369.504" y="68.005" width="1.308" height="1.055"/><rect class="cls-26" x="369.49" y="66.538" width="1.308" height="1.055"/><rect class="cls-27" x="369.598" y="66.997" width="1.105" height="1.586"/></g><g id="конденсатор-2" data-name="конденсатор"><rect class="cls-26" x="376.505" y="68.005" width="1.308" height="1.055"/><rect class="cls-26" x="376.49" y="66.538" width="1.308" height="1.055"/><rect class="cls-27" x="376.599" y="66.997" width="1.105" height="1.586"/></g><g id="конденсатор-3" data-name="конденсатор"><rect class="cls-26" x="369.504" y="85.202" width="1.308" height="1.055"/><rect class="cls-26" x="369.49" y="83.735" width="1.308" height="1.055"/><rect class="cls-27" x="369.598" y="84.194" width="1.105" height="1.586"/></g><g id="конденсатор-4" data-name="конденсатор"><rect class="cls-26" x="376.505" y="85.202" width="1.308" height="1.055"/><rect class="cls-26" x="376.49" y="83.735" width="1.308" height="1.055"/><rect class="cls-27" x="376.599" y="84.194" width="1.105" height="1.586"/></g><g id="конденсатор-5" data-name="конденсатор"><rect class="cls-26" x="376.505" y="59.318" width="1.308" height="1.055"/><rect class="cls-26" x="376.49" y="57.851" width="1.308" height="1.055"/><rect class="cls-27" x="376.599" y="58.31" width="1.105" height="1.586"/></g><g id="конденсатор-6" data-name="конденсатор"><rect class="cls-26" x="370.841" y="39.263" width="1.055" height="1.308"/><rect class="cls-26" x="369.375" y="39.277" width="1.055" height="1.308"/><rect class="cls-27" x="369.834" y="39.371" width="1.586" height="1.105"/></g><g id="конденсатор-7" data-name="конденсатор"><rect class="cls-26" x="342.753" y="45.187" width="1.308" height="1.055"/><rect class="cls-26" x="342.738" y="43.72" width="1.308" height="1.055"/><rect class="cls-27" x="342.847" y="44.179" width="1.105" height="1.586"/></g><g id="конденсатор-8" data-name="конденсатор"><rect class="cls-26" x="342.519" y="49.195" width="1.055" height="1.308"/><rect class="cls-26" x="341.052" y="49.209" width="1.055" height="1.308"/><rect class="cls-27" x="341.511" y="49.303" width="1.586" height="1.105"/></g><g id="конденсатор-9" data-name="конденсатор"><rect class="cls-26" x="342.826" y="78.098" width="1.055" height="1.308"/><rect class="cls-26" x="341.36" y="78.112" width="1.055" height="1.308"/><rect class="cls-27" x="341.818" y="78.206" width="1.586" height="1.105"/></g><g id="конденсатор-10" data-name="конденсатор"><rect class="cls-26" x="342.826" y="81.102" width="1.055" height="1.308"/><rect class="cls-26" x="341.36" y="81.117" width="1.055" height="1.308"/><rect class="cls-27" x="341.818" y="81.211" width="1.586" height="1.105"/></g><g id="конденсатор-11" data-name="конденсатор"><rect class="cls-26" x="343.329" y="84.729" width="1.308" height="1.055"/><rect class="cls-26" x="343.344" y="86.196" width="1.308" height="1.055"/><rect class="cls-27" x="343.438" y="85.206" width="1.105" height="1.586"/></g><g id="чип"><rect class="cls-17" x="356.493" y="72.892" width="0.943" height="1.341"/><line class="cls-28" x1="356.981" y1="73.024" x2="356.981" y2="74.344"/><rect class="cls-17" x="355.243" y="72.892" width="0.943" height="1.341"/><line class="cls-28" x1="355.731" y1="73.024" x2="355.731" y2="74.344"/><line class="cls-28" x1="355.731" y1="73.024" x2="355.731" y2="74.344"/><rect class="cls-17" x="353.993" y="72.894" width="0.943" height="1.341"/><line class="cls-28" x1="354.485" y1="73.022" x2="354.485" y2="74.342"/><line class="cls-28" x1="354.485" y1="73.022" x2="354.485" y2="74.342"/><rect class="cls-17" x="351.494" y="72.894" width="0.943" height="1.341"/><line class="cls-28" x1="351.98" y1="73.022" x2="351.98" y2="74.342"/><rect class="cls-17" x="352.744" y="72.894" width="0.943" height="1.341"/><line class="cls-28" x1="353.235" y1="73.022" x2="353.235" y2="74.342"/><rect class="cls-17" x="358.993" y="72.893" width="0.943" height="1.341"/><line class="cls-28" x1="359.478" y1="73.023" x2="359.478" y2="74.343"/><line class="cls-28" x1="359.478" y1="73.023" x2="359.478" y2="74.343"/><rect class="cls-17" x="357.743" y="72.892" width="0.943" height="1.341"/><line class="cls-28" x1="358.228" y1="73.021" x2="358.231" y2="74.344"/><rect class="cls-17" x="349.712" y="77.22" width="1.341" height="0.943"/><line class="cls-28" x1="349.845" y1="77.675" x2="351.164" y2="77.675"/><rect class="cls-17" x="349.712" y="78.47" width="1.341" height="0.943"/><line class="cls-28" x1="349.844" y1="78.925" x2="351.164" y2="78.925"/><line class="cls-28" x1="349.844" y1="78.925" x2="351.164" y2="78.925"/><rect class="cls-17" x="349.714" y="79.72" width="1.341" height="0.943"/><line class="cls-28" x1="349.843" y1="80.171" x2="351.163" y2="80.171"/><line class="cls-28" x1="349.843" y1="80.171" x2="351.163" y2="80.171"/><rect class="cls-17" x="349.714" y="82.22" width="1.341" height="0.943"/><line class="cls-28" x1="349.842" y1="82.676" x2="351.162" y2="82.676"/><rect class="cls-17" x="349.714" y="80.97" width="1.341" height="0.943"/><line class="cls-28" x1="349.842" y1="81.421" x2="351.162" y2="81.421"/><rect class="cls-17" x="349.714" y="74.72" width="1.341" height="0.943"/><line class="cls-28" x1="349.843" y1="75.178" x2="351.163" y2="75.178"/><line class="cls-28" x1="349.843" y1="75.178" x2="351.163" y2="75.178"/><rect class="cls-17" x="349.712" y="75.97" width="1.341" height="0.943"/><line class="cls-28" x1="349.841" y1="76.428" x2="351.165" y2="76.425"/><rect class="cls-17" x="360.427" y="77.22" width="1.341" height="0.943"/><line class="cls-28" x1="361.635" y1="77.675" x2="360.315" y2="77.675"/><rect class="cls-17" x="360.427" y="78.47" width="1.341" height="0.943"/><line class="cls-28" x1="361.635" y1="78.925" x2="360.315" y2="78.925"/><line class="cls-28" x1="361.635" y1="78.925" x2="360.315" y2="78.925"/><rect class="cls-17" x="360.425" y="79.72" width="1.341" height="0.943"/><line class="cls-28" x1="361.637" y1="80.171" x2="360.317" y2="80.171"/><line class="cls-28" x1="361.637" y1="80.171" x2="360.317" y2="80.171"/><rect class="cls-17" x="360.425" y="82.22" width="1.341" height="0.943"/><line class="cls-28" x1="361.637" y1="82.676" x2="360.317" y2="82.676"/><rect class="cls-17" x="360.425" y="80.97" width="1.341" height="0.943"/><line class="cls-28" x1="361.637" y1="81.421" x2="360.317" y2="81.421"/><rect class="cls-17" x="360.425" y="74.72" width="1.341" height="0.943"/><line class="cls-28" x1="361.637" y1="75.178" x2="360.317" y2="75.178"/><line class="cls-28" x1="361.637" y1="75.178" x2="360.317" y2="75.178"/><rect class="cls-17" x="360.427" y="75.97" width="1.341" height="0.943"/><line class="cls-28" x1="361.639" y1="76.428" x2="360.315" y2="76.425"/><rect class="cls-17" x="356.494" y="83.655" width="0.943" height="1.341"/><line class="cls-28" x1="356.982" y1="84.863" x2="356.982" y2="83.543"/><rect class="cls-17" x="355.244" y="83.655" width="0.943" height="1.341"/><line class="cls-28" x1="355.732" y1="84.864" x2="355.732" y2="83.544"/><line class="cls-28" x1="355.732" y1="84.864" x2="355.732" y2="83.544"/><rect class="cls-17" x="353.994" y="83.653" width="0.943" height="1.341"/><line class="cls-28" x1="354.485" y1="84.865" x2="354.485" y2="83.545"/><line class="cls-28" x1="354.485" y1="84.865" x2="354.485" y2="83.545"/><rect class="cls-17" x="351.494" y="83.653" width="0.943" height="1.341"/><line class="cls-28" x1="351.981" y1="84.866" x2="351.981" y2="83.546"/><rect class="cls-17" x="352.744" y="83.653" width="0.943" height="1.341"/><line class="cls-28" x1="353.235" y1="84.865" x2="353.235" y2="83.545"/><rect class="cls-17" x="358.994" y="83.654" width="0.943" height="1.341"/><line class="cls-28" x1="359.478" y1="84.865" x2="359.478" y2="83.545"/><line class="cls-28" x1="359.478" y1="84.865" x2="359.478" y2="83.545"/><rect class="cls-17" x="357.744" y="83.655" width="0.943" height="1.341"/><line class="cls-28" x1="358.228" y1="84.867" x2="358.232" y2="83.543"/><path class="cls-29" d="M359.518,83.541h-7.6a.8.8,0,0,1-.8-.8V75.139a.8.8,0,0,1,.8-.8h7.6a.8.8,0,0,1,.8.8v7.605A.794.794,0,0,1,359.518,83.541Z"/></g><rect class="cls-20" x="348.77" y="45.387" width="13.94" height="10.81"/><rect class="cls-19" x="349.49" y="56.187" width="1.77" height="5.07"/><rect class="cls-19" x="353.13" y="56.187" width="1.76" height="5.07"/><rect class="cls-19" x="356.77" y="56.187" width="1.76" height="5.07"/><rect class="cls-19" x="360.37" y="56.187" width="1.76" height="5.07"/><rect class="cls-19" x="360.37" y="40.307" width="1.76" height="5.07"/><rect class="cls-19" x="356.73" y="40.307" width="1.77" height="5.07"/><rect class="cls-19" x="353.09" y="40.307" width="1.77" height="5.07"/><rect class="cls-19" x="349.45" y="40.307" width="1.76" height="5.07"/><g id="_102" data-name="102"><rect class="cls-30" x="356.446" y="66.801" width="1.612" height="1.996"/><rect class="cls-30" x="359.788" y="66.782" width="1.612" height="1.996"/><rect class="cls-25" x="357.727" y="66.946" width="2.42" height="1.692"/><path class="cls-31" d="M358.516,68h-.3v-.056h.114V67.58h-.114v-.05a.3.3,0,0,0,.05,0,.114.114,0,0,0,.04-.011.083.083,0,0,0,.026-.023.071.071,0,0,0,.012-.038h.056v.493h.112Z"/><path class="cls-31" d="M358.95,67.729a.394.394,0,0,1-.046.216.161.161,0,0,1-.143.069.157.157,0,0,1-.144-.07.391.391,0,0,1-.046-.214.406.406,0,0,1,.046-.216.161.161,0,0,1,.144-.07.157.157,0,0,1,.143.071A.387.387,0,0,1,358.95,67.729Zm-.1.167a.378.378,0,0,0,.017-.07.9.9,0,0,0,0-.1.917.917,0,0,0,0-.1.342.342,0,0,0-.017-.07.108.108,0,0,0-.036-.042.1.1,0,0,0-.057-.015.106.106,0,0,0-.058.015.09.09,0,0,0-.035.043.228.228,0,0,0-.018.071.946.946,0,0,0,0,.1.873.873,0,0,0,0,.1.185.185,0,0,0,.018.069.1.1,0,0,0,.033.043.1.1,0,0,0,.06.016.1.1,0,0,0,.057-.015A.082.082,0,0,0,358.854,67.9Z"/><path class="cls-31" d="M359.354,67.729a.393.393,0,0,1-.047.216.183.183,0,0,1-.287,0,.4.4,0,0,1-.045-.214.4.4,0,0,1,.046-.216.16.16,0,0,1,.143-.07.164.164,0,0,1,.145.071A.416.416,0,0,1,359.354,67.729Zm-.1.167a.206.206,0,0,0,.016-.07.67.67,0,0,0,.006-.1.68.68,0,0,0-.006-.1.176.176,0,0,0-.017-.07.087.087,0,0,0-.035-.042.1.1,0,0,0-.057-.015.1.1,0,0,0-.057.015.1.1,0,0,0-.037.043.234.234,0,0,0-.016.071.93.93,0,0,0,0,.1c0,.038,0,.07,0,.1a.317.317,0,0,0,.017.069.089.089,0,0,0,.035.043.1.1,0,0,0,.059.016.1.1,0,0,0,.057-.015A.092.092,0,0,0,359.257,67.9Z"/><path class="cls-31" d="M359.757,68h-.37v-.077l.077-.066q.039-.033.072-.066a.769.769,0,0,0,.1-.108.162.162,0,0,0,.025-.087.085.085,0,0,0-.027-.067.119.119,0,0,0-.078-.024.254.254,0,0,0-.074.012.259.259,0,0,0-.075.036h0v-.077a.313.313,0,0,1,.07-.024.354.354,0,0,1,.085-.011.2.2,0,0,1,.131.041.135.135,0,0,1,.048.11.341.341,0,0,1-.007.058.271.271,0,0,1-.024.052.434.434,0,0,1-.034.044c-.013.015-.028.031-.047.049s-.054.051-.081.075-.055.046-.078.067h.294Z"/></g><g id="_102-2" data-name="102"><rect class="cls-30" x="368.335" y="49.58" width="1.612" height="1.996"/><rect class="cls-30" x="371.678" y="49.561" width="1.612" height="1.996"/><rect class="cls-25" x="369.617" y="49.725" width="2.42" height="1.692"/><path class="cls-31" d="M370.405,50.782h-.3v-.055h.115v-.368h-.115V50.31a.438.438,0,0,0,.05,0,.137.137,0,0,0,.04-.012.087.087,0,0,0,.027-.023.078.078,0,0,0,.011-.038h.057v.494h.111Z"/><path class="cls-31" d="M370.84,50.508a.4.4,0,0,1-.047.217.185.185,0,0,1-.287,0,.533.533,0,0,1,0-.431.183.183,0,0,1,.287,0A.407.407,0,0,1,370.84,50.508Zm-.1.167a.266.266,0,0,0,.017-.07.686.686,0,0,0,0-.1.694.694,0,0,0,0-.1.224.224,0,0,0-.018-.07.093.093,0,0,0-.092-.057.1.1,0,0,0-.057.015.1.1,0,0,0-.036.043.238.238,0,0,0-.017.071.93.93,0,0,0,0,.1c0,.038,0,.07,0,.1a.232.232,0,0,0,.018.069.089.089,0,0,0,.034.044.1.1,0,0,0,.059.015.109.109,0,0,0,.057-.014A.094.094,0,0,0,370.743,50.675Z"/><path class="cls-31" d="M371.243,50.508a.388.388,0,0,1-.047.217.185.185,0,0,1-.287,0,.533.533,0,0,1,0-.431.183.183,0,0,1,.287,0A.4.4,0,0,1,371.243,50.508Zm-.1.167a.266.266,0,0,0,.017-.07.686.686,0,0,0,0-.1.694.694,0,0,0,0-.1.256.256,0,0,0-.017-.07.1.1,0,0,0-.036-.042.1.1,0,0,0-.056-.015.095.095,0,0,0-.094.058.238.238,0,0,0-.017.071.93.93,0,0,0,0,.1c0,.038,0,.07,0,.1a.232.232,0,0,0,.018.069.1.1,0,0,0,.034.044.107.107,0,0,0,.06.015.106.106,0,0,0,.056-.014A.088.088,0,0,0,371.146,50.675Z"/><path class="cls-31" d="M371.646,50.782h-.371v-.076l.079-.067.072-.066a.647.647,0,0,0,.1-.108.161.161,0,0,0,.026-.087.086.086,0,0,0-.027-.067.121.121,0,0,0-.08-.024.252.252,0,0,0-.072.012.293.293,0,0,0-.076.036h0v-.077a.332.332,0,0,1,.07-.024.359.359,0,0,1,.084-.011.2.2,0,0,1,.132.041.137.137,0,0,1,.048.11.221.221,0,0,1-.008.059.192.192,0,0,1-.023.051.459.459,0,0,1-.033.044c-.013.015-.029.032-.047.05s-.054.05-.082.074l-.078.067h.294Z"/></g><g id="_102-3" data-name="102"><rect class="cls-30" x="340.359" y="69.997" width="1.612" height="1.996"/><rect class="cls-30" x="343.702" y="69.978" width="1.612" height="1.996"/><rect class="cls-25" x="341.641" y="70.142" width="2.42" height="1.692"/><path class="cls-31" d="M342.43,71.2h-.3v-.055h.114v-.368h-.114v-.049a.477.477,0,0,0,.05,0,.147.147,0,0,0,.04-.012.1.1,0,0,0,.026-.023.069.069,0,0,0,.012-.038h.056v.494h.112Z"/><path class="cls-31" d="M342.864,70.925a.388.388,0,0,1-.047.217.185.185,0,0,1-.287,0,.533.533,0,0,1,0-.431.183.183,0,0,1,.287,0A.4.4,0,0,1,342.864,70.925Zm-.1.167a.315.315,0,0,0,.016-.07.686.686,0,0,0,0-.1.694.694,0,0,0,0-.1.256.256,0,0,0-.017-.07.1.1,0,0,0-.036-.042.1.1,0,0,0-.056-.015.1.1,0,0,0-.058.015.112.112,0,0,0-.036.043.238.238,0,0,0-.017.071c0,.029,0,.061,0,.1s0,.07,0,.1a.232.232,0,0,0,.018.069.1.1,0,0,0,.034.044.107.107,0,0,0,.06.015.106.106,0,0,0,.056-.014A.1.1,0,0,0,342.768,71.092Z"/><path class="cls-31" d="M343.268,70.925a.4.4,0,0,1-.047.217.159.159,0,0,1-.143.068.157.157,0,0,1-.144-.069.533.533,0,0,1,0-.431.159.159,0,0,1,.143-.069.161.161,0,0,1,.144.07A.407.407,0,0,1,343.268,70.925Zm-.1.167a.266.266,0,0,0,.017-.07.9.9,0,0,0,0-.1.917.917,0,0,0,0-.1.224.224,0,0,0-.018-.07.105.105,0,0,0-.035-.042.1.1,0,0,0-.057-.015.1.1,0,0,0-.057.015.106.106,0,0,0-.037.043.278.278,0,0,0-.016.071.93.93,0,0,0,0,.1c0,.038,0,.07,0,.1a.268.268,0,0,0,.017.069.1.1,0,0,0,.035.044.1.1,0,0,0,.059.015.109.109,0,0,0,.057-.014A.1.1,0,0,0,343.171,71.092Z"/><path class="cls-31" d="M343.671,71.2H343.3v-.076l.078-.067c.025-.022.05-.044.072-.066a.717.717,0,0,0,.1-.108.169.169,0,0,0,.025-.087.086.086,0,0,0-.027-.067.12.12,0,0,0-.079-.024.241.241,0,0,0-.072.012.3.3,0,0,0-.077.036h0v-.077a.324.324,0,0,1,.071-.024.346.346,0,0,1,.084-.011.2.2,0,0,1,.132.041.136.136,0,0,1,.047.11.222.222,0,0,1-.007.059.2.2,0,0,1-.024.051.337.337,0,0,1-.033.044.675.675,0,0,1-.047.05c-.026.025-.054.05-.082.074l-.078.067h.3Z"/></g><g id="_102-4" data-name="102"><rect class="cls-30" x="339.344" y="45.721" width="1.996" height="1.612"/><rect class="cls-30" x="339.325" y="42.378" width="1.996" height="1.612"/><rect class="cls-25" x="339.49" y="43.631" width="1.692" height="2.42"/><path class="cls-31" d="M340.547,45.262v.3h-.056v-.115h-.367v.115h-.05a.438.438,0,0,0,0-.05.168.168,0,0,0-.011-.04.078.078,0,0,0-.024-.027.075.075,0,0,0-.038-.011v-.057h.494v-.112Z"/><path class="cls-31" d="M340.272,44.828a.4.4,0,0,1,.217.047.183.183,0,0,1,0,.287.531.531,0,0,1-.43,0,.16.16,0,0,1-.07-.143.158.158,0,0,1,.071-.144A.394.394,0,0,1,340.272,44.828Zm.167.1a.256.256,0,0,0-.07-.017.669.669,0,0,0-.1-.005.679.679,0,0,0-.1.005.264.264,0,0,0-.071.017.105.105,0,0,0-.042.035.111.111,0,0,0-.014.058.109.109,0,0,0,.014.057.1.1,0,0,0,.043.036.246.246,0,0,0,.072.017.926.926,0,0,0,.1,0,.85.85,0,0,0,.1,0,.225.225,0,0,0,.069-.017.092.092,0,0,0,.044-.034.105.105,0,0,0,.015-.059.116.116,0,0,0-.014-.058A.088.088,0,0,0,340.439,44.925Z"/><path class="cls-31" d="M340.272,44.425a.4.4,0,0,1,.217.046.161.161,0,0,1,.069.143.158.158,0,0,1-.07.144.4.4,0,0,1-.215.046.4.4,0,0,1-.215-.046.162.162,0,0,1-.07-.144.16.16,0,0,1,.071-.144A.4.4,0,0,1,340.272,44.425Zm.167.1a.256.256,0,0,0-.07-.017.881.881,0,0,0-.1,0,.9.9,0,0,0-.1,0,.23.23,0,0,0-.071.018.1.1,0,0,0-.042.035.123.123,0,0,0,0,.114.1.1,0,0,0,.043.037.283.283,0,0,0,.072.017.926.926,0,0,0,.1,0,.85.85,0,0,0,.1,0,.258.258,0,0,0,.069-.017.088.088,0,0,0,.044-.035.1.1,0,0,0,.015-.059.109.109,0,0,0-.014-.057A.1.1,0,0,0,340.439,44.521Z"/><path class="cls-31" d="M340.547,44.021v.371h-.077l-.067-.078c-.021-.025-.044-.049-.065-.072a.686.686,0,0,0-.109-.1.152.152,0,0,0-.086-.026.088.088,0,0,0-.068.027.126.126,0,0,0-.023.079.288.288,0,0,0,.011.073.281.281,0,0,0,.037.076v0h-.078a.446.446,0,0,1-.024-.069.367.367,0,0,1-.011-.085.2.2,0,0,1,.041-.132.142.142,0,0,1,.111-.048.22.22,0,0,1,.058.008.215.215,0,0,1,.051.024.345.345,0,0,1,.045.033c.015.013.031.029.049.047s.051.053.075.082l.066.078v-.3Z"/></g><g id="_102-5" data-name="102"><rect class="cls-30" x="340.359" y="73.182" width="1.612" height="1.996"/><rect class="cls-30" x="343.702" y="73.163" width="1.612" height="1.996"/><rect class="cls-25" x="341.641" y="73.327" width="2.42" height="1.692"/><path class="cls-31" d="M342.43,74.384h-.3v-.055h.114v-.368h-.114v-.049a.477.477,0,0,0,.05,0,.147.147,0,0,0,.04-.012.1.1,0,0,0,.026-.023.069.069,0,0,0,.012-.038h.056v.494h.112Z"/><path class="cls-31" d="M342.864,74.11a.388.388,0,0,1-.047.217.183.183,0,0,1-.287,0,.531.531,0,0,1,0-.43.182.182,0,0,1,.287,0A.4.4,0,0,1,342.864,74.11Zm-.1.167a.315.315,0,0,0,.016-.07.686.686,0,0,0,0-.1.7.7,0,0,0,0-.1.256.256,0,0,0-.017-.07.1.1,0,0,0-.036-.042.1.1,0,0,0-.056-.015.1.1,0,0,0-.058.015.112.112,0,0,0-.036.043.238.238,0,0,0-.017.071c0,.029,0,.061,0,.1s0,.07,0,.1a.232.232,0,0,0,.018.069.1.1,0,0,0,.034.044.107.107,0,0,0,.06.015.106.106,0,0,0,.056-.014A.1.1,0,0,0,342.768,74.277Z"/><path class="cls-31" d="M343.268,74.11a.4.4,0,0,1-.047.217.16.16,0,0,1-.143.069.158.158,0,0,1-.144-.07.531.531,0,0,1,0-.43.157.157,0,0,1,.143-.07.161.161,0,0,1,.144.07A.407.407,0,0,1,343.268,74.11Zm-.1.167a.266.266,0,0,0,.017-.07.9.9,0,0,0,0-.1.929.929,0,0,0,0-.1.224.224,0,0,0-.018-.07.105.105,0,0,0-.035-.042.1.1,0,0,0-.057-.015.1.1,0,0,0-.057.015.106.106,0,0,0-.037.043.278.278,0,0,0-.016.071.93.93,0,0,0,0,.1c0,.038,0,.07,0,.1a.268.268,0,0,0,.017.069.1.1,0,0,0,.035.044.1.1,0,0,0,.059.015.109.109,0,0,0,.057-.014A.1.1,0,0,0,343.171,74.277Z"/><path class="cls-31" d="M343.671,74.384H343.3v-.076l.078-.067c.025-.022.05-.044.072-.066a.717.717,0,0,0,.1-.108.169.169,0,0,0,.025-.087.086.086,0,0,0-.027-.067.12.12,0,0,0-.079-.024.241.241,0,0,0-.072.012.3.3,0,0,0-.077.036h0V73.86a.324.324,0,0,1,.071-.024.346.346,0,0,1,.084-.011.2.2,0,0,1,.132.041.136.136,0,0,1,.047.11.222.222,0,0,1-.007.059.2.2,0,0,1-.024.051.337.337,0,0,1-.033.044.522.522,0,0,1-.047.05c-.026.025-.054.05-.082.074l-.078.067h.3Z"/></g><g id="_102-6" data-name="102"><rect class="cls-30" x="339.914" y="86.704" width="1.996" height="1.612"/><rect class="cls-30" x="339.895" y="83.361" width="1.996" height="1.612"/><rect class="cls-25" x="340.059" y="84.614" width="1.692" height="2.42"/><path class="cls-31" d="M341.116,86.246v.3h-.055v-.114h-.368v.114h-.049a.457.457,0,0,0,0-.05.137.137,0,0,0-.012-.04.078.078,0,0,0-.024-.027.071.071,0,0,0-.038-.011v-.057h.5v-.111Z"/><path class="cls-31" d="M340.842,85.812a.4.4,0,0,1,.217.046.162.162,0,0,1,.068.143.159.159,0,0,1-.069.144.539.539,0,0,1-.431,0,.161.161,0,0,1-.069-.144.159.159,0,0,1,.07-.144A.408.408,0,0,1,340.842,85.812Zm.167.1a.264.264,0,0,0-.071-.017.844.844,0,0,0-.1-.005.891.891,0,0,0-.1.005.224.224,0,0,0-.07.018.087.087,0,0,0-.042.035.1.1,0,0,0-.015.057.1.1,0,0,0,.015.057.092.092,0,0,0,.043.036.211.211,0,0,0,.071.017.93.93,0,0,0,.1,0c.038,0,.07,0,.095,0a.239.239,0,0,0,.07-.018.1.1,0,0,0,.044-.034.105.105,0,0,0,.014-.059.109.109,0,0,0-.013-.057A.1.1,0,0,0,341.009,85.908Z"/><path class="cls-31" d="M340.842,85.408a.4.4,0,0,1,.217.047.185.185,0,0,1,0,.287.533.533,0,0,1-.431,0,.16.16,0,0,1-.069-.143.158.158,0,0,1,.07-.144A.4.4,0,0,1,340.842,85.408Zm.167.1a.264.264,0,0,0-.071-.017.662.662,0,0,0-.1,0,.694.694,0,0,0-.1,0,.256.256,0,0,0-.07.017.094.094,0,0,0-.042.036.1.1,0,0,0-.015.057.1.1,0,0,0,.015.057.092.092,0,0,0,.043.036.238.238,0,0,0,.071.017.946.946,0,0,0,.1,0,.842.842,0,0,0,.095,0,.212.212,0,0,0,.07-.017.1.1,0,0,0,.044-.034.105.105,0,0,0,.014-.059.109.109,0,0,0-.013-.057A.093.093,0,0,0,341.009,85.505Z"/><path class="cls-31" d="M341.116,85.005v.37h-.077l-.066-.077q-.033-.039-.066-.072a.761.761,0,0,0-.108-.1.166.166,0,0,0-.087-.026.083.083,0,0,0-.067.028.117.117,0,0,0-.024.078.247.247,0,0,0,.012.073.277.277,0,0,0,.036.076v0h-.077a.394.394,0,0,1-.025-.07.418.418,0,0,1-.01-.084.19.19,0,0,1,.041-.132.135.135,0,0,1,.11-.048.227.227,0,0,1,.059.008.2.2,0,0,1,.05.023.3.3,0,0,1,.045.034.418.418,0,0,1,.049.047q.039.039.075.081l.067.078v-.294Z"/></g><g id="_102-7" data-name="102"><rect class="cls-30" x="368.569" y="52.489" width="1.308" height="1.619"/><rect class="cls-30" x="371.28" y="52.473" width="1.308" height="1.619"/><rect class="cls-25" x="369.609" y="52.607" width="1.963" height="5.769"/></g><g id="_102-8" data-name="102"><rect class="cls-30" x="368.569" y="54.331" width="1.308" height="1.619"/><rect class="cls-30" x="371.28" y="54.316" width="1.308" height="1.619"/></g><g id="_102-9" data-name="102"><rect class="cls-30" x="368.569" y="56.174" width="1.308" height="1.619"/><rect class="cls-30" x="371.28" y="56.158" width="1.308" height="1.619"/></g><g id="_102-10" data-name="102"><rect class="cls-30" x="368.569" y="58.016" width="1.308" height="1.619"/><rect class="cls-30" x="371.28" y="58.001" width="1.308" height="1.619"/><rect class="cls-25" x="369.609" y="53.717" width="1.963" height="5.789"/></g><g id="D-SMA"><path id="path32590-0-9-7-9-9" class="cls-25" d="M541.838,68.947h-9.567V84.183h9.567Z"/><path id="path32578-9-7-2-9-4" class="cls-8" d="M539.7,84.183H534.4v2.375h5.31Z"/><path id="path32578-9-7-2-9-4-2" class="cls-8" d="M539.7,66.506H534.4v2.375h5.31Z"/></g><g id="SOT2223"><path id="path13471-0-1" class="cls-8" d="M449.5,84.386h-10v-6.18h10Z"/><path id="path13485-5-7" class="cls-8" d="M439.777,101.816h-3.27v-7.5h3.27Z"/><path id="path13499-3-4" class="cls-8" d="M452.55,101.484h-3.271v-7.5h3.271Z"/><path id="path13513-8-8" class="cls-8" d="M446.157,101.484h-3.25v-7.5h3.26Z"/><path id="path13523-6-9" class="cls-25" d="M453.708,94.215h-18.36V84.332h18.36Z"/></g><g id="транзистор-3" data-name="транзистор"><rect class="cls-25" x="472.894" y="91.878" width="3.662" height="8.559"/><rect class="cls-8" x="476.557" y="95.481" width="2.948" height="1.607"/><rect class="cls-8" x="469.381" y="92.674" width="3.512" height="1.681"/><rect class="cls-8" x="469.381" y="98.163" width="3.512" height="1.681"/></g><g id="конденсатор-12" data-name="конденсатор"><rect class="cls-26" x="461.718" y="102.362" width="3.62" height="2.92"/><rect class="cls-26" x="461.678" y="98.302" width="3.62" height="2.92"/><rect class="cls-27" x="461.978" y="99.572" width="3.06" height="4.39"/></g><g id="конденсатор-13" data-name="конденсатор"><rect class="cls-26" x="455.399" y="90.159" width="3.62" height="2.92"/><rect class="cls-26" x="455.359" y="86.099" width="3.62" height="2.92"/></g><g id="конденсатор-14" data-name="конденсатор"><rect class="cls-26" x="448.287" y="115.088" width="2.92" height="3.62"/><rect class="cls-26" x="444.227" y="115.128" width="2.92" height="3.62"/><rect class="cls-27" x="445.497" y="115.388" width="4.39" height="3.06"/></g><g id="_102-11" data-name="102"><rect class="cls-30" x="533.817" y="60.202" width="4.255" height="3.438"/><rect class="cls-30" x="533.777" y="53.074" width="4.255" height="3.438"/><rect class="cls-32" x="534.127" y="55.745" width="3.608" height="5.161"/></g><g id="_102-12" data-name="102"><rect class="cls-30" x="509.817" y="69.397" width="3.438" height="4.255"/><rect class="cls-30" x="516.945" y="69.356" width="3.438" height="4.255"/><rect class="cls-25" x="512.55" y="69.707" width="5.161" height="3.608"/><path class="cls-31" d="M514.141,72.006h-.7v-.131h.268v-.863h-.268V70.9a.844.844,0,0,0,.118-.009.273.273,0,0,0,.093-.027.168.168,0,0,0,.063-.054.181.181,0,0,0,.026-.09h.134v1.16h.263Z"/><path class="cls-31" d="M515.161,71.362a.938.938,0,0,1-.108.509.378.378,0,0,1-.337.162.371.371,0,0,1-.338-.164.946.946,0,0,1-.107-.5.937.937,0,0,1,.108-.507.428.428,0,0,1,.676,0A.955.955,0,0,1,515.161,71.362Zm-.227.393a.586.586,0,0,0,.041-.165,2.121,2.121,0,0,0,.01-.228,2.172,2.172,0,0,0-.01-.228.553.553,0,0,0-.042-.164.229.229,0,0,0-.082-.1.285.285,0,0,0-.27,0,.228.228,0,0,0-.084.1.545.545,0,0,0-.04.167,2.2,2.2,0,0,0-.011.225,2.044,2.044,0,0,0,.01.226.558.558,0,0,0,.04.162.23.23,0,0,0,.081.1.241.241,0,0,0,.139.036.252.252,0,0,0,.135-.034A.224.224,0,0,0,514.934,71.755Z"/><path class="cls-31" d="M516.108,71.362a.938.938,0,0,1-.108.509.377.377,0,0,1-.337.162.372.372,0,0,1-.338-.164.946.946,0,0,1-.107-.5.937.937,0,0,1,.108-.507.428.428,0,0,1,.676,0A.955.955,0,0,1,516.108,71.362Zm-.227.393a.586.586,0,0,0,.041-.165,1.867,1.867,0,0,0,.011-.228,1.911,1.911,0,0,0-.011-.228.553.553,0,0,0-.042-.164.229.229,0,0,0-.082-.1.241.241,0,0,0-.135-.034.246.246,0,0,0-.135.034.228.228,0,0,0-.084.1.545.545,0,0,0-.04.167,2.217,2.217,0,0,0-.01.225,2.075,2.075,0,0,0,.009.226.558.558,0,0,0,.04.162.23.23,0,0,0,.081.1.243.243,0,0,0,.139.036.25.25,0,0,0,.135-.034A.224.224,0,0,0,515.881,71.755Z"/><path class="cls-31" d="M517.059,72.006h-.872v-.18l.182-.156c.061-.052.117-.1.17-.154a1.763,1.763,0,0,0,.228-.256.374.374,0,0,0,.06-.2.2.2,0,0,0-.065-.157.277.277,0,0,0-.185-.057.58.58,0,0,0-.171.028.689.689,0,0,0-.178.085h-.009v-.182a.779.779,0,0,1,.164-.055.823.823,0,0,1,.2-.026.472.472,0,0,1,.311.1.322.322,0,0,1,.112.259.463.463,0,0,1-.019.137.5.5,0,0,1-.054.121,1.029,1.029,0,0,1-.079.1c-.031.034-.068.073-.111.115-.061.06-.125.119-.191.176l-.184.157h.693Z"/></g><g id="_102-13" data-name="102"><rect class="cls-30" x="522.212" y="70.391" width="4.255" height="3.438"/><rect class="cls-30" x="522.171" y="63.263" width="4.255" height="3.438"/><rect class="cls-32" x="522.522" y="65.934" width="3.608" height="5.161"/></g><g id="_102-14" data-name="102"><rect class="cls-30" x="522.212" y="86.392" width="4.255" height="3.438"/><rect class="cls-30" x="522.171" y="79.264" width="4.255" height="3.438"/><rect class="cls-32" x="522.522" y="81.935" width="3.608" height="5.161"/></g><g id="_102-15" data-name="102"><rect class="cls-30" x="533.316" y="97.374" width="4.255" height="3.438"/><rect class="cls-30" x="533.275" y="90.245" width="4.255" height="3.438"/><rect class="cls-32" x="533.626" y="92.917" width="3.608" height="5.161"/></g><polyline class="cls-33" points="535.809 145.663 537.799 145.663 537.799 138.043 535.809 138.043"/><polyline class="cls-33" points="493.539 138.043 491.549 138.043 491.549 145.663 493.539 145.663"/><polyline class="cls-33" points="532.769 117.143 535.279 117.143 535.279 114.243 531.739 114.243"/><polyline class="cls-33" points="493.539 117.143 491.029 117.143 491.029 114.243 494.559 114.243"/><rect class="cls-33" x="519.859" y="110.343" width="2.57" height="6.04"/><rect class="cls-33" x="516.689" y="110.343" width="2.57" height="6.04"/><rect class="cls-33" x="513.519" y="110.343" width="2.57" height="6.04"/><rect class="cls-33" x="510.349" y="110.343" width="2.57" height="6.04"/><rect class="cls-33" x="507.179" y="110.343" width="2.57" height="6.04"/><rect class="cls-33" x="503.999" y="110.343" width="2.57" height="6.04"/><rect class="cls-33" x="500.829" y="110.343" width="2.57" height="6.04"/><rect class="cls-33" x="497.659" y="110.343" width="2.57" height="6.04"/><rect class="cls-33" x="494.489" y="110.343" width="2.57" height="6.04"/><path class="cls-34" d="M535.809,155.753v-36.86a.29.29,0,0,0-.29-.29h-2.46a.29.29,0,0,1-.29-.29h0v-3.78a.29.29,0,0,0-.29-.29h-38.66a.28.28,0,0,0-.28.28v39.19a.28.28,0,0,0,.225.326.255.255,0,0,0,.055,0h26.15l8,2h7.55a.29.29,0,0,0,.29-.29Z"/><rect class="cls-35" x="493.529" y="118.683" width="3.07" height="11"/><polygon class="cls-36" points="493.539 115.243 496.599 116.133 496.599 118.683 493.539 118.683 493.539 115.243"/><path class="cls-37" d="M493.759,129.793l.78-1.3a2.631,2.631,0,0,0,.21-1.5,2.091,2.091,0,0,0-.09-.33l-.79-2.87a1.924,1.924,0,0,1-.12-.53,2.306,2.306,0,0,1,.45-1.58l.77-1.3"/><polygon class="cls-35" points="535.759 150.963 534.909 150.963 534.909 137.873 529.379 137.873 529.379 141.633 531.969 144.493 531.969 150.963 531.229 150.963 531.229 144.663 528.649 141.743 528.649 137.163 535.759 137.163 535.759 150.963"/><path class="cls-35" d="M518.789,128.883v8.16a.18.18,0,0,1-.17.17h-.49a.18.18,0,0,1-.17-.17v-9a.17.17,0,0,1,.17-.17h4.06a.17.17,0,0,1,.17.17v9a.18.18,0,0,1-.17.17h-.46a.18.18,0,0,1-.17-.17v-8.12a.181.181,0,0,0-.17-.18h-2.43A.18.18,0,0,0,518.789,128.883Z"/><path class="cls-35" d="M498.929,128.883v8.16a.18.18,0,0,1-.17.17h-.49a.18.18,0,0,1-.17-.17v-9a.17.17,0,0,1,.17-.17h4.06a.17.17,0,0,1,.17.17v9a.18.18,0,0,1-.17.17h-.46a.18.18,0,0,1-.17-.17v-8.12a.181.181,0,0,0-.17-.18H499.1A.18.18,0,0,0,498.929,128.883Z"/><line class="cls-38" x1="535.639" y1="136.933" x2="535.639" y2="155.753"/><g id="конденсатор-15" data-name="конденсатор"><rect class="cls-17" x="447.099" y="107.809" width="2.343" height="5.118"/><rect class="cls-17" x="453.875" y="107.761" width="2.343" height="5.118"/><rect class="cls-32" x="448.589" y="108.181" width="6.2" height="4.337"/></g></g><g id="top"><path class="cls-3" d="M278.875,0H6.007A6.006,6.006,0,0,0,0,6.007V149.728a6.006,6.006,0,0,0,6.007,6.007H278.875a6.007,6.007,0,0,0,6.007-6.007V6.007A6.007,6.007,0,0,0,278.875,0ZM9.046,151.2a4.536,4.536,0,1,1,4.535-4.535A4.536,4.536,0,0,1,9.046,151.2Zm0-137.594a4.536,4.536,0,1,1,4.535-4.535A4.535,4.535,0,0,1,9.046,13.606ZM275.811,151.2a4.536,4.536,0,1,1,4.535-4.535A4.535,4.535,0,0,1,275.811,151.2Zm0-137.594a4.536,4.536,0,1,1,4.535-4.535A4.535,4.535,0,0,1,275.811,13.606Z"/><path class="cls-4" d="M9.046,4.535A4.536,4.536,0,1,1,4.51,9.071,4.535,4.535,0,0,1,9.046,4.535m0-1.417A5.953,5.953,0,1,0,15,9.071,5.96,5.96,0,0,0,9.046,3.118Z"/><path class="cls-4" d="M9.046,142.129a4.536,4.536,0,1,1-4.536,4.536,4.535,4.535,0,0,1,4.536-4.536m0-1.417A5.953,5.953,0,1,0,15,146.665a5.959,5.959,0,0,0-5.953-5.953Z"/><path class="cls-4" d="M275.811,4.535a4.536,4.536,0,1,1-4.535,4.536,4.535,4.535,0,0,1,4.535-4.536m0-1.417a5.953,5.953,0,1,0,5.953,5.953,5.96,5.96,0,0,0-5.953-5.953Z"/><path class="cls-4" d="M275.811,142.129a4.536,4.536,0,1,1-4.535,4.536,4.535,4.535,0,0,1,4.535-4.536m0-1.417a5.953,5.953,0,1,0,5.953,5.953,5.96,5.96,0,0,0-5.953-5.953Z"/><rect class="cls-39" x="-29.718" y="70.946" width="104.184" height="4.971" transform="translate(95.805 51.058) rotate(90)"/><path class="cls-40" d="M24.859,59.425h-4.97"/><path class="cls-40" d="M24.859,60.9h-4.97"/><path class="cls-40" d="M24.859,62.375h-4.97"/><path class="cls-40" d="M24.859,63.85h-4.97"/><path class="cls-40" d="M24.859,68.688h-4.97"/><path class="cls-40" d="M24.859,72.513h-4.97"/><path class="cls-40" d="M24.859,75.7h-4.97"/><path class="cls-40" d="M24.859,54.55h-5"/><rect class="cls-41" x="-29.719" y="70.946" width="104.184" height="4.972" transform="translate(95.805 51.058) rotate(90)"/><rect class="cls-42" x="11.017" y="30.181" width="22.676" height="4.993" transform="translate(55.033 10.322) rotate(90)"/><rect class="cls-5" x="22.393" width="241.224" height="156.097"/><rect class="cls-43" x="22.393" y="25.756" width="7.581" height="104.585"/><rect class="cls-44" x="45.214" y="5.62" width="213.924" height="144.858"/><rect class="cls-35" x="29.974" y="5.62" width="20.676" height="144.858"/><rect class="cls-45" x="22.393" y="39.024" width="7.581" height="78.049"/><line class="cls-46" x1="29.974" y1="41.382" x2="22.393" y2="41.382"/><line class="cls-46" x1="29.974" y1="52.396" x2="22.393" y2="52.396"/><line class="cls-46" x1="29.974" y1="51.294" x2="22.393" y2="51.294"/><line class="cls-46" x1="29.974" y1="50.193" x2="22.393" y2="50.193"/><line class="cls-46" x1="29.974" y1="49.092" x2="22.393" y2="49.092"/><line class="cls-46" x1="29.974" y1="47.99" x2="22.393" y2="47.99"/><line class="cls-46" x1="29.974" y1="46.889" x2="22.393" y2="46.889"/><line class="cls-46" x1="29.974" y1="63.409" x2="22.393" y2="63.409"/><line class="cls-46" x1="29.974" y1="62.308" x2="22.393" y2="62.308"/><line class="cls-46" x1="29.974" y1="61.207" x2="22.393" y2="61.207"/><line class="cls-46" x1="29.974" y1="60.105" x2="22.393" y2="60.105"/><line class="cls-46" x1="29.974" y1="74.423" x2="22.393" y2="74.423"/><line class="cls-46" x1="29.974" y1="75.524" x2="22.393" y2="75.524"/><line class="cls-46" x1="29.974" y1="76.626" x2="22.393" y2="76.626"/><line class="cls-46" x1="29.974" y1="85.436" x2="22.393" y2="85.436"/><line class="cls-46" x1="29.974" y1="96.45" x2="22.393" y2="96.45"/><line class="cls-46" x1="29.974" y1="95.349" x2="22.393" y2="95.349"/><line class="cls-46" x1="29.974" y1="94.247" x2="22.393" y2="94.247"/><line class="cls-46" x1="29.974" y1="93.146" x2="22.393" y2="93.146"/><line class="cls-46" x1="29.974" y1="92.045" x2="22.393" y2="92.045"/><line class="cls-46" x1="29.974" y1="90.943" x2="22.393" y2="90.943"/><line class="cls-46" x1="29.974" y1="89.842" x2="22.393" y2="89.842"/><line class="cls-46" x1="29.974" y1="88.74" x2="22.393" y2="88.74"/><line class="cls-46" x1="29.974" y1="87.639" x2="22.393" y2="87.639"/><line class="cls-46" x1="29.974" y1="86.538" x2="22.393" y2="86.538"/><line class="cls-46" x1="29.974" y1="107.463" x2="22.393" y2="107.463"/><line class="cls-46" x1="29.974" y1="106.362" x2="22.393" y2="106.362"/><line class="cls-46" x1="29.974" y1="105.261" x2="22.393" y2="105.261"/><line class="cls-46" x1="29.974" y1="104.159" x2="22.393" y2="104.159"/><line class="cls-46" x1="29.974" y1="103.058" x2="22.393" y2="103.058"/><rect class="cls-47" x="29.974" y="5.619" width="229.163" height="144.858"/><path class="cls-35" d="M22.393,0V156.1H263.617V0ZM259.137,150.478H29.974V5.619H259.137Z"/><path class="cls-45" d="M24.715,47.99H22.393l-1.034-1.1V24.6l1.034-.624h2.322a.661.661,0,0,1,.689.624V47.366A.661.661,0,0,1,24.715,47.99Z"/><path class="cls-48" d="M31.039,2.81V151.727a1.633,1.633,0,0,0,1.7,1.561H259.681a1.633,1.633,0,0,0,1.7-1.561V4.371a1.633,1.633,0,0,0-1.7-1.561H29.874a1.633,1.633,0,0,0-1.7,1.561V28"/><line class="cls-49" x1="22.393" y1="28.003" x2="28.924" y2="28.003"/><line class="cls-49" x1="22.393" y1="39.016" x2="30.416" y2="39.016"/><line class="cls-49" x1="22.393" y1="44.523" x2="30.416" y2="44.523"/><line class="cls-49" x1="22.393" y1="33.51" x2="30.416" y2="33.51"/><line class="cls-50" x1="25.404" y1="44.523" x2="30.416" y2="44.523"/><line class="cls-49" x1="25.404" y1="39.016" x2="26.486" y2="39.016"/><line class="cls-50" x1="25.404" y1="33.51" x2="26.486" y2="33.51"/></g></svg>