<?xml version="1.0" encoding="utf-8"?>
<!-- Generator: Adobe Illustrator 24.3.0, SVG Export Plug-In . SVG Version: 6.00 Build 0)  -->
<svg version="1.1" id="Layer_1" xmlns="http://www.w3.org/2000/svg" xmlns:xlink="http://www.w3.org/1999/xlink" x="0px" y="0px"
	 viewBox="0 0 85 85" style="enable-background:new 0 0 85 85;" xml:space="preserve">
<style type="text/css">
	.st0{fill:#AEA6A3;}
	.st1{fill:#1D1E1E;}
	.st2{fill:none;stroke:#DADADA;stroke-width:0.75;stroke-miterlimit:10;}
	.st3{fill:#DCD4C8;}
	.st4{fill:#A49788;}
	.st5{fill:#EDEDE8;}
	.st6{fill:#4F453F;}
	.st7{fill:#C4C2BE;}
	.st8{fill:#DBD3C7;}
	.st9{fill:#D8D0C4;}
	.st10{fill:none;stroke:#EDECEC;stroke-miterlimit:10;}
	.st11{fill:#5D5853;}
	.st12{fill:#474240;stroke:#5E5954;stroke-width:0.25;stroke-miterlimit:10;}
	.st13{fill:#0066FF;}
	.st14{fill:#DADADA;}
	.st15{fill:#EDEDED;}
</style>
<g>
	<path class="st0" d="M9.9,4c3.3,0,6,2.7,6,6s-2.7,6-6,6s-6-2.7-6-6S6.6,4,9.9,4z M9.9,5.5c-2.4,0-4.4,2-4.4,4.4s2,4.4,4.4,4.4
		s4.4-2,4.4-4.4S12.3,5.5,9.9,5.5z"/>
	<path class="st1" d="M0,0v85h85V0H0z M9.9,5.5c2.4,0,4.4,2,4.4,4.4c0,2.4-2,4.4-4.4,4.4c-2.4,0-4.4-2-4.4-4.4
		C5.5,7.5,7.5,5.5,9.9,5.5z M9.9,70.7c2.4,0,4.4,2,4.4,4.4c0,2.4-2,4.4-4.4,4.4c-2.4,0-4.4-2-4.4-4.4S7.5,70.7,9.9,70.7z M75.1,70.7
		c2.4,0,4.4,2,4.4,4.4c0,2.4-2,4.4-4.4,4.4s-4.4-2-4.4-4.4C70.7,72.7,72.7,70.7,75.1,70.7z M75.1,5.5c2.4,0,4.4,2,4.4,4.4
		c0,2.4-2,4.4-4.4,4.4c-2.4,0-4.4-2-4.4-4.4C70.7,7.5,72.7,5.5,75.1,5.5z M57.2,7.7c0-0.7,0.6-1.3,1.3-1.3c0.7,0,1.3,0.6,1.3,1.3
		S59.2,9,58.5,9C57.8,9,57.2,8.4,57.2,7.7z M57.2,11.3c0-0.7,0.6-1.3,1.3-1.3c0.7,0,1.3,0.6,1.3,1.3s-0.6,1.3-1.3,1.3
		C57.8,12.6,57.2,12,57.2,11.3z M60.9,7.7c0-0.7,0.6-1.3,1.3-1.3c0.7,0,1.3,0.6,1.3,1.3S62.9,9,62.2,9C61.5,9,60.9,8.4,60.9,7.7z
		 M60.9,11.3c0-0.7,0.6-1.3,1.3-1.3c0.7,0,1.3,0.6,1.3,1.3s-0.6,1.3-1.3,1.3C61.5,12.6,60.9,12,60.9,11.3z M64.5,7.7
		c0-0.7,0.6-1.3,1.3-1.3C66.4,6.4,67,7,67,7.7S66.4,9,65.7,9C65,9,64.5,8.4,64.5,7.7z M64.5,11.3c0-0.7,0.6-1.3,1.3-1.3
		c0.7,0,1.3,0.6,1.3,1.3s-0.6,1.3-1.3,1.3S64.5,12,64.5,11.3z"/>
	<circle class="st2" cx="58.5" cy="7.7" r="1.3"/>
	<circle class="st2" cx="58.5" cy="11.3" r="1.3"/>
	<circle class="st2" cx="62.2" cy="7.7" r="1.3"/>
	<circle class="st2" cx="62.2" cy="11.3" r="1.3"/>
	<circle class="st2" cx="65.7" cy="7.7" r="1.3"/>
	<circle class="st2" cx="65.7" cy="11.3" r="1.3"/>
	<path class="st3" d="M34.9,74.9c0,1.2-1,2.2-2.2,2.2s-2.2-1-2.2-2.2c0-1.2,1-2.2,2.2-2.2C33.9,72.7,34.9,73.7,34.9,74.9z"/>
	<ellipse class="st4" cx="32.7" cy="74.9" rx="1.5" ry="1.5"/>
	<rect x="39.3" y="78.9" class="st5" width="8.1" height="4.4"/>
	<g>
		<path class="st1" d="M40.2,79.8v-0.3h1.1v0.3l-0.3,0.1v2.4l0.3,0.1v0.3h-1.1v-0.3l0.3-0.1v-2.4L40.2,79.8z"/>
		<path class="st1" d="M41.6,82.5v-0.3l1-1.1c0.2-0.2,0.3-0.3,0.4-0.5s0.1-0.2,0.1-0.4c0-0.2,0-0.3-0.1-0.4s-0.2-0.2-0.3-0.2
			c-0.2,0-0.4,0.1-0.5,0.2S42,80.2,42,80.4h-0.4v0c0-0.3,0.1-0.5,0.3-0.7c0.2-0.2,0.4-0.3,0.8-0.3c0.3,0,0.5,0.1,0.7,0.2
			s0.2,0.4,0.2,0.6c0,0.2,0,0.3-0.2,0.5s-0.2,0.3-0.4,0.5l-0.8,0.9v0h1.1l0-0.3h0.3v0.7C43.6,82.5,41.6,82.5,41.6,82.5z"/>
		<path class="st1" d="M46.3,80.4H46L45.9,80c-0.1-0.1-0.2-0.1-0.2-0.2s-0.2-0.1-0.3-0.1c-0.3,0-0.6,0.1-0.7,0.3
			c-0.2,0.2-0.2,0.5-0.2,0.9V81c0,0.3,0.1,0.6,0.2,0.9s0.4,0.3,0.7,0.3c0.1,0,0.3,0,0.4-0.1c0.1,0,0.2-0.1,0.3-0.2l0.1-0.4h0.3v0.5
			c-0.1,0.1-0.2,0.2-0.4,0.3c-0.2,0.1-0.4,0.1-0.6,0.1c-0.4,0-0.7-0.2-1-0.4s-0.4-0.7-0.4-1.1v0c0-0.4,0.1-0.8,0.4-1.1
			s0.6-0.4,1-0.4c0.2,0,0.4,0,0.6,0.1c0.2,0.1,0.3,0.2,0.4,0.3C46.3,79.9,46.3,80.4,46.3,80.4z"/>
	</g>
	<path class="st3" d="M42.1,74.9c0,1.2-1,2.2-2.2,2.2s-2.2-1-2.2-2.2c0-1.2,1-2.2,2.2-2.2S42.1,73.7,42.1,74.9z"/>
	<ellipse class="st4" cx="39.8" cy="74.9" rx="1.5" ry="1.5"/>
	<path class="st3" d="M49.3,74.9c0,1.2-1,2.2-2.2,2.2s-2.2-1-2.2-2.2c0-1.2,1-2.2,2.2-2.2S49.3,73.7,49.3,74.9z"/>
	<ellipse class="st4" cx="47" cy="74.9" rx="1.5" ry="1.5"/>
	<path class="st3" d="M56.5,74.9c0,1.2-1,2.2-2.2,2.2s-2.2-1-2.2-2.2c0-1.2,1-2.2,2.2-2.2C55.5,72.7,56.5,73.7,56.5,74.9z"/>
	<ellipse class="st4" cx="54.2" cy="74.9" rx="1.5" ry="1.5"/>
	<g>
		<path class="st5" d="M30.9,70.2c-0.2-0.1-0.4-0.2-0.5-0.3c-0.1-0.1-0.2-0.2-0.2-0.4c0-0.2,0.1-0.3,0.2-0.4
			c0.1-0.1,0.3-0.2,0.5-0.2c0.1,0,0.3,0,0.4,0.1c0.1,0.1,0.2,0.1,0.3,0.2s0.1,0.2,0.1,0.3h-0.3c0-0.1,0-0.2-0.1-0.3
			c-0.1-0.1-0.2-0.1-0.3-0.1s-0.2,0-0.3,0.1s-0.1,0.2-0.1,0.2c0,0.1,0,0.2,0.1,0.2s0.2,0.1,0.4,0.2s0.3,0.1,0.4,0.2
			c0.1,0.1,0.2,0.1,0.2,0.2s0.1,0.2,0.1,0.3c0,0.2-0.1,0.3-0.2,0.4c-0.1,0.1-0.3,0.2-0.5,0.2c-0.1,0-0.3,0-0.4-0.1
			c-0.1-0.1-0.2-0.1-0.3-0.2s-0.1-0.2-0.1-0.3h0.3c0,0.1,0,0.2,0.1,0.3c0.1,0.1,0.2,0.1,0.4,0.1c0.1,0,0.3,0,0.3-0.1
			s0.1-0.1,0.1-0.2s0-0.2-0.1-0.2C31.2,70.3,31.1,70.3,30.9,70.2z"/>
		<path class="st5" d="M33.6,70.5c0,0.2-0.1,0.4-0.2,0.5c-0.1,0.1-0.3,0.2-0.5,0.2c-0.2,0-0.5-0.1-0.6-0.3S32,70.5,32,70.2V70
			c0-0.2,0-0.4,0.1-0.5s0.2-0.3,0.3-0.3s0.3-0.1,0.5-0.1c0.2,0,0.4,0.1,0.5,0.2c0.1,0.1,0.2,0.3,0.2,0.5h-0.3c0-0.2-0.1-0.3-0.2-0.4
			c-0.1-0.1-0.2-0.1-0.3-0.1c-0.2,0-0.3,0.1-0.4,0.2s-0.2,0.3-0.2,0.6v0.2c0,0.2,0,0.4,0.1,0.6c0.1,0.1,0.2,0.2,0.4,0.2
			c0.2,0,0.3,0,0.4-0.1c0.1-0.1,0.1-0.2,0.2-0.4C33.3,70.5,33.6,70.5,33.6,70.5z"/>
		<path class="st5" d="M34.3,70.9h1v0.2H34V69h0.3V70.9z"/>
	</g>
	<g>
		<path class="st5" d="M38.1,70.2c-0.2-0.1-0.4-0.2-0.5-0.3c-0.1-0.1-0.2-0.2-0.2-0.4c0-0.2,0.1-0.3,0.2-0.4s0.3-0.2,0.5-0.2
			c0.1,0,0.3,0,0.4,0.1c0.1,0.1,0.2,0.1,0.3,0.2s0.1,0.2,0.1,0.3h-0.3c0-0.1,0-0.2-0.1-0.3c-0.1-0.1-0.2-0.1-0.3-0.1s-0.2,0-0.3,0.1
			s-0.1,0.2-0.1,0.2c0,0.1,0,0.2,0.1,0.2s0.2,0.1,0.4,0.2s0.3,0.1,0.4,0.2c0.1,0.1,0.2,0.1,0.2,0.2s0.1,0.2,0.1,0.3
			c0,0.2-0.1,0.3-0.2,0.4c-0.1,0.1-0.3,0.2-0.5,0.2c-0.1,0-0.3,0-0.4-0.1c-0.1-0.1-0.2-0.1-0.3-0.2s-0.1-0.2-0.1-0.3h0.3
			c0,0.1,0,0.2,0.1,0.3c0.1,0.1,0.2,0.1,0.4,0.1c0.2,0,0.3,0,0.3-0.1s0.1-0.1,0.1-0.2s0-0.2-0.1-0.2C38.4,70.3,38.3,70.3,38.1,70.2z
			"/>
		<path class="st5" d="M39.2,71.1V69h0.6c0.2,0,0.3,0,0.5,0.1c0.1,0.1,0.2,0.2,0.3,0.3s0.1,0.3,0.1,0.5v0.1c0,0.2,0,0.4-0.1,0.5
			s-0.2,0.3-0.3,0.3c-0.1,0.1-0.3,0.1-0.5,0.1H39.2z M39.5,69.2v1.7h0.3c0.2,0,0.4-0.1,0.5-0.2c0.1-0.1,0.2-0.3,0.2-0.6V70
			c0-0.2-0.1-0.4-0.2-0.6c-0.1-0.1-0.3-0.2-0.5-0.2L39.5,69.2L39.5,69.2z"/>
		<path class="st5" d="M42.3,70.6h-0.9l-0.2,0.6H41l0.8-2.1H42l0.8,2.1h-0.3L42.3,70.6z M41.5,70.4h0.7l-0.4-1L41.5,70.4z"/>
	</g>
	<g>
		<path class="st5" d="M45.8,70.8l0.6-1.8h0.3l-0.8,2.1h-0.2L44.8,69h0.3L45.8,70.8z"/>
		<path class="st5" d="M47.5,71c0.1,0,0.2,0,0.2-0.1s0.1-0.1,0.1-0.2h0.2c0,0.1,0,0.2-0.1,0.3c-0.1,0.1-0.1,0.2-0.2,0.2
			c-0.1,0.1-0.2,0.1-0.3,0.1c-0.2,0-0.4-0.1-0.5-0.2s-0.2-0.3-0.2-0.6v-0.1c0-0.2,0-0.3,0.1-0.4c0.1-0.1,0.1-0.2,0.2-0.3
			c0.1-0.1,0.2-0.1,0.4-0.1c0.2,0,0.3,0.1,0.4,0.2s0.2,0.2,0.2,0.4h-0.2c0-0.1,0-0.2-0.1-0.2c-0.1-0.1-0.2-0.1-0.3-0.1
			c-0.1,0-0.2,0.1-0.3,0.2c-0.1,0.1-0.1,0.2-0.1,0.4v0.1c0,0.2,0,0.3,0.1,0.4C47.3,70.9,47.4,71,47.5,71z"/>
		<path class="st5" d="M49.1,71c0.1,0,0.2,0,0.2-0.1s0.1-0.1,0.1-0.2h0.2c0,0.1,0,0.2-0.1,0.3c-0.1,0.1-0.1,0.2-0.2,0.2
			c-0.1,0.1-0.2,0.1-0.3,0.1c-0.2,0-0.4-0.1-0.5-0.2s-0.2-0.3-0.2-0.6v-0.1c0-0.2,0-0.3,0.1-0.4c0.1-0.1,0.1-0.2,0.2-0.3
			c0.1-0.1,0.2-0.1,0.4-0.1c0.2,0,0.3,0.1,0.4,0.2s0.2,0.2,0.2,0.4h-0.2c0-0.1,0-0.2-0.1-0.2c-0.1-0.1-0.2-0.1-0.3-0.1
			c-0.1,0-0.2,0.1-0.3,0.2c-0.1,0.1-0.1,0.2-0.1,0.4v0.1c0,0.2,0,0.3,0.1,0.4C48.8,70.9,49,71,49.1,71z"/>
	</g>
	<g>
		<path class="st5" d="M53.1,70.9C53,71,52.9,71,52.8,71.1s-0.3,0.1-0.5,0.1c-0.2,0-0.3,0-0.5-0.1s-0.2-0.2-0.3-0.3
			s-0.1-0.3-0.1-0.5V70c0-0.3,0.1-0.6,0.2-0.8s0.4-0.3,0.6-0.3c0.2,0,0.4,0.1,0.5,0.2s0.2,0.3,0.2,0.5h-0.3c0-0.3-0.2-0.4-0.5-0.4
			c-0.2,0-0.3,0.1-0.4,0.2s-0.2,0.3-0.2,0.6v0.2c0,0.2,0,0.4,0.2,0.6s0.2,0.2,0.4,0.2c0.1,0,0.2,0,0.3,0c0.1,0,0.1-0.1,0.2-0.1v-0.5
			h-0.5v-0.2h0.8L53.1,70.9L53.1,70.9z"/>
		<path class="st5" d="M55.2,71.1h-0.3l-1.1-1.6v1.6h-0.3V69h0.3l1.1,1.7V69h0.3V71.1z"/>
		<path class="st5" d="M55.7,71.1V69h0.6c0.2,0,0.3,0,0.5,0.1c0.1,0.1,0.2,0.2,0.3,0.3s0.1,0.3,0.1,0.5v0.1c0,0.2,0,0.4-0.1,0.5
			s-0.2,0.3-0.3,0.3c-0.1,0.1-0.3,0.1-0.5,0.1H55.7z M56,69.2v1.7h0.3c0.2,0,0.4-0.1,0.5-0.2c0.1-0.1,0.2-0.3,0.2-0.6V70
			c0-0.2-0.1-0.4-0.2-0.6c-0.1-0.1-0.3-0.2-0.5-0.2L56,69.2L56,69.2z"/>
	</g>
	<path class="st0" d="M75.1,69.1c3.3,0,6,2.7,6,6s-2.7,6-6,6s-6-2.7-6-6S71.8,69.1,75.1,69.1z M75.1,70.7c-2.4,0-4.4,2-4.4,4.4
		c0,2.4,2,4.4,4.4,4.4c2.4,0,4.4-2,4.4-4.4C79.4,72.7,77.5,70.7,75.1,70.7z"/>
	<path class="st0" d="M75.1,4c3.3,0,6,2.7,6,6s-2.7,6-6,6s-6-2.7-6-6S71.8,4,75.1,4z M75.1,5.5c-2.4,0-4.4,2-4.4,4.4s2,4.4,4.4,4.4
		c2.4,0,4.4-2,4.4-4.4S77.5,5.5,75.1,5.5z"/>
	<path class="st0" d="M9.9,4c3.3,0,6,2.7,6,6s-2.7,6-6,6s-6-2.7-6-6S6.6,4,9.9,4z M9.9,5.5c-2.4,0-4.4,2-4.4,4.4s2,4.4,4.4,4.4
		s4.4-2,4.4-4.4S12.3,5.5,9.9,5.5z"/>
	<path class="st0" d="M9.9,69.1c3.3,0,6,2.7,6,6s-2.7,6-6,6s-6-2.7-6-6S6.6,69.1,9.9,69.1z M9.9,70.7c-2.4,0-4.4,2-4.4,4.4
		c0,2.4,2,4.4,4.4,4.4s4.4-2,4.4-4.4C14.2,72.7,12.3,70.7,9.9,70.7z"/>
</g>
<g>
	<g id="XMLID_6_">
		<g>
			<rect x="61.4" y="16.5" class="st6" width="3.7" height="8.6"/>
		</g>
	</g>
	<g id="XMLID_18_">
		<g>
			<rect x="58.3" y="20.1" class="st0" width="3" height="1.6"/>
		</g>
	</g>
	<g id="XMLID_16_">
		<g>
			<rect x="65" y="17.3" class="st0" width="3.5" height="1.7"/>
		</g>
	</g>
	<g id="XMLID_17_">
		<g>
			<rect x="65" y="22.8" class="st0" width="3.5" height="1.7"/>
		</g>
	</g>
	<g>
		<path class="st7" d="M63.5,21.7c0.2,0,0.3,0,0.4,0.1s0.1,0.2,0.1,0.4c0,0,0,0.1,0,0.2s0,0.1,0,0.2h-0.2v0c0,0,0-0.1,0-0.1
			c0,0,0-0.1,0-0.1c0-0.1,0-0.1,0-0.2s0-0.1-0.1-0.1s-0.1,0-0.1,0c0,0-0.1,0-0.2,0h-1.1v0.4h-0.2v-0.6L63.5,21.7L63.5,21.7z"/>
		<path class="st7" d="M63.1,20.2c0,0,0.1-0.1,0.1-0.1s0.1,0,0.2,0c0.1,0,0.2,0,0.2,0c0.1,0,0.1,0.1,0.2,0.1
			c0.1,0.1,0.1,0.1,0.1,0.2c0,0.1,0,0.2,0,0.3s0,0.2,0,0.3c0,0.1,0,0.2-0.1,0.2h-0.2v0c0-0.1,0.1-0.1,0.1-0.2c0-0.1,0-0.2,0-0.3
			c0,0,0-0.1,0-0.2s0-0.1-0.1-0.1c0,0-0.1-0.1-0.1-0.1c0,0-0.1,0-0.2,0s-0.1,0-0.2,0s-0.1,0-0.1,0.1c0,0,0,0.1,0,0.1s0,0.1,0,0.2
			v0.1h-0.2v-0.1c0-0.1,0-0.2-0.1-0.3c0-0.1-0.1-0.1-0.2-0.1c0,0-0.1,0-0.1,0c0,0-0.1,0-0.1,0.1c0,0,0,0.1,0,0.1c0,0,0,0.1,0,0.1
			c0,0.1,0,0.2,0,0.2c0,0.1,0.1,0.2,0.1,0.2v0h-0.2c0-0.1,0-0.1-0.1-0.2s0-0.2,0-0.3s0-0.2,0-0.2s0-0.1,0.1-0.2
			c0-0.1,0.1-0.1,0.1-0.1c0.1,0,0.1,0,0.2,0c0.1,0,0.2,0,0.3,0.1s0.1,0.2,0.1,0.2h0c0,0,0-0.1,0-0.1C63.1,20.3,63.1,20.2,63.1,20.2z
			"/>
		<path class="st7" d="M62.2,18.3l1,0.6H64v0.2h-0.8l-1,0.6v-0.3l0.8-0.5l-0.8-0.5C62.2,18.6,62.2,18.3,62.2,18.3z"/>
	</g>
</g>
<g>
	<g id="XMLID_25_">
		<g>
			<rect x="58.8" y="69.8" class="st8" width="4.3" height="3.4"/>
		</g>
	</g>
	<g id="XMLID_24_">
		<g>
			<rect x="58.8" y="77" class="st8" width="4.3" height="3.4"/>
		</g>
	</g>
	<g id="XMLID_23_">
		<g>
			<rect x="59.1" y="72.6" class="st6" width="3.6" height="5.2"/>
		</g>
	</g>
	<g>
		<path class="st7" d="M60.4,74.2v-0.7h0.1v0.3h0.9v-0.3h0.1c0,0,0,0.1,0,0.1s0,0.1,0,0.1c0,0,0,0.1,0,0.1c0,0,0,0,0.1,0v0.1h-1.2
			v0.3L60.4,74.2L60.4,74.2z"/>
		<path class="st7" d="M61,75.2c-0.2,0-0.4,0-0.5-0.1s-0.2-0.2-0.2-0.3c0-0.2,0-0.3,0.2-0.3s0.3-0.1,0.5-0.1c0.2,0,0.4,0,0.5,0.1
			c0.1,0.1,0.2,0.2,0.2,0.3c0,0.2-0.1,0.3-0.2,0.3S61.2,75.2,61,75.2z M60.6,75c0,0,0.1,0,0.2,0s0.1,0,0.2,0s0.2,0,0.2,0
			c0.1,0,0.1,0,0.2,0c0,0,0.1-0.1,0.1-0.1c0,0,0-0.1,0-0.1c0-0.1,0-0.1,0-0.1c0,0-0.1-0.1-0.1-0.1c0,0-0.1,0-0.2,0s-0.1,0-0.2,0
			s-0.2,0-0.2,0s-0.1,0-0.2,0c0,0-0.1,0.1-0.1,0.1c0,0,0,0.1,0,0.1c0,0.1,0,0.1,0,0.1S60.6,75,60.6,75z"/>
		<path class="st7" d="M61,76.2c-0.2,0-0.4,0-0.5-0.1s-0.2-0.2-0.2-0.3c0-0.2,0-0.3,0.2-0.3s0.3-0.1,0.5-0.1c0.2,0,0.4,0,0.5,0.1
			c0.1,0.1,0.2,0.2,0.2,0.3c0,0.2-0.1,0.3-0.2,0.3S61.2,76.2,61,76.2z M60.6,76c0,0,0.1,0,0.2,0c0.1,0,0.1,0,0.2,0
			c0.1,0,0.2,0,0.2,0c0.1,0,0.1,0,0.2,0c0,0,0.1-0.1,0.1-0.1c0,0,0-0.1,0-0.1c0-0.1,0-0.1,0-0.1c0,0-0.1-0.1-0.1-0.1
			c0,0-0.1,0-0.2,0s-0.1,0-0.2,0s-0.2,0-0.2,0s-0.1,0-0.2,0c0,0-0.1,0.1-0.1,0.1c0,0,0,0.1,0,0.1c0,0.1,0,0.1,0,0.1
			S60.6,75.9,60.6,76z"/>
		<path class="st7" d="M60.4,77.1v-0.9h0.2c0,0.1,0.1,0.1,0.2,0.2c0,0.1,0.1,0.1,0.2,0.2c0.1,0.1,0.2,0.2,0.3,0.2
			c0.1,0,0.1,0.1,0.2,0.1s0.1,0,0.2-0.1c0,0,0.1-0.1,0.1-0.2c0-0.1,0-0.1,0-0.2s0-0.1-0.1-0.2v0h0.2c0,0,0,0.1,0.1,0.2
			c0,0.1,0,0.1,0,0.2c0,0.1,0,0.2-0.1,0.3c-0.1,0.1-0.2,0.1-0.3,0.1c0,0-0.1,0-0.1,0c0,0-0.1,0-0.1-0.1c0,0-0.1-0.1-0.1-0.1
			c0,0-0.1-0.1-0.1-0.1c-0.1-0.1-0.1-0.1-0.2-0.2c-0.1-0.1-0.1-0.1-0.2-0.2v0.7L60.4,77.1L60.4,77.1z"/>
	</g>
</g>
<g>
	<g id="XMLID_123_">
		<g>
			<rect x="23.9" y="69.8" class="st8" width="4.3" height="3.4"/>
		</g>
	</g>
	<g id="XMLID_122_">
		<g>
			<rect x="23.9" y="77" class="st8" width="4.3" height="3.4"/>
		</g>
	</g>
	<g id="XMLID_121_">
		<g>
			<rect x="24.2" y="72.6" class="st6" width="3.6" height="5.2"/>
		</g>
	</g>
	<g>
		<path class="st7" d="M25.5,74.2v-0.7h0.1v0.3h0.9v-0.3h0.1c0,0,0,0.1,0,0.1s0,0.1,0,0.1c0,0,0,0.1,0,0.1c0,0,0,0,0.1,0v0.1h-1.2
			v0.3L25.5,74.2L25.5,74.2z"/>
		<path class="st7" d="M26.1,75.2c-0.2,0-0.4,0-0.5-0.1s-0.2-0.2-0.2-0.3c0-0.2,0-0.3,0.2-0.3s0.3-0.1,0.5-0.1c0.2,0,0.4,0,0.5,0.1
			s0.2,0.2,0.2,0.3c0,0.2-0.1,0.3-0.2,0.3S26.4,75.2,26.1,75.2z M25.7,75c0,0,0.1,0,0.2,0s0.1,0,0.2,0s0.2,0,0.2,0
			c0.1,0,0.1,0,0.2,0c0,0,0.1-0.1,0.1-0.1s0-0.1,0-0.1c0-0.1,0-0.1,0-0.1c0,0-0.1-0.1-0.1-0.1c0,0-0.1,0-0.2,0s-0.1,0-0.2,0
			s-0.2,0-0.2,0s-0.1,0-0.2,0c0,0-0.1,0.1-0.1,0.1s0,0.1,0,0.1c0,0.1,0,0.1,0,0.1S25.7,75,25.7,75z"/>
		<path class="st7" d="M26.1,76.2c-0.2,0-0.4,0-0.5-0.1s-0.2-0.2-0.2-0.3c0-0.2,0-0.3,0.2-0.3s0.3-0.1,0.5-0.1c0.2,0,0.4,0,0.5,0.1
			s0.2,0.2,0.2,0.3c0,0.2-0.1,0.3-0.2,0.3S26.4,76.2,26.1,76.2z M25.7,76c0,0,0.1,0,0.2,0s0.1,0,0.2,0c0.1,0,0.2,0,0.2,0
			c0.1,0,0.1,0,0.2,0c0,0,0.1-0.1,0.1-0.1s0-0.1,0-0.1c0-0.1,0-0.1,0-0.1c0,0-0.1-0.1-0.1-0.1c0,0-0.1,0-0.2,0s-0.1,0-0.2,0
			s-0.2,0-0.2,0s-0.1,0-0.2,0c0,0-0.1,0.1-0.1,0.1s0,0.1,0,0.1c0,0.1,0,0.1,0,0.1S25.7,75.9,25.7,76z"/>
		<path class="st7" d="M25.5,77.1v-0.9h0.2c0,0.1,0.1,0.1,0.2,0.2c0,0.1,0.1,0.1,0.1,0.2c0.1,0.1,0.2,0.2,0.3,0.2
			c0.1,0,0.1,0.1,0.2,0.1c0.1,0,0.1,0,0.2-0.1c0,0,0.1-0.1,0.1-0.2c0-0.1,0-0.1,0-0.2s0-0.1-0.1-0.2v0h0.2c0,0,0,0.1,0.1,0.2
			c0,0.1,0,0.1,0,0.2c0,0.1,0,0.2-0.1,0.3c-0.1,0.1-0.1,0.1-0.3,0.1c0,0-0.1,0-0.1,0c0,0-0.1,0-0.1-0.1c0,0-0.1-0.1-0.1-0.1
			c0,0-0.1-0.1-0.1-0.1c-0.1-0.1-0.1-0.1-0.2-0.2c-0.1-0.1-0.1-0.1-0.2-0.2v0.7L25.5,77.1L25.5,77.1z"/>
	</g>
</g>
<g id="Микроконтроллер">
	<g id="XMLID_41_">
		<g>
			<rect x="42.7" y="1.7" class="st9" width="1.6" height="2"/>
		</g>
	</g>
	<line class="st10" x1="43.5" y1="2.3" x2="43.5" y2="6"/>
	<g id="XMLID_44_">
		<g>
			<rect x="40.5" y="1.7" class="st9" width="1.6" height="2"/>
		</g>
	</g>
	<line class="st10" x1="41.3" y1="2.3" x2="41.3" y2="6"/>
	<g id="XMLID_43_">
		<g>
			<rect x="38.3" y="1.7" class="st9" width="1.6" height="2"/>
		</g>
	</g>
	<line class="st10" x1="39.2" y1="2.3" x2="39.2" y2="6"/>
	<g id="XMLID_37_">
		<g>
			<rect x="36.2" y="1.7" class="st9" width="1.6" height="2"/>
		</g>
	</g>
	<line class="st10" x1="37" y1="2.3" x2="37" y2="6"/>
	<g id="XMLID_36_">
		<g>
			<rect x="34" y="1.7" class="st9" width="1.6" height="2"/>
		</g>
	</g>
	<line class="st10" x1="34.9" y1="2.3" x2="34.9" y2="6"/>
	<g id="XMLID_35_">
		<g>
			<rect x="31.9" y="1.7" class="st9" width="1.6" height="2"/>
		</g>
	</g>
	<line class="st10" x1="32.7" y1="2.3" x2="32.7" y2="6"/>
	<g id="XMLID_32_">
		<g>
			<rect x="47" y="1.7" class="st9" width="1.6" height="2"/>
		</g>
	</g>
	<line class="st10" x1="47.8" y1="2.3" x2="47.8" y2="6"/>
	<g id="XMLID_31_">
		<g>
			<rect x="44.8" y="1.7" class="st9" width="1.6" height="2"/>
		</g>
	</g>
	<line class="st10" x1="45.6" y1="2.3" x2="45.6" y2="6"/>
	<g id="XMLID_431_">
		<g>
			<rect x="42.7" y="27.2" class="st9" width="1.6" height="2"/>
		</g>
	</g>
	<line class="st10" x1="43.5" y1="28.6" x2="43.5" y2="24.9"/>
	<g id="XMLID_430_">
		<g>
			<rect x="40.5" y="27.2" class="st9" width="1.6" height="2"/>
		</g>
	</g>
	<line class="st10" x1="41.3" y1="28.6" x2="41.3" y2="24.9"/>
	<g id="XMLID_429_">
		<g>
			<rect x="38.3" y="27.2" class="st9" width="1.6" height="2"/>
		</g>
	</g>
	<line class="st10" x1="39.2" y1="28.6" x2="39.2" y2="24.9"/>
	<g id="XMLID_428_">
		<g>
			<rect x="36.2" y="27.2" class="st9" width="1.6" height="2"/>
		</g>
	</g>
	<line class="st10" x1="37" y1="28.6" x2="37" y2="24.9"/>
	<g id="XMLID_427_">
		<g>
			<rect x="34" y="27.2" class="st9" width="1.6" height="2"/>
		</g>
	</g>
	<line class="st10" x1="34.9" y1="28.6" x2="34.9" y2="24.9"/>
	<g id="XMLID_426_">
		<g>
			<rect x="31.9" y="27.2" class="st9" width="1.6" height="2"/>
		</g>
	</g>
	<line class="st10" x1="32.7" y1="28.6" x2="32.7" y2="24.9"/>
	<g id="XMLID_425_">
		<g>
			<rect x="47" y="27.2" class="st9" width="1.6" height="2"/>
		</g>
	</g>
	<line class="st10" x1="47.8" y1="28.6" x2="47.8" y2="24.9"/>
	<g id="XMLID_424_">
		<g>
			<rect x="44.8" y="27.2" class="st9" width="1.6" height="2"/>
		</g>
	</g>
	<line class="st10" x1="45.6" y1="28.6" x2="45.6" y2="24.9"/>
	<g id="XMLID_879_">
		<g>
			<rect x="51.9" y="11.4" class="st9" width="2" height="1.6"/>
		</g>
	</g>
	<line class="st10" x1="53.3" y1="12.2" x2="49.6" y2="12.2"/>
	<g id="XMLID_878_">
		<g>
			<rect x="51.9" y="13.6" class="st9" width="2" height="1.6"/>
		</g>
	</g>
	<line class="st10" x1="53.3" y1="14.4" x2="49.6" y2="14.4"/>
	<g id="XMLID_877_">
		<g>
			<rect x="51.9" y="15.7" class="st9" width="2" height="1.6"/>
		</g>
	</g>
	<line class="st10" x1="53.3" y1="16.5" x2="49.6" y2="16.5"/>
	<g id="XMLID_876_">
		<g>
			<rect x="51.9" y="17.9" class="st9" width="2" height="1.6"/>
		</g>
	</g>
	<line class="st10" x1="53.3" y1="18.7" x2="49.6" y2="18.7"/>
	<g id="XMLID_875_">
		<g>
			<rect x="51.9" y="20" class="st9" width="2" height="1.6"/>
		</g>
	</g>
	<line class="st10" x1="53.3" y1="20.8" x2="49.6" y2="20.8"/>
	<g id="XMLID_874_">
		<g>
			<rect x="51.9" y="22.2" class="st9" width="2" height="1.6"/>
		</g>
	</g>
	<line class="st10" x1="53.3" y1="23" x2="49.6" y2="23"/>
	<g id="XMLID_873_">
		<g>
			<rect x="51.9" y="7.1" class="st9" width="2" height="1.6"/>
		</g>
	</g>
	<line class="st10" x1="53.3" y1="7.9" x2="49.6" y2="7.9"/>
	<g id="XMLID_872_">
		<g>
			<rect x="51.9" y="9.3" class="st9" width="2" height="1.6"/>
		</g>
	</g>
	<line class="st10" x1="53.3" y1="10.1" x2="49.6" y2="10.1"/>
	<g id="XMLID_383_">
		<g>
			<rect x="26.4" y="11.4" class="st9" width="2" height="1.6"/>
		</g>
	</g>
	<line class="st10" x1="27" y1="12.2" x2="30.8" y2="12.2"/>
	<g id="XMLID_382_">
		<g>
			<rect x="26.4" y="13.6" class="st9" width="2" height="1.6"/>
		</g>
	</g>
	<line class="st10" x1="27" y1="14.4" x2="30.8" y2="14.4"/>
	<g id="XMLID_381_">
		<g>
			<rect x="26.4" y="15.7" class="st9" width="2" height="1.6"/>
		</g>
	</g>
	<line class="st10" x1="27" y1="16.5" x2="30.8" y2="16.5"/>
	<g id="XMLID_380_">
		<g>
			<rect x="26.4" y="17.9" class="st9" width="2" height="1.6"/>
		</g>
	</g>
	<line class="st10" x1="27" y1="18.7" x2="30.8" y2="18.7"/>
	<g id="XMLID_379_">
		<g>
			<rect x="26.4" y="20" class="st9" width="2" height="1.6"/>
		</g>
	</g>
	<line class="st10" x1="27" y1="20.8" x2="30.8" y2="20.8"/>
	<g id="XMLID_378_">
		<g>
			<rect x="26.4" y="22.2" class="st9" width="2" height="1.6"/>
		</g>
	</g>
	<line class="st10" x1="27" y1="23" x2="30.8" y2="23"/>
	<g id="XMLID_377_">
		<g>
			<rect x="26.4" y="7.1" class="st9" width="2" height="1.6"/>
		</g>
	</g>
	<line class="st10" x1="27" y1="7.9" x2="30.8" y2="7.9"/>
	<g id="XMLID_376_">
		<g>
			<rect x="26.4" y="9.3" class="st9" width="2" height="1.6"/>
		</g>
	</g>
	<line class="st10" x1="27" y1="10.1" x2="30.8" y2="10.1"/>
	<path class="st11" d="M49,24.9H31.4c-0.4,0-0.7-0.3-0.7-0.7V6.7C30.8,6.3,31,6,31.4,6H49c0.4,0,0.7,0.3,0.7,0.7v17.5
		C49.6,24.6,49.3,24.9,49,24.9z"/>
</g>
<g>
	<rect x="-0.1" y="27.4" class="st12" width="85.2" height="39.6"/>
	<path class="st13" d="M15.8,35.4c0,0.1-1.3,10.2-1.3,10.2l1.1,1.5h0.8c0,0,0.1,0,0.3-0.3S18,37,18,37s0.1-1.9-1.3-1.9
		c0,0-0.4,0-0.6,0.1C15.9,35.2,15.8,35.3,15.8,35.4z"/>
	<path class="st13" d="M12.7,59.2c0-0.1,1.3-10.1,1.3-10.1l1.6-1.6h0.6c0.1,0,0.3,0.3,0.3,0.7c0,0.4-1.3,9.7-1.3,9.7s0,0.6-1.8,1.5
		c0,0-0.5,0.1-0.7,0C12.7,59.4,12.7,59.3,12.7,59.2z"/>
	<g>
		<path class="st14" d="M14.8,37.4H7.2c-0.1,0-0.2-0.1-0.2-0.2l0.2-1.8c0-0.1,0.1-0.2,0.2-0.2H15c0.1,0,0.2,0.1,0.2,0.2L15,37.2
			C15,37.4,14.9,37.4,14.8,37.4z"/>
	</g>
	<g>
		<path class="st14" d="M11.9,59.6H4.3c-0.1,0-0.2-0.1-0.2-0.2l0.2-1.8c0-0.1,0.1-0.2,0.2-0.2h7.6c0.1,0,0.2,0.1,0.2,0.2l-0.2,1.8
			C12.2,59.5,12.1,59.6,11.9,59.6z"/>
	</g>
	<g>
		<polygon class="st14" points="13.7,48.5 5.2,48.5 4.4,47.4 5.5,46.3 14,46.3 14.9,47.3 		"/>
	</g>
	<path class="st14" d="M6.6,35.7c0,0.1-1.4,10.2-1.4,10.2L3.8,47l-0.7,0c0,0-0.2-0.2-0.3-0.5s1.3-9.7,1.3-9.7s0.4-1.3,1.8-1.5
		c0.2,0,0.5-0.1,0.7,0C6.7,35.3,6.6,35.6,6.6,35.7z"/>
	<path class="st14" d="M3.6,59.1c0-0.1,1.1-9.9,1.1-9.9l-1.1-1.4L3,47.6c0,0-0.3,0.1-0.5,0.4s-1.1,9.5-1.1,9.5s0.1,1.3,1.3,1.9
		c0.1,0.1,0.4,0.2,0.7,0.2C3.6,59.5,3.6,59.1,3.6,59.1z"/>
	<path class="st13" d="M37.4,35.4c0,0.1-1.3,10.2-1.3,10.2l1.1,1.5H38c0,0,0.1,0,0.3-0.3s1.3-9.7,1.3-9.7s0.1-1.9-1.3-1.9
		c0,0-0.4,0-0.6,0.1C37.5,35.2,37.4,35.3,37.4,35.4z"/>
	<path class="st14" d="M34.3,59.2c0-0.1,1.3-10.1,1.3-10.1l1.6-1.6h0.6c0.1,0,0.3,0.3,0.3,0.7c0,0.4-1.3,9.7-1.3,9.7s0,0.6-1.8,1.5
		c0,0-0.5,0.1-0.7,0C34.3,59.4,34.3,59.3,34.3,59.2z"/>
	<g>
		<path class="st13" d="M36.4,37.4h-7.6c-0.1,0-0.2-0.1-0.2-0.2l0.2-1.8c0-0.1,0.1-0.2,0.2-0.2h7.6c0.1,0,0.2,0.1,0.2,0.2l-0.2,1.8
			C36.6,37.4,36.5,37.4,36.4,37.4z"/>
	</g>
	<g>
		<path class="st13" d="M33.6,59.5H26c-0.1,0-0.2-0.1-0.2-0.2l0.2-1.8c0-0.1,0.1-0.2,0.2-0.2h7.6c0.1,0,0.2,0.1,0.2,0.2l-0.2,1.8
			C33.8,59.5,33.7,59.5,33.6,59.5z"/>
	</g>
	<g>
		<polygon class="st13" points="35.3,48.5 26.9,48.5 26,47.4 27.1,46.3 35.6,46.3 36.5,47.3 		"/>
	</g>
	<path class="st14" d="M28.2,35.7c0,0.1-1.4,10.2-1.4,10.2L25.4,47l-0.7,0c0,0-0.2-0.2-0.3-0.5s1.3-9.7,1.3-9.7s0.4-1.3,1.8-1.5
		c0.1,0,0.5-0.1,0.7,0C28.3,35.3,28.2,35.6,28.2,35.7z"/>
	<path class="st13" d="M25.3,59.1c0-0.1,1.1-9.9,1.1-9.9l-1.1-1.4l-0.7-0.2c0,0-0.3,0.1-0.5,0.4s-1.1,9.5-1.1,9.5s0.1,1.3,1.3,1.9
		c0.1,0.1,0.4,0.2,0.7,0.2C25.2,59.5,25.3,59.1,25.3,59.1z"/>
	<circle class="st14" cx="42.8" cy="41.9" r="1.3"/>
	<circle class="st14" cx="41.4" cy="52.9" r="1.3"/>
	<path class="st13" d="M58.9,35.4c0,0.1-1.3,10.2-1.3,10.2l1.1,1.5h0.8c0,0,0.1,0,0.3-0.3s1.3-9.7,1.3-9.7s0.1-1.9-1.3-1.9
		c0,0-0.4,0-0.6,0.1C59,35.2,58.9,35.3,58.9,35.4z"/>
	<path class="st13" d="M55.8,59.2c0-0.1,1.3-10.1,1.3-10.1l1.6-1.6h0.6c0.1,0,0.3,0.3,0.3,0.7c0,0.4-1.3,9.7-1.3,9.7s0,0.6-1.8,1.5
		c0,0-0.5,0.1-0.7,0C55.8,59.4,55.8,59.3,55.8,59.2z"/>
	<g>
		<path class="st13" d="M57.9,37.4h-7.6c-0.1,0-0.2-0.1-0.2-0.2l0.2-1.8c0-0.1,0.1-0.2,0.2-0.2h7.6c0.1,0,0.2,0.1,0.2,0.2l-0.2,1.8
			C58.1,37.3,58,37.4,57.9,37.4z"/>
	</g>
	<g>
		<path class="st13" d="M55.1,59.5h-7.6c-0.1,0-0.2-0.1-0.2-0.2l0.2-1.8c0-0.1,0.1-0.2,0.2-0.2h7.6c0.1,0,0.2,0.1,0.2,0.2l-0.2,1.8
			C55.3,59.5,55.2,59.5,55.1,59.5z"/>
	</g>
	<g>
		<polygon class="st13" points="56.8,48.5 48.3,48.5 47.5,47.4 48.6,46.3 57.1,46.3 58,47.3 		"/>
	</g>
	<path class="st14" d="M49.8,35.7c0,0.1-1.4,10.2-1.4,10.2L46.9,47l-0.7,0c0,0-0.2-0.2-0.3-0.5s1.3-9.7,1.3-9.7s0.4-1.3,1.8-1.5
		c0.2,0,0.5-0.1,0.7,0C49.8,35.3,49.8,35.6,49.8,35.7z"/>
	<path class="st14" d="M46.8,59.1c0-0.1,1.2-9.9,1.2-9.9l-1.1-1.4l-0.7-0.2c0,0-0.3,0.1-0.5,0.4c-0.2,0.3-1.1,9.5-1.1,9.5
		s0.1,1.3,1.3,1.9c0.1,0.1,0.4,0.2,0.7,0.2C46.7,59.5,46.8,59.1,46.8,59.1z"/>
	<path class="st13" d="M80.4,35.4c0,0.1-1.3,10.2-1.3,10.2l1.1,1.5H81c0,0,0.1,0,0.3-0.3s1.3-9.7,1.3-9.7s0.1-1.9-1.3-1.9
		c0,0-0.4,0-0.6,0.1C80.5,35.2,80.4,35.3,80.4,35.4z"/>
	<path class="st13" d="M77.3,59.2c0-0.1,1.3-10.1,1.3-10.1l1.6-1.6h0.6c0.1,0,0.3,0.3,0.3,0.7c0,0.4-1.3,9.7-1.3,9.7s0,0.6-1.8,1.5
		c0,0-0.5,0.1-0.7,0C77.3,59.4,77.3,59.3,77.3,59.2z"/>
	<g>
		<path class="st14" d="M79.4,37.4h-7.6c-0.1,0-0.2-0.1-0.2-0.2l0.2-1.8c0-0.1,0.1-0.2,0.2-0.2h7.6c0.1,0,0.2,0.1,0.2,0.2l-0.2,1.8
			C79.6,37.3,79.5,37.4,79.4,37.4z"/>
	</g>
	<g>
		<path class="st14" d="M76.6,59.5H69c-0.1,0-0.2-0.1-0.2-0.2l0.2-1.8c0-0.1,0.1-0.2,0.2-0.2h7.6c0.1,0,0.2,0.1,0.2,0.2l-0.2,1.8
			C76.8,59.5,76.7,59.5,76.6,59.5z"/>
	</g>
	<g>
		<polygon class="st13" points="78.3,48.5 69.8,48.5 69,47.4 70.1,46.3 78.6,46.3 79.5,47.3 		"/>
	</g>
	<path class="st13" d="M71.2,35.7c0,0.1-1.4,10.2-1.4,10.2L68.4,47l-0.7,0c0,0-0.2-0.2-0.3-0.5s1.3-9.7,1.3-9.7s0.4-1.3,1.8-1.5
		c0.2,0,0.5-0.1,0.7,0C71.3,35.3,71.3,35.6,71.2,35.7z"/>
	<path class="st14" d="M68.3,59.1c0-0.1,1.2-9.9,1.2-9.9l-1.1-1.4l-0.7-0.2c0,0-0.3,0.1-0.4,0.4c-0.2,0.3-1.1,9.5-1.1,9.5
		s0.1,1.3,1.3,1.9c0.1,0.1,0.4,0.2,0.7,0.2C68.2,59.5,68.3,59.1,68.3,59.1z"/>
</g>
<g>
	<path class="st15" d="M59.5,4.7c-0.3-0.1-0.5-0.2-0.6-0.3c-0.1-0.1-0.2-0.3-0.2-0.4c0-0.2,0.1-0.3,0.2-0.5c0.2-0.1,0.3-0.2,0.6-0.2
		c0.2,0,0.3,0,0.5,0.1s0.2,0.2,0.3,0.3c0.1,0.1,0.1,0.2,0.1,0.4h-0.3c0-0.2,0-0.3-0.1-0.3s-0.2-0.1-0.4-0.1c-0.2,0-0.3,0-0.4,0.1
		C59.1,3.7,59,3.8,59,4c0,0.1,0,0.2,0.1,0.2c0.1,0.1,0.2,0.1,0.4,0.2s0.4,0.1,0.5,0.2c0.1,0.1,0.2,0.2,0.2,0.2
		c0.1,0.1,0.1,0.2,0.1,0.3c0,0.2-0.1,0.4-0.2,0.5c-0.2,0.1-0.4,0.2-0.6,0.2c-0.2,0-0.3,0-0.5-0.1c-0.2-0.1-0.3-0.2-0.3-0.3
		s-0.1-0.2-0.1-0.4h0.3c0,0.2,0,0.3,0.2,0.3c0.1,0.1,0.2,0.1,0.4,0.1c0.2,0,0.3,0,0.4-0.1c0.1-0.1,0.1-0.2,0.1-0.3s0-0.2-0.1-0.3
		C59.8,4.8,59.7,4.8,59.5,4.7z"/>
	<path class="st15" d="M61.2,5l0,0.3l0.1-0.3l0.5-1.7h0.3l0.5,1.7l0.1,0.3l0-0.3l0.4-1.7h0.3l-0.6,2.4h-0.3L62,4l0-0.2l0,0.2
		l-0.5,1.8h-0.3l-0.6-2.4h0.3L61.2,5z"/>
	<path class="st15" d="M63.7,5.8V3.4h0.7c0.2,0,0.4,0,0.6,0.1c0.2,0.1,0.3,0.2,0.4,0.4c0.1,0.2,0.1,0.4,0.1,0.6v0.2
		c0,0.2,0,0.4-0.1,0.6s-0.2,0.3-0.4,0.4s-0.4,0.1-0.6,0.1H63.7z M64,3.6v1.9h0.3c0.2,0,0.4-0.1,0.6-0.2s0.2-0.4,0.2-0.7V4.5
		c0-0.3-0.1-0.5-0.2-0.7c-0.1-0.2-0.3-0.2-0.6-0.2H64z"/>
</g>
</svg>
