<svg xmlns="http://www.w3.org/2000/svg" xmlns:xlink="http://www.w3.org/1999/xlink" viewBox="0 0 41.123 85.35"><defs><style>.cls-1{fill:#19191a;}.cls-2{fill:#cec7bd;}.cls-19,.cls-3,.cls-6{fill:none;}.cls-3{stroke:#cec7bd;stroke-width:4.252px;}.cls-17,.cls-18,.cls-19,.cls-3,.cls-6{stroke-miterlimit:10;}.cls-4{fill:#f0f;}.cls-5{fill:#fff;}.cls-6{stroke:#fff;}.cls-7{fill:#918c84;}.cls-8{fill:#007f3d;}.cls-10,.cls-11,.cls-12,.cls-9{opacity:0.5;isolation:isolate;}.cls-9{fill:url(#linear-gradient);}.cls-10{fill:url(#linear-gradient-2);}.cls-11{fill:url(#linear-gradient-3);}.cls-12{fill:url(#linear-gradient-4);}.cls-13{fill:#c2c0be;}.cls-14{fill:#d9d8d6;}.cls-15{fill:#e6e6e6;}.cls-16{fill:#0d0e0f;}.cls-17{fill:#e39344;stroke:#666566;stroke-width:0.023px;}.cls-18{fill:#ebad4f;stroke:#b3b3b3;stroke-width:0.025px;}.cls-19{stroke:gray;stroke-width:0.011px;}</style><linearGradient id="linear-gradient" x1="-1237.473" y1="-195.646" x2="-1237.473" y2="-191.496" gradientTransform="matrix(0, -1, -1, 0, -155.438, -1202.002)" gradientUnits="userSpaceOnUse"><stop offset="0" stop-color="#fff" stop-opacity="0.5"/><stop offset="1" stop-opacity="0.5"/></linearGradient><linearGradient id="linear-gradient-2" x1="-1217.631" y1="-195.646" x2="-1217.631" y2="-191.496" xlink:href="#linear-gradient"/><linearGradient id="linear-gradient-3" x1="-1217.631" y1="-180.656" x2="-1217.631" y2="-176.506" xlink:href="#linear-gradient"/><linearGradient id="linear-gradient-4" x1="-1237.473" y1="-180.656" x2="-1237.473" y2="-176.506" xlink:href="#linear-gradient"/></defs><g id="Слой_1" data-name="Слой 1"><g id="Top"><path class="cls-1" d="M38.3,0H22.733l-2.87,2.86v11.3H.071V38.13L1.941,40v5.86L.071,47.73V71.215H19.863v11.3l2.83,2.83h15.65l2.78-2.79V2.81ZM9.281,58.515a4.25,4.25,0,1,1,4.25-4.25A4.246,4.246,0,0,1,9.281,58.515Zm0-23.05a4.25,4.25,0,1,1,4.25-4.25A4.246,4.246,0,0,1,9.281,35.465Z"/><path class="cls-2" d="M0,17.59v5.12H2.24c1.74,0,3.17-1.15,3.17-2.56s-1.43-2.56-3.17-2.56Z"/><path class="cls-2" d="M5.462,65.562h0C5.462,64.155,4.032,63,2.286,63H.051V68.12H2.286C4.032,68.12,5.462,66.969,5.462,65.562Z"/><circle class="cls-3" cx="9.281" cy="53.986" r="6.335"/><circle class="cls-3" cx="9.281" cy="31.271" r="6.335"/><rect class="cls-4" x="0.021" y="17.59" width="0.03" height="5.12"/><path class="cls-5" d="M9.644,65.356h1.035v.427H9.644v1.123H9.17V65.783H8.135v-.427H9.17V64.318h.474Z"/><path class="cls-5" d="M11.236,20.107H7.83v-.368h3.406Z"/><rect class="cls-6" x="22.009" y="72.879" width="17.979" height="7.317"/><rect class="cls-6" x="22.009" y="65.562" width="17.979" height="7.317"/><rect class="cls-6" x="22.009" y="58.245" width="17.979" height="7.317"/><rect class="cls-6" x="22.009" y="50.928" width="17.979" height="7.317"/><path class="cls-2" d="M25.746,57.2a2.241,2.241,0,1,0-2.223-2.24A2.231,2.231,0,0,0,25.746,57.2Z"/><ellipse class="cls-7" cx="25.746" cy="54.958" rx="1.519" ry="1.532"/><path class="cls-2" d="M25.746,64.427a2.241,2.241,0,1,0-2.223-2.24A2.231,2.231,0,0,0,25.746,64.427Z"/><ellipse class="cls-7" cx="25.746" cy="62.186" rx="1.519" ry="1.532"/><path class="cls-2" d="M25.746,71.627a2.241,2.241,0,1,0-2.223-2.24A2.231,2.231,0,0,0,25.746,71.627Z"/><ellipse class="cls-7" cx="25.746" cy="69.386" rx="1.519" ry="1.532"/><path class="cls-2" d="M24.117,78.214A2.279,2.279,0,0,0,27.9,76.031a2.21,2.21,0,0,0-1.595-1.6A2.279,2.279,0,0,0,24.117,78.214Z"/><ellipse class="cls-7" cx="25.746" cy="76.586" rx="1.519" ry="1.532"/><path class="cls-5" d="M31.6,70.717l.806-2.345h.406l-1.046,2.843h-.329l-1.043-2.843h.4Z"/><path class="cls-5" d="M35.264,70.313a1.047,1.047,0,0,1-.33.7,1.076,1.076,0,0,1-.738.245.994.994,0,0,1-.8-.361,1.466,1.466,0,0,1-.3-.967v-.273a1.621,1.621,0,0,1,.141-.7,1.05,1.05,0,0,1,.4-.462,1.1,1.1,0,0,1,.6-.161,1.013,1.013,0,0,1,.72.252,1.057,1.057,0,0,1,.316.7H34.89a.817.817,0,0,0-.21-.494.63.63,0,0,0-.452-.153.662.662,0,0,0-.558.266,1.229,1.229,0,0,0-.2.757v.275a1.26,1.26,0,0,0,.192.737.619.619,0,0,0,.537.274.71.71,0,0,0,.474-.142.787.787,0,0,0,.22-.493Z"/><path class="cls-5" d="M37.845,70.313a1.051,1.051,0,0,1-.33.7,1.077,1.077,0,0,1-.739.245.993.993,0,0,1-.8-.361,1.461,1.461,0,0,1-.3-.967v-.273a1.621,1.621,0,0,1,.141-.7,1.056,1.056,0,0,1,.4-.462,1.1,1.1,0,0,1,.6-.161,1.02,1.02,0,0,1,.721.252,1.066,1.066,0,0,1,.315.7h-.374a.811.811,0,0,0-.21-.494.631.631,0,0,0-.452-.153.661.661,0,0,0-.558.266,1.229,1.229,0,0,0-.2.757v.275a1.26,1.26,0,0,0,.193.737.618.618,0,0,0,.536.274.716.716,0,0,0,.476-.142.792.792,0,0,0,.219-.493Z"/><path class="cls-5" d="M32.749,78.15a.856.856,0,0,1-.4.309,1.587,1.587,0,0,1-.6.1,1.149,1.149,0,0,1-.613-.163,1.08,1.08,0,0,1-.413-.464,1.61,1.61,0,0,1-.15-.7V76.99a1.5,1.5,0,0,1,.3-1,1.03,1.03,0,0,1,.836-.354,1.065,1.065,0,0,1,.711.228,1,1,0,0,1,.329.645h-.372a.617.617,0,0,0-.666-.566.66.66,0,0,0-.567.264,1.3,1.3,0,0,0-.194.768v.232a1.217,1.217,0,0,0,.217.762.7.7,0,0,0,.586.282,1.3,1.3,0,0,0,.366-.046.563.563,0,0,0,.259-.158v-.637h-.652v-.307h1.023Z"/><path class="cls-5" d="M35.535,78.523h-.374l-1.419-2.191v2.191h-.374V75.679h.374l1.423,2.2v-2.2h.37Z"/><path class="cls-5" d="M36.2,78.523V75.679h.8a1.274,1.274,0,0,1,.651.164,1.114,1.114,0,0,1,.437.467,1.549,1.549,0,0,1,.156.695v.182a1.539,1.539,0,0,1-.154.7,1.081,1.081,0,0,1-.44.465,1.346,1.346,0,0,1-.665.166Zm.371-2.537v2.23h.392a.851.851,0,0,0,.669-.269,1.119,1.119,0,0,0,.239-.769v-.166a1.139,1.139,0,0,0-.226-.754.8.8,0,0,0-.64-.272Z"/><path class="cls-5" d="M31.5,55.334a1.762,1.762,0,0,1-.7-.341.655.655,0,0,1-.217-.5.688.688,0,0,1,.266-.556,1.053,1.053,0,0,1,.692-.22,1.138,1.138,0,0,1,.518.114.846.846,0,0,1,.353.312.807.807,0,0,1,.125.436h-.374A.524.524,0,0,0,32,54.173a.656.656,0,0,0-.459-.148.676.676,0,0,0-.429.122.409.409,0,0,0-.153.34.364.364,0,0,0,.145.294,1.432,1.432,0,0,0,.5.22,2.321,2.321,0,0,1,.55.22.828.828,0,0,1,.294.28.722.722,0,0,1,.1.377.668.668,0,0,1-.268.554,1.13,1.13,0,0,1-.715.208,1.331,1.331,0,0,1-.542-.112.924.924,0,0,1-.389-.308.763.763,0,0,1-.135-.443h.373a.491.491,0,0,0,.189.407.788.788,0,0,0,.5.15.723.723,0,0,0,.451-.122.4.4,0,0,0,.158-.33.387.387,0,0,0-.146-.323A1.668,1.668,0,0,0,31.5,55.334Z"/><path class="cls-5" d="M35.093,55.7a1.051,1.051,0,0,1-.33.7,1.077,1.077,0,0,1-.739.245.993.993,0,0,1-.8-.361,1.468,1.468,0,0,1-.3-.967v-.273a1.629,1.629,0,0,1,.141-.7,1.062,1.062,0,0,1,.4-.462,1.1,1.1,0,0,1,.6-.161,1.021,1.021,0,0,1,.721.253,1.068,1.068,0,0,1,.315.7h-.374a.811.811,0,0,0-.21-.493.631.631,0,0,0-.452-.153.661.661,0,0,0-.558.266,1.226,1.226,0,0,0-.2.756v.276a1.264,1.264,0,0,0,.192.737.62.62,0,0,0,.536.274.716.716,0,0,0,.476-.142.792.792,0,0,0,.219-.493Z"/><path class="cls-5" d="M35.975,56.294h1.336V56.6H35.6V53.757h.375Z"/><path class="cls-5" d="M31.5,62.641a1.748,1.748,0,0,1-.7-.341.652.652,0,0,1-.217-.5.686.686,0,0,1,.266-.555,1.048,1.048,0,0,1,.692-.22,1.137,1.137,0,0,1,.518.113.848.848,0,0,1,.353.313.8.8,0,0,1,.125.435h-.374A.524.524,0,0,0,32,61.48a.656.656,0,0,0-.459-.147.676.676,0,0,0-.429.122.407.407,0,0,0-.153.339.363.363,0,0,0,.145.294,1.449,1.449,0,0,0,.5.221,2.321,2.321,0,0,1,.55.22.828.828,0,0,1,.294.28.722.722,0,0,1,.1.377.668.668,0,0,1-.268.554,1.136,1.136,0,0,1-.715.208,1.316,1.316,0,0,1-.542-.113.923.923,0,0,1-.389-.307.763.763,0,0,1-.135-.444h.373a.493.493,0,0,0,.189.408.793.793,0,0,0,.5.149.73.73,0,0,0,.451-.121.4.4,0,0,0,.158-.33.386.386,0,0,0-.146-.323A1.664,1.664,0,0,0,31.5,62.641Z"/><path class="cls-5" d="M33.019,63.909V61.065h.8a1.268,1.268,0,0,1,.65.164,1.105,1.105,0,0,1,.438.467,1.543,1.543,0,0,1,.155.7v.182a1.56,1.56,0,0,1-.153.7,1.11,1.11,0,0,1-.44.465,1.372,1.372,0,0,1-.666.166Zm.372-2.537V63.6h.391a.852.852,0,0,0,.67-.269,1.127,1.127,0,0,0,.238-.769V62.4a1.138,1.138,0,0,0-.225-.754.8.8,0,0,0-.64-.272Z"/><path class="cls-5" d="M37.177,63.165H36l-.266.744h-.384l1.077-2.844h.325l1.079,2.844h-.382Zm-1.069-.307h.959l-.48-1.33Z"/><rect class="cls-8" x="21.074" y="5.707" width="19.13" height="19.84"/><rect class="cls-8" x="21.074" y="25.549" width="19.13" height="19.84"/><rect class="cls-9" x="36.058" y="25.551" width="4.15" height="19.84"/><rect class="cls-10" x="36.058" y="5.709" width="4.15" height="19.84"/><rect class="cls-11" x="21.068" y="5.709" width="4.15" height="19.84"/><rect class="cls-12" x="21.068" y="25.551" width="4.15" height="19.84"/><path class="cls-13" d="M27.158,40.391a3.412,3.412,0,0,1-.06-.43h.01L34,38.621a2.576,2.576,0,0,1,.12.42,2.007,2.007,0,0,1,.05.42h-.01l-6.9,1.34C27.218,40.671,27.188,40.531,27.158,40.391Z"/><path class="cls-14" d="M27.268,40.811l6.9-1.34h.01a3.545,3.545,0,0,1-6.91,1.34Z"/><path class="cls-14" d="M27.108,39.961A3.536,3.536,0,0,1,34,38.621Z"/><path class="cls-13" d="M27.158,21.494a3.412,3.412,0,0,1-.06-.43h.01L34,19.724a2.576,2.576,0,0,1,.12.42,2.007,2.007,0,0,1,.05.42h-.01l-6.9,1.34C27.218,21.774,27.188,21.634,27.158,21.494Z"/><path class="cls-14" d="M27.268,21.914l6.9-1.34h.01a3.545,3.545,0,0,1-6.91,1.34Z"/><path class="cls-14" d="M27.108,21.064A3.536,3.536,0,0,1,34,19.724Z"/><path class="cls-13" d="M27.108,30.516,34,29.176a2.576,2.576,0,0,1,.12.42,2.007,2.007,0,0,1,.05.42h-.01l-6.9,1.34a3.113,3.113,0,0,1-.11-.41,3.276,3.276,0,0,1-.04-.43Z"/><path class="cls-14" d="M27.268,31.356l6.9-1.34h.01a3.545,3.545,0,0,1-6.91,1.34Z"/><path class="cls-14" d="M27.108,30.516A3.536,3.536,0,0,1,34,29.176Z"/><path class="cls-13" d="M27.108,11.619,34,10.279a2.576,2.576,0,0,1,.12.42,2.007,2.007,0,0,1,.05.42h-.01l-6.9,1.34a3.113,3.113,0,0,1-.11-.41,3.276,3.276,0,0,1-.04-.43Z"/><path class="cls-14" d="M27.268,12.459l6.9-1.34h.01a3.545,3.545,0,0,1-6.91,1.34Z"/><path class="cls-14" d="M27.108,11.619A3.536,3.536,0,0,1,34,10.279Z"/><rect class="cls-5" x="22.571" y="46.141" width="6.35" height="3.576" rx="0.142"/><path d="M24.185,49.016H23.9V46.883h.281Z"/><path d="M26.026,49.016h-1.4v-.2l.739-.82a1.845,1.845,0,0,0,.225-.3.5.5,0,0,0,.063-.241.385.385,0,0,0-.1-.274.356.356,0,0,0-.269-.107.422.422,0,0,0-.315.115.439.439,0,0,0-.112.32h-.271a.627.627,0,0,1,.19-.476.7.7,0,0,1,.508-.181.67.67,0,0,1,.469.156.527.527,0,0,1,.173.415,1.217,1.217,0,0,1-.4.75l-.571.619h1.07Z"/><path d="M27.954,48.339a.788.788,0,0,1-.25.522.817.817,0,0,1-.559.184.748.748,0,0,1-.605-.271,1.085,1.085,0,0,1-.229-.725v-.2a1.212,1.212,0,0,1,.107-.523.78.78,0,0,1,.3-.346.832.832,0,0,1,.451-.121.771.771,0,0,1,.545.189.8.8,0,0,1,.239.525H27.67a.607.607,0,0,0-.158-.37.482.482,0,0,0-.342-.114.5.5,0,0,0-.422.2.909.909,0,0,0-.154.567v.207a.946.946,0,0,0,.145.553.47.47,0,0,0,.406.2.538.538,0,0,0,.359-.106.585.585,0,0,0,.166-.37Z"/><polygon class="cls-15" points="27.982 58.413 29.225 59.659 29.252 64.22 27.978 65.492 23.447 65.49 22.192 64.234 22.176 59.684 23.449 58.413 27.982 58.413"/><path class="cls-16" d="M23.451,65.485l-.635-.634-.635-.635V59.689l.635-.635.635-.635h4.527l.356.356.914.914v4.527l-1.27,1.269H23.451m0,.01h4.536l1.276-1.275V59.684l-1.276-1.275H23.446l-1.275,1.275V64.22L23.446,65.5Z"/><rect class="cls-17" x="24.807" y="61.068" width="1.814" height="1.768"/><rect class="cls-18" x="25.218" y="61.469" width="0.992" height="0.967"/><line class="cls-19" x1="26.621" y1="61.068" x2="26.21" y2="61.469"/><line class="cls-19" x1="26.21" y1="62.435" x2="26.621" y2="62.836"/><line class="cls-19" x1="25.218" y1="62.435" x2="24.807" y2="62.836"/><line class="cls-19" x1="25.218" y1="61.469" x2="24.807" y2="61.068"/><polygon class="cls-15" points="27.982 51.27 29.225 52.516 29.253 57.077 27.979 58.349 23.447 58.347 22.192 57.09 22.176 52.541 23.449 51.27 27.982 51.27"/><path class="cls-16" d="M23.451,58.342l-.635-.635-.635-.635V52.545l.635-.635.635-.635h4.527l.356.356.914.914v4.527l-1.27,1.27H23.451m0,.01h4.535l1.276-1.275V52.541l-1.276-1.276H23.447l-1.276,1.276v4.536l1.276,1.275Z"/><rect class="cls-17" x="24.807" y="53.925" width="1.814" height="1.768"/><rect class="cls-18" x="25.218" y="54.325" width="0.992" height="0.967"/><line class="cls-19" x1="26.621" y1="53.925" x2="26.21" y2="54.325"/><line class="cls-19" x1="26.21" y1="55.292" x2="26.621" y2="55.693"/><line class="cls-19" x1="25.218" y1="55.292" x2="24.807" y2="55.693"/><line class="cls-19" x1="25.218" y1="54.325" x2="24.807" y2="53.925"/><polygon class="cls-15" points="27.982 72.7 29.254 73.974 29.252 78.506 27.978 79.778 23.447 79.777 22.192 78.52 22.176 73.971 23.449 72.7 27.982 72.7"/><path class="cls-16" d="M23.451,79.772l-.635-.635-.635-.635V73.975l.635-.635.635-.635h4.527l.355.356.914.914V78.5l-1.269,1.27H23.451m0,.01h4.536l1.275-1.276V73.971l-1.275-1.276H23.446l-1.275,1.276v4.535l1.275,1.276Z"/><rect class="cls-17" x="24.807" y="75.355" width="1.814" height="1.768"/><rect class="cls-18" x="25.218" y="75.755" width="0.992" height="0.967"/><line class="cls-19" x1="26.621" y1="75.355" x2="26.21" y2="75.755"/><line class="cls-19" x1="26.21" y1="76.722" x2="26.621" y2="77.123"/><line class="cls-19" x1="25.218" y1="76.722" x2="24.807" y2="77.123"/><line class="cls-19" x1="25.218" y1="75.755" x2="24.807" y2="75.355"/><polygon class="cls-15" points="27.982 65.557 29.225 66.802 29.253 71.363 27.996 72.618 23.447 72.634 22.175 71.359 22.176 66.828 23.449 65.557 27.982 65.557"/><path class="cls-16" d="M23.451,72.629l-1.27-1.27V66.832l.914-.914.356-.356h4.527l.635.635.635.635v4.527l-.536.536-.734.734H23.451m0,.01h4.535l1.276-1.276V66.828l-1.276-1.276H23.447l-1.276,1.276v4.535l1.276,1.276Z"/><rect class="cls-17" x="24.807" y="68.212" width="1.814" height="1.768"/><rect class="cls-18" x="25.218" y="68.612" width="0.992" height="0.967"/><line class="cls-19" x1="26.622" y1="68.212" x2="26.211" y2="68.612"/><line class="cls-19" x1="26.211" y1="69.579" x2="26.622" y2="69.979"/><line class="cls-19" x1="25.218" y1="69.579" x2="24.807" y2="69.979"/><line class="cls-19" x1="25.218" y1="68.612" x2="24.807" y2="68.212"/></g></g></svg>