<svg xmlns="http://www.w3.org/2000/svg" viewBox="0 0 41.051 85.35"><defs><style>.cls-1{fill:#19191a;}.cls-2{fill:#cec7bd;}.cls-3,.cls-5{fill:none;stroke-miterlimit:10;}.cls-3{stroke:#cec7bd;stroke-width:4.252px;}.cls-4{fill:#fff;}.cls-5{stroke:#fff;}.cls-6{fill:#918c84;}</style></defs><g id="Слой_1" data-name="Слой 1"><g id="Bottom"><path class="cls-1" d="M0,2.81V82.56l2.78,2.79H18.43l2.83-2.83v-11.3H41.051V47.73l-1.87-1.87V40l1.87-1.87V14.155H21.26V2.86L18.39,0H2.82ZM27.591,54.265a4.25,4.25,0,1,1,4.25,4.25A4.246,4.246,0,0,1,27.591,54.265Zm0-23.05a4.25,4.25,0,1,1,4.25,4.25A4.246,4.246,0,0,1,27.591,31.215Z"/><path class="cls-2" d="M41.051,17.59v5.12h-2.24c-1.74,0-3.17-1.15-3.17-2.56s1.43-2.56,3.17-2.56Z"/><path class="cls-2" d="M35.641,65.562h0c0-1.407,1.429-2.558,3.176-2.558h2.234V68.12H38.817C37.07,68.12,35.641,66.969,35.641,65.562Z"/><circle class="cls-3" cx="31.841" cy="53.986" r="6.335"/><circle class="cls-3" cx="31.841" cy="31.271" r="6.335"/><g id="Bottom-2" data-name="Bottom"><path class="cls-4" d="M2.6,30.564v-.378h.83v-.829h.342v.829h.9v.378h-.9v.829H3.427v-.829Z"/><path class="cls-4" d="M3.386,41.789V39.064h.295v2.725Z"/><rect class="cls-5" x="1.135" y="72.879" width="17.979" height="7.317"/><rect class="cls-5" x="1.135" y="65.562" width="17.979" height="7.317"/><rect class="cls-5" x="1.135" y="58.245" width="17.979" height="7.317"/><rect class="cls-5" x="1.135" y="50.928" width="17.979" height="7.317"/><path class="cls-2" d="M15.377,57.2a2.241,2.241,0,1,1,2.222-2.24A2.231,2.231,0,0,1,15.377,57.2Z"/><ellipse class="cls-6" cx="15.377" cy="54.958" rx="1.519" ry="1.532"/><path class="cls-2" d="M15.377,64.427a2.241,2.241,0,1,1,2.222-2.24A2.231,2.231,0,0,1,15.377,64.427Z"/><ellipse class="cls-6" cx="15.377" cy="62.186" rx="1.519" ry="1.532"/><path class="cls-2" d="M15.377,71.627a2.241,2.241,0,1,1,2.222-2.24A2.231,2.231,0,0,1,15.377,71.627Z"/><ellipse class="cls-6" cx="15.377" cy="69.386" rx="1.519" ry="1.532"/><path class="cls-2" d="M17.006,78.214a2.279,2.279,0,0,1-3.784-2.183,2.209,2.209,0,0,1,1.6-1.6A2.279,2.279,0,0,1,17.006,78.214Z"/><ellipse class="cls-6" cx="15.377" cy="76.586" rx="1.519" ry="1.532"/><path class="cls-4" d="M10.13,68.061l-.805,2.345H8.919l1.045-2.844h.33l1.042,2.844h-.4Z"/><path class="cls-4" d="M6.466,68.465a1.054,1.054,0,0,1,.33-.7,1.076,1.076,0,0,1,.739-.246.993.993,0,0,1,.8.362,1.457,1.457,0,0,1,.3.967v.273a1.642,1.642,0,0,1-.14.7,1.051,1.051,0,0,1-.4.462,1.1,1.1,0,0,1-.6.161,1.012,1.012,0,0,1-.72-.253,1.066,1.066,0,0,1-.316-.7H6.84a.826.826,0,0,0,.21.494.633.633,0,0,0,.452.153.664.664,0,0,0,.559-.266,1.231,1.231,0,0,0,.2-.757v-.275a1.258,1.258,0,0,0-.191-.737.62.62,0,0,0-.537-.274.707.707,0,0,0-.475.142.792.792,0,0,0-.22.493Z"/><path class="cls-4" d="M3.885,68.465a1.049,1.049,0,0,1,.33-.7,1.076,1.076,0,0,1,.739-.246.993.993,0,0,1,.8.362,1.457,1.457,0,0,1,.3.967v.273a1.642,1.642,0,0,1-.14.7,1.057,1.057,0,0,1-.4.462,1.1,1.1,0,0,1-.6.161,1.012,1.012,0,0,1-.72-.253,1.066,1.066,0,0,1-.316-.7h.374a.826.826,0,0,0,.21.494.633.633,0,0,0,.452.153.664.664,0,0,0,.559-.266,1.231,1.231,0,0,0,.2-.757v-.275a1.258,1.258,0,0,0-.192-.737.62.62,0,0,0-.537-.274.707.707,0,0,0-.475.142.787.787,0,0,0-.22.493Z"/><path class="cls-4" d="M9.536,75.137a.85.85,0,0,1,.4-.31,1.609,1.609,0,0,1,.6-.1,1.148,1.148,0,0,1,.612.163,1.068,1.068,0,0,1,.413.464,1.614,1.614,0,0,1,.151.7V76.3a1.506,1.506,0,0,1-.3,1,1.032,1.032,0,0,1-.836.353,1.068,1.068,0,0,1-.711-.227.992.992,0,0,1-.329-.646h.372a.617.617,0,0,0,.666.567.654.654,0,0,0,.566-.265,1.3,1.3,0,0,0,.2-.767v-.233a1.227,1.227,0,0,0-.217-.762.7.7,0,0,0-.587-.282,1.284,1.284,0,0,0-.365.047.562.562,0,0,0-.26.158v.637h.652v.307H9.536Z"/><path class="cls-4" d="M6.75,74.764h.373l1.42,2.191V74.764h.374v2.843H8.543l-1.424-2.2v2.2H6.75Z"/><path class="cls-4" d="M6.089,74.764v2.843h-.8a1.267,1.267,0,0,1-.651-.164,1.1,1.1,0,0,1-.436-.466,1.524,1.524,0,0,1-.156-.7V76.1a1.529,1.529,0,0,1,.154-.7,1.079,1.079,0,0,1,.439-.465,1.349,1.349,0,0,1,.665-.166ZM5.717,77.3V75.07H5.326a.846.846,0,0,0-.669.27,1.116,1.116,0,0,0-.239.768v.166a1.14,1.14,0,0,0,.225.754.8.8,0,0,0,.64.273Z"/><path class="cls-4" d="M9.46,54.432a1.749,1.749,0,0,1,.7.34.656.656,0,0,1,.218.5.688.688,0,0,1-.267.556,1.047,1.047,0,0,1-.691.22,1.139,1.139,0,0,1-.519-.113.869.869,0,0,1-.353-.313.8.8,0,0,1-.125-.435h.374a.521.521,0,0,0,.164.406.653.653,0,0,0,.459.148.675.675,0,0,0,.428-.122.408.408,0,0,0,.154-.34.365.365,0,0,0-.146-.294,1.451,1.451,0,0,0-.5-.22,2.321,2.321,0,0,1-.55-.22.828.828,0,0,1-.294-.28.721.721,0,0,1-.1-.377.667.667,0,0,1,.267-.554,1.13,1.13,0,0,1,.715-.208,1.331,1.331,0,0,1,.542.112.924.924,0,0,1,.389.308.753.753,0,0,1,.135.443H10.09a.491.491,0,0,0-.189-.407.788.788,0,0,0-.5-.149.723.723,0,0,0-.451.121.393.393,0,0,0-.157.33.387.387,0,0,0,.145.323A1.7,1.7,0,0,0,9.46,54.432Z"/><path class="cls-4" d="M5.865,54.066a1.054,1.054,0,0,1,.33-.7,1.079,1.079,0,0,1,.739-.245.993.993,0,0,1,.8.361,1.466,1.466,0,0,1,.3.967v.274a1.631,1.631,0,0,1-.141.7,1.061,1.061,0,0,1-.4.462,1.107,1.107,0,0,1-.6.161,1.011,1.011,0,0,1-.72-.253,1.062,1.062,0,0,1-.316-.7h.374a.825.825,0,0,0,.21.494.635.635,0,0,0,.452.152.666.666,0,0,0,.559-.265,1.238,1.238,0,0,0,.2-.757v-.276a1.262,1.262,0,0,0-.192-.737.618.618,0,0,0-.536-.273.711.711,0,0,0-.475.141.784.784,0,0,0-.22.493Z"/><path class="cls-4" d="M4.983,53.471H3.648v-.307H5.357v2.844H4.983Z"/><path class="cls-4" d="M10.051,61.631a1.735,1.735,0,0,1,.7.341.652.652,0,0,1,.217.5.686.686,0,0,1-.266.555,1.048,1.048,0,0,1-.692.22,1.137,1.137,0,0,1-.518-.113.855.855,0,0,1-.353-.313.8.8,0,0,1-.125-.435h.374a.522.522,0,0,0,.163.406.652.652,0,0,0,.459.148.676.676,0,0,0,.429-.122.407.407,0,0,0,.153-.339.363.363,0,0,0-.145-.294,1.431,1.431,0,0,0-.5-.221,2.3,2.3,0,0,1-.55-.22.828.828,0,0,1-.294-.28.724.724,0,0,1-.1-.377.668.668,0,0,1,.268-.554,1.136,1.136,0,0,1,.715-.208,1.3,1.3,0,0,1,.542.113.915.915,0,0,1,.389.307.76.76,0,0,1,.135.443h-.373a.492.492,0,0,0-.189-.407.793.793,0,0,0-.5-.149.73.73,0,0,0-.451.121.394.394,0,0,0-.158.33.387.387,0,0,0,.146.323A1.664,1.664,0,0,0,10.051,61.631Z"/><path class="cls-4" d="M8.53,60.363v2.844h-.8a1.277,1.277,0,0,1-.651-.164,1.106,1.106,0,0,1-.436-.467,1.517,1.517,0,0,1-.156-.7V61.7a1.532,1.532,0,0,1,.154-.7,1.09,1.09,0,0,1,.439-.465,1.357,1.357,0,0,1,.665-.166ZM8.158,62.9V60.67H7.767a.848.848,0,0,0-.669.269,1.119,1.119,0,0,0-.24.769v.166a1.144,1.144,0,0,0,.226.754.8.8,0,0,0,.64.272Z"/><path class="cls-4" d="M4.372,61.107H5.553l.265-.744H6.2L5.125,63.207H4.8L3.721,60.363H4.1Zm1.068.307H4.482l.48,1.33Z"/><path class="cls-2" d="M10.245,24.023a3.543,3.543,0,1,1,3.543-3.541A3.541,3.541,0,0,1,10.245,24.023Z"/><circle class="cls-6" cx="10.245" cy="20.48" r="2.421"/><path class="cls-2" d="M10.245,14.1a3.544,3.544,0,1,1,3.543-3.542A3.542,3.542,0,0,1,10.245,14.1Z"/><circle class="cls-6" cx="10.245" cy="10.554" r="2.421"/><path class="cls-2" d="M10.245,33.949a3.544,3.544,0,1,1,3.543-3.542A3.541,3.541,0,0,1,10.245,33.949Z"/><circle class="cls-6" cx="10.245" cy="30.406" r="2.421"/><path class="cls-2" d="M10.245,43.875a3.544,3.544,0,1,1,3.543-3.542A3.542,3.542,0,0,1,10.245,43.875Z"/><circle class="cls-6" cx="10.245" cy="40.331" r="2.421"/><rect class="cls-4" x="7.444" y="80.709" width="6.35" height="3.576" rx="0.142" transform="translate(21.237 164.994) rotate(180)"/><path d="M12.178,81.409h.281v2.133h-.281Z"/><path d="M10.337,81.409h1.4V81.6l-.738.82a1.8,1.8,0,0,0-.225.3.5.5,0,0,0-.063.241.386.386,0,0,0,.1.274.36.36,0,0,0,.269.107.416.416,0,0,0,.315-.116.435.435,0,0,0,.112-.319h.27a.628.628,0,0,1-.189.476.7.7,0,0,1-.508.181.674.674,0,0,1-.47-.156A.53.53,0,0,1,10.435,83a1.217,1.217,0,0,1,.4-.75l.571-.619h-1.07Z"/><path d="M8.409,82.086a.79.79,0,0,1,.25-.523.82.82,0,0,1,.559-.183.753.753,0,0,1,.605.27,1.089,1.089,0,0,1,.229.726v.2a1.215,1.215,0,0,1-.107.523.792.792,0,0,1-.3.346.832.832,0,0,1-.451.121.772.772,0,0,1-.545-.189.8.8,0,0,1-.239-.526h.283a.616.616,0,0,0,.159.371.483.483,0,0,0,.342.115.5.5,0,0,0,.422-.2.915.915,0,0,0,.154-.569v-.207a.953.953,0,0,0-.145-.553.472.472,0,0,0-.406-.2.541.541,0,0,0-.36.107.585.585,0,0,0-.166.37Z"/><path class="cls-4" d="M17.345,33.351,15,32.545v-.406l2.844,1.046v.329L15,34.557v-.4Z"/><path class="cls-4" d="M16.94,29.687a1.052,1.052,0,0,1,.7.33,1.076,1.076,0,0,1,.245.739.99.99,0,0,1-.361.8,1.466,1.466,0,0,1-.967.3H16.28a1.627,1.627,0,0,1-.7-.141,1.048,1.048,0,0,1-.462-.4,1.107,1.107,0,0,1-.161-.6,1.012,1.012,0,0,1,.253-.72,1.062,1.062,0,0,1,.7-.316v.374a.822.822,0,0,0-.494.21.631.631,0,0,0-.152.452.666.666,0,0,0,.265.559,1.238,1.238,0,0,0,.757.2h.275a1.264,1.264,0,0,0,.738-.192.616.616,0,0,0,.273-.536.711.711,0,0,0-.141-.475.784.784,0,0,0-.494-.22Z"/><path class="cls-4" d="M16.94,27.106a1.052,1.052,0,0,1,.7.33,1.076,1.076,0,0,1,.245.739.99.99,0,0,1-.361.8,1.461,1.461,0,0,1-.967.3H16.28a1.642,1.642,0,0,1-.7-.14,1.063,1.063,0,0,1-.462-.4,1.107,1.107,0,0,1-.161-.6,1.012,1.012,0,0,1,.253-.72,1.062,1.062,0,0,1,.7-.316v.374a.822.822,0,0,0-.494.21.631.631,0,0,0-.152.452.666.666,0,0,0,.265.559,1.238,1.238,0,0,0,.757.2h.275a1.264,1.264,0,0,0,.738-.192.618.618,0,0,0,.273-.536.711.711,0,0,0-.141-.475.784.784,0,0,0-.494-.22Z"/><path class="cls-4" d="M17.47,42.7a.862.862,0,0,1,.309.4,1.587,1.587,0,0,1,.1.6,1.149,1.149,0,0,1-.163.613,1.086,1.086,0,0,1-.464.413,1.625,1.625,0,0,1-.7.15H16.31a1.5,1.5,0,0,1-1-.3,1.03,1.03,0,0,1-.354-.836,1.065,1.065,0,0,1,.228-.711,1,1,0,0,1,.645-.329v.372a.617.617,0,0,0-.566.666.658.658,0,0,0,.264.567,1.3,1.3,0,0,0,.768.194h.232a1.217,1.217,0,0,0,.762-.217.7.7,0,0,0,.282-.587,1.258,1.258,0,0,0-.047-.365.57.57,0,0,0-.157-.26h-.638v.653h-.306V42.7Z"/><path class="cls-4" d="M17.843,39.912v.374l-2.192,1.419h2.192v.374H15v-.374l2.2-1.423H15v-.37Z"/><path class="cls-4" d="M17.843,39.251H15v-.795a1.274,1.274,0,0,1,.164-.651,1.109,1.109,0,0,1,.467-.437,1.536,1.536,0,0,1,.695-.156h.182a1.542,1.542,0,0,1,.7.154,1.087,1.087,0,0,1,.465.44,1.346,1.346,0,0,1,.166.665Zm-2.537-.372h2.23v-.391a.851.851,0,0,0-.269-.669,1.124,1.124,0,0,0-.769-.239h-.166a1.139,1.139,0,0,0-.754.226.8.8,0,0,0-.272.64Z"/><path class="cls-4" d="M16.575,13.494a1.731,1.731,0,0,1-.34.7.651.651,0,0,1-.5.218.693.693,0,0,1-.556-.266,1.055,1.055,0,0,1-.22-.692,1.138,1.138,0,0,1,.114-.518.846.846,0,0,1,.312-.353.807.807,0,0,1,.436-.125v.374a.524.524,0,0,0-.407.163.656.656,0,0,0-.148.459.678.678,0,0,0,.122.429.412.412,0,0,0,.34.153.367.367,0,0,0,.294-.145,1.431,1.431,0,0,0,.221-.5,2.265,2.265,0,0,1,.219-.55.837.837,0,0,1,.28-.294.715.715,0,0,1,.377-.1.668.668,0,0,1,.554.268,1.13,1.13,0,0,1,.208.715,1.315,1.315,0,0,1-.112.542.908.908,0,0,1-.308.388.752.752,0,0,1-.443.136v-.373a.492.492,0,0,0,.407-.189.793.793,0,0,0,.149-.5.726.726,0,0,0-.121-.452.394.394,0,0,0-.33-.157.387.387,0,0,0-.323.146A1.654,1.654,0,0,0,16.575,13.494Z"/><path class="cls-4" d="M16.94,9.9a1.053,1.053,0,0,1,.7.331,1.071,1.071,0,0,1,.245.738.992.992,0,0,1-.361.8,1.466,1.466,0,0,1-.967.3h-.273a1.639,1.639,0,0,1-.7-.14,1.051,1.051,0,0,1-.462-.4,1.1,1.1,0,0,1-.162-.6,1.018,1.018,0,0,1,.253-.721,1.069,1.069,0,0,1,.7-.316v.374a.826.826,0,0,0-.494.21.634.634,0,0,0-.153.453.663.663,0,0,0,.266.558,1.227,1.227,0,0,0,.757.2h.275A1.262,1.262,0,0,0,17.3,11.5a.619.619,0,0,0,.273-.537.714.714,0,0,0-.141-.475.8.8,0,0,0-.494-.22Z"/><path class="cls-4" d="M17.536,9.017V7.681h.307v1.71H15V9.017Z"/><path class="cls-4" d="M16.575,23.4a1.73,1.73,0,0,1-.341.7.65.65,0,0,1-.5.218.687.687,0,0,1-.555-.267,1.045,1.045,0,0,1-.22-.691,1.158,1.158,0,0,1,.113-.519.859.859,0,0,1,.313-.352.807.807,0,0,1,.435-.125v.374a.522.522,0,0,0-.406.163.655.655,0,0,0-.148.459.678.678,0,0,0,.122.429.412.412,0,0,0,.34.153.365.365,0,0,0,.294-.146,1.433,1.433,0,0,0,.22-.5,2.293,2.293,0,0,1,.22-.549.828.828,0,0,1,.28-.294.715.715,0,0,1,.377-.1.668.668,0,0,1,.554.268,1.127,1.127,0,0,1,.208.714,1.312,1.312,0,0,1-.112.542.917.917,0,0,1-.308.389.752.752,0,0,1-.443.136v-.373a.493.493,0,0,0,.407-.19.793.793,0,0,0,.149-.5.725.725,0,0,0-.121-.451.394.394,0,0,0-.33-.157.389.389,0,0,0-.323.145A1.672,1.672,0,0,0,16.575,23.4Z"/><path class="cls-4" d="M17.843,21.879H15v-.8a1.273,1.273,0,0,1,.164-.65A1.109,1.109,0,0,1,15.63,20a1.536,1.536,0,0,1,.695-.156h.182a1.542,1.542,0,0,1,.7.154,1.087,1.087,0,0,1,.465.44,1.346,1.346,0,0,1,.166.665Zm-2.537-.372h2.23v-.391a.85.85,0,0,0-.269-.669,1.124,1.124,0,0,0-.769-.239h-.166a1.139,1.139,0,0,0-.754.226.8.8,0,0,0-.272.64Z"/><path class="cls-4" d="M17.1,17.721V18.9l.744.266v.383L15,18.475v-.326l2.844-1.078v.381Zm-.307,1.069v-.958l-1.33.48Z"/><path class="cls-4" d="M28.993,65.978a1.757,1.757,0,0,1-.7-.341.653.653,0,0,1-.218-.5.689.689,0,0,1,.267-.556,1.052,1.052,0,0,1,.691-.22,1.132,1.132,0,0,1,.519.114.85.85,0,0,1,.352.312.8.8,0,0,1,.125.436h-.374a.523.523,0,0,0-.163-.408.659.659,0,0,0-.459-.147.68.68,0,0,0-.429.122.41.41,0,0,0-.153.34.365.365,0,0,0,.146.294,1.433,1.433,0,0,0,.5.22,2.293,2.293,0,0,1,.549.22.82.82,0,0,1,.294.28.712.712,0,0,1,.1.377.67.67,0,0,1-.267.554,1.13,1.13,0,0,1-.715.208,1.328,1.328,0,0,1-.542-.112.924.924,0,0,1-.389-.308.756.756,0,0,1-.136-.443h.373a.491.491,0,0,0,.19.407.788.788,0,0,0,.5.15.725.725,0,0,0,.451-.122.4.4,0,0,0,.157-.33.389.389,0,0,0-.145-.323A1.676,1.676,0,0,0,28.993,65.978Z"/><path class="cls-4" d="M30.515,67.245V64.4h.8a1.271,1.271,0,0,1,.65.164,1.109,1.109,0,0,1,.437.467,1.534,1.534,0,0,1,.156.7v.181a1.545,1.545,0,0,1-.154.7,1.1,1.1,0,0,1-.439.465,1.361,1.361,0,0,1-.666.166Zm.372-2.537v2.23h.39a.849.849,0,0,0,.67-.269,1.128,1.128,0,0,0,.239-.769v-.166a1.144,1.144,0,0,0-.225-.754.8.8,0,0,0-.641-.272Z"/><path class="cls-4" d="M34.673,66.5H33.492l-.265.744h-.384L33.92,64.4h.324l1.079,2.844h-.382ZM33.6,66.194h.959l-.481-1.33Z"/><path class="cls-4" d="M29.23,20.093a1.735,1.735,0,0,1-.7-.341.653.653,0,0,1-.218-.5.687.687,0,0,1,.267-.555,1.047,1.047,0,0,1,.691-.22,1.152,1.152,0,0,1,.519.113.861.861,0,0,1,.353.313.807.807,0,0,1,.125.435H29.9a.519.519,0,0,0-.164-.406.653.653,0,0,0-.459-.148.675.675,0,0,0-.428.122.41.41,0,0,0-.154.34.365.365,0,0,0,.146.294,1.451,1.451,0,0,0,.5.22,2.321,2.321,0,0,1,.55.22.828.828,0,0,1,.294.28.721.721,0,0,1,.1.377.667.667,0,0,1-.267.554,1.13,1.13,0,0,1-.715.208,1.331,1.331,0,0,1-.542-.112.924.924,0,0,1-.389-.308.76.76,0,0,1-.135-.443H28.6a.492.492,0,0,0,.189.407.793.793,0,0,0,.5.149.723.723,0,0,0,.451-.121.393.393,0,0,0,.157-.33.387.387,0,0,0-.145-.323A1.675,1.675,0,0,0,29.23,20.093Z"/><path class="cls-4" d="M32.825,20.458a1.054,1.054,0,0,1-.33.7,1.077,1.077,0,0,1-.739.245.993.993,0,0,1-.8-.361,1.466,1.466,0,0,1-.3-.967V19.8a1.627,1.627,0,0,1,.141-.7,1.061,1.061,0,0,1,.4-.462,1.107,1.107,0,0,1,.6-.161,1.016,1.016,0,0,1,.721.253,1.07,1.07,0,0,1,.315.7h-.374a.816.816,0,0,0-.21-.494.632.632,0,0,0-.452-.152.663.663,0,0,0-.558.265,1.231,1.231,0,0,0-.2.757v.276a1.262,1.262,0,0,0,.192.737.618.618,0,0,0,.536.273.711.711,0,0,0,.475-.141.787.787,0,0,0,.22-.494Z"/><path class="cls-4" d="M33.707,21.054h1.336v.307H33.332V18.517h.375Z"/></g></g></g></svg>