<svg id="_1578" data-name="1578" xmlns="http://www.w3.org/2000/svg" viewBox="0 0 114.803 60.378"><defs><style>.cls-1{fill:#00284e;}.cls-2{fill:#cdc7bc;}.cls-3{fill:#363331;}.cls-4{fill:#b7b8b5;}.cls-5{fill:#4c4c4c;}.cls-12,.cls-24,.cls-6{fill:none;}.cls-6{stroke:#e6e6e6;stroke-width:1.3px;}.cls-10,.cls-11,.cls-12,.cls-24,.cls-6{stroke-miterlimit:10;}.cls-7{fill:#66645e;}.cls-8{fill:#313131;}.cls-9{fill:#0d0e0f;}.cls-10{fill:#e39344;stroke:#666566;stroke-width:0.023px;}.cls-11{fill:#ebad4f;stroke:#b3b3b3;stroke-width:0.025px;}.cls-12{stroke:gray;stroke-width:0.011px;}.cls-13{fill:#fff;}.cls-14{fill:#f2efed;}.cls-15{fill:#ebe7de;}.cls-16{fill:#c6c4c2;}.cls-17{fill:#8c8663;}.cls-18{fill:#b8af82;}.cls-19{fill:#5e5b43;}.cls-20{fill:#9a916c;}.cls-21{fill:#dbd3c7;}.cls-22{fill:#fab723;}.cls-23{fill:#009d3d;}.cls-24{stroke:#fff;stroke-width:0.5px;opacity:0.37;isolation:isolate;}</style></defs><rect class="cls-1" width="114.803" height="60.378"/><g id="_102" data-name="102"><rect class="cls-2" x="66.737" y="22.542" width="3.438" height="4.255"/><rect class="cls-2" x="73.866" y="22.501" width="3.438" height="4.255"/><rect class="cls-3" x="69.471" y="22.851" width="5.161" height="3.608"/><path class="cls-4" d="M71.535,25.151h-.7V25.02h.268v-.863h-.268V24.04a1.014,1.014,0,0,0,.117-.009A.28.28,0,0,0,71.05,24a.173.173,0,0,0,.062-.054.171.171,0,0,0,.027-.09h.134v1.16h.262Z"/><path class="cls-4" d="M72.556,24.507a.928.928,0,0,1-.109.509.43.43,0,0,1-.674,0,1.234,1.234,0,0,1,0-1.012.427.427,0,0,1,.675,0A.944.944,0,0,1,72.556,24.507Zm-.228.393a.554.554,0,0,0,.041-.165,1.867,1.867,0,0,0,.011-.228,1.911,1.911,0,0,0-.011-.228.524.524,0,0,0-.042-.164.231.231,0,0,0-.082-.1.249.249,0,0,0-.134-.033.255.255,0,0,0-.135.033.232.232,0,0,0-.084.1.531.531,0,0,0-.04.167,2.236,2.236,0,0,0-.011.226,2.044,2.044,0,0,0,.01.226.535.535,0,0,0,.04.162.228.228,0,0,0,.081.1.241.241,0,0,0,.139.035A.249.249,0,0,0,72.245,25,.218.218,0,0,0,72.328,24.9Z"/><path class="cls-4" d="M73.505,25.151h-.872v-.18l.183-.156c.06-.052.117-.1.17-.155a1.7,1.7,0,0,0,.227-.255.375.375,0,0,0,.061-.205.194.194,0,0,0-.066-.156.274.274,0,0,0-.184-.057.606.606,0,0,0-.171.027.729.729,0,0,0-.179.085h-.009v-.181a.8.8,0,0,1,.164-.055.831.831,0,0,1,.2-.026.464.464,0,0,1,.31.1.321.321,0,0,1,.112.259.468.468,0,0,1-.018.137.525.525,0,0,1-.055.121.9.9,0,0,1-.079.105c-.03.034-.067.073-.11.115-.062.06-.125.119-.192.176L72.813,25h.692Z"/></g><g id="_102-2" data-name="102"><rect class="cls-2" x="66.737" y="8.182" width="3.438" height="4.255"/><rect class="cls-2" x="73.866" y="8.141" width="3.438" height="4.255"/><rect class="cls-3" x="69.471" y="8.492" width="5.161" height="3.608"/><path class="cls-4" d="M71.535,10.791h-.7V10.66h.268V9.8h-.268V9.68a.831.831,0,0,0,.117-.009.282.282,0,0,0,.094-.026.176.176,0,0,0,.062-.055.168.168,0,0,0,.027-.09h.134v1.16h.262Z"/><path class="cls-4" d="M72.556,10.148a.932.932,0,0,1-.109.509.377.377,0,0,1-.336.162.372.372,0,0,1-.338-.164.941.941,0,0,1-.108-.5.922.922,0,0,1,.109-.507.428.428,0,0,1,.675,0A.946.946,0,0,1,72.556,10.148Zm-.228.392a.546.546,0,0,0,.041-.165,1.85,1.85,0,0,0,.011-.227,1.918,1.918,0,0,0-.011-.229.524.524,0,0,0-.042-.164.223.223,0,0,0-.082-.1.24.24,0,0,0-.134-.034.246.246,0,0,0-.135.034.221.221,0,0,0-.084.1.517.517,0,0,0-.04.167,2.221,2.221,0,0,0-.011.226,2.013,2.013,0,0,0,.01.225.52.52,0,0,0,.04.162.228.228,0,0,0,.081.1.241.241,0,0,0,.139.036.249.249,0,0,0,.134-.034A.218.218,0,0,0,72.328,10.54Z"/><path class="cls-4" d="M73.505,10.791h-.872v-.18l.183-.156c.06-.051.117-.1.17-.154a1.645,1.645,0,0,0,.227-.256.375.375,0,0,0,.061-.2.2.2,0,0,0-.066-.157.274.274,0,0,0-.184-.057.575.575,0,0,0-.171.028.663.663,0,0,0-.179.085h-.009V9.558a.865.865,0,0,1,.164-.055.828.828,0,0,1,.2-.025.464.464,0,0,1,.31.1.319.319,0,0,1,.112.258.463.463,0,0,1-.018.137.507.507,0,0,1-.055.121,1,1,0,0,1-.079.106c-.03.034-.067.072-.11.114-.062.06-.125.119-.192.176l-.183.158h.692Z"/></g><g id="_102-3" data-name="102"><rect class="cls-2" x="66.737" y="37.506" width="3.438" height="4.255"/><rect class="cls-2" x="73.866" y="37.466" width="3.438" height="4.255"/><rect class="cls-3" x="69.471" y="37.816" width="5.161" height="3.608"/><path class="cls-4" d="M71.535,40.116h-.7v-.131h.268v-.863h-.268v-.117a.84.84,0,0,0,.117-.01.26.26,0,0,0,.094-.026.167.167,0,0,0,.062-.055.165.165,0,0,0,.027-.089h.134v1.16h.262Z"/><path class="cls-4" d="M72.556,39.472a.928.928,0,0,1-.109.509.43.43,0,0,1-.674,0,1.234,1.234,0,0,1,0-1.012.427.427,0,0,1,.675,0A.942.942,0,0,1,72.556,39.472Zm-.228.393a.554.554,0,0,0,.041-.165,1.867,1.867,0,0,0,.011-.228,1.9,1.9,0,0,0-.011-.228.517.517,0,0,0-.042-.164.226.226,0,0,0-.082-.1.249.249,0,0,0-.134-.033.255.255,0,0,0-.135.033.232.232,0,0,0-.084.1.524.524,0,0,0-.04.167,2.236,2.236,0,0,0-.011.226,2.044,2.044,0,0,0,.01.226.535.535,0,0,0,.04.162.228.228,0,0,0,.081.1.241.241,0,0,0,.139.035.249.249,0,0,0,.134-.033A.218.218,0,0,0,72.328,39.865Z"/><path class="cls-4" d="M73.505,40.116h-.872v-.181l.183-.155c.06-.052.117-.1.17-.155a1.645,1.645,0,0,0,.227-.256.372.372,0,0,0,.061-.2.193.193,0,0,0-.066-.156.274.274,0,0,0-.184-.057.606.606,0,0,0-.171.027.729.729,0,0,0-.179.085h-.009v-.181a.858.858,0,0,1,.164-.056.828.828,0,0,1,.2-.025.464.464,0,0,1,.31.1.321.321,0,0,1,.112.259.472.472,0,0,1-.018.137.5.5,0,0,1-.055.12.832.832,0,0,1-.079.106c-.03.034-.067.073-.11.115-.062.06-.125.119-.192.175l-.183.158h.692Z"/></g><g id="_102-4" data-name="102"><rect class="cls-2" x="66.737" y="52.481" width="3.438" height="4.255"/><rect class="cls-2" x="73.866" y="52.441" width="3.438" height="4.255"/><rect class="cls-3" x="69.471" y="52.791" width="5.161" height="3.608"/><path class="cls-4" d="M71.535,55.091h-.7V54.96h.268V54.1h-.268V53.98a1.014,1.014,0,0,0,.117-.009.28.28,0,0,0,.094-.027.167.167,0,0,0,.062-.055.165.165,0,0,0,.027-.089h.134v1.16h.262Z"/><path class="cls-4" d="M72.556,54.447a.928.928,0,0,1-.109.509.43.43,0,0,1-.674,0,1.234,1.234,0,0,1,0-1.012.427.427,0,0,1,.675,0A.942.942,0,0,1,72.556,54.447Zm-.228.393a.554.554,0,0,0,.041-.165,1.867,1.867,0,0,0,.011-.228,1.9,1.9,0,0,0-.011-.228.524.524,0,0,0-.042-.164.231.231,0,0,0-.082-.1.249.249,0,0,0-.134-.033.255.255,0,0,0-.135.033.232.232,0,0,0-.084.1.531.531,0,0,0-.04.167,2.236,2.236,0,0,0-.011.226,2.044,2.044,0,0,0,.01.226.535.535,0,0,0,.04.162.228.228,0,0,0,.081.1.241.241,0,0,0,.139.035.249.249,0,0,0,.134-.033A.218.218,0,0,0,72.328,54.84Z"/><path class="cls-4" d="M73.505,55.091h-.872V54.91l.183-.155c.06-.052.117-.1.17-.155a1.7,1.7,0,0,0,.227-.255.375.375,0,0,0,.061-.2.194.194,0,0,0-.066-.156.274.274,0,0,0-.184-.057.606.606,0,0,0-.171.027.729.729,0,0,0-.179.085h-.009v-.181a.8.8,0,0,1,.164-.055.783.783,0,0,1,.2-.026.464.464,0,0,1,.31.1.321.321,0,0,1,.112.259.472.472,0,0,1-.018.137.5.5,0,0,1-.055.12.832.832,0,0,1-.079.106c-.03.034-.067.073-.11.115-.062.06-.125.119-.192.175l-.183.158h.692Z"/></g><g id="Регистр"><rect class="cls-5" x="25.995" y="4.417" width="10.63" height="28.441"/><rect class="cls-2" x="36.996" y="29.944" width="4.255" height="2.286"/><line class="cls-6" x1="36.625" y1="31.086" x2="39.968" y2="31.086"/><rect class="cls-2" x="36.996" y="26.423" width="4.255" height="2.286"/><line class="cls-6" x1="36.625" y1="27.565" x2="39.968" y2="27.565"/><rect class="cls-2" x="37.013" y="22.901" width="4.255" height="2.286"/><line class="cls-6" x1="36.625" y1="24.046" x2="39.968" y2="24.046"/><rect class="cls-2" x="37.013" y="19.38" width="4.255" height="2.286"/><line class="cls-6" x1="36.625" y1="20.525" x2="39.968" y2="20.525"/><rect class="cls-2" x="37.013" y="15.859" width="4.255" height="2.286"/><line class="cls-6" x1="36.625" y1="17.004" x2="39.968" y2="17.004"/><rect class="cls-2" x="37.013" y="12.338" width="4.255" height="2.286"/><line class="cls-6" x1="36.625" y1="13.483" x2="39.968" y2="13.483"/><rect class="cls-2" x="37.013" y="8.817" width="4.255" height="2.286"/><line class="cls-6" x1="36.625" y1="9.962" x2="39.968" y2="9.962"/><rect class="cls-2" x="21.334" y="29.944" width="4.255" height="2.286"/><line class="cls-6" x1="22.651" y1="31.086" x2="25.995" y2="31.086"/><rect class="cls-2" x="21.334" y="26.423" width="4.255" height="2.286"/><line class="cls-6" x1="22.651" y1="27.565" x2="25.995" y2="27.565"/><rect class="cls-2" x="21.351" y="22.901" width="4.255" height="2.286"/><line class="cls-6" x1="22.651" y1="24.046" x2="25.995" y2="24.046"/><rect class="cls-2" x="21.351" y="19.38" width="4.255" height="2.286"/><line class="cls-6" x1="22.651" y1="20.525" x2="25.995" y2="20.525"/><rect class="cls-2" x="21.351" y="15.859" width="4.255" height="2.286"/><line class="cls-6" x1="22.651" y1="17.004" x2="25.995" y2="17.004"/><rect class="cls-2" x="21.351" y="12.338" width="4.255" height="2.286"/><line class="cls-6" x1="22.651" y1="13.483" x2="25.995" y2="13.483"/><rect class="cls-2" x="21.351" y="8.817" width="4.255" height="2.286"/><line class="cls-6" x1="22.651" y1="9.962" x2="25.995" y2="9.962"/><rect class="cls-2" x="21.351" y="5.296" width="4.255" height="2.286"/><line class="cls-6" x1="22.651" y1="6.44" x2="25.995" y2="6.44"/><rect class="cls-2" x="37.013" y="5.296" width="4.255" height="2.286"/><line class="cls-6" x1="36.625" y1="6.44" x2="39.968" y2="6.44"/><path class="cls-7" d="M29.777,10.691a1.972,1.972,0,0,1-.552-.069.893.893,0,0,1-.608-.579,1.453,1.453,0,0,1-.068-.469,1.408,1.408,0,0,1,.072-.477.883.883,0,0,1,.213-.341.935.935,0,0,1,.386-.228,1.936,1.936,0,0,1,.557-.069h1.74v.387H29.758a1.683,1.683,0,0,0-.374.032.726.726,0,0,0-.248.108.532.532,0,0,0-.191.234.878.878,0,0,0-.064.354.9.9,0,0,0,.063.355.54.54,0,0,0,.192.235.728.728,0,0,0,.255.108,1.637,1.637,0,0,0,.357.032h1.769v.387Z"/><path class="cls-7" d="M28.609,13.269v-1.84h2.908v.387H28.953v1.453Z"/><path class="cls-7" d="M28.609,15.875V15.4l2.6-1.379h-2.6v-.361h2.908v.6l-2.375,1.257h2.375v.362Z"/><path class="cls-7" d="M28.609,18.541V16.572h.408l.352.411c.117.137.234.265.349.384a3.812,3.812,0,0,0,.578.514.833.833,0,0,0,.462.138.44.44,0,0,0,.354-.149.624.624,0,0,0,.128-.417,1.326,1.326,0,0,0-.063-.385,1.532,1.532,0,0,0-.191-.4v-.02h.41a1.8,1.8,0,0,1,.125.37,1.88,1.88,0,0,1,.057.449,1.05,1.05,0,0,1-.216.7.729.729,0,0,1-.585.254,1.047,1.047,0,0,1-.582-.166,1.923,1.923,0,0,1-.238-.179c-.078-.068-.165-.151-.26-.249-.137-.139-.269-.283-.4-.432s-.247-.287-.356-.416v1.565Z"/><path class="cls-7" d="M30.064,21.08a2.11,2.11,0,0,1-1.149-.245.974.974,0,0,1,.005-1.526,2.815,2.815,0,0,1,2.286,0,.968.968,0,0,1-.006,1.527A2.145,2.145,0,0,1,30.064,21.08Zm-.887-.514a1.3,1.3,0,0,0,.372.093,4.713,4.713,0,0,0,.515.024,4.811,4.811,0,0,0,.516-.024,1.2,1.2,0,0,0,.371-.095.509.509,0,0,0,.226-.186.639.639,0,0,0,0-.608.511.511,0,0,0-.23-.19,1.189,1.189,0,0,0-.377-.091,4.99,4.99,0,0,0-.51-.024q-.3,0-.51.021a1.235,1.235,0,0,0-.367.092.512.512,0,0,0-.232.183.55.55,0,0,0-.08.313.561.561,0,0,0,.076.3A.493.493,0,0,0,29.177,20.566Z"/><path class="cls-7" d="M30.064,23.623a2.11,2.11,0,0,1-1.149-.245.974.974,0,0,1,.005-1.526,2.815,2.815,0,0,1,2.286,0,.968.968,0,0,1-.006,1.527A2.145,2.145,0,0,1,30.064,23.623Zm-.887-.514a1.3,1.3,0,0,0,.372.093,4.713,4.713,0,0,0,.515.024,4.811,4.811,0,0,0,.516-.024,1.2,1.2,0,0,0,.371-.1.509.509,0,0,0,.226-.186.639.639,0,0,0,0-.608.511.511,0,0,0-.23-.19,1.189,1.189,0,0,0-.377-.091,4.99,4.99,0,0,0-.51-.024q-.3,0-.51.021a1.235,1.235,0,0,0-.367.092.512.512,0,0,0-.232.183.55.55,0,0,0-.08.313.561.561,0,0,0,.076.3A.493.493,0,0,0,29.177,23.109Z"/><path class="cls-7" d="M30.009,25.914a.665.665,0,0,1-.21.154.758.758,0,0,1-.329.061.9.9,0,0,1-.365-.073.851.851,0,0,1-.289-.2.908.908,0,0,1-.2-.344,1.373,1.373,0,0,1-.065-.435,2.014,2.014,0,0,1,.057-.477,2.334,2.334,0,0,1,.126-.384h.408v.029a1.626,1.626,0,0,0-.181.391,1.39,1.39,0,0,0-.073.433.936.936,0,0,0,.041.262.565.565,0,0,0,.122.225.558.558,0,0,0,.189.133.66.66,0,0,0,.262.044.576.576,0,0,0,.258-.05.4.4,0,0,0,.162-.137A.565.565,0,0,0,30,25.33a1.53,1.53,0,0,0,.022-.27v-.175h.324v.136a.816.816,0,0,0,.124.474.416.416,0,0,0,.363.177.366.366,0,0,0,.184-.045.37.37,0,0,0,.13-.125.558.558,0,0,0,.07-.18,1.021,1.021,0,0,0,.02-.217,1.311,1.311,0,0,0-.066-.394,1.645,1.645,0,0,0-.188-.395V24.3h.408a2.116,2.116,0,0,1,.184.818,1.612,1.612,0,0,1-.039.375.927.927,0,0,1-.125.293.606.606,0,0,1-.537.285.594.594,0,0,1-.423-.171.75.75,0,0,1-.228-.4H30.2a.967.967,0,0,1-.066.215A.714.714,0,0,1,30.009,25.914Z"/><path class="cls-7" d="M28.609,29.113V28.7l.811-.285V27.158l-.811-.285V26.48l2.908,1.059v.515Zm1.143-.816,1.427-.51-1.427-.512Z"/></g><polygon class="cls-8" points="37.519 53.324 36.274 54.567 31.713 54.594 30.441 53.321 30.442 48.789 31.699 47.534 36.248 47.518 37.519 48.791 37.519 53.324"/><path class="cls-9" d="M30.447,48.793l.635-.635.635-.635h4.527l.635.635.635.635V53.32l-.356.356-.914.914H31.717l-1.27-1.27V48.793m-.01,0v4.535L31.713,54.6h4.535l1.276-1.276V48.789l-1.276-1.276H31.713l-1.276,1.276Z"/><rect class="cls-10" x="33.096" y="50.149" width="1.768" height="1.814"/><rect class="cls-11" x="33.497" y="50.56" width="0.967" height="0.992"/><line class="cls-12" x1="34.864" y1="51.963" x2="34.464" y2="51.552"/><line class="cls-12" x1="33.497" y1="51.552" x2="33.096" y2="51.963"/><line class="cls-12" x1="33.497" y1="50.56" x2="33.096" y2="50.149"/><line class="cls-12" x1="34.464" y1="50.56" x2="34.864" y2="50.149"/><polygon class="cls-8" points="44.662 53.324 43.417 54.567 38.856 54.595 37.584 53.321 37.585 48.789 38.842 47.534 43.391 47.518 44.662 48.791 44.662 53.324"/><path class="cls-9" d="M37.59,48.793l.635-.635.635-.635h4.527l.635.635.635.635V53.32l-.356.356-.914.914H38.86l-1.27-1.27V48.793m-.01,0v4.535L38.856,54.6h4.535l1.276-1.276V48.789l-1.276-1.276H38.856L37.58,48.789Z"/><rect class="cls-10" x="40.24" y="50.149" width="1.768" height="1.814"/><rect class="cls-11" x="40.64" y="50.56" width="0.967" height="0.992"/><line class="cls-12" x1="42.007" y1="51.964" x2="41.607" y2="51.552"/><line class="cls-12" x1="40.64" y1="51.552" x2="40.24" y2="51.964"/><line class="cls-12" x1="40.64" y1="50.56" x2="40.24" y2="50.149"/><line class="cls-12" x1="41.607" y1="50.56" x2="42.007" y2="50.149"/><polygon class="cls-8" points="23.232 53.324 21.958 54.596 17.426 54.594 16.154 53.32 16.155 48.789 17.412 47.534 21.962 47.518 23.232 48.791 23.232 53.324"/><path class="cls-9" d="M16.16,48.793l.635-.635.635-.635h4.527l.635.635.635.635V53.32l-.356.355-.914.914H17.43L16.16,53.32V48.793m-.01-.005v4.536L17.426,54.6h4.535l1.276-1.275V48.788l-1.276-1.275H17.426L16.15,48.788Z"/><rect class="cls-10" x="18.81" y="50.149" width="1.768" height="1.814"/><rect class="cls-11" x="19.21" y="50.56" width="0.967" height="0.992"/><line class="cls-12" x1="20.578" y1="51.963" x2="20.177" y2="51.552"/><line class="cls-12" x1="19.21" y1="51.552" x2="18.81" y2="51.963"/><line class="cls-12" x1="19.21" y1="50.56" x2="18.81" y2="50.149"/><line class="cls-12" x1="20.177" y1="50.56" x2="20.578" y2="50.149"/><polygon class="cls-8" points="30.376 53.324 29.13 54.568 24.57 54.595 23.315 53.338 23.299 48.789 24.573 47.517 29.105 47.518 30.376 48.791 30.376 53.324"/><path class="cls-9" d="M23.3,48.793l1.269-1.27H29.1l.914.914.355.356V53.32l-.635.635-.634.635H24.573l-.535-.536L23.3,53.32V48.793m-.01,0v4.535L24.569,54.6h4.536l1.275-1.276V48.789l-1.275-1.276H24.569l-1.275,1.276Z"/><rect class="cls-10" x="25.953" y="50.149" width="1.768" height="1.814"/><rect class="cls-11" x="26.354" y="50.56" width="0.967" height="0.992"/><line class="cls-12" x1="27.721" y1="51.964" x2="27.32" y2="51.553"/><line class="cls-12" x1="26.354" y1="51.553" x2="25.953" y2="51.964"/><line class="cls-12" x1="26.354" y1="50.56" x2="25.953" y2="50.149"/><line class="cls-12" x1="27.32" y1="50.56" x2="27.721" y2="50.149"/><polygon class="cls-8" points="5.912 33.786 7.156 35.032 7.183 39.593 5.909 40.865 1.377 40.863 0.122 39.606 0.106 35.057 1.379 33.786 5.912 33.786"/><path class="cls-9" d="M1.381,40.858l-.635-.635-.634-.634V35.061l.634-.634.635-.635H5.908l.356.355.914.914v4.528l-1.27,1.269H1.381m0,.01H5.913l1.275-1.275V35.057L5.913,33.782H1.377L.1,35.057v4.536l1.276,1.275Z"/><rect class="cls-10" x="2.738" y="36.441" width="1.814" height="1.768"/><rect class="cls-11" x="3.149" y="36.842" width="0.992" height="0.967"/><line class="cls-12" x1="4.552" y1="36.441" x2="4.141" y2="36.842"/><line class="cls-12" x1="4.141" y1="37.808" x2="4.552" y2="38.209"/><line class="cls-12" x1="3.149" y1="37.808" x2="2.738" y2="38.209"/><line class="cls-12" x1="3.149" y1="36.842" x2="2.738" y2="36.441"/><polygon class="cls-8" points="5.913 26.643 7.156 27.888 7.183 32.45 5.909 33.721 1.377 33.72 0.123 32.463 0.106 27.914 1.379 26.643 5.913 26.643"/><path class="cls-9" d="M1.381,33.715.746,33.08l-.634-.635V27.918l.634-.635.635-.635H5.909L6.264,27l.914.914v4.527l-1.269,1.27H1.381m0,.01H5.913l1.275-1.276V27.914L5.913,26.638H1.377L.1,27.914v4.535l1.275,1.276Z"/><rect class="cls-10" x="2.738" y="29.298" width="1.814" height="1.768"/><rect class="cls-11" x="3.149" y="29.698" width="0.992" height="0.967"/><line class="cls-12" x1="4.552" y1="29.298" x2="4.141" y2="29.698"/><line class="cls-12" x1="4.141" y1="30.665" x2="4.552" y2="31.066"/><line class="cls-12" x1="3.149" y1="30.665" x2="2.738" y2="31.066"/><line class="cls-12" x1="3.149" y1="29.698" x2="2.738" y2="29.298"/><polygon class="cls-8" points="5.912 48.073 7.184 49.347 7.183 53.879 5.909 55.151 1.377 55.15 0.122 53.893 0.106 49.344 1.379 48.073 5.912 48.073"/><path class="cls-9" d="M1.381,55.145.746,54.51l-.635-.635V49.348l.635-.635.635-.635H5.908l.356.356.914.914v4.527l-1.27,1.27H1.381m0,.01H5.912l1.276-1.276V49.344L5.912,48.068H1.377L.1,49.344v4.535l1.276,1.276Z"/><rect class="cls-10" x="2.738" y="50.728" width="1.814" height="1.768"/><rect class="cls-11" x="3.149" y="51.128" width="0.992" height="0.967"/><line class="cls-12" x1="4.552" y1="50.728" x2="4.141" y2="51.128"/><line class="cls-12" x1="4.141" y1="52.095" x2="4.552" y2="52.495"/><line class="cls-12" x1="3.149" y1="52.095" x2="2.738" y2="52.495"/><line class="cls-12" x1="3.149" y1="51.128" x2="2.738" y2="50.728"/><polygon class="cls-8" points="5.913 40.93 7.156 42.175 7.183 46.736 5.927 47.991 1.377 48.007 0.105 46.732 0.107 42.201 1.379 40.93 5.913 40.93"/><path class="cls-9" d="M1.381,48,.112,46.732V42.205l.914-.914.355-.356H5.909l.634.635.635.635v4.527l-.535.536L5.909,48H1.381m0,.01H5.913l1.275-1.276V42.2L5.913,40.925H1.377L.1,42.2v4.535l1.275,1.276Z"/><rect class="cls-10" x="2.738" y="43.584" width="1.814" height="1.768"/><rect class="cls-11" x="3.149" y="43.985" width="0.992" height="0.967"/><line class="cls-12" x1="4.552" y1="43.584" x2="4.141" y2="43.985"/><line class="cls-12" x1="4.141" y1="44.952" x2="4.552" y2="45.352"/><line class="cls-12" x1="3.149" y1="44.952" x2="2.738" y2="45.352"/><line class="cls-12" x1="3.149" y1="43.985" x2="2.738" y2="43.584"/><polygon class="cls-8" points="5.912 5.227 7.156 6.473 7.183 11.034 5.909 12.306 1.377 12.305 0.122 11.048 0.106 6.498 1.379 5.227 5.912 5.227"/><path class="cls-9" d="M1.381,12.3l-.635-.635L.112,11.03V6.5l.634-.635.635-.635H5.908l.356.356.914.914V11.03L5.908,12.3H1.381m0,.01H5.913l1.275-1.276V6.5L5.913,5.223H1.377L.1,6.5v4.535L1.377,12.31Z"/><rect class="cls-10" x="2.738" y="7.882" width="1.814" height="1.768"/><rect class="cls-11" x="3.149" y="8.283" width="0.992" height="0.967"/><line class="cls-12" x1="4.552" y1="7.882" x2="4.141" y2="8.283"/><line class="cls-12" x1="4.141" y1="9.25" x2="4.552" y2="9.65"/><line class="cls-12" x1="3.149" y1="9.25" x2="2.738" y2="9.65"/><line class="cls-12" x1="3.149" y1="8.283" x2="2.738" y2="7.882"/><polygon class="cls-8" points="5.912 19.515 7.184 20.788 7.183 25.321 5.909 26.593 1.377 26.591 0.122 25.334 0.106 20.785 1.379 19.515 5.912 19.515"/><path class="cls-9" d="M1.381,26.586l-.635-.635-.635-.634V20.789l.635-.634.635-.635H5.908l.356.355.914.914v4.528l-1.27,1.269H1.381m0,.01H5.912l1.276-1.275V20.785L5.912,19.51H1.377L.1,20.785v4.536L1.377,26.6Z"/><rect class="cls-10" x="2.738" y="22.169" width="1.814" height="1.768"/><rect class="cls-11" x="3.149" y="22.57" width="0.992" height="0.967"/><line class="cls-12" x1="4.552" y1="22.169" x2="4.141" y2="22.57"/><line class="cls-12" x1="4.141" y1="23.536" x2="4.552" y2="23.937"/><line class="cls-12" x1="3.149" y1="23.536" x2="2.738" y2="23.937"/><line class="cls-12" x1="3.149" y1="22.57" x2="2.738" y2="22.169"/><polygon class="cls-8" points="5.913 12.371 7.156 13.617 7.183 18.177 5.927 19.432 1.377 19.448 0.105 18.174 0.107 13.642 1.379 12.371 5.913 12.371"/><path class="cls-9" d="M1.381,19.443.112,18.173V13.646l.914-.914.355-.356H5.909l.634.635.635.635v4.527l-.535.536-.734.734H1.381m0,.01H5.913l1.275-1.276V13.642L5.913,12.366H1.377L.1,13.642v4.535l1.275,1.276Z"/><rect class="cls-10" x="2.738" y="15.026" width="1.814" height="1.768"/><rect class="cls-11" x="3.149" y="15.426" width="0.992" height="0.967"/><line class="cls-12" x1="4.552" y1="15.026" x2="4.141" y2="15.426"/><line class="cls-12" x1="4.141" y1="16.393" x2="4.552" y2="16.793"/><line class="cls-12" x1="3.149" y1="16.393" x2="2.738" y2="16.793"/><line class="cls-12" x1="3.149" y1="15.426" x2="2.738" y2="15.026"/><polygon class="cls-8" points="113.405 33.786 114.648 35.032 114.676 39.593 113.402 40.865 108.87 40.863 107.615 39.606 107.599 35.057 108.872 33.786 113.405 33.786"/><path class="cls-9" d="M108.874,40.858l-.635-.635-.635-.634V35.061l.635-.634.635-.635H113.4l.356.355.914.914v4.528l-1.27,1.269h-4.527m0,.01h4.535l1.276-1.275V35.057l-1.276-1.275H108.87l-1.276,1.275v4.536l1.276,1.275Z"/><rect class="cls-10" x="110.23" y="36.441" width="1.814" height="1.768"/><rect class="cls-11" x="110.641" y="36.842" width="0.992" height="0.967"/><line class="cls-12" x1="112.045" y1="36.441" x2="111.634" y2="36.842"/><line class="cls-12" x1="111.634" y1="37.808" x2="112.045" y2="38.209"/><line class="cls-12" x1="110.641" y1="37.808" x2="110.23" y2="38.209"/><line class="cls-12" x1="110.641" y1="36.842" x2="110.23" y2="36.441"/><polygon class="cls-8" points="113.405 26.643 114.649 27.888 114.676 32.45 113.402 33.721 108.87 33.72 107.615 32.463 107.599 27.914 108.872 26.643 113.405 26.643"/><path class="cls-9" d="M108.874,33.715l-.635-.635-.635-.635V27.918l.635-.635.635-.635H113.4l.356.356.914.914v4.527l-1.27,1.27h-4.527m0,.01h4.535l1.276-1.276V27.914l-1.276-1.276H108.87l-1.276,1.276v4.535l1.276,1.276Z"/><rect class="cls-10" x="110.231" y="29.298" width="1.814" height="1.768"/><rect class="cls-11" x="110.642" y="29.698" width="0.992" height="0.967"/><line class="cls-12" x1="112.045" y1="29.298" x2="111.634" y2="29.698"/><line class="cls-12" x1="111.634" y1="30.665" x2="112.045" y2="31.066"/><line class="cls-12" x1="110.642" y1="30.665" x2="110.231" y2="31.066"/><line class="cls-12" x1="110.642" y1="29.698" x2="110.231" y2="29.298"/><polygon class="cls-8" points="113.405 48.073 114.677 49.347 114.676 53.879 113.402 55.151 108.87 55.15 107.615 53.893 107.599 49.344 108.872 48.073 113.405 48.073"/><path class="cls-9" d="M108.874,55.145l-.635-.635-.635-.635V49.348l.635-.635.635-.635H113.4l.356.356.914.914v4.527l-1.27,1.27h-4.527m0,.01h4.535l1.276-1.276V49.344l-1.276-1.276H108.87l-1.276,1.276v4.535l1.276,1.276Z"/><rect class="cls-10" x="110.23" y="50.728" width="1.814" height="1.768"/><rect class="cls-11" x="110.641" y="51.128" width="0.992" height="0.967"/><line class="cls-12" x1="112.044" y1="50.728" x2="111.633" y2="51.128"/><line class="cls-12" x1="111.633" y1="52.095" x2="112.044" y2="52.495"/><line class="cls-12" x1="110.641" y1="52.095" x2="110.23" y2="52.495"/><line class="cls-12" x1="110.641" y1="51.128" x2="110.23" y2="50.728"/><polygon class="cls-8" points="113.406 40.93 114.649 42.175 114.676 46.736 113.419 47.991 108.87 48.007 107.598 46.732 107.599 42.201 108.872 40.93 113.406 40.93"/><path class="cls-9" d="M108.874,48l-1.27-1.27V42.205l.914-.914.356-.356H113.4l.635.635.635.635v4.527l-.536.536L113.4,48h-4.527m0,.01h4.535l1.276-1.276V42.2l-1.276-1.276H108.87L107.594,42.2v4.535l1.276,1.276Z"/><rect class="cls-10" x="110.231" y="43.584" width="1.814" height="1.768"/><rect class="cls-11" x="110.642" y="43.985" width="0.992" height="0.967"/><line class="cls-12" x1="112.045" y1="43.584" x2="111.634" y2="43.985"/><line class="cls-12" x1="111.634" y1="44.952" x2="112.045" y2="45.352"/><line class="cls-12" x1="110.642" y1="44.952" x2="110.231" y2="45.352"/><line class="cls-12" x1="110.642" y1="43.985" x2="110.231" y2="43.584"/><polygon class="cls-8" points="113.405 5.227 114.648 6.473 114.676 11.034 113.402 12.306 108.87 12.305 107.615 11.048 107.599 6.498 108.872 5.227 113.405 5.227"/><path class="cls-9" d="M108.874,12.3l-.635-.635-.635-.635V6.5l.635-.635.635-.635H113.4l.356.356.914.914V11.03L113.4,12.3h-4.527m0,.01h4.535l1.276-1.276V6.5l-1.276-1.276H108.87L107.594,6.5v4.535l1.276,1.276Z"/><rect class="cls-10" x="110.23" y="7.882" width="1.814" height="1.768"/><rect class="cls-11" x="110.641" y="8.283" width="0.992" height="0.967"/><line class="cls-12" x1="112.045" y1="7.882" x2="111.634" y2="8.283"/><line class="cls-12" x1="111.634" y1="9.25" x2="112.045" y2="9.65"/><line class="cls-12" x1="110.641" y1="9.25" x2="110.23" y2="9.65"/><line class="cls-12" x1="110.641" y1="8.283" x2="110.23" y2="7.882"/><polygon class="cls-8" points="113.405 19.515 114.677 20.788 114.676 25.321 113.402 26.593 108.87 26.591 107.615 25.334 107.599 20.785 108.872 19.515 113.405 19.515"/><path class="cls-9" d="M108.874,26.586l-.635-.635-.635-.634V20.789l.635-.634.635-.635H113.4l.356.355.914.914v4.528l-1.27,1.269h-4.527m0,.01h4.535l1.276-1.275V20.785l-1.276-1.275H108.87l-1.276,1.275v4.536L108.87,26.6Z"/><rect class="cls-10" x="110.23" y="22.169" width="1.814" height="1.768"/><rect class="cls-11" x="110.641" y="22.57" width="0.992" height="0.967"/><line class="cls-12" x1="112.044" y1="22.169" x2="111.633" y2="22.57"/><line class="cls-12" x1="111.633" y1="23.536" x2="112.044" y2="23.937"/><line class="cls-12" x1="110.641" y1="23.536" x2="110.23" y2="23.937"/><line class="cls-12" x1="110.641" y1="22.57" x2="110.23" y2="22.169"/><polygon class="cls-8" points="113.406 12.371 114.649 13.617 114.676 18.177 113.419 19.432 108.87 19.448 107.598 18.174 107.599 13.642 108.872 12.371 113.406 12.371"/><path class="cls-9" d="M108.874,19.443l-1.27-1.27V13.646l.914-.914.356-.356H113.4l.635.635.635.635v4.527l-.536.536-.734.734h-4.527m0,.01h4.535l1.276-1.276V13.642l-1.276-1.276H108.87l-1.276,1.276v4.535l1.276,1.276Z"/><rect class="cls-10" x="110.231" y="15.026" width="1.814" height="1.768"/><rect class="cls-11" x="110.642" y="15.426" width="0.992" height="0.967"/><line class="cls-12" x1="112.045" y1="15.026" x2="111.634" y2="15.426"/><line class="cls-12" x1="111.634" y1="16.393" x2="112.045" y2="16.793"/><line class="cls-12" x1="110.642" y1="16.393" x2="110.231" y2="16.793"/><line class="cls-12" x1="110.642" y1="15.426" x2="110.231" y2="15.026"/><path class="cls-13" d="M52.987,21.563V18.719h.8a1.291,1.291,0,0,1,.656.164,1.112,1.112,0,0,1,.441.467,1.52,1.52,0,0,1,.157.7v.182a1.532,1.532,0,0,1-.155.7,1.1,1.1,0,0,1-.444.465,1.374,1.374,0,0,1-.67.166Zm.375-2.537v2.23h.395a.862.862,0,0,0,.675-.269,1.121,1.121,0,0,0,.241-.769v-.166a1.134,1.134,0,0,0-.228-.754.805.805,0,0,0-.645-.272Z"/><path class="cls-13" d="M57.38,21.563H55.517V21.3l.984-1.094a2.322,2.322,0,0,0,.3-.4.676.676,0,0,0,.083-.321.512.512,0,0,0-.135-.366.47.47,0,0,0-.359-.142.557.557,0,0,0-.419.153.585.585,0,0,0-.15.427h-.361a.842.842,0,0,1,.253-.635.938.938,0,0,1,.677-.242.9.9,0,0,1,.627.208.708.708,0,0,1,.23.554,1.628,1.628,0,0,1-.535,1l-.762.826H57.38Z"/><path class="cls-13" d="M71.059,20.412h-.668v1.151h-.377V18.719h.942a1.112,1.112,0,0,1,.739.219.789.789,0,0,1,.259.637.76.76,0,0,1-.144.462.851.851,0,0,1-.4.3l.668,1.207v.024h-.4Zm-.668-.306h.576a.653.653,0,0,0,.445-.145.489.489,0,0,0,.165-.387.512.512,0,0,0-.157-.405.666.666,0,0,0-.454-.143h-.575Z"/><path class="cls-13" d="M74.249,21.563H72.385V21.3l.985-1.094a2.375,2.375,0,0,0,.3-.4.676.676,0,0,0,.083-.321.512.512,0,0,0-.135-.366.472.472,0,0,0-.36-.142.561.561,0,0,0-.419.153.589.589,0,0,0-.149.427h-.361a.838.838,0,0,1,.253-.635.938.938,0,0,1,.676-.242.9.9,0,0,1,.627.208.709.709,0,0,1,.231.554,1.628,1.628,0,0,1-.535,1l-.762.826h1.428Z"/><path class="cls-13" d="M52.987,36.367V33.524h.8a1.281,1.281,0,0,1,.656.164,1.112,1.112,0,0,1,.441.467,1.517,1.517,0,0,1,.157.7v.182a1.532,1.532,0,0,1-.155.705,1.093,1.093,0,0,1-.444.464,1.363,1.363,0,0,1-.67.166Zm.375-2.537v2.231h.395a.859.859,0,0,0,.675-.27,1.119,1.119,0,0,0,.241-.768v-.166a1.132,1.132,0,0,0-.228-.754.809.809,0,0,0-.645-.273Z"/><path class="cls-13" d="M56.042,34.77h.272a.6.6,0,0,0,.4-.135.448.448,0,0,0,.146-.353.441.441,0,0,0-.5-.5.52.52,0,0,0-.374.133.471.471,0,0,0-.139.355h-.362a.727.727,0,0,1,.248-.562.9.9,0,0,1,.627-.223A.883.883,0,0,1,57,33.7a.766.766,0,0,1,.229.591.626.626,0,0,1-.12.36.727.727,0,0,1-.327.259.7.7,0,0,1,.362.247.683.683,0,0,1,.128.42.778.778,0,0,1-.25.607.937.937,0,0,1-.651.225.964.964,0,0,1-.651-.217.722.722,0,0,1-.251-.573h.363a.465.465,0,0,0,.147.36.646.646,0,0,0,.793,0,.529.529,0,0,0,.138-.393.478.478,0,0,0-.152-.381.662.662,0,0,0-.439-.136h-.272Z"/><path class="cls-13" d="M71.059,35.217h-.668v1.15h-.377V33.524h.942a1.112,1.112,0,0,1,.739.218.789.789,0,0,1,.259.637.763.763,0,0,1-.144.463.858.858,0,0,1-.4.3l.668,1.207v.023h-.4Zm-.668-.307h.576a.653.653,0,0,0,.445-.144.491.491,0,0,0,.165-.388.515.515,0,0,0-.157-.405.671.671,0,0,0-.454-.143h-.575Z"/><path class="cls-13" d="M72.911,34.77h.271a.6.6,0,0,0,.4-.135.451.451,0,0,0,.146-.353.441.441,0,0,0-.5-.5.519.519,0,0,0-.374.133.471.471,0,0,0-.14.355h-.361a.729.729,0,0,1,.247-.562.9.9,0,0,1,.628-.223.885.885,0,0,1,.631.213.769.769,0,0,1,.228.591.626.626,0,0,1-.12.36.727.727,0,0,1-.327.259.707.707,0,0,1,.363.247.683.683,0,0,1,.127.42.774.774,0,0,1-.25.607.933.933,0,0,1-.65.225.962.962,0,0,1-.651-.217.719.719,0,0,1-.251-.573H72.7a.468.468,0,0,0,.146.36.558.558,0,0,0,.393.135.547.547,0,0,0,.4-.137.525.525,0,0,0,.139-.393.481.481,0,0,0-.152-.381.665.665,0,0,0-.44-.136h-.271Z"/><path class="cls-13" d="M52.987,51.172V48.328h.8a1.291,1.291,0,0,1,.656.164,1.124,1.124,0,0,1,.441.467,1.525,1.525,0,0,1,.157.7v.181a1.529,1.529,0,0,1-.155.7,1.1,1.1,0,0,1-.444.465,1.363,1.363,0,0,1-.67.166Zm.375-2.537v2.231h.395a.859.859,0,0,0,.675-.27,1.12,1.12,0,0,0,.241-.769v-.166a1.129,1.129,0,0,0-.228-.753.806.806,0,0,0-.645-.273Z"/><path class="cls-13" d="M57.042,50.217h.395v.3h-.395v.66h-.363v-.66h-1.3V50.3l1.273-1.971h.385Zm-1.248,0h.885V48.823l-.043.078Z"/><path class="cls-13" d="M20.76,57.82a.863.863,0,0,1-.4.309,1.612,1.612,0,0,1-.6.1,1.169,1.169,0,0,1-.618-.163,1.1,1.1,0,0,1-.417-.464,1.6,1.6,0,0,1-.151-.7v-.249a1.5,1.5,0,0,1,.3-1,1.047,1.047,0,0,1,.843-.353,1.082,1.082,0,0,1,.716.227.986.986,0,0,1,.332.646h-.375a.62.62,0,0,0-.671-.567.666.666,0,0,0-.572.265,1.3,1.3,0,0,0-.2.768v.232a1.215,1.215,0,0,0,.219.762.71.71,0,0,0,.592.282,1.318,1.318,0,0,0,.369-.047.563.563,0,0,0,.261-.157v-.638h-.658v-.306H20.76Z"/><path class="cls-13" d="M26.836,57.7l.813-2.346h.41L27,58.193h-.332l-1.053-2.844h.409Z"/><path class="cls-13" d="M35.013,56.748l1.223.494v.383l-1.6-.74V56.6l1.6-.738v.382Z"/><path class="cls-13" d="M38.489,56.735h-1.63v-.3h1.63Z"/><path class="cls-13" d="M40.368,56.737l-1.291-.506V55.86l1.668.738v.285l-1.668.74v-.375Z"/><path class="cls-13" d="M71.059,50.022h-.668v1.15h-.377V48.328h.942a1.112,1.112,0,0,1,.739.219.789.789,0,0,1,.259.637.765.765,0,0,1-.144.463.858.858,0,0,1-.4.3l.668,1.207v.023h-.4Zm-.668-.307h.576a.653.653,0,0,0,.445-.144.491.491,0,0,0,.165-.388.515.515,0,0,0-.157-.405.671.671,0,0,0-.454-.143h-.575Z"/><path class="cls-13" d="M73.911,50.217h.394v.3h-.394v.66h-.363v-.66h-1.3V50.3l1.273-1.971h.385Zm-1.248,0h.885V48.823l-.043.078Z"/><path class="cls-13" d="M52.987,6.758V3.914h.8a1.291,1.291,0,0,1,.656.164,1.124,1.124,0,0,1,.441.467,1.525,1.525,0,0,1,.157.7v.181a1.529,1.529,0,0,1-.155.705,1.1,1.1,0,0,1-.444.465,1.363,1.363,0,0,1-.67.166Zm.375-2.537v2.23h.395a.858.858,0,0,0,.675-.269,1.12,1.12,0,0,0,.241-.769V5.247a1.134,1.134,0,0,0-.228-.754.809.809,0,0,0-.645-.272Z"/><path class="cls-13" d="M56.7,6.758h-.363V4.35l-.729.267V4.289L56.648,3.9H56.7Z"/><path class="cls-13" d="M8.521,10.009V9.762l.318-.054V7.468l-.318-.055V7.165H9.542v.248l-.318.055v2.24l.318.054v.247Z"/><path class="cls-13" d="M9.862,10.009V9.762l.319-.054V7.468l-.319-.055V7.165h.708l1.394,2.217.012,0V7.468l-.35-.055V7.165h1.022v.248l-.319.055v2.541h-.351L10.546,7.78l-.012,0V9.708l.35.054v.247Z"/><path class="cls-13" d="M13.046,10.009V9.762l.44-.054V7.577l-.448.008v-.24l.832-.18V9.708l.438.054v.247Z"/><path class="cls-13" d="M7.96,17.221v-.246l.319-.055V14.68l-.319-.055v-.248H8.982v.248l-.319.055v2.24l.319.055v.246Z"/><path class="cls-13" d="M9.3,17.221v-.246l.318-.055V14.68L9.3,14.625v-.248h.707L11.4,16.594l.011,0V14.68l-.349-.055v-.248h1.021v.248l-.318.055v2.541h-.352L9.986,14.992l-.012,0V16.92l.349.055v.246Z"/><path class="cls-13" d="M12.439,17.221v-.264l.931-1.035a3.533,3.533,0,0,0,.26-.317.981.981,0,0,0,.131-.239.673.673,0,0,0,.037-.223.524.524,0,0,0-.129-.359.467.467,0,0,0-.369-.145.508.508,0,0,0-.39.15.6.6,0,0,0-.139.426H12.4l0-.012a.847.847,0,0,1,.1-.442.794.794,0,0,1,.318-.311,1.011,1.011,0,0,1,.495-.114.978.978,0,0,1,.464.1.736.736,0,0,1,.3.28.778.778,0,0,1,.106.408.837.837,0,0,1-.062.311,1.481,1.481,0,0,1-.179.316,3.9,3.9,0,0,1-.285.342l-.748.814,0,.01h1.01l.031-.326h.326v.627Z"/><path class="cls-13" d="M8.009,24.433v-.246l.318-.055v-2.24l-.318-.055v-.248H9.03v.248l-.318.055v2.24l.318.055v.246Z"/><path class="cls-13" d="M9.351,24.433v-.246l.318-.055v-2.24l-.318-.055v-.248h.707l1.394,2.217.012,0v-1.91l-.35-.055v-.248h1.022v.248l-.318.055v2.541h-.352L10.034,22.2l-.011,0v1.924l.349.055v.246Z"/><path class="cls-13" d="M13.333,24.474a1.088,1.088,0,0,1-.463-.095.748.748,0,0,1-.317-.269.71.71,0,0,1-.108-.415l0-.012h.368a.524.524,0,0,0,.062.26.442.442,0,0,0,.178.17.585.585,0,0,0,.275.06.528.528,0,0,0,.383-.133.519.519,0,0,0,.139-.392.537.537,0,0,0-.123-.389.528.528,0,0,0-.389-.125h-.336v-.3h.336a.562.562,0,0,0,.273-.057.341.341,0,0,0,.15-.166.666.666,0,0,0,.046-.261.519.519,0,0,0-.121-.371.471.471,0,0,0-.358-.127.559.559,0,0,0-.262.059.428.428,0,0,0-.172.168.512.512,0,0,0-.062.255h-.369l0-.011a.687.687,0,0,1,.1-.391.767.767,0,0,1,.306-.279.984.984,0,0,1,.46-.1.907.907,0,0,1,.629.21.762.762,0,0,1,.234.6.684.684,0,0,1-.425.617.626.626,0,0,1,.362.264.769.769,0,0,1,.106.4.821.821,0,0,1-.116.446.758.758,0,0,1-.321.287A1.053,1.053,0,0,1,13.333,24.474Z"/><path class="cls-13" d="M7.851,31.645V31.4l.318-.054V29.1l-.318-.054V28.8H8.872v.248l-.318.054v2.241l.318.054v.246Z"/><path class="cls-13" d="M9.193,31.645V31.4l.318-.054V29.1l-.318-.054V28.8H9.9l1.394,2.216.012,0V29.1l-.35-.054V28.8h1.022v.248l-.319.054v2.541h-.351L9.876,29.417l-.012,0v1.924l.35.054v.246Z"/><path class="cls-13" d="M13.222,31.645V31.4l.318-.054v-.356H12.263v-.217l1.254-1.97h.406v1.886h.393v.3h-.393v.356l.318.054v.246Zm-.549-.957h.867V29.35l-.011,0-.04.1Z"/><path class="cls-13" d="M8.058,38.857v-.246l.318-.055v-2.24l-.318-.054v-.249H9.079v.249l-.318.054v2.24l.318.055v.246Z"/><path class="cls-13" d="M9.4,38.857v-.246l.318-.055v-2.24L9.4,36.262v-.249h.707L11.5,38.23l.012,0v-1.91l-.35-.054v-.249h1.022v.249l-.319.054v2.541h-.351l-1.432-2.228-.012,0v1.923l.35.055v.246Z"/><path class="cls-13" d="M13.366,38.9a1.008,1.008,0,0,1-.43-.088.674.674,0,0,1-.3-.26.764.764,0,0,1-.1-.429l0-.012h.348a.474.474,0,0,0,.134.36.479.479,0,0,0,.344.128.455.455,0,0,0,.379-.171.745.745,0,0,0,.135-.471.707.707,0,0,0-.136-.45.447.447,0,0,0-.376-.175.616.616,0,0,0-.329.068.389.389,0,0,0-.149.209l-.32-.033.164-1.561h1.5v.563h-.29l-.037-.221H13.06l-.092.8a.775.775,0,0,1,.127-.079.73.73,0,0,1,.149-.056A.758.758,0,0,1,13.421,37a.831.831,0,0,1,.451.114.756.756,0,0,1,.291.332,1.182,1.182,0,0,1,.1.509,1.127,1.127,0,0,1-.1.5.757.757,0,0,1-.3.331A.956.956,0,0,1,13.366,38.9Z"/><path class="cls-13" d="M7.935,46.07v-.246l.318-.055v-2.24l-.318-.055v-.248H8.956v.248l-.318.055v2.24l.318.055v.246Z"/><path class="cls-13" d="M9.277,46.07v-.246l.318-.055v-2.24l-.318-.055v-.248h.707l1.394,2.217.012,0v-1.91l-.35-.055v-.248h1.022v.248l-.319.055V46.07h-.351L9.96,43.841l-.012,0v1.924l.35.055v.246Z"/><path class="cls-13" d="M13.423,46.111a.894.894,0,0,1-.838-.532,1.442,1.442,0,0,1-.125-.629v-.382a1.887,1.887,0,0,1,.136-.759,1.043,1.043,0,0,1,.375-.466.979.979,0,0,1,.55-.158,1.286,1.286,0,0,1,.288.033.942.942,0,0,1,.237.084l-.074.287a1.084,1.084,0,0,0-.2-.073,1,1,0,0,0-.25-.028.573.573,0,0,0-.476.225,1.139,1.139,0,0,0-.188.681l.007.008a.8.8,0,0,1,.268-.161.953.953,0,0,1,.342-.06.777.777,0,0,1,.731.451,1.079,1.079,0,0,1,.1.481,1.172,1.172,0,0,1-.11.519.839.839,0,0,1-.308.352A.857.857,0,0,1,13.423,46.111Zm0-.3a.413.413,0,0,0,.27-.092.571.571,0,0,0,.17-.25.994.994,0,0,0,.06-.355.726.726,0,0,0-.142-.463.469.469,0,0,0-.391-.182.728.728,0,0,0-.237.036.547.547,0,0,0-.31.255v.229a.977.977,0,0,0,.165.609A.506.506,0,0,0,13.423,45.81Z"/><path class="cls-13" d="M7.966,53.282v-.247l.318-.054v-2.24l-.318-.055v-.248H8.987v.248l-.318.055v2.24l.318.054v.247Z"/><path class="cls-13" d="M9.308,53.282v-.247l.318-.054v-2.24l-.318-.055v-.248h.707l1.394,2.217.012,0v-1.91l-.35-.055v-.248h1.022v.248l-.318.055v2.541h-.352L9.991,51.053l-.011,0v1.924l.349.054v.247Z"/><path class="cls-13" d="M12.952,53.282l.032-.307a4.421,4.421,0,0,1,.177-.83,3.818,3.818,0,0,1,.319-.725,4.971,4.971,0,0,1,.468-.679H12.761l-.029.326H12.4v-.629h1.921v.3a5.458,5.458,0,0,0-.425.569,3.142,3.142,0,0,0-.271.517,3.225,3.225,0,0,0-.161.533q-.058.278-.1.615l-.031.307Z"/><path class="cls-13" d="M71.059,5.608h-.668v1.15h-.377V3.914h.942a1.112,1.112,0,0,1,.739.219.789.789,0,0,1,.259.637.765.765,0,0,1-.144.463.858.858,0,0,1-.4.295l.668,1.207v.023h-.4ZM70.391,5.3h.576a.653.653,0,0,0,.445-.144.493.493,0,0,0,.165-.388.515.515,0,0,0-.157-.405.666.666,0,0,0-.454-.143h-.575Z"/><path class="cls-13" d="M73.573,6.758H73.21V4.35l-.729.267V4.289L73.516,3.9h.057Z"/><path class="cls-13" d="M105.364,9.581h-1.191l-.268.744h-.387L104.6,7.481h.328l1.088,2.844h-.385Zm-1.078-.307h.967l-.485-1.33Z"/><path class="cls-13" d="M103.868,17.433V14.59h.93a1.084,1.084,0,0,1,.7.191.69.69,0,0,1,.233.566.581.581,0,0,1-.113.353.741.741,0,0,1-.309.237.665.665,0,0,1,.365.245.714.714,0,0,1,.133.431.763.763,0,0,1-.248.6,1.026,1.026,0,0,1-.7.218Zm.375-1.63h.566a.592.592,0,0,0,.394-.124.415.415,0,0,0,.147-.334.41.41,0,0,0-.136-.342.676.676,0,0,0-.416-.107h-.555Zm0,.3v1.024h.619a.6.6,0,0,0,.413-.136.475.475,0,0,0,.151-.374c0-.342-.186-.514-.558-.514Z"/><path class="cls-13" d="M105.888,23.639a1.043,1.043,0,0,1-.333.7,1.09,1.09,0,0,1-.745.245A1,1,0,0,1,104,24.22a1.451,1.451,0,0,1-.3-.967v-.274a1.628,1.628,0,0,1,.142-.7,1.056,1.056,0,0,1,.4-.462,1.123,1.123,0,0,1,.6-.161,1.025,1.025,0,0,1,.727.253,1.049,1.049,0,0,1,.318.7h-.377a.811.811,0,0,0-.212-.494.638.638,0,0,0-.456-.152.672.672,0,0,0-.563.265,1.224,1.224,0,0,0-.2.757v.275a1.256,1.256,0,0,0,.193.738.626.626,0,0,0,.541.273.725.725,0,0,0,.48-.141.787.787,0,0,0,.221-.494Z"/><path class="cls-13" d="M103.785,31.65V28.806h.8a1.289,1.289,0,0,1,.656.165,1.113,1.113,0,0,1,.44.466,1.512,1.512,0,0,1,.157.7v.181a1.517,1.517,0,0,1-.155.7,1.094,1.094,0,0,1-.443.465,1.372,1.372,0,0,1-.671.166Zm.375-2.537v2.231h.394a.859.859,0,0,0,.675-.27,1.12,1.12,0,0,0,.241-.769v-.166a1.134,1.134,0,0,0-.227-.753.813.813,0,0,0-.646-.273Z"/><path class="cls-13" d="M105.611,37.444h-1.232v1.008h1.431v.307H104V35.915h1.787v.306h-1.412v.916h1.232Z"/><path class="cls-13" d="M105.611,44.611h-1.193v1.256h-.375V43.023H105.8v.307h-1.386V44.3h1.193Z"/><path class="cls-13" d="M105.821,52.6a.863.863,0,0,1-.4.31,1.642,1.642,0,0,1-.6.1,1.165,1.165,0,0,1-.617-.163,1.082,1.082,0,0,1-.417-.464,1.582,1.582,0,0,1-.151-.7v-.248a1.5,1.5,0,0,1,.3-1,1.044,1.044,0,0,1,.843-.353,1.079,1.079,0,0,1,.717.227,1,1,0,0,1,.332.646h-.375a.621.621,0,0,0-.672-.567.663.663,0,0,0-.571.265,1.288,1.288,0,0,0-.2.767v.233a1.215,1.215,0,0,0,.218.762.71.71,0,0,0,.592.282,1.308,1.308,0,0,0,.369-.047.568.568,0,0,0,.262-.158v-.637h-.658v-.307h1.031Z"/><g id="breadboard"><rect id="bgnd" class="cls-14" x="83.996" y="6.345" width="18.363" height="46.306"/><rect id="top_inset" data-name="top inset" class="cls-15" x="100.213" y="6.345" width="2.145" height="46.306"/><rect id="bottom_inset" data-name="bottom inset" class="cls-15" x="83.995" y="6.345" width="2.59" height="46.306"/><path id="left_inset" data-name="left inset" class="cls-15" d="M102.358,6.345H84l2.048,2.493H100.31Z"/><path id="right_inset" data-name="right inset" class="cls-15" d="M102.358,52.651H84L86.044,50.2H100.31Z"/><rect id="top_border" data-name="top border" class="cls-16" x="100.979" y="6.345" width="1.379" height="46.306"/><rect id="bottom_border" data-name="bottom border" class="cls-16" x="83.996" y="6.345" width="1.664" height="46.306"/><rect id="left_border" data-name="left border" class="cls-16" x="83.996" y="6.345" width="18.363" height="1.602"/><rect id="right_border" data-name="right border" class="cls-16" x="83.996" y="51.078" width="18.363" height="1.573"/><rect id="lower_connector_bgnd" data-name="lower connector bgnd" class="cls-16" x="89.082" y="13.938" width="3.683" height="3.683"/><rect id="connector0pin" class="cls-17" x="89.809" y="14.665" width="2.229" height="2.229"/><rect id="lower_connector_top_inset" data-name="lower connector top inset" class="cls-18" x="91.497" y="14.665" width="0.541" height="2.229"/><rect id="lower_connector_bottom_inset" data-name="lower connector bottom inset" class="cls-19" x="89.809" y="14.665" width="0.541" height="2.229"/><path id="lower_connector_left_inset" data-name="lower connector left inset" class="cls-20" d="M92.038,14.665H89.809l.541.541H91.5Z"/><path id="lower_connector_right_inset" data-name="lower connector right inset" class="cls-20" d="M92.038,16.893H89.809l.541-.541H91.5Z"/><rect id="lower_connector_bgnd-2" data-name="lower connector bgnd" class="cls-16" x="89.082" y="20.918" width="3.683" height="3.683"/><rect id="connector1pin" class="cls-17" x="89.809" y="21.645" width="2.229" height="2.229"/><rect id="lower_connector_top_inset-2" data-name="lower connector top inset" class="cls-18" x="91.497" y="21.645" width="0.541" height="2.229"/><rect id="lower_connector_bottom_inset-2" data-name="lower connector bottom inset" class="cls-19" x="89.809" y="21.645" width="0.541" height="2.229"/><path id="lower_connector_left_inset-2" data-name="lower connector left inset" class="cls-20" d="M92.038,21.645H89.809l.541.541H91.5Z"/><path id="lower_connector_right_inset-2" data-name="lower connector right inset" class="cls-20" d="M92.038,23.873H89.809l.541-.54H91.5Z"/><rect id="lower_connector_bgnd-3" data-name="lower connector bgnd" class="cls-16" x="89.082" y="27.898" width="3.683" height="3.683"/><rect id="connector2pin" class="cls-17" x="89.809" y="28.625" width="2.229" height="2.229"/><rect id="lower_connector_top_inset-3" data-name="lower connector top inset" class="cls-18" x="91.497" y="28.625" width="0.541" height="2.229"/><rect id="lower_connector_bottom_inset-3" data-name="lower connector bottom inset" class="cls-19" x="89.809" y="28.625" width="0.541" height="2.229"/><path id="lower_connector_left_inset-3" data-name="lower connector left inset" class="cls-20" d="M92.038,28.625H89.809l.541.541H91.5Z"/><path id="lower_connector_right_inset-3" data-name="lower connector right inset" class="cls-20" d="M92.038,30.854H89.809l.541-.541H91.5Z"/><rect id="lower_connector_bgnd-4" data-name="lower connector bgnd" class="cls-16" x="89.082" y="34.878" width="3.683" height="3.683"/><rect id="connector3pin" class="cls-17" x="89.809" y="35.605" width="2.229" height="2.229"/><rect id="lower_connector_top_inset-4" data-name="lower connector top inset" class="cls-18" x="91.497" y="35.605" width="0.541" height="2.229"/><rect id="lower_connector_bottom_inset-4" data-name="lower connector bottom inset" class="cls-19" x="89.809" y="35.605" width="0.541" height="2.229"/><path id="lower_connector_left_inset-4" data-name="lower connector left inset" class="cls-20" d="M92.038,35.6H89.809l.541.541H91.5Z"/><path id="lower_connector_right_inset-4" data-name="lower connector right inset" class="cls-20" d="M92.038,37.834H89.809l.541-.541H91.5Z"/><rect id="lower_connector_bgnd-5" data-name="lower connector bgnd" class="cls-16" x="89.082" y="41.858" width="3.683" height="3.683"/><rect id="connector4pin" class="cls-17" x="89.809" y="42.585" width="2.229" height="2.229"/><rect id="lower_connector_top_inset-5" data-name="lower connector top inset" class="cls-18" x="91.497" y="42.585" width="0.541" height="2.229"/><rect id="lower_connector_bottom_inset-5" data-name="lower connector bottom inset" class="cls-19" x="89.809" y="42.585" width="0.541" height="2.229"/><path id="lower_connector_left_inset-5" data-name="lower connector left inset" class="cls-20" d="M92.038,42.585H89.809l.541.541H91.5Z"/><path id="lower_connector_right_inset-5" data-name="lower connector right inset" class="cls-20" d="M92.038,44.814H89.809l.541-.541H91.5Z"/></g><rect class="cls-21" x="56.548" y="52.479" width="3.44" height="4.26"/><rect class="cls-21" x="49.418" y="52.439" width="3.44" height="4.26"/><path class="cls-22" d="M52.028,54.569a.692.692,0,0,0-.43-.69,11.562,11.562,0,0,1-.06-1.43h1.48v4.26h-1.48a11.562,11.562,0,0,1,.06-1.43.719.719,0,0,0,.43-.71"/><path class="cls-22" d="M57.318,54.569a.692.692,0,0,1,.43-.69,11.562,11.562,0,0,0,.06-1.43h-1.48v4.26h1.48a11.562,11.562,0,0,0-.06-1.43.719.719,0,0,1-.43-.71"/><rect class="cls-23" x="53.016" y="52.448" width="3.32" height="4.26"/><rect class="cls-24" x="53.016" y="52.448" width="3.32" height="4.26"/><rect class="cls-21" x="56.548" y="37.504" width="3.44" height="4.26"/><rect class="cls-21" x="49.418" y="37.464" width="3.44" height="4.26"/><path class="cls-22" d="M52.028,39.594a.692.692,0,0,0-.43-.69,11.562,11.562,0,0,1-.06-1.43h1.48v4.26h-1.48a11.562,11.562,0,0,1,.06-1.43.719.719,0,0,0,.43-.71"/><path class="cls-22" d="M57.318,39.594a.692.692,0,0,1,.43-.69,11.562,11.562,0,0,0,.06-1.43h-1.48v4.26h1.48a11.562,11.562,0,0,0-.06-1.43.719.719,0,0,1-.43-.71"/><rect class="cls-23" x="53.016" y="37.473" width="3.32" height="4.26"/><rect class="cls-24" x="53.016" y="37.473" width="3.32" height="4.26"/><rect class="cls-21" x="56.548" y="22.539" width="3.44" height="4.26"/><rect class="cls-21" x="49.418" y="22.499" width="3.44" height="4.26"/><path class="cls-22" d="M52.028,24.629a.692.692,0,0,0-.43-.69,11.562,11.562,0,0,1-.06-1.43h1.48v4.26h-1.48a11.562,11.562,0,0,1,.06-1.43.719.719,0,0,0,.43-.71"/><path class="cls-22" d="M57.318,24.629a.692.692,0,0,1,.43-.69,11.562,11.562,0,0,0,.06-1.43h-1.48v4.26h1.48a11.562,11.562,0,0,0-.06-1.43.719.719,0,0,1-.43-.71"/><rect class="cls-23" x="53.016" y="22.508" width="3.32" height="4.26"/><rect class="cls-24" x="53.016" y="22.508" width="3.32" height="4.26"/><rect class="cls-21" x="56.548" y="8.179" width="3.44" height="4.26"/><rect class="cls-21" x="49.418" y="8.139" width="3.44" height="4.26"/><path class="cls-22" d="M52.028,10.269a.692.692,0,0,0-.43-.69,11.562,11.562,0,0,1-.06-1.43h1.48v4.26h-1.48a11.562,11.562,0,0,1,.06-1.43.719.719,0,0,0,.43-.71"/><path class="cls-22" d="M57.318,10.269a.692.692,0,0,1,.43-.69,11.562,11.562,0,0,0,.06-1.43h-1.48v4.26h1.48a11.562,11.562,0,0,0-.06-1.43.719.719,0,0,1-.43-.71"/><rect class="cls-23" x="53.016" y="8.149" width="3.32" height="4.26"/><rect class="cls-24" x="53.016" y="8.149" width="3.32" height="4.26"/></svg>