<?xml version="1.0" encoding="utf-8"?>
<!-- Generator: Adobe Illustrator 25.2.1, SVG Export Plug-In . SVG Version: 6.00 Build 0)  -->
<svg version="1.1" id="Layer_2" xmlns="http://www.w3.org/2000/svg" xmlns:xlink="http://www.w3.org/1999/xlink" x="0px" y="0px"
	 viewBox="0 0 87.18 104.89" style="enable-background:new 0 0 87.18 104.89;" xml:space="preserve">
<style type="text/css">
	.st0{fill:#131314;}
	.st1{fill:#9F9C9C;}
	.st2{fill:#D0C8BD;}
	.st3{fill:#948C84;}
	.st4{fill:none;stroke:#F5F5F6;stroke-width:0.75;stroke-miterlimit:10;}
	.st5{fill:#E5E4E1;}
	.st6{fill:none;}
	.st7{fill:#E4E4E0;}
	.st8{fill:#0B0C0B;}
	.st9{fill:#CFC7BC;}
	.st10{fill:#36312F;}
	.st11{fill:#B5B5B4;}
	.st12{fill:#666666;}
	.st13{display:none;fill:#CFD93E;stroke:#F0E935;stroke-width:0.25;stroke-miterlimit:10;}
	.st14{fill:#FFAE46;}
	.st15{fill:#EA3939;}
	.st16{opacity:0.37;fill:none;stroke:#FFFFFF;stroke-width:0.5;stroke-miterlimit:10;}
	.st17{fill:none;stroke:#FFFFFF;stroke-width:0.5;stroke-miterlimit:10;}
	.st18{fill:#997844;}
	.st19{fill:#3C3C3B;}
	.st20{fill:#706F6F;}
	.st21{fill-rule:evenodd;clip-rule:evenodd;fill:#9F9C9C;}
	.st22{fill:#9D9D9C;}
	.st23{fill:#575756;}
	.st24{fill:#DADADA;}
	.st25{fill:url(#SVGID_1_);}
	.st26{fill:url(#SVGID_2_);}
	.st27{fill:url(#SVGID_3_);}
	.st28{fill:#EDEDED;}
	.st29{fill:url(#SVGID_4_);}
	.st30{fill:url(#SVGID_5_);}
	.st31{fill:url(#SVGID_6_);}
	.st32{fill:#C6C6C6;}
	.st33{fill:#B2B2B2;}
	.st34{fill:url(#SVGID_7_);}
	.st35{fill:url(#SVGID_8_);}
</style>
<path class="st0" d="M1.04,104.89h85.04V19.85H1.04V104.89z M80.55,94.97c0,2.43-1.97,4.39-4.39,4.39c-2.43,0-4.39-1.97-4.39-4.39
	c0-2.43,1.97-4.39,4.39-4.39C78.58,90.58,80.55,92.55,80.55,94.97z M15.35,94.97c0,2.43-1.97,4.39-4.39,4.39
	c-2.43,0-4.39-1.97-4.39-4.39c0-2.43,1.97-4.39,4.39-4.39C13.39,90.58,15.35,92.55,15.35,94.97z M80.55,29.77
	c0,2.43-1.97,4.39-4.39,4.39c-2.43,0-4.39-1.97-4.39-4.39c0-2.43,1.97-4.39,4.39-4.39C78.58,25.38,80.55,27.35,80.55,29.77z
	 M15.35,29.77c0,2.43-1.97,4.39-4.39,4.39c-2.43,0-4.39-1.97-4.39-4.39c0-2.43,1.97-4.39,4.39-4.39
	C13.39,25.38,15.35,27.35,15.35,29.77z M23.57,71.48c0,0.84-0.69,1.52-1.53,1.52c-0.85,0-1.53-0.68-1.53-1.52s0.68-1.52,1.53-1.52
	C22.88,69.96,23.57,70.64,23.57,71.48z"/>
<path class="st1" d="M4.99,94.97c0,3.29,2.68,5.95,5.98,5.95c3.3,0,5.98-2.66,5.98-5.95c0-3.29-2.68-5.95-5.98-5.95
	C7.66,89.02,4.99,91.69,4.99,94.97z M15.35,94.97c0,2.43-1.97,4.39-4.39,4.39c-2.43,0-4.39-1.97-4.39-4.39
	c0-2.43,1.97-4.39,4.39-4.39C13.39,90.58,15.35,92.55,15.35,94.97z"/>
<path class="st1" d="M4.99,29.78c0,3.29,2.68,5.95,5.98,5.95c3.3,0,5.98-2.66,5.98-5.95c0-3.29-2.68-5.95-5.98-5.95
	C7.66,23.82,4.99,26.49,4.99,29.78z M15.35,29.78c0,2.43-1.97,4.39-4.39,4.39c-2.43,0-4.39-1.97-4.39-4.39
	c0-2.43,1.97-4.39,4.39-4.39C13.39,25.38,15.35,27.35,15.35,29.78z"/>
<path class="st1" d="M70.18,94.97c0,3.29,2.68,5.95,5.98,5.95c3.3,0,5.98-2.66,5.98-5.95c0-3.29-2.68-5.95-5.98-5.95
	C72.86,89.02,70.18,91.69,70.18,94.97z M80.55,94.97c0,2.43-1.97,4.39-4.39,4.39c-2.43,0-4.39-1.97-4.39-4.39
	c0-2.43,1.97-4.39,4.39-4.39C78.58,90.58,80.55,92.55,80.55,94.97z"/>
<path class="st1" d="M70.18,29.78c0,3.29,2.68,5.95,5.98,5.95c3.3,0,5.98-2.66,5.98-5.95c0-3.29-2.68-5.95-5.98-5.95
	C72.86,23.82,70.18,26.49,70.18,29.78z M80.55,29.78c0,2.43-1.97,4.39-4.39,4.39c-2.43,0-4.39-1.97-4.39-4.39
	c0-2.43,1.97-4.39,4.39-4.39C78.58,25.38,80.55,27.35,80.55,29.78z"/>
<g>
	<path class="st2" d="M31.37,94.77c0,1.23-1,2.22-2.24,2.22c-1.24,0-2.24-1-2.24-2.22c0-1.23,1-2.22,2.24-2.22
		C30.37,92.55,31.37,93.55,31.37,94.77z"/>
	<ellipse class="st3" cx="29.13" cy="94.77" rx="1.53" ry="1.52"/>
	<path class="st4" d="M32.83,98.6c-0.09,0-0.14,0-0.14,0l-0.04-15.54c0,0,0-0.03,0-0.05c0.03,0,0.06,0,0.06,0l21.69,0.05
		c0,0,0.01,0,0.03,0c0.01,2.11,0.04,15.26,0.04,15.26s0,0.17,0,0.34c-0.05,0-0.09,0-0.09,0S34.68,98.61,32.83,98.6z"/>
	<line class="st4" x1="47.17" y1="83.04" x2="47.17" y2="98.63"/>
	<line class="st4" x1="39.94" y1="83.02" x2="39.94" y2="98.62"/>
	<path class="st2" d="M38.6,94.77c0,1.23-1,2.22-2.24,2.22s-2.24-1-2.24-2.22c0-1.23,1-2.22,2.24-2.22S38.6,93.55,38.6,94.77z"/>
	<ellipse class="st3" cx="36.36" cy="94.77" rx="1.53" ry="1.52"/>
	<path class="st2" d="M45.8,94.77c0,1.23-1,2.22-2.24,2.22s-2.24-1-2.24-2.22c0-1.23,1-2.22,2.24-2.22S45.8,93.55,45.8,94.77z"/>
	<ellipse class="st3" cx="43.56" cy="94.77" rx="1.53" ry="1.52"/>
	<path class="st2" d="M52.39,93.14c1.54,2.02-0.17,4.27-2.18,3.78c-0.77-0.19-1.41-0.82-1.6-1.6C48.12,93.32,50.36,91.6,52.39,93.14
		z"/>
	<ellipse class="st3" cx="50.76" cy="94.77" rx="1.53" ry="1.52"/>
	<path class="st2" d="M59.59,93.14c1.54,2.02-0.17,4.27-2.18,3.78c-0.77-0.19-1.41-0.82-1.6-1.6C55.32,93.32,57.56,91.6,59.59,93.14
		z"/>
	<ellipse class="st3" cx="57.96" cy="94.77" rx="1.53" ry="1.52"/>
	<g>
		<path class="st5" d="M38.28,89.24c-0.15,0.16-0.38,0.31-0.68,0.45s-0.68,0.21-1.16,0.21c-0.7,0-1.26-0.24-1.7-0.73
			c-0.44-0.48-0.66-1.11-0.66-1.88v-0.08c0-0.78,0.22-1.41,0.65-1.89c0.43-0.48,1.01-0.72,1.73-0.72c0.39,0,0.72,0.06,1.02,0.18
			s0.54,0.28,0.74,0.47v0.94h-0.49l-0.17-0.71c-0.12-0.09-0.26-0.17-0.42-0.23s-0.36-0.09-0.6-0.09c-0.56,0-1,0.19-1.3,0.57
			c-0.3,0.38-0.46,0.88-0.46,1.48v0.09c0,0.62,0.15,1.12,0.44,1.5c0.29,0.38,0.7,0.57,1.22,0.57c0.28,0,0.52-0.03,0.7-0.09
			c0.18-0.06,0.33-0.12,0.44-0.2v-1.13l-0.85-0.04v-0.51h1.56V89.24z"/>
	</g>
	<g>
		<path class="st5" d="M42.75,85.23l-0.48,0.08l1.17,3.35l0.12,0.41h0.02l0.12-0.41l1.16-3.36l-0.47-0.07v-0.45h1.64v0.45
			l-0.42,0.06l-1.74,4.65h-0.6l-1.74-4.65l-0.41-0.06v-0.45h1.64V85.23z"/>
	</g>
	<path class="st4" d="M32.71,83.01l-7.58-0.06c0,3.01,0,13.74,0,15.76c0.13,0,0.21,0,0.21,0l7.75-0.1"/>
	<path class="st4" d="M54.38,98.65h7.49c0-2.43,0-15.67,0-15.67l-7.47,0.08"/>
	<g>
		<rect x="55.57" y="82.62" class="st6" width="8.39" height="9.97"/>
		<path class="st5" d="M58.41,89v0.84h1.44v0.47h-3.55v-1.19c0-0.4,0.09-0.71,0.27-0.93c0.18-0.22,0.45-0.33,0.8-0.33
			c0.22,0,0.41,0.06,0.58,0.18c0.16,0.12,0.29,0.29,0.37,0.5l1.51-0.84h0.03v0.51L58.41,89z M58.02,89.85v-0.73
			c0-0.23-0.06-0.42-0.18-0.56c-0.12-0.14-0.28-0.21-0.48-0.21c-0.22,0-0.39,0.07-0.51,0.2c-0.12,0.13-0.18,0.32-0.18,0.57v0.72
			H58.02z"/>
		<path class="st5" d="M57.65,86.04l-1.36-0.86v-0.56l1.76,1.13l1.79-1.16v0.56l-1.39,0.88l1.39,0.89v0.56l-1.79-1.16l-1.76,1.14
			v-0.55L57.65,86.04z"/>
	</g>
	<g>
		<rect x="26.65" y="82.62" class="st6" width="8.39" height="9.97"/>
		<path class="st5" d="M27.76,87.79v1.15h3.17v0.47h-3.17v1.15h-0.38v-2.77H27.76z"/>
		<path class="st5" d="M28.74,86.09l-1.36-0.86v-0.56l1.76,1.13l1.79-1.16v0.56l-1.39,0.88l1.39,0.89v0.56l-1.79-1.16l-1.76,1.13
			v-0.55L28.74,86.09z"/>
	</g>
	<g>
		<path class="st5" d="M51.08,89.93v0.7h1.19v0.39h-2.93v-0.98c0-0.33,0.08-0.59,0.23-0.77c0.15-0.18,0.37-0.27,0.66-0.27
			c0.18,0,0.34,0.05,0.48,0.15c0.14,0.1,0.24,0.24,0.3,0.42l1.25-0.69h0.02v0.42L51.08,89.93z M50.76,90.63v-0.6
			c0-0.19-0.05-0.35-0.15-0.46c-0.1-0.11-0.23-0.17-0.4-0.17c-0.18,0-0.32,0.05-0.42,0.16c-0.1,0.11-0.15,0.27-0.15,0.47v0.6H50.76z
			"/>
		<path class="st5" d="M49.65,86.41v0.95h2.62v0.39h-2.62v0.95h-0.32v-2.29H49.65z"/>
		<path class="st5" d="M50.96,85.1c-0.1,0.33-0.21,0.58-0.35,0.73c-0.14,0.15-0.31,0.23-0.51,0.23c-0.23,0-0.42-0.09-0.57-0.28
			c-0.15-0.19-0.23-0.43-0.23-0.73c0-0.2,0.04-0.38,0.12-0.54s0.19-0.28,0.32-0.37c0.14-0.09,0.29-0.13,0.45-0.13v0.39
			c-0.18,0-0.32,0.06-0.42,0.17c-0.1,0.11-0.15,0.27-0.15,0.48c0,0.19,0.04,0.34,0.13,0.45c0.08,0.11,0.2,0.16,0.35,0.16
			c0.12,0,0.22-0.05,0.3-0.15c0.08-0.1,0.16-0.28,0.23-0.52s0.14-0.44,0.23-0.58c0.08-0.14,0.18-0.24,0.29-0.31
			c0.11-0.07,0.24-0.1,0.39-0.1c0.24,0,0.43,0.09,0.57,0.28c0.14,0.19,0.21,0.44,0.21,0.75c0,0.2-0.04,0.39-0.12,0.57
			c-0.08,0.18-0.18,0.31-0.32,0.41c-0.13,0.1-0.29,0.14-0.46,0.14v-0.39c0.18,0,0.32-0.07,0.42-0.2c0.1-0.13,0.15-0.31,0.15-0.53
			c0-0.21-0.04-0.36-0.12-0.47c-0.08-0.11-0.2-0.17-0.34-0.17c-0.14,0-0.25,0.05-0.33,0.15C51.11,84.65,51.03,84.83,50.96,85.1z"/>
	</g>
	<rect x="55.4" y="75.08" class="st7" width="15.04" height="5.48"/>
	<g>
		<path class="st8" d="M57.25,76.13v0.31l-0.4,0.07v2.03c0,0.27,0.08,0.47,0.23,0.61c0.15,0.14,0.36,0.21,0.61,0.21
			c0.27,0,0.48-0.07,0.64-0.21c0.16-0.14,0.24-0.34,0.24-0.61v-2.03l-0.4-0.07v-0.31h0.89h0.4v0.31l-0.4,0.07v2.03
			c0,0.38-0.13,0.68-0.38,0.89c-0.25,0.21-0.58,0.31-0.99,0.31c-0.4,0-0.71-0.1-0.96-0.31c-0.24-0.21-0.37-0.5-0.37-0.89v-2.03
			l-0.4-0.07v-0.31h0.4H57.25z"/>
		<path class="st8" d="M59.74,79.37l0.27-0.04l1.25-3.21h0.42l1.23,3.21l0.26,0.04v0.31h-1.03v-0.31l0.27-0.05l-0.24-0.65h-1.43
			l-0.24,0.65l0.27,0.05v0.31h-1.03V79.37z M60.89,78.27h1.14l-0.56-1.52h-0.01L60.89,78.27z"/>
		<path class="st8" d="M65.04,76.13c0.39,0,0.69,0.09,0.9,0.26c0.21,0.17,0.31,0.42,0.31,0.73c0,0.17-0.05,0.33-0.14,0.46
			c-0.1,0.13-0.24,0.24-0.42,0.31c0.2,0.06,0.34,0.17,0.42,0.31c0.09,0.14,0.13,0.32,0.13,0.53v0.29c0,0.11,0.01,0.19,0.04,0.24
			s0.07,0.08,0.14,0.09l0.12,0.01v0.31h-0.26c-0.19,0-0.32-0.07-0.4-0.2c-0.08-0.13-0.12-0.29-0.12-0.47v-0.28
			c0-0.19-0.06-0.35-0.17-0.47s-0.26-0.18-0.46-0.18h-0.78v1.21l0.4,0.07v0.31h-1.29v-0.31l0.4-0.07v-2.8l-0.4-0.07v-0.31h0.4H65.04
			z M64.36,77.72H65c0.27,0,0.47-0.05,0.59-0.15c0.12-0.1,0.18-0.25,0.18-0.45c0-0.19-0.06-0.33-0.18-0.44
			c-0.12-0.11-0.3-0.16-0.55-0.16h-0.69V77.72z"/>
		<path class="st8" d="M69.78,76.13v0.79h-0.41l-0.04-0.41h-0.79v2.8l0.4,0.07v0.31h-1.29v-0.31l0.4-0.07v-2.8h-0.8l-0.03,0.41H66.8
			v-0.79H69.78z"/>
	</g>
</g>
<g>
	<path class="st7" d="M7.73,77.77c0-0.57,0.13-1.02,0.39-1.34c0.26-0.32,0.62-0.49,1.07-0.49c0.25,0,0.47,0.07,0.65,0.2
		s0.33,0.33,0.45,0.6c0.09-0.3,0.23-0.51,0.43-0.64c0.2-0.13,0.45-0.19,0.75-0.19h0.25c0.11,0,0.19-0.02,0.25-0.07
		c0.06-0.04,0.1-0.12,0.11-0.22l0.02-0.12h0.6v0.52c0,0.33-0.09,0.56-0.26,0.69c-0.18,0.13-0.4,0.2-0.68,0.2h-0.28
		c-0.24,0-0.43,0.07-0.57,0.2c-0.14,0.13-0.21,0.31-0.22,0.55v0.82h1.31l0.1-0.54h0.6v2.08h-0.6l-0.1-0.53H8.44l-0.1,0.53h-0.6
		v-0.53V77.77z M9.93,78.49v-0.7c0-0.28-0.06-0.49-0.18-0.63c-0.12-0.14-0.29-0.21-0.51-0.21s-0.4,0.07-0.54,0.21
		c-0.13,0.14-0.2,0.34-0.2,0.62v0.71H9.93z"/>
	<path class="st7" d="M9.32,71.57v0.76l-0.68,0.13c-0.05,0.09-0.1,0.21-0.14,0.38s-0.06,0.35-0.06,0.53c0,0.28,0.06,0.49,0.17,0.64
		c0.12,0.15,0.26,0.23,0.45,0.23c0.17,0,0.31-0.08,0.42-0.24c0.11-0.16,0.22-0.43,0.34-0.82c0.15-0.55,0.35-0.97,0.6-1.26
		S11,71.5,11.41,71.5c0.43,0,0.76,0.17,1.01,0.51c0.25,0.34,0.37,0.79,0.37,1.34c0,0.4-0.06,0.76-0.19,1.08
		c-0.13,0.32-0.3,0.59-0.52,0.8h-1.04v-0.78l0.71-0.11c0.08-0.1,0.15-0.24,0.2-0.41c0.05-0.17,0.08-0.37,0.08-0.58
		c0-0.28-0.06-0.49-0.17-0.63c-0.11-0.14-0.26-0.22-0.45-0.22c-0.19,0-0.35,0.07-0.46,0.21s-0.23,0.38-0.33,0.72
		c-0.17,0.59-0.37,1.05-0.61,1.35c-0.23,0.31-0.56,0.46-0.96,0.46c-0.4,0-0.73-0.17-0.99-0.52c-0.26-0.34-0.39-0.78-0.39-1.3
		c0-0.39,0.06-0.74,0.17-1.05c0.12-0.32,0.27-0.58,0.46-0.8H9.32z"/>
	<path class="st7" d="M12.71,71.26h-0.65l-1.73-1.62c-0.27-0.23-0.49-0.4-0.67-0.5c-0.18-0.1-0.35-0.15-0.51-0.15
		c-0.21,0-0.38,0.06-0.51,0.17c-0.13,0.11-0.2,0.28-0.2,0.48c0,0.23,0.08,0.41,0.23,0.53c0.16,0.12,0.36,0.18,0.62,0.18v0.98
		l-0.02,0.01c-0.45,0.01-0.83-0.14-1.14-0.45c-0.31-0.31-0.47-0.73-0.47-1.25c0-0.52,0.13-0.92,0.4-1.22s0.62-0.45,1.07-0.45
		c0.3,0,0.58,0.08,0.83,0.25c0.26,0.17,0.59,0.44,1,0.83l0.97,0.89l0.02-0.01v-1.3l-0.49-0.04v-0.77h1.26V71.26z"/>
	<path class="st7" d="M9.8,66.5v-0.56c0-0.24-0.06-0.42-0.19-0.53c-0.12-0.12-0.3-0.17-0.52-0.17c-0.2,0-0.36,0.06-0.48,0.17
		s-0.18,0.28-0.18,0.5c0,0.19,0.05,0.35,0.16,0.48s0.25,0.19,0.43,0.19v0.98l-0.02,0.01c-0.39,0.01-0.71-0.14-0.96-0.45
		c-0.25-0.31-0.38-0.71-0.38-1.17c0-0.52,0.12-0.93,0.37-1.24c0.25-0.31,0.6-0.46,1.05-0.46c0.22,0,0.42,0.07,0.62,0.21
		c0.2,0.14,0.35,0.33,0.46,0.57c0.1-0.28,0.25-0.49,0.45-0.64c0.2-0.15,0.44-0.22,0.71-0.22c0.46,0,0.81,0.17,1.08,0.5
		c0.26,0.33,0.39,0.76,0.39,1.28c0,0.47-0.12,0.87-0.37,1.2c-0.24,0.33-0.59,0.5-1.04,0.48l-0.02-0.01v-0.98
		c0.19,0,0.35-0.07,0.47-0.21c0.12-0.14,0.19-0.31,0.19-0.52c0-0.23-0.06-0.42-0.19-0.55c-0.13-0.13-0.3-0.2-0.52-0.2
		c-0.26,0-0.45,0.07-0.58,0.2c-0.12,0.13-0.18,0.33-0.18,0.58v0.56H9.8z"/>
	<path class="st7" d="M12.71,63.95h-0.65l-1.73-1.62c-0.27-0.23-0.49-0.4-0.67-0.5c-0.18-0.1-0.35-0.15-0.51-0.15
		c-0.21,0-0.38,0.06-0.51,0.17c-0.13,0.11-0.2,0.28-0.2,0.48c0,0.23,0.08,0.41,0.23,0.53c0.16,0.12,0.36,0.18,0.62,0.18v0.98
		l-0.02,0.01c-0.45,0.01-0.83-0.14-1.14-0.45c-0.31-0.31-0.47-0.73-0.47-1.25c0-0.52,0.13-0.92,0.4-1.22s0.62-0.45,1.07-0.45
		c0.3,0,0.58,0.08,0.83,0.25c0.26,0.17,0.59,0.44,1,0.83l0.97,0.89l0.02-0.01v-1.3l-0.49-0.04v-0.77h1.26V63.95z"/>
</g>
<g>
	<g id="XMLID_48_">
		<g>
			<rect x="19.94" y="91.8" class="st9" width="4.26" height="1.47"/>
		</g>
		<g>
		</g>
	</g>
	<g id="XMLID_47_">
		<g>
			<rect x="19.98" y="96.96" class="st9" width="4.26" height="1.46"/>
		</g>
		<g>
		</g>
	</g>
	<g id="XMLID_46_">
		<g>
			<rect x="20.28" y="92.56" class="st10" width="3.61" height="5.16"/>
		</g>
		<g>
		</g>
	</g>
	<g>
		<path class="st11" d="M21.54,94.09v-0.7h0.13v0.27h0.86V93.4h0.12c0,0.04,0,0.08,0.01,0.12s0.01,0.07,0.03,0.09
			c0.01,0.03,0.03,0.05,0.05,0.06c0.02,0.02,0.05,0.03,0.09,0.03v0.13h-1.16v0.26H21.54z"/>
		<path class="st11" d="M22.19,95.11c-0.23,0-0.4-0.04-0.51-0.11s-0.16-0.19-0.16-0.34c0-0.15,0.05-0.27,0.16-0.34
			c0.11-0.07,0.28-0.11,0.5-0.11c0.23,0,0.4,0.04,0.51,0.11c0.11,0.07,0.16,0.18,0.16,0.34c0,0.15-0.06,0.27-0.17,0.34
			S22.41,95.11,22.19,95.11z M21.79,94.89c0.05,0.02,0.1,0.03,0.16,0.04c0.06,0.01,0.14,0.01,0.23,0.01c0.09,0,0.16,0,0.23-0.01
			c0.06-0.01,0.12-0.02,0.16-0.04c0.04-0.02,0.08-0.05,0.1-0.08s0.03-0.08,0.03-0.13c0-0.05-0.01-0.1-0.03-0.13
			c-0.02-0.04-0.06-0.06-0.1-0.08c-0.04-0.02-0.1-0.03-0.17-0.04c-0.07-0.01-0.14-0.01-0.23-0.01c-0.09,0-0.17,0-0.23,0.01
			s-0.11,0.02-0.16,0.04c-0.04,0.02-0.08,0.05-0.1,0.08c-0.02,0.04-0.04,0.08-0.04,0.14c0,0.05,0.01,0.1,0.03,0.13
			C21.71,94.84,21.75,94.87,21.79,94.89z"/>
		<path class="st11" d="M22.19,96.06c-0.23,0-0.4-0.04-0.51-0.11s-0.16-0.18-0.16-0.34c0-0.15,0.05-0.27,0.16-0.34
			c0.11-0.07,0.28-0.11,0.5-0.11c0.23,0,0.4,0.04,0.51,0.11c0.11,0.07,0.16,0.18,0.16,0.34c0,0.15-0.06,0.27-0.17,0.34
			C22.58,96.03,22.41,96.06,22.19,96.06z M21.79,95.83c0.05,0.02,0.1,0.03,0.16,0.04c0.06,0.01,0.14,0.01,0.23,0.01
			c0.09,0,0.16,0,0.23-0.01s0.12-0.02,0.16-0.04c0.04-0.02,0.08-0.05,0.1-0.08s0.03-0.08,0.03-0.13s-0.01-0.1-0.03-0.13
			s-0.06-0.06-0.1-0.08c-0.04-0.02-0.1-0.03-0.17-0.04c-0.07-0.01-0.14-0.01-0.23-0.01c-0.09,0-0.17,0-0.23,0.01
			c-0.06,0.01-0.11,0.02-0.16,0.04c-0.04,0.02-0.08,0.04-0.1,0.08c-0.02,0.04-0.04,0.08-0.04,0.14c0,0.05,0.01,0.1,0.03,0.13
			S21.75,95.81,21.79,95.83z"/>
		<path class="st11" d="M21.54,96.94v-0.7h0.13v0.27h0.86v-0.27h0.12c0,0.04,0,0.08,0.01,0.12c0.01,0.04,0.01,0.07,0.03,0.09
			c0.01,0.03,0.03,0.05,0.05,0.06c0.02,0.02,0.05,0.02,0.09,0.03v0.13h-1.16v0.26H21.54z"/>
	</g>
</g>
<g>
	<g id="XMLID_140_">
		<g>
			<rect x="63.02" y="91.8" class="st9" width="4.26" height="1.47"/>
		</g>
		<g>
		</g>
	</g>
	<g id="XMLID_139_">
		<g>
			<rect x="63.06" y="96.96" class="st9" width="4.26" height="1.46"/>
		</g>
		<g>
		</g>
	</g>
	<g id="XMLID_138_">
		<g>
			<rect x="63.36" y="92.56" class="st10" width="3.61" height="5.16"/>
		</g>
		<g>
		</g>
	</g>
	<g>
		<path class="st11" d="M64.62,94.09v-0.7h0.13v0.27h0.86V93.4h0.12c0,0.04,0,0.08,0.01,0.12s0.01,0.07,0.03,0.09
			c0.01,0.03,0.03,0.05,0.05,0.06c0.02,0.02,0.05,0.03,0.09,0.03v0.13h-1.16v0.26H64.62z"/>
		<path class="st11" d="M65.26,95.11c-0.23,0-0.4-0.04-0.51-0.11s-0.16-0.19-0.16-0.34c0-0.15,0.05-0.27,0.16-0.34
			s0.28-0.11,0.5-0.11c0.23,0,0.4,0.04,0.51,0.11c0.11,0.07,0.16,0.18,0.16,0.34c0,0.15-0.06,0.27-0.17,0.34
			C65.66,95.08,65.49,95.11,65.26,95.11z M64.87,94.89c0.05,0.02,0.1,0.03,0.17,0.04c0.06,0.01,0.14,0.01,0.23,0.01
			c0.09,0,0.16,0,0.23-0.01c0.06-0.01,0.12-0.02,0.16-0.04c0.04-0.02,0.08-0.05,0.1-0.08c0.02-0.04,0.03-0.08,0.03-0.13
			c0-0.05-0.01-0.1-0.03-0.13c-0.02-0.04-0.06-0.06-0.1-0.08c-0.04-0.02-0.1-0.03-0.17-0.04c-0.07-0.01-0.14-0.01-0.23-0.01
			c-0.09,0-0.17,0-0.23,0.01s-0.12,0.02-0.16,0.04c-0.04,0.02-0.08,0.05-0.1,0.08c-0.02,0.04-0.04,0.08-0.04,0.14
			c0,0.05,0.01,0.1,0.03,0.13C64.79,94.84,64.83,94.87,64.87,94.89z"/>
		<path class="st11" d="M65.26,96.06c-0.23,0-0.4-0.04-0.51-0.11s-0.16-0.18-0.16-0.34c0-0.15,0.05-0.27,0.16-0.34
			c0.11-0.07,0.28-0.11,0.5-0.11c0.23,0,0.4,0.04,0.51,0.11c0.11,0.07,0.16,0.18,0.16,0.34c0,0.15-0.06,0.27-0.17,0.34
			C65.66,96.03,65.49,96.06,65.26,96.06z M64.87,95.83c0.05,0.02,0.1,0.03,0.17,0.04c0.06,0.01,0.14,0.01,0.23,0.01
			c0.09,0,0.16,0,0.23-0.01s0.12-0.02,0.16-0.04c0.04-0.02,0.08-0.05,0.1-0.08c0.02-0.04,0.03-0.08,0.03-0.13s-0.01-0.1-0.03-0.13
			c-0.02-0.04-0.06-0.06-0.1-0.08c-0.04-0.02-0.1-0.03-0.17-0.04s-0.14-0.01-0.23-0.01c-0.09,0-0.17,0-0.23,0.01
			c-0.06,0.01-0.12,0.02-0.16,0.04c-0.04,0.02-0.08,0.04-0.1,0.08s-0.04,0.08-0.04,0.14c0,0.05,0.01,0.1,0.03,0.13
			C64.79,95.79,64.83,95.81,64.87,95.83z"/>
		<path class="st11" d="M64.62,96.94v-0.7h0.13v0.27h0.86v-0.27h0.12c0,0.04,0,0.08,0.01,0.12c0.01,0.04,0.01,0.07,0.03,0.09
			c0.01,0.03,0.03,0.05,0.05,0.06c0.02,0.02,0.05,0.02,0.09,0.03v0.13h-1.16v0.26H64.62z"/>
	</g>
</g>
<g>
	<g id="XMLID_4_">
		<g>
			<rect x="48.04" y="61.13" class="st1" width="1.48" height="4.99"/>
		</g>
		<g>
		</g>
	</g>
	<g id="XMLID_5_">
		<g>
			<rect x="44.46" y="61.13" class="st1" width="1.48" height="4.99"/>
		</g>
		<g>
		</g>
	</g>
	<g id="XMLID_6_">
		<g>
			<rect x="40.87" y="61.13" class="st1" width="1.48" height="4.99"/>
		</g>
		<g>
		</g>
	</g>
	<g id="XMLID_49_">
		<g>
			<rect x="37.29" y="61.13" class="st1" width="1.48" height="4.99"/>
		</g>
		<g>
		</g>
	</g>
	<g id="XMLID_10_">
		<g>
			<rect x="33.7" y="61.13" class="st1" width="1.48" height="4.99"/>
		</g>
		<g>
		</g>
	</g>
	<g id="XMLID_51_">
		<g>
			<rect x="30.11" y="61.13" class="st1" width="1.48" height="4.99"/>
		</g>
		<g>
		</g>
	</g>
	<g id="XMLID_50_">
		<g>
			<rect x="26.53" y="61.13" class="st1" width="1.48" height="4.99"/>
		</g>
		<g>
		</g>
	</g>
	<g id="XMLID_54_">
		<g>
			<rect x="48.04" y="76.7" class="st1" width="1.48" height="4.99"/>
		</g>
		<g>
		</g>
	</g>
	<g id="XMLID_60_">
		<g>
			<rect x="51.68" y="61.13" class="st1" width="1.48" height="4.99"/>
		</g>
		<g>
		</g>
	</g>
	<g id="XMLID_59_">
		<g>
			<rect x="51.68" y="76.7" class="st1" width="1.48" height="4.99"/>
		</g>
		<g>
		</g>
	</g>
	<g id="XMLID_53_">
		<g>
			<rect x="44.46" y="76.7" class="st1" width="1.48" height="4.99"/>
		</g>
		<g>
		</g>
	</g>
	<g id="XMLID_52_">
		<g>
			<rect x="40.87" y="76.7" class="st1" width="1.48" height="4.99"/>
		</g>
		<g>
		</g>
	</g>
	<g id="XMLID_22_">
		<g>
			<rect x="37.29" y="76.7" class="st1" width="1.48" height="4.99"/>
		</g>
		<g>
		</g>
	</g>
	<g id="XMLID_21_">
		<g>
			<rect x="33.7" y="76.7" class="st1" width="1.48" height="4.99"/>
		</g>
		<g>
		</g>
	</g>
	<g id="XMLID_20_">
		<g>
			<rect x="30.11" y="76.7" class="st1" width="1.48" height="4.99"/>
		</g>
		<g>
		</g>
	</g>
	<g id="XMLID_19_">
		<g>
			<rect x="26.53" y="76.7" class="st1" width="1.48" height="4.99"/>
		</g>
		<g>
		</g>
	</g>
	<g id="XMLID_7_">
		<g>
			<path class="st10" d="M53.94,66.37v10.07c0,0.14-0.12,0.25-0.28,0.25L25.5,76.7c-0.16,0-0.28-0.11-0.28-0.25V66.37
				c0-0.14,0.12-0.25,0.28-0.25h28.15C53.81,66.12,53.94,66.23,53.94,66.37z"/>
		</g>
		<g>
		</g>
	</g>
	<g>
		<path class="st12" d="M51.06,68.66c0,0.62,0.48,1.12,1.08,1.12v-2.25C51.54,67.53,51.06,68.04,51.06,68.66z"/>
		<path class="st12" d="M53.22,68.66c0-0.62-0.48-1.12-1.08-1.12v2.25C52.74,69.78,53.22,69.28,53.22,68.66z"/>
	</g>
</g>
<g>
	<g>
		<g id="XMLID_13_">
			<g>
				<rect x="19.91" y="82.32" class="st9" width="4.26" height="1.77"/>
			</g>
			<g>
			</g>
		</g>
		<g id="XMLID_12_">
			<g>
				<rect x="19.87" y="87.78" class="st9" width="4.26" height="1.91"/>
			</g>
			<g>
			</g>
		</g>
		<circle class="st13" cx="21.92" cy="86" r="0.55"/>
	</g>
	<path class="st14" d="M22,88.62c-0.29,0-0.6,0.14-0.69,0.43c-0.02,0.06-1.43,0.06-1.43,0.06s0-0.74,0-1.48h4.26
		c0,0.74,0,1.48,0,1.48s-1.41,0-1.43-0.06C22.6,88.76,22.29,88.61,22,88.62"/>
	<path class="st14" d="M22,83.33c-0.29,0-0.6-0.14-0.69-0.43c-0.02-0.06-1.43-0.06-1.43-0.06s0,0.74,0,1.48h4.26
		c0-0.74,0-1.48,0-1.48s-1.41,0-1.43,0.06C22.6,83.18,22.29,83.33,22,83.33"/>
	
		<rect x="20.34" y="83.84" transform="matrix(-1.250883e-10 -1 1 -1.250883e-10 -63.9716 107.9689)" class="st15" width="3.32" height="4.26"/>
	
		<rect x="20.34" y="83.84" transform="matrix(-1.250883e-10 -1 1 -1.250883e-10 -63.9716 107.9689)" class="st16" width="3.32" height="4.26"/>
	<line class="st17" x1="24.17" y1="81.02" x2="19.91" y2="81.02"/>
</g>
<g>
	<g>
		<g id="XMLID_122_">
			<g>
				<rect x="63.1" y="82.32" class="st9" width="4.26" height="1.77"/>
			</g>
			<g>
			</g>
		</g>
		<g id="XMLID_121_">
			<g>
				<rect x="63.06" y="87.78" class="st9" width="4.26" height="1.91"/>
			</g>
			<g>
			</g>
		</g>
		<circle class="st13" cx="65.11" cy="86" r="0.55"/>
	</g>
	<path class="st14" d="M65.19,88.62c-0.29,0-0.6,0.14-0.69,0.43c-0.02,0.06-1.43,0.06-1.43,0.06s0-0.74,0-1.48h4.26
		c0,0.74,0,1.48,0,1.48s-1.41,0-1.43-0.06C65.79,88.76,65.48,88.61,65.19,88.62"/>
	<path class="st14" d="M65.19,83.33c-0.29,0-0.6-0.14-0.69-0.43c-0.02-0.06-1.43-0.06-1.43-0.06s0,0.74,0,1.48h4.26
		c0-0.74,0-1.48,0-1.48s-1.41,0-1.43,0.06C65.79,83.18,65.48,83.33,65.19,83.33"/>
	
		<rect x="63.53" y="83.84" transform="matrix(-1.250883e-10 -1 1 -1.250883e-10 -20.7792 151.1614)" class="st15" width="3.32" height="4.26"/>
	
		<rect x="63.53" y="83.84" transform="matrix(-1.250883e-10 -1 1 -1.250883e-10 -20.7792 151.1614)" class="st16" width="3.32" height="4.26"/>
	<line class="st17" x1="67.36" y1="81.02" x2="63.1" y2="81.02"/>
</g>
<g id="ГРУППА_5_">
	<g>
		<polygon class="st9" points="41.86,58.79 41.86,58.48 42.57,58.48 42.57,54.87 41.86,54.87 41.86,54.54 43.18,54.54 43.18,58.79 
					"/>
		<rect x="41.86" y="54.87" class="st18" width="0.7" height="3.61"/>
		<rect x="37.41" y="54.87" class="st18" width="0.77" height="3.61"/>
		<rect x="38.17" y="54.87" class="st18" width="3.69" height="3.61"/>
		<polygon class="st9" points="38.17,58.83 36.75,58.83 36.75,54.58 38.17,54.58 38.17,54.87 37.41,54.87 37.41,58.48 38.17,58.48 
					"/>
	</g>
	<g>
	</g>
</g>
<g id="ГРУППА_16_">
	<g>
		<polygon class="st9" points="50.97,54.54 52.28,54.54 52.28,58.79 50.97,58.79 50.97,58.48 51.67,58.48 51.67,54.87 50.97,54.87 
					"/>
		<polygon class="st9" points="45.86,54.58 47.28,54.58 47.28,54.87 46.51,54.87 46.51,58.48 47.28,58.48 47.28,58.83 45.86,58.83 
					"/>
		<rect x="50.97" y="54.87" class="st18" width="0.7" height="3.61"/>
		<rect x="47.28" y="54.87" class="st18" width="3.69" height="3.61"/>
		<rect x="46.51" y="54.87" class="st18" width="0.77" height="3.61"/>
	</g>
	<g>
	</g>
</g>
<g id="ГРУППА_26_">
	<g>
		<polygon class="st9" points="61.05,73.31 61.05,74.62 56.8,74.62 56.8,73.31 57.11,73.31 57.11,74.01 60.71,74.01 60.71,73.31 		
			"/>
		<polygon class="st9" points="61.01,68.19 61.01,69.61 60.71,69.61 60.71,68.85 57.11,68.85 57.11,69.61 56.76,69.61 56.76,68.19 
					"/>
		<rect x="57.11" y="73.31" class="st18" width="3.61" height="0.7"/>
		<rect x="57.11" y="69.61" class="st18" width="3.61" height="3.69"/>
		<rect x="57.11" y="68.85" class="st18" width="3.61" height="0.77"/>
	</g>
	<g>
	</g>
</g>
<g id="ГРУППА_38_">
	<g>
		<polygon class="st9" points="67.34,73.31 67.34,74.62 63.08,74.62 63.08,73.31 63.39,73.31 63.39,74.01 67,74.01 67,73.31 		"/>
		<polygon class="st9" points="67.3,68.19 67.3,69.61 67,69.61 67,68.85 63.39,68.85 63.39,69.61 63.04,69.61 63.04,68.19 		"/>
		<rect x="63.39" y="73.31" class="st18" width="3.61" height="0.7"/>
		<rect x="63.39" y="69.61" class="st18" width="3.61" height="3.69"/>
		<rect x="63.39" y="68.85" class="st18" width="3.61" height="0.77"/>
	</g>
	<g>
	</g>
</g>
<g id="ГРУППА_25_">
	<g>
		<polygon class="st9" points="32.89,54.54 34.2,54.54 34.2,58.79 32.89,58.79 32.89,58.48 33.59,58.48 33.59,54.87 32.89,54.87 		
			"/>
		<polygon class="st9" points="27.78,54.58 29.2,54.58 29.2,54.87 28.43,54.87 28.43,58.48 29.2,58.48 29.2,58.83 27.78,58.83 		"/>
		<rect x="32.89" y="54.87" class="st18" width="0.7" height="3.61"/>
		<rect x="29.2" y="54.87" class="st18" width="3.69" height="3.61"/>
		<rect x="28.43" y="54.87" class="st18" width="0.77" height="3.61"/>
	</g>
	<g>
	</g>
</g>
<g>
	
		<rect x="60.85" y="68.13" transform="matrix(4.485663e-11 -1 1 4.485663e-11 6.1318 147.2003)" class="st7" width="31.63" height="4.81"/>
	<g>
		<path d="M75.12,83.02h0.83v0.49l-0.35,0.03v0.58h2.21l0.06-0.34h0.38v1.31h-0.38l-0.06-0.34h-2.21v0.58l0.35,0.03v0.48h-0.83
			V83.02z"/>
		<path d="M77.88,82.75l-0.06-0.3h-1.45l-0.06,0.34h-0.38v-0.93l0.34-0.03c-0.12-0.06-0.21-0.13-0.28-0.21
			c-0.07-0.09-0.1-0.19-0.1-0.3c0-0.03,0-0.07,0.01-0.11s0.01-0.07,0.02-0.09l0.57,0.07l-0.01,0.26c0,0.09,0.02,0.17,0.05,0.23
			s0.09,0.11,0.15,0.14h1.13l0.06-0.3h0.38v1.24H77.88z"/>
		<path d="M78.3,79.8c0,0.34-0.11,0.61-0.32,0.81c-0.21,0.2-0.49,0.3-0.82,0.3h-0.09c-0.35,0-0.63-0.1-0.86-0.29
			c-0.22-0.19-0.33-0.45-0.33-0.77c0-0.32,0.09-0.56,0.29-0.74c0.19-0.18,0.45-0.26,0.77-0.26h0.34v1.4l0.01,0
			c0.15-0.01,0.28-0.06,0.38-0.16c0.1-0.09,0.15-0.22,0.15-0.38c0-0.14-0.01-0.26-0.04-0.35c-0.03-0.09-0.07-0.19-0.13-0.3
			l0.39-0.17c0.08,0.1,0.14,0.22,0.19,0.38S78.3,79.61,78.3,79.8z M76.37,79.86c0,0.12,0.04,0.21,0.13,0.28
			c0.09,0.07,0.21,0.11,0.35,0.13l0.01-0.01v-0.78h-0.06c-0.13,0-0.24,0.03-0.32,0.1C76.41,79.64,76.37,79.73,76.37,79.86z"/>
		<path d="M76.31,78.63h-0.38V77.7l0.31-0.03c-0.11-0.07-0.2-0.17-0.26-0.28c-0.06-0.11-0.09-0.25-0.09-0.39
			c0-0.15,0.03-0.28,0.1-0.39s0.17-0.19,0.3-0.24c-0.12-0.07-0.22-0.17-0.29-0.28c-0.07-0.12-0.11-0.25-0.11-0.41
			c0-0.23,0.08-0.41,0.24-0.55c0.16-0.13,0.4-0.2,0.72-0.2h0.97l0.06-0.31h0.38v1.21h-0.38l-0.06-0.27h-0.97
			c-0.18,0-0.3,0.03-0.37,0.09s-0.1,0.14-0.1,0.26c0,0.09,0.02,0.17,0.06,0.23c0.04,0.07,0.09,0.12,0.16,0.16c0.03,0,0.05,0,0.07,0
			s0.04,0,0.06,0h1.09l0.06-0.26h0.38v1.15h-0.38l-0.06-0.26h-0.97c-0.17,0-0.29,0.03-0.37,0.09c-0.07,0.06-0.11,0.14-0.11,0.26
			c0,0.08,0.02,0.16,0.05,0.22s0.08,0.12,0.14,0.16h1.26l0.06-0.27h0.38v1.21h-0.38l-0.06-0.31h-1.45L76.31,78.63z"/>
		<path d="M78.26,72.92c-0.04,0.02-0.08,0.03-0.12,0.05c-0.04,0.01-0.08,0.02-0.12,0.03c0.09,0.08,0.16,0.17,0.21,0.27
			c0.05,0.11,0.08,0.23,0.08,0.37c0,0.23-0.06,0.41-0.19,0.55c-0.12,0.13-0.29,0.2-0.51,0.2c-0.22,0-0.39-0.09-0.51-0.27
			s-0.18-0.44-0.18-0.78v-0.32H76.7c-0.11,0-0.2,0.03-0.26,0.1c-0.06,0.07-0.09,0.16-0.09,0.29c0,0.07,0.01,0.14,0.03,0.19
			s0.04,0.1,0.06,0.14l0.25,0.04v0.48l-0.52,0c-0.08-0.12-0.14-0.25-0.2-0.4c-0.05-0.15-0.08-0.31-0.08-0.49
			c0-0.29,0.07-0.53,0.21-0.71s0.34-0.27,0.6-0.27h0.96c0.04,0,0.07,0,0.1,0c0.03,0,0.06,0,0.09-0.01l0.03-0.19h0.38V72.92z
			 M77.84,73.47c0-0.1-0.02-0.18-0.06-0.26s-0.09-0.14-0.15-0.18h-0.36v0.32c0,0.13,0.03,0.24,0.09,0.31
			c0.06,0.07,0.14,0.1,0.23,0.1c0.08,0,0.14-0.03,0.19-0.08C77.82,73.63,77.84,73.56,77.84,73.47z"/>
		<path d="M75.94,67.85l0,0.01l2.32,0.85v0.43l-2.31,0.84l0,0.01l1.38-0.06h0.49l0.06-0.34h0.38v1.31h-0.38l-0.06-0.34h-2.25
			L75.5,70.9h-0.38v-0.34v-0.83l2.31-0.81v-0.01l-2.31-0.81v-1.17h0.38l0.06,0.34h2.25l0.06-0.34h0.38v1.31h-0.38l-0.06-0.34h-0.49
			L75.94,67.85z"/>
		<path d="M77.07,66.69c-0.35,0-0.63-0.1-0.85-0.29c-0.22-0.2-0.33-0.47-0.33-0.81c0-0.35,0.11-0.62,0.33-0.82
			c0.22-0.2,0.51-0.29,0.86-0.29h0.04c0.35,0,0.64,0.1,0.86,0.29c0.22,0.2,0.33,0.47,0.33,0.81c0,0.35-0.11,0.62-0.33,0.82
			c-0.22,0.2-0.51,0.29-0.86,0.29H77.07z M77.12,66.06c0.21,0,0.38-0.04,0.51-0.11c0.13-0.07,0.19-0.2,0.19-0.36
			c0-0.16-0.06-0.28-0.19-0.36c-0.13-0.08-0.3-0.11-0.51-0.11h-0.04c-0.21,0-0.38,0.04-0.51,0.12c-0.13,0.08-0.2,0.2-0.2,0.36
			c0,0.16,0.07,0.29,0.2,0.36c0.13,0.08,0.3,0.11,0.51,0.11H77.12z"/>
		<path d="M77.97,62.67c0.11,0.07,0.19,0.16,0.25,0.26c0.06,0.1,0.08,0.22,0.08,0.34c0,0.29-0.1,0.51-0.31,0.67
			c-0.21,0.16-0.49,0.24-0.83,0.24h-0.04c-0.37,0-0.66-0.08-0.89-0.24c-0.23-0.16-0.34-0.39-0.34-0.68c0-0.12,0.03-0.22,0.08-0.32
			s0.12-0.18,0.22-0.25h-0.83l-0.07,0.34H74.9v-0.34v-0.63h2.92l0.06-0.3h0.38v0.85L77.97,62.67z M77.16,63.56
			c0.2,0,0.36-0.04,0.48-0.1s0.18-0.18,0.18-0.34c0-0.09-0.02-0.17-0.06-0.24c-0.04-0.07-0.09-0.12-0.16-0.17h-0.99
			c-0.08,0.04-0.13,0.1-0.17,0.17c-0.04,0.07-0.06,0.15-0.06,0.24c0,0.15,0.07,0.27,0.21,0.34c0.14,0.07,0.31,0.11,0.53,0.11H77.16z
			"/>
		<path d="M77.96,59.92c0.11,0.08,0.19,0.17,0.25,0.28c0.06,0.11,0.09,0.24,0.09,0.38c0,0.25-0.08,0.44-0.24,0.58
			c-0.16,0.14-0.4,0.21-0.73,0.21h-0.96l-0.06,0.26h-0.38v-0.26v-0.63h1.41c0.17,0,0.29-0.03,0.37-0.09s0.11-0.14,0.11-0.25
			c0-0.1-0.02-0.19-0.05-0.26c-0.03-0.07-0.08-0.13-0.14-0.18h-1.26l-0.06,0.28h-0.38v-0.28v-0.63h1.89l0.06-0.28h0.38v0.84
			L77.96,59.92z"/>
		<path d="M75.28,58.86H74.9v-0.97h2.92l0.06-0.31h0.38v1.25h-0.38l-0.06-0.31h-2.47L75.28,58.86z"/>
		<path d="M78.3,56.25c0,0.34-0.11,0.61-0.32,0.81c-0.21,0.2-0.49,0.3-0.82,0.3h-0.09c-0.35,0-0.63-0.1-0.86-0.29
			c-0.22-0.19-0.33-0.45-0.33-0.77c0-0.32,0.09-0.56,0.29-0.74c0.19-0.17,0.45-0.26,0.77-0.26h0.34v1.4l0.01,0
			c0.15-0.01,0.28-0.06,0.38-0.16c0.1-0.09,0.15-0.22,0.15-0.37c0-0.14-0.01-0.26-0.04-0.35c-0.03-0.09-0.07-0.19-0.13-0.3
			l0.39-0.17c0.08,0.1,0.14,0.22,0.19,0.38S78.3,56.06,78.3,56.25z M76.37,56.3c0,0.12,0.04,0.21,0.13,0.28
			c0.09,0.07,0.21,0.11,0.35,0.13l0.01-0.01v-0.78h-0.06c-0.13,0-0.24,0.03-0.32,0.09C76.41,56.08,76.37,56.18,76.37,56.3z"/>
	</g>
</g>
<g>
	<path class="st7" d="M36.92,100.26c0.36,0,0.64,0.08,0.84,0.24c0.2,0.16,0.31,0.39,0.31,0.67c0,0.16-0.04,0.3-0.13,0.41
		s-0.21,0.21-0.38,0.28c0.19,0.05,0.32,0.15,0.4,0.27c0.08,0.13,0.12,0.28,0.12,0.47v0.16c0,0.07,0.01,0.12,0.04,0.16
		c0.03,0.04,0.07,0.06,0.14,0.07l0.08,0.01v0.38h-0.33c-0.21,0-0.35-0.06-0.44-0.17s-0.13-0.25-0.13-0.43v-0.18
		c0-0.15-0.04-0.27-0.12-0.36c-0.08-0.09-0.2-0.13-0.35-0.14h-0.52v0.83l0.34,0.06v0.38H35.5v-0.38l0.34-0.06v-2.25l-0.34-0.06
		v-0.38h0.34H36.92z M36.47,101.64h0.44c0.18,0,0.31-0.04,0.4-0.11s0.13-0.18,0.13-0.32s-0.04-0.25-0.13-0.34
		c-0.09-0.08-0.22-0.13-0.39-0.13h-0.45V101.64z"/>
	<path class="st7" d="M39.83,100.26v0.38l-0.34,0.06v1.64c0,0.21,0.06,0.36,0.17,0.46c0.11,0.1,0.27,0.15,0.46,0.15
		c0.2,0,0.35-0.05,0.47-0.15c0.11-0.1,0.17-0.26,0.17-0.47v-1.64l-0.34-0.06v-0.38h1.31v0.38l-0.34,0.06v1.64
		c0,0.35-0.12,0.62-0.35,0.81s-0.54,0.29-0.92,0.29c-0.38,0-0.68-0.09-0.92-0.29s-0.35-0.46-0.35-0.81v-1.64l-0.34-0.06v-0.38h0.34
		h0.63H39.83z"/>
	<path class="st7" d="M44.32,101.26h-0.48l-0.08-0.43c-0.05-0.03-0.14-0.06-0.24-0.09c-0.11-0.03-0.22-0.04-0.34-0.04
		c-0.17,0-0.31,0.04-0.4,0.11c-0.1,0.07-0.14,0.17-0.14,0.28c0,0.11,0.05,0.19,0.15,0.26s0.27,0.14,0.51,0.22
		c0.35,0.1,0.61,0.22,0.79,0.38c0.18,0.16,0.27,0.37,0.27,0.62c0,0.27-0.11,0.48-0.32,0.64s-0.5,0.23-0.85,0.23
		c-0.25,0-0.48-0.04-0.68-0.12c-0.2-0.08-0.37-0.19-0.5-0.33v-0.66h0.49l0.07,0.45c0.06,0.05,0.15,0.09,0.26,0.13
		c0.11,0.03,0.23,0.05,0.37,0.05c0.17,0,0.31-0.04,0.4-0.11c0.09-0.07,0.14-0.17,0.14-0.28c0-0.12-0.04-0.22-0.13-0.29
		c-0.09-0.07-0.24-0.14-0.45-0.21c-0.38-0.11-0.66-0.24-0.85-0.38c-0.19-0.15-0.29-0.35-0.29-0.61c0-0.25,0.11-0.46,0.33-0.62
		c0.22-0.16,0.49-0.24,0.82-0.25c0.24,0,0.46,0.04,0.67,0.11c0.2,0.07,0.37,0.17,0.5,0.29V101.26z"/>
	<path class="st7" d="M47.02,101.26h-0.47l-0.08-0.43c-0.05-0.03-0.13-0.06-0.24-0.09c-0.11-0.03-0.22-0.04-0.34-0.04
		c-0.17,0-0.31,0.04-0.4,0.11c-0.09,0.07-0.14,0.17-0.14,0.28c0,0.11,0.05,0.19,0.15,0.26s0.27,0.14,0.51,0.22
		c0.35,0.1,0.61,0.22,0.79,0.38s0.27,0.37,0.27,0.62c0,0.27-0.11,0.48-0.32,0.64s-0.5,0.23-0.85,0.23c-0.25,0-0.48-0.04-0.68-0.12
		c-0.2-0.08-0.37-0.19-0.5-0.33v-0.66h0.49l0.07,0.45c0.06,0.05,0.15,0.09,0.26,0.13c0.11,0.03,0.23,0.05,0.37,0.05
		c0.17,0,0.31-0.04,0.4-0.11s0.14-0.17,0.14-0.28c0-0.12-0.04-0.22-0.13-0.29c-0.09-0.07-0.24-0.14-0.45-0.21
		c-0.38-0.11-0.66-0.24-0.85-0.38c-0.19-0.15-0.29-0.35-0.29-0.61c0-0.25,0.11-0.46,0.33-0.62c0.22-0.16,0.49-0.24,0.82-0.25
		c0.24,0,0.46,0.04,0.66,0.11s0.37,0.17,0.5,0.29V101.26z"/>
	<path class="st7" d="M47.32,100.64v-0.38h1.31v0.38l-0.34,0.06v2.25l0.34,0.06v0.38h-1.31v-0.38l0.34-0.06v-2.25L47.32,100.64z"/>
	<path class="st7" d="M48.83,103.02l0.23-0.03l0.96-2.73h0.65l0.96,2.73l0.23,0.03v0.38h-1.08v-0.38l0.22-0.04l-0.14-0.43h-1.03
		l-0.14,0.43l0.22,0.04v0.38h-1.08V103.02z M49.98,102.08h0.73l-0.36-1.1h-0.01L49.98,102.08z"/>
</g>
<g>
	<path class="st5" d="M80.25,81.26v0.63h-0.47v-0.63H80.25z M82.76,82.2l-0.06-0.31h-1.45l-0.06,0.34h-0.38v-0.97h1.89l0.06-0.3
		h0.38v1.25H82.76z"/>
	<path class="st5" d="M83.14,79.25c-0.04,0.02-0.08,0.03-0.12,0.05c-0.04,0.01-0.08,0.02-0.12,0.03c0.09,0.08,0.16,0.17,0.21,0.28
		c0.05,0.11,0.08,0.23,0.08,0.37c0,0.23-0.06,0.41-0.19,0.55c-0.12,0.14-0.29,0.2-0.51,0.2c-0.22,0-0.39-0.09-0.51-0.26
		s-0.18-0.44-0.18-0.78v-0.32h-0.23c-0.11,0-0.2,0.03-0.26,0.1c-0.06,0.06-0.09,0.16-0.09,0.29c0,0.07,0.01,0.14,0.03,0.19
		c0.02,0.06,0.04,0.1,0.06,0.14l0.25,0.04v0.48l-0.52,0c-0.08-0.12-0.14-0.25-0.2-0.4c-0.05-0.15-0.08-0.31-0.08-0.49
		c0-0.29,0.07-0.53,0.21-0.71s0.34-0.27,0.6-0.27h0.96c0.04,0,0.07,0,0.1,0c0.03,0,0.06,0,0.09-0.01l0.03-0.19h0.38V79.25z
		 M82.72,79.8c0-0.1-0.02-0.18-0.06-0.26s-0.09-0.14-0.15-0.18h-0.36v0.32c0,0.13,0.03,0.24,0.09,0.31c0.06,0.07,0.14,0.1,0.23,0.1
		c0.08,0,0.14-0.03,0.19-0.08C82.7,79.96,82.72,79.89,82.72,79.8z"/>
	<path class="st5" d="M82.76,78.26l-0.06-0.3h-1.45l-0.06,0.34h-0.38v-0.93l0.34-0.03c-0.12-0.05-0.21-0.13-0.28-0.21
		s-0.1-0.19-0.1-0.3c0-0.03,0-0.07,0.01-0.11c0-0.04,0.01-0.07,0.02-0.09l0.57,0.07l-0.01,0.26c0,0.09,0.02,0.17,0.05,0.23
		s0.09,0.11,0.15,0.14h1.13l0.06-0.3h0.38v1.24H82.76z"/>
	<path class="st5" d="M82.85,74.9c0.11,0.07,0.19,0.16,0.25,0.26c0.06,0.1,0.08,0.22,0.08,0.34c0,0.29-0.1,0.51-0.31,0.67
		c-0.21,0.16-0.49,0.24-0.83,0.24h-0.04c-0.37,0-0.66-0.08-0.89-0.24s-0.34-0.39-0.34-0.68c0-0.12,0.03-0.22,0.08-0.32
		s0.12-0.18,0.22-0.25h-0.83l-0.07,0.34h-0.38v-0.34V74.3h2.92l0.06-0.3h0.38v0.85L82.85,74.9z M82.04,75.79
		c0.2,0,0.36-0.03,0.48-0.1c0.12-0.07,0.18-0.18,0.18-0.34c0-0.09-0.02-0.17-0.06-0.24c-0.04-0.07-0.09-0.12-0.16-0.17h-0.99
		c-0.08,0.04-0.13,0.1-0.17,0.17s-0.06,0.15-0.06,0.24c0,0.16,0.07,0.27,0.21,0.34c0.14,0.07,0.31,0.11,0.53,0.11H82.04z"/>
	<path class="st5" d="M82.84,72.15c0.11,0.08,0.19,0.17,0.25,0.28s0.09,0.24,0.09,0.38c0,0.25-0.08,0.44-0.24,0.58
		c-0.16,0.14-0.4,0.21-0.73,0.21h-0.96l-0.06,0.26h-0.38V73.6v-0.63h1.41c0.17,0,0.29-0.03,0.37-0.09c0.07-0.06,0.11-0.14,0.11-0.26
		c0-0.1-0.02-0.19-0.05-0.26c-0.03-0.07-0.08-0.13-0.14-0.18h-1.26l-0.06,0.28h-0.38v-0.28v-0.63h1.89l0.06-0.28h0.38v0.84
		L82.84,72.15z"/>
	<path class="st5" d="M80.25,70.1v0.63h-0.47V70.1H80.25z M82.76,71.04l-0.06-0.31h-1.45l-0.06,0.34h-0.38V70.1h1.89l0.06-0.3h0.38
		v1.25H82.76z"/>
	<path class="st5" d="M82.76,69.62l-0.06-0.3h-1.45l-0.06,0.34h-0.38v-0.93l0.33-0.03c-0.12-0.08-0.21-0.17-0.28-0.29
		s-0.1-0.24-0.1-0.38c0-0.24,0.07-0.42,0.22-0.56c0.15-0.13,0.38-0.2,0.7-0.2h1.01l0.06-0.3h0.38v1.21h-0.38l-0.06-0.27h-1.01
		c-0.16,0-0.27,0.03-0.33,0.1c-0.06,0.06-0.1,0.16-0.1,0.29c0,0.08,0.02,0.16,0.05,0.23s0.08,0.12,0.14,0.17h1.25l0.06-0.26h0.38
		v1.19H82.76z"/>
	<path class="st5" d="M81.95,66.76c-0.35,0-0.63-0.1-0.85-0.29c-0.22-0.2-0.33-0.47-0.33-0.81c0-0.35,0.11-0.62,0.33-0.82
		c0.22-0.2,0.51-0.29,0.86-0.29H82c0.35,0,0.64,0.1,0.86,0.29c0.22,0.2,0.33,0.47,0.33,0.81c0,0.35-0.11,0.62-0.33,0.82
		c-0.22,0.2-0.51,0.29-0.86,0.29H81.95z M82,66.13c0.21,0,0.38-0.04,0.51-0.11c0.13-0.08,0.19-0.2,0.19-0.37
		c0-0.16-0.06-0.28-0.19-0.36c-0.13-0.08-0.3-0.11-0.51-0.11h-0.04c-0.21,0-0.38,0.04-0.51,0.12c-0.13,0.08-0.2,0.2-0.2,0.36
		s0.07,0.29,0.2,0.36c0.13,0.08,0.3,0.11,0.51,0.11H82z"/>
	<path class="st5" d="M83.14,63.49v0.63h-0.55v-0.63H83.14z"/>
	<path class="st5" d="M82.76,63.09l-0.06-0.3h-1.45l-0.06,0.34h-0.38v-0.93l0.34-0.03c-0.12-0.06-0.21-0.13-0.28-0.21
		c-0.07-0.09-0.1-0.19-0.1-0.3c0-0.03,0-0.07,0.01-0.11c0-0.04,0.01-0.07,0.02-0.09l0.57,0.07l-0.01,0.26
		c0,0.09,0.02,0.17,0.05,0.23c0.04,0.06,0.09,0.11,0.15,0.14h1.13l0.06-0.3h0.38v1.24H82.76z"/>
	<path class="st5" d="M82.84,59.62c0.11,0.08,0.19,0.17,0.25,0.28c0.06,0.11,0.09,0.24,0.09,0.38c0,0.25-0.08,0.44-0.24,0.58
		s-0.4,0.21-0.73,0.21h-0.96l-0.06,0.26h-0.38v-0.26v-0.63h1.41c0.17,0,0.29-0.03,0.37-0.09c0.07-0.06,0.11-0.14,0.11-0.25
		c0-0.1-0.02-0.19-0.05-0.26s-0.08-0.13-0.14-0.18h-1.26l-0.06,0.28h-0.38v-0.28v-0.63h1.89l0.06-0.28h0.38v0.84L82.84,59.62z"/>
</g>
<g>
	<path class="st5" d="M22.52,65.35c0.3,0.04,0.53,0.15,0.7,0.34s0.25,0.44,0.25,0.75c0,0.34-0.12,0.61-0.36,0.82
		c-0.24,0.21-0.56,0.31-0.97,0.31h-0.27c-0.26,0-0.5-0.05-0.7-0.14s-0.36-0.23-0.46-0.41c-0.11-0.17-0.16-0.38-0.16-0.61
		c0-0.31,0.08-0.55,0.25-0.73s0.4-0.29,0.7-0.32v0.38c-0.23,0.03-0.39,0.1-0.49,0.21c-0.1,0.11-0.15,0.26-0.15,0.46
		c0,0.24,0.09,0.43,0.27,0.57s0.43,0.21,0.76,0.21h0.28c0.31,0,0.56-0.06,0.74-0.2c0.18-0.13,0.27-0.31,0.27-0.55
		c0-0.21-0.05-0.37-0.14-0.48s-0.26-0.19-0.49-0.22V65.35z"/>
	<path class="st5" d="M20.89,62.85v0.92h2.54v0.38h-2.54v0.92h-0.31v-2.22H20.89z"/>
	<path class="st5" d="M22.16,61.58c-0.09,0.33-0.21,0.56-0.34,0.71c-0.14,0.15-0.3,0.22-0.5,0.22c-0.22,0-0.41-0.09-0.56-0.27
		c-0.15-0.18-0.22-0.42-0.22-0.71c0-0.2,0.04-0.37,0.11-0.53s0.18-0.27,0.31-0.36s0.28-0.13,0.44-0.13v0.38
		c-0.17,0-0.31,0.05-0.41,0.17c-0.1,0.11-0.15,0.27-0.15,0.47c0,0.19,0.04,0.33,0.12,0.44c0.08,0.11,0.19,0.16,0.34,0.16
		c0.12,0,0.21-0.05,0.3-0.15c0.08-0.1,0.15-0.27,0.22-0.51c0.07-0.24,0.14-0.43,0.22-0.56s0.17-0.24,0.28-0.3
		c0.11-0.07,0.23-0.1,0.38-0.1c0.23,0,0.42,0.09,0.55,0.27c0.14,0.18,0.21,0.42,0.21,0.73c0,0.2-0.04,0.38-0.11,0.55
		c-0.08,0.17-0.18,0.3-0.31,0.4c-0.13,0.09-0.28,0.14-0.44,0.14v-0.38c0.17,0,0.31-0.06,0.41-0.19c0.1-0.13,0.15-0.3,0.15-0.51
		c0-0.2-0.04-0.35-0.12-0.46c-0.08-0.11-0.19-0.16-0.33-0.16s-0.25,0.05-0.32,0.15C22.31,61.14,22.23,61.32,22.16,61.58z"/>
</g>
<path class="st2" d="M24.28,71.48c0,1.23-1,2.22-2.24,2.22s-2.24-1-2.24-2.22s1-2.22,2.24-2.22S24.28,70.25,24.28,71.48z
	 M22.04,69.96c-0.85,0-1.53,0.68-1.53,1.52S21.19,73,22.04,73c0.85,0,1.53-0.68,1.53-1.52S22.88,69.96,22.04,69.96z"/>
<rect y="18.88" class="st19" width="87.18" height="34.2"/>
<rect x="68.14" y="30.28" class="st0" width="1.64" height="22.8"/>
<rect x="17.39" y="30.28" class="st20" width="1.64" height="22.8"/>
<circle class="st21" cx="78.96" cy="45.88" r="4.98"/>
<polygon class="st22" points="68.1,18.88 67.68,18.82 67.32,18.64 66.96,18.34 66.78,17.92 66.72,17.5 66.72,6.16 66.6,5.2 
	66.3,4.3 65.76,3.52 65.1,2.86 64.32,2.32 63.42,2.02 62.46,1.9 24.72,1.9 23.82,2.02 22.92,2.32 22.08,2.86 21.42,3.52 20.94,4.3 
	20.58,5.2 20.52,6.16 20.52,17.5 20.4,17.92 20.22,18.34 19.92,18.64 19.5,18.82 19.08,18.88 15.84,18.88 71.4,18.88 "/>
<rect y="18.88" class="st23" width="87.18" height="5.5"/>
<g>
	<polygon class="st24" points="77.47,39.52 77.47,45.26 74.46,45.26 74.46,34.54 73.86,34.54 71.64,34.54 71.64,30.28 86.34,30.28 
		86.34,34.54 84.06,34.54 83.52,34.54 83.52,45.26 80.5,45.26 80.5,39.52 	"/>
	<linearGradient id="SVGID_1_" gradientUnits="userSpaceOnUse" x1="75.9664" y1="45.8751" x2="75.9664" y2="45.2629">
		<stop  offset="0" style="stop-color:#B2B2B2"/>
		<stop  offset="0.5135" style="stop-color:#EDEDED"/>
		<stop  offset="1" style="stop-color:#DADADA"/>
	</linearGradient>
	<rect x="74.46" y="45.26" class="st25" width="3.02" height="0.61"/>
	<linearGradient id="SVGID_2_" gradientUnits="userSpaceOnUse" x1="82.0117" y1="45.8751" x2="82.0117" y2="45.2629">
		<stop  offset="0" style="stop-color:#B2B2B2"/>
		<stop  offset="0.5135" style="stop-color:#EDEDED"/>
		<stop  offset="1" style="stop-color:#DADADA"/>
	</linearGradient>
	<rect x="80.5" y="45.26" class="st26" width="3.02" height="0.61"/>
	<linearGradient id="SVGID_3_" gradientUnits="userSpaceOnUse" x1="75.3" y1="34.8951" x2="82.68" y2="34.8951">
		<stop  offset="0" style="stop-color:#B2B2B2"/>
		<stop  offset="0.5135" style="stop-color:#EDEDED"/>
		<stop  offset="1" style="stop-color:#B2B2B2"/>
	</linearGradient>
	<polygon class="st27" points="75.3,37.48 75.3,39.52 77.28,39.52 80.7,39.52 82.68,39.52 82.68,38.38 82.68,36.58 82.68,34.78 
		82.68,32.98 82.68,31.18 82.68,30.28 75.3,30.28 75.3,32.08 	"/>
	<g>
		<path class="st28" d="M75.3,33.48c-0.25,0-0.46-0.19-0.5-0.44c-0.03-0.27,0.16-0.52,0.44-0.56l7.38-0.9
			c0.27-0.04,0.52,0.16,0.56,0.44c0.03,0.27-0.16,0.52-0.44,0.56l-7.38,0.9C75.34,33.47,75.32,33.48,75.3,33.48z"/>
	</g>
	<g>
		<path class="st28" d="M75.3,35.27c-0.25,0-0.46-0.19-0.5-0.44c-0.03-0.27,0.16-0.52,0.44-0.56l7.38-0.9
			c0.27-0.04,0.52,0.16,0.56,0.44c0.03,0.27-0.16,0.52-0.44,0.56l-7.38,0.9C75.34,35.27,75.32,35.27,75.3,35.27z"/>
	</g>
	<g>
		<path class="st28" d="M75.3,37.08c-0.25,0-0.46-0.19-0.5-0.44c-0.03-0.27,0.16-0.52,0.44-0.56l7.38-0.9
			c0.27-0.04,0.52,0.16,0.56,0.44c0.03,0.27-0.16,0.52-0.44,0.56l-7.38,0.9C75.34,37.07,75.32,37.08,75.3,37.08z"/>
	</g>
	<g>
		<path class="st28" d="M75.3,38.88c-0.25,0-0.46-0.19-0.5-0.44c-0.03-0.27,0.16-0.52,0.44-0.56l7.38-0.9
			c0.27-0.04,0.52,0.16,0.56,0.44c0.03,0.27-0.16,0.52-0.44,0.56l-7.38,0.9C75.34,38.87,75.32,38.88,75.3,38.88z"/>
	</g>
	<g>
		<path class="st28" d="M83.18,30.28c0,0.25-0.19,0.47-0.44,0.5l-7.38,0.9c-0.02,0-0.04,0-0.06,0c-0.25,0-0.46-0.19-0.5-0.44
			c-0.03-0.27,0.16-0.52,0.44-0.56l3.31-0.4L83.18,30.28z"/>
	</g>
</g>
<circle class="st21" cx="8.19" cy="45.88" r="4.98"/>
<g>
	<polygon class="st24" points="6.7,39.52 6.7,45.26 3.69,45.26 3.69,34.54 3.09,34.54 0.87,34.54 0.87,30.28 15.57,30.28 
		15.57,34.54 13.29,34.54 12.75,34.54 12.75,45.26 9.73,45.26 9.73,39.52 	"/>
	<linearGradient id="SVGID_4_" gradientUnits="userSpaceOnUse" x1="5.1964" y1="45.8751" x2="5.1964" y2="45.2629">
		<stop  offset="0" style="stop-color:#B2B2B2"/>
		<stop  offset="0.5135" style="stop-color:#EDEDED"/>
		<stop  offset="1" style="stop-color:#DADADA"/>
	</linearGradient>
	<rect x="3.69" y="45.26" class="st29" width="3.02" height="0.61"/>
	<linearGradient id="SVGID_5_" gradientUnits="userSpaceOnUse" x1="11.2417" y1="45.8751" x2="11.2417" y2="45.2629">
		<stop  offset="0" style="stop-color:#B2B2B2"/>
		<stop  offset="0.5135" style="stop-color:#EDEDED"/>
		<stop  offset="1" style="stop-color:#DADADA"/>
	</linearGradient>
	<rect x="9.73" y="45.26" class="st30" width="3.02" height="0.61"/>
	<linearGradient id="SVGID_6_" gradientUnits="userSpaceOnUse" x1="4.53" y1="34.8951" x2="11.91" y2="34.8951">
		<stop  offset="0" style="stop-color:#B2B2B2"/>
		<stop  offset="0.5135" style="stop-color:#EDEDED"/>
		<stop  offset="1" style="stop-color:#B2B2B2"/>
	</linearGradient>
	<polygon class="st31" points="4.53,37.48 4.53,39.52 6.51,39.52 9.93,39.52 11.91,39.52 11.91,38.38 11.91,36.58 11.91,34.78 
		11.91,32.98 11.91,31.18 11.91,30.28 4.53,30.28 4.53,32.08 	"/>
	<g>
		<path class="st28" d="M4.53,33.48c-0.25,0-0.46-0.19-0.5-0.44C4,32.76,4.19,32.51,4.47,32.48l7.38-0.9
			c0.27-0.04,0.52,0.16,0.56,0.44c0.03,0.27-0.16,0.52-0.44,0.56l-7.38,0.9C4.57,33.47,4.55,33.48,4.53,33.48z"/>
	</g>
	<g>
		<path class="st28" d="M4.53,35.27c-0.25,0-0.46-0.19-0.5-0.44C4,34.56,4.19,34.31,4.47,34.28l7.38-0.9
			c0.27-0.04,0.52,0.16,0.56,0.44c0.03,0.27-0.16,0.52-0.44,0.56l-7.38,0.9C4.57,35.27,4.55,35.27,4.53,35.27z"/>
	</g>
	<g>
		<path class="st28" d="M4.53,37.08c-0.25,0-0.46-0.19-0.5-0.44C4,36.36,4.19,36.11,4.47,36.08l7.38-0.9
			c0.27-0.04,0.52,0.16,0.56,0.44c0.03,0.27-0.16,0.52-0.44,0.56l-7.38,0.9C4.57,37.07,4.55,37.08,4.53,37.08z"/>
	</g>
	<g>
		<path class="st28" d="M4.53,38.88c-0.25,0-0.46-0.19-0.5-0.44C4,38.16,4.19,37.91,4.47,37.88l7.38-0.9
			c0.27-0.04,0.52,0.16,0.56,0.44c0.03,0.27-0.16,0.52-0.44,0.56l-7.38,0.9C4.57,38.87,4.55,38.88,4.53,38.88z"/>
	</g>
	<g>
		<path class="st28" d="M12.41,30.28c0,0.25-0.19,0.47-0.44,0.5l-7.38,0.9c-0.02,0-0.04,0-0.06,0c-0.25,0-0.46-0.19-0.5-0.44
			C4,30.96,4.19,30.71,4.47,30.68l3.31-0.4L12.41,30.28z"/>
	</g>
</g>
<g>
	<rect x="0.66" y="5.86" class="st32" width="3.9" height="13.02"/>
	<rect x="11.88" y="5.86" class="st20" width="3.96" height="13.02"/>
	<rect x="4.56" y="5.86" class="st33" width="7.32" height="13.02"/>
</g>
<g>
	<rect x="71.37" y="5.86" class="st32" width="3.9" height="13.02"/>
	<rect x="82.59" y="5.86" class="st20" width="3.96" height="13.02"/>
	<rect x="75.27" y="5.86" class="st33" width="7.32" height="13.02"/>
</g>
<linearGradient id="SVGID_7_" gradientUnits="userSpaceOnUse" x1="0" y1="21.6804" x2="2.1073" y2="21.6804">
	<stop  offset="0" style="stop-color:#FFFFFF"/>
	<stop  offset="0.0558" style="stop-color:#E3E3E3"/>
	<stop  offset="0.1445" style="stop-color:#BEBEBE"/>
	<stop  offset="0.2403" style="stop-color:#9E9E9E"/>
	<stop  offset="0.3435" style="stop-color:#848483"/>
	<stop  offset="0.4564" style="stop-color:#70706F"/>
	<stop  offset="0.5843" style="stop-color:#626261"/>
	<stop  offset="0.7397" style="stop-color:#595959"/>
	<stop  offset="1" style="stop-color:#575756"/>
</linearGradient>
<rect y="18.99" class="st34" width="2.11" height="5.38"/>
<linearGradient id="SVGID_8_" gradientUnits="userSpaceOnUse" x1="85.0263" y1="21.6804" x2="87.1337" y2="21.6804" gradientTransform="matrix(-1 0 0 1 172.16 0)">
	<stop  offset="0" style="stop-color:#1D1D1B"/>
	<stop  offset="0.082" style="stop-color:#2B2B29"/>
	<stop  offset="0.239" style="stop-color:#3E3E3D"/>
	<stop  offset="0.418" style="stop-color:#4C4C4B"/>
	<stop  offset="0.6355" style="stop-color:#555553"/>
	<stop  offset="1" style="stop-color:#575756"/>
</linearGradient>
<polygon class="st35" points="87.13,24.37 85.03,24.37 85.03,18.99 87.13,18.99 "/>
<g>
</g>
<g>
</g>
<g>
</g>
<g>
</g>
<g>
</g>
<g>
</g>
</svg>
