<svg id="Layer_1" data-name="Layer 1" xmlns="http://www.w3.org/2000/svg" viewBox="0 0 39.69 42.24"><defs><style>.cls-1{fill:#19191a;}.cls-2{fill:none;stroke:#cec7bd;stroke-miterlimit:10;stroke-width:4.252px;}</style></defs><g id="_1" data-name="1"><path class="cls-1" d="M38.2,0H25.38L23.99,1.41h-8.4L14.26,0H1.37L0,1.4V41.02l1.24,1.22H14.38l1.31-1.4h8.4l1.37,1.4H38.41l1.28-1.3V1.46ZM9.58,36.81a4.25,4.25,0,1,1,4.25-4.25A4.246,4.246,0,0,1,9.58,36.81Zm0-22.88a4.25,4.25,0,1,1,4.25-4.25A4.246,4.246,0,0,1,9.58,13.93ZM30.11,36.81a4.25,4.25,0,1,1,4.25-4.25A4.246,4.246,0,0,1,30.11,36.81Zm0-22.88a4.25,4.25,0,1,1,4.25-4.25A4.246,4.246,0,0,1,30.11,13.93Z"/><circle class="cls-2" cx="9.579" cy="9.681" r="6.335"/><circle class="cls-2" cx="30.107" cy="9.681" r="6.335"/><circle class="cls-2" cx="9.579" cy="32.561" r="6.335"/><circle class="cls-2" cx="30.107" cy="32.561" r="6.335"/></g></svg>