<svg id="Layer_1" data-name="Layer 1" xmlns="http://www.w3.org/2000/svg" viewBox="0 0 39.69 42.24"><defs><style>.cls-1{fill:#19191a;}.cls-2{fill:#cec7bd;}</style></defs><g id="_2" data-name="2"><path class="cls-1" d="M38.2,0H25.38L23.99,1.41h-8.4L14.26,0H1.37L0,1.4V41.02l1.24,1.22H14.38l1.31-1.4h8.4l1.37,1.4H38.41l1.28-1.3V1.46ZM9.58,36.81a4.25,4.25,0,1,1,4.25-4.25A4.246,4.246,0,0,1,9.58,36.81Zm0-22.88a4.25,4.25,0,1,1,4.25-4.25A4.246,4.246,0,0,1,9.58,13.93ZM30.11,36.81a4.25,4.25,0,1,1,4.25-4.25A4.246,4.246,0,0,1,30.11,36.81Zm0-22.88a4.25,4.25,0,1,1,4.25-4.25A4.246,4.246,0,0,1,30.11,13.93Z" transform="translate(0)"/><path class="cls-2" d="M30.106,1.223a8.427,8.427,0,0,0-6.43,2.97h-7.67a8.461,8.461,0,1,0,.43,10.43h6.81a8.457,8.457,0,1,0,6.86-13.4ZM9.576,13.893a4.21,4.21,0,1,1,4.21-4.21A4.217,4.217,0,0,1,9.576,13.893Zm20.53,0a4.21,4.21,0,1,1,4.21-4.21A4.217,4.217,0,0,1,30.106,13.893Z" transform="translate(0)"/><path class="cls-2" d="M30.106,24.2a8.427,8.427,0,0,0-6.43,2.97h-7.67a8.461,8.461,0,1,0,.43,10.43h6.81a8.457,8.457,0,1,0,6.86-13.4ZM9.576,36.871a4.21,4.21,0,1,1,4.21-4.21A4.217,4.217,0,0,1,9.576,36.871Zm20.53,0a4.21,4.21,0,1,1,4.21-4.21A4.217,4.217,0,0,1,30.106,36.871Z" transform="translate(0)"/></g></svg>