<?xml version="1.0" encoding="utf-8"?>
<!-- Generator: Adobe Illustrator 25.0.0, SVG Export Plug-In . SVG Version: 6.00 Build 0)  -->
<svg version="1.1" id="Layer_2" xmlns="http://www.w3.org/2000/svg" xmlns:xlink="http://www.w3.org/1999/xlink" x="0px" y="0px"
	 viewBox="0 0 85.04 87.33" style="enable-background:new 0 0 85.04 87.33;" xml:space="preserve">
<style type="text/css">
	.st0{fill:#252424;}
	.st1{fill:#AEA6A3;}
	.st2{fill:#EDEDE8;}
	.st3{fill:none;stroke:#FAFAFA;stroke-width:0.75;stroke-miterlimit:10;}
	.st4{fill:#DCD4C8;}
	.st5{fill:#A49788;}
	.st6{fill:#EDECE8;}
	.st7{fill:#4F453F;}
	.st8{fill:#C4C2BE;}
	.st9{fill:#C2C0BE;}
	.st10{fill:#DBD3C7;}
	.st11{fill:#EEEEED;}
	.st12{fill:#FAB723;}
	.st13{fill:#009D3D;}
	.st14{opacity:0.37;fill:none;stroke:#FFFFFF;stroke-width:0.5;stroke-miterlimit:10;}
	.st15{fill:none;stroke:#FFFFFF;stroke-width:0.5;stroke-miterlimit:10;}
	.st16{fill:#D9D8D6;}
	.st17{fill:#FFFFFF;stroke:#101212;stroke-width:0.2384;stroke-miterlimit:10;}
	.st18{fill:#F4F4F4;}
	.st19{fill:#FFFFFF;}
	.st20{fill:#49519F;}
	.st21{fill:#101212;}
	.st22{fill:#F59A00;stroke:#746E6A;stroke-width:0.0232;stroke-miterlimit:10;}
	.st23{fill:#FAB723;stroke:#C2C0BE;stroke-width:0.0252;stroke-miterlimit:10;}
	.st24{fill:none;stroke:#8E8884;stroke-width:0.0114;stroke-miterlimit:10;}
	.st25{fill:#1D1E1E;}
	.st26{fill:none;stroke:url(#SVGID_1_);stroke-width:0.2;stroke-miterlimit:10;}
	.st27{fill:none;stroke:url(#SVGID_2_);stroke-width:0.2;stroke-miterlimit:10;}
	.st28{fill:none;stroke:url(#SVGID_3_);stroke-width:0.2;stroke-miterlimit:10;}
	.st29{fill:none;stroke:url(#SVGID_4_);stroke-width:0.2;stroke-miterlimit:10;}
	.st30{fill:none;stroke:url(#SVGID_5_);stroke-width:0.25;stroke-miterlimit:10;}
	.st31{fill:#EEE53E;stroke:#020203;stroke-width:0.0103;stroke-miterlimit:10;}
	.st32{fill:#EEE53E;stroke:#020203;stroke-width:0.01;stroke-miterlimit:10;}
	.st33{fill:none;stroke:#FFFFFF;stroke-width:0.5;stroke-linecap:round;stroke-miterlimit:10;}
	.st34{fill:#D9D1C5;}
	.st35{fill:#4F443D;}
	.st36{fill:#C2C0BD;}
	.st37{fill:none;stroke:#736D69;stroke-width:0.25;stroke-miterlimit:10;}
</style>
<path class="st0" d="M0,2.29v85.04h85.04V2.29H0z M9.92,81.8c-2.43,0-4.39-1.97-4.39-4.39c0-2.43,1.97-4.39,4.39-4.39
	c2.43,0,4.39,1.97,4.39,4.39C14.31,79.83,12.35,81.8,9.92,81.8z M9.92,16.6c-2.43,0-4.39-1.97-4.39-4.39c0-2.43,1.97-4.39,4.39-4.39
	c2.43,0,4.39,1.97,4.39,4.39C14.31,14.64,12.35,16.6,9.92,16.6z M75.12,81.8c-2.43,0-4.39-1.97-4.39-4.39
	c0-2.43,1.97-4.39,4.39-4.39c2.43,0,4.39,1.97,4.39,4.39C79.51,79.83,77.54,81.8,75.12,81.8z M75.12,16.6
	c-2.43,0-4.39-1.97-4.39-4.39c0-2.43,1.97-4.39,4.39-4.39c2.43,0,4.39,1.97,4.39,4.39C79.51,14.64,77.54,16.6,75.12,16.6z"/>
<path class="st1" d="M9.92,6.23c-3.29,0-5.95,2.68-5.95,5.98c0,3.3,2.66,5.98,5.95,5.98c3.29,0,5.95-2.68,5.95-5.98
	C15.87,8.91,13.21,6.23,9.92,6.23z M9.92,16.6c-2.43,0-4.39-1.97-4.39-4.39c0-2.43,1.97-4.39,4.39-4.39c2.43,0,4.39,1.97,4.39,4.39
	C14.31,14.64,12.35,16.6,9.92,16.6z"/>
<path class="st1" d="M75.12,6.23c-3.29,0-5.95,2.68-5.95,5.98c0,3.3,2.66,5.98,5.95,5.98c3.29,0,5.95-2.68,5.95-5.98
	C81.07,8.91,78.41,6.23,75.12,6.23z M75.12,16.6c-2.43,0-4.39-1.97-4.39-4.39c0-2.43,1.97-4.39,4.39-4.39
	c2.43,0,4.39,1.97,4.39,4.39C79.51,14.64,77.54,16.6,75.12,16.6z"/>
<path class="st1" d="M9.92,71.43c-3.29,0-5.95,2.68-5.95,5.98c0,3.3,2.66,5.98,5.95,5.98c3.29,0,5.95-2.68,5.95-5.98
	C15.87,74.11,13.21,71.43,9.92,71.43z M9.92,81.8c-2.43,0-4.39-1.97-4.39-4.39c0-2.43,1.97-4.39,4.39-4.39
	c2.43,0,4.39,1.97,4.39,4.39C14.31,79.83,12.35,81.8,9.92,81.8z"/>
<path class="st1" d="M75.12,71.43c-3.29,0-5.95,2.68-5.95,5.98c0,3.3,2.66,5.98,5.95,5.98c3.29,0,5.95-2.68,5.95-5.98
	C81.07,74.11,78.41,71.43,75.12,71.43z M75.12,81.8c-2.43,0-4.39-1.97-4.39-4.39c0-2.43,1.97-4.39,4.39-4.39
	c2.43,0,4.39,1.97,4.39,4.39C79.51,79.83,77.54,81.8,75.12,81.8z"/>
<g>
	<path class="st2" d="M35.78,81.79c0.36,0,0.64,0.08,0.84,0.24c0.2,0.16,0.31,0.39,0.31,0.67c0,0.16-0.04,0.3-0.13,0.41
		s-0.21,0.21-0.38,0.28c0.19,0.05,0.32,0.15,0.4,0.27c0.08,0.13,0.12,0.28,0.12,0.47v0.16c0,0.07,0.01,0.12,0.04,0.16
		c0.03,0.04,0.07,0.06,0.14,0.07l0.08,0.01v0.38h-0.33c-0.21,0-0.35-0.06-0.44-0.17s-0.13-0.25-0.13-0.43v-0.18
		c0-0.15-0.04-0.27-0.12-0.36c-0.08-0.09-0.2-0.13-0.35-0.14h-0.52v0.83l0.34,0.06v0.38h-1.31v-0.38l0.34-0.06v-2.25l-0.34-0.06
		v-0.38h0.34H35.78z M35.33,83.18h0.44c0.18,0,0.31-0.04,0.4-0.11s0.13-0.18,0.13-0.32s-0.04-0.25-0.13-0.34
		c-0.09-0.08-0.22-0.13-0.39-0.13h-0.45V83.18z"/>
	<path class="st2" d="M38.69,81.79v0.38l-0.34,0.06v1.64c0,0.21,0.06,0.36,0.17,0.46c0.11,0.1,0.27,0.15,0.46,0.15
		c0.2,0,0.35-0.05,0.47-0.15c0.11-0.1,0.17-0.26,0.17-0.47v-1.64l-0.34-0.06v-0.38h1.31v0.38l-0.34,0.06v1.64
		c0,0.35-0.12,0.62-0.35,0.81s-0.54,0.29-0.92,0.29c-0.38,0-0.68-0.09-0.92-0.29s-0.35-0.46-0.35-0.81v-1.64l-0.34-0.06v-0.38h0.34
		h0.63H38.69z"/>
	<path class="st2" d="M43.18,82.79h-0.48l-0.08-0.43c-0.05-0.03-0.14-0.06-0.24-0.09c-0.11-0.03-0.22-0.04-0.34-0.04
		c-0.17,0-0.31,0.04-0.4,0.11c-0.1,0.07-0.14,0.17-0.14,0.28c0,0.11,0.05,0.19,0.15,0.26s0.27,0.14,0.51,0.22
		c0.35,0.1,0.61,0.22,0.79,0.38c0.18,0.16,0.27,0.37,0.27,0.62c0,0.27-0.11,0.48-0.32,0.64s-0.5,0.23-0.85,0.23
		c-0.25,0-0.48-0.04-0.68-0.12c-0.2-0.08-0.37-0.19-0.5-0.33v-0.66h0.49l0.07,0.45c0.06,0.05,0.15,0.09,0.26,0.13
		c0.11,0.03,0.23,0.05,0.37,0.05c0.17,0,0.31-0.04,0.4-0.11c0.09-0.07,0.14-0.17,0.14-0.28c0-0.12-0.04-0.22-0.13-0.29
		c-0.09-0.07-0.24-0.14-0.45-0.21c-0.38-0.11-0.66-0.24-0.85-0.38c-0.19-0.15-0.29-0.35-0.29-0.61c0-0.25,0.11-0.46,0.33-0.62
		c0.22-0.16,0.49-0.24,0.82-0.25c0.24,0,0.46,0.04,0.67,0.11c0.2,0.07,0.37,0.17,0.5,0.29V82.79z"/>
	<path class="st2" d="M45.88,82.79h-0.47l-0.08-0.43c-0.05-0.03-0.13-0.06-0.24-0.09c-0.11-0.03-0.22-0.04-0.34-0.04
		c-0.17,0-0.31,0.04-0.4,0.11c-0.09,0.07-0.14,0.17-0.14,0.28c0,0.11,0.05,0.19,0.15,0.26s0.27,0.14,0.51,0.22
		c0.35,0.1,0.61,0.22,0.79,0.38s0.27,0.37,0.27,0.62c0,0.27-0.11,0.48-0.32,0.64s-0.5,0.23-0.85,0.23c-0.25,0-0.48-0.04-0.68-0.12
		c-0.2-0.08-0.37-0.19-0.5-0.33v-0.66h0.49l0.07,0.45c0.06,0.05,0.15,0.09,0.26,0.13c0.11,0.03,0.23,0.05,0.37,0.05
		c0.17,0,0.31-0.04,0.4-0.11s0.14-0.17,0.14-0.28c0-0.12-0.04-0.22-0.13-0.29c-0.09-0.07-0.24-0.14-0.45-0.21
		c-0.38-0.11-0.66-0.24-0.85-0.38c-0.19-0.15-0.29-0.35-0.29-0.61c0-0.25,0.11-0.46,0.33-0.62c0.22-0.16,0.49-0.24,0.82-0.25
		c0.24,0,0.46,0.04,0.66,0.11s0.37,0.17,0.5,0.29V82.79z"/>
	<path class="st2" d="M46.18,82.17v-0.38h1.31v0.38l-0.34,0.06v2.25l0.34,0.06v0.38h-1.31v-0.38l0.34-0.06v-2.25L46.18,82.17z"/>
	<path class="st2" d="M47.69,84.55l0.23-0.03l0.96-2.73h0.65l0.96,2.73l0.23,0.03v0.38h-1.08v-0.38l0.22-0.04l-0.14-0.43h-1.03
		l-0.14,0.43l0.22,0.04v0.38h-1.08V84.55z M48.84,83.62h0.73l-0.36-1.1H49.2L48.84,83.62z"/>
</g>
<path class="st3" d="M31.79,81.04c-0.09,0-0.14,0-0.14,0L31.61,65.5c0,0,0-0.03,0-0.05c0.03,0,0.06,0,0.06,0l21.69,0.05
	c0,0,0.01,0,0.03,0c0.01,2.11,0.04,15.26,0.04,15.26s0,0.17,0,0.34c-0.05,0-0.09,0-0.09,0S33.64,81.05,31.79,81.04z"/>
<line class="st3" x1="46.14" y1="65.48" x2="46.14" y2="81.07"/>
<line class="st3" x1="38.9" y1="65.46" x2="38.9" y2="81.05"/>
<path class="st4" d="M37.56,77.21c0,1.23-1,2.22-2.24,2.22c-1.24,0-2.24-1-2.24-2.22c0-1.23,1-2.22,2.24-2.22
	C36.56,74.99,37.56,75.98,37.56,77.21z"/>
<ellipse class="st5" cx="35.32" cy="77.21" rx="1.53" ry="1.52"/>
<path class="st4" d="M30.34,77.21c0,1.23-1,2.22-2.24,2.22s-2.24-1-2.24-2.22c0-1.23,1-2.22,2.24-2.22S30.34,75.98,30.34,77.21z"/>
<ellipse class="st5" cx="28.1" cy="77.21" rx="1.53" ry="1.52"/>
<path class="st4" d="M44.76,77.21c0,1.23-1,2.22-2.24,2.22s-2.24-1-2.24-2.22c0-1.23,1-2.22,2.24-2.22S44.76,75.98,44.76,77.21z"/>
<ellipse class="st5" cx="42.52" cy="77.21" rx="1.53" ry="1.52"/>
<path class="st4" d="M51.35,75.58c1.54,2.02-0.17,4.27-2.18,3.78c-0.77-0.19-1.41-0.82-1.6-1.6C47.08,75.76,49.32,74.04,51.35,75.58
	z"/>
<ellipse class="st5" cx="49.72" cy="77.21" rx="1.53" ry="1.52"/>
<path class="st4" d="M58.49,75.58c1.54,2.02-0.17,4.27-2.18,3.78c-0.77-0.19-1.41-0.82-1.6-1.6C54.22,75.76,56.47,74.04,58.49,75.58
	z"/>
<ellipse class="st5" cx="56.87" cy="77.21" rx="1.53" ry="1.52"/>
<g>
	<path class="st6" d="M37.79,71.68c-0.15,0.16-0.38,0.31-0.68,0.45s-0.68,0.21-1.16,0.21c-0.7,0-1.26-0.24-1.7-0.73
		c-0.44-0.48-0.66-1.11-0.66-1.88v-0.08c0-0.78,0.22-1.41,0.65-1.89c0.43-0.48,1.01-0.72,1.73-0.72c0.39,0,0.72,0.06,1.02,0.18
		s0.54,0.28,0.74,0.47v0.94h-0.49l-0.17-0.71c-0.12-0.09-0.26-0.17-0.42-0.23s-0.36-0.09-0.6-0.09c-0.56,0-1,0.19-1.3,0.57
		c-0.3,0.38-0.46,0.88-0.46,1.48v0.09c0,0.62,0.15,1.12,0.44,1.5c0.29,0.38,0.7,0.57,1.22,0.57c0.28,0,0.52-0.03,0.7-0.09
		c0.18-0.06,0.33-0.12,0.44-0.2v-1.13l-0.85-0.04v-0.51h1.56V71.68z"/>
</g>
<g>
	<path class="st6" d="M41.71,67.67l-0.48,0.08l1.17,3.35l0.12,0.41h0.02l0.12-0.41l1.16-3.36l-0.47-0.07v-0.45h1.64v0.45l-0.42,0.06
		l-1.74,4.65h-0.6l-1.74-4.65l-0.41-0.06v-0.45h1.64V67.67z"/>
</g>
<g>
	<path class="st6" d="M51.52,68.74h-0.53L50.85,68c-0.11-0.09-0.25-0.16-0.43-0.22c-0.18-0.06-0.39-0.09-0.62-0.09
		c-0.37,0-0.66,0.08-0.86,0.24s-0.3,0.36-0.3,0.61c0,0.22,0.1,0.41,0.31,0.56c0.2,0.15,0.53,0.28,0.99,0.39
		c0.55,0.13,0.96,0.33,1.25,0.6c0.29,0.26,0.43,0.59,0.43,0.97c0,0.42-0.17,0.75-0.51,1s-0.79,0.38-1.34,0.38
		c-0.4,0-0.76-0.06-1.07-0.19s-0.56-0.3-0.76-0.51v-0.96h0.53l0.14,0.74c0.14,0.11,0.3,0.2,0.49,0.27c0.19,0.07,0.41,0.11,0.67,0.11
		c0.36,0,0.64-0.07,0.84-0.22s0.31-0.35,0.31-0.61c0-0.24-0.09-0.43-0.27-0.59s-0.49-0.29-0.95-0.4c-0.55-0.13-0.98-0.32-1.29-0.57
		c-0.31-0.25-0.46-0.57-0.46-0.95c0-0.4,0.17-0.74,0.52-1.01c0.35-0.27,0.79-0.4,1.35-0.4c0.36,0,0.7,0.06,1,0.19
		s0.54,0.27,0.72,0.45V68.74z"/>
</g>
<g>
	<path class="st2" d="M5.08,66.1v0.48l-0.7,0.13c-0.11,0.11-0.19,0.25-0.26,0.41s-0.1,0.35-0.1,0.58c0,0.52,0.19,0.92,0.56,1.2
		c0.37,0.28,0.85,0.42,1.43,0.42h0.08c0.58,0,1.05-0.14,1.43-0.41c0.38-0.27,0.57-0.66,0.57-1.14c0-0.23-0.04-0.43-0.11-0.62
		c-0.07-0.19-0.16-0.33-0.26-0.43L7,66.58V66.1h0.89c0.18,0.14,0.35,0.36,0.49,0.65c0.15,0.29,0.22,0.62,0.22,1.01
		c0,0.65-0.24,1.19-0.72,1.61s-1.08,0.63-1.8,0.63H6c-0.73,0-1.33-0.21-1.81-0.62c-0.48-0.41-0.72-0.95-0.72-1.62
		c0-0.38,0.07-0.72,0.22-1.01c0.15-0.29,0.31-0.51,0.49-0.65H5.08z"/>
	<path class="st2" d="M4.83,63.73h0.43l0.1,0.56h2.09l0.01-0.02l-2.62-1.64v-0.68v-0.56h0.43l0.1,0.56H8l0.1-0.56h0.43v1.8H8.09
		L8,62.62H5.91L5.9,62.64l2.62,1.64v1.24H8.09L8,64.96H5.36l-0.1,0.56H4.83v-1.24V63.73z"/>
	<path class="st2" d="M5.36,59.51H6.4c0.73,0,1.26,0.1,1.61,0.29c0.34,0.19,0.51,0.53,0.51,1v0.19l-0.57-0.01l0-0.14
		c0-0.24-0.12-0.41-0.35-0.51s-0.63-0.14-1.19-0.14H5.36l-0.1,0.56H4.83v-3.19V57h0.43l0.1,0.56H8L8.09,57h0.43v1.8H8.09L8,58.24
		H5.36V59.51z"/>
	<path class="st2" d="M6.64,56.55c-0.55,0-1-0.15-1.35-0.45c-0.35-0.3-0.53-0.71-0.53-1.22c0-0.52,0.18-0.92,0.53-1.22
		c0.35-0.3,0.8-0.45,1.35-0.45h0.08c0.55,0,1,0.15,1.35,0.45s0.53,0.71,0.53,1.22c0,0.52-0.18,0.93-0.53,1.22
		c-0.35,0.3-0.8,0.45-1.35,0.45H6.64z M6.72,55.88c0.39,0,0.72-0.08,0.97-0.25c0.26-0.17,0.38-0.41,0.38-0.74
		c0-0.32-0.13-0.57-0.38-0.73c-0.26-0.17-0.58-0.25-0.97-0.25H6.64c-0.39,0-0.71,0.08-0.97,0.25c-0.26,0.17-0.39,0.42-0.39,0.74
		s0.13,0.57,0.39,0.74s0.58,0.25,0.97,0.25H6.72z"/>
	<path class="st2" d="M4.83,50.72c0-0.49,0.08-0.87,0.25-1.14c0.17-0.27,0.42-0.41,0.76-0.41c0.17,0,0.33,0.05,0.46,0.16
		c0.14,0.11,0.24,0.25,0.31,0.45c0.06-0.23,0.16-0.41,0.32-0.54c0.16-0.13,0.33-0.2,0.54-0.2c0.35,0,0.61,0.13,0.79,0.38
		s0.27,0.61,0.27,1.07v2.27H8.09L8,52.18H5.36l-0.1,0.56H4.83v-0.56V50.72z M6.39,51.51v-0.79c0-0.29-0.04-0.5-0.13-0.65
		s-0.21-0.22-0.38-0.22c-0.18,0-0.31,0.07-0.4,0.22s-0.13,0.36-0.13,0.65v0.79H6.39z M6.9,51.51H8v-1.03c0-0.25-0.05-0.44-0.14-0.57
		c-0.09-0.13-0.23-0.19-0.41-0.19c-0.18,0-0.31,0.06-0.41,0.19S6.9,50.23,6.9,50.48V51.51z"/>
	<path class="st2" d="M6.64,48.57c-0.55,0-1-0.15-1.35-0.45c-0.35-0.3-0.53-0.7-0.53-1.22c0-0.51,0.18-0.92,0.53-1.22
		c0.35-0.3,0.8-0.45,1.35-0.45h0.08c0.55,0,1,0.15,1.35,0.45s0.53,0.7,0.53,1.22c0,0.52-0.18,0.92-0.53,1.22
		c-0.35,0.3-0.8,0.45-1.35,0.45H6.64z M6.72,47.89c0.39,0,0.72-0.08,0.97-0.25c0.26-0.17,0.38-0.41,0.38-0.74
		c0-0.32-0.13-0.57-0.38-0.73s-0.58-0.25-0.97-0.25H6.64c-0.39,0-0.71,0.08-0.97,0.25s-0.39,0.41-0.39,0.74
		c0,0.33,0.13,0.57,0.39,0.74c0.26,0.17,0.58,0.25,0.97,0.25H6.72z"/>
	<path class="st2" d="M3.25,41.64l0.02-0.01c0.26-0.01,0.48,0.08,0.65,0.27c0.17,0.19,0.25,0.44,0.25,0.75
		c0,0.32-0.08,0.57-0.25,0.75c-0.17,0.19-0.38,0.27-0.65,0.26l-0.02-0.01v-0.52c0.15,0,0.27-0.04,0.36-0.12
		c0.09-0.08,0.14-0.2,0.14-0.37c0-0.17-0.05-0.29-0.14-0.37c-0.09-0.08-0.22-0.12-0.36-0.12V41.64z M4.83,42.96h0.43l0.1,0.56h2.09
		l0.01-0.02l-2.62-1.64v-0.68v-0.56h0.43l0.1,0.56H8l0.1-0.56h0.43v1.8H8.09L8,41.85H5.91L5.9,41.87l2.62,1.64v1.24H8.09L8,44.19
		H5.36l-0.1,0.56H4.83v-1.24V42.96z"/>
	<path class="st2" d="M5.26,38.54H4.83v-1.8h0.43l0.1,0.56h1.03v-0.36l-1.04-0.78c-0.19-0.14-0.34-0.28-0.44-0.41
		s-0.15-0.29-0.15-0.45c0-0.11,0.01-0.19,0.04-0.26c0.03-0.07,0.07-0.15,0.12-0.23l0.46,0.1c-0.02,0.1-0.02,0.16-0.03,0.17
		s0,0.05,0,0.09c0,0.08,0.03,0.17,0.09,0.25c0.06,0.08,0.13,0.15,0.22,0.21l0.93,0.72l1.42-1.18l0.09-0.48h0.43v0.91l-1.57,1.26
		v0.44H8l0.1-0.56h0.43v1.8H8.09L8,37.98H5.36L5.26,38.54z"/>
	<path class="st2" d="M5.36,32.98H6.4c0.73,0,1.26,0.1,1.61,0.29s0.51,0.53,0.51,1v0.19l-0.57-0.01l0-0.14
		c0-0.24-0.12-0.41-0.35-0.51c-0.23-0.09-0.63-0.14-1.19-0.14H5.36l-0.1,0.56H4.83v-3.18v-0.56h0.43l0.1,0.56H8l0.1-0.56h0.43v1.8
		H8.09L8,31.71H5.36V32.98z"/>
	<path class="st2" d="M8.09,30.1L8,29.54H5.36l-0.1,0.56H4.83v-1.24h1.56v-0.91c-0.48-0.05-0.88-0.21-1.18-0.51
		c-0.3-0.29-0.45-0.67-0.45-1.15c0-0.51,0.18-0.92,0.53-1.22s0.8-0.45,1.35-0.45h0.08c0.55,0,1,0.15,1.35,0.45s0.53,0.7,0.53,1.22
		c0,0.48-0.16,0.87-0.47,1.17c-0.31,0.29-0.72,0.46-1.22,0.5v0.91H8l0.1-0.56h0.43v1.8H8.09z M6.72,27.27
		c0.39,0,0.72-0.08,0.97-0.25c0.26-0.17,0.38-0.41,0.38-0.74c0-0.32-0.13-0.57-0.38-0.73S7.11,25.3,6.72,25.3H6.64
		c-0.39,0-0.71,0.08-0.97,0.25s-0.39,0.42-0.39,0.74s0.13,0.57,0.39,0.74c0.26,0.17,0.58,0.25,0.97,0.25H6.72z"/>
	<path class="st2" d="M4.82,22.4h0.43l0.1,0.56h0.56c0.3,0,0.51-0.06,0.65-0.19c0.14-0.13,0.21-0.32,0.21-0.57
		c0-0.15-0.01-0.3-0.03-0.43c-0.02-0.14-0.04-0.27-0.08-0.41H5.36l-0.1,0.56H4.83v-1.8h0.43l0.1,0.56H8l0.1-0.56h0.43v1.8H8.09
		L8,21.35H7.2c0.03,0.13,0.06,0.27,0.08,0.41S7.3,22.04,7.3,22.2c0,0.45-0.12,0.8-0.35,1.06c-0.23,0.26-0.58,0.38-1.04,0.38H5.35
		l-0.1,0.56H4.82v-1.24V22.4z"/>
</g>
<g>
	<path class="st2" d="M12.15,36.62c0-0.32,0.08-0.58,0.25-0.76c0.17-0.18,0.38-0.27,0.65-0.27c0.27,0,0.49,0.09,0.66,0.27
		c0.16,0.18,0.25,0.43,0.25,0.76v0.64h0.89l0.06-0.34h0.26v1.09H14.9l-0.06-0.34h-2.37l-0.06,0.34h-0.26v-0.34V36.62z M13.63,37.27
		v-0.64c0-0.21-0.05-0.36-0.16-0.46c-0.11-0.1-0.25-0.15-0.42-0.15s-0.31,0.05-0.42,0.15c-0.11,0.1-0.17,0.26-0.17,0.46v0.64H13.63z
		"/>
	<path class="st2" d="M14.05,34.11v1.02h-0.32v-1.02H14.05z"/>
	<path class="st2" d="M13.18,33.59h-0.26V32.5h0.26l0.06,0.34h0.62v-0.22l-0.63-0.47c-0.12-0.08-0.21-0.17-0.27-0.25
		c-0.06-0.08-0.09-0.17-0.09-0.27c0-0.06,0.01-0.12,0.02-0.16c0.02-0.04,0.04-0.09,0.07-0.14l0.28,0.06
		c-0.01,0.06-0.02,0.09-0.02,0.1c0,0.01,0,0.03,0,0.06c0,0.05,0.02,0.1,0.06,0.15c0.04,0.05,0.08,0.09,0.13,0.13l0.56,0.44
		l0.86-0.71l0.05-0.29h0.26v0.55l-0.95,0.76v0.27h0.63l0.06-0.34h0.26v1.09H14.9l-0.06-0.34h-1.6L13.18,33.59z"/>
	<path class="st2" d="M15.16,29.49c-0.06,0.01-0.12,0.02-0.16,0.03s-0.1,0.01-0.14,0.01c0.1,0.08,0.18,0.18,0.25,0.3
		c0.07,0.12,0.1,0.25,0.1,0.38c0,0.24-0.06,0.41-0.17,0.54c-0.11,0.12-0.27,0.18-0.48,0.18c-0.21,0-0.38-0.09-0.49-0.26
		c-0.12-0.17-0.17-0.41-0.17-0.71v-0.42h-0.26c-0.13,0-0.23,0.04-0.31,0.12c-0.08,0.08-0.11,0.2-0.11,0.35
		c0,0.1,0.01,0.19,0.04,0.27c0.03,0.08,0.06,0.14,0.11,0.19l0.24,0.04v0.32h-0.43c-0.08-0.1-0.15-0.23-0.2-0.37s-0.07-0.3-0.07-0.48
		c0-0.26,0.06-0.46,0.19-0.62c0.13-0.16,0.31-0.24,0.56-0.24h1.08c0.03,0,0.06,0,0.08,0c0.03,0,0.06,0,0.08-0.01l0.02-0.17h0.26
		V29.49z M14.86,30.16c0-0.14-0.03-0.26-0.1-0.37c-0.06-0.11-0.14-0.19-0.23-0.24h-0.37v0.44c0,0.17,0.04,0.3,0.12,0.4
		c0.08,0.1,0.17,0.15,0.28,0.15c0.1,0,0.17-0.03,0.22-0.09S14.86,30.28,14.86,30.16z"/>
	<path class="st2" d="M13.18,28.6h-0.26v-1.09h0.26l0.06,0.34h0.65v-1h-0.65l-0.06,0.34h-0.26v-0.34v-0.41v-0.34h0.26l0.06,0.34h1.6
		l0.06-0.34h0.26v1.09H14.9l-0.06-0.34h-0.63v1h0.63l0.06-0.34h0.26v1.09H14.9l-0.06-0.34h-1.6L13.18,28.6z"/>
	<path class="st2" d="M15.16,24.23c-0.06,0.01-0.12,0.02-0.16,0.03s-0.1,0.01-0.14,0.01c0.1,0.08,0.18,0.18,0.25,0.3
		c0.07,0.12,0.1,0.25,0.1,0.38c0,0.24-0.06,0.41-0.17,0.54c-0.11,0.12-0.27,0.18-0.48,0.18c-0.21,0-0.38-0.09-0.49-0.26
		c-0.12-0.17-0.17-0.41-0.17-0.71v-0.42h-0.26c-0.13,0-0.23,0.04-0.31,0.12c-0.08,0.08-0.11,0.2-0.11,0.35
		c0,0.1,0.01,0.19,0.04,0.27c0.03,0.08,0.06,0.14,0.11,0.19l0.24,0.04v0.32h-0.43c-0.08-0.1-0.15-0.23-0.2-0.37s-0.07-0.3-0.07-0.48
		c0-0.26,0.06-0.46,0.19-0.62c0.13-0.16,0.31-0.24,0.56-0.24h1.08c0.03,0,0.06,0,0.08,0c0.03,0,0.06,0,0.08-0.01l0.02-0.17h0.26
		V24.23z M14.86,24.89c0-0.14-0.03-0.26-0.1-0.37c-0.06-0.11-0.14-0.19-0.23-0.24h-0.37v0.44c0,0.17,0.04,0.3,0.12,0.4
		c0.08,0.1,0.17,0.15,0.28,0.15c0.1,0,0.17-0.03,0.22-0.09S14.86,25.02,14.86,24.89z"/>
	<path class="st2" d="M13.24,22.49h0.63c0.44,0,0.77,0.06,0.97,0.18c0.21,0.12,0.31,0.32,0.31,0.6v0.12l-0.35-0.01l0-0.09
		c0-0.15-0.07-0.25-0.21-0.31s-0.38-0.09-0.72-0.09h-0.63l-0.06,0.34h-0.26v-1.93v-0.34h0.26l0.06,0.34h1.6l0.06-0.34h0.26v1.09
		H14.9l-0.06-0.34h-1.6V22.49z"/>
</g>
<g>
	<path class="st2" d="M69.19,57.62l-2.48-0.87v-0.44l3.01,1.13v0.35l-3.01,1.12v-0.44L69.19,57.62z"/>
</g>
<g>
	<path class="st2" d="M69.19,51.81l-2.48-0.87v-0.44l3.01,1.13v0.35l-3.01,1.12v-0.44L69.19,51.81z"/>
	<path class="st2" d="M66.89,50.16c-0.06,0-0.11-0.02-0.16-0.06s-0.06-0.09-0.06-0.17s0.02-0.13,0.06-0.17s0.09-0.06,0.16-0.06
		c0.06,0,0.11,0.02,0.16,0.06c0.04,0.04,0.06,0.1,0.06,0.17s-0.02,0.13-0.06,0.17C67,50.14,66.95,50.16,66.89,50.16z M69.72,49.74
		v0.39h-2.24v-0.39H69.72z"/>
	<path class="st2" d="M67.48,48.76l0.28-0.01c-0.21-0.17-0.32-0.4-0.32-0.68c0-0.48,0.27-0.72,0.8-0.72h1.48v0.39h-1.48
		c-0.16,0-0.28,0.04-0.36,0.11c-0.08,0.07-0.12,0.19-0.12,0.34c0,0.12,0.03,0.24,0.1,0.33c0.07,0.09,0.15,0.17,0.26,0.22h1.59v0.39
		h-2.24V48.76z"/>
</g>
<g>
	<path class="st2" d="M52.4,37.65l0.87-2.48h0.44l-1.13,3.01h-0.36l-1.12-3.01h0.44L52.4,37.65z"/>
	<path class="st2" d="M54.05,35.35c0-0.06,0.02-0.11,0.06-0.16c0.04-0.04,0.09-0.06,0.17-0.06s0.13,0.02,0.17,0.06
		c0.04,0.04,0.06,0.1,0.06,0.16s-0.02,0.11-0.06,0.16s-0.1,0.06-0.17,0.06s-0.13-0.02-0.17-0.06S54.05,35.41,54.05,35.35z
		 M54.47,38.18h-0.39v-2.24h0.39V38.18z"/>
	<path class="st2" d="M55.45,35.94l0.01,0.28c0.17-0.21,0.4-0.32,0.68-0.32c0.48,0,0.72,0.27,0.72,0.8v1.48h-0.39V36.7
		c0-0.16-0.04-0.28-0.11-0.36c-0.07-0.08-0.19-0.12-0.34-0.12c-0.13,0-0.24,0.03-0.33,0.1c-0.09,0.07-0.17,0.15-0.22,0.26v1.59
		h-0.39v-2.24H55.45z"/>
</g>
<g>
	<path class="st2" d="M27.99,37.65l0.87-2.48h0.44l-1.13,3.01h-0.35l-1.12-3.01h0.44L27.99,37.65z"/>
	<path class="st2" d="M29.54,37.04c0-0.22,0.04-0.42,0.13-0.59s0.21-0.31,0.36-0.41c0.16-0.1,0.33-0.14,0.53-0.14
		c0.31,0,0.56,0.11,0.75,0.32c0.19,0.21,0.29,0.49,0.29,0.84v0.03c0,0.22-0.04,0.41-0.13,0.59s-0.2,0.31-0.36,0.4
		c-0.16,0.1-0.34,0.15-0.54,0.15c-0.31,0-0.55-0.11-0.74-0.32c-0.19-0.21-0.28-0.49-0.28-0.84V37.04z M29.93,37.08
		c0,0.25,0.06,0.45,0.17,0.6s0.27,0.23,0.47,0.23c0.2,0,0.35-0.08,0.47-0.23c0.12-0.15,0.17-0.37,0.17-0.64
		c0-0.25-0.06-0.44-0.18-0.6c-0.12-0.15-0.27-0.23-0.47-0.23c-0.19,0-0.34,0.08-0.46,0.23C29.99,36.59,29.93,36.8,29.93,37.08z"/>
	<path class="st2" d="M33.47,37.96c-0.15,0.17-0.37,0.26-0.66,0.26c-0.24,0-0.42-0.07-0.55-0.21s-0.19-0.34-0.19-0.62v-1.46h0.39
		v1.45c0,0.34,0.14,0.51,0.42,0.51c0.29,0,0.49-0.11,0.59-0.33v-1.63h0.39v2.24h-0.37L33.47,37.96z"/>
	<path class="st2" d="M34.96,35.4v0.54h0.42v0.3h-0.42v1.39c0,0.09,0.02,0.16,0.06,0.2s0.1,0.07,0.19,0.07
		c0.04,0,0.11-0.01,0.18-0.02v0.31c-0.1,0.03-0.2,0.04-0.3,0.04c-0.17,0-0.3-0.05-0.39-0.16c-0.09-0.1-0.13-0.25-0.13-0.44v-1.39
		h-0.41v-0.3h0.41V35.4H34.96z"/>
</g>
<g>
	<path class="st2" d="M37.72,36.56h0.85v0.36h-0.85v0.95h-0.39v-0.95h-0.85v-0.36h0.85v-0.88h0.39V36.56z"/>
</g>
<g>
	<path class="st2" d="M59.5,36.56h0.85v0.36H59.5v0.95h-0.39v-0.95h-0.85v-0.36h0.85v-0.88h0.39V36.56z"/>
</g>
<g>
	<path class="st2" d="M25.87,36.89h-1.91v-0.31h1.91V36.89z"/>
</g>
<g>
	<path class="st2" d="M50,36.89h-1.91v-0.31H50V36.89z"/>
</g>
<g>
	<g id="XMLID_55_">
		<g>
			<rect x="73.75" y="53.82" class="st7" width="8.56" height="3.66"/>
		</g>
		<g>
		</g>
	</g>
	<g id="XMLID_54_">
		<g>
			<rect x="77.1" y="50.77" class="st1" width="1.61" height="2.95"/>
		</g>
		<g>
		</g>
	</g>
	<g id="XMLID_53_">
		<g>
			<rect x="79.83" y="57.48" class="st1" width="1.68" height="3.51"/>
		</g>
		<g>
		</g>
	</g>
	<g id="XMLID_52_">
		<g>
			<rect x="74.34" y="57.48" class="st1" width="1.68" height="3.51"/>
		</g>
		<g>
		</g>
	</g>
	<g>
		<path class="st8" d="M77.08,55.99c0,0.16-0.05,0.28-0.15,0.37c-0.1,0.09-0.23,0.13-0.39,0.13c-0.04,0-0.09,0-0.16-0.01
			c-0.07-0.01-0.12-0.02-0.17-0.03v-0.23h0.01c0.03,0.01,0.08,0.02,0.12,0.04c0.05,0.01,0.1,0.02,0.15,0.02
			c0.08,0,0.14-0.01,0.18-0.03c0.04-0.02,0.08-0.04,0.1-0.07c0.02-0.03,0.04-0.07,0.04-0.12c0.01-0.05,0.01-0.1,0.01-0.16v-1.06
			h-0.39v-0.19h0.63V55.99z"/>
		<path class="st8" d="M78.58,55.59c0.04,0.04,0.07,0.08,0.1,0.13c0.03,0.05,0.04,0.12,0.04,0.21c0,0.08-0.02,0.16-0.05,0.23
			s-0.07,0.13-0.13,0.18c-0.06,0.06-0.13,0.1-0.22,0.13s-0.17,0.04-0.27,0.04c-0.1,0-0.2-0.01-0.3-0.04
			c-0.1-0.02-0.18-0.05-0.24-0.08v-0.25h0.02c0.07,0.05,0.15,0.08,0.25,0.11c0.09,0.03,0.19,0.04,0.27,0.04
			c0.05,0,0.11-0.01,0.16-0.03c0.06-0.02,0.11-0.04,0.14-0.08c0.04-0.04,0.07-0.08,0.08-0.12c0.02-0.04,0.03-0.1,0.03-0.16
			s-0.01-0.12-0.03-0.16s-0.05-0.08-0.09-0.1c-0.04-0.03-0.08-0.04-0.13-0.05c-0.05-0.01-0.11-0.01-0.17-0.01h-0.11v-0.2h0.09
			c0.12,0,0.22-0.03,0.3-0.08s0.11-0.13,0.11-0.23c0-0.04-0.01-0.08-0.03-0.12c-0.02-0.03-0.05-0.06-0.08-0.08
			c-0.04-0.02-0.07-0.04-0.11-0.04c-0.04-0.01-0.09-0.01-0.14-0.01c-0.08,0-0.16,0.01-0.25,0.04s-0.17,0.07-0.25,0.12h-0.01v-0.25
			c0.06-0.03,0.14-0.05,0.23-0.08c0.1-0.02,0.19-0.04,0.28-0.04c0.09,0,0.17,0.01,0.24,0.02s0.13,0.04,0.18,0.08
			c0.06,0.04,0.1,0.09,0.13,0.14c0.03,0.06,0.04,0.12,0.04,0.19c0,0.1-0.04,0.19-0.11,0.26s-0.16,0.12-0.25,0.14v0.02
			c0.04,0.01,0.08,0.02,0.13,0.04S78.55,55.56,78.58,55.59z"/>
		<path class="st8" d="M80.45,54.65l-0.65,1.02v0.8h-0.24v-0.77l-0.65-1.05h0.27l0.5,0.81l0.51-0.81H80.45z"/>
	</g>
</g>
<g>
	<g id="XMLID_7_">
		<g>
			<rect x="26.41" y="40.51" class="st7" width="19.56" height="19.22"/>
		</g>
		<g>
		</g>
	</g>
	<g id="XMLID_5_">
		<g>
			<rect x="45.97" y="42.42" class="st1" width="7.3" height="3.69"/>
		</g>
		<g>
		</g>
	</g>
	<g id="XMLID_4_">
		<g>
			<rect x="45.97" y="54.47" class="st1" width="7.3" height="3.69"/>
		</g>
		<g>
		</g>
	</g>
	<path class="st1" d="M24.78,59.72h1.63V40.51h-1.63c-1.1,0-1.98,0.89-1.98,1.98v15.25C22.8,58.83,23.69,59.72,24.78,59.72z"/>
	<g>
		<path class="st9" d="M29.86,57.86v-1.43h0.29v1.09h0.88v-1h0.28v1h1.2v0.34H29.86z"/>
		<path class="st9" d="M29.9,55.95c-0.03-0.21-0.05-0.46-0.05-0.73c0-0.49,0.11-0.84,0.33-1.08c0.22-0.24,0.52-0.37,0.95-0.37
			c0.43,0,0.79,0.13,1.03,0.38c0.25,0.25,0.38,0.66,0.38,1.17c0,0.24-0.01,0.45-0.03,0.62H29.9z M32.24,55.6
			c0.02-0.09,0.02-0.21,0.02-0.35c0-0.73-0.41-1.13-1.13-1.13c-0.63,0-1.02,0.35-1.02,1.08c0,0.18,0.02,0.31,0.04,0.4H32.24z"/>
		<path class="st9" d="M29.9,53.32c-0.03-0.21-0.05-0.46-0.05-0.73c0-0.49,0.11-0.84,0.33-1.08c0.22-0.24,0.52-0.37,0.95-0.37
			c0.43,0,0.79,0.13,1.03,0.38c0.25,0.25,0.38,0.66,0.38,1.17c0,0.24-0.01,0.45-0.03,0.62H29.9z M32.24,52.98
			c0.02-0.09,0.02-0.21,0.02-0.35c0-0.73-0.41-1.13-1.13-1.13c-0.63,0-1.02,0.35-1.02,1.08c0,0.18,0.02,0.31,0.04,0.4H32.24z"/>
		<path class="st9" d="M30.2,49.36c0,0.07,0,0.16,0.02,0.26c0.09,0.54,0.49,0.83,0.91,0.89V50.5c-0.16-0.12-0.3-0.33-0.3-0.62
			c0-0.45,0.33-0.77,0.83-0.77c0.47,0,0.9,0.32,0.9,0.85c0,0.55-0.43,0.91-1.09,0.91c-0.5,0-0.9-0.18-1.15-0.43
			c-0.21-0.21-0.34-0.5-0.38-0.82c-0.02-0.1-0.02-0.19-0.02-0.25H30.2z M31.68,49.46c-0.37,0-0.59,0.21-0.59,0.53
			c0,0.21,0.13,0.4,0.31,0.5c0.04,0.02,0.09,0.04,0.15,0.04c0.42-0.01,0.73-0.2,0.73-0.56C32.29,49.66,32.04,49.46,31.68,49.46z"/>
		<path class="st9" d="M30.2,47.34c0,0.07,0,0.16,0.02,0.26c0.09,0.54,0.49,0.83,0.91,0.89v-0.01c-0.16-0.12-0.3-0.33-0.3-0.62
			c0-0.45,0.33-0.77,0.83-0.77c0.47,0,0.9,0.32,0.9,0.85c0,0.55-0.43,0.91-1.09,0.91c-0.5,0-0.9-0.18-1.15-0.43
			c-0.21-0.21-0.34-0.5-0.38-0.82c-0.02-0.1-0.02-0.19-0.02-0.25H30.2z M31.68,47.44c-0.37,0-0.59,0.21-0.59,0.53
			c0,0.21,0.13,0.4,0.31,0.5c0.04,0.02,0.09,0.04,0.15,0.04c0.42-0.01,0.73-0.2,0.73-0.56C32.29,47.64,32.04,47.44,31.68,47.44z"/>
		<path class="st9" d="M32.12,46.7c0.06-0.1,0.16-0.33,0.16-0.57c0-0.44-0.28-0.58-0.5-0.58c-0.36,0-0.51,0.33-0.51,0.66v0.19h-0.26
			v-0.19c0-0.25-0.13-0.57-0.43-0.57c-0.2,0-0.39,0.13-0.39,0.45c0,0.21,0.09,0.4,0.17,0.51l-0.25,0.09c-0.1-0.13-0.2-0.39-0.2-0.67
			c0-0.5,0.3-0.73,0.61-0.73c0.26,0,0.49,0.16,0.6,0.47h0.01c0.06-0.31,0.3-0.57,0.66-0.57c0.41,0,0.77,0.32,0.77,0.93
			c0,0.29-0.09,0.54-0.17,0.67L32.12,46.7z"/>
		<path class="st9" d="M29.96,43.1h0.23l2.33,1.11v0.36l-2.26-1.11h-0.01v1.25h-0.29V43.1z"/>
	</g>
</g>
<g>
	<g id="XMLID_11_">
		<g>
			<rect x="72.62" y="44.44" class="st10" width="3.44" height="4.26"/>
		</g>
		<g>
		</g>
	</g>
	<g id="XMLID_10_">
		<g>
			<rect x="79.74" y="44.4" class="st10" width="3.44" height="4.26"/>
		</g>
		<g>
		</g>
	</g>
	<g id="XMLID_9_">
		<g>
			<rect x="75.35" y="44.75" class="st7" width="5.16" height="3.61"/>
		</g>
		<g>
		</g>
	</g>
	<g>
		<path class="st8" d="M77.36,47.1h-0.7v-0.13h0.27V46.1h-0.27v-0.12c0.04,0,0.08,0,0.12-0.01c0.04-0.01,0.07-0.01,0.09-0.03
			c0.03-0.01,0.05-0.03,0.06-0.05c0.02-0.02,0.02-0.05,0.03-0.09h0.13v1.16h0.26V47.1z"/>
		<path class="st8" d="M78.37,46.45c0,0.23-0.04,0.4-0.11,0.51c-0.07,0.11-0.18,0.16-0.34,0.16c-0.15,0-0.27-0.05-0.34-0.16
			c-0.07-0.11-0.11-0.28-0.11-0.5c0-0.23,0.04-0.4,0.11-0.51c0.07-0.11,0.18-0.16,0.34-0.16c0.15,0,0.27,0.06,0.34,0.17
			C78.34,46.06,78.37,46.23,78.37,46.45z M78.15,46.84c0.02-0.05,0.03-0.1,0.04-0.17s0.01-0.14,0.01-0.23c0-0.09,0-0.16-0.01-0.23
			s-0.02-0.12-0.04-0.16c-0.02-0.04-0.05-0.08-0.08-0.1s-0.08-0.03-0.13-0.03s-0.1,0.01-0.13,0.03s-0.06,0.06-0.08,0.1
			c-0.02,0.04-0.03,0.1-0.04,0.17c-0.01,0.07-0.01,0.14-0.01,0.23c0,0.09,0,0.17,0.01,0.23c0.01,0.06,0.02,0.11,0.04,0.16
			c0.02,0.04,0.04,0.08,0.08,0.1c0.04,0.02,0.08,0.04,0.14,0.04c0.05,0,0.1-0.01,0.13-0.03S78.13,46.89,78.15,46.84z"/>
		<path class="st8" d="M79.32,47.1h-0.87v-0.18c0.06-0.05,0.12-0.1,0.18-0.16c0.06-0.05,0.12-0.1,0.17-0.15
			c0.11-0.11,0.19-0.19,0.23-0.26s0.06-0.13,0.06-0.2c0-0.07-0.02-0.12-0.07-0.16s-0.11-0.06-0.18-0.06c-0.05,0-0.11,0.01-0.17,0.03
			s-0.12,0.05-0.18,0.08h-0.01v-0.18c0.04-0.02,0.1-0.04,0.16-0.05c0.07-0.02,0.13-0.03,0.2-0.03c0.13,0,0.24,0.03,0.31,0.1
			c0.08,0.06,0.11,0.15,0.11,0.26c0,0.05-0.01,0.09-0.02,0.14c-0.01,0.04-0.03,0.08-0.05,0.12c-0.02,0.04-0.05,0.07-0.08,0.11
			c-0.03,0.03-0.07,0.07-0.11,0.11c-0.06,0.06-0.12,0.12-0.19,0.18c-0.06,0.06-0.13,0.11-0.18,0.16h0.69V47.1z"/>
	</g>
</g>
<g>
	<g id="XMLID_14_">
		<g>
			<rect x="72.62" y="37.28" class="st10" width="3.44" height="4.26"/>
		</g>
		<g>
		</g>
	</g>
	<g id="XMLID_13_">
		<g>
			<rect x="79.74" y="37.24" class="st10" width="3.44" height="4.26"/>
		</g>
		<g>
		</g>
	</g>
	<g id="XMLID_12_">
		<g>
			<rect x="75.35" y="37.59" class="st7" width="5.16" height="3.61"/>
		</g>
		<g>
		</g>
	</g>
	<g>
		<path class="st8" d="M77.36,39.94h-0.7v-0.13h0.27v-0.86h-0.27v-0.12c0.04,0,0.08,0,0.12-0.01c0.04-0.01,0.07-0.01,0.09-0.03
			c0.03-0.01,0.05-0.03,0.06-0.05c0.02-0.02,0.02-0.05,0.03-0.09h0.13v1.16h0.26V39.94z"/>
		<path class="st8" d="M78.37,39.3c0,0.23-0.04,0.4-0.11,0.51s-0.18,0.16-0.34,0.16c-0.15,0-0.27-0.05-0.34-0.16
			c-0.07-0.11-0.11-0.28-0.11-0.5c0-0.23,0.04-0.4,0.11-0.51c0.07-0.11,0.18-0.16,0.34-0.16c0.15,0,0.27,0.06,0.34,0.17
			C78.34,38.91,78.37,39.07,78.37,39.3z M78.15,39.69c0.02-0.05,0.03-0.1,0.04-0.16c0.01-0.06,0.01-0.14,0.01-0.23
			c0-0.09,0-0.16-0.01-0.23s-0.02-0.12-0.04-0.16c-0.02-0.04-0.05-0.08-0.08-0.1s-0.08-0.03-0.13-0.03s-0.1,0.01-0.13,0.03
			s-0.06,0.06-0.08,0.1c-0.02,0.04-0.03,0.1-0.04,0.17c-0.01,0.07-0.01,0.14-0.01,0.23c0,0.09,0,0.17,0.01,0.23
			c0.01,0.06,0.02,0.11,0.04,0.16c0.02,0.04,0.04,0.08,0.08,0.1c0.04,0.02,0.08,0.04,0.14,0.04c0.05,0,0.1-0.01,0.13-0.03
			S78.13,39.74,78.15,39.69z"/>
		<path class="st8" d="M79.32,39.94h-0.87v-0.18c0.06-0.05,0.12-0.1,0.18-0.16c0.06-0.05,0.12-0.1,0.17-0.15
			c0.11-0.11,0.19-0.19,0.23-0.26c0.04-0.06,0.06-0.13,0.06-0.2c0-0.07-0.02-0.12-0.07-0.16c-0.04-0.04-0.11-0.06-0.18-0.06
			c-0.05,0-0.11,0.01-0.17,0.03s-0.12,0.05-0.18,0.08h-0.01v-0.18c0.04-0.02,0.1-0.04,0.16-0.06c0.07-0.02,0.13-0.03,0.2-0.03
			c0.13,0,0.24,0.03,0.31,0.1c0.08,0.06,0.11,0.15,0.11,0.26c0,0.05-0.01,0.09-0.02,0.14c-0.01,0.04-0.03,0.08-0.05,0.12
			c-0.02,0.04-0.05,0.07-0.08,0.11c-0.03,0.03-0.07,0.07-0.11,0.11c-0.06,0.06-0.12,0.12-0.19,0.18c-0.06,0.06-0.13,0.11-0.18,0.16
			h0.69V39.94z"/>
	</g>
</g>
<g>
	<g id="XMLID_17_">
		<g>
			<rect x="72.62" y="23.08" class="st10" width="3.44" height="4.26"/>
		</g>
		<g>
		</g>
	</g>
	<g id="XMLID_16_">
		<g>
			<rect x="79.74" y="23.04" class="st10" width="3.44" height="4.26"/>
		</g>
		<g>
		</g>
	</g>
	<g id="XMLID_15_">
		<g>
			<rect x="75.35" y="23.39" class="st7" width="5.16" height="3.61"/>
		</g>
		<g>
		</g>
	</g>
	<g>
		<path class="st8" d="M77.46,25.37h-0.19v0.36H77.1v-0.36h-0.62v-0.2l0.62-0.73h0.16v0.79h0.19V25.37z M77.1,25.24v-0.58l-0.5,0.58
			H77.1z"/>
		<path class="st8" d="M78.38,24.64l-0.58,1.09h-0.18l0.62-1.14H77.5v-0.15h0.88V24.64z"/>
		<path class="st8" d="M79.32,25.74h-0.87v-0.18c0.06-0.05,0.12-0.1,0.18-0.16c0.06-0.05,0.12-0.1,0.17-0.15
			c0.11-0.11,0.19-0.19,0.23-0.26c0.04-0.06,0.06-0.13,0.06-0.2c0-0.07-0.02-0.12-0.07-0.16c-0.04-0.04-0.11-0.06-0.18-0.06
			c-0.05,0-0.11,0.01-0.17,0.03s-0.12,0.05-0.18,0.08h-0.01V24.5c0.04-0.02,0.1-0.04,0.16-0.06c0.07-0.02,0.13-0.03,0.2-0.03
			c0.13,0,0.24,0.03,0.31,0.1c0.08,0.06,0.11,0.15,0.11,0.26c0,0.05-0.01,0.09-0.02,0.14c-0.01,0.04-0.03,0.08-0.05,0.12
			c-0.02,0.04-0.05,0.07-0.08,0.11c-0.03,0.03-0.07,0.07-0.11,0.11c-0.06,0.06-0.12,0.12-0.19,0.18c-0.06,0.06-0.13,0.11-0.18,0.16
			h0.69V25.74z"/>
	</g>
</g>
<g>
	<g id="XMLID_20_">
		<g>
			<rect x="72.65" y="62.39" class="st10" width="3.44" height="4.26"/>
		</g>
		<g>
		</g>
	</g>
	<g id="XMLID_19_">
		<g>
			<rect x="79.78" y="62.35" class="st10" width="3.44" height="4.26"/>
		</g>
		<g>
		</g>
	</g>
	<g id="XMLID_18_">
		<g>
			<rect x="75.38" y="62.7" class="st7" width="5.16" height="3.61"/>
		</g>
		<g>
		</g>
	</g>
	<g>
		<path class="st8" d="M77.49,64.69H77.3v0.36h-0.17v-0.36h-0.62v-0.2l0.62-0.73h0.16v0.79h0.19V64.69z M77.13,64.55v-0.58
			l-0.5,0.58H77.13z"/>
		<path class="st8" d="M78.41,63.96l-0.58,1.09h-0.18l0.62-1.14h-0.73v-0.15h0.88V63.96z"/>
		<path class="st8" d="M79.36,65.05h-0.87v-0.18c0.06-0.05,0.12-0.1,0.18-0.16c0.06-0.05,0.12-0.1,0.17-0.15
			c0.11-0.11,0.19-0.19,0.23-0.26c0.04-0.06,0.06-0.13,0.06-0.2c0-0.07-0.02-0.12-0.07-0.16c-0.04-0.04-0.11-0.06-0.18-0.06
			c-0.05,0-0.11,0.01-0.17,0.03s-0.12,0.05-0.18,0.08h-0.01v-0.18c0.04-0.02,0.1-0.04,0.16-0.06s0.13-0.03,0.2-0.03
			c0.13,0,0.24,0.03,0.31,0.1c0.08,0.06,0.11,0.15,0.11,0.26c0,0.05-0.01,0.09-0.02,0.14c-0.01,0.04-0.03,0.08-0.05,0.12
			c-0.02,0.04-0.05,0.07-0.08,0.11s-0.07,0.07-0.11,0.12c-0.06,0.06-0.12,0.12-0.19,0.18c-0.06,0.06-0.13,0.11-0.18,0.16h0.69V65.05
			z"/>
	</g>
</g>
<g>
	<rect x="21.19" y="65.25" class="st11" width="4.38" height="2.66"/>
	<rect x="21.19" y="68.27" class="st11" width="4.38" height="2.66"/>
	<g>
		<path class="st0" d="M23.15,68.58c0.26,0,0.48,0.04,0.68,0.13s0.34,0.21,0.44,0.37c0.1,0.16,0.15,0.34,0.15,0.56
			c0,0.21-0.05,0.39-0.15,0.55c-0.1,0.16-0.25,0.29-0.44,0.37c-0.19,0.09-0.41,0.13-0.66,0.14h-0.19c-0.25,0-0.48-0.04-0.67-0.13
			c-0.19-0.09-0.34-0.21-0.45-0.37c-0.1-0.16-0.15-0.35-0.15-0.55c0-0.21,0.05-0.4,0.15-0.56c0.1-0.16,0.25-0.29,0.44-0.37
			s0.42-0.13,0.68-0.13H23.15z M22.98,68.93c-0.31,0-0.55,0.06-0.72,0.19c-0.17,0.13-0.25,0.3-0.25,0.53c0,0.22,0.08,0.39,0.25,0.52
			c0.17,0.13,0.4,0.19,0.7,0.2h0.19c0.3,0,0.54-0.06,0.71-0.19s0.26-0.3,0.26-0.53c0-0.22-0.08-0.4-0.25-0.52
			c-0.16-0.12-0.4-0.19-0.7-0.19H22.98z"/>
		<path class="st0" d="M24.39,65.66v0.35l-2.03,1.33h2.03v0.35h-2.64v-0.35l2.04-1.33h-2.04v-0.35H24.39z"/>
	</g>
	<g>
		<g id="XMLID_8_">
			<g>
				<rect x="25.97" y="70.48" class="st10" width="4.26" height="3.44"/>
			</g>
			<g>
			</g>
		</g>
		<g id="XMLID_6_">
			<g>
				<rect x="26.01" y="63.35" class="st10" width="4.26" height="3.44"/>
			</g>
			<g>
			</g>
		</g>
	</g>
	<path class="st12" d="M28.14,65.96c0.29,0,0.6-0.14,0.69-0.43c0.02-0.06,1.43-0.06,1.43-0.06s0,0.74,0,1.48h-4.26
		c0-0.74,0-1.48,0-1.48s1.41,0,1.43,0.06C27.53,65.82,27.84,65.96,28.14,65.96"/>
	<path class="st12" d="M28.14,71.25c0.29,0,0.6,0.14,0.69,0.43c0.02,0.06,1.43,0.06,1.43,0.06s0-0.74,0-1.48h-4.26
		c0,0.74,0,1.48,0,1.48s1.41,0,1.43-0.06C27.53,71.39,27.84,71.25,28.14,71.25"/>
	
		<rect x="26.48" y="66.48" transform="matrix(4.498783e-11 1 -1 4.498783e-11 96.7407 40.4683)" class="st13" width="3.32" height="4.26"/>
	
		<rect x="26.48" y="66.48" transform="matrix(4.498783e-11 1 -1 4.498783e-11 96.7407 40.4683)" class="st14" width="3.32" height="4.26"/>
	<line class="st15" x1="25.39" y1="62.48" x2="30.88" y2="62.48"/>
</g>
<g id="Клеммник">
	<polyline class="st11" points="40.8,8.11 19.45,8.11 19.45,0 40.8,0 	"/>
	<polyline class="st11" points="40.8,0 42.69,0 42.69,8.11 40.8,8.11 	"/>
	<polyline class="st16" points="40.8,33.79 19.45,33.79 19.45,8.11 40.8,8.11 	"/>
	<polyline class="st16" points="40.8,8.11 42.69,8.11 42.69,33.79 40.8,33.79 	"/>
	<rect x="21.95" y="24.15" class="st9" width="8.24" height="2.06"/>
	<rect x="31.95" y="24.15" class="st9" width="8.24" height="2.06"/>
	<path class="st17" d="M21.34,16.15"/>
	<path class="st17" d="M31.34,16.15"/>
	<path class="st17" d="M21.34,16.15"/>
	<path class="st16" d="M43.6,31.08h-0.91v-2.7h0.91c0.09,0,0.17,0.08,0.17,0.17v2.36C43.77,31.01,43.7,31.08,43.6,31.08z"/>
	<path class="st16" d="M43.6,10.97h-0.91v-2.7h0.91c0.09,0,0.17,0.08,0.17,0.17v2.36C43.77,10.9,43.7,10.97,43.6,10.97z"/>
	<g>
		<path class="st18" d="M21.34,19.36v-3.8h7.84c0.15,0,0.27,0.17,0.27,0.38v3.04c0,0.21-0.12,0.38-0.27,0.38
			C27.22,19.36,21.34,19.36,21.34,19.36z"/>
		<path class="st19" d="M29.18,18.85l-7.57,0c-0.15,0-0.27,0.12-0.27,0.27v4.66h9.46V11.22h-9.46v4.66c0,0.15,0.12,0.27,0.27,0.27
			l7.57,0V18.85z"/>
	</g>
	<g>
		<path class="st18" d="M31.34,19.36v-3.8h7.84c0.15,0,0.27,0.17,0.27,0.38v3.04c0,0.21-0.12,0.38-0.27,0.38
			C37.22,19.36,31.34,19.36,31.34,19.36z"/>
		<path class="st19" d="M39.18,18.85l-7.57,0c-0.15,0-0.27,0.12-0.27,0.27v4.66h9.46V11.22h-9.46v4.66c0,0.15,0.12,0.27,0.27,0.27
			l7.57,0V18.85z"/>
	</g>
</g>
<g id="Клеммник_1_">
	<polyline class="st11" points="64.05,8.11 42.69,8.11 42.69,0 64.05,0 	"/>
	<polyline class="st11" points="64.05,0 65.94,0 65.94,8.11 64.05,8.11 	"/>
	<polyline class="st16" points="64.05,33.79 42.69,33.79 42.69,8.11 64.05,8.11 	"/>
	<polyline class="st16" points="64.05,8.11 65.94,8.11 65.94,33.79 64.05,33.79 	"/>
	<rect x="45.19" y="24.15" class="st9" width="8.24" height="2.06"/>
	<rect x="55.19" y="24.15" class="st9" width="8.24" height="2.06"/>
	<path class="st17" d="M44.58,16.15"/>
	<path class="st17" d="M54.59,16.15"/>
	<path class="st17" d="M44.58,16.15"/>
	<path class="st16" d="M66.85,31.08h-0.91v-2.7h0.91c0.09,0,0.17,0.08,0.17,0.17v2.36C67.02,31.01,66.94,31.08,66.85,31.08z"/>
	<path class="st16" d="M66.85,10.97h-0.91v-2.7h0.91c0.09,0,0.17,0.08,0.17,0.17v2.36C67.02,10.9,66.94,10.97,66.85,10.97z"/>
	<g>
		<path class="st18" d="M44.58,19.36v-3.8h7.84c0.15,0,0.27,0.17,0.27,0.38v3.04c0,0.21-0.12,0.38-0.27,0.38
			C50.46,19.36,44.58,19.36,44.58,19.36z"/>
		<path class="st19" d="M52.42,18.85l-7.57,0c-0.15,0-0.27,0.12-0.27,0.27v4.66h9.46V11.22h-9.46v4.66c0,0.15,0.12,0.27,0.27,0.27
			l7.57,0V18.85z"/>
	</g>
	<g>
		<path class="st18" d="M54.59,19.36v-3.8h7.84c0.15,0,0.27,0.17,0.27,0.38v3.04c0,0.21-0.12,0.38-0.27,0.38
			C60.46,19.36,54.59,19.36,54.59,19.36z"/>
		<path class="st19" d="M62.42,18.85l-7.57,0c-0.15,0-0.27,0.12-0.27,0.27v4.66h9.46V11.22h-9.46v4.66c0,0.15,0.12,0.27,0.27,0.27
			l7.57,0V18.85z"/>
	</g>
</g>
<rect x="63.61" y="46.75" class="st19" width="2.28" height="14.4"/>
<g id="I2C">
	<g>
		<g>
			<g>
				<g>
					<polygon class="st20" points="58.61,61.16 57.34,59.88 57.34,55.35 58.62,54.08 63.15,54.08 64.42,55.36 64.42,59.89 
						63.15,61.16 					"/>
					<path class="st21" d="M63.15,54.09l0.73,0.73l0.54,0.54v4.53l-0.35,0.35l-0.92,0.92h-4.53l-1.27-1.27v-4.53l1.27-1.27H63.15
						 M63.15,54.08h-4.54c-0.5,0.5-0.78,0.78-1.28,1.28v4.54c0.5,0.5,0.78,0.78,1.28,1.28h4.54c0.5-0.5,0.78-0.78,1.28-1.28v-4.54
						C63.93,54.85,63.65,54.57,63.15,54.08L63.15,54.08z"/>
				</g>
			</g>
			
				<rect x="60" y="56.71" transform="matrix(6.123234e-17 -1 1 6.123234e-17 3.2624 118.5022)" class="st22" width="1.77" height="1.81"/>
			
				<rect x="60.4" y="57.12" transform="matrix(6.123234e-17 -1 1 6.123234e-17 3.2624 118.5022)" class="st23" width="0.97" height="0.99"/>
			<line class="st24" x1="59.98" y1="58.5" x2="60.39" y2="58.1"/>
			<line class="st24" x1="60.39" y1="57.14" x2="59.98" y2="56.74"/>
			<line class="st24" x1="61.38" y1="57.14" x2="61.79" y2="56.74"/>
			<line class="st24" x1="61.38" y1="58.1" x2="61.79" y2="58.5"/>
		</g>
	</g>
	<g>
		<g>
			<g>
				<g>
					<polygon class="st20" points="58.61,53.99 57.34,52.71 57.34,48.18 58.62,46.91 63.15,46.91 64.42,48.18 64.42,52.72 
						63.15,53.99 					"/>
					<path class="st21" d="M63.15,46.92l0.73,0.73l0.54,0.54v4.53l-0.35,0.35l-0.92,0.92h-4.53l-1.27-1.27v-4.53l1.27-1.27H63.15
						 M63.15,46.91h-4.54c-0.5,0.5-0.78,0.78-1.28,1.28v4.54c0.5,0.5,0.78,0.78,1.28,1.28h4.54c0.5-0.5,0.78-0.78,1.28-1.28v-4.54
						C63.93,47.68,63.65,47.4,63.15,46.91L63.15,46.91z"/>
				</g>
			</g>
			
				<rect x="60" y="49.54" transform="matrix(6.123234e-17 -1 1 6.123234e-17 10.4338 111.3308)" class="st22" width="1.77" height="1.81"/>
			
				<rect x="60.4" y="49.95" transform="matrix(6.123234e-17 -1 1 6.123234e-17 10.4338 111.3308)" class="st23" width="0.97" height="0.99"/>
			<line class="st24" x1="59.98" y1="51.33" x2="60.39" y2="50.93"/>
			<line class="st24" x1="60.39" y1="49.97" x2="59.98" y2="49.56"/>
			<line class="st24" x1="61.38" y1="49.97" x2="61.79" y2="49.56"/>
			<line class="st24" x1="61.38" y1="50.93" x2="61.79" y2="51.33"/>
		</g>
	</g>
	<g>
		<g>
			<g>
				<g>
					<polygon class="st20" points="58.61,46.82 57.34,45.55 57.34,41.02 58.62,39.74 63.15,39.75 64.42,41.02 64.42,45.55 
						63.15,46.82 					"/>
					<path class="st21" d="M63.15,39.75l0.73,0.73l0.54,0.54v4.53l-0.54,0.54l-0.73,0.73h-4.53l-1.27-1.27v-4.53l1.27-1.27H63.15
						 M63.15,39.74h-4.54c-0.5,0.5-0.78,0.78-1.28,1.28v4.54c0.5,0.5,0.78,0.78,1.28,1.28h4.54c0.5-0.5,0.78-0.78,1.28-1.28v-4.54
						C63.93,40.52,63.65,40.24,63.15,39.74L63.15,39.74z"/>
				</g>
			</g>
			
				<rect x="60" y="42.38" transform="matrix(6.123234e-17 -1 1 6.123234e-17 17.5975 104.1671)" class="st22" width="1.77" height="1.81"/>
			
				<rect x="60.4" y="42.79" transform="matrix(6.123234e-17 -1 1 6.123234e-17 17.5975 104.1671)" class="st23" width="0.97" height="0.99"/>
			<line class="st24" x1="59.98" y1="44.17" x2="60.39" y2="43.77"/>
			<line class="st24" x1="60.39" y1="42.8" x2="59.98" y2="42.4"/>
			<line class="st24" x1="61.38" y1="42.8" x2="61.79" y2="42.4"/>
			<line class="st24" x1="61.38" y1="43.77" x2="61.79" y2="44.17"/>
		</g>
	</g>
</g>
<circle class="st11" cx="13.93" cy="57.31" r="1.96"/>
<polygon class="st11" points="14.59,53.97 14.59,55.88 13.27,55.88 13.27,52.88 "/>
<path class="st0" d="M13.96,56.59L13.96,56.59c-0.32,0-0.58,0.26-0.58,0.58v2.65c0,0.32,0.26,0.58,0.58,0.58h0
	c0.32,0,0.58-0.26,0.58-0.58v-2.65C14.54,56.85,14.28,56.59,13.96,56.59z"/>
<circle class="st11" cx="13.93" cy="43.25" r="1.96"/>
<polygon class="st11" points="13.27,46.58 13.27,44.67 14.59,44.67 14.59,47.68 "/>
<path class="st0" d="M13.9,43.96L13.9,43.96c0.32,0,0.58-0.26,0.58-0.58v-2.65c0-0.32-0.26-0.58-0.58-0.58h0
	c-0.32,0-0.58,0.26-0.58,0.58v2.65C13.32,43.7,13.58,43.96,13.9,43.96z"/>
<polygon class="st11" points="14.65,50.77 14.59,53.09 10.81,50.05 10.81,47.65 13.27,50.11 13.33,47.41 16.75,50.77 16.75,49.45 
	18.01,52.87 15.37,52.33 16.15,51.93 16.09,51.97 14.71,50.83 "/>
<rect x="54.91" y="65.44" class="st2" width="6.2" height="6.2"/>
<g>
	<path class="st25" d="M57.82,66.73c0.52,0,0.94,0.16,1.26,0.48c0.32,0.32,0.48,0.73,0.48,1.24v0.54c0,0.51-0.16,0.92-0.48,1.24
		s-0.74,0.48-1.26,0.48h-1.68v-0.34l0.45-0.08v-3.13l-0.45-0.08v-0.35h0.45H57.82z M57.13,67.15v3.13h0.69
		c0.37,0,0.66-0.12,0.88-0.36c0.21-0.24,0.32-0.55,0.32-0.93v-0.55c0-0.37-0.11-0.68-0.32-0.92c-0.21-0.24-0.51-0.36-0.88-0.36
		H57.13z"/>
</g>
<g>
	<path class="st11" d="M68.43,61.56l-3.94,2.25c-0.59,0.37-0.61,1.03,0,1.36l3.93,2.23c0.48,0.26,0.94-0.08,0.94-0.59v-4.66
		C69.36,61.71,68.91,61.41,68.43,61.56z"/>
	<path class="st0" d="M68.23,62.22l-3.08,1.76c-0.77,0.39-0.72,0.65,0,1.06l3.08,1.75c0.55,0.36,0.78,0.16,0.73-0.46l-0.01-3.65
		C68.94,62.04,68.66,61.96,68.23,62.22z"/>
	<path class="st11" d="M68.08,62.56l-2.59,1.48c-0.65,0.33-0.61,0.55,0,0.89l2.59,1.47c0.47,0.3,0.65,0.14,0.62-0.39l-0.01-3.07
		C68.68,62.42,68.45,62.34,68.08,62.56z"/>
	<g>
		<path d="M67.51,64.38v0.07l-0.87,0.12c-0.35,0.05-0.64,0.07-0.87,0.07c-0.07,0-0.14-0.02-0.19-0.06c-0.05-0.04-0.08-0.1-0.08-0.17
			c0-0.15,0.1-0.22,0.29-0.22c0.23,0,0.52,0.02,0.86,0.07L67.51,64.38z M67.83,64.42c0-0.06,0.02-0.11,0.06-0.15
			c0.04-0.04,0.09-0.07,0.15-0.07c0.06,0,0.11,0.02,0.16,0.06c0.04,0.04,0.06,0.09,0.06,0.15c0,0.06-0.02,0.11-0.07,0.15
			c-0.05,0.04-0.1,0.06-0.16,0.06c-0.05,0-0.1-0.02-0.15-0.07C67.85,64.52,67.83,64.47,67.83,64.42z"/>
	</g>
</g>
<g id="Джампер_3_">
	<g>
		
			<linearGradient id="SVGID_1_" gradientUnits="userSpaceOnUse" x1="-184.6676" y1="59.9341" x2="-182.4546" y2="59.9341" gradientTransform="matrix(-1 0 0 -1 -122.5374 118.5489)">
			<stop  offset="0.1838" style="stop-color:#EC6642"/>
			<stop  offset="0.2123" style="stop-color:#EE7043"/>
			<stop  offset="0.2324" style="stop-color:#EF7944"/>
			<stop  offset="0.3243" style="stop-color:#F08143"/>
			<stop  offset="0.4765" style="stop-color:#F19540"/>
			<stop  offset="0.5521" style="stop-color:#F2A13D"/>
			<stop  offset="0.9944" style="stop-color:#CD7344"/>
			<stop  offset="1" style="stop-color:#E9C33C"/>
		</linearGradient>
		<line class="st26" x1="62.13" y1="58.61" x2="59.92" y2="58.61"/>
		
			<linearGradient id="SVGID_2_" gradientUnits="userSpaceOnUse" x1="-184.6868" y1="61.9212" x2="-182.4738" y2="61.9212" gradientTransform="matrix(-1 0 0 -1 -122.5374 118.5489)">
			<stop  offset="0.1838" style="stop-color:#EC6642"/>
			<stop  offset="0.2123" style="stop-color:#EE7043"/>
			<stop  offset="0.2324" style="stop-color:#EF7944"/>
			<stop  offset="0.3243" style="stop-color:#F08143"/>
			<stop  offset="0.4765" style="stop-color:#F19540"/>
			<stop  offset="0.5521" style="stop-color:#F2A13D"/>
			<stop  offset="0.9944" style="stop-color:#CD7344"/>
			<stop  offset="1" style="stop-color:#E9C33C"/>
		</linearGradient>
		<line class="st27" x1="62.15" y1="56.63" x2="59.94" y2="56.63"/>
		
			<linearGradient id="SVGID_3_" gradientUnits="userSpaceOnUse" x1="-184.6676" y1="144.0059" x2="-182.4546" y2="144.0059" gradientTransform="matrix(-1 0 0 1 -122.5374 -94.5441)">
			<stop  offset="0.1838" style="stop-color:#EC6642"/>
			<stop  offset="0.2123" style="stop-color:#EE7043"/>
			<stop  offset="0.2324" style="stop-color:#EF7944"/>
			<stop  offset="0.3243" style="stop-color:#F08143"/>
			<stop  offset="0.4765" style="stop-color:#F19540"/>
			<stop  offset="0.5521" style="stop-color:#F2A13D"/>
			<stop  offset="0.9944" style="stop-color:#CD7344"/>
			<stop  offset="1" style="stop-color:#E9C33C"/>
		</linearGradient>
		<line class="st28" x1="62.13" y1="49.46" x2="59.92" y2="49.46"/>
		
			<linearGradient id="SVGID_4_" gradientUnits="userSpaceOnUse" x1="-184.6868" y1="145.993" x2="-182.4738" y2="145.993" gradientTransform="matrix(-1 0 0 1 -122.5374 -94.5441)">
			<stop  offset="0.1838" style="stop-color:#EC6642"/>
			<stop  offset="0.2123" style="stop-color:#EE7043"/>
			<stop  offset="0.2324" style="stop-color:#EF7944"/>
			<stop  offset="0.3243" style="stop-color:#F08143"/>
			<stop  offset="0.4765" style="stop-color:#F19540"/>
			<stop  offset="0.5521" style="stop-color:#F2A13D"/>
			<stop  offset="0.9944" style="stop-color:#CD7344"/>
			<stop  offset="1" style="stop-color:#E9C33C"/>
		</linearGradient>
		<line class="st29" x1="62.15" y1="51.45" x2="59.94" y2="51.45"/>
		
			<linearGradient id="SVGID_5_" gradientUnits="userSpaceOnUse" x1="-184.8118" y1="148.5821" x2="-184.5618" y2="148.5821" gradientTransform="matrix(-1 0 0 1 -122.5374 -94.5441)">
			<stop  offset="0.1838" style="stop-color:#EC6642"/>
			<stop  offset="0.2123" style="stop-color:#EE7043"/>
			<stop  offset="0.2324" style="stop-color:#EF7944"/>
			<stop  offset="0.3243" style="stop-color:#F08143"/>
			<stop  offset="0.4765" style="stop-color:#F19540"/>
			<stop  offset="0.5521" style="stop-color:#F2A13D"/>
			<stop  offset="0.9944" style="stop-color:#CD7344"/>
			<stop  offset="1" style="stop-color:#E9C33C"/>
		</linearGradient>
		<line class="st30" x1="62.15" y1="49.16" x2="62.15" y2="58.92"/>
	</g>
	<polyline class="st31" points="59.87,51.63 59.87,56.44 57.77,56.44 57.77,51.63 	"/>
	<polyline class="st31" points="62.33,51.63 62.33,56.44 64.43,56.44 64.43,51.63 	"/>
	<polygon class="st32" points="59.87,51.63 57.78,51.63 57.78,47.21 61.11,46.81 64.44,47.22 64.44,51.63 62.34,51.63 62.34,49.22 
		59.87,49.22 	"/>
	<polygon class="st32" points="62.33,56.44 64.43,56.44 64.43,60.85 61.11,61.26 57.77,60.85 57.77,56.44 59.87,56.44 59.87,58.85 
		62.33,58.85 	"/>
	<path class="st32" d="M61.11,46.81"/>
</g>
<g>
	<line class="st33" x1="71.21" y1="33.87" x2="71.21" y2="30.79"/>
	<g>
		<g id="XMLID_81_">
			<g>
				<rect x="72.27" y="31.62" class="st34" width="1.72" height="1.34"/>
			</g>
			<g>
			</g>
		</g>
		<g id="XMLID_80_">
			<g>
				<rect x="80.73" y="31.62" class="st34" width="1.72" height="1.34"/>
			</g>
			<g>
			</g>
		</g>
		<g id="XMLID_79_">
			<g>
				<rect x="73.92" y="30.02" class="st35" width="6.8" height="4.54"/>
			</g>
			<g>
			</g>
		</g>
		<g>
			<path class="st36" d="M78.44,31.56h0.81v1.29h-0.17v-1.13h-0.64V31.56z"/>
			<path class="st36" d="M77.61,32.28c0-0.11,0.01-0.21,0.04-0.31c0.03-0.09,0.06-0.17,0.12-0.23c0.05-0.07,0.12-0.12,0.2-0.15
				c0.08-0.04,0.17-0.05,0.28-0.05c0.03,0,0.06,0,0.08,0c0.03,0,0.05,0.01,0.07,0.02v0.17h-0.01c-0.02-0.01-0.04-0.02-0.07-0.02
				s-0.06-0.01-0.1-0.01c-0.13,0-0.23,0.04-0.3,0.11c-0.07,0.08-0.11,0.18-0.13,0.32c0.05-0.03,0.1-0.06,0.15-0.07
				s0.1-0.02,0.15-0.02c0.05,0,0.1,0,0.14,0.02c0.04,0.01,0.09,0.03,0.13,0.06c0.05,0.04,0.09,0.08,0.11,0.13
				c0.03,0.05,0.04,0.12,0.04,0.19c0,0.13-0.04,0.24-0.13,0.32c-0.09,0.08-0.19,0.12-0.32,0.12c-0.06,0-0.12-0.01-0.17-0.03
				c-0.05-0.02-0.1-0.05-0.14-0.09c-0.05-0.05-0.09-0.11-0.11-0.18C77.62,32.5,77.61,32.4,77.61,32.28z M77.78,32.32
				c0,0.09,0.01,0.16,0.03,0.22s0.04,0.1,0.08,0.13c0.03,0.03,0.06,0.04,0.09,0.06s0.07,0.02,0.1,0.02c0.08,0,0.15-0.03,0.2-0.08
				s0.07-0.12,0.07-0.22c0-0.05-0.01-0.1-0.02-0.13s-0.04-0.06-0.08-0.09c-0.03-0.02-0.05-0.03-0.09-0.04
				c-0.03-0.01-0.07-0.01-0.1-0.01c-0.04,0-0.09,0.01-0.14,0.02s-0.09,0.03-0.13,0.05c0,0.01,0,0.02,0,0.04
				C77.78,32.29,77.78,32.3,77.78,32.32z"/>
		</g>
		<line class="st37" x1="74.88" y1="34.56" x2="74.88" y2="30.02"/>
		<line class="st37" x1="75.31" y1="34.56" x2="75.31" y2="30.02"/>
		<line class="st37" x1="74.42" y1="34.56" x2="74.42" y2="30.02"/>
	</g>
</g>
<g>
</g>
<g>
</g>
<g>
</g>
<g>
</g>
<g>
</g>
<g>
</g>
</svg>
