<?xml version="1.0" encoding="utf-8"?>
<!-- Generator: Adobe Illustrator 24.1.3, SVG Export Plug-In . SVG Version: 6.00 Build 0)  -->
<svg version="1.1" id="Layer_1" xmlns="http://www.w3.org/2000/svg" xmlns:xlink="http://www.w3.org/1999/xlink" x="0px" y="0px"
	 viewBox="0 0 85.04 85.04" style="enable-background:new 0 0 85.04 85.04;" xml:space="preserve">
<style type="text/css">
	.st0{fill:#1D1E1E;}
	.st1{fill:#EDEDE8;}
	.st2{fill:#AEA6A3;}
	.st3{fill:#FFFFFF;}
	.st4{fill:#4F453F;}
	.st5{fill:#C4C2BE;}
	.st6{fill:none;stroke:#E5E5E5;stroke-miterlimit:10;}
	.st7{fill:#DBD3C7;}
	.st8{fill:#AD8019;}
	.st9{fill:#007F3D;}
	.st10{opacity:0.5;fill:url(#SVGID_1_);}
	.st11{opacity:0.5;fill:url(#SVGID_2_);}
	.st12{fill:#C2C0BE;}
	.st13{fill:#D9D8D6;}
	.st14{opacity:0.5;fill:url(#SVGID_3_);}
	.st15{opacity:0.5;fill:url(#SVGID_4_);}
	.st16{fill:#DCD4C8;}
	.st17{fill:#A49788;}
	.st18{fill:none;stroke:#FAFAFA;stroke-width:0.75;stroke-miterlimit:10;}
	.st19{fill:#EDECE8;}
	.st20{fill:#101212;}
	.st21{fill:#F59A00;stroke:#746E6A;stroke-width:0.0232;stroke-miterlimit:10;}
	.st22{fill:#FAB723;stroke:#C2C0BE;stroke-width:0.0252;stroke-miterlimit:10;}
	.st23{fill:none;stroke:#8E8884;stroke-width:0.0114;stroke-miterlimit:10;}
	.st24{display:none;fill:#DCDA00;stroke:#F6E700;stroke-width:0.25;stroke-miterlimit:10;}
	.st25{fill:#FAB723;}
	.st26{fill:#E30519;}
	.st27{opacity:0.37;fill:none;stroke:#FFFFFF;stroke-width:0.5;stroke-miterlimit:10;}
	.st28{fill:#70B62C;}
	.st29{fill:none;stroke:#FAFAFA;stroke-width:0.25;stroke-miterlimit:10;}
	.st30{fill:none;stroke:#FAB400;stroke-width:2;stroke-miterlimit:10;}
	.st31{fill:none;stroke:#D39A00;stroke-width:2;stroke-miterlimit:10;}
	.st32{fill:#746E6A;stroke:#F59A00;stroke-width:0.25;stroke-miterlimit:10;}
</style>
<g>
	<g id="Фон_черный">
		<g>
			<rect x="0" y="0" class="st0" width="85.04" height="85.04"/>
		</g>
		<g>
		</g>
	</g>
	<g>
		<path class="st1" d="M22.61,9.92h-0.76V8.9h-2.56v1.02h-0.77l-0.06-1.65h0.32c0.15-0.13,0.28-0.33,0.39-0.6
			c0.11-0.27,0.18-0.68,0.19-1.21l0.08-1.11l-0.41-0.08v-0.5h3.6v0.5L22.2,5.35v2.91h0.49L22.61,9.92z M20.21,6.46
			c-0.02,0.42-0.07,0.77-0.15,1.07s-0.19,0.54-0.32,0.74h1.63V5.4h-1.09L20.21,6.46z"/>
		<path class="st1" d="M22.97,6.33v-0.5h1.21l0.04,0.36c0.09-0.13,0.2-0.23,0.33-0.31c0.13-0.07,0.28-0.11,0.45-0.11
			c0.38,0,0.68,0.15,0.89,0.45c0.21,0.3,0.32,0.69,0.32,1.17v0.06c0,0.45-0.11,0.82-0.32,1.1s-0.51,0.41-0.89,0.41
			c-0.16,0-0.31-0.03-0.43-0.09s-0.23-0.15-0.32-0.26V9.5l0.4,0.09v0.5h-1.64v-0.5l0.4-0.09V6.41L22.97,6.33z M25.37,7.39
			c0-0.29-0.05-0.52-0.15-0.7c-0.1-0.18-0.25-0.27-0.45-0.27c-0.13,0-0.23,0.03-0.32,0.08c-0.09,0.05-0.16,0.12-0.21,0.22v1.35
			c0.05,0.09,0.12,0.15,0.21,0.2c0.09,0.05,0.2,0.07,0.33,0.07c0.2,0,0.35-0.08,0.45-0.24s0.14-0.37,0.14-0.64V7.39z"/>
		<path class="st1" d="M28.56,8.9c-0.02-0.05-0.04-0.1-0.06-0.16c-0.02-0.05-0.03-0.11-0.04-0.16c-0.1,0.11-0.22,0.21-0.36,0.28
			c-0.14,0.07-0.3,0.1-0.49,0.1c-0.3,0-0.54-0.08-0.72-0.25c-0.18-0.16-0.27-0.39-0.27-0.67c0-0.29,0.12-0.51,0.35-0.67
			c0.23-0.16,0.57-0.24,1.02-0.24h0.43v-0.3c0-0.15-0.04-0.26-0.13-0.34c-0.09-0.08-0.21-0.12-0.38-0.12c-0.1,0-0.18,0.01-0.25,0.03
			c-0.07,0.02-0.13,0.05-0.18,0.08l-0.05,0.33h-0.63l0-0.68c0.15-0.1,0.33-0.19,0.53-0.26c0.2-0.07,0.41-0.11,0.65-0.11
			c0.38,0,0.7,0.09,0.94,0.28c0.24,0.19,0.36,0.45,0.36,0.8v1.27c0,0.05,0,0.09,0,0.13c0,0.04,0,0.08,0.01,0.12l0.25,0.03v0.5H28.56
			z M27.83,8.35c0.13,0,0.24-0.03,0.34-0.08c0.1-0.05,0.18-0.12,0.24-0.2V7.59h-0.43c-0.18,0-0.31,0.04-0.4,0.12
			c-0.09,0.08-0.14,0.18-0.14,0.3c0,0.1,0.03,0.19,0.1,0.24S27.71,8.35,27.83,8.35z"/>
		<path class="st1" d="M31.55,5.83v0.5l-0.4,0.09v1.28l0.02,0l1.01-1.87h0.84h0.44v0.5l-0.44,0.09v1.91l0.44,0.08v0.5h-1.68V8.4
			l0.4-0.08V7.03l-0.02,0L31.15,8.9h-1.28V8.4l0.45-0.08V6.41l-0.45-0.09v-0.5h1.28H31.55z M32.64,4.47l0.01,0.02
			c0.01,0.24-0.08,0.44-0.25,0.59c-0.18,0.15-0.42,0.23-0.72,0.23c-0.3,0-0.55-0.08-0.72-0.23c-0.18-0.15-0.26-0.35-0.25-0.59
			l0.01-0.02h0.57c0,0.11,0.03,0.2,0.1,0.27c0.06,0.07,0.17,0.11,0.31,0.11c0.14,0,0.24-0.04,0.3-0.11c0.06-0.07,0.1-0.16,0.1-0.27
			H32.64z"/>
		<path class="st1" d="M35.68,5.83c0.41,0,0.73,0.07,0.96,0.22c0.23,0.14,0.35,0.36,0.35,0.64c0,0.14-0.05,0.27-0.14,0.38
			s-0.23,0.2-0.41,0.26c0.23,0.05,0.41,0.13,0.53,0.26c0.12,0.13,0.18,0.27,0.18,0.44c0,0.29-0.11,0.51-0.33,0.66
			c-0.22,0.15-0.53,0.22-0.94,0.22h-1.94V8.4l0.45-0.08V6.41l-0.45-0.09v-0.5h0.45H35.68z M35.22,7.08h0.51
			c0.15,0,0.25-0.03,0.32-0.08c0.07-0.05,0.1-0.12,0.1-0.22c0-0.11-0.04-0.19-0.12-0.25c-0.08-0.05-0.2-0.08-0.35-0.08h-0.46V7.08z
			 M35.22,7.62v0.65h0.66c0.15,0,0.26-0.03,0.33-0.08c0.07-0.05,0.11-0.13,0.11-0.24s-0.03-0.19-0.1-0.24
			c-0.07-0.06-0.18-0.09-0.33-0.09H35.22z"/>
		<path class="st1" d="M39.02,8.96c-0.45,0-0.8-0.14-1.07-0.43c-0.27-0.28-0.4-0.64-0.4-1.08V7.34c0-0.46,0.13-0.83,0.38-1.13
			s0.59-0.44,1.02-0.44c0.42,0,0.74,0.13,0.97,0.38s0.35,0.59,0.35,1.01v0.45h-1.85l-0.01,0.02c0.02,0.2,0.08,0.37,0.21,0.5
			c0.12,0.13,0.29,0.2,0.49,0.2c0.19,0,0.34-0.02,0.46-0.06s0.26-0.1,0.4-0.17l0.23,0.51c-0.13,0.1-0.29,0.18-0.5,0.25
			C39.49,8.93,39.27,8.96,39.02,8.96z M38.94,6.41c-0.15,0-0.28,0.06-0.37,0.18c-0.09,0.12-0.15,0.27-0.17,0.46l0.01,0.01h1.03V6.99
			c0-0.18-0.04-0.32-0.12-0.42C39.23,6.46,39.11,6.41,38.94,6.41z"/>
		<path class="st1" d="M40.59,6.33v-0.5h1.21l0.04,0.36c0.09-0.13,0.2-0.23,0.33-0.31c0.13-0.07,0.28-0.11,0.45-0.11
			c0.38,0,0.68,0.15,0.89,0.45c0.21,0.3,0.32,0.69,0.32,1.17v0.06c0,0.45-0.11,0.82-0.32,1.1s-0.51,0.41-0.89,0.41
			c-0.16,0-0.31-0.03-0.43-0.09s-0.23-0.15-0.32-0.26V9.5l0.4,0.09v0.5h-1.64v-0.5l0.4-0.09V6.41L40.59,6.33z M43,7.39
			c0-0.29-0.05-0.52-0.15-0.7c-0.1-0.18-0.25-0.27-0.45-0.27c-0.13,0-0.23,0.03-0.32,0.08C42,6.54,41.93,6.62,41.87,6.71v1.35
			c0.05,0.09,0.12,0.15,0.21,0.2c0.09,0.05,0.2,0.07,0.33,0.07c0.2,0,0.35-0.08,0.45-0.24S43,7.72,43,7.45V7.39z"/>
		<path class="st1" d="M48,7.94h0.02l0.8-2.11h1.05h0.44v0.5l-0.44,0.09v1.91L50.3,8.4v0.5h-1.6V8.4l0.32-0.08V7.07l-0.02,0
			L48.29,8.9h-0.56l-0.7-1.8l-0.02,0v1.21l0.32,0.08v0.5h-1.6V8.4l0.45-0.08V6.41l-0.45-0.09v-0.5h0.45h1.03L48,7.94z"/>
		<path class="st1" d="M50.7,7.34c0-0.46,0.13-0.83,0.39-1.13s0.62-0.44,1.07-0.44c0.46,0,0.82,0.15,1.08,0.44s0.39,0.67,0.39,1.13
			V7.4c0,0.46-0.13,0.84-0.39,1.13c-0.26,0.29-0.62,0.44-1.07,0.44c-0.46,0-0.82-0.15-1.08-0.44C50.83,8.23,50.7,7.86,50.7,7.4V7.34
			z M51.53,7.4c0,0.28,0.05,0.5,0.15,0.67s0.26,0.25,0.48,0.25c0.22,0,0.37-0.08,0.47-0.26c0.1-0.17,0.15-0.39,0.15-0.67V7.34
			c0-0.27-0.05-0.5-0.15-0.67c-0.1-0.17-0.26-0.26-0.48-0.26s-0.38,0.09-0.48,0.26s-0.15,0.39-0.15,0.67V7.4z"/>
		<path class="st1" d="M57.2,5.83v1.05h-0.64l-0.03-0.41h-0.53v1.86l0.44,0.08v0.5h-1.73V8.4l0.44-0.08V6.46h-0.52L54.6,6.88h-0.64
			V5.83H57.2z"/>
		<path class="st1" d="M57.55,7.34c0-0.46,0.13-0.83,0.39-1.13s0.62-0.44,1.07-0.44c0.46,0,0.82,0.15,1.08,0.44s0.39,0.67,0.39,1.13
			V7.4c0,0.46-0.13,0.84-0.39,1.13c-0.26,0.29-0.62,0.44-1.07,0.44c-0.46,0-0.82-0.15-1.08-0.44c-0.26-0.29-0.39-0.67-0.39-1.13
			V7.34z M58.38,7.4c0,0.28,0.05,0.5,0.15,0.67s0.26,0.25,0.48,0.25c0.22,0,0.37-0.08,0.47-0.26c0.1-0.17,0.15-0.39,0.15-0.67V7.34
			c0-0.27-0.05-0.5-0.15-0.67c-0.1-0.17-0.26-0.26-0.48-0.26s-0.38,0.09-0.48,0.26s-0.15,0.39-0.15,0.67V7.4z"/>
		<path class="st1" d="M60.77,6.33v-0.5h1.21l0.04,0.36c0.09-0.13,0.2-0.23,0.33-0.31c0.13-0.07,0.28-0.11,0.45-0.11
			c0.38,0,0.68,0.15,0.89,0.45c0.21,0.3,0.32,0.69,0.32,1.17v0.06c0,0.45-0.11,0.82-0.32,1.1s-0.51,0.41-0.89,0.41
			c-0.16,0-0.31-0.03-0.43-0.09s-0.23-0.15-0.32-0.26V9.5l0.4,0.09v0.5h-1.64v-0.5l0.4-0.09V6.41L60.77,6.33z M63.17,7.39
			c0-0.29-0.05-0.52-0.15-0.7c-0.1-0.18-0.25-0.27-0.45-0.27c-0.13,0-0.23,0.03-0.32,0.08c-0.09,0.05-0.16,0.12-0.21,0.22v1.35
			c0.05,0.09,0.12,0.15,0.21,0.2c0.09,0.05,0.2,0.07,0.33,0.07c0.2,0,0.35-0.08,0.45-0.24s0.14-0.37,0.14-0.64V7.39z"/>
		<path class="st1" d="M66.36,8.9c-0.02-0.05-0.04-0.1-0.06-0.16c-0.02-0.05-0.03-0.11-0.04-0.16c-0.1,0.11-0.22,0.21-0.36,0.28
			c-0.14,0.07-0.3,0.1-0.49,0.1c-0.3,0-0.54-0.08-0.72-0.25c-0.18-0.16-0.27-0.39-0.27-0.67c0-0.29,0.12-0.51,0.35-0.67
			c0.23-0.16,0.57-0.24,1.02-0.24h0.43v-0.3c0-0.15-0.04-0.26-0.13-0.34C66,6.42,65.87,6.38,65.71,6.38c-0.1,0-0.18,0.01-0.25,0.03
			c-0.07,0.02-0.13,0.05-0.18,0.08l-0.05,0.33h-0.63l0-0.68c0.15-0.1,0.33-0.19,0.53-0.26c0.2-0.07,0.41-0.11,0.65-0.11
			c0.38,0,0.7,0.09,0.94,0.28c0.24,0.19,0.36,0.45,0.36,0.8v1.27c0,0.05,0,0.09,0,0.13c0,0.04,0,0.08,0.01,0.12l0.25,0.03v0.5H66.36
			z M65.63,8.35c0.13,0,0.24-0.03,0.34-0.08c0.1-0.05,0.18-0.12,0.24-0.2V7.59h-0.43c-0.18,0-0.31,0.04-0.4,0.12
			c-0.09,0.08-0.14,0.18-0.14,0.3c0,0.1,0.03,0.19,0.1,0.24S65.51,8.35,65.63,8.35z"/>
	</g>
	<g>
		<path class="st1" d="M5.06,35.54c0,0.36-0.08,0.64-0.24,0.84c-0.16,0.2-0.39,0.31-0.67,0.31c-0.16,0-0.3-0.04-0.41-0.13
			s-0.21-0.21-0.28-0.38c-0.05,0.19-0.15,0.32-0.27,0.4c-0.13,0.08-0.28,0.12-0.47,0.12H2.54c-0.07,0-0.12,0.01-0.16,0.04
			c-0.04,0.03-0.06,0.07-0.07,0.14L2.3,36.97H1.92v-0.33c0-0.21,0.06-0.35,0.17-0.44s0.25-0.13,0.43-0.13H2.7
			c0.15,0,0.27-0.04,0.36-0.12c0.09-0.08,0.13-0.2,0.14-0.35v-0.52H2.37L2.3,35.43H1.92v-1.31H2.3l0.06,0.34h2.25l0.06-0.34h0.38
			v0.34V35.54z M3.68,35.09v0.44c0,0.18,0.04,0.31,0.11,0.4s0.18,0.13,0.32,0.13c0.14,0,0.25-0.04,0.34-0.13
			c0.08-0.09,0.13-0.22,0.13-0.39v-0.45H3.68z"/>
		<path class="st1" d="M5.06,38.45H4.68l-0.06-0.34H2.98c-0.21,0-0.36,0.06-0.46,0.17c-0.1,0.11-0.15,0.27-0.15,0.46
			c0,0.2,0.05,0.35,0.15,0.47c0.1,0.11,0.26,0.17,0.47,0.17h1.64l0.06-0.34h0.38v1.31H4.68l-0.06-0.34H2.98
			c-0.35,0-0.62-0.12-0.81-0.35s-0.29-0.54-0.29-0.92c0-0.38,0.09-0.68,0.29-0.92s0.46-0.35,0.81-0.35h1.64l0.06-0.34h0.38v0.34
			v0.63V38.45z"/>
		<path class="st1" d="M4.06,42.94v-0.48l0.43-0.08c0.03-0.05,0.06-0.14,0.09-0.24c0.03-0.11,0.04-0.22,0.04-0.34
			c0-0.17-0.04-0.31-0.11-0.4c-0.07-0.1-0.17-0.14-0.28-0.14c-0.11,0-0.19,0.05-0.26,0.15c-0.07,0.1-0.14,0.27-0.22,0.51
			c-0.1,0.35-0.22,0.61-0.38,0.79C3.21,42.89,3,42.98,2.75,42.98c-0.27,0-0.48-0.11-0.64-0.32s-0.23-0.5-0.23-0.85
			c0-0.25,0.04-0.48,0.12-0.68c0.08-0.2,0.19-0.37,0.33-0.5h0.66v0.49l-0.45,0.07c-0.05,0.06-0.09,0.15-0.13,0.26
			c-0.03,0.11-0.05,0.23-0.05,0.37c0,0.17,0.04,0.31,0.11,0.4c0.07,0.09,0.17,0.14,0.28,0.14c0.12,0,0.22-0.04,0.29-0.13
			c0.07-0.09,0.14-0.24,0.21-0.45c0.11-0.38,0.24-0.66,0.38-0.85c0.15-0.19,0.35-0.29,0.61-0.29c0.25,0,0.46,0.11,0.62,0.33
			c0.16,0.22,0.24,0.49,0.25,0.82c0,0.24-0.04,0.46-0.11,0.67c-0.07,0.2-0.17,0.37-0.29,0.5H4.06z"/>
		<path class="st1" d="M4.06,45.64v-0.48l0.43-0.08c0.03-0.05,0.06-0.14,0.09-0.24c0.03-0.11,0.04-0.22,0.04-0.34
			c0-0.17-0.04-0.31-0.11-0.4c-0.07-0.1-0.17-0.14-0.28-0.14c-0.11,0-0.19,0.05-0.26,0.15c-0.07,0.1-0.14,0.27-0.22,0.51
			c-0.1,0.35-0.22,0.61-0.38,0.79C3.21,45.59,3,45.68,2.75,45.68c-0.27,0-0.48-0.11-0.64-0.32c-0.16-0.21-0.23-0.5-0.23-0.85
			c0-0.25,0.04-0.48,0.12-0.68c0.08-0.2,0.19-0.37,0.33-0.5h0.66v0.49l-0.45,0.07c-0.05,0.06-0.09,0.15-0.13,0.26
			c-0.03,0.11-0.05,0.23-0.05,0.37c0,0.17,0.04,0.31,0.11,0.4c0.07,0.09,0.17,0.14,0.28,0.14c0.12,0,0.22-0.04,0.29-0.13
			c0.07-0.09,0.14-0.24,0.21-0.45c0.11-0.38,0.24-0.66,0.38-0.85c0.15-0.19,0.35-0.29,0.61-0.29c0.25,0,0.46,0.11,0.62,0.33
			c0.16,0.22,0.24,0.49,0.25,0.82c0,0.24-0.04,0.46-0.11,0.67c-0.07,0.2-0.17,0.37-0.29,0.5H4.06z"/>
		<path class="st1" d="M4.68,45.93h0.38v1.31H4.68L4.62,46.9H2.37L2.3,47.24H1.92v-1.31H2.3l0.06,0.34h2.25L4.68,45.93z"/>
		<path class="st1" d="M2.3,47.45l0.03,0.23l2.73,0.96v0.65l-2.73,0.96L2.3,50.47H1.92v-1.08H2.3l0.04,0.22l0.43-0.14v-1.03
			l-0.43-0.14L2.3,48.53H1.92v-1.08H2.3z M3.23,48.6v0.73l1.1-0.36v-0.01L3.23,48.6z"/>
	</g>
	<circle class="st2" cx="75.12" cy="75.12" r="5.98"/>
	<path class="st3" d="M76.13,12.78c-2.12,0-3.85-1.74-3.85-3.88c0-2.14,1.72-3.88,3.85-3.88c2.12,0,3.85,1.74,3.85,3.88
		C79.98,11.04,78.26,12.78,76.13,12.78z"/>
	<path class="st3" d="M75.12,79.51c-2.43,0-4.39-1.97-4.39-4.39c0-2.43,1.97-4.39,4.39-4.39c2.43,0,4.39,1.97,4.39,4.39
		C79.51,77.54,77.55,79.51,75.12,79.51z"/>
	<circle class="st2" cx="9.92" cy="75.12" r="5.98"/>
	<path class="st3" d="M9.92,79.51c-2.43,0-4.39-1.97-4.39-4.39c0-2.43,1.97-4.39,4.39-4.39c2.43,0,4.39,1.97,4.39,4.39
		C14.32,77.54,12.35,79.51,9.92,79.51z"/>
	<g id="XMLID_185_">
		<g>
			<circle class="st2" cx="9.92" cy="9.92" r="5.98"/>
		</g>
		<g>
		</g>
	</g>
	<path class="st3" d="M9.92,14.31c-2.43,0-4.39-1.97-4.39-4.39S7.5,5.53,9.92,5.53c2.43,0,4.39,1.97,4.39,4.39
		S12.35,14.31,9.92,14.31z"/>
	<ellipse class="st2" cx="75.12" cy="9.92" rx="5.98" ry="5.95"/>
	<path class="st3" d="M75.12,14.31c-2.43,0-4.39-1.97-4.39-4.39c0-2.43,1.97-4.39,4.39-4.39c2.43,0,4.39,1.97,4.39,4.39
		C79.51,12.35,77.55,14.31,75.12,14.31z"/>
	<g>
		<g>
			<g id="XMLID_184_">
				<g>
					<rect x="46.42" y="48.28" class="st4" width="13.94" height="10.81"/>
				</g>
				<g>
				</g>
			</g>
			<g id="XMLID_183_">
				<g>
					<rect x="47.13" y="59.09" class="st2" width="1.77" height="5.07"/>
				</g>
				<g>
				</g>
			</g>
			<g id="XMLID_120_">
				<g>
					<rect x="50.77" y="59.09" class="st2" width="1.76" height="5.07"/>
				</g>
				<g>
				</g>
			</g>
			<g id="XMLID_119_">
				<g>
					<rect x="54.41" y="59.09" class="st2" width="1.76" height="5.07"/>
				</g>
				<g>
				</g>
			</g>
			<g id="XMLID_118_">
				<g>
					<rect x="58.01" y="59.09" class="st2" width="1.76" height="5.07"/>
				</g>
				<g>
				</g>
			</g>
			<g id="XMLID_117_">
				<g>
					<rect x="58.01" y="43.21" class="st2" width="1.76" height="5.07"/>
				</g>
				<g>
				</g>
			</g>
			<g id="XMLID_116_">
				<g>
					<rect x="54.37" y="43.21" class="st2" width="1.77" height="5.07"/>
				</g>
				<g>
				</g>
			</g>
			<g id="XMLID_115_">
				<g>
					<rect x="50.73" y="43.21" class="st2" width="1.77" height="5.07"/>
				</g>
				<g>
				</g>
			</g>
			<g id="XMLID_114_">
				<g>
					<rect x="47.09" y="43.21" class="st2" width="1.76" height="5.07"/>
				</g>
				<g>
				</g>
			</g>
		</g>
		<g>
			<path class="st5" d="M50.81,52.8h-1.15v-1.83h0.24v1.62h0.91V52.8z"/>
			<path class="st5" d="M52.23,51.77c0,0.16-0.02,0.31-0.05,0.44c-0.04,0.13-0.09,0.24-0.16,0.33c-0.07,0.09-0.17,0.17-0.28,0.22
				c-0.11,0.05-0.24,0.08-0.39,0.08c-0.04,0-0.08,0-0.12-0.01c-0.04,0-0.07-0.01-0.1-0.02v-0.24h0.01c0.02,0.01,0.06,0.02,0.1,0.04
				c0.04,0.01,0.09,0.02,0.14,0.02c0.18,0,0.32-0.05,0.42-0.16c0.1-0.11,0.16-0.26,0.18-0.45c-0.08,0.05-0.15,0.08-0.21,0.1
				c-0.07,0.02-0.14,0.03-0.22,0.03c-0.08,0-0.14-0.01-0.2-0.02s-0.12-0.04-0.18-0.09c-0.07-0.05-0.13-0.11-0.16-0.19
				s-0.05-0.17-0.05-0.28c0-0.19,0.06-0.34,0.18-0.46c0.12-0.12,0.27-0.18,0.45-0.18c0.09,0,0.17,0.01,0.24,0.04
				c0.07,0.03,0.14,0.07,0.2,0.12c0.07,0.07,0.12,0.16,0.16,0.26C52.21,51.46,52.23,51.6,52.23,51.77z M51.99,51.72
				c0-0.13-0.01-0.23-0.04-0.31c-0.03-0.08-0.06-0.14-0.11-0.18c-0.04-0.04-0.08-0.06-0.12-0.08c-0.04-0.02-0.09-0.02-0.14-0.02
				c-0.12,0-0.21,0.04-0.28,0.11c-0.07,0.07-0.1,0.18-0.1,0.31c0,0.08,0.01,0.14,0.03,0.19c0.02,0.05,0.06,0.09,0.11,0.13
				c0.04,0.03,0.08,0.04,0.12,0.05s0.09,0.01,0.15,0.01c0.06,0,0.13-0.01,0.19-0.03c0.07-0.02,0.13-0.04,0.18-0.08
				c0-0.02,0-0.03,0-0.05C51.98,51.77,51.99,51.75,51.99,51.72z"/>
			<path class="st5" d="M53.72,52.8h-0.98v-0.19h0.38v-1.23h-0.38v-0.17c0.05,0,0.11,0,0.16-0.01c0.06-0.01,0.1-0.02,0.13-0.04
				c0.04-0.02,0.07-0.05,0.09-0.08c0.02-0.03,0.03-0.07,0.04-0.13h0.19v1.65h0.37V52.8z"/>
			<path class="st5" d="M55.31,52.8h-0.98v-0.19h0.38v-1.23h-0.38v-0.17c0.05,0,0.11,0,0.17-0.01c0.06-0.01,0.1-0.02,0.13-0.04
				c0.04-0.02,0.07-0.05,0.09-0.08c0.02-0.03,0.03-0.07,0.04-0.13h0.19v1.65h0.37V52.8z"/>
			<path class="st5" d="M57,51.88c0,0.33-0.05,0.57-0.15,0.72c-0.1,0.15-0.26,0.23-0.48,0.23c-0.22,0-0.38-0.08-0.48-0.23
				c-0.1-0.16-0.15-0.4-0.15-0.72c0-0.33,0.05-0.57,0.15-0.72c0.1-0.16,0.26-0.23,0.48-0.23c0.22,0,0.38,0.08,0.48,0.24
				C56.95,51.32,57,51.56,57,51.88z M56.68,52.44c0.03-0.07,0.05-0.14,0.06-0.23c0.01-0.09,0.02-0.2,0.02-0.32
				c0-0.13,0-0.23-0.02-0.33c-0.01-0.09-0.03-0.17-0.06-0.23c-0.03-0.06-0.07-0.11-0.12-0.14c-0.05-0.03-0.11-0.05-0.19-0.05
				c-0.08,0-0.14,0.02-0.19,0.05c-0.05,0.03-0.09,0.08-0.12,0.15c-0.03,0.06-0.05,0.14-0.06,0.24c-0.01,0.1-0.02,0.21-0.02,0.32
				c0,0.13,0,0.24,0.01,0.32c0.01,0.09,0.03,0.16,0.06,0.23c0.03,0.06,0.06,0.11,0.11,0.15s0.11,0.05,0.2,0.05
				c0.08,0,0.14-0.02,0.19-0.05C56.61,52.55,56.65,52.51,56.68,52.44z"/>
		</g>
	</g>
	<path class="st6" d="M41.48,59.46"/>
	<path class="st6" d="M41.48,59.57"/>
	<path class="st6" d="M41.46,59.8"/>
	<g id="ГРУППА_1_">
		<g>
			<polygon class="st7" points="55.93,71.54 55.93,68.01 64.69,68.01 64.69,71.54 64.05,71.54 64.05,70.1 56.63,70.1 56.63,71.54 
							"/>
			<rect x="56.63" y="70.1" class="st8" width="7.42" height="1.45"/>
			<rect x="56.63" y="71.54" class="st8" width="7.42" height="7.6"/>
			<rect x="56.63" y="79.14" class="st8" width="7.42" height="1.58"/>
			<polygon class="st7" points="64.05,80.72 64.05,79.14 64.77,79.14 64.77,82.46 56.02,82.46 56.02,79.14 56.63,79.14 56.63,80.72 
							"/>
		</g>
		<g>
		</g>
	</g>
	<g id="ГРУППА_2_">
		<g>
			<polygon class="st7" points="46.16,69.93 45.82,69.93 45.82,66.5 50.08,66.5 50.08,69.93 49.77,69.93 49.77,69.23 46.16,69.23 
							"/>
			<rect x="46.16" y="69.23" class="st8" width="3.61" height="0.7"/>
			<rect x="46.16" y="69.93" class="st8" width="3.61" height="3.69"/>
			<rect x="46.16" y="73.62" class="st8" width="3.61" height="0.77"/>
			<polygon class="st7" points="50.12,73.62 50.12,77.06 45.86,77.06 45.86,73.62 46.16,73.62 46.16,74.39 49.77,74.39 49.77,73.62 
							"/>
		</g>
		<g>
		</g>
	</g>
	<g>
		<g id="XMLID_113_">
			<g>
				<rect x="38.22" y="15.52" class="st7" width="4.26" height="3.44"/>
			</g>
			<g>
			</g>
		</g>
		<g id="XMLID_112_">
			<g>
				<rect x="38.26" y="22.65" class="st7" width="4.26" height="3.44"/>
			</g>
			<g>
			</g>
		</g>
		<g id="XMLID_111_">
			<g>
				<rect x="38.56" y="18.25" class="st4" width="3.61" height="5.16"/>
			</g>
			<g>
			</g>
		</g>
		<g>
			<path class="st5" d="M39.82,19.9v-0.7h0.13v0.27h0.86V19.2h0.12c0,0.04,0,0.08,0.01,0.12s0.01,0.07,0.03,0.09
				c0.01,0.03,0.03,0.05,0.05,0.06c0.02,0.02,0.05,0.02,0.09,0.03v0.13h-1.16v0.26H39.82z"/>
			<path class="st5" d="M40.47,20.92c-0.23,0-0.4-0.04-0.51-0.11s-0.16-0.18-0.16-0.34c0-0.15,0.05-0.27,0.16-0.34
				c0.11-0.07,0.28-0.11,0.5-0.11c0.23,0,0.4,0.04,0.51,0.11c0.11,0.07,0.16,0.18,0.16,0.34c0,0.15-0.06,0.27-0.17,0.34
				S40.69,20.92,40.47,20.92z M40.07,20.69c0.05,0.02,0.1,0.03,0.16,0.04c0.06,0.01,0.14,0.01,0.23,0.01c0.09,0,0.16,0,0.23-0.01
				c0.06-0.01,0.12-0.02,0.16-0.04c0.04-0.02,0.08-0.05,0.1-0.08c0.02-0.03,0.03-0.08,0.03-0.13c0-0.05-0.01-0.1-0.03-0.13
				c-0.02-0.04-0.06-0.06-0.1-0.08c-0.04-0.02-0.1-0.03-0.17-0.04c-0.07-0.01-0.14-0.01-0.23-0.01c-0.09,0-0.17,0-0.23,0.01
				s-0.11,0.02-0.16,0.04c-0.04,0.02-0.08,0.05-0.1,0.08c-0.02,0.03-0.04,0.08-0.04,0.14c0,0.05,0.01,0.1,0.03,0.13
				S40.03,20.67,40.07,20.69z"/>
			<path class="st5" d="M40.47,21.86c-0.23,0-0.4-0.04-0.51-0.11s-0.16-0.18-0.16-0.34c0-0.15,0.05-0.27,0.16-0.34
				c0.11-0.07,0.28-0.11,0.5-0.11c0.23,0,0.4,0.04,0.51,0.11c0.11,0.07,0.16,0.18,0.16,0.34c0,0.15-0.06,0.27-0.17,0.34
				S40.69,21.86,40.47,21.86z M40.07,21.64c0.05,0.02,0.1,0.03,0.16,0.04c0.06,0.01,0.14,0.01,0.23,0.01c0.09,0,0.16,0,0.23-0.01
				c0.06-0.01,0.12-0.02,0.16-0.04c0.04-0.02,0.08-0.05,0.1-0.08c0.02-0.03,0.03-0.08,0.03-0.13c0-0.05-0.01-0.1-0.03-0.13
				c-0.02-0.04-0.06-0.06-0.1-0.08c-0.04-0.02-0.1-0.03-0.17-0.04c-0.07-0.01-0.14-0.01-0.23-0.01c-0.09,0-0.17,0-0.23,0.01
				s-0.11,0.02-0.16,0.04c-0.04,0.02-0.08,0.05-0.1,0.08c-0.02,0.03-0.04,0.08-0.04,0.14c0,0.05,0.01,0.1,0.03,0.13
				S40.03,21.62,40.07,21.64z"/>
			<path class="st5" d="M39.82,22.74v-0.7h0.13v0.27h0.86v-0.27h0.12c0,0.04,0,0.08,0.01,0.12s0.01,0.07,0.03,0.09
				c0.01,0.03,0.03,0.05,0.05,0.06c0.02,0.02,0.05,0.02,0.09,0.03v0.13h-1.16v0.26H39.82z"/>
		</g>
	</g>
	<g>
		<g id="XMLID_110_">
			<g>
				<rect x="30.85" y="15.55" class="st7" width="4.26" height="3.44"/>
			</g>
			<g>
			</g>
		</g>
		<g id="XMLID_109_">
			<g>
				<rect x="30.89" y="22.68" class="st7" width="4.26" height="3.44"/>
			</g>
			<g>
			</g>
		</g>
		<g id="XMLID_108_">
			<g>
				<rect x="31.19" y="18.29" class="st4" width="3.61" height="5.16"/>
			</g>
			<g>
			</g>
		</g>
		<g>
			<path class="st5" d="M32.45,19.93v-0.7h0.13v0.27h0.86v-0.27h0.12c0,0.04,0,0.08,0.01,0.12s0.01,0.07,0.03,0.09
				c0.01,0.03,0.03,0.05,0.05,0.06c0.02,0.02,0.05,0.02,0.09,0.03v0.13h-1.16v0.26H32.45z"/>
			<path class="st5" d="M33.1,20.95c-0.23,0-0.4-0.04-0.51-0.11s-0.16-0.18-0.16-0.34c0-0.15,0.05-0.27,0.16-0.34
				c0.11-0.07,0.28-0.11,0.5-0.11c0.23,0,0.4,0.04,0.51,0.11c0.11,0.07,0.16,0.18,0.16,0.34c0,0.15-0.06,0.27-0.17,0.34
				S33.32,20.95,33.1,20.95z M32.7,20.72c0.05,0.02,0.1,0.03,0.16,0.04c0.06,0.01,0.14,0.01,0.23,0.01c0.09,0,0.16,0,0.23-0.01
				c0.06-0.01,0.12-0.02,0.16-0.04c0.04-0.02,0.08-0.05,0.1-0.08c0.02-0.03,0.03-0.08,0.03-0.13c0-0.05-0.01-0.1-0.03-0.13
				c-0.02-0.04-0.06-0.06-0.1-0.08c-0.04-0.02-0.1-0.03-0.17-0.04c-0.07-0.01-0.14-0.01-0.23-0.01c-0.09,0-0.17,0-0.23,0.01
				s-0.11,0.02-0.16,0.04c-0.04,0.02-0.08,0.05-0.1,0.08c-0.02,0.03-0.04,0.08-0.04,0.14c0,0.05,0.01,0.1,0.03,0.13
				S32.66,20.7,32.7,20.72z"/>
			<path class="st5" d="M33.1,21.9c-0.23,0-0.4-0.04-0.51-0.11s-0.16-0.18-0.16-0.34c0-0.15,0.05-0.27,0.16-0.34
				c0.11-0.07,0.28-0.11,0.5-0.11c0.23,0,0.4,0.04,0.51,0.11c0.11,0.07,0.16,0.18,0.16,0.34c0,0.15-0.06,0.27-0.17,0.34
				S33.32,21.9,33.1,21.9z M32.7,21.67c0.05,0.02,0.1,0.03,0.16,0.04c0.06,0.01,0.14,0.01,0.23,0.01c0.09,0,0.16,0,0.23-0.01
				c0.06-0.01,0.12-0.02,0.16-0.04c0.04-0.02,0.08-0.05,0.1-0.08c0.02-0.03,0.03-0.08,0.03-0.13c0-0.05-0.01-0.1-0.03-0.13
				c-0.02-0.04-0.06-0.06-0.1-0.08c-0.04-0.02-0.1-0.03-0.17-0.04c-0.07-0.01-0.14-0.01-0.23-0.01c-0.09,0-0.17,0-0.23,0.01
				s-0.11,0.02-0.16,0.04c-0.04,0.02-0.08,0.05-0.1,0.08c-0.02,0.03-0.04,0.08-0.04,0.14c0,0.05,0.01,0.1,0.03,0.13
				S32.66,21.65,32.7,21.67z"/>
			<path class="st5" d="M32.45,22.77v-0.7h0.13v0.27h0.86v-0.27h0.12c0,0.04,0,0.08,0.01,0.12s0.01,0.07,0.03,0.09
				c0.01,0.03,0.03,0.05,0.05,0.06c0.02,0.02,0.05,0.02,0.09,0.03v0.13h-1.16v0.26H32.45z"/>
		</g>
	</g>
	<g>
		<g id="XMLID_107_">
			<g>
				<rect x="55.45" y="28.29" class="st7" width="4.26" height="3.44"/>
			</g>
			<g>
			</g>
		</g>
		<g id="XMLID_106_">
			<g>
				<rect x="55.49" y="35.42" class="st7" width="4.26" height="3.44"/>
			</g>
			<g>
			</g>
		</g>
		<g id="XMLID_105_">
			<g>
				<rect x="55.79" y="31.02" class="st4" width="3.61" height="5.16"/>
			</g>
			<g>
			</g>
		</g>
		<g>
			<path class="st5" d="M57.05,32.66v-0.7h0.13v0.27h0.86v-0.27h0.12c0,0.04,0,0.08,0.01,0.12s0.01,0.07,0.03,0.09
				c0.01,0.03,0.03,0.05,0.05,0.06c0.02,0.02,0.05,0.02,0.09,0.03v0.13h-1.16v0.26H57.05z"/>
			<path class="st5" d="M57.69,33.68c-0.23,0-0.4-0.04-0.51-0.11s-0.16-0.18-0.16-0.34c0-0.15,0.05-0.27,0.16-0.34
				c0.11-0.07,0.28-0.11,0.5-0.11c0.23,0,0.4,0.04,0.51,0.11c0.11,0.07,0.16,0.18,0.16,0.34c0,0.15-0.06,0.27-0.17,0.34
				S57.92,33.68,57.69,33.68z M57.3,33.46c0.05,0.02,0.1,0.03,0.16,0.04c0.06,0.01,0.14,0.01,0.23,0.01c0.09,0,0.16,0,0.23-0.01
				c0.06-0.01,0.12-0.02,0.16-0.04c0.04-0.02,0.08-0.05,0.1-0.08c0.02-0.03,0.03-0.08,0.03-0.13c0-0.05-0.01-0.1-0.03-0.13
				c-0.02-0.04-0.06-0.06-0.1-0.08c-0.04-0.02-0.1-0.03-0.17-0.04c-0.07-0.01-0.14-0.01-0.23-0.01c-0.09,0-0.17,0-0.23,0.01
				S57.35,33,57.3,33.02c-0.04,0.02-0.08,0.05-0.1,0.08c-0.02,0.03-0.04,0.08-0.04,0.14c0,0.05,0.01,0.1,0.03,0.13
				S57.25,33.44,57.3,33.46z"/>
			<path class="st5" d="M57.69,34.63c-0.23,0-0.4-0.04-0.51-0.11s-0.16-0.18-0.16-0.34c0-0.15,0.05-0.27,0.16-0.34
				c0.11-0.07,0.28-0.11,0.5-0.11c0.23,0,0.4,0.04,0.51,0.11c0.11,0.07,0.16,0.18,0.16,0.34c0,0.15-0.06,0.27-0.17,0.34
				S57.92,34.63,57.69,34.63z M57.3,34.4c0.05,0.02,0.1,0.03,0.16,0.04c0.06,0.01,0.14,0.01,0.23,0.01c0.09,0,0.16,0,0.23-0.01
				c0.06-0.01,0.12-0.02,0.16-0.04c0.04-0.02,0.08-0.05,0.1-0.08c0.02-0.03,0.03-0.08,0.03-0.13c0-0.05-0.01-0.1-0.03-0.13
				c-0.02-0.04-0.06-0.06-0.1-0.08c-0.04-0.02-0.1-0.03-0.17-0.04c-0.07-0.01-0.14-0.01-0.23-0.01c-0.09,0-0.17,0-0.23,0.01
				s-0.11,0.02-0.16,0.04c-0.04,0.02-0.08,0.05-0.1,0.08c-0.02,0.03-0.04,0.08-0.04,0.14c0,0.05,0.01,0.1,0.03,0.13
				S57.25,34.38,57.3,34.4z"/>
			<path class="st5" d="M57.05,35.51v-0.7h0.13v0.27h0.86v-0.27h0.12c0,0.04,0,0.08,0.01,0.12s0.01,0.07,0.03,0.09
				c0.01,0.03,0.03,0.05,0.05,0.06c0.02,0.02,0.05,0.02,0.09,0.03v0.13h-1.16v0.26H57.05z"/>
		</g>
	</g>
	<g>
		<g id="XMLID_39_">
			<g>
				<rect x="47.08" y="28.32" class="st7" width="4.26" height="3.44"/>
			</g>
			<g>
			</g>
		</g>
		<g id="XMLID_38_">
			<g>
				<rect x="47.12" y="35.45" class="st7" width="4.26" height="3.44"/>
			</g>
			<g>
			</g>
		</g>
		<g id="XMLID_32_">
			<g>
				<rect x="47.42" y="31.05" class="st4" width="3.61" height="5.16"/>
			</g>
			<g>
			</g>
		</g>
		<g>
			<path class="st5" d="M48.68,32.69V32h0.13v0.27h0.86V32h0.12c0,0.04,0,0.08,0.01,0.12s0.01,0.07,0.03,0.09
				c0.01,0.03,0.03,0.05,0.05,0.06c0.02,0.02,0.05,0.02,0.09,0.03v0.13h-1.16v0.26H48.68z"/>
			<path class="st5" d="M49.32,33.71c-0.23,0-0.4-0.04-0.51-0.11s-0.16-0.18-0.16-0.34c0-0.15,0.05-0.27,0.16-0.34
				c0.11-0.07,0.28-0.11,0.5-0.11c0.23,0,0.4,0.04,0.51,0.11c0.11,0.07,0.16,0.18,0.16,0.34c0,0.15-0.06,0.27-0.17,0.34
				S49.54,33.71,49.32,33.71z M48.93,33.49c0.05,0.02,0.1,0.03,0.16,0.04c0.06,0.01,0.14,0.01,0.23,0.01c0.09,0,0.16,0,0.23-0.01
				c0.06-0.01,0.12-0.02,0.16-0.04c0.04-0.02,0.08-0.05,0.1-0.08c0.02-0.03,0.03-0.08,0.03-0.13c0-0.05-0.01-0.1-0.03-0.13
				c-0.02-0.04-0.06-0.06-0.1-0.08c-0.04-0.02-0.1-0.03-0.17-0.04C49.48,33,49.4,33,49.32,33c-0.09,0-0.17,0-0.23,0.01
				s-0.11,0.02-0.16,0.04c-0.04,0.02-0.08,0.05-0.1,0.08c-0.02,0.03-0.04,0.08-0.04,0.14c0,0.05,0.01,0.1,0.03,0.13
				S48.88,33.47,48.93,33.49z"/>
			<path class="st5" d="M49.32,34.66c-0.23,0-0.4-0.04-0.51-0.11s-0.16-0.18-0.16-0.34c0-0.15,0.05-0.27,0.16-0.34
				c0.11-0.07,0.28-0.11,0.5-0.11c0.23,0,0.4,0.04,0.51,0.11c0.11,0.07,0.16,0.18,0.16,0.34c0,0.15-0.06,0.27-0.17,0.34
				S49.54,34.66,49.32,34.66z M48.93,34.44c0.05,0.02,0.1,0.03,0.16,0.04c0.06,0.01,0.14,0.01,0.23,0.01c0.09,0,0.16,0,0.23-0.01
				c0.06-0.01,0.12-0.02,0.16-0.04c0.04-0.02,0.08-0.05,0.1-0.08c0.02-0.03,0.03-0.08,0.03-0.13c0-0.05-0.01-0.1-0.03-0.13
				c-0.02-0.04-0.06-0.06-0.1-0.08c-0.04-0.02-0.1-0.03-0.17-0.04c-0.07-0.01-0.14-0.01-0.23-0.01c-0.09,0-0.17,0-0.23,0.01
				s-0.11,0.02-0.16,0.04c-0.04,0.02-0.08,0.05-0.1,0.08c-0.02,0.03-0.04,0.08-0.04,0.14c0,0.05,0.01,0.1,0.03,0.13
				S48.88,34.42,48.93,34.44z"/>
			<path class="st5" d="M48.68,35.54v-0.7h0.13v0.27h0.86v-0.27h0.12c0,0.04,0,0.08,0.01,0.12s0.01,0.07,0.03,0.09
				c0.01,0.03,0.03,0.05,0.05,0.06c0.02,0.02,0.05,0.02,0.09,0.03v0.13h-1.16v0.26H48.68z"/>
		</g>
	</g>
	<g>
		<g id="XMLID_35_">
			<g>
				<rect x="38.62" y="52" class="st7" width="4.26" height="3.44"/>
			</g>
			<g>
			</g>
		</g>
		<g id="XMLID_34_">
			<g>
				<rect x="38.66" y="59.13" class="st7" width="4.26" height="3.44"/>
			</g>
			<g>
			</g>
		</g>
		<g id="XMLID_33_">
			<g>
				<rect x="38.96" y="54.74" class="st4" width="3.61" height="5.16"/>
			</g>
			<g>
			</g>
		</g>
		<g>
			<path class="st5" d="M40.22,56.38v-0.7h0.13v0.27h0.86v-0.27h0.12c0,0.04,0,0.08,0.01,0.12s0.01,0.07,0.03,0.09
				c0.01,0.03,0.03,0.05,0.05,0.06c0.02,0.02,0.05,0.02,0.09,0.03v0.13h-1.16v0.26H40.22z"/>
			<path class="st5" d="M40.86,57.4c-0.23,0-0.4-0.04-0.51-0.11s-0.16-0.18-0.16-0.34c0-0.15,0.05-0.27,0.16-0.34
				c0.11-0.07,0.28-0.11,0.5-0.11c0.23,0,0.4,0.04,0.51,0.11c0.11,0.07,0.16,0.18,0.16,0.34c0,0.15-0.06,0.27-0.17,0.34
				S41.09,57.4,40.86,57.4z M40.47,57.17c0.05,0.02,0.1,0.03,0.16,0.04c0.06,0.01,0.14,0.01,0.23,0.01c0.09,0,0.16,0,0.23-0.01
				c0.06-0.01,0.12-0.02,0.16-0.04c0.04-0.02,0.08-0.05,0.1-0.08c0.02-0.03,0.03-0.08,0.03-0.13c0-0.05-0.01-0.1-0.03-0.13
				c-0.02-0.04-0.06-0.06-0.1-0.08c-0.04-0.02-0.1-0.03-0.17-0.04c-0.07-0.01-0.14-0.01-0.23-0.01c-0.09,0-0.17,0-0.23,0.01
				s-0.11,0.02-0.16,0.04c-0.04,0.02-0.08,0.05-0.1,0.08c-0.02,0.03-0.04,0.08-0.04,0.14c0,0.05,0.01,0.1,0.03,0.13
				S40.42,57.15,40.47,57.17z"/>
			<path class="st5" d="M40.86,58.35c-0.23,0-0.4-0.04-0.51-0.11s-0.16-0.18-0.16-0.34c0-0.15,0.05-0.27,0.16-0.34
				c0.11-0.07,0.28-0.11,0.5-0.11c0.23,0,0.4,0.04,0.51,0.11c0.11,0.07,0.16,0.18,0.16,0.34c0,0.15-0.06,0.27-0.17,0.34
				S41.09,58.35,40.86,58.35z M40.47,58.12c0.05,0.02,0.1,0.03,0.16,0.04c0.06,0.01,0.14,0.01,0.23,0.01c0.09,0,0.16,0,0.23-0.01
				c0.06-0.01,0.12-0.02,0.16-0.04c0.04-0.02,0.08-0.05,0.1-0.08c0.02-0.03,0.03-0.08,0.03-0.13c0-0.05-0.01-0.1-0.03-0.13
				c-0.02-0.04-0.06-0.06-0.1-0.08c-0.04-0.02-0.1-0.03-0.17-0.04c-0.07-0.01-0.14-0.01-0.23-0.01c-0.09,0-0.17,0-0.23,0.01
				s-0.11,0.02-0.16,0.04c-0.04,0.02-0.08,0.05-0.1,0.08c-0.02,0.03-0.04,0.08-0.04,0.14c0,0.05,0.01,0.1,0.03,0.13
				S40.42,58.1,40.47,58.12z"/>
			<path class="st5" d="M40.22,59.3v-0.87h0.18c0.05,0.06,0.1,0.12,0.16,0.18c0.05,0.06,0.1,0.12,0.15,0.17
				c0.11,0.11,0.19,0.19,0.26,0.23c0.06,0.04,0.13,0.06,0.2,0.06c0.07,0,0.12-0.02,0.16-0.07c0.04-0.04,0.06-0.11,0.06-0.18
				c0-0.05-0.01-0.11-0.03-0.17s-0.05-0.12-0.08-0.18v-0.01h0.18c0.02,0.04,0.04,0.1,0.06,0.16c0.02,0.07,0.03,0.13,0.03,0.2
				c0,0.13-0.03,0.24-0.1,0.31c-0.06,0.07-0.15,0.11-0.26,0.11c-0.05,0-0.09-0.01-0.14-0.02c-0.04-0.01-0.08-0.03-0.12-0.06
				c-0.04-0.02-0.07-0.05-0.11-0.08c-0.03-0.03-0.07-0.07-0.11-0.11c-0.06-0.06-0.12-0.13-0.18-0.19c-0.06-0.07-0.11-0.13-0.16-0.18
				v0.69H40.22z"/>
		</g>
	</g>
	<g>
		<g id="XMLID_31_">
			<g>
				<rect x="23.6" y="15.55" class="st7" width="4.26" height="3.44"/>
			</g>
			<g>
			</g>
		</g>
		<g id="XMLID_27_">
			<g>
				<rect x="23.64" y="22.68" class="st7" width="4.26" height="3.44"/>
			</g>
			<g>
			</g>
		</g>
		<g id="XMLID_26_">
			<g>
				<rect x="23.94" y="18.29" class="st4" width="3.61" height="5.16"/>
			</g>
			<g>
			</g>
		</g>
		<g>
			<path class="st5" d="M25.2,19.93v-0.7h0.13v0.27h0.86v-0.27h0.12c0,0.04,0,0.08,0.01,0.12s0.01,0.07,0.03,0.09
				c0.01,0.03,0.03,0.05,0.05,0.06c0.02,0.02,0.05,0.02,0.09,0.03v0.13h-1.16v0.26H25.2z"/>
			<path class="st5" d="M25.85,20.95c-0.23,0-0.4-0.04-0.51-0.11s-0.16-0.18-0.16-0.34c0-0.15,0.05-0.27,0.16-0.34
				c0.11-0.07,0.28-0.11,0.5-0.11c0.23,0,0.4,0.04,0.51,0.11c0.11,0.07,0.16,0.18,0.16,0.34c0,0.15-0.06,0.27-0.17,0.34
				S26.07,20.95,25.85,20.95z M25.45,20.72c0.05,0.02,0.1,0.03,0.16,0.04c0.06,0.01,0.14,0.01,0.23,0.01c0.09,0,0.16,0,0.23-0.01
				c0.06-0.01,0.12-0.02,0.16-0.04c0.04-0.02,0.08-0.05,0.1-0.08c0.02-0.03,0.03-0.08,0.03-0.13c0-0.05-0.01-0.1-0.03-0.13
				c-0.02-0.04-0.06-0.06-0.1-0.08c-0.04-0.02-0.1-0.03-0.17-0.04c-0.07-0.01-0.14-0.01-0.23-0.01c-0.09,0-0.17,0-0.23,0.01
				s-0.11,0.02-0.16,0.04c-0.04,0.02-0.08,0.05-0.1,0.08c-0.02,0.03-0.04,0.08-0.04,0.14c0,0.05,0.01,0.1,0.03,0.13
				S25.41,20.7,25.45,20.72z"/>
			<path class="st5" d="M25.85,21.9c-0.23,0-0.4-0.04-0.51-0.11s-0.16-0.18-0.16-0.34c0-0.15,0.05-0.27,0.16-0.34
				c0.11-0.07,0.28-0.11,0.5-0.11c0.23,0,0.4,0.04,0.51,0.11c0.11,0.07,0.16,0.18,0.16,0.34c0,0.15-0.06,0.27-0.17,0.34
				S26.07,21.9,25.85,21.9z M25.45,21.67c0.05,0.02,0.1,0.03,0.16,0.04c0.06,0.01,0.14,0.01,0.23,0.01c0.09,0,0.16,0,0.23-0.01
				c0.06-0.01,0.12-0.02,0.16-0.04c0.04-0.02,0.08-0.05,0.1-0.08c0.02-0.03,0.03-0.08,0.03-0.13c0-0.05-0.01-0.1-0.03-0.13
				c-0.02-0.04-0.06-0.06-0.1-0.08c-0.04-0.02-0.1-0.03-0.17-0.04c-0.07-0.01-0.14-0.01-0.23-0.01c-0.09,0-0.17,0-0.23,0.01
				s-0.11,0.02-0.16,0.04c-0.04,0.02-0.08,0.05-0.1,0.08c-0.02,0.03-0.04,0.08-0.04,0.14c0,0.05,0.01,0.1,0.03,0.13
				S25.41,21.65,25.45,21.67z"/>
			<path class="st5" d="M25.2,22.77v-0.7h0.13v0.27h0.86v-0.27h0.12c0,0.04,0,0.08,0.01,0.12s0.01,0.07,0.03,0.09
				c0.01,0.03,0.03,0.05,0.05,0.06c0.02,0.02,0.05,0.02,0.09,0.03v0.13h-1.16v0.26H25.2z"/>
		</g>
	</g>
	<g>
		
			<rect x="65" y="22.8" transform="matrix(-1.836970e-16 1 -1 -1.836970e-16 107.2853 -42.5522)" class="st9" width="19.84" height="19.13"/>
		
			<linearGradient id="SVGID_1_" gradientUnits="userSpaceOnUse" x1="693.8136" y1="311.7414" x2="693.8136" y2="307.593" gradientTransform="matrix(-6.123234e-17 -1 1 -6.123234e-17 -227.2554 726.1802)">
			<stop  offset="0" style="stop-color:#FFFFFF;stop-opacity:0.5"/>
			<stop  offset="1" style="stop-color:#000000;stop-opacity:0.5"/>
		</linearGradient>
		<rect x="80.34" y="22.45" class="st10" width="4.15" height="19.84"/>
		
			<linearGradient id="SVGID_2_" gradientUnits="userSpaceOnUse" x1="693.8136" y1="296.7557" x2="693.8136" y2="292.6072" gradientTransform="matrix(-6.123234e-17 -1 1 -6.123234e-17 -227.2554 726.1802)">
			<stop  offset="0" style="stop-color:#FFFFFF;stop-opacity:0.5"/>
			<stop  offset="1" style="stop-color:#000000;stop-opacity:0.5"/>
		</linearGradient>
		<rect x="65.35" y="22.45" class="st11" width="4.15" height="19.84"/>
		<g id="XMLID_30_">
			<g>
				<path class="st12" d="M71.44,37.29c-0.03-0.15-0.05-0.29-0.06-0.43l0.01,0l6.89-1.34c0.05,0.13,0.09,0.27,0.12,0.42
					c0.03,0.14,0.05,0.28,0.05,0.42l-0.01,0l-6.9,1.34C71.5,37.57,71.47,37.43,71.44,37.29z"/>
				<path class="st13" d="M71.55,37.71l6.9-1.34l0.01,0c0.13,1.76-1.08,3.38-2.85,3.73C73.81,40.44,72.09,39.39,71.55,37.71z"/>
				<path class="st13" d="M71.39,36.86c-0.14-1.76,1.08-3.38,2.86-3.72c1.77-0.34,3.5,0.7,4.03,2.38L71.39,36.86z"/>
			</g>
			<g>
			</g>
		</g>
		<g id="XMLID_29_">
			<g>
				<path class="st12" d="M71.39,28.36l6.89-1.34c0.05,0.13,0.09,0.27,0.12,0.42c0.03,0.14,0.05,0.28,0.05,0.42l-0.01,0l-6.9,1.34
					c-0.05-0.14-0.08-0.27-0.11-0.41C71.41,28.64,71.39,28.5,71.39,28.36L71.39,28.36z"/>
				<path class="st13" d="M71.55,29.2l6.9-1.34l0.01,0c0.13,1.76-1.08,3.38-2.85,3.73C73.81,31.94,72.09,30.89,71.55,29.2z"/>
				<path class="st13" d="M71.39,28.36c-0.14-1.76,1.08-3.38,2.86-3.72c1.77-0.34,3.5,0.7,4.03,2.38L71.39,28.36z"/>
			</g>
			<g>
			</g>
		</g>
	</g>
	<g>
		
			<rect x="65" y="42.64" transform="matrix(-1.836970e-16 1 -1 -1.836970e-16 127.1278 -22.7097)" class="st9" width="19.84" height="19.13"/>
		
			<linearGradient id="SVGID_3_" gradientUnits="userSpaceOnUse" x1="673.9711" y1="311.7414" x2="673.9711" y2="307.593" gradientTransform="matrix(-6.123234e-17 -1 1 -6.123234e-17 -227.2554 726.1802)">
			<stop  offset="0" style="stop-color:#FFFFFF;stop-opacity:0.5"/>
			<stop  offset="1" style="stop-color:#000000;stop-opacity:0.5"/>
		</linearGradient>
		<rect x="80.34" y="42.29" class="st14" width="4.15" height="19.84"/>
		
			<linearGradient id="SVGID_4_" gradientUnits="userSpaceOnUse" x1="673.9711" y1="296.7557" x2="673.9711" y2="292.6072" gradientTransform="matrix(-6.123234e-17 -1 1 -6.123234e-17 -227.2554 726.1802)">
			<stop  offset="0" style="stop-color:#FFFFFF;stop-opacity:0.5"/>
			<stop  offset="1" style="stop-color:#000000;stop-opacity:0.5"/>
		</linearGradient>
		<rect x="65.35" y="42.29" class="st15" width="4.15" height="19.84"/>
		<g id="XMLID_28_">
			<g>
				<path class="st12" d="M71.44,57.14c-0.03-0.15-0.05-0.29-0.06-0.43l0.01,0l6.89-1.34c0.05,0.13,0.09,0.27,0.12,0.42
					c0.03,0.14,0.05,0.28,0.05,0.42l-0.01,0l-6.9,1.34C71.5,57.41,71.47,57.28,71.44,57.14z"/>
				<path class="st13" d="M71.55,57.55l6.9-1.34l0.01,0c0.13,1.76-1.08,3.38-2.85,3.73C73.81,60.28,72.09,59.23,71.55,57.55z"/>
				<path class="st13" d="M78.28,55.37l-6.89,1.34c-0.14-1.76,1.08-3.38,2.86-3.72C76.02,52.64,77.75,53.68,78.28,55.37z"/>
			</g>
			<g>
			</g>
		</g>
		<g id="XMLID_25_">
			<g>
				<path class="st12" d="M71.44,48.63c-0.03-0.15-0.05-0.29-0.06-0.43l0.01,0l6.89-1.34c0.05,0.13,0.09,0.27,0.12,0.42
					c0.03,0.14,0.05,0.28,0.05,0.42l-0.01,0l-6.9,1.34C71.5,48.91,71.47,48.77,71.44,48.63z"/>
				<path class="st13" d="M71.55,49.05l6.9-1.34l0.01,0c0.13,1.76-1.08,3.38-2.85,3.73C73.81,51.78,72.09,50.73,71.55,49.05z"/>
				<path class="st13" d="M78.28,46.86l-6.89,1.34c-0.14-1.76,1.08-3.38,2.86-3.72C76.02,44.14,77.75,45.18,78.28,46.86z"/>
			</g>
			<g>
			</g>
		</g>
	</g>
	<g>
		<path class="st16" d="M10.2,30.13c-1.23,0-2.22-1-2.22-2.24c0-1.24,1-2.24,2.22-2.24s2.22,1,2.22,2.24
			C12.43,29.13,11.43,30.13,10.2,30.13z"/>
		<ellipse class="st17" cx="10.2" cy="27.89" rx="1.52" ry="1.53"/>
		
			<rect x="17.63" y="25.83" transform="matrix(-1.836970e-16 1 -1 -1.836970e-16 48.1711 8.2044)" class="st1" width="4.71" height="4.71"/>
		<g>
			<path class="st0" d="M21.36,28.13c0,0.4-0.12,0.72-0.36,0.96c-0.24,0.24-0.56,0.36-0.94,0.36h-0.41c-0.38,0-0.7-0.12-0.94-0.36
				c-0.24-0.24-0.36-0.56-0.36-0.96v-1.27h0.26l0.06,0.34h2.37l0.06-0.34h0.26v0.34V28.13z M21.03,27.61h-2.37v0.52
				c0,0.28,0.09,0.5,0.27,0.67c0.18,0.16,0.42,0.24,0.71,0.24h0.42c0.28,0,0.52-0.08,0.7-0.24c0.18-0.16,0.28-0.38,0.28-0.67V27.61z
				"/>
		</g>
		<path class="st18" d="M21.92,53.16c0,0,0,0.01,0,0.03c-2.11,0.01-15.26,0.04-15.26,0.04s-0.17,0-0.34,0c0-0.05,0-0.09,0-0.09
			s0.04-19.7,0.05-21.55c0-0.09,0-0.14,0-0.14l15.54-0.04c0,0,0.03,0,0.05,0c0,0.03,0,0.06,0,0.06"/>
		<line class="st18" x1="21.94" y1="45.93" x2="6.34" y2="45.93"/>
		<line class="st18" x1="21.95" y1="38.7" x2="6.36" y2="38.7"/>
		<path class="st16" d="M10.2,37.36c-1.23,0-2.22-1-2.22-2.24s1-2.24,2.22-2.24s2.22,1,2.22,2.24S11.43,37.36,10.2,37.36z"/>
		<ellipse class="st17" cx="10.2" cy="35.12" rx="1.52" ry="1.53"/>
		<path class="st16" d="M10.2,44.56c-1.23,0-2.22-1-2.22-2.24s1-2.24,2.22-2.24s2.22,1,2.22,2.24S11.43,44.56,10.2,44.56z"/>
		<ellipse class="st17" cx="10.2" cy="42.32" rx="1.52" ry="1.53"/>
		<path class="st16" d="M11.83,51.15c-2.02,1.54-4.27-0.17-3.78-2.18c0.19-0.77,0.82-1.41,1.6-1.6
			C11.65,46.87,13.37,49.12,11.83,51.15z"/>
		<ellipse class="st17" cx="10.2" cy="49.52" rx="1.52" ry="1.53"/>
		<path class="st16" d="M11.83,58.35c-2.02,1.54-4.27-0.17-3.78-2.18c0.19-0.77,0.82-1.41,1.6-1.6
			C11.65,54.07,13.37,56.32,11.83,58.35z"/>
		<ellipse class="st17" cx="10.2" cy="56.72" rx="1.52" ry="1.53"/>
		<g>
			<path class="st19" d="M15.73,37.04c-0.16-0.15-0.31-0.38-0.45-0.68s-0.21-0.68-0.21-1.16c0-0.7,0.24-1.26,0.73-1.7
				c0.48-0.44,1.11-0.66,1.88-0.66h0.08c0.78,0,1.41,0.22,1.89,0.65c0.48,0.43,0.72,1.01,0.72,1.73c0,0.39-0.06,0.72-0.18,1.02
				s-0.28,0.54-0.47,0.74h-0.94v-0.49l0.71-0.17c0.09-0.12,0.17-0.26,0.23-0.42s0.09-0.36,0.09-0.6c0-0.56-0.19-1-0.57-1.3
				c-0.38-0.3-0.88-0.46-1.48-0.46h-0.09c-0.62,0-1.12,0.15-1.5,0.44c-0.38,0.29-0.57,0.7-0.57,1.22c0,0.28,0.03,0.52,0.09,0.7
				c0.06,0.18,0.12,0.33,0.2,0.44h1.13l0.04-0.85h0.51v1.56H15.73z"/>
		</g>
		<g>
			<path class="st19" d="M19.75,41.5l-0.08-0.48l-3.35,1.17l-0.41,0.12v0.02l0.41,0.12l3.36,1.16l0.07-0.47h0.45v1.64h-0.45
				l-0.06-0.42l-4.65-1.74v-0.6l4.65-1.74l0.06-0.41h0.45v1.64H19.75z"/>
		</g>
		<g>
			<path class="st19" d="M18.67,51.31v-0.53l0.74-0.13c0.09-0.11,0.16-0.25,0.22-0.43c0.06-0.18,0.09-0.39,0.09-0.62
				c0-0.37-0.08-0.66-0.24-0.86c-0.16-0.2-0.36-0.3-0.61-0.3c-0.22,0-0.41,0.1-0.56,0.31c-0.15,0.2-0.28,0.53-0.39,0.99
				c-0.13,0.55-0.33,0.96-0.6,1.25c-0.26,0.28-0.59,0.43-0.97,0.43c-0.42,0-0.75-0.17-1-0.51s-0.38-0.79-0.38-1.34
				c0-0.4,0.06-0.76,0.19-1.07c0.13-0.31,0.3-0.56,0.51-0.76h0.96v0.53l-0.74,0.14c-0.11,0.14-0.2,0.3-0.27,0.49
				c-0.07,0.19-0.11,0.41-0.11,0.68c0,0.35,0.07,0.64,0.22,0.84s0.35,0.31,0.61,0.31c0.24,0,0.43-0.09,0.59-0.27s0.29-0.49,0.4-0.95
				c0.13-0.55,0.32-0.98,0.57-1.29c0.25-0.31,0.57-0.46,0.95-0.46c0.4,0,0.74,0.17,1.01,0.52c0.27,0.35,0.4,0.79,0.4,1.35
				c0,0.36-0.06,0.7-0.19,1c-0.12,0.3-0.27,0.54-0.45,0.72H18.67z"/>
		</g>
		<g>
			<path class="st19" d="M20.2,56.62c0,0.68-0.21,1.23-0.62,1.64c-0.42,0.41-0.95,0.62-1.61,0.62h-0.71c-0.66,0-1.19-0.21-1.61-0.62
				c-0.41-0.41-0.62-0.96-0.62-1.64v-2.18h0.45l0.1,0.58h4.06l0.1-0.58h0.45v0.58V56.62z M19.65,55.72h-4.06v0.89
				c0,0.48,0.16,0.86,0.47,1.14c0.31,0.28,0.72,0.42,1.21,0.42h0.71c0.49,0,0.89-0.14,1.2-0.42c0.31-0.28,0.47-0.66,0.47-1.14V55.72
				z"/>
		</g>
		<path class="st18" d="M6.33,53.14v7.49c2.43,0,15.67,0,15.67,0l-0.03-29.17"/>
	</g>
	<g>
		<g id="XMLID_242_">
			<g>
				<rect x="55.97" y="23.18" class="st2" width="2.95" height="1.61"/>
			</g>
			<g>
			</g>
		</g>
		<g id="XMLID_241_">
			<g>
				<rect x="55.97" y="16.87" class="st2" width="2.95" height="1.61"/>
			</g>
			<g>
			</g>
		</g>
		<g id="XMLID_245_">
			<g>
				<rect x="52.38" y="16.56" class="st4" width="3.66" height="8.56"/>
			</g>
			<g>
			</g>
		</g>
		<g id="XMLID_244_">
			<g>
				<rect x="49.44" y="23.18" class="st2" width="2.95" height="1.61"/>
			</g>
			<g>
			</g>
		</g>
		<g id="XMLID_243_">
			<g>
				<rect x="49.44" y="16.87" class="st2" width="2.95" height="1.61"/>
			</g>
			<g>
			</g>
		</g>
		<g id="XMLID_240_">
			<g>
				<rect x="49.44" y="20.03" class="st2" width="2.95" height="1.61"/>
			</g>
			<g>
			</g>
		</g>
		<g>
			<path class="st5" d="M54.79,21.92c0.01,0.03,0.03,0.06,0.04,0.08s0.02,0.06,0.04,0.1c0.01,0.03,0.02,0.07,0.03,0.11
				c0.01,0.04,0.01,0.09,0.01,0.13c0,0.09-0.01,0.18-0.04,0.25c-0.03,0.08-0.07,0.14-0.12,0.2c-0.05,0.05-0.12,0.1-0.2,0.13
				s-0.18,0.05-0.29,0.05c-0.1,0-0.2-0.01-0.28-0.04c-0.08-0.03-0.15-0.07-0.21-0.13c-0.05-0.05-0.1-0.12-0.13-0.2
				c-0.03-0.08-0.04-0.16-0.04-0.25c0-0.07,0.01-0.14,0.02-0.2c0.02-0.07,0.05-0.14,0.09-0.23h0.2v0.01
				c-0.06,0.07-0.1,0.14-0.13,0.21s-0.04,0.14-0.04,0.22c0,0.06,0.01,0.12,0.03,0.17s0.05,0.1,0.1,0.14
				c0.04,0.04,0.1,0.07,0.16,0.09s0.14,0.03,0.22,0.03c0.09,0,0.16-0.01,0.23-0.04c0.06-0.02,0.12-0.06,0.16-0.09
				c0.04-0.04,0.07-0.09,0.09-0.14s0.03-0.11,0.03-0.17c0-0.08-0.01-0.16-0.04-0.23c-0.03-0.07-0.07-0.14-0.12-0.2v-0.01H54.79z"/>
			<path class="st5" d="M54.53,20.84c0.11,0,0.2,0.04,0.27,0.13c0.07,0.09,0.11,0.19,0.11,0.32c0,0.14-0.04,0.25-0.11,0.33
				c-0.07,0.08-0.16,0.12-0.27,0.12c-0.07,0-0.13-0.02-0.19-0.06s-0.1-0.1-0.13-0.17H54.2c-0.04,0.07-0.08,0.12-0.12,0.15
				s-0.1,0.05-0.16,0.05c-0.09,0-0.17-0.04-0.24-0.12s-0.09-0.18-0.09-0.3c0-0.13,0.03-0.23,0.09-0.3c0.06-0.08,0.14-0.11,0.23-0.11
				c0.06,0,0.11,0.02,0.17,0.05c0.06,0.04,0.1,0.09,0.13,0.16h0.01c0.03-0.08,0.08-0.14,0.13-0.18
				C54.39,20.86,54.45,20.84,54.53,20.84z M53.91,21.04c-0.06,0-0.11,0.02-0.14,0.07c-0.04,0.05-0.05,0.11-0.05,0.18
				c0,0.07,0.02,0.13,0.05,0.18c0.03,0.05,0.08,0.07,0.14,0.07c0.04,0,0.08-0.01,0.11-0.03c0.03-0.02,0.06-0.06,0.08-0.1
				c0.01-0.02,0.02-0.05,0.04-0.09c0.02-0.04,0.03-0.08,0.04-0.12c-0.04-0.06-0.08-0.1-0.12-0.12S53.96,21.04,53.91,21.04z
				 M54.54,21.02c-0.05,0-0.09,0.01-0.12,0.03c-0.03,0.02-0.06,0.07-0.09,0.14c-0.01,0.03-0.02,0.06-0.03,0.09s-0.03,0.07-0.04,0.13
				c0.03,0.05,0.06,0.09,0.11,0.12c0.05,0.03,0.1,0.05,0.16,0.05c0.08,0,0.14-0.03,0.19-0.08c0.05-0.05,0.07-0.12,0.07-0.2
				c0-0.08-0.02-0.15-0.06-0.2C54.67,21.04,54.62,21.02,54.54,21.02z"/>
			<path class="st5" d="M54.47,19.72c0.13,0,0.23,0.04,0.31,0.13c0.08,0.09,0.12,0.19,0.12,0.31c0,0.06-0.01,0.12-0.03,0.17
				s-0.05,0.1-0.09,0.14c-0.05,0.05-0.11,0.09-0.19,0.11c-0.08,0.03-0.17,0.04-0.28,0.04c-0.11,0-0.21-0.01-0.3-0.04
				c-0.09-0.02-0.16-0.06-0.23-0.12c-0.06-0.05-0.11-0.11-0.15-0.19c-0.04-0.08-0.05-0.17-0.05-0.28c0-0.03,0-0.06,0-0.08
				s0.01-0.05,0.02-0.07h0.16v0.01c-0.01,0.02-0.02,0.04-0.02,0.07c-0.01,0.03-0.01,0.06-0.01,0.1c0,0.12,0.04,0.22,0.11,0.29
				s0.18,0.12,0.31,0.13c-0.03-0.05-0.05-0.09-0.07-0.14c-0.02-0.05-0.02-0.1-0.02-0.16c0-0.05,0-0.1,0.01-0.14
				c0.01-0.04,0.03-0.08,0.06-0.13c0.03-0.05,0.08-0.09,0.13-0.11C54.33,19.73,54.39,19.72,54.47,19.72z M54.48,19.9
				c-0.05,0-0.1,0.01-0.13,0.02c-0.03,0.02-0.06,0.04-0.09,0.08c-0.02,0.03-0.03,0.06-0.04,0.09c-0.01,0.03-0.01,0.07-0.01,0.1
				c0,0.05,0.01,0.09,0.02,0.13c0.01,0.04,0.03,0.08,0.05,0.13c0.01,0,0.02,0,0.04,0c0.01,0,0.03,0,0.04,0
				c0.09,0,0.16-0.01,0.21-0.03c0.05-0.02,0.09-0.04,0.12-0.08c0.02-0.03,0.04-0.05,0.05-0.08c0.01-0.03,0.02-0.06,0.02-0.1
				c0-0.08-0.02-0.15-0.07-0.19S54.57,19.9,54.48,19.9z"/>
			<path class="st5" d="M54.48,18.64c0.06,0,0.11,0.01,0.17,0.03c0.05,0.02,0.1,0.05,0.14,0.09c0.04,0.04,0.07,0.09,0.09,0.15
				c0.02,0.06,0.03,0.12,0.03,0.2c0,0.07-0.01,0.14-0.02,0.2c-0.01,0.06-0.03,0.12-0.05,0.16h-0.18v-0.01
				c0.03-0.05,0.05-0.1,0.08-0.16c0.02-0.06,0.03-0.12,0.03-0.18c0-0.04-0.01-0.08-0.02-0.12c-0.01-0.04-0.03-0.07-0.06-0.1
				c-0.02-0.02-0.05-0.04-0.09-0.06c-0.03-0.01-0.07-0.02-0.12-0.02c-0.04,0-0.08,0.01-0.11,0.02c-0.03,0.01-0.05,0.04-0.07,0.06
				c-0.02,0.03-0.04,0.07-0.05,0.11s-0.01,0.09-0.01,0.14c0,0.05,0,0.1,0.01,0.14s0.01,0.09,0.02,0.12h-0.65v-0.76h0.15v0.6h0.33
				c0-0.02,0-0.05-0.01-0.07c0-0.03,0-0.05,0-0.07c0-0.07,0.01-0.13,0.02-0.18c0.01-0.05,0.03-0.1,0.06-0.14
				c0.03-0.05,0.07-0.08,0.12-0.11C54.34,18.65,54.4,18.64,54.48,18.64z"/>
		</g>
	</g>
	<g>
		<g id="XMLID_24_">
			<g>
				<rect x="30.88" y="59.63" class="st2" width="2.95" height="1.61"/>
			</g>
			<g>
			</g>
		</g>
		<g id="XMLID_23_">
			<g>
				<rect x="30.88" y="53.32" class="st2" width="2.95" height="1.61"/>
			</g>
			<g>
			</g>
		</g>
		<g id="XMLID_22_">
			<g>
				<rect x="27.3" y="53.01" class="st4" width="3.66" height="8.56"/>
			</g>
			<g>
			</g>
		</g>
		<g id="XMLID_21_">
			<g>
				<rect x="24.35" y="59.63" class="st2" width="2.95" height="1.61"/>
			</g>
			<g>
			</g>
		</g>
		<g id="XMLID_37_">
			<g>
				<rect x="24.35" y="53.32" class="st2" width="2.95" height="1.61"/>
			</g>
			<g>
			</g>
		</g>
		<g id="XMLID_36_">
			<g>
				<rect x="24.35" y="56.48" class="st2" width="2.95" height="1.61"/>
			</g>
			<g>
			</g>
		</g>
		<g>
			<path class="st5" d="M29.7,58.36c0.01,0.03,0.03,0.06,0.04,0.08s0.02,0.06,0.04,0.1c0.01,0.03,0.02,0.07,0.03,0.11
				c0.01,0.04,0.01,0.09,0.01,0.13c0,0.09-0.01,0.18-0.04,0.25c-0.03,0.08-0.07,0.14-0.12,0.2c-0.05,0.05-0.12,0.1-0.2,0.13
				s-0.18,0.05-0.29,0.05c-0.1,0-0.2-0.01-0.28-0.04c-0.08-0.03-0.15-0.07-0.21-0.13c-0.05-0.05-0.1-0.12-0.13-0.2
				c-0.03-0.08-0.04-0.16-0.04-0.25c0-0.07,0.01-0.14,0.02-0.2c0.02-0.07,0.05-0.14,0.09-0.23h0.2v0.01
				c-0.06,0.07-0.1,0.14-0.13,0.21s-0.04,0.14-0.04,0.22c0,0.06,0.01,0.12,0.03,0.17s0.05,0.1,0.1,0.14
				c0.04,0.04,0.1,0.07,0.16,0.09s0.14,0.03,0.22,0.03c0.09,0,0.16-0.01,0.23-0.04c0.06-0.02,0.12-0.06,0.16-0.09
				c0.04-0.04,0.07-0.09,0.09-0.14s0.03-0.11,0.03-0.17c0-0.08-0.01-0.16-0.04-0.23c-0.03-0.07-0.07-0.14-0.12-0.2v-0.01H29.7z"/>
			<path class="st5" d="M29.44,57.29c0.11,0,0.2,0.04,0.27,0.13c0.07,0.09,0.11,0.19,0.11,0.32c0,0.14-0.04,0.25-0.11,0.33
				c-0.07,0.08-0.16,0.12-0.27,0.12c-0.07,0-0.13-0.02-0.19-0.06s-0.1-0.1-0.13-0.17h-0.01c-0.04,0.07-0.08,0.12-0.12,0.15
				s-0.1,0.05-0.16,0.05c-0.09,0-0.17-0.04-0.24-0.12s-0.09-0.18-0.09-0.3c0-0.13,0.03-0.23,0.09-0.3c0.06-0.08,0.14-0.11,0.23-0.11
				c0.06,0,0.11,0.02,0.17,0.05c0.06,0.04,0.1,0.09,0.13,0.16h0.01c0.03-0.08,0.08-0.14,0.13-0.18
				C29.3,57.31,29.36,57.29,29.44,57.29z M28.82,57.49c-0.06,0-0.11,0.02-0.14,0.07c-0.04,0.05-0.05,0.11-0.05,0.18
				c0,0.07,0.02,0.13,0.05,0.18c0.03,0.05,0.08,0.07,0.14,0.07c0.04,0,0.08-0.01,0.11-0.03c0.03-0.02,0.06-0.06,0.08-0.1
				c0.01-0.02,0.02-0.05,0.04-0.09c0.02-0.04,0.03-0.08,0.04-0.12c-0.04-0.06-0.08-0.1-0.12-0.12S28.88,57.49,28.82,57.49z
				 M29.46,57.47c-0.05,0-0.09,0.01-0.12,0.03c-0.03,0.02-0.06,0.07-0.09,0.14c-0.01,0.03-0.02,0.06-0.03,0.09s-0.03,0.07-0.04,0.13
				c0.03,0.05,0.06,0.09,0.11,0.12c0.05,0.03,0.1,0.05,0.16,0.05c0.08,0,0.14-0.03,0.19-0.08c0.05-0.05,0.07-0.12,0.07-0.2
				c0-0.08-0.02-0.15-0.06-0.2C29.59,57.49,29.53,57.47,29.46,57.47z"/>
			<path class="st5" d="M29.38,56.17c0.13,0,0.23,0.04,0.31,0.13c0.08,0.09,0.12,0.19,0.12,0.31c0,0.06-0.01,0.12-0.03,0.17
				s-0.05,0.1-0.09,0.14c-0.05,0.05-0.11,0.09-0.19,0.11c-0.08,0.03-0.17,0.04-0.28,0.04c-0.11,0-0.21-0.01-0.3-0.04
				c-0.09-0.02-0.16-0.06-0.23-0.12c-0.06-0.05-0.11-0.11-0.15-0.19c-0.04-0.08-0.05-0.17-0.05-0.28c0-0.03,0-0.06,0-0.08
				s0.01-0.05,0.02-0.07h0.16v0.01c-0.01,0.02-0.02,0.04-0.02,0.07c-0.01,0.03-0.01,0.06-0.01,0.1c0,0.12,0.04,0.22,0.11,0.29
				s0.18,0.12,0.31,0.13c-0.03-0.05-0.05-0.09-0.07-0.14c-0.02-0.05-0.02-0.1-0.02-0.16c0-0.05,0-0.1,0.01-0.14
				c0.01-0.04,0.03-0.08,0.06-0.13c0.03-0.05,0.08-0.09,0.13-0.11C29.24,56.18,29.31,56.17,29.38,56.17z M29.39,56.34
				c-0.05,0-0.1,0.01-0.13,0.02c-0.03,0.02-0.06,0.04-0.09,0.08c-0.02,0.03-0.03,0.06-0.04,0.09c-0.01,0.03-0.01,0.07-0.01,0.1
				c0,0.05,0.01,0.09,0.02,0.13c0.01,0.04,0.03,0.08,0.05,0.13c0.01,0,0.02,0,0.04,0c0.01,0,0.03,0,0.04,0
				c0.09,0,0.16-0.01,0.21-0.03c0.05-0.02,0.09-0.04,0.12-0.08c0.02-0.03,0.04-0.05,0.05-0.08c0.01-0.03,0.02-0.06,0.02-0.1
				c0-0.08-0.02-0.15-0.07-0.19S29.48,56.34,29.39,56.34z"/>
			<path class="st5" d="M29.39,55.09c0.06,0,0.11,0.01,0.17,0.03c0.05,0.02,0.1,0.05,0.14,0.09c0.04,0.04,0.07,0.09,0.09,0.15
				c0.02,0.06,0.03,0.12,0.03,0.2c0,0.07-0.01,0.14-0.02,0.2c-0.01,0.06-0.03,0.12-0.05,0.16h-0.18V55.9
				c0.03-0.05,0.05-0.1,0.08-0.16c0.02-0.06,0.03-0.12,0.03-0.18c0-0.04-0.01-0.08-0.02-0.12c-0.01-0.04-0.03-0.07-0.06-0.1
				c-0.02-0.02-0.05-0.04-0.09-0.06c-0.03-0.01-0.07-0.02-0.12-0.02c-0.04,0-0.08,0.01-0.11,0.02c-0.03,0.01-0.05,0.04-0.07,0.06
				c-0.02,0.03-0.04,0.07-0.05,0.11s-0.01,0.09-0.01,0.14c0,0.05,0,0.1,0.01,0.14s0.01,0.09,0.02,0.12h-0.65V55.1h0.15v0.6h0.33
				c0-0.02,0-0.05-0.01-0.07c0-0.03,0-0.05,0-0.07c0-0.07,0.01-0.13,0.02-0.18c0.01-0.05,0.03-0.1,0.06-0.14
				c0.03-0.05,0.07-0.08,0.12-0.11C29.26,55.1,29.32,55.09,29.39,55.09z"/>
		</g>
	</g>
	<g>
		<g>
			<g>
				<g>
					<g>
						<polygon class="st3" points="21.61,76.22 20.34,74.95 20.34,70.42 21.62,69.15 26.15,69.15 27.42,70.42 27.42,74.95 
							26.15,76.22 						"/>
						<path class="st20" d="M26.14,69.15l0.81,0.81l0.46,0.46v4.53l-1.27,1.27h-4.53l-1.27-1.27v-4.53l0.46-0.46l0.81-0.81H26.14
							 M26.15,69.14h-4.54c-0.5,0.5-0.78,0.78-1.28,1.28v4.54c0.5,0.5,0.78,0.78,1.28,1.28h4.54c0.5-0.5,0.78-0.78,1.28-1.28v-4.54
							C26.93,69.92,26.65,69.64,26.15,69.14L26.15,69.14z"/>
					</g>
				</g>
				<rect x="23" y="71.78" class="st21" width="1.77" height="1.81"/>
				<rect x="23.4" y="72.19" class="st22" width="0.97" height="0.99"/>
				<line class="st23" x1="23" y1="71.78" x2="23.4" y2="72.19"/>
				<line class="st23" x1="24.36" y1="72.19" x2="24.76" y2="71.78"/>
				<line class="st23" x1="24.36" y1="73.18" x2="24.76" y2="73.59"/>
				<line class="st23" x1="23.4" y1="73.18" x2="23" y2="73.59"/>
			</g>
		</g>
		<g>
			<g>
				<g>
					<g>
						<polygon class="st3" points="35.96,76.22 34.68,74.95 34.69,70.42 35.96,69.15 40.49,69.15 41.76,70.42 41.76,74.95 
							40.49,76.22 						"/>
						<path class="st20" d="M40.49,69.15l0.81,0.81l0.46,0.46v4.53l-1.27,1.27h-4.53l-1.27-1.27v-4.53l0.46-0.46l0.81-0.81H40.49
							 M40.49,69.14h-4.54c-0.5,0.5-0.78,0.78-1.28,1.28v4.54c0.5,0.5,0.78,0.78,1.28,1.28h4.54c0.5-0.5,0.78-0.78,1.28-1.28v-4.54
							C41.27,69.92,40.99,69.64,40.49,69.14L40.49,69.14z"/>
					</g>
				</g>
				<rect x="37.34" y="71.78" class="st21" width="1.77" height="1.81"/>
				<rect x="37.74" y="72.19" class="st22" width="0.97" height="0.99"/>
				<line class="st23" x1="37.34" y1="71.78" x2="37.74" y2="72.19"/>
				<line class="st23" x1="38.71" y1="72.19" x2="39.11" y2="71.78"/>
				<line class="st23" x1="38.71" y1="73.18" x2="39.11" y2="73.59"/>
				<line class="st23" x1="37.74" y1="73.18" x2="37.34" y2="73.59"/>
			</g>
		</g>
		<g>
			<g>
				<g>
					<g>
						<polygon class="st3" points="28.78,76.22 27.51,74.95 27.51,70.42 28.79,69.15 33.32,69.15 34.59,70.42 34.59,74.95 
							33.32,76.22 						"/>
						<path class="st20" d="M33.32,69.15l0.63,0.63l0.63,0.63v4.53l-1.27,1.27h-4.53l-1.27-1.27v-4.53l0.63-0.63l0.63-0.63H33.32
							 M33.32,69.14h-4.54c-0.5,0.5-0.78,0.78-1.28,1.28v4.54c0.5,0.5,0.78,0.78,1.28,1.28h4.54c0.5-0.5,0.78-0.78,1.28-1.28v-4.54
							C34.1,69.92,33.82,69.64,33.32,69.14L33.32,69.14z"/>
					</g>
				</g>
				<rect x="30.17" y="71.78" class="st21" width="1.77" height="1.81"/>
				<rect x="30.57" y="72.19" class="st22" width="0.97" height="0.99"/>
				<line class="st23" x1="30.17" y1="71.78" x2="30.57" y2="72.19"/>
				<line class="st23" x1="31.54" y1="72.19" x2="31.94" y2="71.78"/>
				<line class="st23" x1="31.54" y1="73.18" x2="31.94" y2="73.59"/>
				<line class="st23" x1="30.57" y1="73.18" x2="30.17" y2="73.59"/>
			</g>
		</g>
	</g>
	<polyline class="st18" points="30.37,76.62 30.37,77.62 21.35,77.62 21.35,76.65 	"/>
	<polyline class="st18" points="40.95,76.62 40.95,77.62 31.94,77.62 31.94,76.65 	"/>
	<g>
		<g>
			<g id="XMLID_20_">
				<g>
					<rect x="30.87" y="36.06" class="st7" width="4.26" height="3.44"/>
				</g>
				<g>
				</g>
			</g>
			<g id="XMLID_19_">
				<g>
					<rect x="30.83" y="28.93" class="st7" width="4.26" height="3.44"/>
				</g>
				<g>
				</g>
			</g>
			<circle class="st24" cx="32.88" cy="34.15" r="0.55"/>
		</g>
		<path class="st25" d="M32.96,31.54c-0.29,0-0.6-0.14-0.69-0.43c-0.02-0.06-1.43-0.06-1.43-0.06s0,0.74,0,1.48h4.26
			c0-0.74,0-1.48,0-1.48s-1.41,0-1.43,0.06C33.56,31.4,33.25,31.54,32.96,31.54"/>
		<path class="st25" d="M32.96,31.26c-0.29,0-0.6-0.14-0.69-0.43c-0.02-0.06-1.43-0.06-1.43-0.06s0,0.74,0,1.48h4.26
			c0-0.74,0-1.48,0-1.48s-1.41,0-1.43,0.06C33.56,31.12,33.25,31.26,32.96,31.26"/>
		<path class="st25" d="M32.96,36.83c-0.29,0-0.6,0.14-0.69,0.43c-0.02,0.06-1.43,0.06-1.43,0.06s0-0.74,0-1.48h4.26
			c0,0.74,0,1.48,0,1.48s-1.41,0-1.43-0.06C33.56,36.97,33.25,36.83,32.96,36.83"/>
		
			<rect x="31.3" y="32.06" transform="matrix(-1.836970e-16 1 -1 -1.836970e-16 67.1439 1.2226)" class="st26" width="3.32" height="4.26"/>
		
			<rect x="31.3" y="32.06" transform="matrix(-1.836970e-16 1 -1 -1.836970e-16 67.1439 1.2226)" class="st27" width="3.32" height="4.26"/>
	</g>
	<g>
		<g>
			<g id="XMLID_4_">
				<g>
					<rect x="38.26" y="36.06" class="st7" width="4.26" height="3.44"/>
				</g>
				<g>
				</g>
			</g>
			<g id="XMLID_3_">
				<g>
					<rect x="38.22" y="28.93" class="st7" width="4.26" height="3.44"/>
				</g>
				<g>
				</g>
			</g>
			<circle class="st24" cx="40.26" cy="34.15" r="0.55"/>
		</g>
		<path class="st25" d="M40.35,31.54c-0.29,0-0.6-0.14-0.69-0.43c-0.02-0.06-1.43-0.06-1.43-0.06s0,0.74,0,1.48h4.26
			c0-0.74,0-1.48,0-1.48s-1.41,0-1.43,0.06C40.95,31.4,40.64,31.54,40.35,31.54"/>
		<path class="st25" d="M40.35,31.26c-0.29,0-0.6-0.14-0.69-0.43c-0.02-0.06-1.43-0.06-1.43-0.06s0,0.74,0,1.48h4.26
			c0-0.74,0-1.48,0-1.48s-1.41,0-1.43,0.06C40.95,31.12,40.64,31.26,40.35,31.26"/>
		<path class="st25" d="M40.35,36.83c-0.29,0-0.6,0.14-0.69,0.43c-0.02,0.06-1.43,0.06-1.43,0.06s0-0.74,0-1.48h4.26
			c0,0.74,0,1.48,0,1.48s-1.41,0-1.43-0.06C40.95,36.97,40.64,36.83,40.35,36.83"/>
		
			<rect x="38.69" y="32.06" transform="matrix(-1.836970e-16 1 -1 -1.836970e-16 74.5293 -6.1628)" class="st26" width="3.32" height="4.26"/>
		
			<rect x="38.69" y="32.06" transform="matrix(-1.836970e-16 1 -1 -1.836970e-16 74.5293 -6.1628)" class="st27" width="3.32" height="4.26"/>
	</g>
	<g>
		<g>
			<g id="XMLID_2_">
				<g>
					<rect x="23.72" y="36.06" class="st7" width="4.26" height="3.44"/>
				</g>
				<g>
				</g>
			</g>
			<g id="XMLID_1_">
				<g>
					<rect x="23.68" y="28.93" class="st7" width="4.26" height="3.44"/>
				</g>
				<g>
				</g>
			</g>
			<circle class="st24" cx="25.72" cy="34.15" r="0.55"/>
		</g>
		<path class="st25" d="M25.8,31.54c-0.29,0-0.6-0.14-0.69-0.43c-0.02-0.06-1.43-0.06-1.43-0.06s0,0.74,0,1.48h4.26
			c0-0.74,0-1.48,0-1.48s-1.41,0-1.43,0.06C26.41,31.4,26.1,31.54,25.8,31.54"/>
		<path class="st25" d="M25.8,31.26c-0.29,0-0.6-0.14-0.69-0.43c-0.02-0.06-1.43-0.06-1.43-0.06s0,0.74,0,1.48h4.26
			c0-0.74,0-1.48,0-1.48s-1.41,0-1.43,0.06C26.41,31.12,26.1,31.26,25.8,31.26"/>
		<path class="st25" d="M25.8,36.83c-0.29,0-0.6,0.14-0.69,0.43c-0.02,0.06-1.43,0.06-1.43,0.06s0-0.74,0-1.48h4.26
			c0,0.74,0,1.48,0,1.48s-1.41,0-1.43-0.06C26.41,36.97,26.1,36.83,25.8,36.83"/>
		
			<rect x="24.15" y="32.06" transform="matrix(-1.836970e-16 1 -1 -1.836970e-16 59.9874 8.3791)" class="st28" width="3.32" height="4.26"/>
		
			<rect x="24.15" y="32.06" transform="matrix(-1.836970e-16 1 -1 -1.836970e-16 59.9874 8.3791)" class="st27" width="3.32" height="4.26"/>
	</g>
	<g>
		<g>
			<polygon class="st29" points="33.49,43.61 34.43,43.61 33,47.67 31.57,43.61 32.51,43.61 32.51,41.16 33.49,41.16 			"/>
		</g>
	</g>
	<g>
		<g>
			<polygon class="st29" points="39.85,45.23 38.92,45.23 40.35,41.16 41.78,45.23 40.84,45.23 40.84,47.67 39.85,47.67 			"/>
		</g>
	</g>
	<rect x="23.98" y="40.7" class="st29" width="0.63" height="1.39"/>
	<rect x="23.98" y="42.91" class="st29" width="1.28" height="1.39"/>
	<rect x="23.98" y="45.11" class="st29" width="2.21" height="1.39"/>
	<rect x="23.98" y="47.31" class="st29" width="3.9" height="1.39"/>
	<g>
		<g>
			<path class="st19" d="M21.04,80.26l0.19-1.87h1.94v0.44h-1.53l-0.11,1.02c0.19-0.11,0.4-0.16,0.63-0.16
				c0.34,0,0.62,0.11,0.82,0.34c0.2,0.23,0.3,0.53,0.3,0.92c0,0.39-0.1,0.69-0.32,0.91c-0.21,0.22-0.5,0.33-0.88,0.33
				c-0.33,0-0.61-0.09-0.82-0.28c-0.21-0.18-0.33-0.44-0.36-0.76h0.46c0.03,0.21,0.11,0.38,0.23,0.49c0.12,0.11,0.29,0.16,0.49,0.16
				c0.22,0,0.4-0.08,0.53-0.23s0.19-0.36,0.19-0.63c0-0.25-0.07-0.45-0.21-0.6c-0.14-0.15-0.32-0.23-0.55-0.23
				c-0.21,0-0.37,0.05-0.49,0.14l-0.13,0.1L21.04,80.26z"/>
			<path class="st19" d="M25.18,81.48l1.08-3.1h0.55l-1.4,3.75h-0.44l-1.4-3.75h0.54L25.18,81.48z"/>
		</g>
	</g>
	<g>
		<g>
			<path class="st19" d="M34.92,81.48l1.08-3.1h0.55l-1.4,3.75H34.7l-1.4-3.75h0.54L34.92,81.48z"/>
			<path class="st19" d="M37.59,82.14h-0.5v-3.75h0.5V82.14z"/>
			<path class="st19" d="M41.41,82.14h-0.5L39,79.25v2.89h-0.5v-3.75H39l1.91,2.91v-2.91h0.5V82.14z"/>
		</g>
	</g>
	<g>
		<g>
			<path class="st19" d="M61.84,29.03l3.1,1.08v0.55l-3.75-1.4v-0.44l3.75-1.4v0.54L61.84,29.03z"/>
			<path class="st19" d="M61.18,31.7v-0.5h3.75v0.5H61.18z"/>
			<path class="st19" d="M61.18,35.53v-0.5l2.89-1.91h-2.89v-0.5h3.75v0.5l-2.91,1.91h2.91v0.5H61.18z"/>
		</g>
	</g>
	<g>
		<path class="st19" d="M63.39,38.44v1.06h-0.45v-1.06h-1.19v-0.48h1.19V36.9h0.45v1.06h1.1v0.48H63.39z"/>
	</g>
	<g>
		<g>
			<path class="st19" d="M64.94,48.35l-3.06,1.24l3.06,1.24v0.65h-3.75v-0.5h1.46l1.58,0.05l-3.04-1.24v-0.38l3.03-1.24l-1.57,0.05
				h-1.46v-0.5h3.75V48.35z"/>
			<path class="st19" d="M62.94,55.26c-0.37,0-0.69-0.06-0.96-0.19c-0.27-0.13-0.48-0.3-0.63-0.53c-0.14-0.23-0.22-0.5-0.22-0.8
				c0-0.3,0.07-0.56,0.22-0.79c0.15-0.23,0.35-0.41,0.62-0.54s0.58-0.19,0.93-0.2h0.27c0.36,0,0.68,0.06,0.96,0.19
				c0.28,0.13,0.49,0.31,0.64,0.54s0.22,0.5,0.22,0.79c0,0.3-0.07,0.57-0.22,0.8c-0.15,0.23-0.36,0.41-0.63,0.53
				c-0.28,0.12-0.6,0.19-0.96,0.19H62.94z M63.18,54.77c0.44,0,0.79-0.09,1.02-0.27c0.24-0.18,0.36-0.43,0.36-0.76
				c0-0.32-0.12-0.56-0.36-0.74c-0.24-0.18-0.57-0.27-0.99-0.28h-0.28c-0.43,0-0.77,0.09-1.02,0.27c-0.25,0.18-0.37,0.43-0.37,0.76
				c0,0.32,0.12,0.57,0.35,0.75s0.57,0.27,1,0.27H63.18z"/>
			<path class="st19" d="M64.53,58.63v-1.22h-3.35v-0.5h3.35V55.7h0.4v2.93H64.53z"/>
		</g>
	</g>
	<g>
		<g>
			<path class="st19" d="M62.52,45.74l-1.24-0.49V44.8l1.87,0.78v0.33l-1.87,0.77v-0.44L62.52,45.74z"/>
		</g>
	</g>
	<g>
		<g>
			<path class="st19" d="M62.52,59.51l-1.24-0.49v-0.45l1.87,0.78v0.33l-1.87,0.77v-0.44L62.52,59.51z"/>
		</g>
	</g>
</g>
<g>
	<rect x="21.97" y="70.77" class="st30" width="10.96" height="4.18"/>
	<line class="st31" x1="26.03" y1="70.77" x2="29.08" y2="70.77"/>
	<line class="st31" x1="26.03" y1="74.95" x2="29.08" y2="74.95"/>
	<line class="st32" x1="23" y1="73.73" x2="31.94" y2="73.73"/>
</g>
<path class="st19" d="M62.93,26.89v-2.09h0.39v2.09H62.93z"/>
<g>
</g>
<g>
</g>
<g>
</g>
<g>
</g>
<g>
</g>
<g>
</g>
</svg>
