<svg id="Layer_1" data-name="Layer 1" xmlns="http://www.w3.org/2000/svg" viewBox="0 0 34.86 122.74"><defs><style>.cls-1,.cls-3,.cls-4{fill:none;}.cls-1{stroke:#999;}.cls-1,.cls-4{stroke-miterlimit:10;}.cls-2{fill:#fff;}.cls-3,.cls-4{stroke:#fff;stroke-width:0.28px;}.cls-5{fill:#cec7bd;}.cls-6{fill:#918c84;}.cls-7{fill:#191919;}.cls-8{fill:#111;}.cls-9{fill:#333;}.cls-10{fill:#262526;}.cls-11{fill:#292829;}.cls-12{fill:#414042;}.cls-13{fill:#636466;}.cls-14{fill:#58595b;}.cls-15{fill:#006cb3;}.cls-16{fill:#0079bb;}.cls-17{fill:#568fc8;}.cls-18{fill:#3884c1;}</style></defs><g id="bottom"><path d="M0,0V122.74H34.86V0ZM17.43,44.53a4.4,4.4,0,1,1,4.39-4.4A4.392,4.392,0,0,1,17.43,44.53Z"/><circle class="cls-1" cx="17.431" cy="40.134" r="4.394"/><path class="cls-2" d="M4.238,26.262l-.1-1.753h.427a2.459,2.459,0,0,0,.333-.52,3.464,3.464,0,0,0,.266-.788,5.794,5.794,0,0,0,.119-1.129l.082-1.487-.526-.093v-.434H8.948v.434l-.557.1v3.921h.684l-.069,1.746H8.4v-1.22H4.813v1.227Zm1.074-1.753H7.718V20.588H6.043l-.079,1.484a6.613,6.613,0,0,1-.106,1,4.678,4.678,0,0,1-.225.819A2.863,2.863,0,0,1,5.312,24.509Z"/><path class="cls-2" d="M10.767,25.107a1.244,1.244,0,0,1-.879-.282,1.04,1.04,0,0,1-.3-.795,1.006,1.006,0,0,1,.193-.613,1.246,1.246,0,0,1,.559-.407,2.368,2.368,0,0,1,.875-.145h.66V22.5a.667.667,0,0,0-.2-.519A.824.824,0,0,0,11.1,21.8a1.307,1.307,0,0,0-.4.056,1.178,1.178,0,0,0-.311.156l-.072.516H9.793v-.848a1.732,1.732,0,0,1,.581-.3,2.419,2.419,0,0,1,.734-.105,1.593,1.593,0,0,1,1.057.322,1.132,1.132,0,0,1,.382.919V24.29c0,.048,0,.1,0,.14s0,.091.009.137l.359.037v.431h-.968c-.02-.1-.036-.191-.048-.27s-.019-.16-.024-.239a1.635,1.635,0,0,1-.486.415A1.244,1.244,0,0,1,10.767,25.107Zm.1-.564a1.2,1.2,0,0,0,.612-.161,1,1,0,0,0,.4-.386v-.67H11.19a.974.974,0,0,0-.7.222.673.673,0,0,0-.232.5.463.463,0,0,0,.15.371A.69.69,0,0,0,10.866,24.543Z"/><path class="cls-2" d="M14.246,25.035V24.6l.557-.095V21.86h-.779l-.051.577H13.4v-1.1h3.5v1.1h-.577l-.051-.577h-.793v2.649l.557.095v.431Z"/><path class="cls-2" d="M19.674,25.035V24.6l.557-.095v-.793a3.043,3.043,0,0,1-.4.075,3.749,3.749,0,0,1-.434.024,1.722,1.722,0,0,1-.768-.158,1.1,1.1,0,0,1-.49-.466,1.576,1.576,0,0,1-.171-.771v-.56l-.557-.1v-.431H19.2v.431l-.557.1v.56a1.21,1.21,0,0,0,.084.487.569.569,0,0,0,.253.282.86.86,0,0,0,.419.092,3.479,3.479,0,0,0,.43-.025,3.317,3.317,0,0,0,.407-.077V21.866l-.557-.095v-.434h1.787v.434l-.557.095v2.643l.557.095v.431Z"/><path class="cls-2" d="M22.148,25.035V24.6l.558-.095V21.866l-.558-.095v-.434h1.785v.434l-.557.095v2.089l.02.007,1.63-2.625h1.231v.434l-.557.095v2.643l.557.095v.431H24.469V24.6l.557-.095V22.417l-.02-.007-1.63,2.625Z"/><path class="cls-2" d="M26.92,25.035V24.6l.557-.095V21.866l-.557-.095v-.434h1.788v.434l-.558.095V22.9h.356l.772-1.036a2.021,2.021,0,0,1,.409-.441.729.729,0,0,1,.449-.15.738.738,0,0,1,.26.039,1.377,1.377,0,0,1,.232.121l-.095.458-.169-.027a.869.869,0,0,0-.091,0,.4.4,0,0,0-.248.092,1.007,1.007,0,0,0-.213.219L29.1,23.1l1.166,1.422.475.085v.431h-.9l-1.251-1.569H28.15v1.043l.558.095v.431Z"/><path class="cls-2" d="M5.876,32.035l.01-.574.14,0a.5.5,0,0,0,.383-.152.983.983,0,0,0,.2-.492,5.238,5.238,0,0,0,.062-.9v-1.05l-.557-.095v-.434H9.83v.434l-.557.095v2.643l.557.095v.431H8.043V31.6l.557-.095V28.87H7.345v1.046a3.412,3.412,0,0,1-.288,1.606,1.042,1.042,0,0,1-.99.513Z"/><path class="cls-2" d="M10.469,32.035V31.6l.557-.095V28.866l-.557-.095v-.434h1.784v.434l-.557.095v2.089l.021.007,1.63-2.625h1.231v.434l-.557.095v2.643l.557.095v.431H12.79V31.6l.557-.095V29.417l-.02-.007L11.7,32.035Z"/><path class="cls-2" d="M15.241,32.035V31.6l.557-.095V28.866l-.557-.095v-.434h1.787v.434l-.557.095v1.07h1.644v-1.07l-.557-.095v-.434h1.791v.434l-.557.095v2.643l.557.095v.431H17.558V31.6l.557-.095V30.463H16.471v1.046l.557.095v.431Z"/><path class="cls-2" d="M20.009,32.035V31.6l.557-.095V28.866l-.557-.095v-.434h1.784v.434l-.557.095v2.089l.02.007,1.631-2.625h1.23v.434l-.557.095v2.643l.557.095v.431H22.33V31.6l.557-.095V29.417l-.021-.007-1.63,2.625Z"/><path class="cls-2" d="M24.78,32.035V31.6l.557-.095V28.866l-.557-.095v-.434h1.785v.434l-.558.095v2.089l.021.007,1.63-2.625h1.231v.434l-.557.095v2.643l.557.095v.431H27.1V31.6l.557-.095V29.417l-.02-.007-1.631,2.625Z"/><rect class="cls-2" y="5.504" width="34.86" height="4.058"/><path class="cls-2" d="M27.825,1.089v.246l-.318.054V2.9l.318.055V3.2h-.7V1.389L26.8,1.335V1.089Zm-.3,2.634v.412h-.4V3.723Z"/><path class="cls-2" d="M25.855,1.048a.7.7,0,0,1,.5.161.59.59,0,0,1,.172.454.568.568,0,0,1-.11.35.709.709,0,0,1-.319.233,1.359,1.359,0,0,1-.5.083h-.377v.207a.381.381,0,0,0,.116.3.471.471,0,0,0,.327.1.758.758,0,0,0,.231-.032.64.64,0,0,0,.177-.089l.041-.3h.3v.485a.992.992,0,0,1-.332.174,1.384,1.384,0,0,1-.42.06.907.907,0,0,1-.6-.184.646.646,0,0,1-.219-.525V1.514c0-.027,0-.054,0-.08a.681.681,0,0,0,0-.078l-.2-.021V1.089h.553c.011.057.021.109.027.154s.011.091.014.137a.918.918,0,0,1,.278-.238A.711.711,0,0,1,25.855,1.048ZM25.8,1.37a.688.688,0,0,0-.35.092.564.564,0,0,0-.226.22v.383h.39a.556.556,0,0,0,.4-.127.386.386,0,0,0,.133-.283.265.265,0,0,0-.086-.212A.392.392,0,0,0,25.8,1.37Z"/><path class="cls-2" d="M24.331,1.089v.246l-.318.054V2.9l.318.055V3.2h-.662l-.033-.27,0-.037a.738.738,0,0,1-.222.254.516.516,0,0,1-.3.092.672.672,0,0,1-.124-.011.646.646,0,0,1-.09-.02l.05-.358.268.016a.374.374,0,0,0,.256-.069.521.521,0,0,0,.16-.212v-1.2l-.318-.054V1.089Z"/><path class="cls-2" d="M21.866,1.048a.754.754,0,0,1,.443.128.805.805,0,0,1,.282.356,1.348,1.348,0,0,1,.1.533v.041a1.669,1.669,0,0,1-.1.6.883.883,0,0,1-.283.4.71.71,0,0,1-.446.142.756.756,0,0,1-.331-.069.7.7,0,0,1-.245-.2v.862l.319.054v.248h-.7V1.389l-.318-.054V1.089h.652l.032.252a.67.67,0,0,1,.253-.219A.773.773,0,0,1,21.866,1.048Zm-.1.312a.509.509,0,0,0-.289.078.592.592,0,0,0-.194.221v.98a.59.59,0,0,0,.194.211.5.5,0,0,0,.285.078.438.438,0,0,0,.3-.1.623.623,0,0,0,.178-.289,1.421,1.421,0,0,0,.059-.429V2.065a.9.9,0,0,0-.131-.512A.455.455,0,0,0,21.769,1.36Z"/><path class="cls-2" d="M19.388,1.048a.677.677,0,0,1,.537.22,1.026,1.026,0,0,1,.193.688V2.9l.242.055V3.2h-.627V1.952a.793.793,0,0,0-.1-.465.373.373,0,0,0-.311-.127.64.64,0,0,0-.339.083.523.523,0,0,0-.2.235V2.9l.283.055V3.2H18.4V1.389l-.243-.054V1.089h.588l.026.312a.68.68,0,0,1,.619-.353Z"/><path class="cls-2" d="M17.9,1.089v.246l-.318.054V2.9l.318.055V3.2h-.7V1.389l-.318-.054V1.089Zm-.3,2.634v.412h-.4V3.723Z"/><path class="cls-2" d="M16.612,1.089v.246l-.318.054V2.9l.318.055V3.2H15.95l-.027-.315a.769.769,0,0,1-.265.261.7.7,0,0,1-.362.093.69.69,0,0,1-.529-.2.88.88,0,0,1-.188-.618V1.389l-.318-.054V1.089h1.021v.246l-.318.054V2.415a.573.573,0,0,0,.11.4.443.443,0,0,0,.337.117.536.536,0,0,0,.294-.08.579.579,0,0,0,.2-.218V1.389l-.318-.054V1.089Z"/><path class="cls-2" d="M13.064,1.048a.875.875,0,0,1,.832.518,1.294,1.294,0,0,1,.115.556v.043a1.292,1.292,0,0,1-.115.555.9.9,0,0,1-.328.382.978.978,0,0,1-1,0,.905.905,0,0,1-.328-.381,1.291,1.291,0,0,1-.115-.556V2.122a1.3,1.3,0,0,1,.115-.558.87.87,0,0,1,.829-.516Zm0,.3a.472.472,0,0,0-.308.1.62.62,0,0,0-.188.275,1.171,1.171,0,0,0-.063.4v.043a1.165,1.165,0,0,0,.063.4.612.612,0,0,0,.189.276.529.529,0,0,0,.619,0,.6.6,0,0,0,.188-.276,1.19,1.19,0,0,0,.062-.4V2.122a1.2,1.2,0,0,0-.062-.4.606.606,0,0,0-.189-.275A.484.484,0,0,0,13.064,1.348Z"/><path class="cls-2" d="M11.685,1.089v.394H11.3V1.089Z"/><path class="cls-2" d="M10.864,1.089v.246l-.318.054V2.9l.318.055V3.2H10.2l-.033-.27,0-.037a.738.738,0,0,1-.222.254.513.513,0,0,1-.3.092.657.657,0,0,1-.124-.011.634.634,0,0,1-.091-.02l.051-.358.267.016A.374.374,0,0,0,10,2.8a.513.513,0,0,0,.16-.212v-1.2l-.318-.054V1.089Z"/><path class="cls-2" d="M8.263,1.048a.677.677,0,0,1,.537.22,1.026,1.026,0,0,1,.193.688V2.9l.242.055V3.2H8.608V1.952a.793.793,0,0,0-.1-.465A.373.373,0,0,0,8.2,1.36a.64.64,0,0,0-.339.083.523.523,0,0,0-.2.235V2.9l.283.055V3.2H7.273V1.389L7.03,1.335V1.089h.588l.026.312a.68.68,0,0,1,.619-.353Z"/><path d="M30.377,6.163v.246l-.318.055V8.716H30.7l.056-.394h.289v.685H28.686V8.322h.285l.059.394h.644V6.464l-.318-.055V6.163Z"/><path d="M28.5,6.163v.246l-.319.055v1.51l.319.055v.248h-.662l-.034-.27,0-.037a.736.736,0,0,1-.221.254.518.518,0,0,1-.3.092.752.752,0,0,1-.124-.011.5.5,0,0,1-.091-.021l.051-.357.267.016a.368.368,0,0,0,.256-.07.51.51,0,0,0,.161-.212v-1.2l-.319-.055V6.163Z"/><path d="M25.9,6.122a.956.956,0,0,1,.51.134.9.9,0,0,1,.335.372,1.234,1.234,0,0,1,.118.551v.086a1.15,1.15,0,0,1-.124.538,1,1,0,0,1-.33.375.793.793,0,0,1-.45.138.9.9,0,0,1-.478-.118.738.738,0,0,1-.29-.329,1.181,1.181,0,0,1-.1-.5V7.13h1.371l.006-.01a.942.942,0,0,0-.071-.36.573.573,0,0,0-.194-.247.514.514,0,0,0-.3-.09.971.971,0,0,0-.343.056.8.8,0,0,0-.255.153l-.15-.25a.918.918,0,0,1,.3-.184A1.179,1.179,0,0,1,25.9,6.122Zm.553,1.309h-.975v.051a.657.657,0,0,0,.054.272.431.431,0,0,0,.16.19.482.482,0,0,0,.267.069.4.4,0,0,0,.234-.075.592.592,0,0,0,.174-.2.89.89,0,0,0,.09-.293Z"/><path d="M24.8,6.163v.246l-.318.055v1.51l.318.055v.248h-.664L24.106,8a.7.7,0,0,1-.262.233.811.811,0,0,1-.371.082.655.655,0,0,1-.362-.1.593.593,0,0,1-.228-.293.777.777,0,0,1-.263.285.689.689,0,0,1-.383.106.635.635,0,0,1-.512-.222,1.013,1.013,0,0,1-.187-.667V6.464l-.319-.055V6.163h1.024v.246l-.319.055v.967a.7.7,0,0,0,.108.442A.389.389,0,0,0,22.35,8a.406.406,0,0,0,.323-.141.616.616,0,0,0,.142-.357V6.464L22.5,6.409V6.163h1.021v.246l-.318.055v.967a.687.687,0,0,0,.11.434A.385.385,0,0,0,23.629,8a.533.533,0,0,0,.29-.072.466.466,0,0,0,.173-.2V6.464l-.318-.055V6.163Z"/><path d="M20.251,6.122a.706.706,0,0,1,.5.161.593.593,0,0,1,.172.455.568.568,0,0,1-.11.35.716.716,0,0,1-.319.233A1.359,1.359,0,0,1,20,7.4h-.377v.207a.377.377,0,0,0,.116.3.466.466,0,0,0,.327.106.758.758,0,0,0,.231-.032.717.717,0,0,0,.177-.089L20.51,7.6h.3v.484a.976.976,0,0,1-.332.175,1.384,1.384,0,0,1-.42.06.907.907,0,0,1-.6-.184.646.646,0,0,1-.219-.525V6.589c0-.027,0-.054,0-.08s0-.052,0-.078l-.205-.022V6.163h.553c.011.057.021.109.027.155s.011.091.014.136a.929.929,0,0,1,.278-.237A.712.712,0,0,1,20.251,6.122Zm-.057.323a.687.687,0,0,0-.35.091.566.566,0,0,0-.226.221V7.14h.39a.56.56,0,0,0,.4-.127.387.387,0,0,0,.133-.283.264.264,0,0,0-.086-.212A.392.392,0,0,0,20.194,6.445Z"/><path d="M17.69,6.163v.246l-.318.055V8.7l.318.055v.248h-.832l-.916-2.158H15.93l-.886,2.158h-.858V8.759L14.5,8.7V6.464l-.318-.055V6.163h1.022v.246l-.336.055V8.482l.009,0,.924-2.219h.256l.955,2.215.01,0-.014-1.19V6.464l-.343-.055V6.163Z"/><path d="M12.9,6.122a.875.875,0,0,1,.832.519,1.279,1.279,0,0,1,.115.556V7.24a1.278,1.278,0,0,1-.115.555.913.913,0,0,1-.327.382A.913.913,0,0,1,12.075,7.8a1.276,1.276,0,0,1-.115-.556V7.2a1.285,1.285,0,0,1,.115-.558.892.892,0,0,1,.326-.38A.9.9,0,0,1,12.9,6.122Zm0,.3a.474.474,0,0,0-.308.1.613.613,0,0,0-.187.275,1.146,1.146,0,0,0-.064.4V7.24a1.144,1.144,0,0,0,.064.4.607.607,0,0,0,.188.275.482.482,0,0,0,.311.1.476.476,0,0,0,.308-.1.6.6,0,0,0,.188-.275,1.194,1.194,0,0,0,.062-.4V7.2a1.2,1.2,0,0,0-.062-.4.6.6,0,0,0-.189-.275A.484.484,0,0,0,12.9,6.423Z"/><path d="M10.764,6.122a.761.761,0,0,1,.443.128.808.808,0,0,1,.282.357,1.349,1.349,0,0,1,.1.533v.041a1.674,1.674,0,0,1-.1.6.883.883,0,0,1-.283.4.716.716,0,0,1-.446.142.742.742,0,0,1-.331-.07.681.681,0,0,1-.245-.2v.861l.318.055V9.21H9.8V6.464l-.318-.055V6.163h.652l.032.252a.669.669,0,0,1,.253-.218A.76.76,0,0,1,10.764,6.122Zm-.1.313a.514.514,0,0,0-.29.078.591.591,0,0,0-.193.221v.98a.6.6,0,0,0,.193.211A.512.512,0,0,0,10.663,8a.438.438,0,0,0,.3-.1.623.623,0,0,0,.178-.289,1.421,1.421,0,0,0,.059-.429V7.14a.9.9,0,0,0-.131-.512A.454.454,0,0,0,10.667,6.435Z"/><path d="M8.286,6.122a.677.677,0,0,1,.537.221,1.024,1.024,0,0,1,.193.688v.943l.242.055v.248H8.631V7.027a.79.79,0,0,0-.1-.465.371.371,0,0,0-.311-.127.64.64,0,0,0-.339.083.523.523,0,0,0-.2.235V7.974l.283.055v.248H7.3V6.464l-.242-.055V6.163h.588l.026.313a.684.684,0,0,1,.619-.354Z"/><path d="M6.8,6.163v.246l-.318.055V8.907l.318.055V9.21H6.1V6.464l-.318-.055V6.163Z"/><path d="M4.585,6.122a.95.95,0,0,1,.509.134.883.883,0,0,1,.335.372,1.221,1.221,0,0,1,.118.551v.086a1.138,1.138,0,0,1-.124.538.987.987,0,0,1-.33.375.791.791,0,0,1-.45.138A.893.893,0,0,1,4.166,8.2a.726.726,0,0,1-.29-.329,1.181,1.181,0,0,1-.1-.5V7.13H5.149l.006-.01a.982.982,0,0,0-.071-.36.568.568,0,0,0-.195-.247.511.511,0,0,0-.3-.09.967.967,0,0,0-.343.056.8.8,0,0,0-.255.153l-.151-.25a.929.929,0,0,1,.3-.184A1.185,1.185,0,0,1,4.585,6.122Zm.552,1.309H4.163v.051a.673.673,0,0,0,.053.272.439.439,0,0,0,.161.19.476.476,0,0,0,.266.069.393.393,0,0,0,.234-.075.571.571,0,0,0,.174-.2.845.845,0,0,0,.09-.293Z"/><path id="rect6749-2" class="cls-3" d="M27.964,68.86h-6.8a.139.139,0,0,1-.139-.139h0V55.191a.14.14,0,0,1,.14-.14h6.8a.141.141,0,0,1,.139.139h0V68.72A.14.14,0,0,1,27.964,68.86Z"/><path id="rect6749-9-2" class="cls-3" d="M20.875,68.86H13.942a.141.141,0,0,1-.141-.141h0V55.192a.139.139,0,0,1,.138-.14h6.93a.142.142,0,0,1,.142.141h0V68.72A.14.14,0,0,1,20.875,68.86Z"/><path id="rect6749-9-3-2-2" class="cls-4" d="M13.655,68.86H6.894a.138.138,0,0,1-.138-.138h0V55.192a.14.14,0,0,1,.14-.14h6.761a.138.138,0,0,1,.138.138h0V68.72a.138.138,0,0,1-.138.14Z"/><path class="cls-2" d="M10.205,61.372a2.873,2.873,0,0,1-.875-.134,2.84,2.84,0,0,1-.8-.41V59.764H9.05l.113.784a1.972,1.972,0,0,0,.482.212,2.043,2.043,0,0,0,.56.075,1.427,1.427,0,0,0,.579-.105.823.823,0,0,0,.364-.288.8.8,0,0,0,.018-.834.9.9,0,0,0-.361-.306,2.886,2.886,0,0,0-.685-.231,3.3,3.3,0,0,1-.867-.319,1.488,1.488,0,0,1-.536-.486,1.184,1.184,0,0,1-.183-.654,1.225,1.225,0,0,1,.206-.7,1.433,1.433,0,0,1,.576-.487,1.978,1.978,0,0,1,.862-.177,2.5,2.5,0,0,1,.925.159,2.285,2.285,0,0,1,.661.385v.995h-.523l-.113-.711a1.308,1.308,0,0,0-.383-.2,1.691,1.691,0,0,0-.567-.082,1.2,1.2,0,0,0-.506.1.812.812,0,0,0-.342.283.737.737,0,0,0-.123.426.644.644,0,0,0,.111.376.909.909,0,0,0,.363.283,3.626,3.626,0,0,0,.671.227,2.632,2.632,0,0,1,1.191.575,1.24,1.24,0,0,1,.405.943,1.21,1.21,0,0,1-.215.709,1.425,1.425,0,0,1-.607.483A2.252,2.252,0,0,1,10.205,61.372Z"/><path class="cls-2" d="M24.846,61.372a2.2,2.2,0,0,1-1.2-.32,2.1,2.1,0,0,1-.779-.887,2.994,2.994,0,0,1-.273-1.313V58.77a2.983,2.983,0,0,1,.275-1.317,2.176,2.176,0,0,1,.754-.884,1.915,1.915,0,0,1,1.086-.318,3.167,3.167,0,0,1,.986.134,2.234,2.234,0,0,1,.693.358v1.006h-.554l-.072-.722a1.279,1.279,0,0,0-.41-.166,2.6,2.6,0,0,0-.574-.056,1.279,1.279,0,0,0-.769.247,1.657,1.657,0,0,0-.54.684,2.466,2.466,0,0,0-.2,1.027v.089a2.717,2.717,0,0,0,.183,1.037,1.518,1.518,0,0,0,.535.688,1.463,1.463,0,0,0,.855.244,2.323,2.323,0,0,0,.577-.06,1.849,1.849,0,0,0,.417-.155v-1.17l-.953-.033v-.5h1.627v1.928a2.062,2.062,0,0,1-.617.369A2.78,2.78,0,0,1,24.846,61.372Z"/><path class="cls-2" d="M17.1,61.3l-1.668-4.489-.4-.054v-.434H16.6v.434l-.455.072,1.114,3.165.116.393H17.4l.123-.393,1.155-3.169-.506-.068v-.434H19.74v.434l-.4.054L17.672,61.3Z"/><path class="cls-5" d="M12.463,65.355a2.241,2.241,0,1,1-2.24-2.222A2.231,2.231,0,0,1,12.463,65.355Z"/><ellipse class="cls-6" cx="10.222" cy="65.355" rx="1.532" ry="1.519"/><path class="cls-5" d="M19.663,65.355a2.241,2.241,0,1,1-2.24-2.222A2.231,2.231,0,0,1,19.663,65.355Z"/><ellipse class="cls-6" cx="17.422" cy="65.355" rx="1.532" ry="1.519"/><path class="cls-5" d="M26.863,65.355a2.241,2.241,0,1,1-2.24-2.222A2.231,2.231,0,0,1,26.863,65.355Z"/><ellipse class="cls-6" cx="24.622" cy="65.355" rx="1.532" ry="1.519"/><rect class="cls-2" x="14.073" y="47.946" width="6.952" height="6.629"/><path d="M14.756,54.2v-.684l.406-.058,1.809-4.946h1.168l1.8,4.946.406.058V54.2H18.4v-.684l.395-.07-.25-.781h-2l-.25.781.394.07V54.2Zm2.062-2.375h1.461l-.664-1.949-.054-.172h-.024l-.058.183Z"/><path class="cls-2" d="M8.427,74.3v-.308l.4-.068v-2.8l-.4-.069v-.307h1.585a1.63,1.63,0,0,1,.655.116.878.878,0,0,1,.407.335.985.985,0,0,1,.139.538.948.948,0,0,1-.136.524.834.834,0,0,1-.384.321,1.528,1.528,0,0,1-.591.116l-.8.015v1.211l.4.068V74.3Zm.879-1.965h.657a.91.91,0,0,0,.586-.154.555.555,0,0,0,.183-.449.58.58,0,0,0-.176-.445.778.778,0,0,0-.544-.163H9.306ZM10.773,74.3l-.791-1.775.481-.005.657,1.421.247.044V74.3Z"/><path class="cls-2" d="M13.454,74.351a1.443,1.443,0,0,1-.654-.144,1.107,1.107,0,0,1-.454-.411,1.19,1.19,0,0,1-.166-.641V71.124l-.4-.069v-.31h1.277v.31l-.4.069v2.031a.9.9,0,0,0,.1.447.66.66,0,0,0,.282.272.914.914,0,0,0,.417.092.955.955,0,0,0,.424-.091.655.655,0,0,0,.288-.271.89.89,0,0,0,.1-.449V71.124l-.4-.069v-.31h1.277v.31l-.4.069v2.031a1.229,1.229,0,0,1-.163.653,1.025,1.025,0,0,1-.455.4A1.594,1.594,0,0,1,13.454,74.351Z"/><path class="cls-2" d="M16.806,74.351a2.041,2.041,0,0,1-.625-.095,2.013,2.013,0,0,1-.574-.293V73.2h.374l.081.559a1.362,1.362,0,0,0,.344.151,1.422,1.422,0,0,0,.4.054,1.039,1.039,0,0,0,.414-.074.6.6,0,0,0,.26-.207.57.57,0,0,0,.012-.595.654.654,0,0,0-.257-.219,2.1,2.1,0,0,0-.49-.165,2.323,2.323,0,0,1-.618-.228,1.059,1.059,0,0,1-.384-.347.846.846,0,0,1-.131-.467.874.874,0,0,1,.148-.5,1.011,1.011,0,0,1,.411-.347,1.414,1.414,0,0,1,.616-.127,1.776,1.776,0,0,1,.66.114,1.612,1.612,0,0,1,.472.274v.711h-.373l-.081-.508a.928.928,0,0,0-.273-.147,1.214,1.214,0,0,0-.405-.058.857.857,0,0,0-.362.072.585.585,0,0,0-.244.2.536.536,0,0,0-.088.305.468.468,0,0,0,.079.269.649.649,0,0,0,.259.2,2.623,2.623,0,0,0,.48.163,1.891,1.891,0,0,1,.851.411.887.887,0,0,1,.289.673.867.867,0,0,1-.153.506,1.019,1.019,0,0,1-.434.346A1.6,1.6,0,0,1,16.806,74.351Z"/><path class="cls-2" d="M19.751,74.351a2.036,2.036,0,0,1-.625-.095,1.988,1.988,0,0,1-.574-.293V73.2h.373l.081.559a1.378,1.378,0,0,0,.344.151,1.429,1.429,0,0,0,.4.054,1.046,1.046,0,0,0,.414-.074.6.6,0,0,0,.259-.207.567.567,0,0,0,.013-.595.665.665,0,0,0-.258-.219,2.11,2.11,0,0,0-.489-.165,2.331,2.331,0,0,1-.619-.228,1.059,1.059,0,0,1-.384-.347.846.846,0,0,1-.13-.467.866.866,0,0,1,.148-.5,1,1,0,0,1,.411-.347,1.413,1.413,0,0,1,.615-.127,1.776,1.776,0,0,1,.66.114,1.618,1.618,0,0,1,.473.274v.711H20.49l-.08-.508a.947.947,0,0,0-.274-.147,1.214,1.214,0,0,0-.4-.058.852.852,0,0,0-.361.072.579.579,0,0,0-.244.2.528.528,0,0,0-.088.305.461.461,0,0,0,.079.269.635.635,0,0,0,.259.2,2.6,2.6,0,0,0,.48.163,1.9,1.9,0,0,1,.851.411.891.891,0,0,1,.289.673.867.867,0,0,1-.154.506,1.016,1.016,0,0,1-.433.346A1.61,1.61,0,0,1,19.751,74.351Z"/><path class="cls-2" d="M21.413,74.3v-.308l.4-.068v-2.8l-.4-.069v-.31H22.69v.31l-.4.069v2.8l.4.068V74.3Z"/><path class="cls-2" d="M23.059,74.3v-.308l.263-.036,1.243-3.211h.413l1.22,3.211.262.036V74.3H25.439v-.308l.269-.046-.235-.654H24.05l-.242.654.269.046V74.3Zm1.14-1.411h1.128L24.8,71.444l-.029-.081H24.76l-.029.081Z"/><path id="path15373" class="cls-7" d="M25.023,111.681v7.727l-1.276,1.335-1.284-1.335V98.1l2.56-2.67v16.251Z"/><path id="path15377" class="cls-7" d="M25.023,95.43l-2.56,2.67H12.405L9.836,95.43Z"/><path id="path15381" class="cls-8" d="M23.741,120.742l-1.285,1.335H12.405l-1.285-1.335,1.285-1.334H22.456Z"/><path id="path15389" class="cls-9" d="M22.463,114.276v5.132H12.405v-5.123h.285Z"/><path id="path15393" class="cls-9" d="M22.463,109.125v5.151H22.17l-9.48.009h-.285v-5.16H22.463Z"/><path id="path15397" class="cls-10" d="M22.463,108.054v1.071H18.579v-1.071h3.884Z"/><path id="path15401" class="cls-9" d="M22.463,98.1v9.953H12.405V98.1Z"/><path id="path15411" class="cls-10" d="M18.58,108.054v1.071H16.289v-1.071Z"/><path id="path15415" class="cls-10" d="M16.288,108.054v1.071H12.405v-1.071h3.883Z"/><path id="path15419" class="cls-10" d="M12.405,108.054v11.354l-1.285,1.335-1.284-1.335V95.43l2.569,2.67Z"/><rect class="cls-11" x="13.204" y="98.831" width="8.459" height="8.459" rx="4.23" transform="translate(34.868 206.121) rotate(-180)"/><path id="path15427" class="cls-12" d="M16.993,101.748a.933.933,0,0,1-1.215.573.993.993,0,0,1-.551-1.262.933.933,0,0,1,1.214-.573.992.992,0,0,1,.552,1.262"/><path id="path15431" class="cls-12" d="M20.243,104.281a.931.931,0,0,1-1.214.572.989.989,0,0,1-.551-1.261.933.933,0,0,1,1.214-.573.991.991,0,0,1,.551,1.262"/><path id="path15435" class="cls-13" d="M17.635,101.364a.465.465,0,0,1-.606.286.5.5,0,0,1-.277-.631.468.468,0,0,1,.608-.286.5.5,0,0,1,.275.631"/><path id="path15439" class="cls-14" d="M20.028,104.043a.467.467,0,0,1-.608.286.5.5,0,0,1-.275-.631.469.469,0,0,1,.608-.287.5.5,0,0,1,.275.632"/><rect class="cls-15" x="13.204" y="110.218" width="8.459" height="8.459" rx="4.23" transform="translate(34.868 228.895) rotate(-180)"/><path id="path15443" class="cls-16" d="M17.306,113.248A.923.923,0,0,1,16,112.964a1,1,0,0,1,.274-1.356.921.921,0,0,1,1.3.284,1,1,0,0,1-.273,1.356"/><path id="path15447" class="cls-16" d="M18.486,117.288A.923.923,0,0,1,17.18,117a1,1,0,0,1,.274-1.357.921.921,0,0,1,1.3.285,1,1,0,0,1-.273,1.356"/><path id="path15451" class="cls-17" d="M18.042,113.333a.46.46,0,0,1-.652-.142.5.5,0,0,1,.137-.678.46.46,0,0,1,.652.142.5.5,0,0,1-.137.678"/><path id="path15455" class="cls-18" d="M18.447,116.964a.46.46,0,0,1-.652-.142.5.5,0,0,1,.137-.678.46.46,0,0,1,.652.142.5.5,0,0,1-.137.678"/></g></svg>