<svg id="Layer_1" data-name="Layer 1" xmlns="http://www.w3.org/2000/svg" viewBox="0 0 84.863 122.74"><defs><style>.cls-1,.cls-22,.cls-3,.cls-4{fill:none;}.cls-1{stroke:#999;}.cls-1,.cls-20,.cls-21,.cls-22,.cls-4{stroke-miterlimit:10;}.cls-2{fill:#fff;}.cls-3,.cls-4{stroke:#fff;stroke-width:0.28px;}.cls-5{fill:#cec7bd;}.cls-6{fill:#918c84;}.cls-7{fill:#191919;}.cls-8{fill:#111;}.cls-9{fill:#333;}.cls-10{fill:#262526;}.cls-11{fill:#292829;}.cls-12{fill:#414042;}.cls-13{fill:#636466;}.cls-14{fill:#58595b;}.cls-15{fill:#006cb3;}.cls-16{fill:#0079bb;}.cls-17{fill:#568fc8;}.cls-18{fill:#3884c1;}.cls-19{fill:#0d0e0f;}.cls-20{fill:#e39344;stroke:#666566;stroke-width:0.023px;}.cls-21{fill:#ebad4f;stroke:#b3b3b3;stroke-width:0.025px;}.cls-22{stroke:gray;stroke-width:0.011px;}.cls-23{fill:#242424;}.cls-24{fill:#cfc7bc;}.cls-25{fill:#36312f;}.cls-26{fill:#b5b5b4;}</style></defs><g id="bottom"><path d="M50,0V122.74h34.86V0Zm17.43,44.53a4.4,4.4,0,1,1,4.39-4.4A4.392,4.392,0,0,1,67.433,44.53Z"/><circle class="cls-1" cx="67.434" cy="40.134" r="4.394"/><path class="cls-2" d="M54.241,26.262l-.1-1.753h.428a2.541,2.541,0,0,0,.333-.52,3.516,3.516,0,0,0,.265-.788,5.717,5.717,0,0,0,.119-1.129l.082-1.487-.526-.093v-.434h4.108v.434l-.557.1v3.921h.684l-.068,1.746h-.6v-1.22H54.816v1.227Zm1.074-1.753h2.406V20.588H56.046l-.078,1.484a6.881,6.881,0,0,1-.106,1,4.765,4.765,0,0,1-.226.819A2.863,2.863,0,0,1,55.315,24.509Z"/><path class="cls-2" d="M60.77,25.107a1.246,1.246,0,0,1-.879-.282,1.04,1.04,0,0,1-.3-.795,1.006,1.006,0,0,1,.192-.613,1.244,1.244,0,0,1,.56-.407,2.361,2.361,0,0,1,.875-.145h.659V22.5a.667.667,0,0,0-.2-.519A.824.824,0,0,0,61.1,21.8a1.312,1.312,0,0,0-.4.056,1.178,1.178,0,0,0-.311.156l-.072.516H59.8v-.848a1.742,1.742,0,0,1,.581-.3,2.426,2.426,0,0,1,.735-.105,1.592,1.592,0,0,1,1.056.322,1.132,1.132,0,0,1,.383.919V24.29c0,.048,0,.1,0,.14s0,.091.009.137l.359.037v.431h-.968c-.02-.1-.036-.191-.047-.27s-.02-.16-.024-.239a1.652,1.652,0,0,1-.487.415A1.241,1.241,0,0,1,60.77,25.107Zm.1-.564a1.2,1.2,0,0,0,.612-.161,1,1,0,0,0,.4-.386v-.67h-.683a.977.977,0,0,0-.7.222.677.677,0,0,0-.232.5.463.463,0,0,0,.15.371A.69.69,0,0,0,60.869,24.543Z"/><path class="cls-2" d="M64.249,25.035V24.6l.557-.095V21.86h-.779l-.051.577H63.4v-1.1h3.5v1.1h-.578l-.051-.577H65.48v2.649l.557.095v.431Z"/><path class="cls-2" d="M69.677,25.035V24.6l.557-.095v-.793a3.013,3.013,0,0,1-.4.075,3.736,3.736,0,0,1-.434.024,1.725,1.725,0,0,1-.768-.158,1.1,1.1,0,0,1-.49-.466,1.576,1.576,0,0,1-.171-.771v-.56l-.557-.1v-.431H69.2v.431l-.558.1v.56a1.21,1.21,0,0,0,.084.487.574.574,0,0,0,.253.282.86.86,0,0,0,.419.092,3.479,3.479,0,0,0,.43-.025,3.317,3.317,0,0,0,.407-.077V21.866l-.557-.095v-.434h1.788v.434l-.557.095v2.643l.557.095v.431Z"/><path class="cls-2" d="M72.152,25.035V24.6l.557-.095V21.866l-.557-.095v-.434h1.784v.434l-.557.095v2.089l.02.007,1.631-2.625h1.23v.434l-.557.095v2.643l.557.095v.431H74.472V24.6l.558-.095V22.417l-.021-.007-1.63,2.625Z"/><path class="cls-2" d="M76.923,25.035V24.6l.557-.095V21.866l-.557-.095v-.434h1.788v.434l-.557.095V22.9h.355l.773-1.036a2,2,0,0,1,.408-.441.729.729,0,0,1,.449-.15.738.738,0,0,1,.26.039,1.382,1.382,0,0,1,.233.121l-.1.458-.169-.027a.856.856,0,0,0-.091,0,.4.4,0,0,0-.248.092,1.031,1.031,0,0,0-.213.219L79.1,23.1l1.166,1.422.475.085v.431h-.9l-1.251-1.569h-.437v1.043l.557.095v.431Z"/><path class="cls-2" d="M55.879,32.035l.01-.574.14,0a.5.5,0,0,0,.383-.152.983.983,0,0,0,.2-.492,5.253,5.253,0,0,0,.061-.9v-1.05l-.557-.095v-.434h3.715v.434l-.557.095v2.643l.557.095v.431H58.046V31.6l.557-.095V28.87H57.348v1.046a3.412,3.412,0,0,1-.288,1.606,1.042,1.042,0,0,1-.99.513Z"/><path class="cls-2" d="M60.472,32.035V31.6l.558-.095V28.866l-.558-.095v-.434h1.785v.434l-.558.095v2.089l.021.007,1.63-2.625h1.231v.434l-.557.095v2.643l.557.095v.431H62.793V31.6l.557-.095V29.417l-.02-.007L61.7,32.035Z"/><path class="cls-2" d="M65.244,32.035V31.6l.557-.095V28.866l-.557-.095v-.434h1.788v.434l-.558.095v1.07h1.644v-1.07l-.557-.095v-.434h1.791v.434l-.557.095v2.643l.557.095v.431H67.561V31.6l.557-.095V30.463H66.474v1.046l.558.095v.431Z"/><path class="cls-2" d="M70.012,32.035V31.6l.557-.095V28.866l-.557-.095v-.434H71.8v.434l-.557.095v2.089l.021.007,1.63-2.625h1.23v.434l-.557.095v2.643l.557.095v.431H72.333V31.6l.557-.095V29.417l-.021-.007-1.63,2.625Z"/><path class="cls-2" d="M74.783,32.035V31.6l.558-.095V28.866l-.558-.095v-.434h1.785v.434l-.557.095v2.089l.02.007,1.63-2.625h1.231v.434l-.557.095v2.643l.557.095v.431H77.1V31.6l.557-.095V29.417l-.02-.007-1.63,2.625Z"/><rect class="cls-2" x="50.003" y="5.504" width="34.86" height="4.058"/><path class="cls-2" d="M77.828,1.089v.246l-.318.054V2.9l.318.055V3.2h-.7V1.389l-.318-.054V1.089Zm-.3,2.634v.412h-.405V3.723Z"/><path class="cls-2" d="M75.858,1.048a.706.706,0,0,1,.5.161.594.594,0,0,1,.172.454.569.569,0,0,1-.111.35.709.709,0,0,1-.319.233,1.359,1.359,0,0,1-.5.083h-.377v.207a.381.381,0,0,0,.116.3.472.472,0,0,0,.327.1.754.754,0,0,0,.231-.032.64.64,0,0,0,.177-.089l.041-.3h.3v.485a.992.992,0,0,1-.332.174,1.384,1.384,0,0,1-.42.06.907.907,0,0,1-.6-.184.646.646,0,0,1-.219-.525V1.514c0-.027,0-.054,0-.08a.681.681,0,0,0,0-.078l-.2-.021V1.089h.553c.012.057.021.109.027.154s.011.091.014.137a.918.918,0,0,1,.278-.238A.714.714,0,0,1,75.858,1.048ZM75.8,1.37a.691.691,0,0,0-.35.092.564.564,0,0,0-.226.22v.383h.391a.553.553,0,0,0,.4-.127.386.386,0,0,0,.133-.283.265.265,0,0,0-.086-.212A.392.392,0,0,0,75.8,1.37Z"/><path class="cls-2" d="M74.334,1.089v.246l-.318.054V2.9l.318.055V3.2h-.662l-.033-.27,0-.037a.738.738,0,0,1-.222.254.515.515,0,0,1-.3.092.657.657,0,0,1-.124-.011.634.634,0,0,1-.091-.02l.051-.358.267.016a.374.374,0,0,0,.256-.069.513.513,0,0,0,.16-.212v-1.2l-.318-.054V1.089Z"/><path class="cls-2" d="M71.869,1.048a.754.754,0,0,1,.443.128.805.805,0,0,1,.282.356,1.348,1.348,0,0,1,.1.533v.041a1.669,1.669,0,0,1-.1.6.883.883,0,0,1-.283.4.709.709,0,0,1-.445.142.761.761,0,0,1-.332-.069.7.7,0,0,1-.245-.2v.862l.319.054v.248h-.7V1.389l-.319-.054V1.089h.653l.031.252a.67.67,0,0,1,.253-.219A.773.773,0,0,1,71.869,1.048Zm-.1.312a.509.509,0,0,0-.289.078.6.6,0,0,0-.194.221v.98a.59.59,0,0,0,.194.211.5.5,0,0,0,.285.078.443.443,0,0,0,.3-.1.629.629,0,0,0,.177-.289,1.421,1.421,0,0,0,.059-.429V2.065a.9.9,0,0,0-.131-.512A.455.455,0,0,0,71.772,1.36Z"/><path class="cls-2" d="M69.391,1.048a.677.677,0,0,1,.537.22,1.026,1.026,0,0,1,.193.688V2.9l.243.055V3.2h-.627V1.952a.791.791,0,0,0-.1-.465.372.372,0,0,0-.311-.127.634.634,0,0,0-.338.083.519.519,0,0,0-.2.235V2.9l.284.055V3.2H68.4V1.389l-.243-.054V1.089h.588l.026.312a.683.683,0,0,1,.619-.353Z"/><path class="cls-2" d="M67.9,1.089v.246l-.319.054V2.9l.319.055V3.2h-.7V1.389l-.318-.054V1.089Zm-.3,2.634v.412H67.2V3.723Z"/><path class="cls-2" d="M66.616,1.089v.246l-.319.054V2.9l.319.055V3.2h-.663l-.027-.315a.769.769,0,0,1-.265.261.7.7,0,0,1-.362.093.69.69,0,0,1-.529-.2.88.88,0,0,1-.188-.618V1.389l-.318-.054V1.089h1.021v.246l-.318.054V2.415a.573.573,0,0,0,.11.4.443.443,0,0,0,.337.117.536.536,0,0,0,.294-.08.571.571,0,0,0,.2-.218V1.389l-.318-.054V1.089Z"/><path class="cls-2" d="M63.067,1.048a.872.872,0,0,1,.832.518,1.294,1.294,0,0,1,.115.556v.043a1.292,1.292,0,0,1-.115.555.907.907,0,0,1-.327.382.98.98,0,0,1-1.006,0,.9.9,0,0,1-.327-.381,1.276,1.276,0,0,1-.116-.556V2.122a1.285,1.285,0,0,1,.116-.558.868.868,0,0,1,.828-.516Zm0,.3a.474.474,0,0,0-.308.1.618.618,0,0,0-.187.275,1.146,1.146,0,0,0-.064.4v.043a1.14,1.14,0,0,0,.064.4.61.61,0,0,0,.188.276.481.481,0,0,0,.311.1.475.475,0,0,0,.308-.1.6.6,0,0,0,.188-.276,1.19,1.19,0,0,0,.062-.4V2.122a1.2,1.2,0,0,0-.062-.4.606.606,0,0,0-.189-.275A.484.484,0,0,0,63.067,1.348Z"/><path class="cls-2" d="M61.688,1.089v.394H61.3V1.089Z"/><path class="cls-2" d="M60.867,1.089v.246l-.318.054V2.9l.318.055V3.2h-.662l-.033-.27,0-.037a.746.746,0,0,1-.221.254.518.518,0,0,1-.3.092.657.657,0,0,1-.124-.011.634.634,0,0,1-.091-.02l.051-.358.267.016A.374.374,0,0,0,60,2.8a.513.513,0,0,0,.16-.212v-1.2l-.318-.054V1.089Z"/><path class="cls-2" d="M58.266,1.048a.677.677,0,0,1,.537.22A1.026,1.026,0,0,1,59,1.956V2.9l.243.055V3.2h-.627V1.952a.791.791,0,0,0-.1-.465A.372.372,0,0,0,58.2,1.36a.634.634,0,0,0-.338.083.519.519,0,0,0-.2.235V2.9l.284.055V3.2h-.668V1.389l-.243-.054V1.089h.588l.026.312a.683.683,0,0,1,.619-.353Z"/><path d="M80.381,6.163v.246l-.319.055V8.716h.645l.056-.394h.29v.685H78.689V8.322h.285l.059.394h.645V6.464l-.319-.055V6.163Z"/><path d="M78.5,6.163v.246l-.319.055v1.51l.319.055v.248h-.662l-.034-.27,0-.037a.738.738,0,0,1-.222.254.518.518,0,0,1-.3.092.771.771,0,0,1-.124-.011.521.521,0,0,1-.091-.021l.051-.357.268.016a.371.371,0,0,0,.256-.07.517.517,0,0,0,.16-.212v-1.2l-.319-.055V6.163Z"/><path d="M75.9,6.122a.956.956,0,0,1,.51.134.9.9,0,0,1,.335.372,1.234,1.234,0,0,1,.118.551v.086a1.15,1.15,0,0,1-.124.538,1,1,0,0,1-.33.375.793.793,0,0,1-.45.138.9.9,0,0,1-.478-.118.738.738,0,0,1-.29-.329,1.181,1.181,0,0,1-.1-.5V7.13h1.372l.005-.01a.942.942,0,0,0-.071-.36.573.573,0,0,0-.194-.247.514.514,0,0,0-.305-.09.971.971,0,0,0-.343.056.8.8,0,0,0-.255.153l-.15-.25a.918.918,0,0,1,.3-.184A1.179,1.179,0,0,1,75.9,6.122Zm.553,1.309h-.975v.051a.657.657,0,0,0,.054.272.437.437,0,0,0,.16.19.482.482,0,0,0,.267.069.393.393,0,0,0,.234-.075.592.592,0,0,0,.174-.2.867.867,0,0,0,.09-.293Z"/><path d="M74.8,6.163v.246l-.319.055v1.51l.319.055v.248h-.664L74.109,8a.7.7,0,0,1-.262.233.808.808,0,0,1-.371.082.655.655,0,0,1-.362-.1.586.586,0,0,1-.227-.293.788.788,0,0,1-.264.285.689.689,0,0,1-.383.106.635.635,0,0,1-.512-.222,1.013,1.013,0,0,1-.187-.667V6.464l-.319-.055V6.163h1.024v.246l-.318.055v.967a.7.7,0,0,0,.107.442.389.389,0,0,0,.318.13.408.408,0,0,0,.324-.141.622.622,0,0,0,.141-.357V6.464L72.5,6.409V6.163h1.021v.246l-.318.055v.967a.693.693,0,0,0,.11.434.386.386,0,0,0,.32.138.532.532,0,0,0,.289-.072.466.466,0,0,0,.173-.2V6.464l-.318-.055V6.163Z"/><path d="M70.254,6.122a.711.711,0,0,1,.5.161.6.6,0,0,1,.172.455.569.569,0,0,1-.111.35.716.716,0,0,1-.319.233A1.359,1.359,0,0,1,70,7.4h-.377v.207a.377.377,0,0,0,.116.3.468.468,0,0,0,.327.106.754.754,0,0,0,.231-.032.7.7,0,0,0,.177-.089l.041-.295h.3v.484a.976.976,0,0,1-.332.175,1.384,1.384,0,0,1-.42.06.907.907,0,0,1-.6-.184.646.646,0,0,1-.219-.525V6.589c0-.027,0-.054,0-.08a.681.681,0,0,0,0-.078l-.2-.022V6.163h.553c.012.057.021.109.027.155s.011.091.014.136a.929.929,0,0,1,.278-.237A.715.715,0,0,1,70.254,6.122Zm-.057.323a.69.69,0,0,0-.35.091.566.566,0,0,0-.226.221V7.14h.391a.558.558,0,0,0,.4-.127.387.387,0,0,0,.133-.283.264.264,0,0,0-.086-.212A.392.392,0,0,0,70.2,6.445Z"/><path d="M67.693,6.163v.246l-.318.055V8.7l.318.055v.248h-.832l-.916-2.158h-.012l-.886,2.158h-.858V8.759l.319-.055V6.464l-.319-.055V6.163h1.022v.246l-.336.055V8.482l.01,0,.923-2.219h.256l.955,2.215.01,0-.014-1.19V6.464l-.343-.055V6.163Z"/><path d="M62.906,6.122a.875.875,0,0,1,.832.519,1.279,1.279,0,0,1,.115.556V7.24a1.278,1.278,0,0,1-.115.555.913.913,0,0,1-.327.382.98.98,0,0,1-1.006,0,.91.91,0,0,1-.327-.381,1.276,1.276,0,0,1-.115-.556V7.2a1.285,1.285,0,0,1,.115-.558.87.87,0,0,1,.828-.517Zm0,.3a.474.474,0,0,0-.308.1.613.613,0,0,0-.187.275,1.146,1.146,0,0,0-.064.4V7.24a1.144,1.144,0,0,0,.064.4.607.607,0,0,0,.188.275.526.526,0,0,0,.62,0,.6.6,0,0,0,.187-.275,1.169,1.169,0,0,0,.063-.4V7.2a1.171,1.171,0,0,0-.063-.4.592.592,0,0,0-.188-.275A.485.485,0,0,0,62.906,6.423Z"/><path d="M60.767,6.122a.761.761,0,0,1,.443.128.808.808,0,0,1,.282.357,1.348,1.348,0,0,1,.1.533v.041a1.673,1.673,0,0,1-.1.6.883.883,0,0,1-.283.4.716.716,0,0,1-.446.142.742.742,0,0,1-.331-.07.681.681,0,0,1-.245-.2v.861l.319.055V9.21h-.7V6.464l-.319-.055V6.163h.653l.031.252a.676.676,0,0,1,.253-.218A.76.76,0,0,1,60.767,6.122Zm-.1.313a.509.509,0,0,0-.289.078.593.593,0,0,0-.194.221v.98a.6.6,0,0,0,.194.211A.507.507,0,0,0,60.666,8a.443.443,0,0,0,.3-.1.629.629,0,0,0,.177-.289,1.421,1.421,0,0,0,.059-.429V7.14a.9.9,0,0,0-.131-.512A.453.453,0,0,0,60.67,6.435Z"/><path d="M58.289,6.122a.677.677,0,0,1,.537.221,1.024,1.024,0,0,1,.193.688v.943l.243.055v.248h-.627V7.027a.789.789,0,0,0-.1-.465.369.369,0,0,0-.311-.127.634.634,0,0,0-.338.083.519.519,0,0,0-.2.235V7.974l.284.055v.248H57.3V6.464l-.243-.055V6.163h.588l.026.313a.686.686,0,0,1,.619-.354Z"/><path d="M56.806,6.163v.246l-.318.055V8.907l.318.055V9.21h-.7V6.464l-.318-.055V6.163Z"/><path d="M54.588,6.122a.95.95,0,0,1,.509.134.883.883,0,0,1,.335.372,1.221,1.221,0,0,1,.119.551v.086a1.15,1.15,0,0,1-.124.538,1,1,0,0,1-.331.375.791.791,0,0,1-.45.138.893.893,0,0,1-.477-.118.732.732,0,0,1-.29-.329,1.181,1.181,0,0,1-.1-.5V7.13h1.371l.006-.01a.942.942,0,0,0-.071-.36.568.568,0,0,0-.2-.247.511.511,0,0,0-.3-.09.967.967,0,0,0-.343.056.8.8,0,0,0-.255.153l-.15-.25a.912.912,0,0,1,.3-.184A1.185,1.185,0,0,1,54.588,6.122Zm.552,1.309h-.974v.051a.657.657,0,0,0,.054.272.431.431,0,0,0,.16.19.476.476,0,0,0,.266.069.4.4,0,0,0,.235-.075.579.579,0,0,0,.173-.2.845.845,0,0,0,.09-.293Z"/><path id="rect6749-2" class="cls-3" d="M77.967,68.86h-6.8a.139.139,0,0,1-.139-.139h0V55.191a.14.14,0,0,1,.14-.14h6.8a.14.14,0,0,1,.139.139h0V68.72A.14.14,0,0,1,77.967,68.86Z"/><path id="rect6749-9-2" class="cls-3" d="M70.878,68.86H63.945a.141.141,0,0,1-.141-.141h0V55.192a.139.139,0,0,1,.138-.14h6.93a.142.142,0,0,1,.142.141h0V68.72A.14.14,0,0,1,70.878,68.86Z"/><path id="rect6749-9-3-2-2" class="cls-4" d="M63.658,68.86H56.9a.138.138,0,0,1-.138-.138h0V55.192a.14.14,0,0,1,.14-.14H63.66a.138.138,0,0,1,.138.138h0V68.72a.138.138,0,0,1-.138.14Z"/><path class="cls-2" d="M60.208,61.372a2.878,2.878,0,0,1-.875-.134,2.84,2.84,0,0,1-.8-.41V59.764h.523l.113.784a1.972,1.972,0,0,0,.482.212,2.049,2.049,0,0,0,.56.075,1.427,1.427,0,0,0,.579-.105.832.832,0,0,0,.365-.288.8.8,0,0,0,.017-.834.9.9,0,0,0-.361-.306,2.886,2.886,0,0,0-.685-.231,3.3,3.3,0,0,1-.867-.319,1.5,1.5,0,0,1-.536-.486,1.184,1.184,0,0,1-.183-.654,1.225,1.225,0,0,1,.206-.7,1.443,1.443,0,0,1,.577-.487,1.97,1.97,0,0,1,.861-.177,2.5,2.5,0,0,1,.925.159,2.272,2.272,0,0,1,.661.385v.995h-.523l-.113-.711a1.3,1.3,0,0,0-.383-.2,1.687,1.687,0,0,0-.567-.082,1.2,1.2,0,0,0-.506.1.812.812,0,0,0-.342.283.737.737,0,0,0-.123.426.637.637,0,0,0,.112.376.9.9,0,0,0,.362.283,3.626,3.626,0,0,0,.671.227,2.626,2.626,0,0,1,1.191.575,1.24,1.24,0,0,1,.405.943,1.21,1.21,0,0,1-.215.709,1.419,1.419,0,0,1-.607.483A2.252,2.252,0,0,1,60.208,61.372Z"/><path class="cls-2" d="M74.849,61.372a2.2,2.2,0,0,1-1.2-.32,2.1,2.1,0,0,1-.78-.887,2.994,2.994,0,0,1-.273-1.313V58.77a2.983,2.983,0,0,1,.275-1.317,2.176,2.176,0,0,1,.754-.884,1.918,1.918,0,0,1,1.087-.318,3.164,3.164,0,0,1,.985.134,2.234,2.234,0,0,1,.693.358v1.006H75.84l-.072-.722a1.27,1.27,0,0,0-.41-.166,2.594,2.594,0,0,0-.574-.056,1.279,1.279,0,0,0-.769.247,1.657,1.657,0,0,0-.54.684,2.483,2.483,0,0,0-.2,1.027v.089a2.718,2.718,0,0,0,.182,1.037,1.525,1.525,0,0,0,.535.688,1.463,1.463,0,0,0,.855.244,2.337,2.337,0,0,0,.578-.06,1.886,1.886,0,0,0,.417-.155v-1.17L74.89,59.4v-.5h1.627v1.928a2.062,2.062,0,0,1-.617.369A2.78,2.78,0,0,1,74.849,61.372Z"/><path class="cls-2" d="M67.1,61.3,65.43,56.811l-.4-.054v-.434h1.573v.434l-.455.072,1.114,3.165.117.393h.02l.123-.393,1.155-3.169-.505-.068v-.434h1.568v.434l-.4.054L67.676,61.3Z"/><path class="cls-5" d="M62.466,65.355a2.241,2.241,0,1,1-2.239-2.222A2.231,2.231,0,0,1,62.466,65.355Z"/><ellipse class="cls-6" cx="60.226" cy="65.355" rx="1.532" ry="1.519"/><path class="cls-5" d="M69.666,65.355a2.241,2.241,0,1,1-2.239-2.222A2.231,2.231,0,0,1,69.666,65.355Z"/><ellipse class="cls-6" cx="67.426" cy="65.355" rx="1.532" ry="1.519"/><path class="cls-5" d="M76.866,65.355a2.241,2.241,0,1,1-2.239-2.222A2.231,2.231,0,0,1,76.866,65.355Z"/><ellipse class="cls-6" cx="74.626" cy="65.355" rx="1.532" ry="1.519"/><rect class="cls-2" x="64.076" y="47.946" width="6.952" height="6.629"/><path d="M64.759,54.2v-.684l.406-.058,1.809-4.946h1.168l1.8,4.946.406.058V54.2H68.408v-.684l.394-.07-.25-.781h-2l-.25.781.395.07V54.2Zm2.063-2.375h1.461l-.665-1.949-.054-.172H67.54l-.058.183Z"/><path class="cls-2" d="M58.43,74.3v-.308l.4-.068v-2.8l-.4-.069v-.307h1.585a1.63,1.63,0,0,1,.655.116.878.878,0,0,1,.407.335.985.985,0,0,1,.139.538.948.948,0,0,1-.136.524.829.829,0,0,1-.384.321,1.528,1.528,0,0,1-.591.116l-.8.015v1.211l.4.068V74.3Zm.879-1.965h.657a.908.908,0,0,0,.586-.154.555.555,0,0,0,.183-.449.576.576,0,0,0-.176-.445.776.776,0,0,0-.544-.163h-.706ZM60.777,74.3l-.791-1.775.481-.005.656,1.421.247.044V74.3Z"/><path class="cls-2" d="M63.457,74.351a1.443,1.443,0,0,1-.654-.144,1.107,1.107,0,0,1-.454-.411,1.19,1.19,0,0,1-.166-.641V71.124l-.4-.069v-.31h1.277v.31l-.4.069v2.031a.912.912,0,0,0,.1.447.666.666,0,0,0,.282.272.915.915,0,0,0,.418.092.953.953,0,0,0,.423-.091.663.663,0,0,0,.289-.271.9.9,0,0,0,.1-.449V71.124l-.4-.069v-.31h1.277v.31l-.4.069v2.031a1.229,1.229,0,0,1-.163.653,1.019,1.019,0,0,1-.455.4A1.591,1.591,0,0,1,63.457,74.351Z"/><path class="cls-2" d="M66.809,74.351a2.045,2.045,0,0,1-.625-.095,2,2,0,0,1-.573-.293V73.2h.373l.081.559a1.362,1.362,0,0,0,.344.151,1.427,1.427,0,0,0,.4.054,1.039,1.039,0,0,0,.414-.074.6.6,0,0,0,.26-.207.532.532,0,0,0,.091-.307.523.523,0,0,0-.079-.288.654.654,0,0,0-.257-.219,2.1,2.1,0,0,0-.49-.165,2.336,2.336,0,0,1-.618-.228,1.059,1.059,0,0,1-.384-.347.846.846,0,0,1-.13-.467.873.873,0,0,1,.147-.5,1.014,1.014,0,0,1,.412-.347,1.407,1.407,0,0,1,.615-.127,1.776,1.776,0,0,1,.66.114,1.632,1.632,0,0,1,.473.274v.711h-.374l-.08-.508a.947.947,0,0,0-.274-.147,1.214,1.214,0,0,0-.4-.058.86.86,0,0,0-.362.072.585.585,0,0,0-.244.2.536.536,0,0,0-.088.305.462.462,0,0,0,.08.269.638.638,0,0,0,.258.2,2.623,2.623,0,0,0,.48.163,1.891,1.891,0,0,1,.851.411.887.887,0,0,1,.289.673.867.867,0,0,1-.153.506,1.016,1.016,0,0,1-.433.346A1.611,1.611,0,0,1,66.809,74.351Z"/><path class="cls-2" d="M69.754,74.351a2.036,2.036,0,0,1-.625-.095,1.988,1.988,0,0,1-.574-.293V73.2h.373l.081.559a1.378,1.378,0,0,0,.344.151,1.434,1.434,0,0,0,.4.054,1.046,1.046,0,0,0,.414-.074.6.6,0,0,0,.26-.207.57.57,0,0,0,.012-.595.658.658,0,0,0-.258-.219,2.11,2.11,0,0,0-.489-.165,2.344,2.344,0,0,1-.619-.228,1.067,1.067,0,0,1-.384-.347.846.846,0,0,1-.13-.467.866.866,0,0,1,.148-.5,1,1,0,0,1,.411-.347,1.413,1.413,0,0,1,.615-.127,1.776,1.776,0,0,1,.66.114,1.618,1.618,0,0,1,.473.274v.711h-.374l-.08-.508a.934.934,0,0,0-.274-.147,1.21,1.21,0,0,0-.405-.058.852.852,0,0,0-.361.072.579.579,0,0,0-.244.2.528.528,0,0,0-.088.305.461.461,0,0,0,.079.269.642.642,0,0,0,.259.2,2.6,2.6,0,0,0,.48.163,1.9,1.9,0,0,1,.851.411.891.891,0,0,1,.289.673.86.86,0,0,1-.154.506,1.016,1.016,0,0,1-.433.346A1.61,1.61,0,0,1,69.754,74.351Z"/><path class="cls-2" d="M71.416,74.3v-.308l.4-.068v-2.8l-.4-.069v-.31h1.277v.31l-.4.069v2.8l.4.068V74.3Z"/><path class="cls-2" d="M73.062,74.3v-.308l.263-.036,1.243-3.211h.413l1.22,3.211.262.036V74.3H75.442v-.308l.269-.046-.235-.654H74.053l-.242.654.269.046V74.3Zm1.14-1.411H75.33l-.523-1.445-.029-.081h-.015l-.029.081Z"/><path id="path15373" class="cls-7" d="M75.026,111.681v7.727l-1.276,1.335-1.284-1.335V98.1l2.56-2.67v16.251Z"/><path id="path15377" class="cls-7" d="M75.026,95.43l-2.56,2.67H62.408l-2.569-2.67Z"/><path id="path15381" class="cls-8" d="M73.744,120.742l-1.285,1.335H62.409l-1.286-1.335,1.286-1.334h10.05Z"/><path id="path15389" class="cls-9" d="M72.466,114.276v5.132H62.409v-5.123h.284Z"/><path id="path15393" class="cls-9" d="M72.466,109.125v5.151h-.293l-9.48.009h-.284v-5.16H72.466Z"/><path id="path15397" class="cls-10" d="M72.466,108.054v1.071H68.582v-1.071h3.884Z"/><path id="path15401" class="cls-9" d="M72.466,98.1v9.953H62.408V98.1Z"/><path id="path15411" class="cls-10" d="M68.583,108.054v1.071H66.292v-1.071Z"/><path id="path15415" class="cls-10" d="M66.291,108.054v1.071H62.408v-1.071h3.883Z"/><path id="path15419" class="cls-10" d="M62.408,108.054v11.354l-1.285,1.335-1.284-1.335V95.43l2.569,2.67Z"/><rect class="cls-11" x="63.207" y="98.831" width="8.459" height="8.459" rx="4.23" transform="translate(134.874 206.121) rotate(-180)"/><path id="path15427" class="cls-12" d="M67,101.748a.933.933,0,0,1-1.214.573.992.992,0,0,1-.552-1.262.934.934,0,0,1,1.215-.573A.992.992,0,0,1,67,101.748"/><path id="path15431" class="cls-12" d="M70.246,104.281a.931.931,0,0,1-1.214.572.99.99,0,0,1-.551-1.261.933.933,0,0,1,1.214-.573.991.991,0,0,1,.551,1.262"/><path id="path15435" class="cls-13" d="M67.638,101.364a.465.465,0,0,1-.606.286.5.5,0,0,1-.276-.631.467.467,0,0,1,.607-.286.5.5,0,0,1,.275.631"/><path id="path15439" class="cls-14" d="M70.031,104.043a.467.467,0,0,1-.607.286.5.5,0,0,1-.276-.631.469.469,0,0,1,.608-.287.5.5,0,0,1,.275.632"/><rect class="cls-15" x="63.207" y="110.218" width="8.459" height="8.459" rx="4.23" transform="translate(134.874 228.895) rotate(-180)"/><path id="path15443" class="cls-16" d="M67.309,113.248A.923.923,0,0,1,66,112.964a1,1,0,0,1,.275-1.356.92.92,0,0,1,1.3.284,1,1,0,0,1-.273,1.356"/><path id="path15447" class="cls-16" d="M68.489,117.288A.923.923,0,0,1,67.183,117a1.006,1.006,0,0,1,.275-1.357.92.92,0,0,1,1.3.285,1,1,0,0,1-.273,1.356"/><path id="path15451" class="cls-17" d="M68.045,113.333a.46.46,0,0,1-.652-.142.5.5,0,0,1,.137-.678.46.46,0,0,1,.652.142.5.5,0,0,1-.137.678"/><path id="path15455" class="cls-18" d="M68.451,116.964a.462.462,0,0,1-.653-.142.5.5,0,0,1,.137-.678.46.46,0,0,1,.652.142.5.5,0,0,1-.136.678"/></g><g id="top"><path d="M0,0V122.74H34.86V0ZM17.43,44.53a4.4,4.4,0,1,1,4.39-4.4A4.392,4.392,0,0,1,17.43,44.53Z"/><circle class="cls-1" cx="17.431" cy="40.134" r="4.394"/><path class="cls-2" d="M4.24,26.262l-.1-1.753h.428a2.541,2.541,0,0,0,.333-.52,3.516,3.516,0,0,0,.265-.788,5.717,5.717,0,0,0,.119-1.129l.082-1.487-.526-.093v-.434H8.949v.434l-.557.1v3.921h.684l-.068,1.746H8.4v-1.22H4.814v1.227Zm1.073-1.753H7.719V20.588H6.044l-.078,1.484a6.881,6.881,0,0,1-.106,1,4.676,4.676,0,0,1-.226.819A2.863,2.863,0,0,1,5.313,24.509Z"/><path class="cls-2" d="M10.768,25.107a1.246,1.246,0,0,1-.879-.282,1.04,1.04,0,0,1-.3-.795,1,1,0,0,1,.193-.613,1.235,1.235,0,0,1,.559-.407,2.361,2.361,0,0,1,.875-.145h.659V22.5a.667.667,0,0,0-.2-.519A.824.824,0,0,0,11.1,21.8a1.312,1.312,0,0,0-.4.056,1.178,1.178,0,0,0-.311.156l-.072.516H9.794v-.848a1.742,1.742,0,0,1,.581-.3,2.426,2.426,0,0,1,.735-.105,1.592,1.592,0,0,1,1.056.322,1.132,1.132,0,0,1,.383.919V24.29c0,.048,0,.1,0,.14s0,.091.009.137l.359.037v.431H11.95c-.02-.1-.036-.191-.047-.27s-.02-.16-.024-.239a1.652,1.652,0,0,1-.487.415A1.241,1.241,0,0,1,10.768,25.107Zm.1-.564a1.2,1.2,0,0,0,.612-.161,1,1,0,0,0,.4-.386v-.67h-.683a.977.977,0,0,0-.7.222.677.677,0,0,0-.232.5.463.463,0,0,0,.15.371A.69.69,0,0,0,10.867,24.543Z"/><path class="cls-2" d="M14.247,25.035V24.6l.557-.095V21.86h-.779l-.051.577H13.4v-1.1h3.5v1.1h-.578l-.051-.577h-.793v2.649l.557.095v.431Z"/><path class="cls-2" d="M19.675,25.035V24.6l.557-.095v-.793a3.013,3.013,0,0,1-.4.075,3.736,3.736,0,0,1-.434.024,1.725,1.725,0,0,1-.768-.158,1.1,1.1,0,0,1-.49-.466,1.576,1.576,0,0,1-.171-.771v-.56l-.557-.1v-.431H19.2v.431l-.558.1v.56a1.21,1.21,0,0,0,.084.487.574.574,0,0,0,.253.282.86.86,0,0,0,.419.092,3.479,3.479,0,0,0,.43-.025,3.317,3.317,0,0,0,.407-.077V21.866l-.557-.095v-.434h1.788v.434l-.557.095v2.643l.557.095v.431Z"/><path class="cls-2" d="M22.15,25.035V24.6l.557-.095V21.866l-.557-.095v-.434h1.784v.434l-.557.095v2.089l.02.007,1.631-2.625h1.23v.434l-.557.095v2.643l.557.095v.431H24.47V24.6l.558-.095V22.417l-.021-.007-1.63,2.625Z"/><path class="cls-2" d="M26.921,25.035V24.6l.557-.095V21.866l-.557-.095v-.434h1.788v.434l-.557.095V22.9h.355l.773-1.036a2,2,0,0,1,.408-.441.729.729,0,0,1,.449-.15.738.738,0,0,1,.26.039,1.382,1.382,0,0,1,.233.121l-.1.458-.169-.027a.856.856,0,0,0-.091,0,.4.4,0,0,0-.248.092,1.031,1.031,0,0,0-.213.219L29.1,23.1l1.166,1.422.475.085v.431h-.9l-1.251-1.569h-.437v1.043l.557.095v.431Z"/><path class="cls-2" d="M5.877,32.035l.01-.574.14,0a.5.5,0,0,0,.383-.152.983.983,0,0,0,.2-.492,5.253,5.253,0,0,0,.061-.9v-1.05l-.557-.095v-.434H9.831v.434l-.557.095v2.643l.557.095v.431H8.044V31.6l.557-.095V28.87H7.346v1.046a3.412,3.412,0,0,1-.288,1.606,1.042,1.042,0,0,1-.99.513Z"/><path class="cls-2" d="M10.47,32.035V31.6l.558-.095V28.866l-.558-.095v-.434h1.785v.434l-.557.095v2.089l.02.007,1.63-2.625h1.231v.434l-.557.095v2.643l.557.095v.431H12.791V31.6l.557-.095V29.417l-.02-.007L11.7,32.035Z"/><path class="cls-2" d="M15.242,32.035V31.6l.557-.095V28.866l-.557-.095v-.434H17.03v.434l-.558.095v1.07h1.644v-1.07l-.557-.095v-.434H19.35v.434l-.557.095v2.643l.557.095v.431H17.559V31.6l.557-.095V30.463H16.472v1.046l.558.095v.431Z"/><path class="cls-2" d="M20.01,32.035V31.6l.557-.095V28.866l-.557-.095v-.434h1.784v.434l-.557.095v2.089l.021.007,1.63-2.625h1.23v.434l-.557.095v2.643l.557.095v.431H22.331V31.6l.557-.095V29.417l-.021-.007-1.63,2.625Z"/><path class="cls-2" d="M24.782,32.035V31.6l.557-.095V28.866l-.557-.095v-.434h1.784v.434l-.557.095v2.089l.02.007,1.63-2.625H28.89v.434l-.557.095v2.643l.557.095v.431H27.1V31.6l.557-.095V29.417l-.02-.007-1.63,2.625Z"/><rect class="cls-2" y="5.504" width="34.86" height="4.058"/><path class="cls-2" d="M27.824,1.089v.246l-.318.054V2.9l.318.055V3.2h-.7V1.389L26.8,1.335V1.089Zm-.3,2.634v.412h-.405V3.723Z"/><path class="cls-2" d="M25.854,1.048a.706.706,0,0,1,.5.161.594.594,0,0,1,.172.454.569.569,0,0,1-.111.35.7.7,0,0,1-.319.233,1.359,1.359,0,0,1-.5.083h-.377v.207a.384.384,0,0,0,.116.3.472.472,0,0,0,.327.1.754.754,0,0,0,.231-.032.66.66,0,0,0,.178-.089l.041-.3h.3v.485a.992.992,0,0,1-.332.174,1.384,1.384,0,0,1-.42.06.907.907,0,0,1-.6-.184.646.646,0,0,1-.219-.525V1.514c0-.027,0-.054,0-.08a.681.681,0,0,0-.005-.078l-.2-.021V1.089h.553c.012.057.021.109.027.154a1.246,1.246,0,0,1,.014.137.918.918,0,0,1,.278-.238A.714.714,0,0,1,25.854,1.048ZM25.8,1.37a.684.684,0,0,0-.349.092.561.561,0,0,0-.227.22v.383h.391a.553.553,0,0,0,.4-.127.386.386,0,0,0,.133-.283.265.265,0,0,0-.086-.212A.392.392,0,0,0,25.8,1.37Z"/><path class="cls-2" d="M24.33,1.089v.246l-.318.054V2.9l.318.055V3.2h-.662l-.033-.27,0-.037a.738.738,0,0,1-.222.254.513.513,0,0,1-.3.092.657.657,0,0,1-.124-.011.634.634,0,0,1-.091-.02l.051-.358.267.016a.374.374,0,0,0,.256-.069.513.513,0,0,0,.16-.212v-1.2l-.318-.054V1.089Z"/><path class="cls-2" d="M21.866,1.048a.753.753,0,0,1,.442.128.805.805,0,0,1,.282.356,1.348,1.348,0,0,1,.1.533v.041a1.669,1.669,0,0,1-.1.6.883.883,0,0,1-.283.4.709.709,0,0,1-.445.142.753.753,0,0,1-.331-.069.689.689,0,0,1-.246-.2v.862l.319.054v.248h-.7V1.389l-.319-.054V1.089h.653l.031.252a.67.67,0,0,1,.253-.219A.774.774,0,0,1,21.866,1.048Zm-.1.312a.509.509,0,0,0-.289.078.6.6,0,0,0-.194.221v.98a.59.59,0,0,0,.194.211.5.5,0,0,0,.285.078.441.441,0,0,0,.3-.1.629.629,0,0,0,.177-.289,1.421,1.421,0,0,0,.059-.429V2.065a.894.894,0,0,0-.131-.512A.455.455,0,0,0,21.768,1.36Z"/><path class="cls-2" d="M19.387,1.048a.677.677,0,0,1,.537.22,1.026,1.026,0,0,1,.193.688V2.9l.243.055V3.2h-.627V1.952a.791.791,0,0,0-.1-.465.371.371,0,0,0-.31-.127.635.635,0,0,0-.339.083.511.511,0,0,0-.2.235V2.9l.283.055V3.2H18.4V1.389l-.242-.054V1.089h.587l.026.312a.683.683,0,0,1,.619-.353Z"/><path class="cls-2" d="M17.9,1.089v.246l-.319.054V2.9l.319.055V3.2h-.7V1.389l-.319-.054V1.089Zm-.3,2.634v.412h-.4V3.723Z"/><path class="cls-2" d="M16.612,1.089v.246l-.319.054V2.9l.319.055V3.2h-.663l-.027-.315a.775.775,0,0,1-.264.261.708.708,0,0,1-.363.093.69.69,0,0,1-.529-.2.88.88,0,0,1-.188-.618V1.389l-.318-.054V1.089h1.022v.246l-.319.054V2.415a.568.568,0,0,0,.111.4.441.441,0,0,0,.336.117.536.536,0,0,0,.294-.08.571.571,0,0,0,.2-.218V1.389l-.318-.054V1.089Z"/><path class="cls-2" d="M13.063,1.048a.872.872,0,0,1,.832.518,1.294,1.294,0,0,1,.115.556v.043a1.292,1.292,0,0,1-.115.555.907.907,0,0,1-.327.382.98.98,0,0,1-1.006,0,.9.9,0,0,1-.327-.381,1.276,1.276,0,0,1-.116-.556V2.122a1.285,1.285,0,0,1,.116-.558.868.868,0,0,1,.828-.516Zm0,.3a.474.474,0,0,0-.308.1.618.618,0,0,0-.187.275,1.146,1.146,0,0,0-.064.4v.043a1.14,1.14,0,0,0,.064.4.61.61,0,0,0,.188.276.481.481,0,0,0,.311.1.475.475,0,0,0,.308-.1.6.6,0,0,0,.188-.276,1.19,1.19,0,0,0,.062-.4V2.122a1.2,1.2,0,0,0-.062-.4.606.606,0,0,0-.189-.275A.484.484,0,0,0,13.063,1.348Z"/><path class="cls-2" d="M11.684,1.089v.394H11.3V1.089Z"/><path class="cls-2" d="M10.864,1.089v.246l-.319.054V2.9l.319.055V3.2H10.2l-.033-.27,0-.037a.736.736,0,0,1-.221.254.518.518,0,0,1-.3.092.657.657,0,0,1-.124-.011.634.634,0,0,1-.091-.02l.051-.358.267.016A.374.374,0,0,0,10,2.8a.513.513,0,0,0,.16-.212v-1.2l-.318-.054V1.089Z"/><path class="cls-2" d="M8.262,1.048a.677.677,0,0,1,.537.22,1.026,1.026,0,0,1,.193.688V2.9l.243.055V3.2H8.608V1.952a.791.791,0,0,0-.1-.465A.371.371,0,0,0,8.2,1.36a.635.635,0,0,0-.339.083.511.511,0,0,0-.2.235V2.9l.283.055V3.2H7.272V1.389L7.03,1.335V1.089h.587l.026.312a.683.683,0,0,1,.619-.353Z"/><path d="M30.376,6.163v.246l-.319.055V8.716H30.7l.057-.394h.289v.685H28.684V8.322h.286l.058.394h.645V6.464l-.319-.055V6.163Z"/><path d="M28.5,6.163v.246l-.318.055v1.51l.318.055v.248h-.662l-.033-.27,0-.037a.738.738,0,0,1-.222.254.516.516,0,0,1-.3.092.771.771,0,0,1-.124-.011.521.521,0,0,1-.091-.021l.051-.357.268.016a.371.371,0,0,0,.256-.07.517.517,0,0,0,.16-.212v-1.2l-.319-.055V6.163Z"/><path d="M25.9,6.122a.953.953,0,0,1,.51.134.9.9,0,0,1,.335.372,1.221,1.221,0,0,1,.118.551v.086a1.138,1.138,0,0,1-.124.538,1,1,0,0,1-.33.375.793.793,0,0,1-.45.138A.9.9,0,0,1,25.48,8.2a.738.738,0,0,1-.29-.329,1.182,1.182,0,0,1-.1-.5V7.13h1.371l.006-.01a.962.962,0,0,0-.072-.36.573.573,0,0,0-.194-.247.514.514,0,0,0-.3-.09.975.975,0,0,0-.343.056.78.78,0,0,0-.254.153l-.151-.25a.918.918,0,0,1,.3-.184A1.179,1.179,0,0,1,25.9,6.122Zm.553,1.309h-.975v.051a.657.657,0,0,0,.054.272.437.437,0,0,0,.16.19.482.482,0,0,0,.267.069.393.393,0,0,0,.234-.075.582.582,0,0,0,.174-.2.867.867,0,0,0,.09-.293Z"/><path d="M24.794,6.163v.246l-.319.055v1.51l.319.055v.248H24.13L24.1,8a.7.7,0,0,1-.261.233.815.815,0,0,1-.372.082.655.655,0,0,1-.362-.1.586.586,0,0,1-.227-.293.788.788,0,0,1-.264.285.686.686,0,0,1-.383.106.635.635,0,0,1-.512-.222,1.013,1.013,0,0,1-.187-.667V6.464l-.318-.055V6.163h1.023v.246l-.318.055v.967a.7.7,0,0,0,.107.442.389.389,0,0,0,.318.13.408.408,0,0,0,.324-.141.622.622,0,0,0,.141-.357V6.464L22.5,6.409V6.163h1.021v.246l-.318.055v.967a.693.693,0,0,0,.11.434.387.387,0,0,0,.32.138.532.532,0,0,0,.289-.072.475.475,0,0,0,.174-.2V6.464l-.319-.055V6.163Z"/><path d="M20.249,6.122a.711.711,0,0,1,.5.161.593.593,0,0,1,.172.455.569.569,0,0,1-.111.35.711.711,0,0,1-.319.233,1.359,1.359,0,0,1-.5.083h-.377v.207a.38.38,0,0,0,.116.3.468.468,0,0,0,.327.106.754.754,0,0,0,.231-.032.723.723,0,0,0,.178-.089l.041-.295h.3v.484a.976.976,0,0,1-.332.175,1.384,1.384,0,0,1-.42.06.907.907,0,0,1-.6-.184.646.646,0,0,1-.219-.525V6.589c0-.027,0-.054,0-.08a.681.681,0,0,0,0-.078l-.205-.022V6.163h.553c.012.057.021.109.027.155a1.254,1.254,0,0,1,.014.136.929.929,0,0,1,.278-.237A.715.715,0,0,1,20.249,6.122Zm-.057.323a.683.683,0,0,0-.349.091.563.563,0,0,0-.227.221V7.14h.391a.558.558,0,0,0,.4-.127.387.387,0,0,0,.133-.283.264.264,0,0,0-.086-.212A.392.392,0,0,0,20.192,6.445Z"/><path d="M17.688,6.163v.246l-.318.055V8.7l.318.055v.248h-.832L15.94,6.849h-.012l-.886,2.158h-.858V8.759L14.5,8.7V6.464l-.319-.055V6.163h1.022v.246l-.336.055V8.482l.01,0L15.8,6.265h.256l.955,2.215.01,0-.013-1.19V6.464l-.344-.055V6.163Z"/><path d="M12.9,6.122a.875.875,0,0,1,.832.519,1.279,1.279,0,0,1,.115.556V7.24a1.278,1.278,0,0,1-.115.555.913.913,0,0,1-1.66,0,1.276,1.276,0,0,1-.115-.556V7.2a1.285,1.285,0,0,1,.115-.558.87.87,0,0,1,.828-.517Zm0,.3a.471.471,0,0,0-.307.1.614.614,0,0,0-.188.275,1.171,1.171,0,0,0-.063.4V7.24a1.169,1.169,0,0,0,.063.4.608.608,0,0,0,.189.275.525.525,0,0,0,.619,0,.6.6,0,0,0,.187-.275,1.169,1.169,0,0,0,.063-.4V7.2a1.171,1.171,0,0,0-.063-.4.592.592,0,0,0-.188-.275A.485.485,0,0,0,12.9,6.423Z"/><path d="M10.762,6.122a.761.761,0,0,1,.443.128.808.808,0,0,1,.282.357,1.348,1.348,0,0,1,.1.533v.041a1.673,1.673,0,0,1-.1.6.883.883,0,0,1-.283.4.715.715,0,0,1-.445.142.739.739,0,0,1-.331-.07.676.676,0,0,1-.246-.2v.861l.319.055V9.21H9.8V6.464l-.319-.055V6.163h.653l.031.252a.676.676,0,0,1,.253-.218A.76.76,0,0,1,10.762,6.122Zm-.1.313a.509.509,0,0,0-.289.078.593.593,0,0,0-.194.221v.98a.6.6,0,0,0,.194.211A.507.507,0,0,0,10.661,8a.443.443,0,0,0,.3-.1.629.629,0,0,0,.177-.289,1.421,1.421,0,0,0,.059-.429V7.14a.892.892,0,0,0-.131-.512A.453.453,0,0,0,10.665,6.435Z"/><path d="M8.284,6.122a.677.677,0,0,1,.537.221,1.024,1.024,0,0,1,.193.688v.943l.243.055v.248H8.63V7.027a.789.789,0,0,0-.1-.465.369.369,0,0,0-.31-.127.635.635,0,0,0-.339.083.519.519,0,0,0-.2.235V7.974l.284.055v.248H7.294V6.464l-.242-.055V6.163h.587l.026.313a.686.686,0,0,1,.619-.354Z"/><path d="M6.8,6.163v.246l-.319.055V8.907l.319.055V9.21H6.1V6.464L5.78,6.409V6.163Z"/><path d="M4.583,6.122a.956.956,0,0,1,.51.134.9.9,0,0,1,.335.372,1.234,1.234,0,0,1,.118.551v.086a1.15,1.15,0,0,1-.124.538,1,1,0,0,1-.33.375.8.8,0,0,1-.451.138A.893.893,0,0,1,4.164,8.2a.732.732,0,0,1-.29-.329,1.181,1.181,0,0,1-.1-.5V7.13H5.147l.006-.01a.942.942,0,0,0-.071-.36.568.568,0,0,0-.2-.247.511.511,0,0,0-.3-.09.967.967,0,0,0-.343.056.8.8,0,0,0-.255.153l-.15-.25a.907.907,0,0,1,.3-.184A1.176,1.176,0,0,1,4.583,6.122Zm.553,1.309H4.161v.051a.657.657,0,0,0,.054.272.431.431,0,0,0,.16.19.478.478,0,0,0,.266.069.4.4,0,0,0,.235-.075.592.592,0,0,0,.174-.2.866.866,0,0,0,.089-.293Z"/><path id="rect6749-2-2" data-name="rect6749-2" class="cls-3" d="M27.988,68.86h-6.8a.139.139,0,0,1-.139-.139h0V55.191a.14.14,0,0,1,.14-.14h6.8a.141.141,0,0,1,.139.139h0V68.72A.14.14,0,0,1,27.988,68.86Z"/><path id="rect6749-9-2-2" data-name="rect6749-9-2" class="cls-3" d="M20.9,68.86H13.966a.141.141,0,0,1-.141-.141h0V55.192a.139.139,0,0,1,.138-.14h6.93a.142.142,0,0,1,.142.141h0V68.72A.14.14,0,0,1,20.9,68.86Z"/><path id="rect6749-9-3-2-2-2" data-name="rect6749-9-3-2-2" class="cls-4" d="M13.679,68.86H6.918a.138.138,0,0,1-.138-.138h0V55.192a.14.14,0,0,1,.14-.14h6.761a.138.138,0,0,1,.138.138h0V68.72a.138.138,0,0,1-.138.14Z"/><path class="cls-2" d="M10.154,61.365a2.2,2.2,0,0,1-1.2-.321,2.1,2.1,0,0,1-.779-.887,2.986,2.986,0,0,1-.273-1.312v-.082a2.969,2.969,0,0,1,.275-1.317,2.181,2.181,0,0,1,.753-.884,1.921,1.921,0,0,1,1.087-.319,3.167,3.167,0,0,1,.986.134,2.235,2.235,0,0,1,.693.359v1.005h-.554l-.072-.721a1.289,1.289,0,0,0-.41-.166,2.6,2.6,0,0,0-.574-.056,1.284,1.284,0,0,0-.769.246,1.661,1.661,0,0,0-.54.685,2.466,2.466,0,0,0-.2,1.027v.089a2.7,2.7,0,0,0,.183,1.037,1.523,1.523,0,0,0,.535.688,1.463,1.463,0,0,0,.855.244,2.372,2.372,0,0,0,.577-.06,1.918,1.918,0,0,0,.417-.155v-1.17L10.2,59.4v-.5h1.627v1.927a2.069,2.069,0,0,1-.618.37A2.771,2.771,0,0,1,10.154,61.365Z"/><path class="cls-2" d="M24.947,61.365a2.809,2.809,0,0,1-1.679-.544V59.757h.523l.113.783a1.951,1.951,0,0,0,.482.212,2.013,2.013,0,0,0,.561.075,1.448,1.448,0,0,0,.579-.1.835.835,0,0,0,.364-.288A.75.75,0,0,0,26.016,60a.736.736,0,0,0-.109-.4.9.9,0,0,0-.361-.307,2.874,2.874,0,0,0-.685-.23,3.31,3.31,0,0,1-.867-.32,1.494,1.494,0,0,1-.536-.485,1.184,1.184,0,0,1-.183-.654,1.224,1.224,0,0,1,.207-.7,1.423,1.423,0,0,1,.576-.486,1.97,1.97,0,0,1,.861-.178,2.5,2.5,0,0,1,.925.16,2.279,2.279,0,0,1,.661.384v.995h-.523l-.113-.71a1.327,1.327,0,0,0-.382-.206,1.719,1.719,0,0,0-.568-.082,1.2,1.2,0,0,0-.506.1.807.807,0,0,0-.341.282.74.74,0,0,0-.123.427.644.644,0,0,0,.111.376.9.9,0,0,0,.362.282,3.681,3.681,0,0,0,.672.228,2.627,2.627,0,0,1,1.19.575A1.239,1.239,0,0,1,26.69,60a1.208,1.208,0,0,1-.216.709,1.423,1.423,0,0,1-.607.484A2.244,2.244,0,0,1,24.947,61.365Z"/><path class="cls-2" d="M17.283,61.292,15.615,56.8l-.4-.055v-.433H16.79v.433l-.454.073,1.114,3.165.116.393h.021l.123-.393,1.155-3.169-.506-.069v-.433h1.569v.433l-.4.055L17.86,61.292Z"/><polygon class="cls-2" points="28.141 67.638 26.895 68.881 22.334 68.908 21.062 67.634 21.063 63.103 22.32 61.848 26.87 61.832 28.141 63.105 28.141 67.638"/><path class="cls-19" d="M21.068,63.106l.635-.634.635-.635h4.527l.635.635.635.634v4.528l-.356.355-.914.914H22.338l-1.27-1.269V63.106m-.01,0v4.536l1.276,1.275h4.535l1.276-1.275V63.1l-1.276-1.275H22.334L21.058,63.1Z"/><rect class="cls-20" x="23.718" y="64.463" width="1.768" height="1.814"/><rect class="cls-21" x="24.118" y="64.874" width="0.967" height="0.992"/><line class="cls-22" x1="25.485" y1="66.277" x2="25.085" y2="65.866"/><line class="cls-22" x1="24.118" y1="65.866" x2="23.718" y2="66.277"/><line class="cls-22" x1="24.118" y1="64.874" x2="23.718" y2="64.463"/><line class="cls-22" x1="25.085" y1="64.874" x2="25.485" y2="64.463"/><polygon class="cls-2" points="13.797 67.638 12.523 68.91 7.991 68.908 6.719 67.634 6.72 63.103 7.977 61.848 12.526 61.832 13.797 63.105 13.797 67.638"/><path class="cls-19" d="M6.725,63.106l.635-.634L8,61.837h4.527l.635.635.635.634v4.528l-.356.355-.914.914H8l-1.27-1.269V63.106m-.01,0v4.536l1.276,1.275h4.535L13.8,67.638V63.1l-1.276-1.275H7.991L6.715,63.1Z"/><rect class="cls-20" x="9.374" y="64.463" width="1.768" height="1.814"/><rect class="cls-21" x="9.775" y="64.874" width="0.967" height="0.992"/><line class="cls-22" x1="11.142" y1="66.277" x2="10.742" y2="65.866"/><line class="cls-22" x1="9.775" y1="65.866" x2="9.374" y2="66.277"/><line class="cls-22" x1="9.775" y1="64.874" x2="9.374" y2="64.463"/><line class="cls-22" x1="10.742" y1="64.874" x2="11.142" y2="64.463"/><polygon class="cls-2" points="20.969 67.638 19.723 68.881 15.162 68.909 13.908 67.652 13.891 63.103 15.166 61.831 19.698 61.832 20.969 63.105 20.969 67.638"/><path class="cls-19" d="M13.9,63.107l1.269-1.27h4.528l.914.914.355.356v4.527l-.635.635-.634.635H15.166l-.535-.536-.734-.734V63.107m-.01,0v4.535l1.275,1.276H19.7l1.275-1.276V63.1L19.7,61.827H15.162L13.887,63.1Z"/><rect class="cls-20" x="16.546" y="64.463" width="1.768" height="1.814"/><rect class="cls-21" x="16.947" y="64.874" width="0.967" height="0.992"/><line class="cls-22" x1="18.314" y1="66.278" x2="17.913" y2="65.866"/><line class="cls-22" x1="16.947" y1="65.866" x2="16.546" y2="66.278"/><line class="cls-22" x1="16.947" y1="64.874" x2="16.546" y2="64.463"/><line class="cls-22" x1="17.913" y1="64.874" x2="18.314" y2="64.463"/><rect class="cls-2" x="14.097" y="47.946" width="6.952" height="6.629"/><path d="M14.78,54.2v-.684l.406-.058L17,48.513h1.168l1.8,4.946.406.058V54.2H18.428v-.684l.395-.07-.25-.781h-2l-.25.781.395.07V54.2Zm2.063-2.375H18.3l-.664-1.949-.054-.172h-.024l-.058.183Z"/><path class="cls-2" d="M8.428,74.3v-.308l.4-.068v-2.8l-.4-.069v-.307h1.584a1.627,1.627,0,0,1,.655.116.878.878,0,0,1,.407.335.985.985,0,0,1,.139.538.948.948,0,0,1-.136.524.829.829,0,0,1-.384.321,1.528,1.528,0,0,1-.591.116l-.8.015v1.211l.4.068V74.3Zm.878-1.965h.657a.908.908,0,0,0,.586-.154.555.555,0,0,0,.183-.449.576.576,0,0,0-.176-.445.776.776,0,0,0-.544-.163H9.306ZM10.774,74.3l-.791-1.775.481-.005.656,1.421.247.044V74.3Z"/><path class="cls-2" d="M13.454,74.351a1.443,1.443,0,0,1-.654-.144,1.107,1.107,0,0,1-.454-.411,1.19,1.19,0,0,1-.166-.641V71.124l-.4-.069v-.31h1.277v.31l-.4.069v2.031a.912.912,0,0,0,.1.447.666.666,0,0,0,.282.272.915.915,0,0,0,.418.092.961.961,0,0,0,.424-.091.666.666,0,0,0,.288-.271.9.9,0,0,0,.1-.449V71.124l-.4-.069v-.31h1.277v.31l-.4.069v2.031a1.229,1.229,0,0,1-.163.653,1.019,1.019,0,0,1-.455.4A1.591,1.591,0,0,1,13.454,74.351Z"/><path class="cls-2" d="M16.806,74.351a2.045,2.045,0,0,1-.625-.095,2,2,0,0,1-.573-.293V73.2h.373l.081.559a1.378,1.378,0,0,0,.344.151,1.427,1.427,0,0,0,.4.054,1.039,1.039,0,0,0,.414-.074.6.6,0,0,0,.26-.207.532.532,0,0,0,.091-.307.523.523,0,0,0-.079-.288.654.654,0,0,0-.257-.219,2.1,2.1,0,0,0-.49-.165,2.336,2.336,0,0,1-.618-.228,1.059,1.059,0,0,1-.384-.347.846.846,0,0,1-.13-.467.866.866,0,0,1,.148-.5,1,1,0,0,1,.411-.347,1.41,1.41,0,0,1,.615-.127,1.776,1.776,0,0,1,.66.114,1.632,1.632,0,0,1,.473.274v.711h-.374l-.08-.508a.947.947,0,0,0-.274-.147,1.214,1.214,0,0,0-.405-.058.852.852,0,0,0-.361.072.588.588,0,0,0-.245.2.535.535,0,0,0-.087.305.461.461,0,0,0,.079.269.638.638,0,0,0,.258.2,2.65,2.65,0,0,0,.48.163,1.891,1.891,0,0,1,.851.411.888.888,0,0,1,.29.673.867.867,0,0,1-.154.506,1.016,1.016,0,0,1-.433.346A1.611,1.611,0,0,1,16.806,74.351Z"/><path class="cls-2" d="M19.751,74.351a2.036,2.036,0,0,1-.625-.095,2,2,0,0,1-.574-.293V73.2h.374l.08.559a1.378,1.378,0,0,0,.344.151,1.434,1.434,0,0,0,.4.054,1.043,1.043,0,0,0,.414-.074.6.6,0,0,0,.26-.207.57.57,0,0,0,.012-.595.651.651,0,0,0-.258-.219,2.11,2.11,0,0,0-.489-.165,2.344,2.344,0,0,1-.619-.228,1.067,1.067,0,0,1-.384-.347.846.846,0,0,1-.13-.467.866.866,0,0,1,.148-.5,1,1,0,0,1,.411-.347,1.413,1.413,0,0,1,.615-.127,1.776,1.776,0,0,1,.66.114,1.605,1.605,0,0,1,.473.274v.711h-.373l-.081-.508a.941.941,0,0,0-.273-.147,1.22,1.22,0,0,0-.406-.058.855.855,0,0,0-.361.072.579.579,0,0,0-.244.2.528.528,0,0,0-.088.305.461.461,0,0,0,.079.269.642.642,0,0,0,.259.2,2.623,2.623,0,0,0,.48.163,1.9,1.9,0,0,1,.851.411.891.891,0,0,1,.289.673.86.86,0,0,1-.154.506,1.01,1.01,0,0,1-.433.346A1.61,1.61,0,0,1,19.751,74.351Z"/><path class="cls-2" d="M21.413,74.3v-.308l.4-.068v-2.8l-.4-.069v-.31H22.69v.31l-.4.069v2.8l.4.068V74.3Z"/><path class="cls-2" d="M23.059,74.3v-.308l.264-.036,1.242-3.211h.413L26.2,73.956l.261.036V74.3H25.439v-.308l.269-.046-.235-.654H24.05l-.242.654.269.046V74.3Zm1.14-1.411h1.128L24.8,71.444l-.029-.081h-.014l-.03.081Z"/><circle class="cls-23" cx="22.721" cy="108.075" r="2.505"/><circle class="cls-9" cx="22.721" cy="107.679" r="1.771"/><circle class="cls-23" cx="11.755" cy="108.075" r="2.505"/><circle class="cls-9" cx="11.755" cy="107.679" r="1.771"/><g id="R-0805-stroke"><rect class="cls-24" x="7.08" y="78.388" width="4.26" height="3.44"/><rect class="cls-24" x="7.12" y="85.518" width="4.26" height="3.44"/><rect class="cls-25" x="7.42" y="81.118" width="3.61" height="5.16"/><path class="cls-26" d="M8.969,82.549v-.19H8.607v-.166h.362v-.614h.2l.723.621v.159H9.106v.19Zm.137-.356h.579l-.579-.5Z"/><path class="cls-26" d="M9.7,83.645l-1.092-.58V82.88L9.74,83.5v-.731h.15v.878Z"/><path class="cls-26" d="M9.249,84.762a.932.932,0,0,1-.507-.108.429.429,0,0,1,0-.673.939.939,0,0,1,.5-.106.934.934,0,0,1,.506.107.427.427,0,0,1,0,.674A.939.939,0,0,1,9.249,84.762Zm-.391-.226a.579.579,0,0,0,.164.041,2.087,2.087,0,0,0,.227.011,2.134,2.134,0,0,0,.228-.011.538.538,0,0,0,.163-.042.221.221,0,0,0,.1-.083.243.243,0,0,0,.033-.133.252.252,0,0,0-.033-.135.239.239,0,0,0-.1-.084.584.584,0,0,0-.167-.04,2.217,2.217,0,0,0-.225-.01c-.089,0-.164,0-.224.009a.52.52,0,0,0-.162.041.22.22,0,0,0-.1.08.249.249,0,0,0-.035.139.254.254,0,0,0,.033.134A.224.224,0,0,0,8.858,84.536Z"/><path class="cls-26" d="M9.249,85.885a.931.931,0,0,1-.507-.109.429.429,0,0,1,0-.673.939.939,0,0,1,.5-.106.934.934,0,0,1,.506.107.376.376,0,0,1,.163.337.371.371,0,0,1-.166.337A.938.938,0,0,1,9.249,85.885Zm-.391-.227a.579.579,0,0,0,.164.041,2.087,2.087,0,0,0,.227.011,2.134,2.134,0,0,0,.228-.011.538.538,0,0,0,.163-.042.221.221,0,0,0,.1-.083.243.243,0,0,0,.033-.133.252.252,0,0,0-.033-.135.239.239,0,0,0-.1-.084.584.584,0,0,0-.167-.04,2.217,2.217,0,0,0-.225-.01c-.089,0-.164,0-.224.009a.52.52,0,0,0-.162.041.22.22,0,0,0-.1.08.249.249,0,0,0-.035.139.254.254,0,0,0,.033.134A.224.224,0,0,0,8.858,85.658Z"/></g><g id="R-0805-stroke-2" data-name="R-0805-stroke"><rect class="cls-24" x="23.121" y="85.518" width="4.26" height="3.44"/><rect class="cls-24" x="23.081" y="78.388" width="4.26" height="3.44"/><rect class="cls-25" x="23.431" y="81.068" width="3.61" height="5.16"/><path class="cls-26" d="M24.741,82.339v-.695h.131v.267h.86v-.267h.117a.807.807,0,0,0,.009.116.3.3,0,0,0,.027.094.168.168,0,0,0,.054.063.178.178,0,0,0,.09.026v.134H24.872v.262Z"/><path class="cls-26" d="M25.383,83.532a.932.932,0,0,1-.507-.108.429.429,0,0,1,0-.673,1.248,1.248,0,0,1,1.009,0,.427.427,0,0,1,0,.674A.939.939,0,0,1,25.383,83.532Zm-.391-.226a.57.57,0,0,0,.164.041,2.087,2.087,0,0,0,.227.011,2.148,2.148,0,0,0,.228-.011.538.538,0,0,0,.163-.042.213.213,0,0,0,.1-.083.235.235,0,0,0,.034-.133.244.244,0,0,0-.034-.135.23.23,0,0,0-.1-.084.584.584,0,0,0-.167-.04,2.217,2.217,0,0,0-.225-.01c-.089,0-.164,0-.224.009a.534.534,0,0,0-.163.041.213.213,0,0,0-.1.08.241.241,0,0,0-.035.139.245.245,0,0,0,.033.134A.219.219,0,0,0,24.992,83.306Z"/><path class="cls-26" d="M25.383,84.655a.931.931,0,0,1-.507-.109.429.429,0,0,1,0-.673,1.248,1.248,0,0,1,1.009,0,.376.376,0,0,1,.163.337.37.37,0,0,1-.166.337A.938.938,0,0,1,25.383,84.655Zm-.391-.227a.57.57,0,0,0,.164.041,2.087,2.087,0,0,0,.227.011,2.148,2.148,0,0,0,.228-.011.51.51,0,0,0,.163-.042.213.213,0,0,0,.1-.083.235.235,0,0,0,.034-.133.244.244,0,0,0-.034-.135.23.23,0,0,0-.1-.084.584.584,0,0,0-.167-.04,2.217,2.217,0,0,0-.225-.01c-.089,0-.164,0-.224.009a.534.534,0,0,0-.163.041.209.209,0,0,0-.1.081.235.235,0,0,0-.035.138.245.245,0,0,0,.033.134A.219.219,0,0,0,24.992,84.428Z"/><path class="cls-26" d="M24.741,85.778v-.869h.18l.155.182c.052.061.1.117.155.169a1.6,1.6,0,0,0,.254.227.366.366,0,0,0,.2.061.193.193,0,0,0,.156-.066A.272.272,0,0,0,25.9,85.3a.563.563,0,0,0-.028-.169.676.676,0,0,0-.084-.179v-.009h.181a.8.8,0,0,1,.055.164.812.812,0,0,1,.025.2.467.467,0,0,1-.095.31.321.321,0,0,1-.258.112.475.475,0,0,1-.257-.073.848.848,0,0,1-.105-.079c-.035-.03-.073-.067-.115-.11-.06-.061-.119-.125-.175-.19l-.158-.184v.69Z"/></g><path class="cls-5" d="M15.946,115.118a2.241,2.241,0,1,1-2.239-2.222A2.231,2.231,0,0,1,15.946,115.118Z"/><ellipse class="cls-6" cx="13.706" cy="115.118" rx="1.532" ry="1.519"/><path class="cls-5" d="M23.146,115.118a2.241,2.241,0,1,1-2.239-2.222A2.231,2.231,0,0,1,23.146,115.118Z"/><ellipse class="cls-6" cx="20.906" cy="115.118" rx="1.532" ry="1.519"/><path class="cls-5" d="M15.946,101.117A2.241,2.241,0,1,1,13.707,98.9,2.231,2.231,0,0,1,15.946,101.117Z"/><ellipse class="cls-6" cx="13.706" cy="101.117" rx="1.532" ry="1.519"/><path class="cls-5" d="M23.146,101.117A2.241,2.241,0,1,1,20.907,98.9,2.231,2.231,0,0,1,23.146,101.117Z"/><ellipse class="cls-6" cx="20.906" cy="101.117" rx="1.532" ry="1.519"/></g></svg>