<?xml version="1.0" encoding="utf-8"?>
<!-- Generator: Adobe Illustrator 25.2.1, SVG Export Plug-In . SVG Version: 6.00 Build 0)  -->
<svg version="1.1" id="Микросхемы" xmlns="http://www.w3.org/2000/svg" xmlns:xlink="http://www.w3.org/1999/xlink"
	 x="0px" y="0px" viewBox="0 0 85.01 50.8" style="enable-background:new 0 0 85.01 50.8;" xml:space="preserve">
<style type="text/css">
	.st0{fill:#010203;}
	.st1{fill:#FFFFFF;}
	.st2{fill:#D0C9BD;}
	.st3{display:none;fill:#D0DA3E;stroke:#F1EA35;stroke-width:0.2125;stroke-miterlimit:10;}
	.st4{fill:#FFAF47;}
	.st5{fill:#00B15D;}
	.st6{opacity:0.37;fill:none;stroke:#FFFFFF;stroke-width:0.425;stroke-miterlimit:10;}
	.st7{fill:#F24943;}
	.st8{fill:#B6B6B5;}
	.st9{fill:#36322F;}
	.st10{fill:#987743;}
	.st11{fill:#D1C9BE;}
	.st12{fill:#958E85;}
	.st13{fill:#A19D9E;}
	.st14{fill:#818181;}
	.st15{fill:#FEAA4E;}
	.st16{fill:#2F2F30;}
	.st17{fill:#49453F;}
</style>
<rect x="6.04" y="-3.69" transform="matrix(-1.836970e-16 1 -1 -1.836970e-16 56.7762 -6.0361)" class="st0" width="50.74" height="58.11"/>
<g id="Светодиод_5_">
	
		<rect x="35.87" y="8.09" transform="matrix(-1.836970e-16 1 -1 -1.836970e-16 45.4285 -26.6055)" class="st1" width="0.29" height="2.64"/>
	<g>
		<g id="XMLID_62_">
			<g>
				<rect x="34.23" y="6.06" class="st2" width="3.62" height="2.92"/>
			</g>
			<g>
			</g>
		</g>
		<g id="XMLID_61_">
			<g>
				<rect x="34.19" y="2" class="st2" width="3.62" height="2.92"/>
			</g>
			<g>
			</g>
		</g>
		<circle class="st3" cx="35.93" cy="5.44" r="0.47"/>
	</g>
	<path class="st4" d="M36.02,3.22c-0.25,0-0.51-0.12-0.59-0.37C35.41,2.8,34.21,2.8,34.21,2.8s0,0.63,0,1.26h3.62
		c0-0.63,0-1.26,0-1.26s-1.2,0-1.22,0.05C36.53,3.1,36.27,3.22,36.02,3.22"/>
	<path class="st4" d="M36.02,2.98c-0.25,0-0.51-0.12-0.59-0.37c-0.02-0.05-1.22-0.05-1.22-0.05s0,0.63,0,1.26h3.62
		c0-0.63,0-1.26,0-1.26s-1.2,0-1.22,0.05C36.53,2.86,36.27,2.98,36.02,2.98"/>
	<path class="st4" d="M36.02,7.71c-0.25,0-0.51,0.12-0.59,0.37c-0.02,0.05-1.22,0.05-1.22,0.05s0-0.63,0-1.26h3.62
		c0,0.63,0,1.26,0,1.26s-1.2,0-1.22-0.05C36.53,7.83,36.27,7.71,36.02,7.71"/>
	
		<rect x="34.61" y="3.66" transform="matrix(-1.836970e-16 1 -1 -1.836970e-16 41.4811 -30.553)" class="st5" width="2.82" height="3.62"/>
	
		<rect x="34.61" y="3.66" transform="matrix(-1.836970e-16 1 -1 -1.836970e-16 41.4811 -30.553)" class="st6" width="2.82" height="3.62"/>
</g>
<g id="Светодиод_4_">
	
		<rect x="8.21" y="40.01" transform="matrix(6.123234e-17 -1 1 6.123234e-17 -32.9762 49.6811)" class="st1" width="0.29" height="2.64"/>
	<g>
		<g id="XMLID_60_">
			<g>
				<rect x="6.53" y="41.76" class="st2" width="3.62" height="2.92"/>
			</g>
			<g>
			</g>
		</g>
		<g id="XMLID_59_">
			<g>
				<rect x="6.56" y="45.82" class="st2" width="3.62" height="2.92"/>
			</g>
			<g>
			</g>
		</g>
		<circle class="st3" cx="8.44" cy="45.3" r="0.47"/>
	</g>
	<path class="st4" d="M8.35,47.52c0.25,0,0.51,0.12,0.59,0.37c0.02,0.05,1.22,0.05,1.22,0.05s0-0.63,0-1.26H6.54
		c0,0.63,0,1.26,0,1.26s1.2,0,1.22-0.05C7.84,47.64,8.1,47.52,8.35,47.52"/>
	<path class="st4" d="M8.35,47.76c0.25,0,0.51,0.12,0.59,0.37c0.02,0.05,1.22,0.05,1.22,0.05s0-0.63,0-1.26H6.54
		c0,0.63,0,1.26,0,1.26s1.2,0,1.22-0.05C7.84,47.88,8.1,47.76,8.35,47.76"/>
	<path class="st4" d="M8.35,43.03c0.25,0,0.51-0.12,0.59-0.37c0.02-0.05,1.22-0.05,1.22-0.05s0,0.63,0,1.26H6.54
		c0-0.63,0-1.26,0-1.26s1.2,0,1.22,0.05C7.84,42.91,8.1,43.03,8.35,43.03"/>
	
		<rect x="6.94" y="43.47" transform="matrix(6.123234e-17 -1 1 6.123234e-17 -36.9236 53.6286)" class="st7" width="2.82" height="3.62"/>
	
		<rect x="6.94" y="43.47" transform="matrix(6.123234e-17 -1 1 6.123234e-17 -36.9236 53.6286)" class="st6" width="2.82" height="3.62"/>
</g>
<g id="_x31_002">
	<g id="XMLID_69_">
		<g>
			<rect x="15.39" y="45.85" class="st2" width="3.62" height="2.92"/>
		</g>
		<g>
		</g>
	</g>
	<g id="XMLID_68_">
		<g>
			<rect x="15.36" y="41.79" class="st2" width="3.62" height="2.92"/>
		</g>
		<g>
		</g>
	</g>
	<g>
		<path class="st8" d="M17.65,46.05v0.59h-0.11v-0.23h-0.73v0.23h-0.1c0-0.03,0-0.06-0.01-0.1c0-0.04-0.01-0.06-0.02-0.08
			c-0.01-0.02-0.03-0.04-0.05-0.05c-0.02-0.01-0.04-0.02-0.08-0.02v-0.11h0.99v-0.22H17.65z"/>
		<path class="st8" d="M17.11,45.18c0.2,0,0.34,0.03,0.43,0.09c0.09,0.06,0.14,0.16,0.14,0.29c0,0.13-0.05,0.23-0.14,0.29
			c-0.09,0.06-0.24,0.09-0.43,0.09c-0.19,0-0.34-0.03-0.43-0.09c-0.09-0.06-0.14-0.16-0.14-0.29c0-0.13,0.05-0.23,0.14-0.29
			S16.92,45.18,17.11,45.18z M17.44,45.38c-0.04-0.02-0.09-0.03-0.14-0.04c-0.05-0.01-0.12-0.01-0.19-0.01c-0.07,0-0.14,0-0.19,0.01
			c-0.06,0.01-0.1,0.02-0.14,0.04c-0.04,0.02-0.07,0.04-0.09,0.07c-0.02,0.03-0.03,0.07-0.03,0.11c0,0.05,0.01,0.08,0.03,0.11
			c0.02,0.03,0.05,0.05,0.09,0.07c0.04,0.02,0.08,0.03,0.14,0.03c0.06,0.01,0.12,0.01,0.19,0.01c0.08,0,0.14,0,0.19-0.01
			c0.05-0.01,0.1-0.02,0.14-0.03c0.04-0.02,0.07-0.04,0.09-0.07c0.02-0.03,0.03-0.07,0.03-0.12c0-0.05-0.01-0.08-0.03-0.11
			S17.48,45.39,17.44,45.38z"/>
		<path class="st8" d="M17.11,44.38c0.2,0,0.34,0.03,0.43,0.09c0.09,0.06,0.14,0.16,0.14,0.29c0,0.13-0.05,0.23-0.14,0.29
			c-0.09,0.06-0.24,0.09-0.43,0.09c-0.19,0-0.34-0.03-0.43-0.09c-0.09-0.06-0.14-0.16-0.14-0.29c0-0.13,0.05-0.23,0.14-0.29
			S16.92,44.38,17.11,44.38z M17.44,44.57c-0.04-0.02-0.09-0.03-0.14-0.04c-0.05-0.01-0.12-0.01-0.19-0.01c-0.07,0-0.14,0-0.19,0.01
			c-0.06,0.01-0.1,0.02-0.14,0.04c-0.04,0.02-0.07,0.04-0.09,0.07c-0.02,0.03-0.03,0.07-0.03,0.11c0,0.05,0.01,0.08,0.03,0.11
			c0.02,0.03,0.05,0.05,0.09,0.07c0.04,0.02,0.08,0.03,0.14,0.03c0.06,0.01,0.12,0.01,0.19,0.01c0.08,0,0.14,0,0.19-0.01
			c0.05-0.01,0.1-0.02,0.14-0.03c0.04-0.02,0.07-0.04,0.09-0.07c0.02-0.03,0.03-0.07,0.03-0.12c0-0.05-0.01-0.08-0.03-0.11
			S17.48,44.59,17.44,44.57z"/>
		<path class="st8" d="M17.65,43.63v0.59h-0.11V44h-0.73v0.23h-0.1c0-0.03,0-0.06-0.01-0.1c0-0.04-0.01-0.06-0.02-0.08
			c-0.01-0.02-0.03-0.04-0.05-0.05c-0.02-0.01-0.04-0.02-0.08-0.02v-0.11h0.99v-0.22H17.65z"/>
	</g>
	<g id="XMLID_67_">
		<g>
			<rect x="15.66" y="43.05" class="st9" width="3.07" height="4.39"/>
		</g>
		<g>
		</g>
	</g>
</g>
<g id="_x31_002_1_">
	<g id="XMLID_58_">
		<g>
			<rect x="15.38" y="6.06" class="st2" width="3.62" height="2.92"/>
		</g>
		<g>
		</g>
	</g>
	<g id="XMLID_57_">
		<g>
			<rect x="15.34" y="2" class="st2" width="3.62" height="2.92"/>
		</g>
		<g>
		</g>
	</g>
	<g>
		<path class="st8" d="M17.63,6.26v0.59h-0.11V6.63h-0.73v0.23h-0.1c0-0.03,0-0.06-0.01-0.1c0-0.04-0.01-0.06-0.02-0.08
			c-0.01-0.02-0.03-0.04-0.05-0.05c-0.02-0.01-0.04-0.02-0.08-0.02V6.49h0.99V6.26H17.63z"/>
		<path class="st8" d="M17.09,5.4c0.2,0,0.34,0.03,0.43,0.09c0.09,0.06,0.14,0.16,0.14,0.29c0,0.13-0.05,0.23-0.14,0.29
			c-0.09,0.06-0.24,0.09-0.43,0.09c-0.19,0-0.34-0.03-0.43-0.09C16.57,6,16.52,5.91,16.52,5.78c0-0.13,0.05-0.23,0.14-0.29
			S16.9,5.4,17.09,5.4z M17.42,5.59c-0.04-0.02-0.09-0.03-0.14-0.04c-0.05-0.01-0.12-0.01-0.19-0.01c-0.07,0-0.14,0-0.19,0.01
			c-0.06,0.01-0.1,0.02-0.14,0.04c-0.04,0.02-0.07,0.04-0.09,0.07c-0.02,0.03-0.03,0.07-0.03,0.11c0,0.05,0.01,0.08,0.03,0.11
			c0.02,0.03,0.05,0.05,0.09,0.07C16.79,5.98,16.84,5.99,16.9,6C16.96,6,17.02,6,17.09,6c0.08,0,0.14,0,0.19-0.01
			c0.05-0.01,0.1-0.02,0.14-0.03c0.04-0.02,0.07-0.04,0.09-0.07c0.02-0.03,0.03-0.07,0.03-0.12c0-0.05-0.01-0.08-0.03-0.11
			S17.46,5.61,17.42,5.59z"/>
		<path class="st8" d="M17.09,4.59c0.2,0,0.34,0.03,0.43,0.09c0.09,0.06,0.14,0.16,0.14,0.29c0,0.13-0.05,0.23-0.14,0.29
			c-0.09,0.06-0.24,0.09-0.43,0.09c-0.19,0-0.34-0.03-0.43-0.09c-0.09-0.06-0.14-0.16-0.14-0.29c0-0.13,0.05-0.23,0.14-0.29
			S16.9,4.59,17.09,4.59z M17.42,4.78c-0.04-0.02-0.09-0.03-0.14-0.04c-0.05-0.01-0.12-0.01-0.19-0.01c-0.07,0-0.14,0-0.19,0.01
			c-0.06,0.01-0.1,0.02-0.14,0.04c-0.04,0.02-0.07,0.04-0.09,0.07c-0.02,0.03-0.03,0.07-0.03,0.11c0,0.05,0.01,0.08,0.03,0.11
			c0.02,0.03,0.05,0.05,0.09,0.07c0.04,0.02,0.08,0.03,0.14,0.03c0.06,0.01,0.12,0.01,0.19,0.01c0.08,0,0.14,0,0.19-0.01
			c0.05-0.01,0.1-0.02,0.14-0.03c0.04-0.02,0.07-0.04,0.09-0.07c0.02-0.03,0.03-0.07,0.03-0.12c0-0.05-0.01-0.08-0.03-0.11
			S17.46,4.8,17.42,4.78z"/>
		<path class="st8" d="M17.63,3.85v0.59h-0.11V4.21h-0.73v0.23h-0.1c0-0.03,0-0.06-0.01-0.1c0-0.04-0.01-0.06-0.02-0.08
			c-0.01-0.02-0.03-0.04-0.05-0.05c-0.02-0.01-0.04-0.02-0.08-0.02V4.07h0.99V3.85H17.63z"/>
	</g>
	<g id="XMLID_56_">
		<g>
			<rect x="15.64" y="3.27" class="st9" width="3.07" height="4.39"/>
		</g>
		<g>
		</g>
	</g>
</g>
<g id="_x31_002_5_">
	<g id="XMLID_111_">
		<g>
			<rect x="25.48" y="6.06" class="st2" width="3.62" height="2.92"/>
		</g>
		<g>
		</g>
	</g>
	<g id="XMLID_110_">
		<g>
			<rect x="25.44" y="2" class="st2" width="3.62" height="2.92"/>
		</g>
		<g>
		</g>
	</g>
	<g>
		<path class="st8" d="M27.73,6.26v0.59h-0.11V6.63h-0.73v0.23h-0.1c0-0.03,0-0.06-0.01-0.1c0-0.04-0.01-0.06-0.02-0.08
			c-0.01-0.02-0.03-0.04-0.05-0.05c-0.02-0.01-0.04-0.02-0.08-0.02V6.49h0.99V6.26H27.73z"/>
		<path class="st8" d="M27.19,5.4c0.2,0,0.34,0.03,0.43,0.09c0.09,0.06,0.14,0.16,0.14,0.29c0,0.13-0.05,0.23-0.14,0.29
			c-0.09,0.06-0.24,0.09-0.43,0.09c-0.19,0-0.34-0.03-0.43-0.09C26.66,6,26.62,5.91,26.62,5.78c0-0.13,0.05-0.23,0.14-0.29
			S27,5.4,27.19,5.4z M27.52,5.59c-0.04-0.02-0.09-0.03-0.14-0.04c-0.05-0.01-0.12-0.01-0.19-0.01c-0.07,0-0.14,0-0.19,0.01
			c-0.06,0.01-0.1,0.02-0.14,0.04c-0.04,0.02-0.07,0.04-0.09,0.07c-0.02,0.03-0.03,0.07-0.03,0.11c0,0.05,0.01,0.08,0.03,0.11
			c0.02,0.03,0.05,0.05,0.09,0.07C26.89,5.98,26.94,5.99,27,6C27.05,6,27.12,6,27.19,6c0.08,0,0.14,0,0.19-0.01
			c0.05-0.01,0.1-0.02,0.14-0.03c0.04-0.02,0.07-0.04,0.09-0.07c0.02-0.03,0.03-0.07,0.03-0.12c0-0.05-0.01-0.08-0.03-0.11
			S27.56,5.61,27.52,5.59z"/>
		<path class="st8" d="M27.19,4.59c0.2,0,0.34,0.03,0.43,0.09c0.09,0.06,0.14,0.16,0.14,0.29c0,0.13-0.05,0.23-0.14,0.29
			c-0.09,0.06-0.24,0.09-0.43,0.09c-0.19,0-0.34-0.03-0.43-0.09c-0.09-0.06-0.14-0.16-0.14-0.29c0-0.13,0.05-0.23,0.14-0.29
			S27,4.59,27.19,4.59z M27.52,4.78c-0.04-0.02-0.09-0.03-0.14-0.04c-0.05-0.01-0.12-0.01-0.19-0.01c-0.07,0-0.14,0-0.19,0.01
			c-0.06,0.01-0.1,0.02-0.14,0.04c-0.04,0.02-0.07,0.04-0.09,0.07c-0.02,0.03-0.03,0.07-0.03,0.11c0,0.05,0.01,0.08,0.03,0.11
			c0.02,0.03,0.05,0.05,0.09,0.07c0.04,0.02,0.08,0.03,0.14,0.03c0.06,0.01,0.12,0.01,0.19,0.01c0.08,0,0.14,0,0.19-0.01
			c0.05-0.01,0.1-0.02,0.14-0.03c0.04-0.02,0.07-0.04,0.09-0.07c0.02-0.03,0.03-0.07,0.03-0.12c0-0.05-0.01-0.08-0.03-0.11
			S27.56,4.8,27.52,4.78z"/>
		<path class="st8" d="M27.73,3.85v0.59h-0.11V4.21h-0.73v0.23h-0.1c0-0.03,0-0.06-0.01-0.1c0-0.04-0.01-0.06-0.02-0.08
			c-0.01-0.02-0.03-0.04-0.05-0.05c-0.02-0.01-0.04-0.02-0.08-0.02V4.07h0.99V3.85H27.73z"/>
	</g>
	<g id="XMLID_109_">
		<g>
			<rect x="25.74" y="3.27" class="st9" width="3.07" height="4.39"/>
		</g>
		<g>
		</g>
	</g>
</g>
<g id="_x31_002_3_">
	<g id="XMLID_52_">
		<g>
			<rect x="44.98" y="15.5" class="st2" width="3.62" height="2.92"/>
		</g>
		<g>
		</g>
	</g>
	<g id="XMLID_51_">
		<g>
			<rect x="44.94" y="11.44" class="st2" width="3.62" height="2.92"/>
		</g>
		<g>
		</g>
	</g>
	<g>
		<path class="st8" d="M46.93,15.24v0.16h0.31v0.14h-0.31v0.52h-0.17l-0.62-0.53v-0.14h0.67v-0.16H46.93z M46.81,15.55h-0.49
			l0.49,0.42V15.55z"/>
		<path class="st8" d="M46.31,14.46l0.93,0.5v0.16l-0.97-0.53v0.62h-0.13v-0.75H46.31z"/>
		<path class="st8" d="M47.24,13.72v0.59h-0.11v-0.23h-0.73v0.23h-0.1c0-0.03,0-0.06-0.01-0.1c0-0.04-0.01-0.06-0.02-0.08
			c-0.01-0.02-0.03-0.04-0.05-0.05c-0.02-0.01-0.04-0.02-0.08-0.02v-0.11h0.99v-0.22H47.24z"/>
	</g>
	<g id="XMLID_50_">
		<g>
			<rect x="45.24" y="12.71" class="st9" width="3.07" height="4.39"/>
		</g>
		<g>
		</g>
	</g>
</g>
<g id="_x31_002_4_">
	<g id="XMLID_49_">
		<g>
			<rect x="44.99" y="36.73" class="st2" width="3.62" height="2.92"/>
		</g>
		<g>
		</g>
	</g>
	<g id="XMLID_48_">
		<g>
			<rect x="44.96" y="32.67" class="st2" width="3.62" height="2.92"/>
		</g>
		<g>
		</g>
	</g>
	<g>
		<path class="st8" d="M46.95,36.55v0.16h0.31v0.14h-0.31v0.52h-0.17l-0.62-0.53v-0.14h0.67v-0.16H46.95z M46.83,36.85h-0.49
			l0.49,0.42V36.85z"/>
		<path class="st8" d="M46.32,35.76l0.93,0.5v0.16l-0.97-0.53v0.62h-0.13v-0.75H46.32z"/>
		<path class="st8" d="M47.25,35.02v0.59h-0.11v-0.23h-0.73v0.23h-0.1c0-0.03,0-0.06-0.01-0.1c0-0.04-0.01-0.06-0.02-0.08
			c-0.01-0.02-0.03-0.04-0.05-0.05c-0.02-0.01-0.04-0.02-0.08-0.02v-0.11h0.99v-0.22H47.25z"/>
	</g>
	<g id="XMLID_47_">
		<g>
			<rect x="45.26" y="33.94" class="st9" width="3.07" height="4.39"/>
		</g>
		<g>
		</g>
	</g>
</g>
<g id="конденсатор_3_">
	<g id="XMLID_46_">
		<g>
			<rect x="34.21" y="45.82" class="st2" width="3.62" height="2.92"/>
		</g>
		<g>
		</g>
	</g>
	<g id="XMLID_45_">
		<g>
			<rect x="34.17" y="41.76" class="st2" width="3.62" height="2.92"/>
		</g>
		<g>
		</g>
	</g>
	<g id="XMLID_44_">
		<g>
			<rect x="34.47" y="43.03" class="st10" width="3.06" height="4.39"/>
		</g>
		<g>
		</g>
	</g>
</g>
<g id="конденсатор_1_">
	<g id="XMLID_248_">
		<g>
			<rect x="25.17" y="45.82" class="st2" width="3.62" height="2.92"/>
		</g>
		<g>
		</g>
	</g>
	<g id="XMLID_247_">
		<g>
			<rect x="25.13" y="41.76" class="st2" width="3.62" height="2.92"/>
		</g>
		<g>
		</g>
	</g>
	<g id="XMLID_246_">
		<g>
			<rect x="25.43" y="43.03" class="st10" width="3.06" height="4.39"/>
		</g>
		<g>
		</g>
	</g>
</g>
<path class="st11" d="M56.28,27.61c-1.23,0-2.22-1-2.22-2.24s1-2.24,2.22-2.24c1.23,0,2.22,1,2.22,2.24S57.51,27.61,56.28,27.61z"/>
<g>
	<path class="st1" d="M52.78,13.86h-2.49v-0.7c0-0.22,0.05-0.41,0.14-0.57s0.23-0.29,0.41-0.39c0.18-0.09,0.38-0.14,0.61-0.14h0.16
		c0.23,0,0.44,0.05,0.62,0.14c0.18,0.09,0.31,0.22,0.41,0.39c0.09,0.17,0.14,0.36,0.15,0.59V13.86z M50.56,13.54h1.95v-0.34
		c0-0.25-0.08-0.45-0.24-0.59s-0.38-0.21-0.67-0.21h-0.15c-0.28,0-0.5,0.07-0.66,0.2s-0.24,0.32-0.24,0.56V13.54z"/>
	<path class="st1" d="M50.56,10.03v0.8h2.22v0.33h-2.22v0.8h-0.27v-1.92H50.56z"/>
	<path class="st1" d="M51.77,8.92V9.5h1.01v0.33h-2.49V9.01c0-0.28,0.06-0.5,0.19-0.65s0.31-0.23,0.56-0.23
		c0.15,0,0.29,0.04,0.4,0.13c0.12,0.08,0.2,0.2,0.26,0.35l1.06-0.58h0.02v0.35L51.77,8.92z M51.51,9.5V9c0-0.16-0.04-0.29-0.13-0.39
		s-0.2-0.14-0.34-0.14c-0.15,0-0.27,0.05-0.35,0.14C50.6,8.7,50.56,8.83,50.56,9v0.5H51.51z"/>
</g>
<g>
	<path class="st1" d="M41.1,5.62c0.24,0,0.46,0.04,0.64,0.12s0.32,0.2,0.42,0.35s0.14,0.33,0.14,0.53c0,0.2-0.05,0.37-0.14,0.52
		s-0.23,0.27-0.41,0.35c-0.18,0.08-0.38,0.13-0.62,0.13h-0.18c-0.24,0-0.45-0.04-0.63-0.12c-0.18-0.08-0.32-0.2-0.42-0.35
		c-0.1-0.15-0.15-0.33-0.15-0.52c0-0.2,0.05-0.38,0.14-0.53c0.1-0.15,0.24-0.27,0.42-0.35c0.18-0.08,0.4-0.12,0.64-0.12H41.1z
		 M40.94,5.95c-0.3,0-0.52,0.06-0.68,0.18s-0.24,0.28-0.24,0.5c0,0.21,0.08,0.37,0.24,0.49s0.38,0.18,0.66,0.18h0.18
		c0.29,0,0.51-0.06,0.67-0.18s0.25-0.29,0.25-0.5c0-0.21-0.08-0.38-0.23-0.49s-0.38-0.18-0.66-0.18H40.94z"/>
	<path class="st1" d="M42.26,3.4v0.33l-1.92,1.25h1.92v0.33h-2.49V4.98l1.93-1.26h-1.93V3.4H42.26z"/>
</g>
<g>
	<path class="st1" d="M51.77,19.11v0.58h1.01v0.33h-2.49V19.2c0-0.28,0.06-0.5,0.19-0.65s0.31-0.23,0.56-0.23
		c0.15,0,0.29,0.04,0.4,0.13c0.12,0.08,0.2,0.2,0.26,0.35l1.06-0.58h0.02v0.35L51.77,19.11z M51.51,19.69v-0.5
		c0-0.16-0.04-0.29-0.13-0.39s-0.2-0.14-0.34-0.14c-0.15,0-0.27,0.05-0.35,0.14c-0.08,0.09-0.12,0.22-0.12,0.4v0.5H51.51z"/>
	<path class="st1" d="M51.25,17.23l-0.95-0.6v-0.39l1.23,0.79l1.25-0.81v0.39l-0.97,0.61l0.97,0.62v0.39l-1.25-0.81l-1.23,0.79
		v-0.38L51.25,17.23z"/>
</g>
<g>
	<path class="st1" d="M50.56,25.46v0.8h2.22v0.33h-2.22v0.8h-0.27v-1.92H50.56z"/>
	<path class="st1" d="M51.25,24.45l-0.95-0.6v-0.39l1.23,0.79l1.25-0.81v0.39l-0.97,0.61l0.97,0.62v0.39l-1.25-0.81l-1.23,0.79
		v-0.38L51.25,24.45z"/>
</g>
<g>
	<path class="st1" d="M52.34,34.67l-2.05-0.71V33.6l2.49,0.92v0.29l-2.49,0.92v-0.36L52.34,34.67z"/>
	<path class="st1" d="M51.99,31.61c0.26,0.03,0.47,0.13,0.61,0.29c0.14,0.16,0.21,0.38,0.21,0.65c0,0.29-0.11,0.53-0.32,0.71
		c-0.21,0.18-0.49,0.27-0.85,0.27h-0.24c-0.23,0-0.43-0.04-0.61-0.12c-0.18-0.08-0.31-0.2-0.4-0.35c-0.09-0.15-0.14-0.33-0.14-0.53
		c0-0.26,0.07-0.48,0.22-0.64c0.15-0.16,0.35-0.25,0.61-0.28v0.33c-0.2,0.03-0.34,0.09-0.43,0.19c-0.09,0.1-0.13,0.23-0.13,0.4
		c0,0.21,0.08,0.37,0.23,0.49s0.38,0.18,0.66,0.18h0.24c0.27,0,0.49-0.06,0.65-0.17c0.16-0.11,0.24-0.27,0.24-0.47
		c0-0.18-0.04-0.32-0.12-0.42c-0.08-0.1-0.23-0.16-0.43-0.19V31.61z"/>
	<path class="st1" d="M51.99,29.51c0.26,0.03,0.47,0.13,0.61,0.29s0.21,0.38,0.21,0.65c0,0.29-0.11,0.53-0.32,0.71
		c-0.21,0.18-0.49,0.27-0.85,0.27h-0.24c-0.23,0-0.43-0.04-0.61-0.12c-0.18-0.08-0.31-0.2-0.4-0.35c-0.09-0.15-0.14-0.33-0.14-0.53
		c0-0.26,0.07-0.48,0.22-0.64c0.15-0.16,0.35-0.25,0.61-0.28v0.33c-0.2,0.03-0.34,0.09-0.43,0.19c-0.09,0.1-0.13,0.23-0.13,0.4
		c0,0.21,0.08,0.37,0.23,0.49s0.38,0.18,0.66,0.18h0.24c0.27,0,0.49-0.06,0.65-0.17c0.16-0.11,0.24-0.27,0.24-0.47
		c0-0.18-0.04-0.32-0.12-0.42c-0.08-0.1-0.23-0.16-0.43-0.19V29.51z"/>
</g>
<g>
	<path class="st1" d="M52.45,41.07c0.12,0.08,0.21,0.2,0.27,0.35c0.06,0.15,0.09,0.33,0.09,0.53c0,0.2-0.05,0.38-0.14,0.54
		s-0.23,0.28-0.41,0.37c-0.18,0.09-0.38,0.13-0.61,0.13h-0.22c-0.37,0-0.67-0.09-0.87-0.26c-0.21-0.17-0.31-0.42-0.31-0.74
		c0-0.26,0.07-0.47,0.2-0.63s0.32-0.26,0.56-0.29v0.33c-0.33,0.06-0.5,0.26-0.5,0.59c0,0.22,0.08,0.39,0.23,0.5
		c0.15,0.11,0.38,0.17,0.67,0.17h0.2c0.28,0,0.5-0.06,0.67-0.19c0.17-0.13,0.25-0.3,0.25-0.52c0-0.12-0.01-0.23-0.04-0.32
		c-0.03-0.09-0.07-0.17-0.14-0.23h-0.56v0.58h-0.27v-0.9H52.45z"/>
	<path class="st1" d="M52.78,38.79v0.33l-1.92,1.25h1.92v0.33h-2.49v-0.33l1.93-1.26h-1.93v-0.33H52.78z"/>
	<path class="st1" d="M52.78,38.38h-2.49v-0.7c0-0.22,0.05-0.41,0.14-0.57s0.23-0.29,0.41-0.39c0.18-0.09,0.38-0.14,0.61-0.14h0.16
		c0.23,0,0.44,0.05,0.62,0.14c0.18,0.09,0.31,0.22,0.41,0.39c0.09,0.17,0.14,0.36,0.15,0.59V38.38z M50.56,38.05h1.95V37.7
		c0-0.25-0.08-0.45-0.24-0.59s-0.38-0.21-0.67-0.21h-0.15c-0.28,0-0.5,0.07-0.66,0.2s-0.24,0.32-0.24,0.56V38.05z"/>
</g>
<ellipse class="st12" cx="56.28" cy="25.37" rx="1.52" ry="1.53"/>
<g id="USB_2_">
	
		<rect x="15.59" y="19.24" transform="matrix(-1.836970e-16 1 -1 -1.836970e-16 37.9525 5.3369)" class="st13" width="1.44" height="4.81"/>
	
		<rect x="15.59" y="21.1" transform="matrix(-1.836970e-16 1 -1 -1.836970e-16 39.8152 7.1996)" class="st13" width="1.44" height="4.81"/>
	
		<rect x="15.59" y="22.96" transform="matrix(-1.836970e-16 1 -1 -1.836970e-16 41.6779 9.0623)" class="st13" width="1.44" height="4.81"/>
	
		<rect x="15.59" y="24.83" transform="matrix(-1.836970e-16 1 -1 -1.836970e-16 43.5406 10.925)" class="st13" width="1.44" height="4.81"/>
	
		<rect x="15.59" y="26.69" transform="matrix(-1.836970e-16 1 -1 -1.836970e-16 45.4033 12.7877)" class="st13" width="1.44" height="4.81"/>
	<path class="st13" d="M12.53,11.7h-6v7.56h6V11.7z M7.12,12.66c0-0.39,0.31-0.7,0.7-0.7c0.39,0,0.7,0.31,0.7,0.7s-0.31,0.7-0.7,0.7
		C7.43,13.36,7.12,13.05,7.12,12.66z M10.7,12.66c0-0.39,0.31-0.7,0.7-0.7s0.7,0.31,0.7,0.7s-0.31,0.7-0.7,0.7
		S10.7,13.05,10.7,12.66z"/>
	<path class="st13" d="M6.53,39.04h6v-7.56h-6V39.04z M11.93,38.08c0,0.39-0.31,0.7-0.7,0.7s-0.7-0.31-0.7-0.7s0.31-0.7,0.7-0.7
		S11.93,37.69,11.93,38.08z M8.35,38.08c0,0.39-0.31,0.7-0.7,0.7s-0.7-0.31-0.7-0.7s0.31-0.7,0.7-0.7S8.35,37.69,8.35,38.08z"/>
	
		<rect x="-0.04" y="18.81" transform="matrix(-1.836970e-16 1 -1 -1.836970e-16 35.2478 15.4923)" class="st0" width="19.84" height="13.13"/>
	<path class="st14" d="M1.65,36.03C1.68,36.01,1.72,36,1.76,36h14.49c0.11,0,0.2-0.09,0.2-0.2v-1.06c0-0.11-0.09-0.2-0.2-0.2h-1.02
		c-0.11,0-0.2-0.09-0.2-0.2v-1.02c0-0.11,0.09-0.2,0.2-0.2h1.02c0.11,0,0.2-0.09,0.2-0.2V17.75c0-0.11-0.09-0.2-0.2-0.2h-1.02
		c-0.11,0-0.2-0.09-0.2-0.2v-1.02c0-0.11,0.09-0.2,0.2-0.2h1.02c0.11,0,0.19-0.09,0.2-0.2v-1c0-0.11-0.09-0.19-0.19-0.19H1.76
		c-0.04,0-0.07-0.01-0.1-0.03l-1.65-1v0.55l1.49,0.9c0.31,0.19,0.31,0.64,0,0.83L0.1,16.84C0.04,16.87,0,16.94,0,17.01v16.72
		c0,0.07,0.04,0.13,0.1,0.17l1.39,0.84c0.31,0.19,0.31,0.64,0,0.83L0,36.48v0.55L1.65,36.03z M4.02,18.92
		c-0.39,0-0.71-0.32-0.71-0.71v-0.57c0-0.39,0.32-0.71,0.71-0.71h3.4c0.39,0,0.71,0.32,0.71,0.71v0.57c0,0.39-0.32,0.71-0.71,0.71
		H4.02z M4.02,33.8c-0.39,0-0.71-0.32-0.71-0.71v-0.57c0-0.39,0.32-0.71,0.71-0.71h3.4c0.39,0,0.71,0.32,0.71,0.71v0.57
		c0,0.39-0.32,0.71-0.71,0.71H4.02z"/>
</g>
<g id="Светодиод_3_">
	
		<rect x="7.97" y="0.25" transform="matrix(6.123234e-17 -1 1 6.123234e-17 6.5409 9.6796)" class="st1" width="0.29" height="2.64"/>
	<g>
		<g id="XMLID_37_">
			<g>
				<rect x="6.28" y="2" class="st2" width="3.62" height="2.92"/>
			</g>
			<g>
			</g>
		</g>
		<g id="XMLID_36_">
			<g>
				<rect x="6.32" y="6.06" class="st2" width="3.62" height="2.92"/>
			</g>
			<g>
			</g>
		</g>
		<circle class="st3" cx="8.2" cy="5.55" r="0.47"/>
	</g>
	<path class="st4" d="M8.11,7.77c0.25,0,0.51,0.12,0.59,0.37c0.02,0.05,1.22,0.05,1.22,0.05s0-0.63,0-1.26H6.3c0,0.63,0,1.26,0,1.26
		s1.2,0,1.22-0.05C7.6,7.89,7.86,7.76,8.11,7.77"/>
	<path class="st4" d="M8.11,8C8.36,8,8.62,8.12,8.7,8.37c0.02,0.05,1.22,0.05,1.22,0.05s0-0.63,0-1.26H6.3c0,0.63,0,1.26,0,1.26
		s1.2,0,1.22-0.05C7.6,8.12,7.86,8,8.11,8"/>
	<path class="st4" d="M8.11,3.27c0.25,0,0.51-0.12,0.59-0.37c0.02-0.05,1.22-0.05,1.22-0.05s0,0.63,0,1.26H6.3c0-0.63,0-1.26,0-1.26
		s1.2,0,1.22,0.05C7.6,3.15,7.86,3.27,8.11,3.27"/>
	
		<rect x="6.7" y="3.71" transform="matrix(6.123234e-17 -1 1 6.123234e-17 2.5935 13.627)" class="st7" width="2.82" height="3.62"/>
	
		<rect x="6.7" y="3.71" transform="matrix(6.123234e-17 -1 1 6.123234e-17 2.5935 13.627)" class="st6" width="2.82" height="3.62"/>
</g>
<g>
	<path class="st15" d="M84.05,25.15v0.43c-0.28,0.28-0.43,0.43-0.71,0.71H56.28v-1.85h27.06C83.62,24.72,83.77,24.88,84.05,25.15z"
		/>
</g>
<rect x="60.93" y="21.77" transform="matrix(-1 -1.224647e-16 1.224647e-16 -1 128.9735 50.7209)" class="st16" width="7.11" height="7.19"/>
<rect x="60.95" y="22.68" transform="matrix(-1 -1.224647e-16 1.224647e-16 -1 128.9872 50.7091)" class="st17" width="7.1" height="5.35"/>
<path class="st11" d="M56.28,42.02c-1.23,0-2.22-1-2.22-2.24s1-2.24,2.22-2.24c1.23,0,2.22,1,2.22,2.24S57.51,42.02,56.28,42.02z"/>
<ellipse class="st12" cx="56.28" cy="39.78" rx="1.52" ry="1.53"/>
<g>
	<path class="st15" d="M84.05,39.56v0.43c-0.28,0.28-0.43,0.43-0.71,0.71H56.28v-1.85h27.06C83.62,39.13,83.77,39.29,84.05,39.56z"
		/>
</g>
<rect x="60.93" y="36.18" transform="matrix(-1 -1.280202e-13 1.280202e-13 -1 128.9735 79.5408)" class="st16" width="7.11" height="7.19"/>
<rect x="60.95" y="37.09" transform="matrix(-1 -1.284642e-13 1.284642e-13 -1 128.9872 79.529)" class="st17" width="7.1" height="5.35"/>
<path class="st11" d="M56.28,34.82c-1.23,0-2.22-1-2.22-2.24s1-2.24,2.22-2.24c1.23,0,2.22,1,2.22,2.24S57.51,34.82,56.28,34.82z"/>
<ellipse class="st12" cx="56.28" cy="32.58" rx="1.52" ry="1.53"/>
<g>
	<path class="st15" d="M84.05,32.36v0.43c-0.28,0.28-0.43,0.43-0.71,0.71H56.28v-1.85h27.06C83.62,31.93,83.77,32.09,84.05,32.36z"
		/>
</g>
<rect x="60.93" y="28.98" transform="matrix(-1 -1.224647e-16 1.224647e-16 -1 128.9735 65.1408)" class="st16" width="7.11" height="7.19"/>
<rect x="60.95" y="29.89" transform="matrix(-1 -1.224647e-16 1.224647e-16 -1 128.9872 65.1289)" class="st17" width="7.1" height="5.35"/>
<path class="st11" d="M56.28,20.42c-1.23,0-2.22-1-2.22-2.24s1-2.24,2.22-2.24c1.23,0,2.22,1,2.22,2.24S57.51,20.42,56.28,20.42z"/>
<ellipse class="st12" cx="56.28" cy="18.18" rx="1.52" ry="1.53"/>
<g>
	<path class="st15" d="M84.05,17.96v0.43c-0.28,0.28-0.43,0.43-0.71,0.71H56.28v-1.85h27.06C83.62,17.53,83.77,17.69,84.05,17.96z"
		/>
</g>
<rect x="60.93" y="14.58" transform="matrix(-1 -1.224647e-16 1.224647e-16 -1 128.9735 36.3407)" class="st16" width="7.11" height="7.19"/>
<rect x="60.95" y="15.49" transform="matrix(-1 -1.224647e-16 1.224647e-16 -1 128.9872 36.3289)" class="st17" width="7.1" height="5.35"/>
<path class="st11" d="M56.28,13.22c-1.23,0-2.22-1-2.22-2.24s1-2.24,2.22-2.24c1.23,0,2.22,1,2.22,2.24S57.51,13.22,56.28,13.22z"/>
<ellipse class="st12" cx="56.28" cy="10.98" rx="1.52" ry="1.53"/>
<g>
	<path class="st15" d="M84.05,10.76v0.43c-0.28,0.28-0.43,0.43-0.71,0.71H56.28v-1.85h27.06C83.62,10.33,83.77,10.49,84.05,10.76z"
		/>
</g>
<rect x="60.93" y="7.38" transform="matrix(-1 -1.224647e-16 1.224647e-16 -1 128.9735 21.9366)" class="st16" width="7.11" height="7.19"/>
<rect x="60.95" y="8.29" transform="matrix(-1 -1.224647e-16 1.224647e-16 -1 128.9872 21.9248)" class="st17" width="7.1" height="5.35"/>
<g>
	<g id="XMLID_189_">
		<g>
			<path class="st9" d="M26.86,39.4l0-28.08c0-0.08,0.07-0.15,0.15-0.15l8.81,0c0.08,0,0.15,0.07,0.15,0.15l0,28.08
				c0,0.08-0.07,0.15-0.15,0.15l-8.81,0C26.92,39.54,26.86,39.48,26.86,39.4z"/>
		</g>
		<g>
		</g>
	</g>
	<g id="XMLID_188_">
		<g>
			<rect x="35.95" y="22.75" class="st13" width="3.73" height="1.84"/>
		</g>
		<g>
		</g>
	</g>
	<g id="XMLID_187_">
		<g>
			<rect x="35.95" y="26.11" class="st13" width="3.73" height="1.84"/>
		</g>
		<g>
		</g>
	</g>
	<g id="XMLID_186_">
		<g>
			<rect x="35.95" y="29.47" class="st13" width="3.73" height="1.84"/>
		</g>
		<g>
		</g>
	</g>
	<g id="XMLID_185_">
		<g>
			<rect x="35.95" y="32.82" class="st13" width="3.73" height="1.84"/>
		</g>
		<g>
		</g>
	</g>
	<g id="XMLID_184_">
		<g>
			<rect x="35.95" y="36.18" class="st13" width="3.73" height="1.84"/>
		</g>
		<g>
		</g>
	</g>
	<g id="XMLID_183_">
		<g>
			<rect x="35.95" y="12.69" class="st13" width="3.73" height="1.84"/>
		</g>
		<g>
		</g>
	</g>
	<g id="XMLID_182_">
		<g>
			<rect x="35.95" y="16.04" class="st13" width="3.73" height="1.84"/>
		</g>
		<g>
		</g>
	</g>
	<g id="XMLID_181_">
		<g>
			<rect x="35.95" y="19.4" class="st13" width="3.73" height="1.84"/>
		</g>
		<g>
		</g>
	</g>
	<g id="XMLID_180_">
		<g>
			<rect x="23.13" y="22.75" class="st13" width="3.73" height="1.84"/>
		</g>
		<g>
		</g>
	</g>
	<g id="XMLID_179_">
		<g>
			<rect x="23.13" y="26.11" class="st13" width="3.73" height="1.84"/>
		</g>
		<g>
		</g>
	</g>
	<g id="XMLID_178_">
		<g>
			<rect x="23.13" y="29.47" class="st13" width="3.73" height="1.84"/>
		</g>
		<g>
		</g>
	</g>
	<g id="XMLID_177_">
		<g>
			<rect x="23.13" y="32.82" class="st13" width="3.73" height="1.84"/>
		</g>
		<g>
		</g>
	</g>
	<g id="XMLID_176_">
		<g>
			<rect x="23.13" y="36.18" class="st13" width="3.73" height="1.84"/>
		</g>
		<g>
		</g>
	</g>
	<g id="XMLID_175_">
		<g>
			<rect x="23.13" y="12.69" class="st13" width="3.73" height="1.84"/>
		</g>
		<g>
		</g>
	</g>
	<g>
		<path class="st8" d="M31.84,28.25c0.15,0.02,0.27,0.07,0.35,0.17c0.08,0.09,0.12,0.22,0.12,0.37c0,0.17-0.06,0.3-0.18,0.4
			s-0.28,0.15-0.48,0.15h-0.14c-0.13,0-0.25-0.02-0.35-0.07s-0.18-0.11-0.23-0.2c-0.05-0.09-0.08-0.19-0.08-0.3
			c0-0.15,0.04-0.27,0.13-0.36c0.08-0.09,0.2-0.14,0.35-0.16v0.19c-0.11,0.02-0.2,0.05-0.25,0.11S31,28.68,31,28.78
			c0,0.12,0.04,0.21,0.13,0.28s0.21,0.1,0.38,0.1h0.14c0.15,0,0.28-0.03,0.37-0.1c0.09-0.06,0.14-0.15,0.14-0.27
			c0-0.1-0.02-0.18-0.07-0.24c-0.05-0.06-0.13-0.09-0.25-0.11V28.25z"/>
		<path class="st8" d="M32.29,26.91v0.19h-0.66v0.72h0.66V28h-1.42v-0.19h0.61v-0.72h-0.61v-0.19H32.29z"/>
		<path class="st8" d="M31.49,26.36v-0.14c0-0.09-0.02-0.15-0.07-0.2s-0.1-0.07-0.18-0.07c-0.17,0-0.25,0.08-0.25,0.25
			c0,0.08,0.02,0.14,0.07,0.19c0.04,0.05,0.1,0.07,0.18,0.07v0.18c-0.11,0-0.21-0.04-0.28-0.12c-0.07-0.08-0.11-0.19-0.11-0.31
			c0-0.13,0.04-0.24,0.11-0.32s0.17-0.11,0.3-0.11c0.06,0,0.12,0.02,0.18,0.06s0.1,0.09,0.13,0.16c0.02-0.08,0.07-0.14,0.12-0.18
			s0.13-0.06,0.21-0.06c0.13,0,0.23,0.04,0.3,0.12s0.11,0.19,0.11,0.33s-0.04,0.24-0.11,0.33s-0.17,0.13-0.29,0.13v-0.18
			c0.08,0,0.13-0.02,0.18-0.07s0.07-0.11,0.07-0.2c0-0.09-0.02-0.15-0.07-0.2s-0.11-0.07-0.2-0.07c-0.08,0-0.15,0.03-0.19,0.08
			s-0.07,0.12-0.07,0.22v0.14H31.49z"/>
		<path class="st8" d="M31.82,24.73v-0.2h0.15v0.2h0.33v0.18h-0.33v0.65h-0.11l-0.99-0.64v-0.19H31.82z M31.82,25.36v-0.44h-0.7
			l0.04,0.02L31.82,25.36z"/>
		<path class="st8" d="M31.69,23.48c0.21,0,0.37,0.04,0.47,0.11s0.15,0.19,0.15,0.34c0,0.15-0.05,0.26-0.15,0.34
			c-0.1,0.07-0.25,0.11-0.45,0.11h-0.24c-0.21,0-0.36-0.04-0.47-0.11s-0.15-0.19-0.15-0.34c0-0.15,0.05-0.27,0.15-0.34
			c0.1-0.07,0.25-0.11,0.45-0.11H31.69z M31.44,23.66c-0.15,0-0.26,0.02-0.33,0.06c-0.07,0.04-0.11,0.11-0.11,0.2
			c0,0.09,0.04,0.16,0.1,0.2s0.18,0.06,0.32,0.07h0.29c0.15,0,0.27-0.02,0.34-0.07c0.07-0.04,0.11-0.11,0.11-0.2
			c0-0.09-0.03-0.16-0.1-0.2s-0.18-0.07-0.33-0.07H31.44z"/>
		<path class="st8" d="M31.84,22.16c0.15,0.02,0.27,0.07,0.35,0.17c0.08,0.09,0.12,0.22,0.12,0.37c0,0.17-0.06,0.3-0.18,0.4
			s-0.28,0.15-0.48,0.15h-0.14c-0.13,0-0.25-0.02-0.35-0.07s-0.18-0.11-0.23-0.2c-0.05-0.09-0.08-0.19-0.08-0.3
			c0-0.15,0.04-0.27,0.13-0.36c0.08-0.09,0.2-0.14,0.35-0.16v0.19c-0.11,0.02-0.2,0.05-0.25,0.11S31,22.58,31,22.68
			c0,0.12,0.04,0.21,0.13,0.28s0.21,0.1,0.38,0.1h0.14c0.15,0,0.28-0.03,0.37-0.1c0.09-0.06,0.14-0.15,0.14-0.27
			c0-0.1-0.02-0.18-0.07-0.24c-0.05-0.06-0.13-0.09-0.25-0.11V22.16z"/>
	</g>
	<g id="XMLID_174_">
		<g>
			<rect x="23.13" y="16.04" class="st13" width="3.73" height="1.84"/>
		</g>
		<g>
		</g>
	</g>
	<g id="XMLID_173_">
		<g>
			<rect x="23.13" y="19.4" class="st13" width="3.73" height="1.84"/>
		</g>
		<g>
		</g>
	</g>
</g>
<g>
</g>
<g>
</g>
<g>
</g>
<g>
</g>
<g>
</g>
</svg>
