<?xml version="1.0" encoding="utf-8"?>
<!-- Generator: Adobe Illustrator 24.1.3, SVG Export Plug-In . SVG Version: 6.00 Build 0)  -->
<svg version="1.1" xmlns="http://www.w3.org/2000/svg" xmlns:xlink="http://www.w3.org/1999/xlink" x="0px" y="0px"
	 viewBox="0 0 200.84 68.23" style="enable-background:new 0 0 200.84 68.23;" xml:space="preserve">
<style type="text/css">
	.st0{fill:#171818;stroke:#656565;stroke-miterlimit:10;}
	.st1{fill:#F9E494;}
	.st2{fill:#FFFFFF;}
	.st3{fill:#5B7FBF;}
	.st4{fill:#000105;}
	.st5{fill:#E29244;stroke:#656565;stroke-width:0.0232;stroke-miterlimit:10;}
	.st6{fill:#EAAC4E;stroke:#B2B2B2;stroke-width:0.0252;stroke-miterlimit:10;}
	.st7{fill:none;stroke:#808080;stroke-width:0.0114;stroke-miterlimit:10;}
	.st8{fill:#CCC6BC;}
	.st9{fill:#908B83;}
	.st10{fill:#CCC6BB;}
	.st11{fill:#363330;}
	.st12{fill:#B3B3B2;}
	.st13{fill:#A37C53;}
	.st14{fill:#48443E;}
	.st15{fill:#CAC4B9;}
	.st16{fill:none;stroke:#E4E4E4;stroke-width:1.6718;stroke-miterlimit:10;}
	.st17{fill:none;stroke:#C8C7C7;stroke-width:1.6718;stroke-miterlimit:10;}
	.st18{fill:#4B4B4B;}
	.st19{fill:#383838;}
	.st20{fill:#E29244;stroke:#656565;stroke-width:0.0417;stroke-miterlimit:10;}
	.st21{fill:#E29244;stroke:#656565;stroke-width:0.0547;stroke-miterlimit:10;}
	.st22{fill:none;stroke:#FFFFFF;stroke-width:0.5;stroke-miterlimit:10;}
	.st23{fill:none;stroke:url(#SVGID_1_);stroke-width:0.2;stroke-miterlimit:10;}
	.st24{fill:none;stroke:url(#SVGID_2_);stroke-width:0.2;stroke-miterlimit:10;}
	.st25{fill:none;stroke:url(#SVGID_3_);stroke-width:0.2;stroke-miterlimit:10;}
	.st26{fill:none;stroke:url(#SVGID_4_);stroke-width:0.2;stroke-miterlimit:10;}
	.st27{fill:none;stroke:url(#SVGID_5_);stroke-width:0.25;stroke-miterlimit:10;}
	.st28{fill:#F0E935;stroke:#000000;stroke-width:0.0103;stroke-miterlimit:10;}
	.st29{fill:#F0E935;stroke:#000000;stroke-width:0.01;stroke-miterlimit:10;}
	.st30{fill:none;stroke:url(#SVGID_6_);stroke-width:0.2;stroke-miterlimit:10;}
	.st31{fill:none;stroke:url(#SVGID_7_);stroke-width:0.2;stroke-miterlimit:10;}
	.st32{fill:none;stroke:url(#SVGID_8_);stroke-width:0.2;stroke-miterlimit:10;}
	.st33{fill:none;stroke:url(#SVGID_9_);stroke-width:0.2;stroke-miterlimit:10;}
	.st34{fill:none;stroke:url(#SVGID_10_);stroke-width:0.25;stroke-miterlimit:10;}
</style>
<g id="board">
	<g>
		<path class="st0" d="M22.56,62.95c0-1.55-1.24-2.81-2.78-2.81h-9.22c-1.21,0-2.18-0.98-2.18-2.18v-44.2c0-4.83,3.8-8.73,8.48-8.73
			h166.92c4.71,0,8.52,3.81,8.52,8.52c0,0,0,28.59,0,49.41 M18.35,8.65c-3.39,0-6.14,2.75-6.14,6.14s2.75,6.14,6.14,6.14
			s6.14-2.75,6.14-6.14S21.74,8.65,18.35,8.65z M182.54,8.55c-3.44,0-6.22,2.79-6.22,6.22S179.1,21,182.54,21
			c3.44,0,6.22-2.79,6.22-6.22S185.97,8.55,182.54,8.55z"/>
		<path id="path11" class="st1" d="M18.31,6.1c-4.79,0-8.65,3.86-8.65,8.65c0,4.79,3.86,8.74,8.65,8.74s8.74-3.95,8.74-8.74
			C27.05,9.96,23.1,6.1,18.31,6.1z M18.31,18.62c-2.1,0-3.78-1.76-3.78-3.86s1.68-3.78,3.78-3.78c2.1,0,3.87,1.68,3.87,3.78
			S20.41,18.62,18.31,18.62z"/>
		<path id="path11_1_" class="st1" d="M182.33,6.1c-4.79,0-8.65,3.86-8.65,8.65c0,4.79,3.86,8.74,8.65,8.74s8.74-3.95,8.74-8.74
			C191.07,9.96,187.12,6.1,182.33,6.1z M182.33,18.62c-2.1,0-3.78-1.76-3.78-3.86s1.68-3.78,3.78-3.78c2.1,0,3.87,1.68,3.87,3.78
			S184.43,18.62,182.33,18.62z"/>
		<path class="st0" d="M22.56,62.95c0,0.81,0.66,1.47,1.47,1.47l166.31,0.49c1.08,0,1.96-0.88,1.96-1.96"/>
	</g>
</g>
<g id="cmp">
	<g id="I2C_3_">
		<g>
			<path class="st2" d="M10.34,46.96c0.13-0.05,0.26-0.12,0.39-0.2c0.13-0.08,0.24-0.18,0.34-0.3h0.23v2.43h-0.32v-1.97
				c-0.03,0.03-0.06,0.05-0.1,0.08c-0.04,0.03-0.08,0.05-0.13,0.08c-0.05,0.03-0.1,0.05-0.15,0.07c-0.05,0.02-0.1,0.04-0.15,0.06
				L10.34,46.96z"/>
			<path class="st2" d="M13.25,47.07c0,0.08-0.02,0.17-0.05,0.24c-0.03,0.08-0.08,0.16-0.13,0.23c-0.06,0.08-0.12,0.15-0.19,0.22
				c-0.07,0.07-0.14,0.15-0.21,0.22c-0.04,0.04-0.08,0.09-0.14,0.14c-0.05,0.05-0.1,0.11-0.15,0.17c-0.05,0.06-0.08,0.11-0.12,0.17
				s-0.05,0.1-0.05,0.14h1.11v0.28h-1.46c0-0.01,0-0.03,0-0.04s0-0.03,0-0.04c0-0.11,0.02-0.21,0.05-0.31
				c0.04-0.09,0.08-0.18,0.14-0.27s0.12-0.16,0.19-0.24c0.07-0.07,0.14-0.15,0.21-0.22c0.06-0.06,0.11-0.11,0.17-0.17
				c0.05-0.05,0.1-0.11,0.14-0.16c0.04-0.05,0.07-0.11,0.1-0.17c0.02-0.06,0.04-0.12,0.04-0.19c0-0.07-0.01-0.13-0.03-0.18
				c-0.02-0.05-0.05-0.09-0.09-0.12c-0.04-0.03-0.08-0.06-0.13-0.07c-0.05-0.02-0.1-0.02-0.16-0.02c-0.07,0-0.13,0.01-0.18,0.03
				s-0.11,0.04-0.15,0.06s-0.08,0.05-0.11,0.08c-0.03,0.03-0.05,0.05-0.07,0.06l-0.16-0.23c0.02-0.02,0.05-0.05,0.09-0.09
				c0.04-0.03,0.09-0.07,0.15-0.1c0.06-0.03,0.12-0.06,0.19-0.08c0.07-0.02,0.15-0.03,0.23-0.03c0.25,0,0.44,0.06,0.57,0.18
				S13.25,46.86,13.25,47.07z"/>
			<path class="st2" d="M15.01,48.25c0,0.1-0.02,0.19-0.05,0.27c-0.03,0.08-0.08,0.16-0.15,0.22c-0.07,0.06-0.15,0.11-0.25,0.14
				c-0.1,0.03-0.21,0.05-0.34,0.05c-0.15,0-0.28-0.02-0.38-0.06s-0.18-0.1-0.24-0.16c-0.06-0.07-0.1-0.14-0.13-0.22
				c-0.03-0.08-0.04-0.15-0.04-0.22c0-0.07,0.01-0.13,0.03-0.19c0.02-0.06,0.05-0.12,0.09-0.17s0.08-0.1,0.13-0.15
				c0.05-0.04,0.1-0.08,0.15-0.11c-0.23-0.13-0.34-0.32-0.34-0.58c0-0.09,0.02-0.17,0.05-0.25c0.03-0.08,0.08-0.15,0.15-0.21
				c0.06-0.06,0.14-0.11,0.23-0.15s0.19-0.05,0.3-0.05c0.13,0,0.24,0.02,0.33,0.06c0.09,0.04,0.17,0.09,0.23,0.15
				c0.06,0.06,0.1,0.13,0.13,0.2c0.03,0.07,0.04,0.15,0.04,0.22c0,0.07-0.01,0.13-0.03,0.19s-0.05,0.11-0.08,0.17
				c-0.03,0.05-0.07,0.1-0.11,0.14c-0.04,0.04-0.09,0.07-0.13,0.1C14.86,47.76,15,47.97,15.01,48.25z M13.76,48.27
				c0,0.04,0.01,0.09,0.02,0.13c0.01,0.05,0.04,0.09,0.08,0.13c0.04,0.04,0.08,0.07,0.14,0.1c0.06,0.03,0.13,0.04,0.22,0.04
				c0.08,0,0.15-0.01,0.21-0.04s0.11-0.05,0.14-0.09s0.06-0.08,0.08-0.12c0.02-0.05,0.03-0.09,0.03-0.14c0-0.07-0.01-0.14-0.04-0.2
				c-0.03-0.06-0.07-0.1-0.12-0.15s-0.11-0.08-0.19-0.11c-0.07-0.03-0.16-0.05-0.25-0.08c-0.1,0.06-0.18,0.13-0.24,0.22
				C13.79,48.05,13.76,48.15,13.76,48.27z M14.63,47.03c0-0.04-0.01-0.07-0.02-0.12c-0.01-0.04-0.04-0.08-0.07-0.12
				c-0.03-0.04-0.07-0.07-0.13-0.09s-0.11-0.04-0.19-0.04s-0.14,0.01-0.19,0.04c-0.05,0.02-0.09,0.05-0.13,0.09
				s-0.06,0.08-0.07,0.12c-0.02,0.04-0.02,0.09-0.02,0.13c0,0.05,0.01,0.1,0.03,0.15s0.05,0.1,0.09,0.14s0.09,0.08,0.15,0.12
				c0.06,0.03,0.14,0.06,0.23,0.08c0.1-0.06,0.17-0.13,0.23-0.21S14.63,47.15,14.63,47.03z"/>
		</g>
		<g>
			<path class="st2" d="M16.41,26.36c0-0.24,0.03-0.44,0.1-0.62c0.07-0.18,0.16-0.33,0.28-0.46c0.12-0.12,0.26-0.22,0.43-0.28
				c0.17-0.06,0.36-0.1,0.57-0.1l0.02,0.27c-0.14,0-0.26,0.02-0.37,0.05c-0.11,0.03-0.21,0.07-0.3,0.13s-0.16,0.14-0.22,0.24
				c-0.06,0.1-0.11,0.22-0.13,0.36c0.06-0.03,0.13-0.05,0.2-0.07c0.07-0.02,0.15-0.03,0.23-0.03c0.14,0,0.25,0.02,0.35,0.06
				s0.17,0.1,0.23,0.17c0.06,0.07,0.1,0.15,0.13,0.24s0.04,0.18,0.04,0.28c0,0.09-0.01,0.18-0.04,0.27s-0.08,0.18-0.14,0.26
				c-0.06,0.08-0.14,0.14-0.23,0.19c-0.1,0.05-0.21,0.07-0.34,0.07c-0.26,0-0.46-0.09-0.6-0.27C16.48,26.93,16.41,26.68,16.41,26.36
				z M17.19,26.11c-0.08,0-0.16,0.01-0.23,0.02s-0.14,0.04-0.21,0.07c0,0.03,0,0.05-0.01,0.08c0,0.03,0,0.05,0,0.08
				c0,0.1,0.01,0.2,0.02,0.29c0.01,0.09,0.04,0.17,0.07,0.24c0.04,0.07,0.08,0.12,0.14,0.16c0.06,0.04,0.14,0.06,0.23,0.06
				c0.08,0,0.14-0.02,0.19-0.05c0.05-0.03,0.1-0.07,0.13-0.13c0.04-0.05,0.06-0.11,0.08-0.17c0.01-0.06,0.02-0.12,0.02-0.17
				c0-0.16-0.04-0.28-0.11-0.36S17.34,26.11,17.19,26.11z"/>
			<path class="st2" d="M17.94,26.49c0.04-0.1,0.1-0.22,0.18-0.36s0.16-0.28,0.26-0.42c0.1-0.14,0.2-0.29,0.31-0.43
				c0.11-0.14,0.22-0.27,0.33-0.38h0.31v1.54h0.28v0.27h-0.28v0.62h-0.31v-0.62h-1.08V26.49z M19.02,25.29
				c-0.07,0.07-0.14,0.16-0.21,0.25c-0.07,0.09-0.14,0.19-0.21,0.29c-0.07,0.1-0.13,0.2-0.19,0.31c-0.06,0.1-0.11,0.21-0.16,0.31
				h0.76V25.29z"/>
			<path class="st2" d="M20.77,27.33c-0.03-0.05-0.06-0.11-0.09-0.17s-0.08-0.13-0.12-0.19s-0.09-0.13-0.14-0.2
				s-0.09-0.13-0.14-0.19c-0.04,0.06-0.09,0.12-0.14,0.19c-0.05,0.07-0.09,0.13-0.13,0.2c-0.04,0.07-0.08,0.13-0.12,0.19
				s-0.07,0.12-0.09,0.17h-0.33c0.08-0.16,0.18-0.32,0.29-0.48c0.11-0.16,0.22-0.32,0.33-0.47l-0.6-0.86h0.36l0.43,0.64l0.43-0.64
				h0.34l-0.58,0.84c0.11,0.15,0.23,0.31,0.34,0.48c0.12,0.17,0.22,0.33,0.3,0.5H20.77z"/>
			<path class="st2" d="M21.62,27.09c0.21,0,0.35-0.04,0.44-0.12c0.09-0.08,0.13-0.19,0.13-0.33c0-0.09-0.02-0.16-0.06-0.22
				s-0.09-0.11-0.15-0.15c-0.06-0.04-0.13-0.06-0.21-0.08c-0.08-0.02-0.16-0.02-0.24-0.02h-0.08v-0.27h0.11
				c0.06,0,0.12-0.01,0.18-0.02c0.06-0.01,0.12-0.03,0.17-0.06c0.05-0.03,0.09-0.07,0.13-0.12c0.03-0.05,0.05-0.12,0.05-0.2
				c0-0.06-0.01-0.12-0.03-0.17c-0.02-0.05-0.05-0.08-0.09-0.12c-0.04-0.03-0.08-0.05-0.13-0.06s-0.1-0.02-0.16-0.02
				c-0.11,0-0.21,0.02-0.28,0.05c-0.08,0.03-0.14,0.07-0.2,0.1l-0.13-0.25c0.03-0.02,0.06-0.04,0.11-0.06
				c0.04-0.02,0.09-0.04,0.14-0.06s0.11-0.03,0.17-0.05c0.06-0.01,0.13-0.02,0.19-0.02c0.13,0,0.24,0.02,0.33,0.05
				c0.09,0.03,0.17,0.08,0.23,0.13c0.06,0.06,0.11,0.13,0.14,0.2c0.03,0.08,0.04,0.16,0.04,0.25c0,0.13-0.04,0.23-0.11,0.32
				c-0.07,0.09-0.16,0.16-0.26,0.2c0.06,0.02,0.12,0.05,0.18,0.08c0.06,0.03,0.11,0.08,0.15,0.13c0.04,0.05,0.08,0.12,0.1,0.19
				c0.03,0.07,0.04,0.15,0.04,0.23c0,0.1-0.02,0.2-0.05,0.29c-0.04,0.09-0.09,0.17-0.17,0.23c-0.08,0.07-0.17,0.12-0.28,0.15
				c-0.11,0.04-0.25,0.06-0.4,0.06c-0.06,0-0.12,0-0.19-0.01s-0.12-0.02-0.18-0.04s-0.1-0.03-0.15-0.04
				c-0.04-0.01-0.07-0.03-0.09-0.04l0.06-0.28c0.04,0.02,0.1,0.04,0.2,0.07C21.38,27.08,21.49,27.09,21.62,27.09z"/>
			<path class="st2" d="M24.07,25.52c0,0.08-0.02,0.17-0.05,0.24c-0.03,0.08-0.08,0.16-0.13,0.23c-0.06,0.08-0.12,0.15-0.19,0.22
				c-0.07,0.07-0.14,0.15-0.21,0.22c-0.04,0.04-0.08,0.09-0.14,0.14c-0.05,0.05-0.1,0.11-0.15,0.17s-0.08,0.11-0.12,0.17
				s-0.05,0.1-0.05,0.14h1.11v0.28h-1.46c0-0.01,0-0.03,0-0.04s0-0.03,0-0.04c0-0.11,0.02-0.21,0.05-0.31
				c0.04-0.09,0.08-0.18,0.14-0.27c0.06-0.08,0.12-0.16,0.19-0.24s0.14-0.15,0.21-0.22c0.06-0.06,0.11-0.11,0.16-0.17
				c0.05-0.05,0.1-0.11,0.14-0.16c0.04-0.05,0.07-0.11,0.1-0.17c0.02-0.06,0.04-0.12,0.04-0.19c0-0.07-0.01-0.13-0.03-0.18
				c-0.02-0.05-0.05-0.09-0.09-0.12c-0.04-0.03-0.08-0.06-0.13-0.07c-0.05-0.02-0.1-0.02-0.16-0.02c-0.07,0-0.13,0.01-0.18,0.03
				s-0.11,0.04-0.15,0.06s-0.08,0.05-0.11,0.08c-0.03,0.03-0.05,0.05-0.07,0.06l-0.16-0.23c0.02-0.02,0.05-0.05,0.09-0.09
				c0.04-0.03,0.09-0.07,0.15-0.1c0.06-0.03,0.12-0.06,0.19-0.08c0.07-0.02,0.15-0.03,0.23-0.03c0.25,0,0.44,0.06,0.57,0.18
				C24.01,25.14,24.07,25.31,24.07,25.52z"/>
		</g>
		<g>
			<g>
				<g>
					<g>
						<polygon class="st3" points="19.04,51.93 17.77,50.66 17.77,46.13 19.04,44.86 23.58,44.86 24.83,46.12 24.85,50.66 
							23.57,51.93 						"/>
						<path class="st4" d="M23.57,44.86l0.9,0.9l0.37,0.37v4.53l-0.37,0.37l-0.9,0.9h-4.53l-1.27-1.27v-4.53l1.27-1.27H23.57
							 M23.58,44.85h-4.54c-0.5,0.5-0.78,0.78-1.28,1.28v4.54c0.5,0.5,0.78,0.78,1.28,1.28h4.54c0.5-0.5,0.78-0.78,1.28-1.28v-4.54
							C24.35,45.63,24.07,45.35,23.58,44.85L23.58,44.85z"/>
					</g>
				</g>
				
					<rect x="20.42" y="47.49" transform="matrix(6.123234e-17 -1 1 6.123234e-17 -27.0889 69.7042)" class="st5" width="1.77" height="1.81"/>
				
					<rect x="20.82" y="47.9" transform="matrix(6.123234e-17 -1 1 6.123234e-17 -27.0889 69.7042)" class="st6" width="0.97" height="0.99"/>
				<line class="st7" x1="20.4" y1="49.28" x2="20.81" y2="48.88"/>
				<line class="st7" x1="20.81" y1="47.91" x2="20.4" y2="47.51"/>
				<line class="st7" x1="21.8" y1="47.91" x2="22.21" y2="47.51"/>
				<line class="st7" x1="21.8" y1="48.88" x2="22.21" y2="49.28"/>
			</g>
		</g>
		<g>
			<g>
				<g>
					<g>
						<polygon class="st3" points="19.04,44.76 17.77,43.49 17.77,38.96 19.04,37.69 23.58,37.69 24.85,38.96 24.85,43.49 
							23.57,44.76 						"/>
						<path class="st4" d="M23.57,37.69l1.05,1.05l0.22,0.22v4.53l-0.56,0.56l-0.71,0.71h-4.53l-1.27-1.27v-4.53l1.27-1.27H23.57
							 M23.58,37.68h-4.54c-0.5,0.5-0.78,0.78-1.28,1.28v4.54c0.5,0.5,0.78,0.78,1.28,1.28h4.54c0.5-0.5,0.78-0.78,1.28-1.28v-4.54
							C24.35,38.46,24.07,38.18,23.58,37.68L23.58,37.68z"/>
					</g>
				</g>
				
					<rect x="20.42" y="40.32" transform="matrix(6.123234e-17 -1 1 6.123234e-17 -19.9175 62.5328)" class="st5" width="1.77" height="1.81"/>
				
					<rect x="20.82" y="40.73" transform="matrix(6.123234e-17 -1 1 6.123234e-17 -19.9175 62.5328)" class="st6" width="0.97" height="0.99"/>
				<line class="st7" x1="20.4" y1="42.11" x2="20.81" y2="41.71"/>
				<line class="st7" x1="20.81" y1="40.74" x2="20.4" y2="40.34"/>
				<line class="st7" x1="21.8" y1="40.74" x2="22.21" y2="40.34"/>
				<line class="st7" x1="21.8" y1="41.71" x2="22.21" y2="42.11"/>
			</g>
		</g>
		<g>
			<g>
				<g>
					<g>
						<polygon class="st3" points="19.04,37.6 17.8,36.35 17.77,31.79 19.03,30.54 23.58,30.52 24.85,31.8 24.85,36.33 23.57,37.6 
													"/>
						<path class="st4" d="M23.57,30.53l1.05,1.05l0.22,0.22v4.53l-0.56,0.56l-0.71,0.71h-4.53l-1.27-1.27V31.8l1.27-1.27H23.57
							 M23.58,30.52h-4.54c-0.5,0.5-0.78,0.78-1.28,1.28v4.54c0.5,0.5,0.78,0.78,1.28,1.28h4.54c0.5-0.5,0.78-0.78,1.28-1.28v-4.54
							C24.35,31.3,24.07,31.02,23.58,30.52L23.58,30.52z"/>
					</g>
				</g>
				
					<rect x="20.42" y="33.15" transform="matrix(6.123234e-17 -1 1 6.123234e-17 -12.7538 55.3691)" class="st5" width="1.77" height="1.81"/>
				
					<rect x="20.82" y="33.57" transform="matrix(6.123234e-17 -1 1 6.123234e-17 -12.7538 55.3691)" class="st6" width="0.97" height="0.99"/>
				<line class="st7" x1="20.4" y1="34.95" x2="20.81" y2="34.54"/>
				<line class="st7" x1="20.81" y1="33.58" x2="20.4" y2="33.18"/>
				<line class="st7" x1="21.8" y1="33.58" x2="22.21" y2="33.18"/>
				<line class="st7" x1="21.8" y1="34.54" x2="22.21" y2="34.95"/>
			</g>
		</g>
		<g>
			<g>
				<g>
					<g>
						<polygon class="st3" points="26.24,51.93 24.97,50.66 24.97,46.13 26.25,44.86 30.78,44.86 32.03,46.12 32.05,50.66 
							30.77,51.93 						"/>
						<path class="st4" d="M30.77,44.86l0.9,0.9l0.37,0.37v4.53l-0.37,0.37l-0.9,0.9h-4.53l-1.27-1.27v-4.53l1.27-1.27H30.77
							 M30.78,44.85h-4.54c-0.5,0.5-0.78,0.78-1.28,1.28v4.54c0.5,0.5,0.78,0.78,1.28,1.28h4.54c0.5-0.5,0.78-0.78,1.28-1.28v-4.54
							C31.55,45.63,31.28,45.35,30.78,44.85L30.78,44.85z"/>
					</g>
				</g>
				
					<rect x="27.63" y="47.49" transform="matrix(6.123234e-17 -1 1 6.123234e-17 -19.8871 76.906)" class="st5" width="1.77" height="1.81"/>
				
					<rect x="28.03" y="47.9" transform="matrix(6.123234e-17 -1 1 6.123234e-17 -19.8871 76.906)" class="st6" width="0.97" height="0.99"/>
				<line class="st7" x1="27.6" y1="49.28" x2="28.01" y2="48.88"/>
				<line class="st7" x1="28.01" y1="47.91" x2="27.6" y2="47.51"/>
				<line class="st7" x1="29.01" y1="47.91" x2="29.42" y2="47.51"/>
				<line class="st7" x1="29.01" y1="48.88" x2="29.42" y2="49.28"/>
			</g>
		</g>
		<g>
			<g>
				<g>
					<g>
						<polygon class="st3" points="26.24,44.76 24.97,43.49 24.97,38.96 26.25,37.69 30.78,37.69 32.05,38.96 32.05,43.49 
							30.78,44.76 						"/>
						<path class="st4" d="M30.77,37.69l1.05,1.05l0.22,0.22v4.53l-0.56,0.56l-0.71,0.71h-4.53l-1.27-1.27v-4.53l1.27-1.27H30.77
							 M30.78,37.68h-4.54c-0.5,0.5-0.78,0.78-1.28,1.28v4.54c0.5,0.5,0.78,0.78,1.28,1.28h4.54c0.5-0.5,0.78-0.78,1.28-1.28v-4.54
							C31.55,38.46,31.28,38.18,30.78,37.68L30.78,37.68z"/>
					</g>
				</g>
				
					<rect x="27.63" y="40.32" transform="matrix(6.123234e-17 -1 1 6.123234e-17 -12.7158 69.7346)" class="st5" width="1.77" height="1.81"/>
				
					<rect x="28.03" y="40.73" transform="matrix(6.123234e-17 -1 1 6.123234e-17 -12.7158 69.7346)" class="st6" width="0.97" height="0.99"/>
				<line class="st7" x1="27.6" y1="42.11" x2="28.01" y2="41.71"/>
				<line class="st7" x1="28.01" y1="40.74" x2="27.6" y2="40.34"/>
				<line class="st7" x1="29.01" y1="40.74" x2="29.42" y2="40.34"/>
				<line class="st7" x1="29.01" y1="41.71" x2="29.42" y2="42.11"/>
			</g>
		</g>
		<g>
			<g>
				<g>
					<g>
						<polygon class="st3" points="26.24,37.6 25,36.35 24.97,31.79 26.23,30.54 30.78,30.52 32.05,31.8 32.05,36.33 30.78,37.6 
													"/>
						<path class="st4" d="M30.77,30.53l1.05,1.05l0.22,0.22v4.53l-0.56,0.56l-0.71,0.71h-4.53l-1.27-1.27V31.8l1.27-1.27H30.77
							 M30.78,30.52h-4.54c-0.5,0.5-0.78,0.78-1.28,1.28v4.54c0.5,0.5,0.78,0.78,1.28,1.28h4.54c0.5-0.5,0.78-0.78,1.28-1.28v-4.54
							C31.55,31.3,31.28,31.02,30.78,30.52L30.78,30.52z"/>
					</g>
				</g>
				
					<rect x="27.63" y="33.15" transform="matrix(6.123234e-17 -1 1 6.123234e-17 -5.552 62.5708)" class="st5" width="1.77" height="1.81"/>
				
					<rect x="28.03" y="33.57" transform="matrix(6.123234e-17 -1 1 6.123234e-17 -5.552 62.5708)" class="st6" width="0.97" height="0.99"/>
				<line class="st7" x1="27.6" y1="34.95" x2="28.01" y2="34.54"/>
				<line class="st7" x1="28.01" y1="33.58" x2="27.6" y2="33.18"/>
				<line class="st7" x1="29.01" y1="33.58" x2="29.42" y2="33.18"/>
				<line class="st7" x1="29.01" y1="34.54" x2="29.42" y2="34.95"/>
			</g>
		</g>
	</g>
	<g id="GPIO">
		<g>
			<path class="st8" d="M82.39,20.56c-1.23,0-2.22-1-2.22-2.24c0-1.24,1-2.24,2.22-2.24c1.23,0,2.22,1,2.22,2.24
				C84.61,19.56,83.61,20.56,82.39,20.56z"/>
			<ellipse class="st9" cx="82.39" cy="18.32" rx="1.52" ry="1.53"/>
		</g>
		<g>
			<path class="st8" d="M75.19,20.56c-1.23,0-2.22-1-2.22-2.24c0-1.24,1-2.24,2.22-2.24c1.23,0,2.22,1,2.22,2.24
				C77.41,19.56,76.42,20.56,75.19,20.56z"/>
			<ellipse class="st9" cx="75.19" cy="18.32" rx="1.52" ry="1.53"/>
		</g>
		<g>
			<path class="st8" d="M67.99,20.56c-1.23,0-2.22-1-2.22-2.24c0-1.24,1-2.24,2.22-2.24s2.22,1,2.22,2.24
				C70.21,19.56,69.21,20.56,67.99,20.56z"/>
			<ellipse class="st9" cx="67.99" cy="18.32" rx="1.52" ry="1.53"/>
		</g>
		<g>
			<path class="st8" d="M60.79,20.56c-1.23,0-2.22-1-2.22-2.24c0-1.24,1-2.24,2.22-2.24c1.23,0,2.22,1,2.22,2.24
				C63.01,19.56,62.01,20.56,60.79,20.56z"/>
			<ellipse class="st9" cx="60.79" cy="18.32" rx="1.52" ry="1.53"/>
		</g>
		<g>
			<path class="st8" d="M53.59,20.56c-1.23,0-2.22-1-2.22-2.24c0-1.24,1-2.24,2.22-2.24c1.23,0,2.22,1,2.22,2.24
				C55.81,19.56,54.81,20.56,53.59,20.56z"/>
			<ellipse class="st9" cx="53.59" cy="18.32" rx="1.52" ry="1.53"/>
		</g>
		<g>
			<path class="st8" d="M46.39,20.56c-1.23,0-2.22-1-2.22-2.24c0-1.24,1-2.24,2.22-2.24c1.23,0,2.22,1,2.22,2.24
				C48.61,19.56,47.61,20.56,46.39,20.56z"/>
			<ellipse class="st9" cx="46.39" cy="18.32" rx="1.52" ry="1.53"/>
		</g>
		<g>
			<path class="st8" d="M39.19,20.56c-1.23,0-2.22-1-2.22-2.24c0-1.24,1-2.24,2.22-2.24c1.23,0,2.22,1,2.22,2.24
				C41.41,19.56,40.42,20.56,39.19,20.56z"/>
			<ellipse class="st9" cx="39.19" cy="18.32" rx="1.52" ry="1.53"/>
		</g>
		<g>
			<path class="st8" d="M31.99,20.56c-1.23,0-2.22-1-2.22-2.24c0-1.24,1-2.24,2.22-2.24c1.23,0,2.22,1,2.22,2.24
				C34.21,19.56,33.21,20.56,31.99,20.56z"/>
			<ellipse class="st9" cx="31.99" cy="18.32" rx="1.52" ry="1.53"/>
		</g>
		<g>
			<path class="st8" d="M139.85,20.56c-1.23,0-2.22-1-2.22-2.24c0-1.24,1-2.24,2.22-2.24s2.22,1,2.22,2.24
				C142.07,19.56,141.08,20.56,139.85,20.56z"/>
			<ellipse class="st9" cx="139.85" cy="18.32" rx="1.52" ry="1.53"/>
		</g>
		<g>
			<path class="st8" d="M132.66,20.56c-1.23,0-2.22-1-2.22-2.24c0-1.24,1-2.24,2.22-2.24c1.23,0,2.22,1,2.22,2.24
				C134.88,19.56,133.88,20.56,132.66,20.56z"/>
			<ellipse class="st9" cx="132.66" cy="18.32" rx="1.52" ry="1.53"/>
		</g>
		<g>
			<path class="st8" d="M125.45,20.56c-1.23,0-2.22-1-2.22-2.24c0-1.24,1-2.24,2.22-2.24s2.22,1,2.22,2.24
				C127.67,19.56,126.68,20.56,125.45,20.56z"/>
			<ellipse class="st9" cx="125.45" cy="18.32" rx="1.52" ry="1.53"/>
		</g>
		<g>
			<path class="st8" d="M118.25,20.56c-1.23,0-2.22-1-2.22-2.24c0-1.24,1-2.24,2.22-2.24s2.22,1,2.22,2.24
				C120.47,19.56,119.48,20.56,118.25,20.56z"/>
			<ellipse class="st9" cx="118.25" cy="18.32" rx="1.52" ry="1.53"/>
		</g>
		<g>
			<path class="st8" d="M168.78,20.56c-1.23,0-2.22-1-2.22-2.24c0-1.24,1-2.24,2.22-2.24c1.23,0,2.22,1,2.22,2.24
				C171.01,19.56,170.01,20.56,168.78,20.56z"/>
			<ellipse class="st9" cx="168.78" cy="18.32" rx="1.52" ry="1.53"/>
		</g>
		<g>
			<path class="st8" d="M161.59,20.56c-1.23,0-2.22-1-2.22-2.24c0-1.24,1-2.24,2.22-2.24c1.23,0,2.22,1,2.22,2.24
				C163.81,19.56,162.82,20.56,161.59,20.56z"/>
			<ellipse class="st9" cx="161.59" cy="18.32" rx="1.52" ry="1.53"/>
		</g>
		<g>
			<path class="st8" d="M154.38,20.56c-1.23,0-2.22-1-2.22-2.24c0-1.24,1-2.24,2.22-2.24c1.23,0,2.22,1,2.22,2.24
				C156.61,19.56,155.61,20.56,154.38,20.56z"/>
			<ellipse class="st9" cx="154.38" cy="18.32" rx="1.52" ry="1.53"/>
		</g>
		<g>
			<path class="st8" d="M147.18,20.56c-1.23,0-2.22-1-2.22-2.24c0-1.24,1-2.24,2.22-2.24c1.23,0,2.22,1,2.22,2.24
				C149.41,19.56,148.41,20.56,147.18,20.56z"/>
			<ellipse class="st9" cx="147.18" cy="18.32" rx="1.52" ry="1.53"/>
		</g>
		<g>
			<path class="st8" d="M111.05,20.56c-1.23,0-2.22-1-2.22-2.24c0-1.24,1-2.24,2.22-2.24c1.23,0,2.22,1,2.22,2.24
				C113.27,19.56,112.28,20.56,111.05,20.56z"/>
			<ellipse class="st9" cx="111.05" cy="18.32" rx="1.52" ry="1.53"/>
		</g>
		<g>
			<path class="st8" d="M103.85,20.56c-1.23,0-2.22-1-2.22-2.24c0-1.24,1-2.24,2.22-2.24s2.22,1,2.22,2.24
				C106.07,19.56,105.08,20.56,103.85,20.56z"/>
			<ellipse class="st9" cx="103.85" cy="18.32" rx="1.52" ry="1.53"/>
		</g>
		<g>
			<path class="st8" d="M96.66,20.56c-1.23,0-2.22-1-2.22-2.24c0-1.24,1-2.24,2.22-2.24s2.22,1,2.22,2.24
				C98.88,19.56,97.88,20.56,96.66,20.56z"/>
			<ellipse class="st9" cx="96.66" cy="18.32" rx="1.52" ry="1.53"/>
		</g>
		<g>
			<path class="st8" d="M89.45,20.56c-1.23,0-2.22-1-2.22-2.24c0-1.24,1-2.24,2.22-2.24s2.22,1,2.22,2.24
				C91.67,19.56,90.68,20.56,89.45,20.56z"/>
			<ellipse class="st9" cx="89.45" cy="18.32" rx="1.52" ry="1.53"/>
		</g>
		<g>
			<path class="st8" d="M82.39,13.51c-1.23,0-2.22-1-2.22-2.24s1-2.24,2.22-2.24c1.23,0,2.22,1,2.22,2.24S83.61,13.51,82.39,13.51z"
				/>
			<ellipse class="st9" cx="82.39" cy="11.27" rx="1.52" ry="1.53"/>
		</g>
		<g>
			<path class="st8" d="M75.19,13.51c-1.23,0-2.22-1-2.22-2.24s1-2.24,2.22-2.24c1.23,0,2.22,1,2.22,2.24S76.42,13.51,75.19,13.51z"
				/>
			<ellipse class="st9" cx="75.19" cy="11.27" rx="1.52" ry="1.53"/>
		</g>
		<g>
			<path class="st8" d="M67.99,13.51c-1.23,0-2.22-1-2.22-2.24s1-2.24,2.22-2.24s2.22,1,2.22,2.24S69.21,13.51,67.99,13.51z"/>
			<ellipse class="st9" cx="67.99" cy="11.27" rx="1.52" ry="1.53"/>
		</g>
		<g>
			<path class="st8" d="M60.79,13.51c-1.23,0-2.22-1-2.22-2.24s1-2.24,2.22-2.24c1.23,0,2.22,1,2.22,2.24S62.01,13.51,60.79,13.51z"
				/>
			<ellipse class="st9" cx="60.79" cy="11.27" rx="1.52" ry="1.53"/>
		</g>
		<g>
			<path class="st8" d="M53.59,13.51c-1.23,0-2.22-1-2.22-2.24s1-2.24,2.22-2.24c1.23,0,2.22,1,2.22,2.24S54.81,13.51,53.59,13.51z"
				/>
			<ellipse class="st9" cx="53.59" cy="11.27" rx="1.52" ry="1.53"/>
		</g>
		<g>
			<path class="st8" d="M46.39,13.51c-1.23,0-2.22-1-2.22-2.24s1-2.24,2.22-2.24c1.23,0,2.22,1,2.22,2.24S47.61,13.51,46.39,13.51z"
				/>
			<ellipse class="st9" cx="46.39" cy="11.27" rx="1.52" ry="1.53"/>
		</g>
		<g>
			<path class="st8" d="M39.19,13.51c-1.23,0-2.22-1-2.22-2.24s1-2.24,2.22-2.24c1.23,0,2.22,1,2.22,2.24S40.42,13.51,39.19,13.51z"
				/>
			<ellipse class="st9" cx="39.19" cy="11.27" rx="1.52" ry="1.53"/>
		</g>
		<g>
			<path class="st8" d="M31.99,13.51c-1.23,0-2.22-1-2.22-2.24s1-2.24,2.22-2.24c1.23,0,2.22,1,2.22,2.24S33.21,13.51,31.99,13.51z"
				/>
			<ellipse class="st9" cx="31.99" cy="11.27" rx="1.52" ry="1.53"/>
		</g>
		<g>
			<path class="st8" d="M139.85,13.51c-1.23,0-2.22-1-2.22-2.24s1-2.24,2.22-2.24s2.22,1,2.22,2.24S141.08,13.51,139.85,13.51z"/>
			<ellipse class="st9" cx="139.85" cy="11.27" rx="1.52" ry="1.53"/>
		</g>
		<g>
			<path class="st8" d="M132.66,13.51c-1.23,0-2.22-1-2.22-2.24s1-2.24,2.22-2.24c1.23,0,2.22,1,2.22,2.24
				S133.88,13.51,132.66,13.51z"/>
			<ellipse class="st9" cx="132.66" cy="11.27" rx="1.52" ry="1.53"/>
		</g>
		<g>
			<path class="st8" d="M125.45,13.51c-1.23,0-2.22-1-2.22-2.24s1-2.24,2.22-2.24s2.22,1,2.22,2.24S126.68,13.51,125.45,13.51z"/>
			<ellipse class="st9" cx="125.45" cy="11.27" rx="1.52" ry="1.53"/>
		</g>
		<g>
			<path class="st8" d="M118.25,13.51c-1.23,0-2.22-1-2.22-2.24s1-2.24,2.22-2.24s2.22,1,2.22,2.24S119.48,13.51,118.25,13.51z"/>
			<ellipse class="st9" cx="118.25" cy="11.27" rx="1.52" ry="1.53"/>
		</g>
		<g>
			<path class="st8" d="M168.78,13.51c-1.23,0-2.22-1-2.22-2.24s1-2.24,2.22-2.24c1.23,0,2.22,1,2.22,2.24
				S170.01,13.51,168.78,13.51z"/>
			<ellipse class="st9" cx="168.78" cy="11.27" rx="1.52" ry="1.53"/>
		</g>
		<g>
			<path class="st8" d="M161.59,13.51c-1.23,0-2.22-1-2.22-2.24s1-2.24,2.22-2.24c1.23,0,2.22,1,2.22,2.24
				S162.82,13.51,161.59,13.51z"/>
			<ellipse class="st9" cx="161.59" cy="11.27" rx="1.52" ry="1.53"/>
		</g>
		<g>
			<path class="st8" d="M154.38,13.51c-1.23,0-2.22-1-2.22-2.24s1-2.24,2.22-2.24c1.23,0,2.22,1,2.22,2.24
				S155.61,13.51,154.38,13.51z"/>
			<ellipse class="st9" cx="154.38" cy="11.27" rx="1.52" ry="1.53"/>
		</g>
		<g>
			<path class="st8" d="M147.18,13.51c-1.23,0-2.22-1-2.22-2.24s1-2.24,2.22-2.24c1.23,0,2.22,1,2.22,2.24
				S148.41,13.51,147.18,13.51z"/>
			<ellipse class="st9" cx="147.18" cy="11.27" rx="1.52" ry="1.53"/>
		</g>
		<g>
			<path class="st8" d="M111.05,13.51c-1.23,0-2.22-1-2.22-2.24s1-2.24,2.22-2.24c1.23,0,2.22,1,2.22,2.24
				S112.28,13.51,111.05,13.51z"/>
			<ellipse class="st9" cx="111.05" cy="11.27" rx="1.52" ry="1.53"/>
		</g>
		<g>
			<path class="st8" d="M103.85,13.51c-1.23,0-2.22-1-2.22-2.24s1-2.24,2.22-2.24s2.22,1,2.22,2.24S105.08,13.51,103.85,13.51z"/>
			<ellipse class="st9" cx="103.85" cy="11.27" rx="1.52" ry="1.53"/>
		</g>
		<g>
			<path class="st8" d="M96.66,13.51c-1.23,0-2.22-1-2.22-2.24s1-2.24,2.22-2.24s2.22,1,2.22,2.24S97.88,13.51,96.66,13.51z"/>
			<ellipse class="st9" cx="96.66" cy="11.27" rx="1.52" ry="1.53"/>
		</g>
		<g>
			<path class="st8" d="M89.45,13.51c-1.23,0-2.22-1-2.22-2.24s1-2.24,2.22-2.24s2.22,1,2.22,2.24S90.68,13.51,89.45,13.51z"/>
			<ellipse class="st9" cx="89.45" cy="11.27" rx="1.52" ry="1.53"/>
		</g>
	</g>
	<g id="_x31_03_12_">
		<g id="XMLID_56_">
			<g>
				<rect x="25.03" y="25.24" class="st10" width="1.55" height="4.26"/>
			</g>
			<g>
			</g>
		</g>
		<g id="XMLID_52_">
			<g>
				<rect x="30.27" y="25.2" class="st10" width="1.72" height="4.26"/>
			</g>
			<g>
			</g>
		</g>
		<g id="XMLID_51_">
			<g>
				<rect x="25.87" y="25.55" class="st11" width="5.16" height="3.61"/>
			</g>
			<g>
			</g>
		</g>
		<g>
			<path class="st12" d="M29.13,26.69h0.7v0.13h-0.27v0.86h0.27v0.12c-0.04,0-0.08,0-0.12,0.01s-0.07,0.01-0.09,0.03
				c-0.03,0.01-0.05,0.03-0.06,0.05c-0.02,0.02-0.02,0.05-0.03,0.09h-0.13v-1.16h-0.26V26.69z"/>
			<path class="st12" d="M28.11,27.33c0-0.23,0.04-0.4,0.11-0.51s0.18-0.16,0.34-0.16c0.15,0,0.27,0.05,0.34,0.16
				c0.07,0.11,0.11,0.28,0.11,0.5c0,0.23-0.04,0.4-0.11,0.51C28.82,27.94,28.7,28,28.55,28c-0.15,0-0.27-0.06-0.34-0.17
				S28.11,27.55,28.11,27.33z M28.33,26.94c-0.02,0.05-0.03,0.1-0.04,0.16c-0.01,0.06-0.01,0.14-0.01,0.23c0,0.09,0,0.16,0.01,0.23
				c0.01,0.06,0.02,0.12,0.04,0.16c0.02,0.04,0.05,0.08,0.08,0.1c0.03,0.02,0.08,0.03,0.13,0.03c0.05,0,0.1-0.01,0.13-0.03
				c0.04-0.02,0.06-0.06,0.08-0.1c0.02-0.04,0.03-0.1,0.04-0.17c0.01-0.07,0.01-0.14,0.01-0.23c0-0.09,0-0.17-0.01-0.23
				s-0.02-0.11-0.04-0.16c-0.02-0.04-0.05-0.08-0.08-0.1c-0.03-0.02-0.08-0.04-0.14-0.04c-0.05,0-0.1,0.01-0.13,0.03
				S28.35,26.89,28.33,26.94z"/>
			<path class="st12" d="M27.27,27.31c-0.03-0.02-0.05-0.06-0.07-0.09c-0.02-0.04-0.03-0.09-0.03-0.15s0.01-0.11,0.03-0.16
				c0.02-0.05,0.05-0.09,0.09-0.13c0.04-0.04,0.09-0.07,0.15-0.09c0.06-0.02,0.12-0.03,0.19-0.03c0.07,0,0.14,0.01,0.21,0.03
				c0.07,0.02,0.13,0.04,0.17,0.06v0.18h-0.01c-0.05-0.03-0.11-0.06-0.17-0.08s-0.13-0.03-0.19-0.03c-0.04,0-0.08,0.01-0.12,0.02
				c-0.04,0.01-0.07,0.03-0.1,0.05c-0.03,0.03-0.05,0.05-0.06,0.08c-0.01,0.03-0.02,0.07-0.02,0.12s0.01,0.08,0.02,0.11
				s0.04,0.05,0.06,0.07s0.06,0.03,0.09,0.04c0.04,0.01,0.08,0.01,0.12,0.01h0.08v0.14h-0.06c-0.09,0-0.16,0.02-0.21,0.06
				s-0.08,0.09-0.08,0.16c0,0.03,0.01,0.06,0.02,0.08s0.03,0.04,0.06,0.06c0.02,0.02,0.05,0.03,0.08,0.03
				c0.03,0.01,0.06,0.01,0.1,0.01c0.06,0,0.11-0.01,0.17-0.03s0.12-0.05,0.17-0.08h0.01v0.18c-0.04,0.02-0.1,0.04-0.16,0.06
				c-0.07,0.02-0.13,0.03-0.2,0.03c-0.06,0-0.12-0.01-0.17-0.02c-0.05-0.01-0.09-0.03-0.13-0.06c-0.04-0.03-0.07-0.06-0.09-0.1
				c-0.02-0.04-0.03-0.08-0.03-0.14c0-0.07,0.02-0.13,0.08-0.19c0.05-0.05,0.11-0.09,0.18-0.1v-0.01c-0.03,0-0.06-0.01-0.1-0.03
				C27.32,27.35,27.29,27.33,27.27,27.31z"/>
		</g>
	</g>
	<g id="конденсатор_5_">
		<g id="XMLID_159_">
			<g>
				<rect x="114.6" y="30.88" class="st10" width="4.26" height="1.95"/>
			</g>
			<g>
			</g>
		</g>
		<g id="XMLID_158_">
			<g>
				<rect x="114.56" y="25.23" class="st10" width="4.26" height="1.96"/>
			</g>
			<g>
			</g>
		</g>
		<g id="XMLID_157_">
			<g>
				<rect x="114.91" y="26.42" class="st13" width="3.61" height="5.16"/>
			</g>
			<g>
			</g>
		</g>
	</g>
	<g id="_x31_03_9_">
		<g id="XMLID_42_">
			<g>
				<rect x="29.94" y="53.57" class="st10" width="1.55" height="4.26"/>
			</g>
			<g>
			</g>
		</g>
		<g id="XMLID_41_">
			<g>
				<rect x="24.53" y="53.61" class="st10" width="1.72" height="4.26"/>
			</g>
			<g>
			</g>
		</g>
		<g id="XMLID_40_">
			<g>
				<rect x="25.49" y="53.91" class="st11" width="5.16" height="3.61"/>
			</g>
			<g>
			</g>
		</g>
		<g>
			<path class="st12" d="M27.4,56.38h-0.7v-0.13h0.27v-0.86H26.7v-0.12c0.04,0,0.08,0,0.12-0.01s0.07-0.01,0.09-0.03
				c0.03-0.01,0.05-0.03,0.06-0.05c0.02-0.02,0.02-0.05,0.03-0.09h0.13v1.16h0.26V56.38z"/>
			<path class="st12" d="M28.42,55.74c0,0.23-0.04,0.4-0.11,0.51s-0.18,0.16-0.34,0.16c-0.15,0-0.27-0.05-0.34-0.16
				c-0.07-0.11-0.11-0.28-0.11-0.5c0-0.23,0.04-0.4,0.11-0.51c0.07-0.11,0.18-0.16,0.34-0.16c0.15,0,0.27,0.06,0.34,0.17
				S28.42,55.52,28.42,55.74z M28.19,56.13c0.02-0.05,0.03-0.1,0.04-0.16c0.01-0.06,0.01-0.14,0.01-0.23c0-0.09,0-0.16-0.01-0.23
				c-0.01-0.06-0.02-0.12-0.04-0.16c-0.02-0.04-0.05-0.08-0.08-0.1c-0.03-0.02-0.08-0.03-0.13-0.03c-0.05,0-0.1,0.01-0.13,0.03
				c-0.04,0.02-0.06,0.06-0.08,0.1c-0.02,0.04-0.03,0.1-0.04,0.17c-0.01,0.07-0.01,0.14-0.01,0.23c0,0.09,0,0.17,0.01,0.23
				s0.02,0.11,0.04,0.16c0.02,0.04,0.05,0.08,0.08,0.1c0.03,0.02,0.08,0.04,0.14,0.04c0.05,0,0.1-0.01,0.13-0.03
				S28.17,56.18,28.19,56.13z"/>
			<path class="st12" d="M29.25,55.76c0.03,0.02,0.05,0.06,0.07,0.09c0.02,0.04,0.03,0.09,0.03,0.15s-0.01,0.11-0.03,0.16
				c-0.02,0.05-0.05,0.09-0.09,0.13c-0.04,0.04-0.09,0.07-0.15,0.09c-0.06,0.02-0.12,0.03-0.19,0.03c-0.07,0-0.14-0.01-0.21-0.03
				c-0.07-0.02-0.13-0.04-0.17-0.06v-0.18h0.01c0.05,0.03,0.11,0.06,0.17,0.08s0.13,0.03,0.19,0.03c0.04,0,0.08-0.01,0.12-0.02
				c0.04-0.01,0.07-0.03,0.1-0.05c0.03-0.03,0.05-0.05,0.06-0.08c0.01-0.03,0.02-0.07,0.02-0.12s-0.01-0.08-0.02-0.11
				s-0.04-0.05-0.06-0.07s-0.06-0.03-0.09-0.04c-0.04-0.01-0.08-0.01-0.12-0.01H28.8v-0.14h0.06c0.09,0,0.16-0.02,0.21-0.06
				s0.08-0.09,0.08-0.16c0-0.03-0.01-0.06-0.02-0.08s-0.03-0.04-0.06-0.06c-0.02-0.02-0.05-0.03-0.08-0.03
				c-0.03-0.01-0.06-0.01-0.1-0.01c-0.06,0-0.11,0.01-0.17,0.03s-0.12,0.05-0.17,0.08h-0.01v-0.18c0.04-0.02,0.1-0.04,0.16-0.06
				c0.07-0.02,0.13-0.03,0.2-0.03c0.06,0,0.12,0.01,0.17,0.02c0.05,0.01,0.09,0.03,0.13,0.06c0.04,0.03,0.07,0.06,0.09,0.1
				c0.02,0.04,0.03,0.08,0.03,0.14c0,0.07-0.02,0.13-0.08,0.19c-0.05,0.05-0.11,0.09-0.18,0.1v0.01c0.03,0,0.06,0.01,0.1,0.03
				C29.2,55.72,29.23,55.74,29.25,55.76z"/>
		</g>
	</g>
	<g id="Микроконтроллер">
		<path class="st14" d="M69.1,28.62H34.49c-0.16,0-0.28,0.13-0.28,0.28v1.04h35.18V28.9C69.39,28.74,69.26,28.62,69.1,28.62z"/>
		<path class="st14" d="M69.39,50.05H34.21v1.04c0,0.16,0.13,0.28,0.28,0.28H69.1c0.16,0,0.28-0.13,0.28-0.28V50.05z"/>
		<g id="XMLID_32_">
			<g>
				<rect x="50.63" y="22.58" class="st15" width="2.37" height="3.43"/>
			</g>
			<g>
			</g>
		</g>
		<line class="st16" x1="51.82" y1="23.63" x2="51.82" y2="29.8"/>
		<g id="XMLID_44_">
			<g>
				<rect x="47.51" y="22.58" class="st15" width="2.37" height="3.43"/>
			</g>
			<g>
			</g>
		</g>
		<line class="st16" x1="48.69" y1="23.63" x2="48.69" y2="29.8"/>
		<g id="XMLID_43_">
			<g>
				<rect x="44.38" y="22.58" class="st15" width="2.37" height="3.43"/>
			</g>
			<g>
			</g>
		</g>
		<line class="st16" x1="45.57" y1="23.63" x2="45.57" y2="29.8"/>
		<g id="XMLID_37_">
			<g>
				<rect x="41.26" y="22.58" class="st15" width="2.37" height="3.43"/>
			</g>
			<g>
			</g>
		</g>
		<line class="st16" x1="42.44" y1="23.63" x2="42.44" y2="29.8"/>
		<g id="XMLID_28_">
			<g>
				<rect x="38.13" y="22.58" class="st15" width="2.37" height="3.43"/>
			</g>
			<g>
			</g>
		</g>
		<line class="st16" x1="39.32" y1="23.63" x2="39.32" y2="29.8"/>
		<g id="XMLID_27_">
			<g>
				<rect x="35.01" y="22.58" class="st15" width="2.37" height="3.43"/>
			</g>
			<g>
			</g>
		</g>
		<line class="st16" x1="36.19" y1="23.63" x2="36.19" y2="29.8"/>
		<line class="st17" x1="36.19" y1="29.8" x2="36.19" y2="28.62"/>
		<line class="st17" x1="39.32" y1="29.8" x2="39.32" y2="28.62"/>
		<line class="st17" x1="42.44" y1="29.8" x2="42.44" y2="28.62"/>
		<line class="st17" x1="45.57" y1="29.8" x2="45.57" y2="28.62"/>
		<line class="st17" x1="48.69" y1="29.8" x2="48.69" y2="28.62"/>
		<line class="st17" x1="51.82" y1="29.8" x2="51.82" y2="28.62"/>
		<g id="XMLID_26_">
			<g>
				<rect x="63.13" y="22.58" class="st15" width="2.37" height="3.43"/>
			</g>
			<g>
			</g>
		</g>
		<line class="st16" x1="64.31" y1="23.63" x2="64.31" y2="29.8"/>
		<g id="XMLID_1_">
			<g>
				<rect x="66.22" y="22.58" class="st15" width="2.37" height="3.43"/>
			</g>
			<g>
			</g>
		</g>
		<line class="st16" x1="67.4" y1="23.63" x2="67.4" y2="29.8"/>
		<g id="XMLID_25_">
			<g>
				<rect x="60.01" y="22.58" class="st15" width="2.37" height="3.43"/>
			</g>
			<g>
			</g>
		</g>
		<line class="st16" x1="61.19" y1="23.63" x2="61.19" y2="29.8"/>
		<g id="XMLID_24_">
			<g>
				<rect x="56.88" y="22.58" class="st15" width="2.37" height="3.43"/>
			</g>
			<g>
			</g>
		</g>
		<line class="st16" x1="58.06" y1="23.63" x2="58.06" y2="29.8"/>
		<g id="XMLID_12_">
			<g>
				<rect x="53.76" y="22.58" class="st15" width="2.37" height="3.43"/>
			</g>
			<g>
			</g>
		</g>
		<line class="st16" x1="54.94" y1="23.63" x2="54.94" y2="29.8"/>
		<line class="st17" x1="54.94" y1="29.8" x2="54.94" y2="28.62"/>
		<line class="st17" x1="58.06" y1="29.8" x2="58.06" y2="28.62"/>
		<line class="st17" x1="61.19" y1="29.8" x2="61.19" y2="28.62"/>
		<line class="st17" x1="64.31" y1="29.8" x2="64.31" y2="28.62"/>
		<line class="st17" x1="67.4" y1="29.8" x2="67.4" y2="28.62"/>
		<g id="XMLID_23_">
			<g>
				<rect x="47.51" y="53.97" class="st15" width="2.37" height="3.43"/>
			</g>
			<g>
			</g>
		</g>
		<line class="st16" x1="48.69" y1="56.36" x2="48.69" y2="50.18"/>
		<g id="XMLID_22_">
			<g>
				<rect x="50.63" y="53.97" class="st15" width="2.37" height="3.43"/>
			</g>
			<g>
			</g>
		</g>
		<line class="st16" x1="51.82" y1="56.36" x2="51.82" y2="50.18"/>
		<g id="XMLID_21_">
			<g>
				<rect x="53.76" y="53.97" class="st15" width="2.37" height="3.43"/>
			</g>
			<g>
			</g>
		</g>
		<line class="st16" x1="54.94" y1="56.36" x2="54.94" y2="50.18"/>
		<g id="XMLID_20_">
			<g>
				<rect x="56.88" y="53.97" class="st15" width="2.37" height="3.43"/>
			</g>
			<g>
			</g>
		</g>
		<line class="st16" x1="58.07" y1="56.36" x2="58.07" y2="50.18"/>
		<g id="XMLID_19_">
			<g>
				<rect x="60.01" y="53.97" class="st15" width="2.37" height="3.43"/>
			</g>
			<g>
			</g>
		</g>
		<line class="st16" x1="61.19" y1="56.36" x2="61.19" y2="50.18"/>
		<g id="XMLID_15_">
			<g>
				<rect x="63.13" y="53.97" class="st15" width="2.37" height="3.43"/>
			</g>
			<g>
			</g>
		</g>
		<line class="st16" x1="64.32" y1="56.36" x2="64.32" y2="50.18"/>
		<g id="XMLID_2_">
			<g>
				<rect x="66.22" y="53.97" class="st15" width="2.37" height="3.43"/>
			</g>
			<g>
			</g>
		</g>
		<line class="st16" x1="67.4" y1="56.36" x2="67.4" y2="50.18"/>
		<line class="st17" x1="64.32" y1="50.18" x2="64.32" y2="51.37"/>
		<line class="st17" x1="67.4" y1="50.18" x2="67.4" y2="51.37"/>
		<line class="st17" x1="61.19" y1="50.18" x2="61.19" y2="51.37"/>
		<line class="st17" x1="58.07" y1="50.18" x2="58.07" y2="51.37"/>
		<line class="st17" x1="54.94" y1="50.18" x2="54.94" y2="51.37"/>
		<line class="st17" x1="51.82" y1="50.18" x2="51.82" y2="51.37"/>
		<line class="st17" x1="48.69" y1="50.18" x2="48.69" y2="51.37"/>
		<g id="XMLID_14_">
			<g>
				<rect x="35.01" y="53.97" class="st15" width="2.37" height="3.43"/>
			</g>
			<g>
			</g>
		</g>
		<line class="st16" x1="36.2" y1="56.36" x2="36.2" y2="50.18"/>
		<g id="XMLID_11_">
			<g>
				<rect x="38.14" y="53.97" class="st15" width="2.37" height="3.43"/>
			</g>
			<g>
			</g>
		</g>
		<line class="st16" x1="39.32" y1="56.36" x2="39.32" y2="50.18"/>
		<g id="XMLID_10_">
			<g>
				<rect x="41.26" y="53.97" class="st15" width="2.37" height="3.43"/>
			</g>
			<g>
			</g>
		</g>
		<line class="st16" x1="42.45" y1="56.36" x2="42.45" y2="50.18"/>
		<g id="XMLID_3_">
			<g>
				<rect x="44.38" y="53.97" class="st15" width="2.37" height="3.43"/>
			</g>
			<g>
			</g>
		</g>
		<line class="st16" x1="45.57" y1="56.36" x2="45.57" y2="50.18"/>
		<line class="st17" x1="45.57" y1="50.18" x2="45.57" y2="51.37"/>
		<line class="st17" x1="42.44" y1="50.18" x2="42.44" y2="51.37"/>
		<line class="st17" x1="39.32" y1="50.18" x2="39.32" y2="51.37"/>
		<line class="st17" x1="36.19" y1="50.18" x2="36.19" y2="51.37"/>
		<path class="st18" d="M69.25,50.18H34.34c-0.07,0-0.13-0.06-0.13-0.13V29.93c0-0.07,0.06-0.13,0.13-0.13h34.91
			c0.07,0,0.13,0.06,0.13,0.13v7.34v5.43v7.34C69.39,50.12,69.33,50.18,69.25,50.18z"/>
	</g>
	<g id="Микроконтроллер_1_">
		<path class="st14" d="M108.98,28.62H74.37c-0.16,0-0.28,0.13-0.28,0.28v1.04h35.18V28.9C109.26,28.74,109.14,28.62,108.98,28.62z"
			/>
		<path class="st14" d="M109.26,50.05H74.08v1.04c0,0.16,0.13,0.28,0.28,0.28h34.61c0.16,0,0.28-0.13,0.28-0.28V50.05z"/>
		<g id="XMLID_47_">
			<g>
				<rect x="90.51" y="22.58" class="st15" width="2.37" height="3.43"/>
			</g>
			<g>
			</g>
		</g>
		<line class="st16" x1="91.69" y1="23.63" x2="91.69" y2="29.8"/>
		<g id="XMLID_46_">
			<g>
				<rect x="87.38" y="22.58" class="st15" width="2.37" height="3.43"/>
			</g>
			<g>
			</g>
		</g>
		<line class="st16" x1="88.57" y1="23.63" x2="88.57" y2="29.8"/>
		<g id="XMLID_45_">
			<g>
				<rect x="84.26" y="22.58" class="st15" width="2.37" height="3.43"/>
			</g>
			<g>
			</g>
		</g>
		<line class="st16" x1="85.44" y1="23.63" x2="85.44" y2="29.8"/>
		<g id="XMLID_39_">
			<g>
				<rect x="81.13" y="22.58" class="st15" width="2.37" height="3.43"/>
			</g>
			<g>
			</g>
		</g>
		<line class="st16" x1="82.32" y1="23.63" x2="82.32" y2="29.8"/>
		<g id="XMLID_38_">
			<g>
				<rect x="78.01" y="22.58" class="st15" width="2.37" height="3.43"/>
			</g>
			<g>
			</g>
		</g>
		<line class="st16" x1="79.19" y1="23.63" x2="79.19" y2="29.8"/>
		<g id="XMLID_36_">
			<g>
				<rect x="74.89" y="22.58" class="st15" width="2.37" height="3.43"/>
			</g>
			<g>
			</g>
		</g>
		<line class="st16" x1="76.07" y1="23.63" x2="76.07" y2="29.8"/>
		<line class="st17" x1="76.07" y1="29.8" x2="76.07" y2="28.62"/>
		<line class="st17" x1="79.19" y1="29.8" x2="79.19" y2="28.62"/>
		<line class="st17" x1="82.32" y1="29.8" x2="82.32" y2="28.62"/>
		<line class="st17" x1="85.44" y1="29.8" x2="85.44" y2="28.62"/>
		<line class="st17" x1="88.57" y1="29.8" x2="88.57" y2="28.62"/>
		<line class="st17" x1="91.69" y1="29.8" x2="91.69" y2="28.62"/>
		<g id="XMLID_35_">
			<g>
				<rect x="103.01" y="22.58" class="st15" width="2.37" height="3.43"/>
			</g>
			<g>
			</g>
		</g>
		<line class="st16" x1="104.19" y1="23.63" x2="104.19" y2="29.8"/>
		<g id="XMLID_34_">
			<g>
				<rect x="106.09" y="22.58" class="st15" width="2.37" height="3.43"/>
			</g>
			<g>
			</g>
		</g>
		<line class="st16" x1="107.27" y1="23.63" x2="107.27" y2="29.8"/>
		<g id="XMLID_33_">
			<g>
				<rect x="99.88" y="22.58" class="st15" width="2.37" height="3.43"/>
			</g>
			<g>
			</g>
		</g>
		<line class="st16" x1="101.06" y1="23.63" x2="101.06" y2="29.8"/>
		<g id="XMLID_31_">
			<g>
				<rect x="96.76" y="22.58" class="st15" width="2.37" height="3.43"/>
			</g>
			<g>
			</g>
		</g>
		<line class="st16" x1="97.94" y1="23.63" x2="97.94" y2="29.8"/>
		<g id="XMLID_30_">
			<g>
				<rect x="93.63" y="22.58" class="st15" width="2.37" height="3.43"/>
			</g>
			<g>
			</g>
		</g>
		<line class="st16" x1="94.82" y1="23.63" x2="94.82" y2="29.8"/>
		<line class="st17" x1="94.82" y1="29.8" x2="94.82" y2="28.62"/>
		<line class="st17" x1="97.94" y1="29.8" x2="97.94" y2="28.62"/>
		<line class="st17" x1="101.06" y1="29.8" x2="101.06" y2="28.62"/>
		<line class="st17" x1="104.19" y1="29.8" x2="104.19" y2="28.62"/>
		<line class="st17" x1="107.28" y1="29.8" x2="107.28" y2="28.62"/>
		<g id="XMLID_29_">
			<g>
				<rect x="87.38" y="53.97" class="st15" width="2.37" height="3.43"/>
			</g>
			<g>
			</g>
		</g>
		<line class="st16" x1="88.57" y1="56.36" x2="88.57" y2="50.18"/>
		<g id="XMLID_18_">
			<g>
				<rect x="90.51" y="53.97" class="st15" width="2.37" height="3.43"/>
			</g>
			<g>
			</g>
		</g>
		<line class="st16" x1="91.69" y1="56.36" x2="91.69" y2="50.18"/>
		<g id="XMLID_17_">
			<g>
				<rect x="93.63" y="53.97" class="st15" width="2.37" height="3.43"/>
			</g>
			<g>
			</g>
		</g>
		<line class="st16" x1="94.82" y1="56.36" x2="94.82" y2="50.18"/>
		<g id="XMLID_16_">
			<g>
				<rect x="96.76" y="53.97" class="st15" width="2.37" height="3.43"/>
			</g>
			<g>
			</g>
		</g>
		<line class="st16" x1="97.94" y1="56.36" x2="97.94" y2="50.18"/>
		<g id="XMLID_13_">
			<g>
				<rect x="99.88" y="53.97" class="st15" width="2.37" height="3.43"/>
			</g>
			<g>
			</g>
		</g>
		<line class="st16" x1="101.07" y1="56.36" x2="101.07" y2="50.18"/>
		<g id="XMLID_9_">
			<g>
				<rect x="103.01" y="53.97" class="st15" width="2.37" height="3.43"/>
			</g>
			<g>
			</g>
		</g>
		<line class="st16" x1="104.19" y1="56.36" x2="104.19" y2="50.18"/>
		<g id="XMLID_8_">
			<g>
				<rect x="106.09" y="53.97" class="st15" width="2.37" height="3.43"/>
			</g>
			<g>
			</g>
		</g>
		<line class="st16" x1="107.28" y1="56.36" x2="107.28" y2="50.18"/>
		<line class="st17" x1="104.19" y1="50.18" x2="104.19" y2="51.37"/>
		<line class="st17" x1="107.28" y1="50.18" x2="107.28" y2="51.37"/>
		<line class="st17" x1="101.07" y1="50.18" x2="101.07" y2="51.37"/>
		<line class="st17" x1="97.94" y1="50.18" x2="97.94" y2="51.37"/>
		<line class="st17" x1="94.82" y1="50.18" x2="94.82" y2="51.37"/>
		<line class="st17" x1="91.69" y1="50.18" x2="91.69" y2="51.37"/>
		<line class="st17" x1="88.57" y1="50.18" x2="88.57" y2="51.37"/>
		<g id="XMLID_7_">
			<g>
				<rect x="74.89" y="53.97" class="st15" width="2.37" height="3.43"/>
			</g>
			<g>
			</g>
		</g>
		<line class="st16" x1="76.07" y1="56.36" x2="76.07" y2="50.18"/>
		<g id="XMLID_6_">
			<g>
				<rect x="78.01" y="53.97" class="st15" width="2.37" height="3.43"/>
			</g>
			<g>
			</g>
		</g>
		<line class="st16" x1="79.2" y1="56.36" x2="79.2" y2="50.18"/>
		<g id="XMLID_5_">
			<g>
				<rect x="81.14" y="53.97" class="st15" width="2.37" height="3.43"/>
			</g>
			<g>
			</g>
		</g>
		<line class="st16" x1="82.32" y1="56.36" x2="82.32" y2="50.18"/>
		<g id="XMLID_4_">
			<g>
				<rect x="84.26" y="53.97" class="st15" width="2.37" height="3.43"/>
			</g>
			<g>
			</g>
		</g>
		<line class="st16" x1="85.45" y1="56.36" x2="85.45" y2="50.18"/>
		<line class="st17" x1="85.44" y1="50.18" x2="85.44" y2="51.37"/>
		<line class="st17" x1="82.32" y1="50.18" x2="82.32" y2="51.37"/>
		<line class="st17" x1="79.19" y1="50.18" x2="79.19" y2="51.37"/>
		<line class="st17" x1="76.07" y1="50.18" x2="76.07" y2="51.37"/>
		<path class="st18" d="M109.13,50.18H74.22c-0.07,0-0.13-0.06-0.13-0.13V29.93c0-0.07,0.06-0.13,0.13-0.13h34.91
			c0.07,0,0.13,0.06,0.13,0.13v7.34v5.43v7.34C109.26,50.12,109.2,50.18,109.13,50.18z"/>
	</g>
	<rect x="111.33" y="36.97" class="st18" width="79.14" height="25.14"/>
	<g>
		
			<rect x="31.1" y="10.36" transform="matrix(6.123234e-17 -1 1 6.123234e-17 20.7203 43.2525)" class="st5" width="1.77" height="1.81"/>
		
			<rect x="31.5" y="10.77" transform="matrix(6.123234e-17 -1 1 6.123234e-17 20.7203 43.2525)" class="st6" width="0.97" height="0.99"/>
		<line class="st7" x1="31.08" y1="12.15" x2="31.49" y2="11.75"/>
		<line class="st7" x1="31.49" y1="10.78" x2="31.08" y2="10.38"/>
		<line class="st7" x1="32.48" y1="10.78" x2="32.89" y2="10.38"/>
		<line class="st7" x1="32.48" y1="11.75" x2="32.89" y2="12.15"/>
	</g>
	<g>
		
			<rect x="38.31" y="10.36" transform="matrix(6.123234e-17 -1 1 6.123234e-17 27.9262 50.4584)" class="st5" width="1.77" height="1.81"/>
		
			<rect x="38.71" y="10.77" transform="matrix(6.123234e-17 -1 1 6.123234e-17 27.9262 50.4584)" class="st6" width="0.97" height="0.99"/>
		<line class="st7" x1="38.29" y1="12.15" x2="38.7" y2="11.75"/>
		<line class="st7" x1="38.7" y1="10.78" x2="38.29" y2="10.38"/>
		<line class="st7" x1="39.69" y1="10.78" x2="40.1" y2="10.38"/>
		<line class="st7" x1="39.69" y1="11.75" x2="40.1" y2="12.15"/>
	</g>
	<g>
		
			<rect x="38.31" y="17.38" transform="matrix(6.123234e-17 -1 1 6.123234e-17 20.905 57.4797)" class="st5" width="1.77" height="1.81"/>
		
			<rect x="38.71" y="17.79" transform="matrix(6.123234e-17 -1 1 6.123234e-17 20.905 57.4797)" class="st6" width="0.97" height="0.99"/>
		<line class="st7" x1="38.29" y1="19.17" x2="38.7" y2="18.77"/>
		<line class="st7" x1="38.7" y1="17.8" x2="38.29" y2="17.4"/>
		<line class="st7" x1="39.69" y1="17.8" x2="40.1" y2="17.4"/>
		<line class="st7" x1="39.69" y1="18.77" x2="40.1" y2="19.17"/>
	</g>
	<g>
		
			<rect x="31.1" y="17.38" transform="matrix(6.123234e-17 -1 1 6.123234e-17 13.699 50.2738)" class="st5" width="1.77" height="1.81"/>
		
			<rect x="31.5" y="17.79" transform="matrix(6.123234e-17 -1 1 6.123234e-17 13.699 50.2738)" class="st6" width="0.97" height="0.99"/>
		<line class="st7" x1="31.08" y1="19.17" x2="31.49" y2="18.77"/>
		<line class="st7" x1="31.49" y1="17.8" x2="31.08" y2="17.4"/>
		<line class="st7" x1="32.48" y1="17.8" x2="32.89" y2="17.4"/>
		<line class="st7" x1="32.48" y1="18.77" x2="32.89" y2="19.17"/>
	</g>
	<g>
		
			<rect x="45.59" y="10.36" transform="matrix(6.123234e-17 -1 1 6.123234e-17 35.208 57.7402)" class="st5" width="1.77" height="1.81"/>
		
			<rect x="45.99" y="10.77" transform="matrix(6.123234e-17 -1 1 6.123234e-17 35.208 57.7402)" class="st6" width="0.97" height="0.99"/>
		<line class="st7" x1="45.57" y1="12.15" x2="45.98" y2="11.75"/>
		<line class="st7" x1="45.98" y1="10.78" x2="45.57" y2="10.38"/>
		<line class="st7" x1="46.97" y1="10.78" x2="47.38" y2="10.38"/>
		<line class="st7" x1="46.97" y1="11.75" x2="47.38" y2="12.15"/>
	</g>
	<g>
		
			<rect x="52.8" y="10.36" transform="matrix(6.123234e-17 -1 1 6.123234e-17 42.4139 64.9461)" class="st5" width="1.77" height="1.81"/>
		
			<rect x="53.2" y="10.77" transform="matrix(6.123234e-17 -1 1 6.123234e-17 42.4139 64.9461)" class="st6" width="0.97" height="0.99"/>
		<line class="st7" x1="52.77" y1="12.15" x2="53.18" y2="11.75"/>
		<line class="st7" x1="53.18" y1="10.78" x2="52.77" y2="10.38"/>
		<line class="st7" x1="54.18" y1="10.78" x2="54.59" y2="10.38"/>
		<line class="st7" x1="54.18" y1="11.75" x2="54.59" y2="12.15"/>
	</g>
	<g>
		
			<rect x="52.8" y="17.38" transform="matrix(6.123234e-17 -1 1 6.123234e-17 35.3927 71.9674)" class="st5" width="1.77" height="1.81"/>
		
			<rect x="53.2" y="17.79" transform="matrix(6.123234e-17 -1 1 6.123234e-17 35.3927 71.9674)" class="st6" width="0.97" height="0.99"/>
		<line class="st7" x1="52.77" y1="19.17" x2="53.18" y2="18.77"/>
		<line class="st7" x1="53.18" y1="17.8" x2="52.77" y2="17.4"/>
		<line class="st7" x1="54.18" y1="17.8" x2="54.59" y2="17.4"/>
		<line class="st7" x1="54.18" y1="18.77" x2="54.59" y2="19.17"/>
	</g>
	<g>
		
			<rect x="45.59" y="17.38" transform="matrix(6.123234e-17 -1 1 6.123234e-17 28.1868 64.7615)" class="st5" width="1.77" height="1.81"/>
		
			<rect x="45.99" y="17.79" transform="matrix(6.123234e-17 -1 1 6.123234e-17 28.1868 64.7615)" class="st6" width="0.97" height="0.99"/>
		<line class="st7" x1="45.57" y1="19.17" x2="45.98" y2="18.77"/>
		<line class="st7" x1="45.98" y1="17.8" x2="45.57" y2="17.4"/>
		<line class="st7" x1="46.97" y1="17.8" x2="47.38" y2="17.4"/>
		<line class="st7" x1="46.97" y1="18.77" x2="47.38" y2="19.17"/>
	</g>
	<g>
		
			<rect x="59.96" y="10.36" transform="matrix(6.123234e-17 -1 1 6.123234e-17 49.5774 72.1096)" class="st5" width="1.77" height="1.81"/>
		
			<rect x="60.36" y="10.77" transform="matrix(6.123234e-17 -1 1 6.123234e-17 49.5774 72.1096)" class="st6" width="0.97" height="0.99"/>
		<line class="st7" x1="59.94" y1="12.15" x2="60.35" y2="11.75"/>
		<line class="st7" x1="60.35" y1="10.78" x2="59.94" y2="10.38"/>
		<line class="st7" x1="61.34" y1="10.78" x2="61.75" y2="10.38"/>
		<line class="st7" x1="61.34" y1="11.75" x2="61.75" y2="12.15"/>
	</g>
	<g>
		
			<rect x="67.17" y="10.36" transform="matrix(6.123234e-17 -1 1 6.123234e-17 56.7834 79.3156)" class="st5" width="1.77" height="1.81"/>
		
			<rect x="67.57" y="10.77" transform="matrix(6.123234e-17 -1 1 6.123234e-17 56.7834 79.3156)" class="st6" width="0.97" height="0.99"/>
		<line class="st7" x1="67.14" y1="12.15" x2="67.55" y2="11.75"/>
		<line class="st7" x1="67.55" y1="10.78" x2="67.14" y2="10.38"/>
		<line class="st7" x1="68.55" y1="10.78" x2="68.96" y2="10.38"/>
		<line class="st7" x1="68.55" y1="11.75" x2="68.96" y2="12.15"/>
	</g>
	<g>
		
			<rect x="67.17" y="17.38" transform="matrix(6.123234e-17 -1 1 6.123234e-17 49.7621 86.3368)" class="st5" width="1.77" height="1.81"/>
		
			<rect x="67.57" y="17.79" transform="matrix(6.123234e-17 -1 1 6.123234e-17 49.7621 86.3368)" class="st6" width="0.97" height="0.99"/>
		<line class="st7" x1="67.14" y1="19.17" x2="67.55" y2="18.77"/>
		<line class="st7" x1="67.55" y1="17.8" x2="67.14" y2="17.4"/>
		<line class="st7" x1="68.55" y1="17.8" x2="68.96" y2="17.4"/>
		<line class="st7" x1="68.55" y1="18.77" x2="68.96" y2="19.17"/>
	</g>
	<g>
		
			<rect x="59.96" y="17.38" transform="matrix(6.123234e-17 -1 1 6.123234e-17 42.5562 79.1309)" class="st5" width="1.77" height="1.81"/>
		
			<rect x="60.36" y="17.79" transform="matrix(6.123234e-17 -1 1 6.123234e-17 42.5562 79.1309)" class="st6" width="0.97" height="0.99"/>
		<line class="st7" x1="59.94" y1="19.17" x2="60.35" y2="18.77"/>
		<line class="st7" x1="60.35" y1="17.8" x2="59.94" y2="17.4"/>
		<line class="st7" x1="61.34" y1="17.8" x2="61.75" y2="17.4"/>
		<line class="st7" x1="61.34" y1="18.77" x2="61.75" y2="19.17"/>
	</g>
	<g>
		
			<rect x="74.45" y="10.36" transform="matrix(6.123234e-17 -1 1 6.123234e-17 64.0651 86.5973)" class="st5" width="1.77" height="1.81"/>
		
			<rect x="74.85" y="10.77" transform="matrix(6.123234e-17 -1 1 6.123234e-17 64.0651 86.5973)" class="st6" width="0.97" height="0.99"/>
		<line class="st7" x1="74.42" y1="12.15" x2="74.84" y2="11.75"/>
		<line class="st7" x1="74.84" y1="10.78" x2="74.42" y2="10.38"/>
		<line class="st7" x1="75.83" y1="10.78" x2="76.24" y2="10.38"/>
		<line class="st7" x1="75.83" y1="11.75" x2="76.24" y2="12.15"/>
	</g>
	<g>
		
			<rect x="81.65" y="10.36" transform="matrix(6.123234e-17 -1 1 6.123234e-17 71.2711 93.8033)" class="st5" width="1.77" height="1.81"/>
		
			<rect x="82.05" y="10.77" transform="matrix(6.123234e-17 -1 1 6.123234e-17 71.2711 93.8033)" class="st6" width="0.97" height="0.99"/>
		<line class="st7" x1="81.63" y1="12.15" x2="82.04" y2="11.75"/>
		<line class="st7" x1="82.04" y1="10.78" x2="81.63" y2="10.38"/>
		<line class="st7" x1="83.03" y1="10.78" x2="83.44" y2="10.38"/>
		<line class="st7" x1="83.03" y1="11.75" x2="83.44" y2="12.15"/>
	</g>
	<g>
		
			<rect x="81.65" y="17.38" transform="matrix(6.123234e-17 -1 1 6.123234e-17 64.2498 100.8245)" class="st5" width="1.77" height="1.81"/>
		
			<rect x="82.05" y="17.79" transform="matrix(6.123234e-17 -1 1 6.123234e-17 64.2498 100.8245)" class="st6" width="0.97" height="0.99"/>
		<line class="st7" x1="81.63" y1="19.17" x2="82.04" y2="18.77"/>
		<line class="st7" x1="82.04" y1="17.8" x2="81.63" y2="17.4"/>
		<line class="st7" x1="83.03" y1="17.8" x2="83.44" y2="17.4"/>
		<line class="st7" x1="83.03" y1="18.77" x2="83.44" y2="19.17"/>
	</g>
	<g>
		
			<rect x="74.45" y="17.38" transform="matrix(6.123234e-17 -1 1 6.123234e-17 57.0439 93.6186)" class="st5" width="1.77" height="1.81"/>
		
			<rect x="74.85" y="17.79" transform="matrix(6.123234e-17 -1 1 6.123234e-17 57.0439 93.6186)" class="st6" width="0.97" height="0.99"/>
		<line class="st7" x1="74.42" y1="19.17" x2="74.84" y2="18.77"/>
		<line class="st7" x1="74.84" y1="17.8" x2="74.42" y2="17.4"/>
		<line class="st7" x1="75.83" y1="17.8" x2="76.24" y2="17.4"/>
		<line class="st7" x1="75.83" y1="18.77" x2="76.24" y2="19.17"/>
	</g>
	<g>
		
			<rect x="88.59" y="10.36" transform="matrix(6.123234e-17 -1 1 6.123234e-17 78.2093 100.7415)" class="st5" width="1.77" height="1.81"/>
		
			<rect x="88.99" y="10.77" transform="matrix(6.123234e-17 -1 1 6.123234e-17 78.2093 100.7415)" class="st6" width="0.97" height="0.99"/>
		<line class="st7" x1="88.57" y1="12.15" x2="88.98" y2="11.75"/>
		<line class="st7" x1="88.98" y1="10.78" x2="88.57" y2="10.38"/>
		<line class="st7" x1="89.97" y1="10.78" x2="90.38" y2="10.38"/>
		<line class="st7" x1="89.97" y1="11.75" x2="90.38" y2="12.15"/>
	</g>
	<g>
		
			<rect x="95.8" y="10.36" transform="matrix(6.123234e-17 -1 1 6.123234e-17 85.4152 107.9474)" class="st5" width="1.77" height="1.81"/>
		
			<rect x="96.2" y="10.77" transform="matrix(6.123234e-17 -1 1 6.123234e-17 85.4152 107.9474)" class="st6" width="0.97" height="0.99"/>
		<line class="st7" x1="95.77" y1="12.15" x2="96.19" y2="11.75"/>
		<line class="st7" x1="96.19" y1="10.78" x2="95.77" y2="10.38"/>
		<line class="st7" x1="97.18" y1="10.78" x2="97.59" y2="10.38"/>
		<line class="st7" x1="97.18" y1="11.75" x2="97.59" y2="12.15"/>
	</g>
	<g>
		
			<rect x="95.8" y="17.38" transform="matrix(6.123234e-17 -1 1 6.123234e-17 78.394 114.9687)" class="st5" width="1.77" height="1.81"/>
		
			<rect x="96.2" y="17.79" transform="matrix(6.123234e-17 -1 1 6.123234e-17 78.394 114.9687)" class="st6" width="0.97" height="0.99"/>
		<line class="st7" x1="95.77" y1="19.17" x2="96.19" y2="18.77"/>
		<line class="st7" x1="96.19" y1="17.8" x2="95.77" y2="17.4"/>
		<line class="st7" x1="97.18" y1="17.8" x2="97.59" y2="17.4"/>
		<line class="st7" x1="97.18" y1="18.77" x2="97.59" y2="19.17"/>
	</g>
	<g>
		
			<rect x="88.59" y="17.38" transform="matrix(6.123234e-17 -1 1 6.123234e-17 71.188 107.7627)" class="st5" width="1.77" height="1.81"/>
		
			<rect x="88.99" y="17.79" transform="matrix(6.123234e-17 -1 1 6.123234e-17 71.188 107.7627)" class="st6" width="0.97" height="0.99"/>
		<line class="st7" x1="88.57" y1="19.17" x2="88.98" y2="18.77"/>
		<line class="st7" x1="88.98" y1="17.8" x2="88.57" y2="17.4"/>
		<line class="st7" x1="89.97" y1="17.8" x2="90.38" y2="17.4"/>
		<line class="st7" x1="89.97" y1="18.77" x2="90.38" y2="19.17"/>
	</g>
	<g>
		
			<rect x="103.08" y="10.36" transform="matrix(6.123234e-17 -1 1 6.123234e-17 92.697 115.2292)" class="st5" width="1.77" height="1.81"/>
		
			<rect x="103.48" y="10.77" transform="matrix(6.123234e-17 -1 1 6.123234e-17 92.697 115.2292)" class="st6" width="0.97" height="0.99"/>
		<line class="st7" x1="103.06" y1="12.15" x2="103.47" y2="11.75"/>
		<line class="st7" x1="103.47" y1="10.78" x2="103.06" y2="10.38"/>
		<line class="st7" x1="104.46" y1="10.78" x2="104.87" y2="10.38"/>
		<line class="st7" x1="104.46" y1="11.75" x2="104.87" y2="12.15"/>
	</g>
	<g>
		
			<rect x="110.29" y="10.36" transform="matrix(6.123234e-17 -1 1 6.123234e-17 99.9029 122.4351)" class="st5" width="1.77" height="1.81"/>
		
			<rect x="110.69" y="10.77" transform="matrix(6.123234e-17 -1 1 6.123234e-17 99.9029 122.4351)" class="st6" width="0.97" height="0.99"/>
		<line class="st7" x1="110.26" y1="12.15" x2="110.67" y2="11.75"/>
		<line class="st7" x1="110.67" y1="10.78" x2="110.26" y2="10.38"/>
		<line class="st7" x1="111.67" y1="10.78" x2="112.08" y2="10.38"/>
		<line class="st7" x1="111.67" y1="11.75" x2="112.08" y2="12.15"/>
	</g>
	<g>
		
			<rect x="110.29" y="17.38" transform="matrix(6.123234e-17 -1 1 6.123234e-17 92.8817 129.4564)" class="st5" width="1.77" height="1.81"/>
		
			<rect x="110.69" y="17.79" transform="matrix(6.123234e-17 -1 1 6.123234e-17 92.8817 129.4564)" class="st6" width="0.97" height="0.99"/>
		<line class="st7" x1="110.26" y1="19.17" x2="110.67" y2="18.77"/>
		<line class="st7" x1="110.67" y1="17.8" x2="110.26" y2="17.4"/>
		<line class="st7" x1="111.67" y1="17.8" x2="112.08" y2="17.4"/>
		<line class="st7" x1="111.67" y1="18.77" x2="112.08" y2="19.17"/>
	</g>
	<g>
		
			<rect x="103.08" y="17.38" transform="matrix(6.123234e-17 -1 1 6.123234e-17 85.6757 122.2504)" class="st5" width="1.77" height="1.81"/>
		
			<rect x="103.48" y="17.79" transform="matrix(6.123234e-17 -1 1 6.123234e-17 85.6757 122.2504)" class="st6" width="0.97" height="0.99"/>
		<line class="st7" x1="103.06" y1="19.17" x2="103.47" y2="18.77"/>
		<line class="st7" x1="103.47" y1="17.8" x2="103.06" y2="17.4"/>
		<line class="st7" x1="104.46" y1="17.8" x2="104.87" y2="17.4"/>
		<line class="st7" x1="104.46" y1="18.77" x2="104.87" y2="19.17"/>
	</g>
	<g>
		
			<rect x="117.45" y="10.36" transform="matrix(6.123234e-17 -1 1 6.123234e-17 107.0664 129.5986)" class="st5" width="1.77" height="1.81"/>
		
			<rect x="117.85" y="10.77" transform="matrix(6.123234e-17 -1 1 6.123234e-17 107.0664 129.5986)" class="st6" width="0.97" height="0.99"/>
		<line class="st7" x1="117.43" y1="12.15" x2="117.84" y2="11.75"/>
		<line class="st7" x1="117.84" y1="10.78" x2="117.43" y2="10.38"/>
		<line class="st7" x1="118.83" y1="10.78" x2="119.24" y2="10.38"/>
		<line class="st7" x1="118.83" y1="11.75" x2="119.24" y2="12.15"/>
	</g>
	<g>
		
			<rect x="124.65" y="10.36" transform="matrix(6.123234e-17 -1 1 6.123234e-17 114.2724 136.8046)" class="st5" width="1.77" height="1.81"/>
		
			<rect x="125.06" y="10.77" transform="matrix(6.123234e-17 -1 1 6.123234e-17 114.2724 136.8046)" class="st6" width="0.97" height="0.99"/>
		<line class="st7" x1="124.63" y1="12.15" x2="125.04" y2="11.75"/>
		<line class="st7" x1="125.04" y1="10.78" x2="124.63" y2="10.38"/>
		<line class="st7" x1="126.03" y1="10.78" x2="126.45" y2="10.38"/>
		<line class="st7" x1="126.03" y1="11.75" x2="126.45" y2="12.15"/>
	</g>
	<g>
		
			<rect x="124.65" y="17.38" transform="matrix(6.123234e-17 -1 1 6.123234e-17 107.2511 143.8258)" class="st5" width="1.77" height="1.81"/>
		
			<rect x="125.06" y="17.79" transform="matrix(6.123234e-17 -1 1 6.123234e-17 107.2511 143.8258)" class="st6" width="0.97" height="0.99"/>
		<line class="st7" x1="124.63" y1="19.17" x2="125.04" y2="18.77"/>
		<line class="st7" x1="125.04" y1="17.8" x2="124.63" y2="17.4"/>
		<line class="st7" x1="126.03" y1="17.8" x2="126.45" y2="17.4"/>
		<line class="st7" x1="126.03" y1="18.77" x2="126.45" y2="19.17"/>
	</g>
	<g>
		
			<rect x="117.45" y="17.38" transform="matrix(6.123234e-17 -1 1 6.123234e-17 100.0452 136.6199)" class="st5" width="1.77" height="1.81"/>
		
			<rect x="117.85" y="17.79" transform="matrix(6.123234e-17 -1 1 6.123234e-17 100.0452 136.6199)" class="st6" width="0.97" height="0.99"/>
		<line class="st7" x1="117.43" y1="19.17" x2="117.84" y2="18.77"/>
		<line class="st7" x1="117.84" y1="17.8" x2="117.43" y2="17.4"/>
		<line class="st7" x1="118.83" y1="17.8" x2="119.24" y2="17.4"/>
		<line class="st7" x1="118.83" y1="18.77" x2="119.24" y2="19.17"/>
	</g>
	<g>
		
			<rect x="131.94" y="10.36" transform="matrix(6.123234e-17 -1 1 6.123234e-17 121.5541 144.0863)" class="st5" width="1.77" height="1.81"/>
		
			<rect x="132.34" y="10.77" transform="matrix(6.123234e-17 -1 1 6.123234e-17 121.5541 144.0863)" class="st6" width="0.97" height="0.99"/>
		<line class="st7" x1="131.91" y1="12.15" x2="132.32" y2="11.75"/>
		<line class="st7" x1="132.32" y1="10.78" x2="131.91" y2="10.38"/>
		<line class="st7" x1="133.32" y1="10.78" x2="133.73" y2="10.38"/>
		<line class="st7" x1="133.32" y1="11.75" x2="133.73" y2="12.15"/>
	</g>
	<g>
		
			<rect x="139.14" y="10.36" transform="matrix(6.123234e-17 -1 1 6.123234e-17 128.7601 151.2923)" class="st5" width="1.77" height="1.81"/>
		
			<rect x="139.54" y="10.77" transform="matrix(6.123234e-17 -1 1 6.123234e-17 128.7601 151.2923)" class="st6" width="0.97" height="0.99"/>
		<line class="st7" x1="139.12" y1="12.15" x2="139.53" y2="11.75"/>
		<line class="st7" x1="139.53" y1="10.78" x2="139.12" y2="10.38"/>
		<line class="st7" x1="140.52" y1="10.78" x2="140.93" y2="10.38"/>
		<line class="st7" x1="140.52" y1="11.75" x2="140.93" y2="12.15"/>
	</g>
	<g>
		
			<rect x="139.14" y="17.38" transform="matrix(6.123234e-17 -1 1 6.123234e-17 121.7388 158.3135)" class="st5" width="1.77" height="1.81"/>
		
			<rect x="139.54" y="17.79" transform="matrix(6.123234e-17 -1 1 6.123234e-17 121.7388 158.3135)" class="st6" width="0.97" height="0.99"/>
		<line class="st7" x1="139.12" y1="19.17" x2="139.53" y2="18.77"/>
		<line class="st7" x1="139.53" y1="17.8" x2="139.12" y2="17.4"/>
		<line class="st7" x1="140.52" y1="17.8" x2="140.93" y2="17.4"/>
		<line class="st7" x1="140.52" y1="18.77" x2="140.93" y2="19.17"/>
	</g>
	<g>
		
			<rect x="131.94" y="17.38" transform="matrix(6.123234e-17 -1 1 6.123234e-17 114.5329 151.1076)" class="st5" width="1.77" height="1.81"/>
		
			<rect x="132.34" y="17.79" transform="matrix(6.123234e-17 -1 1 6.123234e-17 114.5329 151.1076)" class="st6" width="0.97" height="0.99"/>
		<line class="st7" x1="131.91" y1="19.17" x2="132.32" y2="18.77"/>
		<line class="st7" x1="132.32" y1="17.8" x2="131.91" y2="17.4"/>
		<line class="st7" x1="133.32" y1="17.8" x2="133.73" y2="17.4"/>
		<line class="st7" x1="133.32" y1="18.77" x2="133.73" y2="19.17"/>
	</g>
	<g>
		
			<rect x="146.28" y="10.36" transform="matrix(6.123234e-17 -1 1 6.123234e-17 135.894 158.4262)" class="st5" width="1.77" height="1.81"/>
		
			<rect x="146.68" y="10.77" transform="matrix(6.123234e-17 -1 1 6.123234e-17 135.894 158.4262)" class="st6" width="0.97" height="0.99"/>
		<line class="st7" x1="146.25" y1="12.15" x2="146.66" y2="11.75"/>
		<line class="st7" x1="146.66" y1="10.78" x2="146.25" y2="10.38"/>
		<line class="st7" x1="147.66" y1="10.78" x2="148.07" y2="10.38"/>
		<line class="st7" x1="147.66" y1="11.75" x2="148.07" y2="12.15"/>
	</g>
	<g>
		
			<rect x="153.48" y="10.36" transform="matrix(6.123234e-17 -1 1 6.123234e-17 143.0999 165.6321)" class="st5" width="1.77" height="1.81"/>
		
			<rect x="153.88" y="10.77" transform="matrix(6.123234e-17 -1 1 6.123234e-17 143.0999 165.6321)" class="st6" width="0.97" height="0.99"/>
		<line class="st7" x1="153.46" y1="12.15" x2="153.87" y2="11.75"/>
		<line class="st7" x1="153.87" y1="10.78" x2="153.46" y2="10.38"/>
		<line class="st7" x1="154.86" y1="10.78" x2="155.27" y2="10.38"/>
		<line class="st7" x1="154.86" y1="11.75" x2="155.27" y2="12.15"/>
	</g>
	<g>
		
			<rect x="153.48" y="17.38" transform="matrix(6.123234e-17 -1 1 6.123234e-17 136.0787 172.6534)" class="st5" width="1.77" height="1.81"/>
		
			<rect x="153.88" y="17.79" transform="matrix(6.123234e-17 -1 1 6.123234e-17 136.0787 172.6534)" class="st6" width="0.97" height="0.99"/>
		<line class="st7" x1="153.46" y1="19.17" x2="153.87" y2="18.77"/>
		<line class="st7" x1="153.87" y1="17.8" x2="153.46" y2="17.4"/>
		<line class="st7" x1="154.86" y1="17.8" x2="155.27" y2="17.4"/>
		<line class="st7" x1="154.86" y1="18.77" x2="155.27" y2="19.17"/>
	</g>
	<g>
		
			<rect x="146.28" y="17.38" transform="matrix(6.123234e-17 -1 1 6.123234e-17 128.8727 165.4474)" class="st5" width="1.77" height="1.81"/>
		
			<rect x="146.68" y="17.79" transform="matrix(6.123234e-17 -1 1 6.123234e-17 128.8727 165.4474)" class="st6" width="0.97" height="0.99"/>
		<line class="st7" x1="146.25" y1="19.17" x2="146.66" y2="18.77"/>
		<line class="st7" x1="146.66" y1="17.8" x2="146.25" y2="17.4"/>
		<line class="st7" x1="147.66" y1="17.8" x2="148.07" y2="17.4"/>
		<line class="st7" x1="147.66" y1="18.77" x2="148.07" y2="19.17"/>
	</g>
	<g>
		
			<rect x="160.76" y="10.36" transform="matrix(6.123234e-17 -1 1 6.123234e-17 150.3817 172.9139)" class="st5" width="1.77" height="1.81"/>
		
			<rect x="161.16" y="10.77" transform="matrix(6.123234e-17 -1 1 6.123234e-17 150.3817 172.9139)" class="st6" width="0.97" height="0.99"/>
		<line class="st7" x1="160.74" y1="12.15" x2="161.15" y2="11.75"/>
		<line class="st7" x1="161.15" y1="10.78" x2="160.74" y2="10.38"/>
		<line class="st7" x1="162.14" y1="10.78" x2="162.55" y2="10.38"/>
		<line class="st7" x1="162.14" y1="11.75" x2="162.55" y2="12.15"/>
	</g>
	<g>
		
			<rect x="167.97" y="10.36" transform="matrix(6.123234e-17 -1 1 6.123234e-17 157.5876 180.1198)" class="st5" width="1.77" height="1.81"/>
		
			<rect x="168.37" y="10.77" transform="matrix(6.123234e-17 -1 1 6.123234e-17 157.5876 180.1198)" class="st6" width="0.97" height="0.99"/>
		<line class="st7" x1="167.95" y1="12.15" x2="168.36" y2="11.75"/>
		<line class="st7" x1="168.36" y1="10.78" x2="167.95" y2="10.38"/>
		<line class="st7" x1="169.35" y1="10.78" x2="169.76" y2="10.38"/>
		<line class="st7" x1="169.35" y1="11.75" x2="169.76" y2="12.15"/>
	</g>
	<g>
		
			<rect x="167.97" y="17.38" transform="matrix(6.123234e-17 -1 1 6.123234e-17 150.5663 187.1411)" class="st5" width="1.77" height="1.81"/>
		
			<rect x="168.37" y="17.79" transform="matrix(6.123234e-17 -1 1 6.123234e-17 150.5663 187.1411)" class="st6" width="0.97" height="0.99"/>
		<line class="st7" x1="167.95" y1="19.17" x2="168.36" y2="18.77"/>
		<line class="st7" x1="168.36" y1="17.8" x2="167.95" y2="17.4"/>
		<line class="st7" x1="169.35" y1="17.8" x2="169.76" y2="17.4"/>
		<line class="st7" x1="169.35" y1="18.77" x2="169.76" y2="19.17"/>
	</g>
	<g>
		
			<rect x="160.76" y="17.38" transform="matrix(6.123234e-17 -1 1 6.123234e-17 143.3604 179.9351)" class="st5" width="1.77" height="1.81"/>
		
			<rect x="161.16" y="17.79" transform="matrix(6.123234e-17 -1 1 6.123234e-17 143.3604 179.9351)" class="st6" width="0.97" height="0.99"/>
		<line class="st7" x1="160.74" y1="19.17" x2="161.15" y2="18.77"/>
		<line class="st7" x1="161.15" y1="17.8" x2="160.74" y2="17.4"/>
		<line class="st7" x1="162.14" y1="17.8" x2="162.55" y2="17.4"/>
		<line class="st7" x1="162.14" y1="18.77" x2="162.55" y2="19.17"/>
	</g>
	<rect x="144.62" y="42.37" class="st19" width="12.49" height="19.79"/>
	<g>
		<g>
			<path class="st8" d="M147.02,35.9c-1.23,0-2.22-1-2.22-2.24s1-2.24,2.22-2.24c1.23,0,2.22,1,2.22,2.24S148.24,35.9,147.02,35.9z"
				/>
			<ellipse class="st9" cx="147.02" cy="33.66" rx="1.52" ry="1.53"/>
		</g>
		<g>
			<path class="st8" d="M139.82,35.9c-1.23,0-2.22-1-2.22-2.24s1-2.24,2.22-2.24c1.23,0,2.22,1,2.22,2.24S141.05,35.9,139.82,35.9z"
				/>
			<ellipse class="st9" cx="139.82" cy="33.66" rx="1.52" ry="1.53"/>
		</g>
		<g>
			<path class="st8" d="M132.62,35.9c-1.23,0-2.22-1-2.22-2.24s1-2.24,2.22-2.24c1.23,0,2.22,1,2.22,2.24S133.84,35.9,132.62,35.9z"
				/>
			<ellipse class="st9" cx="132.62" cy="33.66" rx="1.52" ry="1.53"/>
		</g>
		<g>
			<path class="st8" d="M125.42,35.9c-1.23,0-2.22-1-2.22-2.24s1-2.24,2.22-2.24s2.22,1,2.22,2.24S126.64,35.9,125.42,35.9z"/>
			<ellipse class="st9" cx="125.42" cy="33.66" rx="1.52" ry="1.53"/>
		</g>
		<g>
			<path class="st8" d="M175.95,35.9c-1.23,0-2.22-1-2.22-2.24s1-2.24,2.22-2.24c1.23,0,2.22,1,2.22,2.24S177.18,35.9,175.95,35.9z"
				/>
			<ellipse class="st9" cx="175.95" cy="33.66" rx="1.52" ry="1.53"/>
		</g>
		<g>
			<path class="st8" d="M168.76,35.9c-1.23,0-2.22-1-2.22-2.24s1-2.24,2.22-2.24c1.23,0,2.22,1,2.22,2.24S169.98,35.9,168.76,35.9z"
				/>
			<ellipse class="st9" cx="168.76" cy="33.66" rx="1.52" ry="1.53"/>
		</g>
		<g>
			<path class="st8" d="M161.55,35.9c-1.23,0-2.22-1-2.22-2.24s1-2.24,2.22-2.24c1.23,0,2.22,1,2.22,2.24S162.78,35.9,161.55,35.9z"
				/>
			<ellipse class="st9" cx="161.55" cy="33.66" rx="1.52" ry="1.53"/>
		</g>
		<g>
			<path class="st8" d="M154.35,35.9c-1.23,0-2.22-1-2.22-2.24s1-2.24,2.22-2.24c1.23,0,2.22,1,2.22,2.24S155.58,35.9,154.35,35.9z"
				/>
			<ellipse class="st9" cx="154.35" cy="33.66" rx="1.52" ry="1.53"/>
		</g>
		<g>
			<path class="st8" d="M147.02,28.85c-1.23,0-2.22-1-2.22-2.24c0-1.24,1-2.24,2.22-2.24c1.23,0,2.22,1,2.22,2.24
				C149.24,27.85,148.24,28.85,147.02,28.85z"/>
			<ellipse class="st9" cx="147.02" cy="26.61" rx="1.52" ry="1.53"/>
		</g>
		<g>
			<path class="st8" d="M139.82,28.85c-1.23,0-2.22-1-2.22-2.24c0-1.24,1-2.24,2.22-2.24c1.23,0,2.22,1,2.22,2.24
				C142.04,27.85,141.05,28.85,139.82,28.85z"/>
			<ellipse class="st9" cx="139.82" cy="26.61" rx="1.52" ry="1.53"/>
		</g>
		<g>
			<path class="st8" d="M132.62,28.85c-1.23,0-2.22-1-2.22-2.24c0-1.24,1-2.24,2.22-2.24c1.23,0,2.22,1,2.22,2.24
				C134.84,27.85,133.84,28.85,132.62,28.85z"/>
			<ellipse class="st9" cx="132.62" cy="26.61" rx="1.52" ry="1.53"/>
		</g>
		<g>
			<path class="st8" d="M125.42,28.85c-1.23,0-2.22-1-2.22-2.24c0-1.24,1-2.24,2.22-2.24s2.22,1,2.22,2.24
				C127.64,27.85,126.64,28.85,125.42,28.85z"/>
			<ellipse class="st9" cx="125.42" cy="26.61" rx="1.52" ry="1.53"/>
		</g>
		<g>
			<path class="st8" d="M175.95,28.85c-1.23,0-2.22-1-2.22-2.24c0-1.24,1-2.24,2.22-2.24c1.23,0,2.22,1,2.22,2.24
				C178.17,27.85,177.18,28.85,175.95,28.85z"/>
			<ellipse class="st9" cx="175.95" cy="26.61" rx="1.52" ry="1.53"/>
		</g>
		<g>
			<path class="st8" d="M168.76,28.85c-1.23,0-2.22-1-2.22-2.24c0-1.24,1-2.24,2.22-2.24c1.23,0,2.22,1,2.22,2.24
				C170.98,27.85,169.98,28.85,168.76,28.85z"/>
			<ellipse class="st9" cx="168.76" cy="26.61" rx="1.52" ry="1.53"/>
		</g>
		<g>
			<path class="st8" d="M161.55,28.85c-1.23,0-2.22-1-2.22-2.24c0-1.24,1-2.24,2.22-2.24c1.23,0,2.22,1,2.22,2.24
				C163.77,27.85,162.78,28.85,161.55,28.85z"/>
			<ellipse class="st9" cx="161.55" cy="26.61" rx="1.52" ry="1.53"/>
		</g>
		<g>
			<path class="st8" d="M154.35,28.85c-1.23,0-2.22-1-2.22-2.24c0-1.24,1-2.24,2.22-2.24c1.23,0,2.22,1,2.22,2.24
				C156.57,27.85,155.58,28.85,154.35,28.85z"/>
			<ellipse class="st9" cx="154.35" cy="26.61" rx="1.52" ry="1.53"/>
		</g>
	</g>
	<rect x="124.51" y="26.01" class="st20" width="1.81" height="10.97"/>
	<rect x="131.65" y="26.01" class="st20" width="1.81" height="10.97"/>
	<rect x="138.89" y="26.01" class="st20" width="1.81" height="10.97"/>
	<rect x="146.11" y="26.01" class="st20" width="1.81" height="10.97"/>
	<rect x="153.44" y="26.01" class="st20" width="1.81" height="10.97"/>
	<rect x="146.11" y="42.37" class="st21" width="1.81" height="18.9"/>
	<rect x="153.44" y="42.37" class="st21" width="1.81" height="18.9"/>
	<rect x="160.71" y="26.01" class="st20" width="1.81" height="10.97"/>
	<rect x="167.9" y="26.01" class="st20" width="1.81" height="10.97"/>
	<rect x="175.17" y="26.01" class="st20" width="1.81" height="10.97"/>
	<rect x="10.11" y="24.85" class="st22" width="2.7" height="5.4"/>
	<rect x="12.81" y="24.85" class="st22" width="2.7" height="5.4"/>
	<rect x="10.11" y="52.71" class="st22" width="2.7" height="5.4"/>
	<rect x="12.81" y="50.01" class="st22" width="2.7" height="5.4"/>
	<rect x="10.11" y="37.41" class="st22" width="2.7" height="5.4"/>
	<rect x="12.81" y="40.11" class="st22" width="2.7" height="5.4"/>
	<rect x="11.07" y="25.75" class="st2" width="0.84" height="0.84"/>
	<rect x="13.74" y="25.75" class="st2" width="0.84" height="0.84"/>
	<rect x="13.74" y="28.49" class="st2" width="0.84" height="0.84"/>
	<rect x="11.04" y="28.49" class="st2" width="0.84" height="0.84"/>
	<rect x="13.74" y="31.16" class="st2" width="0.84" height="0.84"/>
	<rect x="11.04" y="31.16" class="st2" width="0.84" height="0.84"/>
	<rect x="11.07" y="38.32" class="st2" width="0.84" height="0.84"/>
	<rect x="13.74" y="38.32" class="st2" width="0.84" height="0.84"/>
	<rect x="13.74" y="41.05" class="st2" width="0.84" height="0.84"/>
	<rect x="11.04" y="41.05" class="st2" width="0.84" height="0.84"/>
	<rect x="13.74" y="43.73" class="st2" width="0.84" height="0.84"/>
	<rect x="11.04" y="43.73" class="st2" width="0.84" height="0.84"/>
	<rect x="11.07" y="50.85" class="st2" width="0.84" height="0.84"/>
	<rect x="13.74" y="50.85" class="st2" width="0.84" height="0.84"/>
	<rect x="13.74" y="53.58" class="st2" width="0.84" height="0.84"/>
	<rect x="11.04" y="53.58" class="st2" width="0.84" height="0.84"/>
	<rect x="13.74" y="56.26" class="st2" width="0.84" height="0.84"/>
	<rect x="11.04" y="56.26" class="st2" width="0.84" height="0.84"/>
	<g id="Джампер_1_">
		<g>
			
				<linearGradient id="SVGID_1_" gradientUnits="userSpaceOnUse" x1="-53.3863" y1="144.5595" x2="-51.1734" y2="144.5595" gradientTransform="matrix(-1 0 0 -1 -23.8496 186.6149)">
				<stop  offset="0.1838" style="stop-color:#F36540"/>
				<stop  offset="0.2122" style="stop-color:#F46F40"/>
				<stop  offset="0.2324" style="stop-color:#F67A3F"/>
				<stop  offset="0.3449" style="stop-color:#F5833F"/>
				<stop  offset="0.5313" style="stop-color:#F19D3D"/>
				<stop  offset="0.5521" style="stop-color:#F1A03D"/>
				<stop  offset="0.9944" style="stop-color:#CD7344"/>
				<stop  offset="1" style="stop-color:#E8C33C"/>
			</linearGradient>
			<line class="st23" x1="29.54" y1="42.06" x2="27.32" y2="42.06"/>
			
				<linearGradient id="SVGID_2_" gradientUnits="userSpaceOnUse" x1="-53.4055" y1="146.5466" x2="-51.1926" y2="146.5466" gradientTransform="matrix(-1 0 0 -1 -23.8496 186.6149)">
				<stop  offset="0.1838" style="stop-color:#F36540"/>
				<stop  offset="0.2122" style="stop-color:#F46F40"/>
				<stop  offset="0.2324" style="stop-color:#F67A3F"/>
				<stop  offset="0.3449" style="stop-color:#F5833F"/>
				<stop  offset="0.5313" style="stop-color:#F19D3D"/>
				<stop  offset="0.5521" style="stop-color:#F1A03D"/>
				<stop  offset="0.9944" style="stop-color:#CD7344"/>
				<stop  offset="1" style="stop-color:#E8C33C"/>
			</linearGradient>
			<line class="st24" x1="29.56" y1="40.07" x2="27.34" y2="40.07"/>
			
				<linearGradient id="SVGID_3_" gradientUnits="userSpaceOnUse" x1="-53.3863" y1="153.337" x2="-51.1734" y2="153.337" gradientTransform="matrix(-1 0 0 1 -23.8496 -120.4346)">
				<stop  offset="0.1838" style="stop-color:#F36540"/>
				<stop  offset="0.2122" style="stop-color:#F46F40"/>
				<stop  offset="0.2324" style="stop-color:#F67A3F"/>
				<stop  offset="0.3449" style="stop-color:#F5833F"/>
				<stop  offset="0.5313" style="stop-color:#F19D3D"/>
				<stop  offset="0.5521" style="stop-color:#F1A03D"/>
				<stop  offset="0.9944" style="stop-color:#CD7344"/>
				<stop  offset="1" style="stop-color:#E8C33C"/>
			</linearGradient>
			<line class="st25" x1="29.54" y1="32.9" x2="27.32" y2="32.9"/>
			
				<linearGradient id="SVGID_4_" gradientUnits="userSpaceOnUse" x1="-53.4055" y1="155.3241" x2="-51.1926" y2="155.3241" gradientTransform="matrix(-1 0 0 1 -23.8496 -120.4346)">
				<stop  offset="0.1838" style="stop-color:#F36540"/>
				<stop  offset="0.2122" style="stop-color:#F46F40"/>
				<stop  offset="0.2324" style="stop-color:#F67A3F"/>
				<stop  offset="0.3449" style="stop-color:#F5833F"/>
				<stop  offset="0.5313" style="stop-color:#F19D3D"/>
				<stop  offset="0.5521" style="stop-color:#F1A03D"/>
				<stop  offset="0.9944" style="stop-color:#CD7344"/>
				<stop  offset="1" style="stop-color:#E8C33C"/>
			</linearGradient>
			<line class="st26" x1="29.56" y1="34.89" x2="27.34" y2="34.89"/>
			
				<linearGradient id="SVGID_5_" gradientUnits="userSpaceOnUse" x1="-53.5305" y1="157.9132" x2="-53.2805" y2="157.9132" gradientTransform="matrix(-1 0 0 1 -23.8496 -120.4346)">
				<stop  offset="0.1838" style="stop-color:#F36540"/>
				<stop  offset="0.2122" style="stop-color:#F46F40"/>
				<stop  offset="0.2324" style="stop-color:#F67A3F"/>
				<stop  offset="0.3449" style="stop-color:#F5833F"/>
				<stop  offset="0.5313" style="stop-color:#F19D3D"/>
				<stop  offset="0.5521" style="stop-color:#F1A03D"/>
				<stop  offset="0.9944" style="stop-color:#CD7344"/>
				<stop  offset="1" style="stop-color:#E8C33C"/>
			</linearGradient>
			<line class="st27" x1="29.56" y1="32.6" x2="29.56" y2="42.36"/>
		</g>
		<polyline class="st28" points="27.27,35.07 27.27,39.88 25.18,39.88 25.18,35.07 		"/>
		<polyline class="st28" points="29.74,35.07 29.74,39.88 31.84,39.88 31.84,35.07 		"/>
		<polygon class="st29" points="27.28,35.07 25.18,35.07 25.18,30.65 28.51,30.25 31.84,30.66 31.84,35.07 29.75,35.07 29.75,32.66 
			27.28,32.66 		"/>
		<polygon class="st29" points="29.74,39.88 31.84,39.88 31.84,44.29 28.51,44.7 25.18,44.29 25.18,39.88 27.27,39.88 27.27,42.29 
			29.74,42.29 		"/>
		<path class="st29" d="M28.51,30.25"/>
	</g>
	<g id="Джампер_2_">
		<g>
			
				<linearGradient id="SVGID_6_" gradientUnits="userSpaceOnUse" x1="-46.1846" y1="144.5595" x2="-43.9716" y2="144.5595" gradientTransform="matrix(-1 0 0 -1 -23.8496 186.6149)">
				<stop  offset="0.1838" style="stop-color:#F36540"/>
				<stop  offset="0.2122" style="stop-color:#F46F40"/>
				<stop  offset="0.2324" style="stop-color:#F67A3F"/>
				<stop  offset="0.3449" style="stop-color:#F5833F"/>
				<stop  offset="0.5313" style="stop-color:#F19D3D"/>
				<stop  offset="0.5521" style="stop-color:#F1A03D"/>
				<stop  offset="0.9944" style="stop-color:#CD7344"/>
				<stop  offset="1" style="stop-color:#E8C33C"/>
			</linearGradient>
			<line class="st30" x1="22.33" y1="42.06" x2="20.12" y2="42.06"/>
			
				<linearGradient id="SVGID_7_" gradientUnits="userSpaceOnUse" x1="-46.2038" y1="146.5466" x2="-43.9909" y2="146.5466" gradientTransform="matrix(-1 0 0 -1 -23.8496 186.6149)">
				<stop  offset="0.1838" style="stop-color:#F36540"/>
				<stop  offset="0.2122" style="stop-color:#F46F40"/>
				<stop  offset="0.2324" style="stop-color:#F67A3F"/>
				<stop  offset="0.3449" style="stop-color:#F5833F"/>
				<stop  offset="0.5313" style="stop-color:#F19D3D"/>
				<stop  offset="0.5521" style="stop-color:#F1A03D"/>
				<stop  offset="0.9944" style="stop-color:#CD7344"/>
				<stop  offset="1" style="stop-color:#E8C33C"/>
			</linearGradient>
			<line class="st31" x1="22.35" y1="40.07" x2="20.14" y2="40.07"/>
			
				<linearGradient id="SVGID_8_" gradientUnits="userSpaceOnUse" x1="-46.1846" y1="153.337" x2="-43.9716" y2="153.337" gradientTransform="matrix(-1 0 0 1 -23.8496 -120.4346)">
				<stop  offset="0.1838" style="stop-color:#F36540"/>
				<stop  offset="0.2122" style="stop-color:#F46F40"/>
				<stop  offset="0.2324" style="stop-color:#F67A3F"/>
				<stop  offset="0.3449" style="stop-color:#F5833F"/>
				<stop  offset="0.5313" style="stop-color:#F19D3D"/>
				<stop  offset="0.5521" style="stop-color:#F1A03D"/>
				<stop  offset="0.9944" style="stop-color:#CD7344"/>
				<stop  offset="1" style="stop-color:#E8C33C"/>
			</linearGradient>
			<line class="st32" x1="22.33" y1="32.9" x2="20.12" y2="32.9"/>
			
				<linearGradient id="SVGID_9_" gradientUnits="userSpaceOnUse" x1="-46.2038" y1="155.3241" x2="-43.9909" y2="155.3241" gradientTransform="matrix(-1 0 0 1 -23.8496 -120.4346)">
				<stop  offset="0.1838" style="stop-color:#F36540"/>
				<stop  offset="0.2122" style="stop-color:#F46F40"/>
				<stop  offset="0.2324" style="stop-color:#F67A3F"/>
				<stop  offset="0.3449" style="stop-color:#F5833F"/>
				<stop  offset="0.5313" style="stop-color:#F19D3D"/>
				<stop  offset="0.5521" style="stop-color:#F1A03D"/>
				<stop  offset="0.9944" style="stop-color:#CD7344"/>
				<stop  offset="1" style="stop-color:#E8C33C"/>
			</linearGradient>
			<line class="st33" x1="22.35" y1="34.89" x2="20.14" y2="34.89"/>
			
				<linearGradient id="SVGID_10_" gradientUnits="userSpaceOnUse" x1="-46.3288" y1="157.9132" x2="-46.0788" y2="157.9132" gradientTransform="matrix(-1 0 0 1 -23.8496 -120.4346)">
				<stop  offset="0.1838" style="stop-color:#F36540"/>
				<stop  offset="0.2122" style="stop-color:#F46F40"/>
				<stop  offset="0.2324" style="stop-color:#F67A3F"/>
				<stop  offset="0.3449" style="stop-color:#F5833F"/>
				<stop  offset="0.5313" style="stop-color:#F19D3D"/>
				<stop  offset="0.5521" style="stop-color:#F1A03D"/>
				<stop  offset="0.9944" style="stop-color:#CD7344"/>
				<stop  offset="1" style="stop-color:#E8C33C"/>
			</linearGradient>
			<line class="st34" x1="22.35" y1="32.6" x2="22.35" y2="42.36"/>
		</g>
		<polyline class="st28" points="20.07,35.07 20.07,39.88 17.97,39.88 17.97,35.07 		"/>
		<polyline class="st28" points="22.54,35.07 22.54,39.88 24.64,39.88 24.64,35.07 		"/>
		<polygon class="st29" points="20.08,35.07 17.98,35.07 17.98,30.65 21.31,30.25 24.64,30.66 24.64,35.07 22.54,35.07 22.54,32.66 
			20.08,32.66 		"/>
		<polygon class="st29" points="22.54,39.88 24.64,39.88 24.64,44.29 21.31,44.7 17.97,44.29 17.97,39.88 20.07,39.88 20.07,42.29 
			22.54,42.29 		"/>
		<path class="st29" d="M21.31,30.25"/>
	</g>
	<g>
		<g>
			<path class="st2" d="M26.8,61.57c0.06,0.07,0.13,0.17,0.22,0.29c0.09,0.12,0.18,0.25,0.27,0.39c0.09,0.14,0.19,0.29,0.28,0.45
				c0.09,0.16,0.17,0.31,0.24,0.45h-0.57c-0.07-0.14-0.15-0.28-0.24-0.42s-0.17-0.28-0.26-0.41c-0.09-0.13-0.17-0.25-0.26-0.36
				c-0.08-0.11-0.16-0.21-0.23-0.3c-0.05,0-0.09,0.01-0.14,0.01s-0.1,0-0.15,0h-0.47v1.48h-0.53v-3.73c0.15-0.04,0.31-0.06,0.5-0.07
				s0.35-0.02,0.5-0.02c0.53,0,0.93,0.1,1.21,0.3c0.28,0.2,0.41,0.5,0.41,0.9c0,0.25-0.07,0.47-0.2,0.65
				C27.25,61.35,27.05,61.48,26.8,61.57z M26,59.79c-0.22,0-0.4,0.01-0.51,0.02v1.43h0.37c0.18,0,0.34-0.01,0.49-0.03
				s0.27-0.05,0.37-0.1c0.1-0.05,0.18-0.12,0.23-0.22c0.05-0.09,0.08-0.22,0.08-0.37c0-0.14-0.03-0.26-0.08-0.36
				c-0.05-0.09-0.13-0.17-0.22-0.22s-0.2-0.09-0.33-0.11S26.14,59.79,26,59.79z"/>
			<path class="st2" d="M30.6,61.29h0.53v1.77c-0.04,0.01-0.11,0.03-0.19,0.05c-0.08,0.02-0.18,0.04-0.28,0.05
				c-0.11,0.02-0.22,0.03-0.35,0.05c-0.13,0.01-0.25,0.02-0.38,0.02c-0.26,0-0.5-0.04-0.72-0.13s-0.4-0.21-0.56-0.38
				c-0.16-0.17-0.28-0.37-0.36-0.62c-0.08-0.24-0.13-0.52-0.13-0.84s0.05-0.6,0.14-0.84c0.1-0.25,0.22-0.45,0.39-0.62
				s0.35-0.3,0.57-0.38s0.45-0.13,0.7-0.13c0.17,0,0.32,0.01,0.45,0.03s0.24,0.05,0.34,0.08c0.09,0.03,0.17,0.06,0.23,0.09
				c0.06,0.03,0.1,0.05,0.12,0.07l-0.17,0.44c-0.1-0.07-0.24-0.13-0.42-0.17c-0.17-0.05-0.35-0.07-0.53-0.07
				c-0.19,0-0.37,0.03-0.52,0.1s-0.29,0.17-0.4,0.3c-0.11,0.13-0.2,0.29-0.26,0.48c-0.06,0.19-0.09,0.4-0.09,0.63
				c0,0.23,0.03,0.43,0.08,0.62c0.05,0.19,0.13,0.35,0.24,0.48c0.11,0.13,0.24,0.24,0.4,0.31c0.16,0.07,0.34,0.11,0.56,0.11
				c0.15,0,0.28-0.01,0.39-0.02c0.11-0.02,0.18-0.03,0.23-0.05V61.29z"/>
			<path class="st2" d="M32.96,63.19c-0.08,0-0.16,0-0.25-0.01c-0.09,0-0.18-0.01-0.27-0.02s-0.18-0.02-0.26-0.03
				c-0.09-0.01-0.17-0.03-0.24-0.04v-3.67c0.07-0.02,0.15-0.03,0.24-0.04c0.09-0.01,0.17-0.02,0.26-0.03s0.18-0.01,0.26-0.02
				c0.09,0,0.17-0.01,0.24-0.01c0.22,0,0.42,0.02,0.61,0.05c0.19,0.03,0.35,0.09,0.49,0.17c0.14,0.08,0.25,0.18,0.33,0.31
				c0.08,0.13,0.12,0.28,0.12,0.47c0,0.21-0.05,0.38-0.15,0.51c-0.1,0.13-0.23,0.23-0.39,0.3c0.22,0.07,0.4,0.17,0.53,0.31
				c0.13,0.14,0.19,0.34,0.19,0.6c0,0.38-0.14,0.66-0.41,0.85C34,63.09,33.56,63.19,32.96,63.19z M32.47,60.96h0.55
				c0.13,0,0.25-0.01,0.37-0.03c0.12-0.02,0.22-0.05,0.3-0.1c0.08-0.05,0.15-0.11,0.2-0.19c0.05-0.08,0.07-0.17,0.07-0.29
				c0-0.11-0.03-0.2-0.08-0.28c-0.05-0.07-0.12-0.13-0.21-0.18c-0.09-0.05-0.19-0.08-0.31-0.1s-0.25-0.03-0.38-0.03
				c-0.13,0-0.24,0-0.31,0.01c-0.08,0-0.14,0.01-0.21,0.02V60.96z M32.47,61.39v1.33c0.04,0,0.09,0.01,0.14,0.01
				c0.05,0,0.1,0.01,0.17,0.01c0.06,0,0.14,0,0.22,0c0.16,0,0.3-0.01,0.44-0.03s0.26-0.06,0.37-0.11c0.1-0.05,0.19-0.12,0.25-0.21
				c0.06-0.09,0.09-0.21,0.09-0.34c0-0.12-0.02-0.23-0.07-0.31c-0.05-0.09-0.11-0.15-0.2-0.21c-0.09-0.05-0.19-0.09-0.32-0.11
				c-0.12-0.02-0.26-0.03-0.41-0.03H32.47z"/>
			<path class="st2" d="M38.37,62.63c-0.04-0.09-0.08-0.2-0.14-0.33s-0.12-0.28-0.19-0.44c-0.07-0.16-0.14-0.32-0.22-0.48
				c-0.08-0.17-0.15-0.32-0.22-0.47c-0.07-0.15-0.13-0.28-0.19-0.4s-0.11-0.21-0.14-0.27c-0.04,0.43-0.07,0.9-0.1,1.4
				s-0.05,1.01-0.06,1.52h-0.51c0.01-0.33,0.03-0.66,0.05-0.99c0.02-0.33,0.04-0.66,0.06-0.98c0.02-0.32,0.05-0.64,0.08-0.94
				c0.03-0.31,0.06-0.6,0.09-0.87h0.46c0.1,0.16,0.2,0.35,0.31,0.57c0.11,0.22,0.22,0.45,0.34,0.69c0.11,0.24,0.22,0.48,0.33,0.72
				c0.1,0.24,0.2,0.46,0.29,0.65c0.09-0.2,0.18-0.41,0.29-0.65s0.21-0.48,0.33-0.72s0.22-0.47,0.34-0.69s0.22-0.41,0.31-0.57h0.46
				c0.12,1.22,0.21,2.48,0.28,3.79h-0.51c-0.02-0.51-0.04-1.02-0.06-1.52c-0.03-0.5-0.06-0.97-0.1-1.4
				c-0.04,0.06-0.08,0.15-0.14,0.27s-0.12,0.25-0.19,0.4c-0.07,0.15-0.14,0.3-0.22,0.47c-0.08,0.17-0.15,0.33-0.22,0.48
				c-0.07,0.16-0.13,0.3-0.19,0.44s-0.11,0.25-0.14,0.33H38.37z"/>
			<path class="st2" d="M43.91,63.15c-0.06-0.16-0.12-0.33-0.17-0.48c-0.05-0.16-0.11-0.32-0.17-0.48h-1.7l-0.34,0.97h-0.55
				c0.14-0.4,0.28-0.77,0.41-1.11s0.25-0.66,0.37-0.97s0.24-0.6,0.36-0.88c0.12-0.28,0.24-0.56,0.37-0.83h0.48
				c0.13,0.27,0.25,0.55,0.37,0.83c0.12,0.28,0.24,0.57,0.36,0.88s0.24,0.63,0.37,0.97s0.26,0.71,0.41,1.11H43.91z M43.42,61.75
				c-0.12-0.32-0.23-0.62-0.34-0.92s-0.23-0.58-0.35-0.86c-0.13,0.27-0.25,0.56-0.36,0.86s-0.23,0.6-0.34,0.92H43.42z"/>
			<path class="st2" d="M47.16,59.37v0.46h-1.18v3.33h-0.53v-3.33h-1.18v-0.46H47.16z"/>
			<path class="st2" d="M49.55,61.57c0.06,0.07,0.13,0.17,0.22,0.29c0.09,0.12,0.18,0.25,0.27,0.39c0.09,0.14,0.19,0.29,0.28,0.45
				c0.09,0.16,0.17,0.31,0.24,0.45h-0.57c-0.07-0.14-0.15-0.28-0.24-0.42s-0.17-0.28-0.26-0.41c-0.09-0.13-0.17-0.25-0.26-0.36
				c-0.08-0.11-0.16-0.21-0.23-0.3c-0.05,0-0.09,0.01-0.14,0.01s-0.1,0-0.15,0h-0.47v1.48h-0.53v-3.73c0.15-0.04,0.31-0.06,0.5-0.07
				s0.35-0.02,0.5-0.02c0.53,0,0.93,0.1,1.21,0.3c0.28,0.2,0.41,0.5,0.41,0.9c0,0.25-0.07,0.47-0.2,0.65
				C50,61.35,49.81,61.48,49.55,61.57z M48.75,59.79c-0.22,0-0.4,0.01-0.51,0.02v1.43h0.37c0.18,0,0.34-0.01,0.49-0.03
				s0.27-0.05,0.37-0.1c0.1-0.05,0.18-0.12,0.23-0.22c0.05-0.09,0.08-0.22,0.08-0.37c0-0.14-0.03-0.26-0.08-0.36
				c-0.05-0.09-0.13-0.17-0.22-0.22s-0.2-0.09-0.33-0.11S48.89,59.79,48.75,59.79z"/>
			<path class="st2" d="M51.12,59.37h0.53v3.79h-0.53V59.37z"/>
			<path class="st2" d="M54.83,63.15c-0.05-0.11-0.12-0.23-0.19-0.36c-0.08-0.13-0.16-0.27-0.25-0.42s-0.18-0.29-0.28-0.43
				c-0.1-0.14-0.19-0.28-0.28-0.41c-0.09,0.13-0.18,0.26-0.28,0.41c-0.1,0.14-0.19,0.29-0.28,0.43c-0.09,0.14-0.17,0.28-0.25,0.42
				c-0.08,0.13-0.14,0.25-0.2,0.36h-0.58c0.16-0.32,0.35-0.65,0.57-0.98s0.44-0.67,0.69-1.02l-1.2-1.79h0.61l0.93,1.41l0.92-1.41
				h0.6l-1.18,1.77c0.25,0.35,0.48,0.7,0.69,1.03s0.41,0.67,0.57,0.99H54.83z"/>
			<path class="st2" d="M59.61,59.37h0.53v3.79h-0.53v-1.75h-1.84v1.75h-0.53v-3.79h0.53v1.58h1.84V59.37z"/>
			<path class="st2" d="M63.58,63.15c-0.06-0.16-0.12-0.33-0.17-0.48c-0.05-0.16-0.11-0.32-0.17-0.48h-1.7l-0.34,0.97h-0.55
				c0.14-0.4,0.28-0.77,0.41-1.11s0.25-0.66,0.37-0.97s0.24-0.6,0.36-0.88c0.12-0.28,0.24-0.56,0.37-0.83h0.48
				c0.13,0.27,0.25,0.55,0.37,0.83c0.12,0.28,0.24,0.57,0.36,0.88s0.24,0.63,0.37,0.97s0.26,0.71,0.41,1.11H63.58z M63.09,61.75
				c-0.12-0.32-0.23-0.62-0.34-0.92s-0.23-0.58-0.35-0.86c-0.13,0.27-0.25,0.56-0.36,0.86s-0.23,0.6-0.34,0.92H63.09z"/>
			<path class="st2" d="M66.83,59.37v0.46h-1.18v3.33h-0.53v-3.33h-1.18v-0.46H66.83z"/>
			<path class="st2" d="M69.09,61.52c0,0.47,0.07,0.9,0.2,1.3c0.13,0.4,0.33,0.77,0.59,1.1l-0.36,0.25
				c-0.28-0.35-0.51-0.74-0.68-1.19c-0.17-0.45-0.26-0.93-0.26-1.45c0-0.52,0.09-1,0.26-1.45c0.17-0.45,0.4-0.85,0.68-1.19
				l0.36,0.25c-0.26,0.34-0.46,0.71-0.59,1.1C69.16,60.62,69.09,61.05,69.09,61.52z"/>
			<path class="st2" d="M71.51,61.63c0-0.37,0.05-0.69,0.15-0.98s0.24-0.52,0.43-0.71c0.19-0.19,0.41-0.34,0.68-0.44
				c0.27-0.1,0.56-0.15,0.9-0.16l0.04,0.43c-0.21,0-0.41,0.03-0.58,0.07c-0.18,0.04-0.33,0.11-0.47,0.21s-0.25,0.22-0.35,0.37
				c-0.09,0.15-0.16,0.34-0.21,0.56c0.09-0.04,0.2-0.08,0.32-0.11c0.12-0.03,0.24-0.04,0.37-0.04c0.21,0,0.39,0.03,0.54,0.1
				s0.27,0.15,0.36,0.26c0.09,0.11,0.16,0.23,0.2,0.37s0.06,0.29,0.06,0.44c0,0.14-0.02,0.28-0.07,0.43
				c-0.05,0.15-0.12,0.28-0.21,0.4c-0.1,0.12-0.22,0.22-0.37,0.3c-0.15,0.08-0.32,0.11-0.53,0.11c-0.41,0-0.73-0.14-0.94-0.43
				C71.62,62.53,71.51,62.13,71.51,61.63z M72.73,61.25c-0.13,0-0.24,0.01-0.35,0.04c-0.11,0.02-0.22,0.06-0.33,0.11
				c0,0.04-0.01,0.08-0.01,0.12c0,0.04,0,0.08,0,0.12c0,0.16,0.01,0.31,0.03,0.45c0.02,0.14,0.06,0.27,0.12,0.37
				s0.13,0.19,0.23,0.26c0.09,0.06,0.21,0.1,0.36,0.1c0.12,0,0.22-0.03,0.3-0.08c0.08-0.05,0.15-0.12,0.21-0.2
				c0.05-0.08,0.09-0.17,0.12-0.26c0.02-0.09,0.04-0.18,0.04-0.27c0-0.25-0.06-0.44-0.18-0.57C73.14,61.31,72.96,61.25,72.73,61.25z
				"/>
			<path class="st2" d="M74.45,61.84c0.07-0.16,0.16-0.35,0.28-0.56c0.12-0.21,0.25-0.43,0.4-0.66c0.15-0.23,0.31-0.45,0.48-0.67
				c0.17-0.22,0.34-0.42,0.52-0.59h0.48v2.4h0.44v0.42h-0.44v0.97h-0.49v-0.97h-1.68V61.84z M76.12,59.97
				c-0.11,0.12-0.22,0.25-0.33,0.39c-0.11,0.14-0.22,0.29-0.32,0.45c-0.1,0.16-0.2,0.32-0.3,0.48c-0.09,0.16-0.17,0.32-0.25,0.48
				h1.19V59.97z"/>
			<path class="st2" d="M79.4,63.15c-0.04-0.08-0.09-0.17-0.15-0.27c-0.06-0.1-0.12-0.2-0.19-0.3c-0.07-0.1-0.14-0.21-0.21-0.31
				c-0.07-0.1-0.14-0.2-0.21-0.29c-0.07,0.09-0.14,0.19-0.21,0.29c-0.07,0.1-0.14,0.21-0.21,0.31c-0.07,0.1-0.13,0.21-0.19,0.3
				c-0.06,0.1-0.11,0.19-0.15,0.26h-0.52c0.13-0.25,0.28-0.5,0.45-0.76s0.35-0.5,0.52-0.74l-0.93-1.35h0.57l0.67,1l0.68-1h0.54
				l-0.91,1.32c0.17,0.24,0.35,0.49,0.53,0.75c0.18,0.26,0.34,0.52,0.46,0.77H79.4z"/>
			<path class="st2" d="M81.28,62.78c0.32,0,0.55-0.06,0.69-0.19s0.21-0.3,0.21-0.51c0-0.14-0.03-0.25-0.09-0.35
				c-0.06-0.09-0.13-0.17-0.23-0.23c-0.09-0.06-0.2-0.1-0.33-0.12c-0.12-0.02-0.25-0.04-0.38-0.04h-0.13v-0.42h0.18
				c0.09,0,0.18-0.01,0.28-0.03c0.1-0.02,0.18-0.05,0.26-0.1c0.08-0.05,0.14-0.11,0.19-0.19c0.05-0.08,0.08-0.18,0.08-0.31
				c0-0.1-0.02-0.19-0.05-0.26c-0.04-0.07-0.08-0.13-0.14-0.18c-0.06-0.05-0.13-0.08-0.21-0.1s-0.16-0.03-0.25-0.03
				c-0.17,0-0.32,0.03-0.44,0.08c-0.12,0.05-0.22,0.1-0.31,0.16l-0.19-0.39c0.04-0.03,0.1-0.06,0.17-0.1s0.14-0.07,0.23-0.1
				c0.08-0.03,0.17-0.05,0.27-0.07s0.2-0.03,0.3-0.03c0.2,0,0.37,0.02,0.51,0.07s0.26,0.12,0.36,0.21c0.09,0.09,0.16,0.19,0.21,0.32
				s0.07,0.25,0.07,0.4c0,0.2-0.06,0.37-0.17,0.51c-0.11,0.14-0.25,0.25-0.41,0.32c0.1,0.03,0.19,0.07,0.28,0.13
				s0.17,0.12,0.24,0.21c0.07,0.08,0.12,0.18,0.16,0.29c0.04,0.11,0.06,0.23,0.06,0.37c0,0.16-0.03,0.32-0.08,0.46
				s-0.14,0.26-0.26,0.36c-0.12,0.1-0.26,0.18-0.44,0.24c-0.18,0.06-0.39,0.09-0.63,0.09c-0.09,0-0.19-0.01-0.29-0.02
				c-0.1-0.01-0.19-0.03-0.28-0.05c-0.09-0.02-0.16-0.04-0.23-0.07s-0.11-0.04-0.14-0.05l0.1-0.44c0.06,0.03,0.16,0.07,0.31,0.11
				S81.07,62.78,81.28,62.78z"/>
			<path class="st2" d="M85.64,60.33c0,0.13-0.03,0.26-0.08,0.38c-0.05,0.12-0.12,0.24-0.21,0.36c-0.09,0.12-0.18,0.23-0.29,0.35
				s-0.22,0.23-0.32,0.34c-0.06,0.06-0.13,0.13-0.21,0.22c-0.08,0.08-0.16,0.17-0.23,0.26c-0.07,0.09-0.13,0.18-0.18,0.26
				s-0.07,0.16-0.07,0.22h1.73v0.43h-2.28c0-0.02-0.01-0.04-0.01-0.07c0-0.02,0-0.04,0-0.06c0-0.17,0.03-0.33,0.08-0.48
				c0.06-0.15,0.13-0.29,0.22-0.42c0.09-0.13,0.19-0.25,0.3-0.37c0.11-0.12,0.22-0.23,0.33-0.34c0.09-0.09,0.18-0.17,0.26-0.26
				s0.15-0.17,0.22-0.26c0.06-0.09,0.11-0.17,0.15-0.27c0.04-0.09,0.06-0.19,0.06-0.29c0-0.11-0.02-0.2-0.05-0.28
				c-0.03-0.08-0.08-0.14-0.14-0.19c-0.06-0.05-0.13-0.09-0.2-0.11c-0.08-0.02-0.16-0.04-0.25-0.04c-0.1,0-0.2,0.01-0.29,0.04
				c-0.09,0.03-0.16,0.06-0.23,0.1c-0.07,0.04-0.13,0.08-0.17,0.12s-0.08,0.07-0.11,0.1l-0.25-0.36c0.03-0.04,0.08-0.08,0.15-0.13
				c0.06-0.05,0.14-0.1,0.23-0.15s0.19-0.09,0.3-0.12c0.11-0.03,0.23-0.05,0.36-0.05c0.39,0,0.69,0.09,0.89,0.28
				C85.54,59.74,85.64,60,85.64,60.33z"/>
			<path class="st2" d="M87.8,64.17h-0.51l1.84-5.29h0.5L87.8,64.17z"/>
			<path class="st2" d="M91.25,60.15c0.21-0.08,0.41-0.18,0.6-0.31s0.37-0.28,0.54-0.47h0.36v3.79h-0.5v-3.08
				c-0.04,0.04-0.1,0.08-0.16,0.13c-0.06,0.04-0.13,0.09-0.21,0.13s-0.15,0.08-0.23,0.11c-0.08,0.04-0.16,0.07-0.24,0.09
				L91.25,60.15z"/>
			<path class="st2" d="M96.34,60.33c0,0.13-0.03,0.26-0.08,0.38s-0.12,0.24-0.21,0.36c-0.09,0.12-0.18,0.23-0.29,0.35
				s-0.22,0.23-0.33,0.34c-0.06,0.06-0.13,0.13-0.21,0.22c-0.08,0.08-0.16,0.17-0.23,0.26c-0.07,0.09-0.13,0.18-0.18,0.26
				s-0.07,0.16-0.07,0.22h1.73v0.43h-2.28c0-0.02,0-0.04,0-0.07c0-0.02,0-0.04,0-0.06c0-0.17,0.03-0.33,0.08-0.48
				s0.13-0.29,0.22-0.42c0.09-0.13,0.19-0.25,0.3-0.37c0.11-0.12,0.22-0.23,0.33-0.34c0.09-0.09,0.18-0.17,0.26-0.26
				c0.08-0.09,0.15-0.17,0.22-0.26c0.06-0.09,0.11-0.17,0.15-0.27s0.06-0.19,0.06-0.29c0-0.11-0.02-0.2-0.05-0.28
				c-0.03-0.08-0.08-0.14-0.14-0.19c-0.06-0.05-0.13-0.09-0.2-0.11c-0.08-0.02-0.16-0.04-0.25-0.04c-0.1,0-0.2,0.01-0.29,0.04
				c-0.09,0.03-0.16,0.06-0.23,0.1c-0.07,0.04-0.13,0.08-0.17,0.12s-0.08,0.07-0.11,0.1l-0.25-0.36c0.03-0.04,0.08-0.08,0.15-0.13
				c0.06-0.05,0.14-0.1,0.23-0.15c0.09-0.05,0.19-0.09,0.3-0.12c0.11-0.03,0.23-0.05,0.36-0.05c0.39,0,0.69,0.09,0.89,0.28
				S96.34,60,96.34,60.33z"/>
			<path class="st2" d="M99.62,62.17c0,0.15-0.03,0.29-0.08,0.42s-0.13,0.24-0.23,0.34c-0.1,0.1-0.23,0.17-0.39,0.22
				s-0.33,0.08-0.54,0.08c-0.23,0-0.43-0.03-0.59-0.1s-0.28-0.15-0.38-0.25c-0.09-0.1-0.16-0.21-0.2-0.34s-0.06-0.24-0.06-0.35
				c0-0.11,0.02-0.21,0.05-0.3s0.08-0.19,0.14-0.27c0.06-0.08,0.12-0.16,0.19-0.23c0.07-0.07,0.15-0.13,0.24-0.18
				c-0.35-0.2-0.53-0.5-0.53-0.9c0-0.14,0.03-0.27,0.08-0.4c0.05-0.13,0.13-0.24,0.23-0.33s0.22-0.17,0.36-0.23
				c0.14-0.06,0.3-0.08,0.47-0.08c0.2,0,0.38,0.03,0.52,0.09s0.26,0.14,0.35,0.24s0.16,0.2,0.2,0.32c0.04,0.12,0.06,0.23,0.06,0.34
				c0,0.11-0.02,0.2-0.05,0.3c-0.03,0.09-0.07,0.18-0.13,0.26c-0.05,0.08-0.11,0.15-0.18,0.21c-0.07,0.06-0.14,0.12-0.21,0.16
				C99.4,61.41,99.62,61.73,99.62,62.17z M97.67,62.2c0,0.07,0.01,0.13,0.04,0.21c0.02,0.07,0.06,0.14,0.12,0.2s0.13,0.11,0.22,0.15
				c0.09,0.04,0.2,0.06,0.34,0.06c0.12,0,0.23-0.02,0.32-0.05c0.09-0.04,0.17-0.08,0.22-0.14c0.06-0.06,0.1-0.12,0.13-0.19
				c0.03-0.07,0.04-0.15,0.04-0.22c0-0.12-0.02-0.22-0.07-0.31c-0.04-0.09-0.11-0.16-0.19-0.23c-0.08-0.07-0.18-0.12-0.29-0.17
				c-0.11-0.05-0.24-0.08-0.39-0.12c-0.16,0.09-0.29,0.2-0.38,0.34C97.72,61.86,97.67,62.02,97.67,62.2z M99.03,60.26
				c0-0.05-0.01-0.12-0.04-0.18s-0.06-0.13-0.11-0.18c-0.05-0.06-0.12-0.1-0.19-0.14c-0.08-0.04-0.18-0.06-0.29-0.06
				c-0.12,0-0.21,0.02-0.3,0.05c-0.08,0.04-0.15,0.08-0.2,0.14s-0.09,0.12-0.11,0.19s-0.04,0.13-0.04,0.2
				c0,0.08,0.01,0.16,0.04,0.24c0.03,0.08,0.07,0.15,0.14,0.22c0.06,0.07,0.14,0.13,0.24,0.19s0.22,0.1,0.36,0.13
				c0.15-0.09,0.27-0.2,0.36-0.32C98.98,60.62,99.03,60.46,99.03,60.26z"/>
			<path class="st2" d="M102.04,63.15c-0.04-0.08-0.09-0.17-0.15-0.27c-0.06-0.1-0.12-0.2-0.19-0.3c-0.07-0.1-0.14-0.21-0.21-0.31
				s-0.14-0.2-0.21-0.29c-0.07,0.09-0.14,0.19-0.21,0.29c-0.07,0.1-0.14,0.21-0.21,0.31c-0.07,0.1-0.13,0.21-0.19,0.3
				c-0.06,0.1-0.11,0.19-0.15,0.26h-0.52c0.13-0.25,0.28-0.5,0.45-0.76c0.18-0.26,0.35-0.5,0.52-0.74l-0.93-1.35h0.57l0.67,1l0.68-1
				h0.54l-0.91,1.32c0.17,0.24,0.35,0.49,0.53,0.75s0.34,0.52,0.46,0.77H102.04z"/>
			<path class="st2" d="M103.03,61.63c0-0.37,0.05-0.69,0.15-0.98s0.25-0.52,0.43-0.71c0.19-0.19,0.41-0.34,0.68-0.44
				c0.27-0.1,0.56-0.15,0.9-0.16l0.04,0.43c-0.21,0-0.41,0.03-0.58,0.07c-0.17,0.04-0.33,0.11-0.47,0.21
				c-0.14,0.09-0.25,0.22-0.35,0.37c-0.09,0.15-0.16,0.34-0.21,0.56c0.09-0.04,0.2-0.08,0.32-0.11c0.12-0.03,0.24-0.04,0.37-0.04
				c0.21,0,0.39,0.03,0.54,0.1s0.27,0.15,0.36,0.26s0.16,0.23,0.2,0.37c0.04,0.14,0.06,0.29,0.06,0.44c0,0.14-0.02,0.28-0.07,0.43
				c-0.05,0.15-0.12,0.28-0.21,0.4c-0.1,0.12-0.22,0.22-0.37,0.3c-0.15,0.08-0.32,0.11-0.53,0.11c-0.41,0-0.73-0.14-0.94-0.43
				S103.03,62.13,103.03,61.63z M104.24,61.25c-0.13,0-0.24,0.01-0.35,0.04c-0.11,0.02-0.22,0.06-0.33,0.11
				c0,0.04-0.01,0.08-0.01,0.12c0,0.04,0,0.08,0,0.12c0,0.16,0.01,0.31,0.03,0.45s0.06,0.27,0.12,0.37
				c0.06,0.11,0.13,0.19,0.23,0.26c0.09,0.06,0.21,0.1,0.36,0.1c0.12,0,0.22-0.03,0.3-0.08c0.08-0.05,0.15-0.12,0.21-0.2
				c0.05-0.08,0.09-0.17,0.12-0.26c0.02-0.09,0.04-0.18,0.04-0.27c0-0.25-0.06-0.44-0.18-0.57
				C104.66,61.31,104.48,61.25,104.24,61.25z"/>
			<path class="st2" d="M105.96,61.84c0.07-0.16,0.16-0.35,0.28-0.56c0.12-0.21,0.25-0.43,0.4-0.66c0.15-0.23,0.31-0.45,0.48-0.67
				c0.17-0.22,0.34-0.42,0.52-0.59h0.48v2.4h0.44v0.42h-0.44v0.97h-0.49v-0.97h-1.68V61.84z M107.64,59.97
				c-0.11,0.12-0.22,0.25-0.33,0.39c-0.11,0.14-0.22,0.29-0.32,0.45c-0.1,0.16-0.2,0.32-0.29,0.48s-0.17,0.32-0.25,0.48h1.19V59.97z
				"/>
			<path class="st2" d="M110.88,61.52c0-0.47-0.07-0.9-0.2-1.3c-0.13-0.4-0.33-0.77-0.59-1.1l0.36-0.25
				c0.28,0.35,0.51,0.74,0.68,1.19c0.17,0.45,0.26,0.93,0.26,1.45c0,0.52-0.09,1-0.26,1.45c-0.17,0.45-0.4,0.85-0.68,1.19
				l-0.36-0.25c0.26-0.34,0.46-0.71,0.59-1.1S110.88,61.99,110.88,61.52z"/>
		</g>
	</g>
</g>
</svg>
