<svg xmlns="http://www.w3.org/2000/svg" viewBox="0 0 87.285 172.15"><defs><style>.cls-1{fill:#19191a;}.cls-2,.cls-5{fill:none;stroke-miterlimit:10;}.cls-2{stroke:#cec7bd;stroke-width:4.252px;}.cls-3{fill:#cec7bd;}.cls-4{fill:#fff;}.cls-5{stroke:#fff;}.cls-6{fill:#918c84;}.cls-7{fill:#4c4c4c;}.cls-8{fill:#666566;}</style></defs><g id="Слой_1" data-name="Слой 1"><g id="Bottom"><path class="cls-1" d="M1.875,41.67v5.86L.005,49.4v75.49l1.87,1.87v5.86l-1.87,1.87v34.79l2.82,2.82h34.17l2.54-3.48h6.27l2.54,3.48h34.17l2.82-2.82V134.51l1.95-1.85v-5.91l-1.95-1.85V49.4l1.95-1.85V41.64l-1.95-1.85V5.01L82.6,2.07H48.355L45.745,0H39.6l-2.61,2.07H2.745L.005,5.01V39.8ZM14.2,12.1a4.255,4.255,0,1,1-4.25-4.25A4.253,4.253,0,0,1,14.2,12.1Zm0,21.26a4.255,4.255,0,1,1-4.25-4.25A4.261,4.261,0,0,1,14.2,33.36Zm0,22.61a4.255,4.255,0,1,1-4.25-4.25A4.253,4.253,0,0,1,14.2,55.97Zm0,21.36a4.255,4.255,0,1,1-4.25-4.25A4.253,4.253,0,0,1,14.2,77.33ZM58.445,12.1A4.25,4.25,0,1,1,54.2,7.85,4.246,4.246,0,0,1,58.445,12.1Zm21.21,0A4.255,4.255,0,1,1,75.4,7.85,4.255,4.255,0,0,1,79.655,12.1Zm0,21.26a4.255,4.255,0,1,1-4.26-4.25A4.264,4.264,0,0,1,79.655,33.36Zm0,22.61a4.255,4.255,0,1,1-4.26-4.25A4.255,4.255,0,0,1,79.655,55.97Zm0,21.36a4.255,4.255,0,1,1-4.26-4.25A4.255,4.255,0,0,1,79.655,77.33Zm-8.63,84.9a4.236,4.236,0,0,1,1.88-3.52c.01-.01.02-.02.03-.02a3.447,3.447,0,0,1,.32-.2,4.292,4.292,0,0,1,2.02-.51h.12a4.27,4.27,0,0,1,3.97,2.69,5.15,5.15,0,0,1,.2.7,2.713,2.713,0,0,1,.06.38,3.866,3.866,0,0,1,.03.48,4.255,4.255,0,0,1-4.26,4.25c-.02,0-.04-.01-.06-.01s-.04.01-.06.01A4.253,4.253,0,0,1,71.025,162.23Zm8.63-43.8a4.255,4.255,0,1,1-4.26-4.25A4.264,4.264,0,0,1,79.655,118.43ZM75.4,101.35a4.25,4.25,0,1,1,4.26-4.25A4.253,4.253,0,0,1,75.4,101.35Zm4.26,39.8a4.255,4.255,0,1,1-4.26-4.25A4.255,4.255,0,0,1,79.655,141.15ZM64.605,87.21a.749.749,0,0,1,.75-.75h17.02a.75.75,0,0,1,0,1.5H65.355A.743.743,0,0,1,64.605,87.21Zm-2.23.75H51.555a.75.75,0,1,1,0-1.5h10.82a.75.75,0,0,1,0,1.5Zm-12.44,74.2a4.25,4.25,0,1,1,4.25,4.25A4.246,4.246,0,0,1,49.935,162.16ZM36.805,87.21a.749.749,0,0,1,.75-.75h10.82a.75.75,0,0,1,0,1.5H37.555A.743.743,0,0,1,36.805,87.21ZM35.4,12.1a4.25,4.25,0,1,1-4.25-4.25A4.246,4.246,0,0,1,35.4,12.1Zm-8.51,150.06a4.25,4.25,0,1,1,4.25,4.25A4.246,4.246,0,0,1,26.885,162.16Zm-4.08-74.95a.749.749,0,0,1,.75-.75h10.82a.75.75,0,0,1,0,1.5H23.555A.743.743,0,0,1,22.805,87.21Zm-17.1,75.45c-.01-.14-.02-.28-.02-.43a4.255,4.255,0,0,1,4.26-4.25h.12a4.3,4.3,0,0,1,1.96.48,2.606,2.606,0,0,1,.28.17,4.242,4.242,0,0,1-2.24,7.85c-.02,0-.04-.01-.06-.01s-.04.01-.06.01a4.238,4.238,0,0,1-3.97-2.72c-.04-.11-.08-.22-.11-.33a1.89,1.89,0,0,1-.1-.41A2.254,2.254,0,0,1,5.705,162.66Zm8.49-44.23a4.255,4.255,0,1,1-4.25-4.25A4.261,4.261,0,0,1,14.2,118.43Zm-4.25-17.08A4.25,4.25,0,1,1,14.2,97.1,4.255,4.255,0,0,1,9.945,101.35Zm4.25,39.8a4.255,4.255,0,1,1-4.25-4.25A4.253,4.253,0,0,1,14.2,141.15ZM2.975,87.21a.755.755,0,0,1,.75-.75h17.03a.75.75,0,0,1,0,1.5H3.725A.749.749,0,0,1,2.975,87.21Z"/><circle class="cls-2" cx="75.394" cy="118.528" r="6.335"/><circle class="cls-2" cx="75.394" cy="141.106" r="6.335"/><circle class="cls-2" cx="75.406" cy="33.348" r="6.335"/><circle class="cls-2" cx="75.406" cy="56.063" r="6.335"/><circle class="cls-2" cx="9.994" cy="118.528" r="6.335"/><circle class="cls-2" cx="9.994" cy="141.106" r="6.335"/><circle class="cls-2" cx="10.006" cy="33.348" r="6.335"/><circle class="cls-2" cx="10.006" cy="56.063" r="6.335"/><circle class="cls-2" cx="53.988" cy="12.095" r="6.335"/><circle class="cls-2" cx="31.273" cy="12.095" r="6.335"/><circle class="cls-2" cx="53.988" cy="162.117" r="6.335"/><circle class="cls-2" cx="31.273" cy="162.117" r="6.335"/><path class="cls-3" d="M79.942,152.424h0c0,1.407,1.429,2.558,3.175,2.558h2.235v-5.116H83.117C81.371,149.866,79.942,151.017,79.942,152.424Z"/><path class="cls-3" d="M79.942,106.9h0c0,1.407,1.429,2.558,3.175,2.558h2.235v-5.116H83.117C81.371,104.337,79.942,105.488,79.942,106.9Z"/><path class="cls-3" d="M79.942,67.267h0c0,1.407,1.429,2.558,3.175,2.558h2.235V64.709H83.117C81.371,64.709,79.942,65.86,79.942,67.267Z"/><path class="cls-3" d="M79.942,21.86h0c0,1.407,1.429,2.558,3.175,2.558h2.235V19.3H83.117C81.371,19.3,79.942,20.453,79.942,21.86Z"/><path class="cls-3" d="M20.179,7.455h0c-1.407,0-2.558-1.429-2.558-3.176V2.028h5.116V4.279C22.737,6.026,21.586,7.455,20.179,7.455Z"/><path class="cls-3" d="M65.516,7.5h0c-1.407,0-2.559-1.429-2.559-3.175V2.023h5.117V4.329C68.074,6.075,66.922,7.5,65.516,7.5Z"/><path class="cls-3" d="M5.353,21.86h0c0-1.407-1.429-2.558-3.175-2.558H.005v5.116H2.178C3.924,24.418,5.353,23.267,5.353,21.86Z"/><path class="cls-3" d="M5.353,67.275h0c0-1.407-1.429-2.558-3.175-2.558H.005v5.116H2.178C3.924,69.833,5.353,68.682,5.353,67.275Z"/><path class="cls-3" d="M5.41,106.9h0c0-1.407-1.429-2.558-3.176-2.558H0v5.116H2.234C3.981,109.456,5.41,108.305,5.41,106.9Z"/><path class="cls-3" d="M5.416,152.446h0c0-1.407-1.429-2.558-3.176-2.558H.005V155H2.24C3.987,155,5.416,153.853,5.416,152.446Z"/><path class="cls-3" d="M65.59,166.74h0c1.407,0,2.558,1.429,2.558,3.176v2.234H63.032v-2.234C63.032,168.169,64.183,166.74,65.59,166.74Z"/><path class="cls-3" d="M20.179,166.69h0c1.407,0,2.558,1.429,2.558,3.176V172.1H17.621v-2.234C17.621,168.119,18.772,166.69,20.179,166.69Z"/><rect class="cls-4" x="22.142" y="77.638" width="6.35" height="3.576" rx="0.142" transform="translate(50.633 158.853) rotate(-180)"/><path class="cls-4" d="M65.338,11.455V10.42h.428v1.035h1.123v.474H65.766v1.035h-.428V11.929H64.3v-.474Z"/><path class="cls-4" d="M20.357,9.948v3.406h-.368V9.948Z"/><path class="cls-4" d="M10.415,67.045H11.45v.428H10.415V68.6H9.941V67.473H8.906v-.428H9.941V66.008h.474Z"/><path class="cls-4" d="M11.922,22.033H8.516v-.369h3.406Z"/><path class="cls-4" d="M75.851,67.045h1.035v.428H75.851V68.6h-.474V67.473H74.342v-.428h1.035V66.008h.474Z"/><path class="cls-4" d="M77.358,22.052H73.952v-.369h3.406Z"/><path class="cls-4" d="M9.975,152.248H11.01v.428H9.975V153.8H9.5v-1.123H8.466v-.428H9.5v-1.037h.473Z"/><path class="cls-4" d="M11.483,107.06H8.077v-.368h3.406Z"/><path class="cls-4" d="M75.411,152.248h1.035v.428H75.411V153.8h-.473v-1.123H73.9v-.428h1.036v-1.037h.473Z"/><path class="cls-4" d="M76.919,107.06H73.513v-.368h3.406Z"/><path class="cls-4" d="M65.338,161.893v-1.035h.428v1.035h1.123v.474H65.766V163.4h-.428v-1.035H64.3v-.474Z"/><path class="cls-4" d="M20.357,160.385v3.406h-.368v-3.406Z"/><rect class="cls-5" x="49.918" y="62.031" width="7.317" height="19.614"/><rect class="cls-5" x="42.601" y="62.031" width="7.317" height="19.614"/><rect class="cls-5" x="35.284" y="62.031" width="7.317" height="19.614"/><rect class="cls-5" x="27.967" y="62.031" width="7.317" height="19.614"/><path d="M22.981,80.513H22.7V78.38h.281Z"/><path d="M24.822,80.513h-1.4v-.2l.738-.821a1.766,1.766,0,0,0,.226-.3.5.5,0,0,0,.062-.241.388.388,0,0,0-.1-.274.36.36,0,0,0-.27-.107.419.419,0,0,0-.314.115.434.434,0,0,0-.113.32h-.27a.627.627,0,0,1,.189-.476.7.7,0,0,1,.508-.182.673.673,0,0,1,.47.157.531.531,0,0,1,.173.415,1.219,1.219,0,0,1-.4.75l-.571.619h1.07Z"/><path d="M26.75,79.836a.783.783,0,0,1-.25.522.816.816,0,0,1-.559.184.749.749,0,0,1-.605-.271,1.092,1.092,0,0,1-.229-.725v-.205a1.224,1.224,0,0,1,.107-.523.782.782,0,0,1,.3-.346.82.82,0,0,1,.45-.122.771.771,0,0,1,.545.19.793.793,0,0,1,.239.525h-.283a.613.613,0,0,0-.158-.37.485.485,0,0,0-.343-.115.5.5,0,0,0-.422.2.909.909,0,0,0-.153.567v.207a.956.956,0,0,0,.144.553.471.471,0,0,0,.406.2.539.539,0,0,0,.36-.106.585.585,0,0,0,.166-.37Z"/><path class="cls-4" d="M40.375,110.533l-2.932-1.007v-.508L41,110.325v.412l-3.555,1.3v-.506Z"/><path class="cls-4" d="M39.87,105.952a1.312,1.312,0,0,1,.87.414,1.343,1.343,0,0,1,.306.922,1.239,1.239,0,0,1-.451,1,1.827,1.827,0,0,1-1.209.376h-.342a2.037,2.037,0,0,1-.871-.175,1.326,1.326,0,0,1-.578-.5,1.383,1.383,0,0,1-.2-.747,1.272,1.272,0,0,1,.316-.9,1.334,1.334,0,0,1,.875-.395v.468a1.029,1.029,0,0,0-.617.262.792.792,0,0,0-.191.565.829.829,0,0,0,.333.7,1.531,1.531,0,0,0,.945.254H39.4a1.576,1.576,0,0,0,.921-.241.771.771,0,0,0,.342-.671.886.886,0,0,0-.177-.593.983.983,0,0,0-.616-.275Z"/><path class="cls-4" d="M39.87,102.726a1.315,1.315,0,0,1,.87.413,1.344,1.344,0,0,1,.306.923,1.237,1.237,0,0,1-.451,1,1.828,1.828,0,0,1-1.209.377h-.342a2.037,2.037,0,0,1-.871-.176,1.326,1.326,0,0,1-.578-.5,1.382,1.382,0,0,1-.2-.746,1.274,1.274,0,0,1,.316-.9,1.333,1.333,0,0,1,.875-.394v.468a1.035,1.035,0,0,0-.617.261.794.794,0,0,0-.191.566.827.827,0,0,0,.333.7,1.531,1.531,0,0,0,.945.253H39.4a1.576,1.576,0,0,0,.921-.239.773.773,0,0,0,.342-.671.889.889,0,0,0-.177-.594.983.983,0,0,0-.616-.274Z"/><path class="cls-4" d="M33.313,109.1a1.084,1.084,0,0,1,.387.5,2.015,2.015,0,0,1,.128.747,1.44,1.44,0,0,1-.2.765,1.356,1.356,0,0,1-.58.516,2.024,2.024,0,0,1-.872.189h-.31a1.88,1.88,0,0,1-1.245-.372,1.292,1.292,0,0,1-.442-1.044,1.331,1.331,0,0,1,.285-.889,1.244,1.244,0,0,1,.807-.412v.465a.771.771,0,0,0-.708.833.819.819,0,0,0,.331.708,1.617,1.617,0,0,0,.959.243h.291a1.52,1.52,0,0,0,.951-.271.873.873,0,0,0,.353-.733,1.609,1.609,0,0,0-.058-.458.711.711,0,0,0-.2-.324h-.8v.815h-.383V109.1Z"/><path class="cls-4" d="M33.779,105.616v.467l-2.739,1.774h2.739v.468H30.224v-.468l2.752-1.779H30.224v-.462Z"/><path class="cls-4" d="M33.779,104.79H30.224V103.8a1.6,1.6,0,0,1,.2-.813,1.371,1.371,0,0,1,.584-.546,1.908,1.908,0,0,1,.869-.195h.227a1.922,1.922,0,0,1,.881.192,1.355,1.355,0,0,1,.581.55,1.689,1.689,0,0,1,.208.831Zm-3.172-.464H33.4v-.489a1.062,1.062,0,0,0-.338-.837,1.4,1.4,0,0,0-.96-.3H31.89a1.418,1.418,0,0,0-.942.282,1,1,0,0,0-.341.8Z"/><path class="cls-4" d="M46.634,110.661a2.168,2.168,0,0,1-.426.871.818.818,0,0,1-.624.272.862.862,0,0,1-.694-.333,1.317,1.317,0,0,1-.275-.865,1.429,1.429,0,0,1,.142-.648,1.049,1.049,0,0,1,.391-.44,1,1,0,0,1,.543-.156v.466a.649.649,0,0,0-.507.2.819.819,0,0,0-.186.574.844.844,0,0,0,.153.536.513.513,0,0,0,.424.192.459.459,0,0,0,.368-.182,1.767,1.767,0,0,0,.276-.622,2.866,2.866,0,0,1,.275-.688,1.046,1.046,0,0,1,.35-.368.9.9,0,0,1,.471-.12.834.834,0,0,1,.693.334,1.415,1.415,0,0,1,.26.893,1.637,1.637,0,0,1-.141.678,1.144,1.144,0,0,1-.385.485.939.939,0,0,1-.553.171v-.467a.614.614,0,0,0,.508-.236.986.986,0,0,0,.187-.631.9.9,0,0,0-.152-.564.492.492,0,0,0-.412-.195.485.485,0,0,0-.4.181A2.079,2.079,0,0,0,46.634,110.661Z"/><path class="cls-4" d="M48.219,108.758H44.664v-.995a1.587,1.587,0,0,1,.2-.813,1.386,1.386,0,0,1,.583-.546,1.911,1.911,0,0,1,.869-.195h.228a1.909,1.909,0,0,1,.881.193,1.353,1.353,0,0,1,.581.549,1.69,1.69,0,0,1,.208.832Zm-3.172-.465h2.788V107.8a1.058,1.058,0,0,0-.337-.836,1.4,1.4,0,0,0-.96-.3H46.33a1.424,1.424,0,0,0-.942.282,1,1,0,0,0-.341.8Z"/><path class="cls-4" d="M47.288,103.561v1.476l.931.332v.48L44.664,104.5V104.1l3.555-1.348v.477Zm-.383,1.337v-1.2l-1.663.6Z"/><path class="cls-4" d="M53.618,110.661a2.168,2.168,0,0,1-.426.871.818.818,0,0,1-.624.272.864.864,0,0,1-.694-.333,1.317,1.317,0,0,1-.274-.865,1.442,1.442,0,0,1,.141-.648,1.055,1.055,0,0,1,.391-.44,1,1,0,0,1,.544-.156v.466a.65.65,0,0,0-.508.2.819.819,0,0,0-.186.574.838.838,0,0,0,.154.536.51.51,0,0,0,.424.192.461.461,0,0,0,.368-.182,1.788,1.788,0,0,0,.275-.622,2.822,2.822,0,0,1,.276-.688,1.035,1.035,0,0,1,.349-.368.9.9,0,0,1,.472-.12.833.833,0,0,1,.692.334,1.415,1.415,0,0,1,.26.893,1.637,1.637,0,0,1-.141.678,1.134,1.134,0,0,1-.384.485.942.942,0,0,1-.554.171v-.467a.614.614,0,0,0,.509-.236.985.985,0,0,0,.186-.631.908.908,0,0,0-.151-.564.493.493,0,0,0-.412-.195A.486.486,0,0,0,53.9,110,2.1,2.1,0,0,0,53.618,110.661Z"/><path class="cls-4" d="M55.2,108.758H51.648v-.995a1.587,1.587,0,0,1,.206-.813,1.381,1.381,0,0,1,.583-.546,1.911,1.911,0,0,1,.869-.195h.227a1.909,1.909,0,0,1,.881.193,1.353,1.353,0,0,1,.581.549,1.69,1.69,0,0,1,.208.832Zm-3.172-.465h2.788V107.8a1.058,1.058,0,0,0-.337-.836,1.4,1.4,0,0,0-.959-.3h-.208a1.427,1.427,0,0,0-.943.282,1,1,0,0,0-.341.8Z"/><path class="cls-4" d="M54.819,105.04v-1.67H55.2v2.137H51.648v-.467Z"/><path class="cls-3" d="M34.238,77.908A2.241,2.241,0,1,0,32,80.13,2.231,2.231,0,0,0,34.238,77.908Z"/><ellipse class="cls-6" cx="31.997" cy="77.908" rx="1.532" ry="1.519"/><path class="cls-3" d="M41.466,77.908a2.241,2.241,0,1,0-2.24,2.222A2.231,2.231,0,0,0,41.466,77.908Z"/><ellipse class="cls-6" cx="39.225" cy="77.908" rx="1.532" ry="1.519"/><path class="cls-3" d="M48.666,77.908a2.241,2.241,0,1,0-2.24,2.222A2.231,2.231,0,0,0,48.666,77.908Z"/><ellipse class="cls-6" cx="46.425" cy="77.908" rx="1.532" ry="1.519"/><path class="cls-3" d="M55.253,79.537a2.279,2.279,0,0,0-2.183-3.784,2.206,2.206,0,0,0-1.6,1.595A2.279,2.279,0,0,0,55.253,79.537Z"/><ellipse class="cls-6" cx="53.625" cy="77.908" rx="1.532" ry="1.519"/><rect class="cls-5" x="49.918" y="94.167" width="7.317" height="19.614"/><rect class="cls-5" x="42.601" y="94.167" width="7.317" height="19.614"/><rect class="cls-5" x="35.284" y="94.167" width="7.317" height="19.614"/><rect class="cls-5" x="27.967" y="94.167" width="7.317" height="19.614"/><rect class="cls-4" x="22.116" y="94.366" width="5.65" height="3.576" rx="0.142" transform="translate(49.882 192.308) rotate(-180)"/><path class="cls-4" d="M47.631,72.161,44.7,71.154v-.508l3.555,1.307v.412L44.7,73.67v-.506Z"/><path class="cls-4" d="M47.126,67.581a1.315,1.315,0,0,1,.87.413,1.346,1.346,0,0,1,.307.923,1.239,1.239,0,0,1-.452,1,1.826,1.826,0,0,1-1.208.376H46.3a2.041,2.041,0,0,1-.872-.176,1.31,1.31,0,0,1-.577-.5,1.38,1.38,0,0,1-.2-.746,1.266,1.266,0,0,1,.317-.9,1.33,1.33,0,0,1,.875-.395v.468a1.027,1.027,0,0,0-.617.262.788.788,0,0,0-.192.565.832.832,0,0,0,.333.7,1.537,1.537,0,0,0,.946.253h.344a1.576,1.576,0,0,0,.921-.24.773.773,0,0,0,.342-.671.891.891,0,0,0-.177-.594.983.983,0,0,0-.616-.274Z"/><path class="cls-4" d="M47.126,64.355a1.31,1.31,0,0,1,.87.412,1.349,1.349,0,0,1,.307.924,1.239,1.239,0,0,1-.452,1,1.826,1.826,0,0,1-1.208.376H46.3a2.041,2.041,0,0,1-.872-.175,1.319,1.319,0,0,1-.577-.5,1.376,1.376,0,0,1-.2-.745,1.267,1.267,0,0,1,.317-.9,1.324,1.324,0,0,1,.875-.394v.467a1.027,1.027,0,0,0-.617.262.79.79,0,0,0-.192.566.829.829,0,0,0,.333.7,1.531,1.531,0,0,0,.946.253h.344a1.576,1.576,0,0,0,.921-.24.771.771,0,0,0,.342-.67.889.889,0,0,0-.177-.594.983.983,0,0,0-.616-.275Z"/><path class="cls-4" d="M55.094,70.725a1.082,1.082,0,0,1,.387.5,2.017,2.017,0,0,1,.128.748,1.436,1.436,0,0,1-.2.764,1.341,1.341,0,0,1-.58.517,2.022,2.022,0,0,1-.871.188h-.31A1.881,1.881,0,0,1,52.4,73.07a1.294,1.294,0,0,1-.441-1.044,1.331,1.331,0,0,1,.284-.888,1.247,1.247,0,0,1,.807-.413v.465a.772.772,0,0,0-.708.833.818.818,0,0,0,.331.708,1.621,1.621,0,0,0,.959.243h.291a1.523,1.523,0,0,0,.952-.27.878.878,0,0,0,.353-.733,1.6,1.6,0,0,0-.059-.458.705.705,0,0,0-.2-.325h-.8V72H53.79V70.725Z"/><path class="cls-4" d="M55.561,67.243v.467l-2.74,1.774h2.74v.467H52.006v-.467l2.751-1.779H52.006v-.462Z"/><path class="cls-4" d="M55.561,66.417H52.006v-.994a1.59,1.59,0,0,1,.2-.814,1.386,1.386,0,0,1,.583-.546,1.91,1.91,0,0,1,.869-.194h.228a1.909,1.909,0,0,1,.881.192,1.359,1.359,0,0,1,.581.549,1.7,1.7,0,0,1,.208.832Zm-3.172-.465h2.788v-.488a1.06,1.06,0,0,0-.337-.837,1.4,1.4,0,0,0-.96-.3h-.208a1.424,1.424,0,0,0-.942.282,1,1,0,0,0-.341.8Z"/><path class="cls-4" d="M32.054,72.29a2.183,2.183,0,0,1-.427.87.811.811,0,0,1-.623.272.864.864,0,0,1-.7-.333,1.318,1.318,0,0,1-.274-.865,1.435,1.435,0,0,1,.141-.647,1.065,1.065,0,0,1,.391-.441,1.007,1.007,0,0,1,.544-.156v.467a.651.651,0,0,0-.508.2.825.825,0,0,0-.185.574.842.842,0,0,0,.153.536.512.512,0,0,0,.424.193.462.462,0,0,0,.368-.183,1.8,1.8,0,0,0,.276-.622,2.815,2.815,0,0,1,.275-.687,1.032,1.032,0,0,1,.35-.369.9.9,0,0,1,.471-.12.836.836,0,0,1,.692.334,1.42,1.42,0,0,1,.26.894,1.64,1.64,0,0,1-.141.678,1.134,1.134,0,0,1-.384.485.947.947,0,0,1-.554.171v-.468a.613.613,0,0,0,.509-.235.988.988,0,0,0,.187-.631.911.911,0,0,0-.152-.565.493.493,0,0,0-.412-.195.487.487,0,0,0-.405.182A2.106,2.106,0,0,0,32.054,72.29Z"/><path class="cls-4" d="M32.51,67.794a1.311,1.311,0,0,1,.87.413,1.34,1.34,0,0,1,.307.923,1.236,1.236,0,0,1-.452,1,1.826,1.826,0,0,1-1.208.376h-.342a2.037,2.037,0,0,1-.871-.176,1.313,1.313,0,0,1-.578-.5,1.382,1.382,0,0,1-.2-.746,1.265,1.265,0,0,1,.316-.9,1.329,1.329,0,0,1,.875-.395v.468a1.021,1.021,0,0,0-.617.262.787.787,0,0,0-.191.565.827.827,0,0,0,.333.7,1.529,1.529,0,0,0,.945.254h.345a1.573,1.573,0,0,0,.92-.24.771.771,0,0,0,.343-.671.889.889,0,0,0-.177-.594.981.981,0,0,0-.617-.274Z"/><path class="cls-4" d="M33.255,66.693v-1.67h.383V67.16H30.084v-.467Z"/><path class="cls-4" d="M39.362,72.29a2.17,2.17,0,0,1-.426.87.814.814,0,0,1-.623.272.863.863,0,0,1-.7-.333,1.313,1.313,0,0,1-.275-.865,1.435,1.435,0,0,1,.142-.647,1.058,1.058,0,0,1,.391-.441,1,1,0,0,1,.544-.156v.467a.649.649,0,0,0-.508.2.82.82,0,0,0-.185.574.842.842,0,0,0,.152.536.514.514,0,0,0,.425.193.462.462,0,0,0,.368-.183,1.788,1.788,0,0,0,.275-.622,2.856,2.856,0,0,1,.275-.687,1.049,1.049,0,0,1,.35-.369.9.9,0,0,1,.472-.12.836.836,0,0,1,.692.334,1.42,1.42,0,0,1,.26.894,1.64,1.64,0,0,1-.141.678,1.142,1.142,0,0,1-.384.485.951.951,0,0,1-.554.171v-.468a.613.613,0,0,0,.508-.235.988.988,0,0,0,.187-.631.912.912,0,0,0-.151-.565.494.494,0,0,0-.413-.195.486.486,0,0,0-.4.182A2.079,2.079,0,0,0,39.362,72.29Z"/><path class="cls-4" d="M40.947,70.387H37.392v-1a1.59,1.59,0,0,1,.2-.814,1.381,1.381,0,0,1,.584-.545,1.9,1.9,0,0,1,.869-.2h.227a1.922,1.922,0,0,1,.881.192,1.365,1.365,0,0,1,.581.549,1.7,1.7,0,0,1,.208.832Zm-3.172-.465h2.789v-.489a1.058,1.058,0,0,0-.338-.836,1.4,1.4,0,0,0-.96-.3h-.208a1.423,1.423,0,0,0-.942.281,1.006,1.006,0,0,0-.341.8Z"/><path class="cls-4" d="M40.017,65.19v1.476l.93.332v.479l-3.555-1.345v-.407l3.555-1.348v.476Zm-.384,1.336v-1.2l-1.662.6Z"/><path class="cls-3" d="M33.836,97.9a2.241,2.241,0,1,1-2.24-2.223A2.231,2.231,0,0,1,33.836,97.9Z"/><ellipse class="cls-6" cx="31.595" cy="97.904" rx="1.532" ry="1.519"/><path class="cls-3" d="M41.064,97.9a2.241,2.241,0,1,1-2.24-2.223A2.231,2.231,0,0,1,41.064,97.9Z"/><ellipse class="cls-6" cx="38.824" cy="97.904" rx="1.532" ry="1.519"/><path class="cls-3" d="M48.264,97.9a2.241,2.241,0,1,1-2.24-2.223A2.231,2.231,0,0,1,48.264,97.9Z"/><ellipse class="cls-6" cx="46.024" cy="97.904" rx="1.532" ry="1.519"/><path class="cls-3" d="M54.852,96.275a2.279,2.279,0,0,1-2.184,3.784,2.207,2.207,0,0,1-1.6-1.595A2.279,2.279,0,0,1,54.852,96.275Z"/><ellipse class="cls-6" cx="53.224" cy="97.904" rx="1.532" ry="1.519"/><g id="Колодка_А0-А5" data-name="Колодка А0-А5"><rect class="cls-7" x="29.201" y="95.304" width="5.2" height="5.2"/><path class="cls-8" d="M30.2,99.5V96.3h3.2v3.2H30.2m-2,2h7.2V94.3H28.2v7.2Z"/><rect class="cls-7" x="36.401" y="95.304" width="5.2" height="5.2"/><path class="cls-8" d="M37.4,99.5V96.3h3.2v3.2H37.4m-2,2h7.2V94.3H35.4v7.2Z"/><rect class="cls-7" x="43.601" y="95.304" width="5.2" height="5.2"/><path class="cls-8" d="M44.6,99.5V96.3h3.2v3.2H44.6m-2,2h7.2V94.3H42.6v7.2Z"/><rect class="cls-7" x="50.801" y="95.304" width="5.2" height="5.2"/><path class="cls-8" d="M51.8,99.5V96.3H55v3.2H51.8m-2,2H57V94.3H49.8v7.2Z"/></g><g id="Колодка_А0-А5-2" data-name="Колодка А0-А5"><rect class="cls-7" x="29.201" y="75.308" width="5.2" height="5.2"/><path class="cls-8" d="M30.2,79.508v-3.2h3.2v3.2H30.2m-2,2h7.2v-7.2H28.2v7.2Z"/><rect class="cls-7" x="36.401" y="75.308" width="5.2" height="5.2"/><path class="cls-8" d="M37.4,79.508v-3.2h3.2v3.2H37.4m-2,2h7.2v-7.2H35.4v7.2Z"/><rect class="cls-7" x="43.601" y="75.308" width="5.2" height="5.2"/><path class="cls-8" d="M44.6,79.508v-3.2h3.2v3.2H44.6m-2,2h7.2v-7.2H42.6v7.2Z"/><rect class="cls-7" x="50.801" y="75.308" width="5.2" height="5.2"/><path class="cls-8" d="M51.8,79.508v-3.2H55v3.2H51.8m-2,2H57v-7.2H49.8v7.2Z"/></g><path d="M22.981,97.107H22.7V94.974h.281Z"/><path d="M24.822,97.107h-1.4v-.2l.738-.82a1.728,1.728,0,0,0,.226-.3.5.5,0,0,0,.062-.241.388.388,0,0,0-.1-.274.356.356,0,0,0-.27-.107.412.412,0,0,0-.314.116.43.43,0,0,0-.113.319h-.27a.627.627,0,0,1,.189-.476.7.7,0,0,1,.508-.181.672.672,0,0,1,.47.156.531.531,0,0,1,.173.415,1.219,1.219,0,0,1-.4.75l-.571.619h1.07Z"/><path d="M26.75,96.43a.783.783,0,0,1-.25.522.816.816,0,0,1-.559.184.752.752,0,0,1-.605-.271,1.09,1.09,0,0,1-.229-.725v-.2a1.235,1.235,0,0,1,.107-.524.785.785,0,0,1,.3-.345.828.828,0,0,1,.45-.121.771.771,0,0,1,.545.189.793.793,0,0,1,.239.526h-.283a.616.616,0,0,0-.158-.371.481.481,0,0,0-.343-.115.5.5,0,0,0-.422.2.914.914,0,0,0-.153.568v.207a.956.956,0,0,0,.144.553.473.473,0,0,0,.406.205.544.544,0,0,0,.36-.106.585.585,0,0,0,.166-.37Z"/></g></g></svg>