<svg xmlns="http://www.w3.org/2000/svg" viewBox="0 0 87.285 172.15"><defs><style>.cls-1{fill:#19191a;}.cls-2,.cls-5{fill:none;stroke-miterlimit:10;}.cls-2{stroke:#cec7bd;stroke-width:4.252px;}.cls-3{fill:#cec7bd;}.cls-4{fill:#fff;}.cls-5{stroke:#fff;}.cls-6{fill:#918c84;}</style></defs><g id="Слой_1" data-name="Слой 1"><g id="Top"><path class="cls-1" d="M87.28,39.8V5.01L84.54,2.07H50.3L47.69,0H41.54L38.93,2.07H4.69L1.95,5.01V39.79L0,41.64v5.91L1.95,49.4v75.5L0,126.75v5.91l1.95,1.85v34.77l2.82,2.82H38.94l2.54-3.48h6.27l2.54,3.48H84.46l2.82-2.82V134.49l-1.87-1.87v-5.86l1.87-1.87V49.4l-1.87-1.87V41.67ZM77.34,7.85a4.25,4.25,0,1,1-4.25,4.25A4.255,4.255,0,0,1,77.34,7.85Zm0,21.26a4.255,4.255,0,1,1-4.25,4.25A4.261,4.261,0,0,1,77.34,29.11Zm0,22.61a4.25,4.25,0,1,1-4.25,4.25A4.255,4.255,0,0,1,77.34,51.72Zm0,21.36a4.25,4.25,0,1,1-4.25,4.25A4.255,4.255,0,0,1,77.34,73.08ZM33.09,7.85a4.25,4.25,0,1,1-4.25,4.25A4.246,4.246,0,0,1,33.09,7.85Zm-21.2,0A4.25,4.25,0,1,1,7.63,12.1,4.253,4.253,0,0,1,11.89,7.85Zm0,21.26a4.255,4.255,0,1,1-4.26,4.25A4.259,4.259,0,0,1,11.89,29.11Zm0,22.61a4.25,4.25,0,1,1-4.26,4.25A4.253,4.253,0,0,1,11.89,51.72Zm0,21.36a4.25,4.25,0,1,1-4.26,4.25A4.253,4.253,0,0,1,11.89,73.08Zm.12,93.4c-.02,0-.04-.01-.06-.01s-.04.01-.06.01a4.255,4.255,0,0,1-4.26-4.25,3.866,3.866,0,0,1,.03-.48,2.713,2.713,0,0,1,.06-.38,5.15,5.15,0,0,1,.2-.7,4.27,4.27,0,0,1,3.97-2.69h.12a4.292,4.292,0,0,1,2.02.51,3.447,3.447,0,0,1,.32.2c.01,0,.02.01.03.02a4.245,4.245,0,0,1-2.37,7.77Zm-.12-52.3a4.255,4.255,0,1,1-4.26,4.25A4.259,4.259,0,0,1,11.89,114.18ZM7.63,97.1a4.255,4.255,0,1,1,4.26,4.25A4.255,4.255,0,0,1,7.63,97.1Zm4.26,39.8a4.25,4.25,0,1,1-4.26,4.25A4.253,4.253,0,0,1,11.89,136.9ZM21.93,87.96H4.91a.75.75,0,1,1,0-1.5H21.93a.75.75,0,0,1,0,1.5Zm2.23-.75a.755.755,0,0,1,.75-.75H35.73a.75.75,0,1,1,0,1.5H24.91A.749.749,0,0,1,24.16,87.21Zm8.94,79.2a4.25,4.25,0,1,1,4.25-4.25A4.246,4.246,0,0,1,33.1,166.41ZM49.73,87.96H38.91a.75.75,0,0,1,0-1.5H49.73a.75.75,0,1,1,0,1.5ZM56.14,7.85a4.25,4.25,0,1,1-4.25,4.25A4.246,4.246,0,0,1,56.14,7.85Zm.01,158.56a4.25,4.25,0,1,1,4.25-4.25A4.246,4.246,0,0,1,56.15,166.41Zm7.58-78.45H52.91a.75.75,0,0,1,0-1.5H63.73a.75.75,0,1,1,0,1.5Zm17.79,75.06a1.89,1.89,0,0,1-.1.41c-.03.11-.07.22-.11.33a4.238,4.238,0,0,1-3.97,2.72c-.02,0-.04-.01-.06-.01s-.04.01-.06.01a4.242,4.242,0,0,1-2.24-7.85,2.606,2.606,0,0,1,.28-.17,4.3,4.3,0,0,1,1.96-.48h.12a4.255,4.255,0,0,1,4.26,4.25c0,.15-.01.29-.02.43A2.254,2.254,0,0,1,81.52,163.02Zm-4.18-48.84a4.255,4.255,0,1,1-4.25,4.25A4.261,4.261,0,0,1,77.34,114.18ZM73.09,97.1a4.255,4.255,0,1,1,4.25,4.25A4.253,4.253,0,0,1,73.09,97.1Zm4.25,39.8a4.25,4.25,0,1,1-4.25,4.25A4.255,4.255,0,0,1,77.34,136.9Zm6.22-48.94H66.53a.75.75,0,0,1,0-1.5H83.56a.75.75,0,0,1,0,1.5Z"/><circle class="cls-2" cx="11.891" cy="118.528" r="6.335"/><circle class="cls-2" cx="11.891" cy="141.106" r="6.335"/><circle class="cls-2" cx="11.879" cy="33.348" r="6.335"/><circle class="cls-2" cx="11.879" cy="56.063" r="6.335"/><circle class="cls-2" cx="77.291" cy="118.528" r="6.335"/><circle class="cls-2" cx="77.291" cy="141.106" r="6.335"/><circle class="cls-2" cx="77.279" cy="33.348" r="6.335"/><circle class="cls-2" cx="77.279" cy="56.063" r="6.335"/><circle class="cls-2" cx="33.297" cy="12.095" r="6.335"/><circle class="cls-2" cx="56.012" cy="12.095" r="6.335"/><circle class="cls-2" cx="33.297" cy="162.117" r="6.335"/><circle class="cls-2" cx="56.012" cy="162.117" r="6.335"/><path class="cls-3" d="M7.344,152.424h0c0,1.407-1.429,2.558-3.176,2.558H1.934v-5.116H4.168C5.915,149.866,7.344,151.017,7.344,152.424Z"/><path class="cls-3" d="M7.344,106.9h0c0,1.407-1.429,2.558-3.176,2.558H1.934v-5.116H4.168C5.915,104.337,7.344,105.488,7.344,106.9Z"/><path class="cls-3" d="M7.355,67.178h0c0,1.407-1.429,2.558-3.175,2.558H1.945V64.62H4.18C5.926,64.62,7.355,65.771,7.355,67.178Z"/><path class="cls-3" d="M7.344,21.776h0c0,1.407-1.429,2.558-3.176,2.558H1.934V19.218H4.168C5.915,19.218,7.344,20.369,7.344,21.776Z"/><path class="cls-3" d="M67.106,7.455h0c1.407,0,2.558-1.429,2.558-3.176V2.028H64.548V4.279C64.548,6.026,65.7,7.455,67.106,7.455Z"/><path class="cls-3" d="M21.77,7.5h0c1.407,0,2.558-1.429,2.558-3.175V2.023H19.212V4.329C19.212,6.075,20.363,7.5,21.77,7.5Z"/><path class="cls-3" d="M81.932,21.776h0c0-1.407,1.429-2.558,3.176-2.558H87.28v5.116H85.108C83.361,24.334,81.932,23.183,81.932,21.776Z"/><path class="cls-3" d="M81.932,67.178h0c0-1.407,1.429-2.558,3.176-2.558H87.28v5.116H85.108C83.361,69.736,81.932,68.585,81.932,67.178Z"/><path class="cls-3" d="M81.875,106.9h0c0-1.407,1.429-2.558,3.176-2.558h2.234v5.116H85.051C83.3,109.456,81.875,108.305,81.875,106.9Z"/><path class="cls-3" d="M81.87,152.446h0c0-1.407,1.429-2.558,3.176-2.558H87.28V155H85.046C83.3,155,81.87,153.853,81.87,152.446Z"/><path class="cls-3" d="M21.7,166.74h0c-1.407,0-2.558,1.429-2.558,3.176v2.234h5.117v-2.234C24.254,168.169,23.1,166.74,21.7,166.74Z"/><path class="cls-3" d="M67.106,166.69h0c-1.407,0-2.558,1.429-2.558,3.176V172.1h5.116v-2.234C69.664,168.119,68.513,166.69,67.106,166.69Z"/><circle class="cls-2" cx="33.3" cy="162.16" r="6.335"/><circle class="cls-2" cx="56.015" cy="162.16" r="6.335"/><rect class="cls-4" x="58.797" y="78.602" width="6.35" height="3.576" rx="0.142"/><rect class="cls-5" x="30.053" y="62.073" width="7.317" height="19.614"/><rect class="cls-5" x="37.37" y="62.073" width="7.317" height="19.614"/><rect class="cls-5" x="44.687" y="62.073" width="7.317" height="19.614"/><rect class="cls-5" x="52.004" y="62.073" width="7.317" height="19.614"/><path d="M60.41,81.478h-.281V79.345h.281Z"/><path d="M62.251,81.478h-1.4v-.195l.739-.821a1.8,1.8,0,0,0,.225-.3.5.5,0,0,0,.063-.241.385.385,0,0,0-.1-.274.356.356,0,0,0-.269-.107.422.422,0,0,0-.315.115.438.438,0,0,0-.112.32h-.271A.627.627,0,0,1,61,79.5a.7.7,0,0,1,.508-.182.67.67,0,0,1,.469.157.527.527,0,0,1,.173.415,1.222,1.222,0,0,1-.4.75l-.571.619h1.07Z"/><path d="M64.179,80.8a.788.788,0,0,1-.25.522.819.819,0,0,1-.559.184.751.751,0,0,1-.6-.271,1.086,1.086,0,0,1-.229-.725v-.2a1.209,1.209,0,0,1,.107-.523.788.788,0,0,1,.3-.347.832.832,0,0,1,.451-.121.771.771,0,0,1,.545.19.8.8,0,0,1,.239.525H63.9a.607.607,0,0,0-.158-.37.478.478,0,0,0-.342-.115.5.5,0,0,0-.422.2.909.909,0,0,0-.154.567v.207a.949.949,0,0,0,.145.553.471.471,0,0,0,.406.2.538.538,0,0,0,.359-.106.585.585,0,0,0,.166-.37Z"/><path class="cls-4" d="M42.248,72.573l-2.933-1.007v-.507l3.555,1.306v.412l-3.555,1.3v-.506Z"/><path class="cls-4" d="M41.742,67.994a1.31,1.31,0,0,1,.87.412,1.344,1.344,0,0,1,.307.924,1.236,1.236,0,0,1-.452,1,1.826,1.826,0,0,1-1.208.376h-.342a2.041,2.041,0,0,1-.872-.176,1.31,1.31,0,0,1-.577-.5,1.378,1.378,0,0,1-.2-.745,1.266,1.266,0,0,1,.316-.9,1.324,1.324,0,0,1,.875-.394v.467a1.027,1.027,0,0,0-.617.262.788.788,0,0,0-.191.566.831.831,0,0,0,.332.7,1.541,1.541,0,0,0,.946.253h.344a1.574,1.574,0,0,0,.921-.24.773.773,0,0,0,.343-.67.888.888,0,0,0-.178-.595.986.986,0,0,0-.616-.274Z"/><path class="cls-4" d="M41.742,64.767a1.311,1.311,0,0,1,.87.413,1.34,1.34,0,0,1,.307.923,1.234,1.234,0,0,1-.452,1,1.826,1.826,0,0,1-1.208.376h-.342a2.041,2.041,0,0,1-.872-.175,1.323,1.323,0,0,1-.577-.5,1.382,1.382,0,0,1-.2-.746,1.264,1.264,0,0,1,.316-.9,1.325,1.325,0,0,1,.875-.4v.467a1.021,1.021,0,0,0-.617.263.786.786,0,0,0-.191.565.829.829,0,0,0,.332.7,1.535,1.535,0,0,0,.946.253h.344a1.566,1.566,0,0,0,.921-.24.771.771,0,0,0,.343-.67.884.884,0,0,0-.178-.594.981.981,0,0,0-.616-.275Z"/><path class="cls-4" d="M35.184,71.138a1.084,1.084,0,0,1,.387.5,2.015,2.015,0,0,1,.128.747,1.434,1.434,0,0,1-.2.764,1.352,1.352,0,0,1-.58.517,2.013,2.013,0,0,1-.872.188h-.31a1.88,1.88,0,0,1-1.245-.372,1.29,1.29,0,0,1-.442-1.044,1.326,1.326,0,0,1,.285-.888,1.237,1.237,0,0,1,.807-.412V71.6a.77.77,0,0,0-.708.833.82.82,0,0,0,.331.708,1.617,1.617,0,0,0,.959.243h.291a1.52,1.52,0,0,0,.951-.271.874.874,0,0,0,.353-.733,1.609,1.609,0,0,0-.058-.458.705.705,0,0,0-.2-.324h-.8v.815H33.88V71.138Z"/><path class="cls-4" d="M35.65,67.655v.467L32.911,69.9H35.65v.467H32.1V69.9l2.752-1.779H32.1v-.462Z"/><path class="cls-4" d="M35.65,66.83H32.1v-1a1.6,1.6,0,0,1,.2-.814,1.381,1.381,0,0,1,.584-.545,1.9,1.9,0,0,1,.869-.195h.227a1.922,1.922,0,0,1,.881.192,1.365,1.365,0,0,1,.581.549,1.7,1.7,0,0,1,.208.832Zm-3.172-.465h2.789v-.489a1.058,1.058,0,0,0-.338-.836,1.4,1.4,0,0,0-.96-.3h-.208a1.423,1.423,0,0,0-.942.281,1.006,1.006,0,0,0-.341.8Z"/><path class="cls-4" d="M48.507,72.7a2.169,2.169,0,0,1-.427.87.814.814,0,0,1-.623.273.866.866,0,0,1-.7-.333,1.318,1.318,0,0,1-.275-.866A1.435,1.435,0,0,1,46.629,72a1.06,1.06,0,0,1,.39-.44,1,1,0,0,1,.545-.157v.467a.651.651,0,0,0-.508.2.825.825,0,0,0-.185.574.851.851,0,0,0,.152.537.515.515,0,0,0,.425.192.462.462,0,0,0,.368-.183,1.8,1.8,0,0,0,.276-.622,2.859,2.859,0,0,1,.274-.687,1.039,1.039,0,0,1,.351-.368.9.9,0,0,1,.47-.12.835.835,0,0,1,.693.333,1.42,1.42,0,0,1,.26.894A1.64,1.64,0,0,1,50,73.3a1.142,1.142,0,0,1-.384.485.95.95,0,0,1-.555.171v-.468a.613.613,0,0,0,.509-.235.986.986,0,0,0,.188-.631.906.906,0,0,0-.152-.564.5.5,0,0,0-.413-.2.487.487,0,0,0-.4.182A2.082,2.082,0,0,0,48.507,72.7Z"/><path class="cls-4" d="M50.091,70.8H46.536v-1a1.589,1.589,0,0,1,.2-.813,1.377,1.377,0,0,1,.584-.546,1.9,1.9,0,0,1,.869-.195h.227a1.926,1.926,0,0,1,.882.192,1.372,1.372,0,0,1,.581.55,1.689,1.689,0,0,1,.207.831Zm-3.171-.465h2.788v-.489a1.055,1.055,0,0,0-.338-.836,1.4,1.4,0,0,0-.96-.3H48.2a1.421,1.421,0,0,0-.941.282,1,1,0,0,0-.341.8Z"/><path class="cls-4" d="M49.161,65.6v1.477l.93.332v.479l-3.555-1.346v-.407l3.555-1.348v.477Zm-.384,1.336v-1.2l-1.662.6Z"/><path class="cls-4" d="M55.49,72.7a2.169,2.169,0,0,1-.427.87.814.814,0,0,1-.623.273.867.867,0,0,1-.7-.333,1.318,1.318,0,0,1-.274-.866A1.448,1.448,0,0,1,53.612,72a1.062,1.062,0,0,1,.391-.44,1,1,0,0,1,.545-.157v.467a.651.651,0,0,0-.509.2.825.825,0,0,0-.185.574.845.845,0,0,0,.153.537.512.512,0,0,0,.425.192.465.465,0,0,0,.368-.183,1.826,1.826,0,0,0,.275-.622,2.815,2.815,0,0,1,.275-.687,1.029,1.029,0,0,1,.35-.368.9.9,0,0,1,.471-.12.835.835,0,0,1,.692.333,1.42,1.42,0,0,1,.26.894,1.64,1.64,0,0,1-.141.678,1.132,1.132,0,0,1-.383.485.954.954,0,0,1-.555.171v-.468a.613.613,0,0,0,.509-.235.986.986,0,0,0,.187-.631.913.913,0,0,0-.151-.564.5.5,0,0,0-.413-.2.488.488,0,0,0-.405.182A2.106,2.106,0,0,0,55.49,72.7Z"/><path class="cls-4" d="M57.074,70.8H53.519v-1a1.59,1.59,0,0,1,.206-.813,1.371,1.371,0,0,1,.584-.546,1.892,1.892,0,0,1,.869-.195H55.4a1.926,1.926,0,0,1,.882.192,1.372,1.372,0,0,1,.581.55,1.689,1.689,0,0,1,.207.831ZM53.9,70.334h2.788v-.489a1.055,1.055,0,0,0-.338-.836,1.4,1.4,0,0,0-.959-.3h-.209a1.423,1.423,0,0,0-.941.282,1,1,0,0,0-.341.8Z"/><path class="cls-4" d="M56.691,67.081v-1.67h.383v2.137H53.519v-.467Z"/><path class="cls-3" d="M53.05,77.95a2.241,2.241,0,1,1,2.24,2.223A2.231,2.231,0,0,1,53.05,77.95Z"/><ellipse class="cls-6" cx="55.291" cy="77.95" rx="1.532" ry="1.519"/><path class="cls-3" d="M45.822,77.95a2.241,2.241,0,1,1,2.24,2.223A2.231,2.231,0,0,1,45.822,77.95Z"/><ellipse class="cls-6" cx="48.063" cy="77.95" rx="1.532" ry="1.519"/><path class="cls-3" d="M38.622,77.95a2.241,2.241,0,1,1,2.24,2.223A2.231,2.231,0,0,1,38.622,77.95Z"/><ellipse class="cls-6" cx="40.863" cy="77.95" rx="1.532" ry="1.519"/><path class="cls-3" d="M32.035,79.579A2.279,2.279,0,0,1,34.218,75.8a2.21,2.21,0,0,1,1.6,1.595A2.279,2.279,0,0,1,32.035,79.579Z"/><ellipse class="cls-6" cx="33.663" cy="77.95" rx="1.532" ry="1.519"/><rect class="cls-5" x="30.053" y="94.209" width="7.317" height="19.614"/><rect class="cls-5" x="37.37" y="94.209" width="7.317" height="19.614"/><rect class="cls-5" x="44.687" y="94.209" width="7.317" height="19.614"/><rect class="cls-5" x="52.004" y="94.209" width="7.317" height="19.614"/><rect class="cls-4" x="59.522" y="93.707" width="6.35" height="3.576" rx="0.142"/><path class="cls-4" d="M49.433,110.17,46.5,109.164v-.508l3.555,1.306v.412L46.5,111.679v-.506Z"/><path class="cls-4" d="M48.928,105.591a1.31,1.31,0,0,1,.87.412,1.349,1.349,0,0,1,.306.924,1.236,1.236,0,0,1-.452,1,1.825,1.825,0,0,1-1.208.376H48.1a2.026,2.026,0,0,1-.872-.176,1.316,1.316,0,0,1-.577-.5,1.378,1.378,0,0,1-.2-.745,1.263,1.263,0,0,1,.317-.9,1.316,1.316,0,0,1,.875-.4v.467a1.021,1.021,0,0,0-.618.263.787.787,0,0,0-.191.565.828.828,0,0,0,.333.7,1.536,1.536,0,0,0,.945.253h.345a1.578,1.578,0,0,0,.921-.24.773.773,0,0,0,.342-.67.893.893,0,0,0-.177-.6.988.988,0,0,0-.616-.274Z"/><path class="cls-4" d="M48.928,102.365a1.306,1.306,0,0,1,.87.412,1.347,1.347,0,0,1,.306.924,1.236,1.236,0,0,1-.452,1,1.825,1.825,0,0,1-1.208.376H48.1a2.056,2.056,0,0,1-.872-.175,1.324,1.324,0,0,1-.577-.5,1.378,1.378,0,0,1-.2-.745,1.267,1.267,0,0,1,.317-.9,1.32,1.32,0,0,1,.875-.394v.467a1.021,1.021,0,0,0-.618.262.788.788,0,0,0-.191.566.828.828,0,0,0,.333.7,1.529,1.529,0,0,0,.945.253h.345a1.578,1.578,0,0,0,.921-.24.774.774,0,0,0,.342-.67.893.893,0,0,0-.177-.595.978.978,0,0,0-.616-.274Z"/><path class="cls-4" d="M56.9,108.735a1.08,1.08,0,0,1,.388.5,2.015,2.015,0,0,1,.128.747,1.44,1.44,0,0,1-.2.765,1.351,1.351,0,0,1-.58.516,2.023,2.023,0,0,1-.871.189h-.311a1.88,1.88,0,0,1-1.245-.372,1.291,1.291,0,0,1-.441-1.044,1.329,1.329,0,0,1,.284-.889,1.244,1.244,0,0,1,.807-.412v.465a.771.771,0,0,0-.708.833.819.819,0,0,0,.331.708,1.619,1.619,0,0,0,.959.243h.291a1.525,1.525,0,0,0,.952-.271.875.875,0,0,0,.352-.733,1.609,1.609,0,0,0-.058-.458.7.7,0,0,0-.2-.324h-.8v.815h-.384v-1.278Z"/><path class="cls-4" d="M57.363,105.252v.467l-2.739,1.775h2.739v.466H53.809v-.466l2.751-1.78H53.809v-.462Z"/><path class="cls-4" d="M57.363,104.427H53.809v-1a1.587,1.587,0,0,1,.205-.813,1.381,1.381,0,0,1,.583-.546,1.911,1.911,0,0,1,.869-.195h.227a1.909,1.909,0,0,1,.881.193,1.353,1.353,0,0,1,.581.549,1.69,1.69,0,0,1,.208.832Zm-3.172-.465h2.788v-.489a1.06,1.06,0,0,0-.336-.836,1.4,1.4,0,0,0-.96-.3h-.208a1.427,1.427,0,0,0-.943.282,1.006,1.006,0,0,0-.341.8Z"/><path d="M60.738,96.5h-.281V94.372h.281Z"/><path d="M62.579,96.5h-1.4V96.31l.738-.82a1.8,1.8,0,0,0,.225-.3.5.5,0,0,0,.063-.241.385.385,0,0,0-.1-.274.356.356,0,0,0-.269-.107.423.423,0,0,0-.315.115.439.439,0,0,0-.112.32h-.27a.627.627,0,0,1,.189-.476.7.7,0,0,1,.508-.182.674.674,0,0,1,.47.157.53.53,0,0,1,.172.415,1.217,1.217,0,0,1-.4.75l-.571.62h1.07Z"/><path d="M64.507,95.828a.788.788,0,0,1-.25.522.817.817,0,0,1-.559.184.748.748,0,0,1-.6-.271,1.086,1.086,0,0,1-.229-.725v-.206a1.207,1.207,0,0,1,.107-.522.794.794,0,0,1,.3-.347.833.833,0,0,1,.452-.121.775.775,0,0,1,.545.19.8.8,0,0,1,.238.525h-.283a.613.613,0,0,0-.159-.37.481.481,0,0,0-.341-.114.5.5,0,0,0-.423.2.909.909,0,0,0-.154.567v.207a.949.949,0,0,0,.145.553.47.47,0,0,0,.406.2.541.541,0,0,0,.36-.106.593.593,0,0,0,.166-.37Z"/><path class="cls-4" d="M33.857,110.3a2.169,2.169,0,0,1-.426.87.815.815,0,0,1-.624.273.864.864,0,0,1-.7-.333,1.322,1.322,0,0,1-.274-.865,1.439,1.439,0,0,1,.141-.648,1.062,1.062,0,0,1,.391-.44,1,1,0,0,1,.544-.157v.467a.654.654,0,0,0-.508.2.828.828,0,0,0-.185.575.844.844,0,0,0,.153.536.512.512,0,0,0,.424.192.461.461,0,0,0,.368-.182,1.8,1.8,0,0,0,.276-.623,2.815,2.815,0,0,1,.275-.687,1.037,1.037,0,0,1,.35-.368.9.9,0,0,1,.471-.12.832.832,0,0,1,.692.334,1.415,1.415,0,0,1,.26.893,1.656,1.656,0,0,1-.14.678,1.144,1.144,0,0,1-.385.485.94.94,0,0,1-.554.171v-.468a.613.613,0,0,0,.509-.235.986.986,0,0,0,.187-.631.908.908,0,0,0-.151-.564.5.5,0,0,0-.413-.2.485.485,0,0,0-.4.182A2.079,2.079,0,0,0,33.857,110.3Z"/><path class="cls-4" d="M34.313,105.8a1.315,1.315,0,0,1,.871.412,1.349,1.349,0,0,1,.306.924,1.238,1.238,0,0,1-.451,1,1.831,1.831,0,0,1-1.209.376h-.342a2.037,2.037,0,0,1-.871-.176,1.313,1.313,0,0,1-.578-.5,1.378,1.378,0,0,1-.2-.745,1.262,1.262,0,0,1,.316-.9,1.325,1.325,0,0,1,.875-.395v.467a1.021,1.021,0,0,0-.617.263.79.79,0,0,0-.191.565.828.828,0,0,0,.333.7,1.536,1.536,0,0,0,.945.253h.345a1.576,1.576,0,0,0,.921-.24.771.771,0,0,0,.342-.67.893.893,0,0,0-.177-.595.991.991,0,0,0-.617-.274Z"/><path class="cls-4" d="M35.058,104.7v-1.67h.383v2.136H31.887V104.7Z"/><path class="cls-4" d="M41.164,110.3a2.169,2.169,0,0,1-.426.87.815.815,0,0,1-.624.273.864.864,0,0,1-.7-.333,1.322,1.322,0,0,1-.274-.865,1.426,1.426,0,0,1,.142-.648,1.053,1.053,0,0,1,.39-.44,1,1,0,0,1,.545-.157v.467a.655.655,0,0,0-.509.2.828.828,0,0,0-.185.575.844.844,0,0,0,.153.536.512.512,0,0,0,.424.192.465.465,0,0,0,.369-.182,1.823,1.823,0,0,0,.275-.623,2.815,2.815,0,0,1,.275-.687,1.037,1.037,0,0,1,.35-.368.9.9,0,0,1,.471-.12.835.835,0,0,1,.693.334,1.421,1.421,0,0,1,.259.893,1.656,1.656,0,0,1-.14.678,1.144,1.144,0,0,1-.385.485.94.94,0,0,1-.554.171v-.468a.613.613,0,0,0,.509-.235.986.986,0,0,0,.187-.631.908.908,0,0,0-.151-.564.5.5,0,0,0-.413-.2.485.485,0,0,0-.4.182A2.079,2.079,0,0,0,41.164,110.3Z"/><path class="cls-4" d="M42.748,108.4H39.194V107.4a1.59,1.59,0,0,1,.2-.814,1.38,1.38,0,0,1,.583-.546,1.925,1.925,0,0,1,.87-.2h.227a1.925,1.925,0,0,1,.881.193,1.359,1.359,0,0,1,.581.549,1.7,1.7,0,0,1,.207.831Zm-3.171-.465h2.788v-.488a1.059,1.059,0,0,0-.337-.837,1.4,1.4,0,0,0-.96-.3H40.86a1.424,1.424,0,0,0-.942.282,1,1,0,0,0-.341.8Z"/><path class="cls-4" d="M41.818,103.2v1.476l.93.332v.479l-3.554-1.346v-.406l3.554-1.349v.477Zm-.383,1.336v-1.2l-1.663.6Z"/><path class="cls-3" d="M53.452,97.946a2.241,2.241,0,1,0,2.24-2.222A2.231,2.231,0,0,0,53.452,97.946Z"/><ellipse class="cls-6" cx="55.693" cy="97.946" rx="1.532" ry="1.519"/><path class="cls-3" d="M46.224,97.946a2.241,2.241,0,1,0,2.24-2.222A2.231,2.231,0,0,0,46.224,97.946Z"/><ellipse class="cls-6" cx="48.465" cy="97.946" rx="1.532" ry="1.519"/><path class="cls-3" d="M39.024,97.946a2.241,2.241,0,1,0,2.24-2.222A2.231,2.231,0,0,0,39.024,97.946Z"/><ellipse class="cls-6" cx="41.265" cy="97.946" rx="1.532" ry="1.519"/><path class="cls-3" d="M32.436,96.317A2.279,2.279,0,0,0,34.62,100.1a2.206,2.206,0,0,0,1.6-1.595A2.279,2.279,0,0,0,32.436,96.317Z"/><ellipse class="cls-6" cx="34.065" cy="97.946" rx="1.532" ry="1.519"/><path class="cls-4" d="M29.455,23.735a2.183,2.183,0,0,1-.87-.426.815.815,0,0,1-.273-.624.867.867,0,0,1,.333-.7,1.323,1.323,0,0,1,.866-.274,1.435,1.435,0,0,1,.647.141,1.065,1.065,0,0,1,.441.391,1.007,1.007,0,0,1,.156.544h-.467a.651.651,0,0,0-.2-.508.825.825,0,0,0-.574-.185.84.84,0,0,0-.536.153.512.512,0,0,0-.193.424.462.462,0,0,0,.183.368,1.786,1.786,0,0,0,.622.276,2.815,2.815,0,0,1,.687.275,1.04,1.04,0,0,1,.369.35.9.9,0,0,1,.12.471.834.834,0,0,1-.334.692,1.42,1.42,0,0,1-.894.26,1.656,1.656,0,0,1-.678-.14,1.144,1.144,0,0,1-.485-.385.947.947,0,0,1-.171-.554h.468a.613.613,0,0,0,.235.509.986.986,0,0,0,.631.187.905.905,0,0,0,.565-.152.5.5,0,0,0,.2-.412.485.485,0,0,0-.182-.4A2.079,2.079,0,0,0,29.455,23.735Z"/><path class="cls-4" d="M31.358,25.319V21.765h1a1.584,1.584,0,0,1,.813.2,1.374,1.374,0,0,1,.546.583,1.9,1.9,0,0,1,.195.869v.227a1.926,1.926,0,0,1-.192.882,1.367,1.367,0,0,1-.55.581,1.689,1.689,0,0,1-.831.207Zm.465-3.171v2.788h.489a1.058,1.058,0,0,0,.836-.337,1.4,1.4,0,0,0,.3-.96v-.208a1.424,1.424,0,0,0-.282-.942,1,1,0,0,0-.8-.341Z"/><path class="cls-4" d="M36.555,24.389H35.079l-.332.93h-.479l1.345-3.554h.407l1.348,3.554h-.476Zm-1.336-.383h1.2l-.6-1.663Z"/><path class="cls-4" d="M52.906,23.707a2.17,2.17,0,0,1-.87-.426.814.814,0,0,1-.272-.623.863.863,0,0,1,.333-.7,1.313,1.313,0,0,1,.865-.275,1.435,1.435,0,0,1,.647.142,1.058,1.058,0,0,1,.441.391,1,1,0,0,1,.156.544h-.467a.649.649,0,0,0-.2-.508.82.82,0,0,0-.574-.185.842.842,0,0,0-.536.153.512.512,0,0,0-.193.424.462.462,0,0,0,.183.368,1.788,1.788,0,0,0,.622.275,2.883,2.883,0,0,1,.688.275,1.046,1.046,0,0,1,.368.35.9.9,0,0,1,.12.472.836.836,0,0,1-.334.692,1.42,1.42,0,0,1-.894.26,1.636,1.636,0,0,1-.677-.141,1.145,1.145,0,0,1-.486-.384.951.951,0,0,1-.171-.554h.468a.612.612,0,0,0,.235.508.99.99,0,0,0,.631.187.912.912,0,0,0,.565-.151.493.493,0,0,0,.2-.412.487.487,0,0,0-.182-.4A2.091,2.091,0,0,0,52.906,23.707Z"/><path class="cls-4" d="M57.4,24.164a1.306,1.306,0,0,1-.412.87,1.341,1.341,0,0,1-.924.307,1.239,1.239,0,0,1-1-.452,1.826,1.826,0,0,1-.376-1.208v-.342a2.041,2.041,0,0,1,.176-.872,1.31,1.31,0,0,1,.5-.577,1.381,1.381,0,0,1,.745-.2,1.267,1.267,0,0,1,.9.317,1.324,1.324,0,0,1,.394.875h-.466a1.033,1.033,0,0,0-.262-.617.791.791,0,0,0-.567-.191.828.828,0,0,0-.7.332,1.533,1.533,0,0,0-.254.946v.344a1.574,1.574,0,0,0,.24.921.773.773,0,0,0,.67.342.892.892,0,0,0,.595-.177.981.981,0,0,0,.275-.616Z"/><path class="cls-4" d="M58.5,24.909h1.67v.383H58.036V21.737H58.5Z"/><path class="cls-4" d="M29.455,149.682a2.183,2.183,0,0,1-.87-.427.814.814,0,0,1-.273-.623.867.867,0,0,1,.333-.695,1.318,1.318,0,0,1,.866-.274,1.435,1.435,0,0,1,.647.141,1.065,1.065,0,0,1,.441.391,1,1,0,0,1,.156.545h-.467a.651.651,0,0,0-.2-.509.825.825,0,0,0-.574-.185.84.84,0,0,0-.536.153.513.513,0,0,0-.193.425.465.465,0,0,0,.183.368,1.826,1.826,0,0,0,.622.275,2.859,2.859,0,0,1,.687.274,1.051,1.051,0,0,1,.369.351.9.9,0,0,1,.12.471.836.836,0,0,1-.334.692,1.42,1.42,0,0,1-.894.26,1.64,1.64,0,0,1-.678-.141,1.127,1.127,0,0,1-.485-.384.949.949,0,0,1-.171-.554h.468a.613.613,0,0,0,.235.509.986.986,0,0,0,.631.187.918.918,0,0,0,.565-.151.5.5,0,0,0,.2-.413.488.488,0,0,0-.182-.405A2.106,2.106,0,0,0,29.455,149.682Z"/><path class="cls-4" d="M31.358,151.266v-3.555h1a1.594,1.594,0,0,1,.813.2,1.383,1.383,0,0,1,.546.584,1.9,1.9,0,0,1,.195.87v.226a1.926,1.926,0,0,1-.192.882,1.372,1.372,0,0,1-.55.581,1.689,1.689,0,0,1-.831.207Zm.465-3.171v2.788h.489a1.055,1.055,0,0,0,.836-.338,1.4,1.4,0,0,0,.3-.96v-.208a1.423,1.423,0,0,0-.282-.941,1,1,0,0,0-.8-.341Z"/><path class="cls-4" d="M36.555,150.336H35.079l-.332.93h-.479l1.345-3.555h.407l1.348,3.555h-.476Zm-1.336-.383h1.2l-.6-1.663Z"/><path class="cls-4" d="M52.906,149.682a2.183,2.183,0,0,1-.87-.427.814.814,0,0,1-.272-.623.864.864,0,0,1,.333-.695,1.313,1.313,0,0,1,.865-.274,1.435,1.435,0,0,1,.647.141,1.065,1.065,0,0,1,.441.391,1,1,0,0,1,.156.545h-.467a.651.651,0,0,0-.2-.509.825.825,0,0,0-.574-.185.842.842,0,0,0-.536.153.513.513,0,0,0-.193.425.465.465,0,0,0,.183.368,1.826,1.826,0,0,0,.622.275,2.887,2.887,0,0,1,.688.274,1.039,1.039,0,0,1,.368.351.9.9,0,0,1,.12.471.836.836,0,0,1-.334.692,1.42,1.42,0,0,1-.894.26,1.636,1.636,0,0,1-.677-.141,1.13,1.13,0,0,1-.486-.384.949.949,0,0,1-.171-.554h.468a.613.613,0,0,0,.235.509.99.99,0,0,0,.631.187.918.918,0,0,0,.565-.151.5.5,0,0,0,.2-.413.488.488,0,0,0-.182-.405A2.1,2.1,0,0,0,52.906,149.682Z"/><path class="cls-4" d="M57.4,150.138a1.306,1.306,0,0,1-.412.87,1.341,1.341,0,0,1-.924.307,1.238,1.238,0,0,1-1-.451,1.829,1.829,0,0,1-.376-1.209v-.342a2.037,2.037,0,0,1,.176-.871,1.313,1.313,0,0,1,.5-.578,1.381,1.381,0,0,1,.745-.2,1.266,1.266,0,0,1,.9.316,1.329,1.329,0,0,1,.394.875h-.466a1.035,1.035,0,0,0-.262-.617.8.8,0,0,0-.567-.191.828.828,0,0,0-.7.332,1.535,1.535,0,0,0-.254.946v.344a1.572,1.572,0,0,0,.24.921.772.772,0,0,0,.67.343.886.886,0,0,0,.595-.178.981.981,0,0,0,.275-.616Z"/><path class="cls-4" d="M58.5,150.883h1.67v.383H58.036v-3.555H58.5Z"/><path class="cls-4" d="M24.31,145.09a2.169,2.169,0,0,1-.426.87.815.815,0,0,1-.624.273.864.864,0,0,1-.7-.333,1.322,1.322,0,0,1-.274-.865,1.426,1.426,0,0,1,.142-.648,1.053,1.053,0,0,1,.39-.44,1,1,0,0,1,.545-.157v.467a.655.655,0,0,0-.509.2.828.828,0,0,0-.185.575.844.844,0,0,0,.153.536.512.512,0,0,0,.424.192.465.465,0,0,0,.369-.182,1.823,1.823,0,0,0,.275-.623,2.815,2.815,0,0,1,.275-.687,1.037,1.037,0,0,1,.35-.368.9.9,0,0,1,.471-.12.835.835,0,0,1,.693.334,1.421,1.421,0,0,1,.259.893,1.656,1.656,0,0,1-.14.678,1.144,1.144,0,0,1-.385.485.94.94,0,0,1-.554.171v-.468a.613.613,0,0,0,.509-.235.986.986,0,0,0,.187-.631.908.908,0,0,0-.151-.564.5.5,0,0,0-.413-.2.485.485,0,0,0-.4.182A2.079,2.079,0,0,0,24.31,145.09Z"/><path class="cls-4" d="M25.894,143.187H22.34v-.994a1.59,1.59,0,0,1,.205-.814,1.38,1.38,0,0,1,.583-.546,1.925,1.925,0,0,1,.87-.195h.227a1.925,1.925,0,0,1,.881.193,1.359,1.359,0,0,1,.581.549,1.7,1.7,0,0,1,.207.831Zm-3.171-.465h2.788v-.488a1.059,1.059,0,0,0-.337-.837,1.4,1.4,0,0,0-.96-.3h-.208a1.424,1.424,0,0,0-.942.282,1,1,0,0,0-.341.8Z"/><path class="cls-4" d="M24.964,137.991v1.476l.93.332v.479l-3.554-1.346v-.406l3.554-1.349v.477Zm-.383,1.336v-1.2l-1.663.6Z"/><path class="cls-4" d="M24.31,121.639a2.169,2.169,0,0,1-.426.87.815.815,0,0,1-.624.273.867.867,0,0,1-.7-.333,1.323,1.323,0,0,1-.274-.866,1.422,1.422,0,0,1,.142-.647,1.053,1.053,0,0,1,.39-.44,1,1,0,0,1,.545-.157v.467a.655.655,0,0,0-.509.2.825.825,0,0,0-.185.574.845.845,0,0,0,.153.537.512.512,0,0,0,.424.192.466.466,0,0,0,.369-.183,1.806,1.806,0,0,0,.275-.622,2.815,2.815,0,0,1,.275-.687,1.037,1.037,0,0,1,.35-.368.9.9,0,0,1,.471-.12.837.837,0,0,1,.693.333,1.426,1.426,0,0,1,.259.894,1.656,1.656,0,0,1-.14.678,1.144,1.144,0,0,1-.385.485.947.947,0,0,1-.554.171v-.468a.613.613,0,0,0,.509-.235.986.986,0,0,0,.187-.631.906.906,0,0,0-.151-.564.5.5,0,0,0-.413-.2.485.485,0,0,0-.4.182A2.079,2.079,0,0,0,24.31,121.639Z"/><path class="cls-4" d="M24.767,117.144a1.31,1.31,0,0,1,.87.412,1.349,1.349,0,0,1,.306.924,1.238,1.238,0,0,1-.451,1,1.829,1.829,0,0,1-1.209.376h-.342a2.037,2.037,0,0,1-.871-.176,1.313,1.313,0,0,1-.578-.5,1.378,1.378,0,0,1-.2-.745,1.262,1.262,0,0,1,.316-.9,1.325,1.325,0,0,1,.875-.395v.467a1.024,1.024,0,0,0-.617.263.79.79,0,0,0-.191.565.828.828,0,0,0,.333.7,1.536,1.536,0,0,0,.945.253H24.3a1.576,1.576,0,0,0,.921-.24.771.771,0,0,0,.342-.67.893.893,0,0,0-.177-.595.988.988,0,0,0-.616-.274Z"/><path class="cls-4" d="M25.511,116.042v-1.669h.383v2.136H22.34v-.467Z"/><path class="cls-4" d="M64.973,144.4a2.2,2.2,0,0,1-.427.87.814.814,0,0,1-.623.272.866.866,0,0,1-.7-.333,1.318,1.318,0,0,1-.274-.865,1.435,1.435,0,0,1,.142-.647,1.056,1.056,0,0,1,.39-.441,1.007,1.007,0,0,1,.545-.156v.467a.651.651,0,0,0-.509.2.825.825,0,0,0-.184.574.848.848,0,0,0,.152.536.514.514,0,0,0,.425.193.462.462,0,0,0,.368-.183,1.8,1.8,0,0,0,.276-.622,2.819,2.819,0,0,1,.274-.687,1.043,1.043,0,0,1,.351-.369.893.893,0,0,1,.47-.12.837.837,0,0,1,.693.334,1.42,1.42,0,0,1,.259.894,1.64,1.64,0,0,1-.14.678,1.142,1.142,0,0,1-.384.485.952.952,0,0,1-.555.171v-.468a.613.613,0,0,0,.509-.235.988.988,0,0,0,.188-.631.911.911,0,0,0-.152-.565.494.494,0,0,0-.413-.195.486.486,0,0,0-.4.182A2.059,2.059,0,0,0,64.973,144.4Z"/><path class="cls-4" d="M66.557,142.5H63v-1a1.587,1.587,0,0,1,.2-.813,1.377,1.377,0,0,1,.584-.546,1.908,1.908,0,0,1,.869-.195h.227a1.926,1.926,0,0,1,.882.192,1.378,1.378,0,0,1,.581.55,1.7,1.7,0,0,1,.207.831Zm-3.171-.465h2.788v-.489a1.058,1.058,0,0,0-.338-.836,1.4,1.4,0,0,0-.96-.3h-.208a1.415,1.415,0,0,0-.941.282,1,1,0,0,0-.341.8Z"/><path class="cls-4" d="M65.627,137.3v1.477l.93.332v.478L63,138.241v-.407l3.555-1.348v.476Zm-.384,1.336v-1.2l-1.662.6Z"/><path class="cls-4" d="M64.973,121.639a2.182,2.182,0,0,1-.427.87.814.814,0,0,1-.623.273.869.869,0,0,1-.7-.333,1.323,1.323,0,0,1-.274-.866,1.435,1.435,0,0,1,.142-.647,1.053,1.053,0,0,1,.39-.44,1,1,0,0,1,.545-.157v.467a.655.655,0,0,0-.509.2.825.825,0,0,0-.184.574.851.851,0,0,0,.152.537.514.514,0,0,0,.425.192.462.462,0,0,0,.368-.183,1.8,1.8,0,0,0,.276-.622,2.819,2.819,0,0,1,.274-.687,1.039,1.039,0,0,1,.351-.368.893.893,0,0,1,.47-.12.837.837,0,0,1,.693.333,1.42,1.42,0,0,1,.259.894,1.64,1.64,0,0,1-.14.678,1.142,1.142,0,0,1-.384.485.952.952,0,0,1-.555.171v-.468a.613.613,0,0,0,.509-.235.986.986,0,0,0,.188-.631.906.906,0,0,0-.152-.564.5.5,0,0,0-.413-.2.486.486,0,0,0-.4.182A2.059,2.059,0,0,0,64.973,121.639Z"/><path class="cls-4" d="M65.429,117.144a1.31,1.31,0,0,1,.87.412,1.344,1.344,0,0,1,.306.924,1.238,1.238,0,0,1-.451,1,1.829,1.829,0,0,1-1.209.376H64.6a2.037,2.037,0,0,1-.871-.176,1.313,1.313,0,0,1-.578-.5,1.378,1.378,0,0,1-.2-.745,1.267,1.267,0,0,1,.316-.9,1.325,1.325,0,0,1,.875-.395v.467a1.024,1.024,0,0,0-.617.263.79.79,0,0,0-.19.565.827.827,0,0,0,.332.7,1.54,1.54,0,0,0,.945.253h.345a1.574,1.574,0,0,0,.921-.24.772.772,0,0,0,.343-.67.894.894,0,0,0-.178-.595.986.986,0,0,0-.616-.274Z"/><path class="cls-4" d="M66.174,116.042v-1.669h.383v2.136H63v-.467Z"/><path class="cls-4" d="M24.309,59.534a2.169,2.169,0,0,1-.427.87.814.814,0,0,1-.623.273.867.867,0,0,1-.7-.333,1.318,1.318,0,0,1-.275-.866,1.435,1.435,0,0,1,.142-.647,1.055,1.055,0,0,1,.391-.44,1,1,0,0,1,.544-.157V58.7a.653.653,0,0,0-.508.2.82.82,0,0,0-.185.574.845.845,0,0,0,.153.537.512.512,0,0,0,.424.192.462.462,0,0,0,.368-.183,1.8,1.8,0,0,0,.276-.622,2.859,2.859,0,0,1,.274-.687,1.039,1.039,0,0,1,.351-.368.9.9,0,0,1,.471-.12.833.833,0,0,1,.692.334,1.415,1.415,0,0,1,.26.893,1.64,1.64,0,0,1-.141.678,1.134,1.134,0,0,1-.384.485.951.951,0,0,1-.554.171V60.32a.613.613,0,0,0,.509-.235.986.986,0,0,0,.187-.631.906.906,0,0,0-.152-.564.494.494,0,0,0-.412-.2.487.487,0,0,0-.405.182A2.082,2.082,0,0,0,24.309,59.534Z"/><path class="cls-4" d="M25.893,57.631H22.338v-.995a1.6,1.6,0,0,1,.2-.813,1.377,1.377,0,0,1,.584-.546,1.9,1.9,0,0,1,.869-.2h.227a1.919,1.919,0,0,1,.881.192,1.361,1.361,0,0,1,.581.55,1.679,1.679,0,0,1,.208.831Zm-3.171-.465H25.51v-.489a1.058,1.058,0,0,0-.338-.836,1.4,1.4,0,0,0-.96-.3H24a1.427,1.427,0,0,0-.942.282,1,1,0,0,0-.34.8Z"/><path class="cls-4" d="M24.963,52.434v1.477l.93.332v.479l-3.555-1.346v-.407l3.555-1.348V52.1ZM24.58,53.77v-1.2l-1.663.6Z"/><path class="cls-4" d="M24.309,36.5a2.183,2.183,0,0,1-.427.87.814.814,0,0,1-.623.272.864.864,0,0,1-.7-.333,1.313,1.313,0,0,1-.275-.865,1.435,1.435,0,0,1,.142-.647,1.058,1.058,0,0,1,.391-.441,1,1,0,0,1,.544-.156v.467a.649.649,0,0,0-.508.2.82.82,0,0,0-.185.574.842.842,0,0,0,.153.536.512.512,0,0,0,.424.193.462.462,0,0,0,.368-.183,1.8,1.8,0,0,0,.276-.622,2.859,2.859,0,0,1,.274-.687,1.043,1.043,0,0,1,.351-.369.9.9,0,0,1,.471-.12.836.836,0,0,1,.692.334,1.42,1.42,0,0,1,.26.894,1.64,1.64,0,0,1-.141.678,1.134,1.134,0,0,1-.384.485.951.951,0,0,1-.554.171v-.468a.613.613,0,0,0,.509-.235.988.988,0,0,0,.187-.631.911.911,0,0,0-.152-.565.493.493,0,0,0-.412-.2.487.487,0,0,0-.405.182A2.082,2.082,0,0,0,24.309,36.5Z"/><path class="cls-4" d="M24.765,32.007a1.311,1.311,0,0,1,.87.413,1.34,1.34,0,0,1,.307.923,1.239,1.239,0,0,1-.452,1,1.826,1.826,0,0,1-1.208.376H23.94a2.041,2.041,0,0,1-.872-.176,1.31,1.31,0,0,1-.577-.5,1.382,1.382,0,0,1-.2-.746,1.266,1.266,0,0,1,.317-.9,1.325,1.325,0,0,1,.875-.4v.468a1.027,1.027,0,0,0-.617.262.787.787,0,0,0-.191.565.829.829,0,0,0,.332.7,1.535,1.535,0,0,0,.946.254H24.3a1.574,1.574,0,0,0,.921-.24.773.773,0,0,0,.343-.671.889.889,0,0,0-.178-.594.98.98,0,0,0-.616-.274Z"/><path class="cls-4" d="M25.51,30.906v-1.67h.383v2.137H22.338v-.467Z"/><path class="cls-4" d="M64.972,59.534a2.182,2.182,0,0,1-.427.87.814.814,0,0,1-.623.273.866.866,0,0,1-.7-.333,1.318,1.318,0,0,1-.275-.866,1.435,1.435,0,0,1,.142-.647,1.053,1.053,0,0,1,.39-.44,1,1,0,0,1,.545-.157V58.7a.656.656,0,0,0-.509.2.825.825,0,0,0-.184.574.851.851,0,0,0,.152.537.514.514,0,0,0,.425.192.462.462,0,0,0,.368-.183,1.8,1.8,0,0,0,.276-.622,2.819,2.819,0,0,1,.274-.687,1.039,1.039,0,0,1,.351-.368.893.893,0,0,1,.47-.12.835.835,0,0,1,.693.334,1.415,1.415,0,0,1,.259.893,1.64,1.64,0,0,1-.14.678,1.142,1.142,0,0,1-.384.485.952.952,0,0,1-.555.171V60.32a.613.613,0,0,0,.509-.235.986.986,0,0,0,.188-.631.906.906,0,0,0-.152-.564.5.5,0,0,0-.413-.2.486.486,0,0,0-.4.182A2.059,2.059,0,0,0,64.972,59.534Z"/><path class="cls-4" d="M66.556,57.631H63v-.995a1.589,1.589,0,0,1,.205-.813,1.377,1.377,0,0,1,.584-.546,1.9,1.9,0,0,1,.869-.2h.227a1.926,1.926,0,0,1,.882.192,1.378,1.378,0,0,1,.581.55,1.7,1.7,0,0,1,.207.831Zm-3.171-.465h2.788v-.489a1.058,1.058,0,0,0-.338-.836,1.4,1.4,0,0,0-.96-.3h-.208a1.421,1.421,0,0,0-.941.282,1,1,0,0,0-.341.8Z"/><path class="cls-4" d="M65.626,52.434v1.477l.93.332v.479L63,53.376v-.407l3.555-1.348V52.1Zm-.384,1.336v-1.2l-1.662.6Z"/><path class="cls-4" d="M64.972,36.5a2.2,2.2,0,0,1-.427.87.814.814,0,0,1-.623.272.863.863,0,0,1-.7-.333,1.313,1.313,0,0,1-.275-.865,1.435,1.435,0,0,1,.142-.647,1.056,1.056,0,0,1,.39-.441,1.007,1.007,0,0,1,.545-.156v.467a.653.653,0,0,0-.509.2.825.825,0,0,0-.184.574.848.848,0,0,0,.152.536.514.514,0,0,0,.425.193.462.462,0,0,0,.368-.183,1.8,1.8,0,0,0,.276-.622,2.819,2.819,0,0,1,.274-.687,1.043,1.043,0,0,1,.351-.369.893.893,0,0,1,.47-.12.837.837,0,0,1,.693.334,1.42,1.42,0,0,1,.259.894,1.64,1.64,0,0,1-.14.678,1.142,1.142,0,0,1-.384.485.952.952,0,0,1-.555.171v-.468a.613.613,0,0,0,.509-.235.988.988,0,0,0,.188-.631.911.911,0,0,0-.152-.565.494.494,0,0,0-.413-.2.486.486,0,0,0-.4.182A2.059,2.059,0,0,0,64.972,36.5Z"/><path class="cls-4" d="M65.428,32.007a1.311,1.311,0,0,1,.87.413,1.339,1.339,0,0,1,.306.923,1.239,1.239,0,0,1-.451,1,1.827,1.827,0,0,1-1.209.376H64.6a2.037,2.037,0,0,1-.871-.176,1.313,1.313,0,0,1-.578-.5,1.382,1.382,0,0,1-.2-.746,1.266,1.266,0,0,1,.317-.9,1.325,1.325,0,0,1,.875-.4v.468a1.03,1.03,0,0,0-.618.262.791.791,0,0,0-.19.565.826.826,0,0,0,.332.7,1.533,1.533,0,0,0,.945.254h.345a1.574,1.574,0,0,0,.921-.24.773.773,0,0,0,.343-.671.889.889,0,0,0-.178-.594.98.98,0,0,0-.616-.274Z"/><path class="cls-4" d="M66.173,30.906v-1.67h.383v2.137H63v-.467Z"/></g></g></svg>