<svg id="Layer_1" data-name="Layer 1" xmlns="http://www.w3.org/2000/svg" viewBox="0 0 197.65 151.218"><defs><style>.cls-1{fill:#181819;}.cls-2,.cls-45,.cls-46{fill:#4d4c4d;}.cls-3{fill:#676767;}.cls-102,.cls-104,.cls-106,.cls-108,.cls-15,.cls-16,.cls-17,.cls-18,.cls-20,.cls-21,.cls-22,.cls-25,.cls-28,.cls-29,.cls-30,.cls-33,.cls-39,.cls-4,.cls-50,.cls-6,.cls-81,.cls-88{fill:#fff;}.cls-5{font-size:9px;letter-spacing:-0.002em;}.cls-10,.cls-11,.cls-26,.cls-34,.cls-35,.cls-5,.cls-7{fill:#251a11;}.cls-10,.cls-11,.cls-15,.cls-16,.cls-17,.cls-18,.cls-20,.cls-21,.cls-22,.cls-26,.cls-28,.cls-29,.cls-30,.cls-34,.cls-35,.cls-5,.cls-61,.cls-66,.cls-7{font-family:RobotoSlab-Regular, Roboto Slab;}.cls-105,.cls-24,.cls-25,.cls-33,.cls-38,.cls-42,.cls-49,.cls-50,.cls-6,.cls-69,.cls-77,.cls-87,.cls-88,.cls-89,.cls-94{stroke:#fff;}.cls-100,.cls-101,.cls-105,.cls-107,.cls-108,.cls-109,.cls-110,.cls-111,.cls-114,.cls-24,.cls-25,.cls-33,.cls-38,.cls-39,.cls-40,.cls-41,.cls-42,.cls-44,.cls-45,.cls-46,.cls-47,.cls-49,.cls-50,.cls-56,.cls-57,.cls-59,.cls-6,.cls-60,.cls-62,.cls-63,.cls-69,.cls-72,.cls-76,.cls-77,.cls-78,.cls-79,.cls-80,.cls-82,.cls-86,.cls-87,.cls-88,.cls-89,.cls-91,.cls-92,.cls-93,.cls-94,.cls-95,.cls-96,.cls-97,.cls-98,.cls-99{stroke-miterlimit:10;}.cls-49,.cls-6{stroke-width:0.75px;}.cls-11,.cls-7,.cls-75{font-size:4px;}.cls-7{letter-spacing:0.112em;}.cls-8{letter-spacing:0.08em;}.cls-9{letter-spacing:0.1em;}.cls-10,.cls-15,.cls-16,.cls-17,.cls-18,.cls-20,.cls-21,.cls-22,.cls-28,.cls-29,.cls-30,.cls-34,.cls-61{font-size:3px;}.cls-10{letter-spacing:0.1em;}.cls-11{letter-spacing:0.1em;}.cls-12{letter-spacing:0.068em;}.cls-13{letter-spacing:0.127em;}.cls-14{letter-spacing:0.27em;}.cls-15{letter-spacing:-0.02em;}.cls-16{letter-spacing:-0.05em;}.cls-17{letter-spacing:0.1em;}.cls-18{letter-spacing:0.05em;}.cls-19{letter-spacing:-0.04em;}.cls-20{letter-spacing:-0.03em;}.cls-21{letter-spacing:-0.075em;}.cls-22{letter-spacing:0.025em;}.cls-23{letter-spacing:0.035em;}.cls-101,.cls-105,.cls-111,.cls-24,.cls-38,.cls-42,.cls-49,.cls-56,.cls-62,.cls-63,.cls-69,.cls-72,.cls-77,.cls-87,.cls-89,.cls-93,.cls-94,.cls-95{fill:none;}.cls-24{stroke-width:0.745px;}.cls-25{stroke-width:0.516px;}.cls-26{font-size:4.55px;}.cls-27{letter-spacing:-0.117em;}.cls-29{letter-spacing:-0.04em;}.cls-30{letter-spacing:0.013em;}.cls-31{letter-spacing:0.025em;}.cls-32{letter-spacing:-0.034em;}.cls-33{stroke-width:0.732px;}.cls-35{font-size:6px;}.cls-36{letter-spacing:-0.029em;}.cls-37{letter-spacing:-0.039em;}.cls-38{stroke-width:0.425px;}.cls-100,.cls-39,.cls-40,.cls-44,.cls-45,.cls-46,.cls-47,.cls-60,.cls-76,.cls-78,.cls-79,.cls-80,.cls-86,.cls-95,.cls-96,.cls-97,.cls-98,.cls-99{stroke:#000;}.cls-39{stroke-width:0.104px;}.cls-40,.cls-41,.cls-43{fill:#ccc3b9;}.cls-40{stroke-width:0.095px;}.cls-41{stroke:#ccc3b9;}.cls-41,.cls-47{stroke-width:0.1px;}.cls-101,.cls-42,.cls-50,.cls-56,.cls-57,.cls-60,.cls-80{stroke-width:0.5px;}.cls-44{stroke-width:0.4px;}.cls-45{stroke-width:0.244px;}.cls-46{stroke-width:0.245px;}.cls-47,.cls-48{fill:#f5923e;}.cls-48{opacity:0.35;}.cls-51{fill:#666566;}.cls-52{fill:#ccc6ba;}.cls-53{fill:#f2f2f2;}.cls-54{fill:#989898;}.cls-55{fill:#313131;}.cls-56,.cls-57{stroke:#e5e5e4;}.cls-57{fill:#e5e5e4;}.cls-58{letter-spacing:-0.022em;}.cls-59{fill:#e4e4e3;stroke:#f5923e;}.cls-114,.cls-59{stroke-width:0.739px;}.cls-62,.cls-63{stroke:#676767;}.cls-62{stroke-width:0.992px;}.cls-63{stroke-width:1.001px;}.cls-64,.cls-98{fill:#cfc7bc;}.cls-65{fill:#36312f;}.cls-66{font-size:1.77px;}.cls-112,.cls-66,.cls-73{fill:#b5b5b4;}.cls-107,.cls-110,.cls-67,.cls-82{fill:#ffae46;}.cls-68{fill:#5b76b9;}.cls-69{stroke-width:0.503px;opacity:0.37;}.cls-70{fill:#977844;}.cls-71{fill:#9f9c9c;}.cls-111,.cls-72{stroke:#231300;}.cls-108,.cls-72,.cls-77,.cls-79,.cls-97,.cls-98{stroke-width:0.25px;}.cls-73{font-size:2.457px;font-family:Verdana;letter-spacing:-0.1em;}.cls-109,.cls-74,.cls-75,.cls-76,.cls-86,.cls-97{fill:#f9943c;}.cls-102,.cls-104,.cls-106,.cls-112,.cls-75,.cls-81{font-family:Roboto-Regular, Roboto;}.cls-75{letter-spacing:0.015em;}.cls-76{stroke-width:0.084px;}.cls-78,.cls-80,.cls-83{fill:#666;}.cls-78{stroke-width:0.251px;}.cls-114,.cls-79,.cls-92{fill:#e6e6e6;}.cls-81{font-size:4.108px;letter-spacing:0.025em;}.cls-107,.cls-108,.cls-109,.cls-110,.cls-82{stroke:#ffae46;}.cls-82{stroke-width:0.2px;}.cls-84{font-size:6.255px;font-family:MyriadPro-Regular, Myriad Pro;}.cls-84,.cls-99{fill:#9a9b9b;}.cls-85{fill:gray;}.cls-86{stroke-width:0.257px;}.cls-88,.cls-89{stroke-width:0.27px;}.cls-90{fill:#4c4c4c;}.cls-100,.cls-91{fill:#b4b4b4;}.cls-91{stroke:#666;stroke-width:0.023px;}.cls-92{stroke:#b4b4b4;stroke-width:0.025px;}.cls-93{stroke:gray;stroke-width:0.011px;}.cls-94{stroke-width:0.9px;}.cls-95{stroke-width:0.458px;}.cls-96{fill:#00ae6e;}.cls-100,.cls-96,.cls-99{stroke-width:0.4px;}.cls-101,.cls-114{stroke:#f9943c;}.cls-102{font-size:4.4px;letter-spacing:1.227em;}.cls-103{letter-spacing:0.025em;}.cls-104{font-size:18px;letter-spacing:-0.031em;}.cls-105{stroke-width:0.551px;}.cls-106{font-size:9.191px;letter-spacing:-0.055em;}.cls-107{stroke-width:0.037px;}.cls-109,.cls-110{stroke-width:0.092px;}.cls-111{stroke-width:0.283px;}.cls-112{font-size:2px;}.cls-113{opacity:0.6;}</style></defs><g id="top"><g id="arduino-shield"><path id="arduino-shield-2" class="cls-1" d="M190.441,36.726V4.326l-4.3-4.3L3.43,0l0,151.217s187.013-.019,187.023-.019v-7.182l7.2-7.2V43.926Zm-4.51,13.66a4.493,4.493,0,0,1,4.479-4.48h.01a4.462,4.462,0,0,1,4.45,4.45h0a4.488,4.488,0,0,1-4.449,4.49l.01.02a4.5,4.5,0,0,1-4.5-4.46ZM47.36,144.056a4.488,4.488,0,0,1-4.46,4.48l-.04-.02a4.475,4.475,0,0,1-4.5-4.44v-.11a4.4,4.4,0,0,1,4.3-4.39h.22a4.48,4.48,0,0,1,4.48,4.48Zm3.6-136.73c-.044,3.759-4.5,4.4-4.5,4.4a4.475,4.475,0,0,1-4.5-4.44v-.07a4.423,4.423,0,0,1,4.41-4.41h.09a4.513,4.513,0,0,1,4.5,4.5ZM84,120.736a1.842,1.842,0,1,1-1.29-2.27A1.849,1.849,0,0,1,84,120.736Zm7.191,0a1.843,1.843,0,1,1-1.281-2.27A1.845,1.845,0,0,1,91.191,120.736Zm7.119,0a1.843,1.843,0,1,1-1.28-2.27A1.844,1.844,0,0,1,98.31,120.736Zm7.17,0a1.842,1.842,0,1,1-1.279-2.27A1.844,1.844,0,0,1,105.48,120.736Zm89.451,8.92a4.467,4.467,0,0,1-4.441,4.46h-.059a4.513,4.513,0,0,1-4.5-4.5v-.12a4.352,4.352,0,0,1,4.339-4.34h.161a4.513,4.513,0,0,1,4.5,4.5Zm-2.952-48.944a.028.028,0,0,1-.028.028.029.029,0,0,1-.028-.028.028.028,0,0,1,.028-.028A.027.027,0,0,1,191.979,80.712Z"/></g><g id="Колодка_А0-А5" data-name="Колодка А0-А5"><rect class="cls-2" x="180.465" y="139.57" width="5.2" height="5.199"/><path class="cls-3" d="M184.665,140.569v3.2h-3.2v-3.2h3.2m2-2h-7.2v7.2h7.2v-7.2Z"/><rect class="cls-2" x="173.265" y="139.57" width="5.2" height="5.199"/><path class="cls-3" d="M177.465,140.569v3.2h-3.2v-3.2h3.2m2-2h-7.2v7.2h7.2v-7.2Z"/><rect class="cls-2" x="166.065" y="139.57" width="5.2" height="5.199"/><path class="cls-3" d="M170.265,140.569v3.2h-3.2v-3.2h3.2m2-2h-7.2v7.2h7.2v-7.2Z"/><rect class="cls-2" x="158.865" y="139.57" width="5.2" height="5.199"/><path class="cls-3" d="M163.065,140.569v3.2h-3.2v-3.2h3.2m2-2h-7.2v7.2h7.2v-7.2Z"/><rect class="cls-2" x="151.665" y="139.57" width="5.2" height="5.199"/><path class="cls-3" d="M155.865,140.569v3.2h-3.2v-3.2h3.2m2-2h-7.2v7.2h7.2v-7.2Z"/><rect class="cls-2" x="144.465" y="139.57" width="5.2" height="5.199"/><path class="cls-3" d="M148.665,140.569v3.2h-3.2v-3.2h3.2m2-2h-7.2v7.2h7.2v-7.2Z"/></g><g id="Колодка_IOREF" data-name="Колодка IOREF"><rect class="cls-2" x="130.065" y="139.57" width="5.2" height="5.199"/><path class="cls-3" d="M134.265,140.569v3.2h-3.2v-3.2h3.2m2-2h-7.2v7.2h7.2v-7.2Z"/><rect class="cls-2" x="122.865" y="139.57" width="5.2" height="5.199"/><path class="cls-3" d="M127.065,140.569v3.2h-3.2v-3.2h3.2m2-2h-7.2v7.2h7.2v-7.2Z"/><rect class="cls-2" x="115.665" y="139.57" width="5.2" height="5.199"/><path class="cls-3" d="M119.865,140.569v3.2h-3.2v-3.2h3.2m2-2h-7.2v7.2h7.2v-7.2Z"/><rect class="cls-2" x="108.465" y="139.57" width="5.2" height="5.199"/><path class="cls-3" d="M112.665,140.569v3.2h-3.2v-3.2h3.2m2-2h-7.2v7.2h7.2v-7.2Z"/><rect class="cls-2" x="101.265" y="139.57" width="5.2" height="5.199"/><path class="cls-3" d="M105.465,140.569v3.2h-3.2v-3.2h3.2m2-2h-7.2v7.2h7.2v-7.2Z"/><rect class="cls-2" x="94.065" y="139.57" width="5.2" height="5.199"/><path class="cls-3" d="M98.265,140.569v3.2h-3.2v-3.2h3.2m2-2h-7.2v7.2h7.2v-7.2Z"/><rect class="cls-2" x="86.865" y="139.57" width="5.2" height="5.199"/><path class="cls-3" d="M91.065,140.569v3.2h-3.2v-3.2h3.2m2-2h-7.2v7.2h7.2v-7.2Z"/><rect class="cls-2" x="79.665" y="139.57" width="5.2" height="5.199"/><path class="cls-3" d="M83.865,140.569v3.2h-3.2v-3.2h3.2m2-2h-7.2v7.2h7.2v-7.2Z"/></g><rect class="cls-4" x="165.11" y="38.441" width="7.917" height="82.292"/><text class="cls-5" transform="translate(172.277 119.789) rotate(-90)">GSM/GPRS SHIELD</text><rect class="cls-6" x="117.476" y="126.134" width="16.812" height="4.187"/><text class="cls-7" transform="translate(117.32 129.533)">P<tspan class="cls-8" x="2.982" y="0">O</tspan><tspan class="cls-9" x="5.942" y="0">WER</tspan></text><rect class="cls-6" x="116.57" y="133.436" width="10" height="4.417"/><rect class="cls-4" x="116.57" y="145.8" width="10" height="4.169"/><rect class="cls-4" x="108.902" y="145.8" width="4.48" height="4.169"/><text class="cls-10" transform="translate(117.887 136.578)">GND</text><rect class="cls-6" x="145.278" y="126.134" width="26.885" height="4.187"/><text class="cls-11" transform="translate(145.153 129.574)">ANA<tspan class="cls-12" x="10.298" y="0">L</tspan><tspan class="cls-13" x="12.934" y="0">O</tspan><tspan x="16.08" y="0">G</tspan><tspan class="cls-14" x="19.109" y="0"> </tspan><tspan x="21.183" y="0">IN</tspan></text><text class="cls-15" transform="translate(112.216 137.57) rotate(-90) scale(0.991 1)">5V</text><text class="cls-16" transform="translate(148.297 137.569) rotate(-90) scale(0.991 1)">A0</text><text class="cls-17" transform="translate(155.735 137.569) rotate(-90) scale(0.991 1)">A1</text><text class="cls-18" transform="translate(133.971 137.57) rotate(-90) scale(0.991 1)">V<tspan class="cls-19" x="2.359" y="0">in</tspan></text><text class="cls-20" transform="translate(162.786 137.569) rotate(-90) scale(0.991 1)">A2</text><text class="cls-20" transform="translate(169.933 137.569) rotate(-90) scale(0.991 1)">A3</text><text class="cls-20" transform="translate(177.214 137.569) rotate(-90) scale(0.991 1)">A4</text><text class="cls-20" transform="translate(184.38 137.569) rotate(-90) scale(0.991 1)">A5</text><text class="cls-21" transform="translate(105.424 137.57) rotate(-90) scale(0.991 1)">3.3V</text><text class="cls-22" transform="translate(97.987 137.569) rotate(-90) scale(0.991 1)">RES<tspan class="cls-23" x="5.933" y="0">E</tspan><tspan x="7.951" y="0">T</tspan></text><text class="cls-22" transform="translate(90.816 137.569) rotate(-90) scale(0.991 1)">IOREF</text><line class="cls-24" x1="117.476" y1="126.134" x2="99.601" y2="126.134"/><line class="cls-24" x1="172.163" y1="126.134" x2="183.174" y2="126.134"/><rect class="cls-25" x="82.498" y="18.295" width="18.435" height="4.187"/><text class="cls-26" transform="translate(82.489 21.954)">DIGI<tspan class="cls-27" x="9.047" y="0">T</tspan><tspan x="11.637" y="0">AL</tspan></text><text class="cls-28" transform="translate(85.872 14.464) rotate(-90)">13</text><text class="cls-28" transform="translate(93.064 14.501) rotate(-90)">12</text><text class="cls-28" transform="translate(100.257 16.111) rotate(-90)">~11</text><text class="cls-29" transform="translate(107.45 16.225) rotate(-90)">~10</text><text class="cls-28" transform="translate(140.336 15.282) rotate(-90) scale(0.991 1)">~6</text><text class="cls-28" transform="translate(147.642 15.191) rotate(-90) scale(0.991 1)">~5</text><text class="cls-28" transform="translate(162.256 15.227) rotate(-90) scale(0.991 1)">~3</text><text class="cls-28" transform="translate(169.563 13.25) rotate(-90) scale(0.991 1)">2</text><text class="cls-22" transform="translate(184.176 19.387) rotate(-90) scale(0.991 1)"><tspan xml:space="preserve">TX  0</tspan></text><text class="cls-22" transform="translate(176.87 18.946) rotate(-90) scale(0.991 1)"><tspan xml:space="preserve">RX  1</tspan></text><text class="cls-28" transform="translate(121.834 19.055) rotate(-90)"><tspan xml:space="preserve">RX  8</tspan></text><text class="cls-28" transform="translate(154.949 13.331) rotate(-90) scale(0.991 1)">4</text><text class="cls-30" transform="translate(114.642 21.429) rotate(-90)">P<tspan class="cls-31" x="1.938" y="0">WR 9</tspan></text><text class="cls-28" transform="translate(133.029 18.957) rotate(-90) scale(0.991 1)"><tspan xml:space="preserve">TX  7</tspan></text><path class="cls-4" d="M183.488,14.1l-.054.05-.184-.183v1.2h-.3v-1.2l-.184.183-.054-.05-.107-.1.5-.464.5.464Z"/><path class="cls-4" d="M176.193,14.263l-.054-.051-.183.184v-1.2h-.3v1.2l-.184-.184-.054.051-.107.1.5.464.5-.464Z"/><text class="cls-28" transform="translate(56.656 18.528) rotate(-90)"><tspan xml:space="preserve">  SCL</tspan></text><text class="cls-28" transform="translate(63.849 17.504) rotate(-90)">S<tspan class="cls-32" x="1.767" y="0">D</tspan><tspan x="3.65" y="0">A</tspan></text><text class="cls-28" transform="translate(71.041 19.635) rotate(-90)">AREF</text><rect class="cls-33" x="75.899" y="0.484" width="4.417" height="19.599"/><text class="cls-34" transform="translate(78.924 18.039) rotate(-90)">GND</text><rect class="cls-4" x="30.119" y="14.334" width="6.871" height="20.166"/><text class="cls-35" transform="translate(35.838 32.857) rotate(-90)"><tspan class="cls-36">U</tspan><tspan x="4.283" y="0">A</tspan><tspan class="cls-37" x="8.774" y="0">R</tspan><tspan x="12.598" y="0">T</tspan></text><line class="cls-24" x1="100.933" y1="22.352" x2="184.392" y2="22.352"/><g id="разъем"><rect class="cls-38" x="176.631" y="64.672" width="21.5" height="14.4" transform="translate(259.253 -115.509) rotate(90)"/><path class="cls-39" d="M189.85,64.625a1.084,1.084,0,1,1,1.084,1.084A1.084,1.084,0,0,1,189.85,64.625Z"/><path class="cls-40" d="M193.1,64.637a2.168,2.168,0,1,0-2.168,2.168A2.167,2.167,0,0,0,193.1,64.637Zm-3.252,0a1.084,1.084,0,1,1,1.084,1.084A1.084,1.084,0,0,1,189.85,64.637Z"/><path class="cls-39" d="M189.85,71.872a1.084,1.084,0,1,1,1.084,1.084A1.084,1.084,0,0,1,189.85,71.872Z"/><path class="cls-40" d="M193.1,71.859a2.168,2.168,0,1,0-2.168,2.169A2.168,2.168,0,0,0,193.1,71.859Zm-3.252,0a1.084,1.084,0,1,1,1.084,1.085A1.084,1.084,0,0,1,189.85,71.859Z"/><path class="cls-39" d="M189.85,79.044a1.084,1.084,0,1,1,1.084,1.084A1.084,1.084,0,0,1,189.85,79.044Z"/><path class="cls-40" d="M193.1,79.05a2.169,2.169,0,1,0-2.168,2.169A2.168,2.168,0,0,0,193.1,79.05Zm-3.252,0a1.084,1.084,0,1,1,1.084,1.084A1.084,1.084,0,0,1,189.844,79.05Z"/><path class="cls-39" d="M182.676,64.625a1.084,1.084,0,1,1,1.084,1.084A1.084,1.084,0,0,1,182.676,64.625Z"/><path class="cls-40" d="M185.941,64.649a2.169,2.169,0,1,0-2.168,2.169A2.168,2.168,0,0,0,185.941,64.649Zm-3.253,0a1.085,1.085,0,1,1,1.085,1.085A1.085,1.085,0,0,1,182.688,64.649Z"/><path class="cls-39" d="M182.676,71.872a1.084,1.084,0,1,1,1.084,1.084A1.084,1.084,0,0,1,182.676,71.872Z"/><path class="cls-40" d="M185.929,71.884a2.169,2.169,0,1,0-2.169,2.169A2.169,2.169,0,0,0,185.929,71.884Zm-3.253,0a1.084,1.084,0,1,1,1.084,1.085A1.084,1.084,0,0,1,182.676,71.884Z"/><path class="cls-39" d="M182.676,79.044a1.084,1.084,0,1,1,1.084,1.084A1.084,1.084,0,0,1,182.676,79.044Z"/><path class="cls-40" d="M185.929,79.044a2.169,2.169,0,1,0-2.169,2.168A2.169,2.169,0,0,0,185.929,79.044Zm-3.253,0a1.084,1.084,0,1,1,1.084,1.084A1.084,1.084,0,0,1,182.676,79.044Z"/></g><g id="прошивка"><path class="cls-41" d="M106.414,120.183a2.68,2.68,0,1,0-2.679,2.679A2.679,2.679,0,0,0,106.414,120.183Zm-4.451,0a1.772,1.772,0,1,1,1.772,1.771A1.772,1.772,0,0,1,101.963,120.183Z"/><path class="cls-41" d="M99.243,120.183a2.68,2.68,0,1,0-2.68,2.679A2.68,2.68,0,0,0,99.243,120.183Zm-4.451,0a1.772,1.772,0,1,1,1.771,1.771A1.771,1.771,0,0,1,94.792,120.183Z"/><path class="cls-41" d="M92.079,120.183a2.68,2.68,0,1,0-2.679,2.679A2.679,2.679,0,0,0,92.079,120.183Zm-4.451,0a1.772,1.772,0,1,1,1.772,1.771A1.772,1.772,0,0,1,87.628,120.183Z"/><path class="cls-41" d="M84.916,120.183a2.68,2.68,0,1,0-2.68,2.679A2.68,2.68,0,0,0,84.916,120.183Zm-4.452,0a1.772,1.772,0,1,1,1.772,1.771A1.772,1.772,0,0,1,80.464,120.183Z"/></g><g id="диод"><line class="cls-42" x1="194.364" y1="114.035" x2="194.364" y2="121.527"/><rect class="cls-43" x="189.186" y="116.357" width="6.047" height="2.904" transform="translate(310.018 -74.4) rotate(90)"/><rect class="cls-43" x="175.383" y="116.31" width="6.047" height="2.904" transform="translate(296.168 -60.645) rotate(90)"/><rect class="cls-44" x="181.682" y="112.366" width="7.358" height="10.792" transform="translate(303.123 -67.599) rotate(90)"/></g><g id="диод-2" data-name="диод"><line class="cls-42" x1="194.364" y1="103.333" x2="194.364" y2="110.692"/><rect class="cls-43" x="189.186" y="105.608" width="6.047" height="2.904" transform="translate(299.269 -85.15) rotate(90)"/><rect class="cls-43" x="175.383" y="105.56" width="6.047" height="2.904" transform="translate(285.419 -71.394) rotate(90)"/><rect class="cls-44" x="181.682" y="101.616" width="7.358" height="10.792" transform="translate(292.373 -78.349) rotate(90)"/></g><g id="AUX"><rect class="cls-43" x="23.872" y="108.606" width="7.583" height="4.625" transform="translate(138.582 83.255) rotate(90)"/><rect class="cls-43" x="18.58" y="108.606" width="7.583" height="4.625" transform="translate(133.29 88.547) rotate(90)"/><rect class="cls-43" x="10.288" y="108.606" width="7.583" height="4.625" transform="translate(124.998 96.839) rotate(90)"/><rect class="cls-43" x="6.955" y="128.189" width="7.583" height="4.625" transform="translate(141.248 119.755) rotate(90)"/><rect class="cls-43" x="15.496" y="128.189" width="7.583" height="4.625" transform="translate(149.79 111.214) rotate(90)"/><rect class="cls-43" x="23.412" y="128.189" width="7.583" height="4.625" transform="translate(157.706 103.298) rotate(90)"/><rect class="cls-43" x="29.829" y="128.189" width="7.583" height="4.625" transform="translate(164.122 96.881) rotate(90)"/><polygon class="cls-3" points="2.716 129.366 2.716 112.116 40.746 112.116 40.746 129.366 35.519 129.366 2.716 129.366"/><path class="cls-45" d="M-4.019,119.444H6.856a0,0,0,0,1,0,0v2.31a.283.283,0,0,1-.283.283H-3.735a.283.283,0,0,1-.283-.283v-2.31A0,0,0,0,1-4.019,119.444Z" transform="translate(122.16 119.323) rotate(90)"/><rect class="cls-46" x="15.576" y="102.444" width="10.875" height="36.595" transform="translate(141.755 99.728) rotate(90)"/><polygon class="cls-47" points="35.059 116.71 33.966 113.616 27.204 113.616 32.278 125.054 32.278 129.366 35.059 129.366 35.059 116.71"/><polygon class="cls-47" points="20.934 124.773 22.028 127.866 28.79 127.866 23.716 116.429 23.716 112.116 20.934 112.116 20.934 124.773"/><polygon class="cls-47" points="12.684 124.773 13.778 127.866 20.54 127.866 15.466 116.429 15.466 112.116 12.684 112.116 12.684 124.773"/><polygon class="cls-47" points="4.153 124.773 5.247 127.866 12.008 127.866 6.934 116.429 6.934 112.116 4.153 112.116 4.153 124.773"/><rect class="cls-48" x="11.399" y="104.235" width="17.25" height="33.012" transform="translate(140.765 100.718) rotate(90)"/><g id="symbol"><path class="cls-49" d="M18.393,141.075a5.115,5.115,0,1,1,10.229,0"/><rect class="cls-50" x="25.811" y="140.166" width="4.792" height="2.005" rx="1.002" transform="translate(169.375 112.962) rotate(90)"/><path class="cls-49" d="M28.622,141.773a5.114,5.114,0,0,1-2.549,4.426"/><rect class="cls-50" x="23.247" y="145.481" width="3" height="1.435" rx="0.717" transform="translate(49.494 292.397) rotate(-180)"/><rect class="cls-50" x="26.247" y="139.335" width="0.508" height="3.542" rx="0.254"/><rect class="cls-50" x="16.442" y="140.166" width="4.792" height="2.005" rx="1.002" transform="translate(-122.33 160.007) rotate(-90)"/><rect class="cls-50" x="20.29" y="139.46" width="0.508" height="3.542" rx="0.254"/></g></g><g id="Колодка_1-7" data-name="Колодка 1-7"><rect class="cls-2" x="180.016" y="4.271" width="5.2" height="5.2"/><path class="cls-51" d="M184.216,5.271v3.2h-3.2v-3.2h3.2m2-2h-7.2v7.2h7.2v-7.2Z"/><rect class="cls-2" x="172.816" y="4.271" width="5.2" height="5.2"/><path class="cls-51" d="M177.016,5.271v3.2h-3.2v-3.2h3.2m2-2h-7.2v7.2h7.2v-7.2Z"/><rect class="cls-2" x="165.616" y="4.271" width="5.2" height="5.2"/><path class="cls-51" d="M169.816,5.271v3.2h-3.2v-3.2h3.2m2-2h-7.2v7.2h7.2v-7.2Z"/><rect class="cls-2" x="158.416" y="4.271" width="5.2" height="5.2"/><path class="cls-51" d="M162.616,5.271v3.2h-3.2v-3.2h3.2m2-2h-7.2v7.2h7.2v-7.2Z"/><rect class="cls-2" x="151.216" y="4.271" width="5.199" height="5.2"/><path class="cls-51" d="M155.416,5.271v3.2h-3.2v-3.2h3.2m2-2h-7.2v7.2h7.2v-7.2Z"/><rect class="cls-2" x="144.016" y="4.271" width="5.2" height="5.2"/><path class="cls-51" d="M148.216,5.271v3.2h-3.2v-3.2h3.2m2-2h-7.2v7.2h7.2v-7.2Z"/><rect class="cls-2" x="136.816" y="4.271" width="5.2" height="5.2"/><path class="cls-51" d="M141.016,5.271v3.2h-3.2v-3.2h3.2m2-2h-7.2v7.2h7.2v-7.2Z"/><rect class="cls-2" x="129.616" y="4.271" width="5.2" height="5.2"/><path class="cls-51" d="M133.816,5.271v3.2h-3.2v-3.2h3.2m2-2h-7.2v7.2h7.2v-7.2Z"/></g><g id="Колодка_8-13" data-name="Колодка 8-13"><rect class="cls-2" x="118.096" y="4.271" width="5.199" height="5.2"/><path class="cls-51" d="M122.3,5.271v3.2h-3.2v-3.2h3.2m2-2h-7.2v7.2h7.2v-7.2Z"/><rect class="cls-2" x="110.896" y="4.271" width="5.2" height="5.2"/><path class="cls-51" d="M115.1,5.271v3.2h-3.2v-3.2h3.2m2-2h-7.2v7.2h7.2v-7.2Z"/><rect class="cls-2" x="103.696" y="4.271" width="5.2" height="5.2"/><path class="cls-51" d="M107.9,5.271v3.2h-3.2v-3.2h3.2m2-2h-7.2v7.2h7.2v-7.2Z"/><rect class="cls-2" x="96.496" y="4.271" width="5.2" height="5.2"/><path class="cls-51" d="M100.7,5.271v3.2H97.5v-3.2h3.2m2-2H95.5v7.2h7.2v-7.2Z"/><rect class="cls-2" x="89.296" y="4.271" width="5.2" height="5.2"/><path class="cls-51" d="M93.5,5.271v3.2H90.3v-3.2h3.2m2-2H88.3v7.2h7.2v-7.2Z"/><rect class="cls-2" x="82.096" y="4.271" width="5.2" height="5.2"/><path class="cls-51" d="M86.3,5.271v3.2H83.1v-3.2h3.2m2-2H81.1v7.2h7.2v-7.2Z"/><rect class="cls-2" x="74.896" y="4.271" width="5.2" height="5.2"/><path class="cls-51" d="M79.1,5.271v3.2H75.9v-3.2h3.2m2-2H73.9v7.2h7.2v-7.2Z"/><rect class="cls-2" x="67.696" y="4.271" width="5.2" height="5.2"/><path class="cls-51" d="M71.9,5.271v3.2H68.7v-3.2h3.2m2-2H66.7v7.2h7.2v-7.2Z"/><rect class="cls-2" x="60.496" y="4.271" width="5.2" height="5.2"/><path class="cls-51" d="M64.7,5.271v3.2H61.5v-3.2h3.2m2-2H59.5v7.2h7.2v-7.2Z"/><rect class="cls-2" x="53.296" y="4.271" width="5.2" height="5.2"/><path class="cls-51" d="M57.5,5.271v3.2H54.3v-3.2h3.2m2-2H52.3v7.2h7.2v-7.2Z"/></g><g id="rx-tx"><rect class="cls-52" x="21.423" y="15.755" width="7.458" height="3.449"/><rect class="cls-52" x="6.965" y="15.755" width="7.458" height="3.449"/><rect class="cls-52" x="6.965" y="22.88" width="7.458" height="3.449"/><rect class="cls-52" x="6.965" y="30.005" width="7.458" height="3.449"/><rect class="cls-52" x="21.423" y="30.005" width="7.458" height="3.449"/><rect class="cls-52" x="21.423" y="22.88" width="7.458" height="3.449"/><rect class="cls-53" x="13.304" y="14.4" width="9.071" height="20.409"/><rect class="cls-2" x="19.215" y="19.954" width="3.16" height="9.057"/><rect class="cls-54" x="19.378" y="25.33" width="2.835" height="3.492"/><rect class="cls-55" x="18.974" y="14.4" width="3.402" height="0.567"/><rect class="cls-55" x="13.304" y="14.4" width="3.402" height="0.567"/><rect class="cls-55" x="13.304" y="34.243" width="3.402" height="0.567"/><rect class="cls-55" x="18.974" y="34.243" width="3.402" height="0.567"/><line class="cls-56" x1="13.96" y1="17.231" x2="13.96" y2="31.733"/><circle class="cls-57" cx="16.61" cy="22.605" r="0.601"/><circle class="cls-57" cx="16.62" cy="26.605" r="0.601"/><path class="cls-4" d="M32.442,11.871l.153.142.518-.519v1.472h.857V11.494l.518.519.153-.142.3-.278-1.4-1.309-1.4,1.309Z"/><path class="cls-4" d="M34.641,37.189l-.153-.142-.518.519V36.094h-.857v1.472l-.518-.519-.153.142-.3.278,1.4,1.31,1.4-1.31Z"/><text class="cls-28" transform="translate(9.903 12.993)">T<tspan class="cls-58" x="2.06" y="0">X</tspan><tspan x="4.232" y="0">-0/R</tspan><tspan class="cls-58" x="10.346" y="0">X</tspan><tspan x="12.519" y="0">-1</tspan></text><text class="cls-28" transform="translate(9.657 38.799)">T<tspan class="cls-58" x="2.06" y="0">X</tspan><tspan x="4.232" y="0">-7/R</tspan><tspan class="cls-58" x="10.288" y="0">X</tspan><tspan x="12.46" y="0">-8</tspan></text></g><rect class="cls-4" x="107.992" y="116.534" width="7.854" height="5.452"/><circle class="cls-59" cx="35.917" cy="72.742" r="1.007"/><circle class="cls-60" cx="35.917" cy="72.742" r="0.609"/><circle class="cls-59" cx="95.147" cy="70.862" r="1.007"/><circle class="cls-60" cx="95.147" cy="70.862" r="0.609"/><circle class="cls-59" cx="137.208" cy="51.294" r="1.007"/><circle class="cls-60" cx="137.208" cy="51.294" r="0.609"/><circle class="cls-59" cx="145.05" cy="51.294" r="1.007"/><circle class="cls-60" cx="145.05" cy="51.294" r="0.609"/><circle class="cls-59" cx="138.267" cy="18.73" r="1.007"/><circle class="cls-60" cx="138.267" cy="18.73" r="0.609"/><circle class="cls-59" cx="101.233" cy="37.028" r="1.007"/><circle class="cls-60" cx="101.233" cy="37.028" r="0.609"/><circle class="cls-59" cx="62.693" cy="37.028" r="1.007"/><circle class="cls-60" cx="62.693" cy="37.028" r="0.609"/><circle class="cls-59" cx="55.635" cy="37.028" r="1.007"/><circle class="cls-60" cx="55.635" cy="37.028" r="0.609"/><circle class="cls-59" cx="48.465" cy="37.028" r="1.007"/><circle class="cls-60" cx="48.465" cy="37.028" r="0.609"/><circle class="cls-59" cx="35.955" cy="47.037" r="1.007"/><circle class="cls-60" cx="35.955" cy="47.037" r="0.609"/><circle class="cls-59" cx="28.635" cy="47.037" r="1.007"/><circle class="cls-60" cx="28.635" cy="47.037" r="0.609"/><circle class="cls-59" cx="95.097" cy="99.443" r="1.007"/><circle class="cls-60" cx="95.097" cy="99.443" r="0.609"/><circle class="cls-59" cx="21.54" cy="72.742" r="1.007"/><circle class="cls-60" cx="21.54" cy="72.742" r="0.609"/><circle class="cls-59" cx="14.407" cy="72.742" r="1.007"/><circle class="cls-60" cx="14.407" cy="72.742" r="0.609"/><text class="cls-29" transform="translate(83.321 114.689) rotate(-90)">GND</text><text class="cls-29" transform="translate(90.856 114.556) rotate(-90)">H-RX</text><text class="cls-29" transform="translate(98.391 114.822) rotate(-90)">H-TX</text><text class="cls-29" transform="translate(105.13 114.954) rotate(-90)">5V</text><text class="cls-61" transform="translate(108.902 120.282)">HST</text><circle class="cls-62" cx="42.84" cy="144.046" r="4.5"/><circle class="cls-63" cx="190.384" cy="129.646" r="4.5"/><circle class="cls-63" cx="190.384" cy="50.401" r="4.5"/><circle class="cls-63" cx="46.434" cy="7.059" r="4.5"/><rect class="cls-64" x="73.735" y="25.422" width="4.017" height="1.166"/><rect class="cls-64" x="73.773" y="30.28" width="4.017" height="1.182"/><rect class="cls-65" x="73.932" y="25.885" width="3.608" height="5.161"/><text class="cls-66" transform="translate(75.196 26.587) rotate(90)">3001</text><rect class="cls-64" x="66.225" y="25.422" width="4.017" height="1.166"/><rect class="cls-64" x="66.263" y="30.28" width="4.017" height="1.182"/><rect class="cls-65" x="66.422" y="25.885" width="3.608" height="5.161"/><text class="cls-66" transform="translate(67.685 26.587) rotate(90)">6801</text><rect class="cls-64" x="58.714" y="25.422" width="4.017" height="1.166"/><rect class="cls-64" x="58.753" y="30.28" width="4.017" height="1.182"/><rect class="cls-65" x="58.912" y="25.885" width="3.608" height="5.161"/><text class="cls-66" transform="translate(60.175 26.577) rotate(90)">1002</text><rect class="cls-64" x="100.417" y="83.186" width="4.017" height="1.166"/><rect class="cls-64" x="100.455" y="88.043" width="4.017" height="1.182"/><rect class="cls-65" x="100.614" y="83.648" width="3.608" height="5.161"/><text class="cls-66" transform="translate(101.878 84.816) rotate(90)">104</text><rect class="cls-64" x="100.417" y="69.48" width="4.017" height="1.166"/><rect class="cls-64" x="100.455" y="74.338" width="4.017" height="1.182"/><rect class="cls-65" x="100.614" y="69.943" width="3.608" height="5.161"/><text class="cls-66" transform="translate(101.878 70.517) rotate(90)">2003</text><rect class="cls-64" x="100.417" y="96.891" width="4.017" height="1.166"/><rect class="cls-64" x="100.455" y="101.749" width="4.017" height="1.182"/><rect class="cls-65" x="100.614" y="97.354" width="3.608" height="5.161"/><text class="cls-66" transform="translate(101.876 98.166) rotate(90)">1001</text><rect class="cls-64" x="51.204" y="25.422" width="4.017" height="1.166"/><rect class="cls-64" x="51.242" y="30.28" width="4.017" height="1.182"/><rect class="cls-65" x="51.401" y="25.885" width="3.608" height="5.161"/><text class="cls-66" transform="translate(52.663 27.081) rotate(90)">102</text><g id="led"><rect class="cls-64" x="171.314" y="25.918" width="1.427" height="4.296"/><rect class="cls-64" x="166.153" y="25.917" width="1.429" height="4.255"/><path class="cls-67" d="M166.742,28.045a.7.7,0,0,0-.434-.694,11.261,11.261,0,0,1-.062-1.434h1.494v4.256h-1.494a11.261,11.261,0,0,1,.062-1.434.7.7,0,0,0,.434-.694"/><path class="cls-67" d="M172.091,28.045c0-.293.016-.538.307-.63a13.128,13.128,0,0,0,.188-1.5h-1.494v4.256h1.494a11.444,11.444,0,0,0-.061-1.434.7.7,0,0,1-.434-.694"/><rect class="cls-68" x="167.74" y="25.942" width="3.352" height="4.256"/><rect class="cls-69" x="167.74" y="25.917" width="3.352" height="4.256"/></g><g id="led-2" data-name="led"><rect class="cls-64" x="171.314" y="32.988" width="1.427" height="4.296"/><rect class="cls-64" x="166.153" y="32.988" width="1.429" height="4.255"/><path class="cls-67" d="M166.742,35.116a.7.7,0,0,0-.434-.694,11.269,11.269,0,0,1-.062-1.434h1.494v4.255h-1.494a11.269,11.269,0,0,1,.062-1.434.7.7,0,0,0,.434-.693"/><path class="cls-67" d="M172.091,35.116c0-.293.016-.539.307-.63a13.156,13.156,0,0,0,.188-1.5h-1.494v4.255h1.494a11.452,11.452,0,0,0-.061-1.434.7.7,0,0,1-.434-.693"/><rect class="cls-68" x="167.74" y="33.013" width="3.352" height="4.256"/><rect class="cls-69" x="167.74" y="32.988" width="3.352" height="4.256"/></g><g id="конденсатор"><rect class="cls-64" x="134.728" y="42.404" width="3.606" height="1.299"/><rect class="cls-64" x="134.728" y="47.395" width="3.606" height="1.342"/><rect class="cls-70" x="134.728" y="42.999" width="3.608" height="5.163"/></g><g id="конденсатор-2" data-name="конденсатор"><rect class="cls-64" x="100.641" y="76.187" width="3.606" height="1.299"/><rect class="cls-64" x="100.642" y="81.177" width="3.606" height="1.342"/><rect class="cls-70" x="100.641" y="76.781" width="3.608" height="5.163"/></g><g id="конденсатор-3" data-name="конденсатор"><rect class="cls-64" x="100.641" y="89.892" width="3.606" height="1.299"/><rect class="cls-64" x="100.642" y="94.883" width="3.606" height="1.342"/><rect class="cls-70" x="100.641" y="90.486" width="3.608" height="5.163"/></g><g id="конденсатор-4" data-name="конденсатор"><rect class="cls-64" x="44.077" y="113.195" width="3.606" height="1.299"/><rect class="cls-64" x="44.077" y="118.186" width="3.606" height="1.342"/><rect class="cls-70" x="44.077" y="113.789" width="3.608" height="5.163"/></g><g id="конденсатор-5" data-name="конденсатор"><rect class="cls-64" x="44.077" y="122.108" width="3.606" height="1.299"/><rect class="cls-64" x="44.077" y="127.099" width="3.606" height="1.342"/><rect class="cls-70" x="44.077" y="122.702" width="3.608" height="5.163"/></g><g id="конденсатор-6" data-name="конденсатор"><rect class="cls-64" x="79.629" y="70.826" width="3.606" height="1.299"/><rect class="cls-64" x="79.629" y="75.816" width="3.606" height="1.342"/><rect class="cls-70" x="79.629" y="71.42" width="3.608" height="5.163"/></g><g id="конденсатор-7" data-name="конденсатор"><rect class="cls-64" x="74.978" y="44.762" width="3.606" height="1.3"/><rect class="cls-64" x="74.976" y="39.728" width="3.608" height="1.342"/><rect class="cls-70" x="74.976" y="40.304" width="3.608" height="5.163"/></g><g id="конденсатор-8" data-name="конденсатор"><rect class="cls-64" x="66.015" y="44.762" width="3.606" height="1.3"/><rect class="cls-64" x="66.014" y="39.728" width="3.608" height="1.342"/><rect class="cls-70" x="66.014" y="40.304" width="3.608" height="5.163"/></g><path class="cls-4" d="M132.387,13.837l-.054.051-.184-.184v1.2h-.3V13.7l-.183.184-.054-.051-.107-.1.5-.464.5.464Z"/><path class="cls-4" d="M121.034,14.345l-.054-.05-.183.184v-1.2h-.3v1.2l-.184-.184-.054.05-.107.1.5.464.5-.464Z"/><rect class="cls-38" x="78.813" y="116.62" width="28.68" height="7.17"/><rect class="cls-71" x="44.456" y="42.464" width="2.674" height="1.325"/><rect class="cls-71" x="37.898" y="39.743" width="2.674" height="1.325"/><rect class="cls-71" x="37.898" y="45.185" width="2.674" height="1.325"/><path class="cls-65" d="M40.636,39.009h3.754a.065.065,0,0,1,.065.065v8.105a.065.065,0,0,1-.065.065H40.636a.064.064,0,0,1-.064-.064V39.074a.065.065,0,0,1,.065-.065Z"/><path class="cls-72" d="M40.636,39.009H44.39a.065.065,0,0,1,.065.065V47.18a.064.064,0,0,1-.064.064H40.636a.065.065,0,0,1-.065-.065V39.074a.065.065,0,0,1,.065-.065Z"/><rect class="cls-71" x="56.854" y="42.464" width="2.674" height="1.325"/><rect class="cls-71" x="50.296" y="39.743" width="2.674" height="1.325"/><rect class="cls-71" x="50.296" y="45.185" width="2.674" height="1.325"/><path class="cls-65" d="M53.035,39.009h3.754a.065.065,0,0,1,.065.065v8.105a.065.065,0,0,1-.065.065H53.034a.064.064,0,0,1-.064-.064V39.074A.065.065,0,0,1,53.035,39.009Z"/><path class="cls-72" d="M53.035,39.009h3.754a.065.065,0,0,1,.065.065V47.18a.064.064,0,0,1-.064.064H53.035a.065.065,0,0,1-.065-.065V39.074A.065.065,0,0,1,53.035,39.009Z"/><g id="диод-3" data-name="диод"><line class="cls-42" x1="195.108" y1="113.988" x2="195.108" y2="121.48"/><rect class="cls-64" x="189.93" y="116.31" width="6.047" height="2.904" transform="translate(310.716 -75.191) rotate(90)"/><rect class="cls-64" x="176.127" y="116.263" width="6.047" height="2.904" transform="translate(296.865 -61.436) rotate(90)"/><rect class="cls-44" x="182.426" y="112.319" width="7.358" height="10.792" transform="translate(303.82 -68.39) rotate(90)"/><text class="cls-73" transform="translate(189.044 116.722) rotate(180)">SS14</text></g><g id="сглаживающий_конденсатор" data-name="сглаживающий конденсатор"><rect class="cls-64" x="150.619" y="28.04" width="11.917" height="7.188" transform="translate(188.211 -124.943) rotate(90)"/><rect class="cls-64" x="130.675" y="28.04" width="11.917" height="7.188" transform="translate(168.267 -105) rotate(90)"/><rect class="cls-67" x="140.647" y="21.662" width="11.917" height="19.943" transform="translate(178.239 -114.972) rotate(90)"/><rect class="cls-74" x="132.318" y="29.991" width="11.917" height="3.286" transform="translate(169.91 -106.643) rotate(90)"/><text class="cls-75" transform="translate(142.529 32.122)">477 A</text></g><g id="Диод-4" data-name="Диод"><line class="cls-42" x1="103.518" y1="42.248" x2="103.518" y2="49.74"/><rect class="cls-64" x="98.339" y="44.57" width="6.047" height="2.904" transform="translate(147.385 -55.34) rotate(90)"/><rect class="cls-64" x="84.536" y="44.523" width="6.047" height="2.904" transform="translate(133.535 -41.585) rotate(90)"/><rect class="cls-44" x="90.835" y="40.579" width="7.358" height="10.792" transform="translate(140.489 -48.54) rotate(90)"/><text class="cls-73" transform="translate(97.296 44.95) rotate(180)">SS14</text></g><g id="Sim"><rect class="cls-64" x="26.422" y="67.034" width="2.871" height="4.477" transform="translate(97.13 41.415) rotate(90)"/><rect class="cls-64" x="26.422" y="74.193" width="2.871" height="4.477" transform="translate(104.289 48.574) rotate(90)"/><rect class="cls-64" x="26.422" y="81.339" width="2.871" height="4.477" transform="translate(111.435 55.72) rotate(90)"/><rect class="cls-64" x="70.143" y="67.041" width="2.871" height="4.477" transform="translate(140.858 -2.3) rotate(90)"/><rect class="cls-64" x="70.143" y="74.2" width="2.871" height="4.477" transform="translate(148.017 4.859) rotate(90)"/><rect class="cls-64" x="70.143" y="81.346" width="2.871" height="4.477" transform="translate(155.163 12.005) rotate(90)"/><rect class="cls-76" x="69.024" y="68.16" width="2.871" height="2.238" transform="translate(140.919 138.558) rotate(180)"/><rect class="cls-76" x="69.024" y="75.319" width="2.871" height="2.238" transform="translate(140.919 152.876) rotate(180)"/><rect class="cls-76" x="69.024" y="82.465" width="2.871" height="2.238" transform="translate(140.919 167.168) rotate(180)"/><rect class="cls-76" x="28.66" y="68.16" width="2.871" height="2.238" transform="translate(60.191 138.558) rotate(180)"/><rect class="cls-76" x="28.66" y="75.319" width="2.871" height="2.238" transform="translate(60.191 152.876) rotate(180)"/><rect class="cls-76" x="28.66" y="82.465" width="2.871" height="2.238" transform="translate(60.191 167.168) rotate(180)"/><path class="cls-77" d="M29.619,58.786H8.246a2.422,2.422,0,0,0-1.711.708h0a2.422,2.422,0,0,0-.708,1.71V92.786l8.438,8.437H29.619v-.757a2.417,2.417,0,0,1,.186-.931l1.836-4.4a2.421,2.421,0,0,0,.186-.931V65.562a2.422,2.422,0,0,0-.186-.932l-2.022-4.844Z"/><path class="cls-78" d="M76.473,56.357v7.187H70.3a1.026,1.026,0,0,0-1.183,1.193V94.964a1.2,1.2,0,0,0,1.19,1.2h6.164v7.247H26.994V99.126l3.1-1.475V62.036l-3.1-1.541V56.357Z"/><path class="cls-79" d="M31.827,79.691v15l-2.208,5.292v2.683h-.792v1.358H43.66v-1.791h7.334v1.791H65.6v-2.716H76.473V96.223H70.309a1.169,1.169,0,0,1-1.19-1.19V65.054c0-.654.275-1.151.93-1.155l6.424-.028v-5.41H65.6V55.744h-14.6v1.792H43.66V55.744H28.827V57.1h.792v2.684l2.208,5.291v15"/><rect class="cls-80" x="60.702" y="66.442" width="2.813" height="5.563" transform="translate(131.332 7.115) rotate(90)"/><rect class="cls-80" x="60.702" y="73.65" width="2.813" height="5.563" transform="translate(138.54 14.323) rotate(90)"/><rect class="cls-80" x="60.702" y="80.796" width="2.813" height="5.563" transform="translate(145.686 21.469) rotate(90)"/><rect class="cls-80" x="60.702" y="88.004" width="2.813" height="5.563" transform="translate(152.894 28.677) rotate(90)"/><rect class="cls-80" x="38.922" y="66.442" width="2.813" height="5.563" transform="translate(109.552 28.895) rotate(90)"/><rect class="cls-80" x="38.922" y="73.65" width="2.813" height="5.563" transform="translate(116.76 36.103) rotate(90)"/><rect class="cls-80" x="38.922" y="80.796" width="2.813" height="5.563" transform="translate(123.906 43.249) rotate(90)"/><rect class="cls-80" x="38.922" y="88.004" width="2.813" height="5.563" transform="translate(131.114 50.457) rotate(90)"/><text class="cls-81" transform="translate(19.153 82.598) rotate(-90) scale(0.99 1)">SIM</text><rect class="cls-76" x="60.673" y="68.16" width="2.871" height="2.238"/><rect class="cls-76" x="60.673" y="75.319" width="2.871" height="2.238"/><rect class="cls-76" x="60.673" y="82.465" width="2.871" height="2.238"/><rect class="cls-76" x="38.893" y="68.16" width="2.871" height="2.238"/><rect class="cls-76" x="38.893" y="75.319" width="2.871" height="2.238"/><rect class="cls-76" x="38.893" y="82.465" width="2.871" height="2.238"/></g><g id="Катушка_индуктивности" data-name="Катушка индуктивности"><path class="cls-64" d="M130.526,27.306H124.1v9.156h6.427Z"/><path class="cls-64" d="M112.793,36.462h6.427V27.306h-6.427Z"/><polygon class="cls-82" points="129.125 24.982 126.369 24.439 129.126 24.439 129.125 24.439 129.125 24.982"/><polygon class="cls-82" points="129.125 38.774 126.369 39.317 129.126 39.317 129.125 39.317 129.125 38.774"/><polygon class="cls-82" points="114.248 38.774 117.004 39.317 114.247 39.317 114.248 39.317 114.248 38.774"/><polygon class="cls-82" points="114.248 24.982 117.004 24.439 114.247 24.439 114.248 24.439 114.248 24.982"/><path class="cls-83" d="M129.313,38.985v-14.2c0-.736-15.307-.735-15.307,0v14.2C114.006,39.722,129.313,39.721,129.313,38.985Z"/><text class="cls-84" transform="translate(115.68 27.12) rotate(90)">150</text><circle class="cls-85" cx="121.66" cy="31.884" r="0.982"/></g><g id="микрофон"><path class="cls-86" d="M52.2,115.943"/><path class="cls-87" d="M74.766,121.848h0a4.671,4.671,0,0,1-3.224,1.294H54.1l-1.9-1.814V110.67l1.9-1.814H71.542a4.671,4.671,0,0,1,3.224,1.294h0A8.1,8.1,0,0,1,74.766,121.848Z"/><path class="cls-88" d="M67.14,112.371a2.273,2.273,0,0,1,4.546,0"/><path class="cls-88" d="M67.14,113.41h4.546v1.978a2.273,2.273,0,1,1-4.546,0Z"/><path class="cls-87" d="M65.921,113.864v1.327a3.561,3.561,0,0,0,3.492,3.851,3.6,3.6,0,0,0,3.539-3.851v-1.327"/><polyline class="cls-87" points="72.421 121.145 66.421 121.145 69.413 121.145 69.413 119.042"/><line class="cls-89" x1="62.202" y1="117.602" x2="62.202" y2="121.765"/><line class="cls-89" x1="62.202" y1="110.233" x2="62.202" y2="114.396"/><line class="cls-89" x1="64.202" y1="112.315" x2="60.039" y2="112.315"/><path class="cls-90" d="M53.5,123.144H58.03l1.276-1.275v-4.536l-1.276-1.275H53.5l-1.276,1.275v4.536Z"/><rect class="cls-91" x="54.878" y="118.694" width="1.768" height="1.814" transform="translate(-63.839 175.363) rotate(-90)"/><rect class="cls-92" x="55.279" y="119.105" width="0.967" height="0.992" transform="translate(-63.839 175.363) rotate(-90)"/><line class="cls-93" x1="54.855" y1="120.485" x2="55.266" y2="120.084"/><line class="cls-93" x1="55.266" y1="119.118" x2="54.855" y2="118.717"/><line class="cls-93" x1="56.258" y1="119.118" x2="56.669" y2="118.717"/><line class="cls-93" x1="56.258" y1="120.084" x2="56.669" y2="120.485"/><path class="cls-90" d="M53.5,115.94H58.03l1.276-1.275v-4.536l-1.276-1.275H53.5l-1.276,1.275v4.536Z"/><rect class="cls-91" x="54.878" y="111.49" width="1.768" height="1.814" transform="translate(-56.635 168.159) rotate(-90)"/><rect class="cls-92" x="55.279" y="111.901" width="0.967" height="0.992" transform="translate(-56.635 168.159) rotate(-90)"/><line class="cls-93" x1="54.855" y1="113.281" x2="55.266" y2="112.881"/><line class="cls-93" x1="55.266" y1="111.914" x2="54.855" y2="111.513"/><line class="cls-93" x1="56.258" y1="111.914" x2="56.669" y2="111.513"/><line class="cls-93" x1="56.258" y1="112.881" x2="56.669" y2="113.281"/></g><g id="динамик"><path class="cls-87" d="M73.97,143.712h0a4.671,4.671,0,0,1-3.225,1.294H53.307l-1.9-1.814V132.534l1.9-1.814H70.745a4.671,4.671,0,0,1,3.225,1.294h0A8.1,8.1,0,0,1,73.97,143.712Z"/><line class="cls-89" x1="61.405" y1="139.466" x2="61.405" y2="143.629"/><line class="cls-89" x1="61.405" y1="132.097" x2="61.405" y2="136.26"/><line class="cls-89" x1="63.405" y1="134.178" x2="59.242" y2="134.178"/><polygon class="cls-94" points="68.825 137.863 68.825 142.834 65.843 139.09 65.843 137.863 65.843 136.636 68.825 132.892 68.825 137.863"/><path class="cls-94" d="M64.114,136.452h1.729v2.822H64.114l-.161-.567A3.243,3.243,0,0,1,64,136.784Z"/><path class="cls-87" d="M70.249,136.434"/><path class="cls-87" d="M70.249,139.16"/><path class="cls-87" d="M70.249,142.664"/><path class="cls-87" d="M72.343,133.666a5.317,5.317,0,0,1,.046,8.422"/><path class="cls-87" d="M71.189,134.915a3.723,3.723,0,0,1,.031,5.9"/><path class="cls-87" d="M70.372,136.389a1.861,1.861,0,0,1,.016,2.948"/><path class="cls-90" d="M52.7,145.022h4.535l1.276-1.275v-4.536l-1.276-1.275H52.7l-1.276,1.275v4.536Z"/><rect class="cls-91" x="54.082" y="140.572" width="1.768" height="1.814" transform="translate(-86.513 196.444) rotate(-90)"/><rect class="cls-92" x="54.482" y="140.983" width="0.967" height="0.992" transform="translate(-86.513 196.444) rotate(-90)"/><line class="cls-93" x1="54.058" y1="142.363" x2="54.47" y2="141.962"/><line class="cls-93" x1="54.47" y1="140.996" x2="54.058" y2="140.595"/><line class="cls-93" x1="55.462" y1="140.996" x2="55.873" y2="140.595"/><line class="cls-93" x1="55.462" y1="141.962" x2="55.873" y2="142.363"/><path class="cls-90" d="M52.7,137.818h4.535l1.276-1.275v-4.536l-1.276-1.275H52.7l-1.276,1.275v4.536Z"/><rect class="cls-91" x="54.082" y="133.368" width="1.768" height="1.814" transform="translate(-79.309 189.241) rotate(-90)"/><rect class="cls-92" x="54.482" y="133.779" width="0.967" height="0.992" transform="translate(-79.309 189.241) rotate(-90)"/><line class="cls-93" x1="54.058" y1="135.159" x2="54.47" y2="134.758"/><line class="cls-93" x1="54.47" y1="133.792" x2="54.058" y2="133.391"/><line class="cls-93" x1="55.462" y1="133.792" x2="55.873" y2="133.391"/><line class="cls-93" x1="55.462" y1="134.758" x2="55.873" y2="135.159"/></g><g id="A6"><rect class="cls-95" x="148.397" y="62.085" width="1.529" height="1.529" rx="0.764" transform="translate(212.011 -86.311) rotate(90)"/><polygon class="cls-96" points="159.673 98.311 159.673 104.995 95.202 104.995 95.202 57.47 159.673 57.47 159.673 98.311"/><rect class="cls-64" x="158.294" y="62.274" width="2.758" height="6.265" transform="translate(94.266 225.08) rotate(-90)"/><rect class="cls-64" x="158.294" y="66.215" width="2.758" height="6.265" transform="translate(90.325 229.021) rotate(-90)"/><rect class="cls-64" x="158.294" y="70.156" width="2.758" height="6.265" transform="translate(86.384 232.962) rotate(-90)"/><rect class="cls-64" x="158.294" y="74.098" width="2.758" height="6.265" transform="translate(82.442 236.903) rotate(-90)"/><rect class="cls-64" x="158.294" y="78.039" width="2.758" height="6.265" transform="translate(78.501 240.844) rotate(-90)"/><rect class="cls-64" x="158.294" y="81.98" width="2.758" height="6.265" transform="translate(74.56 244.785) rotate(-90)"/><rect class="cls-64" x="158.294" y="85.921" width="2.758" height="6.265" transform="translate(70.619 248.727) rotate(-90)"/><rect class="cls-64" x="158.294" y="89.862" width="2.758" height="6.265" transform="translate(66.678 252.668) rotate(-90)"/><rect class="cls-64" x="158.294" y="93.804" width="2.758" height="6.265" transform="translate(62.736 256.609) rotate(-90)"/><polyline class="cls-97" points="159.673 66.776 157.449 66.776 157.449 64.028 159.673 64.028"/><path class="cls-98" d="M159.673,64.028l-.477.589a1.249,1.249,0,0,0,0,1.57l.477.589"/><polyline class="cls-97" points="159.673 70.722 157.449 70.722 157.449 67.974 159.673 67.974"/><path class="cls-98" d="M159.673,67.974l-.477.589a1.249,1.249,0,0,0,0,1.57l.477.589"/><polyline class="cls-97" points="159.673 74.664 157.449 74.664 157.449 71.915 159.673 71.915"/><path class="cls-98" d="M159.673,71.915l-.477.589a1.249,1.249,0,0,0,0,1.57l.477.59"/><polyline class="cls-97" points="159.673 78.605 157.449 78.605 157.449 75.856 159.673 75.856"/><path class="cls-98" d="M159.673,75.856l-.477.589a1.25,1.25,0,0,0,0,1.571l.477.589"/><polyline class="cls-97" points="159.673 82.607 157.449 82.607 157.449 79.858 159.673 79.858"/><path class="cls-98" d="M159.673,79.858l-.477.589a1.25,1.25,0,0,0,0,1.571l.477.589"/><polyline class="cls-97" points="159.673 86.487 157.449 86.487 157.449 83.738 159.673 83.738"/><path class="cls-98" d="M159.673,83.738l-.477.59a1.249,1.249,0,0,0,0,1.57l.477.589"/><polyline class="cls-97" points="159.673 90.428 157.449 90.428 157.449 87.68 159.673 87.68"/><path class="cls-98" d="M159.673,87.68l-.477.589a1.249,1.249,0,0,0,0,1.57l.477.589"/><polyline class="cls-97" points="159.673 94.369 157.449 94.369 157.449 91.621 159.673 91.621"/><path class="cls-98" d="M159.673,91.621l-.477.589a1.249,1.249,0,0,0,0,1.57l.477.589"/><polyline class="cls-97" points="159.673 98.311 157.449 98.311 157.449 95.562 159.673 95.562"/><path class="cls-98" d="M159.673,95.562l-.477.589a1.249,1.249,0,0,0,0,1.57l.477.59"/><rect class="cls-64" x="143.825" y="54.378" width="2.758" height="6.265"/><rect class="cls-64" x="139.884" y="54.378" width="2.758" height="6.265"/><rect class="cls-64" x="135.943" y="54.378" width="2.758" height="6.265"/><rect class="cls-64" x="132.002" y="54.378" width="2.758" height="6.265"/><rect class="cls-64" x="128.061" y="54.378" width="2.758" height="6.265"/><rect class="cls-64" x="124.12" y="54.378" width="2.758" height="6.265"/><rect class="cls-64" x="120.178" y="54.378" width="2.758" height="6.265"/><rect class="cls-64" x="116.237" y="54.378" width="2.758" height="6.265"/><rect class="cls-64" x="112.296" y="54.378" width="2.758" height="6.265"/><rect class="cls-64" x="108.355" y="54.378" width="2.758" height="6.265"/><rect class="cls-64" x="104.414" y="54.378" width="2.758" height="6.265"/><polyline class="cls-97" points="107.162 57.47 107.162 59.693 104.414 59.693 104.414 57.47"/><path class="cls-98" d="M104.414,57.47l.589.476a1.246,1.246,0,0,0,1.57,0l.589-.476"/><polyline class="cls-97" points="111.108 57.47 111.108 59.693 108.36 59.693 108.36 57.47"/><path class="cls-98" d="M108.36,57.47l.589.476a1.246,1.246,0,0,0,1.57,0l.589-.476"/><polyline class="cls-97" points="115.049 57.47 115.049 59.693 112.301 59.693 112.301 57.47"/><path class="cls-98" d="M112.3,57.47l.589.476a1.246,1.246,0,0,0,1.57,0l.589-.476"/><polyline class="cls-97" points="118.991 57.47 118.991 59.693 116.242 59.693 116.242 57.47"/><path class="cls-98" d="M116.242,57.47l.589.476a1.246,1.246,0,0,0,1.57,0l.59-.476"/><polyline class="cls-97" points="122.992 57.47 122.992 59.693 120.244 59.693 120.244 57.47"/><path class="cls-98" d="M120.244,57.47l.589.476a1.246,1.246,0,0,0,1.57,0l.589-.476"/><polyline class="cls-97" points="126.873 57.47 126.873 59.693 124.124 59.693 124.124 57.47"/><path class="cls-98" d="M124.124,57.47l.589.476a1.248,1.248,0,0,0,1.571,0l.589-.476"/><polyline class="cls-97" points="130.814 57.47 130.814 59.693 128.065 59.693 128.065 57.47"/><path class="cls-98" d="M128.065,57.47l.59.476a1.246,1.246,0,0,0,1.57,0l.589-.476"/><polyline class="cls-97" points="134.755 57.47 134.755 59.693 132.007 59.693 132.007 57.47"/><path class="cls-98" d="M132.007,57.47l.589.476a1.246,1.246,0,0,0,1.57,0l.589-.476"/><polyline class="cls-97" points="138.696 57.47 138.696 59.693 135.948 59.693 135.948 57.47"/><path class="cls-98" d="M135.948,57.47l.589.476a1.246,1.246,0,0,0,1.57,0l.589-.476"/><polyline class="cls-97" points="142.633 57.47 142.633 59.693 139.884 59.693 139.884 57.47"/><path class="cls-98" d="M139.884,57.47l.589.476a1.248,1.248,0,0,0,1.571,0l.589-.476"/><polyline class="cls-97" points="146.574 57.47 146.574 59.693 143.825 59.693 143.825 57.47"/><path class="cls-98" d="M143.825,57.47l.59.476a1.246,1.246,0,0,0,1.57,0l.589-.476"/><rect class="cls-64" x="147.767" y="54.378" width="2.758" height="6.265"/><polyline class="cls-97" points="150.515 57.47 150.515 59.693 147.767 59.693 147.767 57.47"/><path class="cls-98" d="M147.767,57.47l.589.476a1.246,1.246,0,0,0,1.57,0l.589-.476"/><rect class="cls-64" x="108.355" y="101.862" width="2.758" height="6.265" transform="translate(219.468 209.99) rotate(-180)"/><rect class="cls-64" x="112.296" y="101.862" width="2.758" height="6.265" transform="translate(227.35 209.99) rotate(-180)"/><rect class="cls-64" x="116.237" y="101.862" width="2.758" height="6.265" transform="translate(235.232 209.99) rotate(-180)"/><rect class="cls-64" x="120.178" y="101.862" width="2.758" height="6.265" transform="translate(243.115 209.99) rotate(-180)"/><rect class="cls-64" x="124.12" y="101.862" width="2.758" height="6.265" transform="translate(250.997 209.99) rotate(-180)"/><rect class="cls-64" x="128.061" y="101.862" width="2.758" height="6.265" transform="translate(258.879 209.99) rotate(-180)"/><rect class="cls-64" x="132.002" y="101.862" width="2.758" height="6.265" transform="translate(266.762 209.99) rotate(-180)"/><rect class="cls-64" x="135.943" y="101.862" width="2.758" height="6.265" transform="translate(274.644 209.99) rotate(-180)"/><rect class="cls-64" x="139.884" y="101.862" width="2.758" height="6.265" transform="translate(282.527 209.99) rotate(-180)"/><rect class="cls-64" x="143.825" y="101.862" width="2.758" height="6.265" transform="translate(290.409 209.99) rotate(-180)"/><rect class="cls-64" x="147.767" y="101.862" width="2.758" height="6.265" transform="translate(298.291 209.99) rotate(-180)"/><polyline class="cls-97" points="147.776 105.036 147.776 102.812 150.525 102.812 150.525 105.036"/><path class="cls-98" d="M150.525,105.036l-.59-.477a1.249,1.249,0,0,0-1.57,0l-.589.477"/><polyline class="cls-97" points="143.83 105.036 143.83 102.812 146.579 102.812 146.579 105.036"/><path class="cls-98" d="M146.579,105.036l-.589-.477a1.25,1.25,0,0,0-1.571,0l-.589.477"/><polyline class="cls-97" points="139.889 105.036 139.889 102.812 142.638 102.812 142.638 105.036"/><path class="cls-98" d="M142.638,105.036l-.59-.477a1.249,1.249,0,0,0-1.57,0l-.589.477"/><polyline class="cls-97" points="135.948 105.036 135.948 102.812 138.696 102.812 138.696 105.036"/><path class="cls-98" d="M138.7,105.036l-.589-.477a1.249,1.249,0,0,0-1.57,0l-.589.477"/><polyline class="cls-97" points="131.946 105.036 131.946 102.812 134.694 102.812 134.694 105.036"/><path class="cls-98" d="M134.694,105.036l-.589-.477a1.249,1.249,0,0,0-1.57,0l-.589.477"/><polyline class="cls-97" points="128.065 105.036 128.065 102.812 130.814 102.812 130.814 105.036"/><path class="cls-98" d="M130.814,105.036l-.589-.477a1.249,1.249,0,0,0-1.57,0l-.59.477"/><polyline class="cls-97" points="124.124 105.036 124.124 102.812 126.873 102.812 126.873 105.036"/><path class="cls-98" d="M126.873,105.036l-.589-.477a1.25,1.25,0,0,0-1.571,0l-.589.477"/><polyline class="cls-97" points="120.183 105.036 120.183 102.812 122.932 102.812 122.932 105.036"/><path class="cls-98" d="M122.932,105.036l-.589-.477a1.25,1.25,0,0,0-1.571,0l-.589.477"/><polyline class="cls-97" points="116.242 105.036 116.242 102.812 118.991 102.812 118.991 105.036"/><path class="cls-98" d="M118.991,105.036l-.59-.477a1.249,1.249,0,0,0-1.57,0l-.589.477"/><polyline class="cls-97" points="112.305 105.036 112.305 102.812 115.054 102.812 115.054 105.036"/><path class="cls-98" d="M115.054,105.036l-.589-.477a1.25,1.25,0,0,0-1.571,0l-.589.477"/><polyline class="cls-97" points="108.364 105.036 108.364 102.812 111.113 102.812 111.113 105.036"/><path class="cls-98" d="M111.113,105.036l-.589-.477a1.25,1.25,0,0,0-1.571,0l-.589.477"/><rect class="cls-64" x="104.414" y="101.862" width="2.758" height="6.265" transform="translate(211.585 209.99) rotate(-180)"/><polyline class="cls-97" points="104.423 105.036 104.423 102.812 107.172 102.812 107.172 105.036"/><path class="cls-98" d="M107.172,105.036l-.589-.477a1.25,1.25,0,0,0-1.571,0l-.589.477"/><rect class="cls-64" x="93.823" y="93.804" width="2.758" height="6.265" transform="translate(192.138 1.734) rotate(90)"/><rect class="cls-64" x="93.823" y="89.862" width="2.758" height="6.265" transform="translate(188.197 -2.207) rotate(90)"/><rect class="cls-64" x="93.823" y="85.921" width="2.758" height="6.265" transform="translate(184.256 -6.148) rotate(90)"/><rect class="cls-64" x="93.823" y="81.98" width="2.758" height="6.265" transform="translate(180.315 -10.089) rotate(90)"/><rect class="cls-64" x="93.823" y="78.039" width="2.758" height="6.265" transform="translate(176.374 -14.031) rotate(90)"/><rect class="cls-64" x="93.823" y="74.098" width="2.758" height="6.265" transform="translate(172.432 -17.972) rotate(90)"/><rect class="cls-64" x="93.823" y="70.156" width="2.758" height="6.265" transform="translate(168.491 -21.913) rotate(90)"/><rect class="cls-64" x="93.823" y="66.215" width="2.758" height="6.265" transform="translate(164.55 -25.854) rotate(90)"/><rect class="cls-64" x="93.823" y="62.274" width="2.758" height="6.265" transform="translate(160.609 -29.795) rotate(90)"/><polyline class="cls-97" points="95.202 95.567 97.426 95.567 97.426 98.315 95.202 98.315"/><path class="cls-98" d="M95.2,98.315l.477-.589a1.249,1.249,0,0,0,0-1.57l-.477-.589"/><polyline class="cls-97" points="95.202 91.621 97.426 91.621 97.426 94.369 95.202 94.369"/><path class="cls-98" d="M95.2,94.369l.477-.589a1.249,1.249,0,0,0,0-1.57l-.477-.589"/><polyline class="cls-97" points="95.202 87.68 97.426 87.68 97.426 90.428 95.202 90.428"/><path class="cls-98" d="M95.2,90.428l.477-.589a1.249,1.249,0,0,0,0-1.57L95.2,87.68"/><polyline class="cls-97" points="95.202 83.738 97.426 83.738 97.426 86.487 95.202 86.487"/><path class="cls-98" d="M95.2,86.487l.477-.589a1.249,1.249,0,0,0,0-1.57l-.477-.59"/><polyline class="cls-97" points="95.202 79.736 97.426 79.736 97.426 82.485 95.202 82.485"/><path class="cls-98" d="M95.2,82.485l.477-.589a1.249,1.249,0,0,0,0-1.57l-.477-.59"/><polyline class="cls-97" points="95.202 75.856 97.426 75.856 97.426 78.605 95.202 78.605"/><path class="cls-98" d="M95.2,78.605l.477-.589a1.25,1.25,0,0,0,0-1.571l-.477-.589"/><polyline class="cls-97" points="95.202 71.915 97.426 71.915 97.426 74.664 95.202 74.664"/><path class="cls-98" d="M95.2,74.664l.477-.59a1.249,1.249,0,0,0,0-1.57l-.477-.589"/><polyline class="cls-97" points="95.202 67.974 97.426 67.974 97.426 70.722 95.202 70.722"/><path class="cls-98" d="M95.2,70.722l.477-.589a1.249,1.249,0,0,0,0-1.57l-.477-.589"/><polyline class="cls-97" points="95.202 64.033 97.426 64.033 97.426 66.781 95.202 66.781"/><path class="cls-98" d="M95.2,66.781l.477-.589a1.249,1.249,0,0,0,0-1.57l-.477-.589"/><rect class="cls-99" x="106.269" y="51.554" width="42.382" height="59.355" transform="translate(208.691 -46.228) rotate(90)"/><rect class="cls-100" x="107.845" y="52.893" width="39.312" height="56.563" transform="translate(208.675 -46.327) rotate(90)"/><polyline class="cls-101" points="158.39 63.614 158.39 58.764 151.011 58.764"/><text class="cls-102" transform="translate(116.106 72.671)"><tspan xml:space="preserve">		</tspan><tspan class="cls-103" x="12.974" y="0">GSM/GPRS</tspan><tspan x="0" y="10.56" xml:space="preserve">		</tspan><tspan class="cls-103" x="12.974" y="10.56">Quad Band</tspan><tspan x="0" y="15.84" xml:space="preserve">		</tspan><tspan class="cls-103" x="12.974" y="15.84">850/1800</tspan><tspan x="0" y="21.12" xml:space="preserve">		</tspan><tspan class="cls-103" x="12.974" y="21.12">900/1900</tspan></text><text class="cls-104" transform="translate(106.354 93.637)">A6</text><circle class="cls-105" cx="117.648" cy="71.974" r="5.125"/><text class="cls-106" transform="translate(113.653 74.844)">AI</text></g><g id="антенна"><rect class="cls-64" x="181.923" y="92.808" width="3.625" height="1.498" transform="translate(277.292 -90.179) rotate(90)"/><rect class="cls-107" x="183.357" y="93.315" width="1.897" height="0.359" transform="translate(277.799 -90.811) rotate(90)"/><rect class="cls-64" x="187.421" y="94.36" width="1.018" height="5.039" transform="translate(284.809 -91.05) rotate(90)"/><rect class="cls-64" x="187.421" y="87.589" width="1.018" height="5.039" transform="translate(278.038 -97.821) rotate(90)"/><rect class="cls-64" x="190.18" y="92.808" width="3.625" height="1.498" transform="translate(285.549 -98.436) rotate(90)"/><rect class="cls-4" x="184.484" y="90.109" width="6.771" height="6.771" transform="translate(281.364 -94.376) rotate(90)"/><circle class="cls-108" cx="187.827" cy="93.494" r="2.417"/><circle class="cls-109" cx="187.848" cy="93.494" r="0.948"/><rect class="cls-110" x="190.198" y="92.397" width="1.897" height="2.194" transform="translate(284.641 -97.653) rotate(90)"/></g><g id="диод-5" data-name="диод"><line class="cls-42" x1="195.108" y1="103.286" x2="195.108" y2="110.645"/><rect class="cls-64" x="189.93" y="105.561" width="6.047" height="2.904" transform="translate(299.966 -85.94) rotate(90)"/><rect class="cls-64" x="176.127" y="105.513" width="6.047" height="2.904" transform="translate(286.116 -72.185) rotate(90)"/><rect class="cls-44" x="182.426" y="101.569" width="7.358" height="10.792" transform="translate(293.071 -79.14) rotate(90)"/><text class="cls-73" transform="translate(189.06 106.002) rotate(180)">SS14</text></g><g id="dc-dc"><rect class="cls-65" x="93.14" y="24.791" width="10.593" height="13.865" rx="0.139"/><rect class="cls-111" x="93.14" y="24.791" width="10.593" height="13.865" rx="0.139"/><rect class="cls-64" x="87.991" y="25.452" width="5.067" height="1.765"/><rect class="cls-64" x="87.991" y="29.093" width="5.067" height="1.763"/><rect class="cls-64" x="87.991" y="32.732" width="5.067" height="1.763"/><rect class="cls-64" x="87.991" y="36.329" width="5.067" height="1.763"/><rect class="cls-64" x="103.869" y="36.329" width="5.067" height="1.763"/><rect class="cls-64" x="103.869" y="32.688" width="5.067" height="1.765"/><rect class="cls-64" x="103.869" y="29.047" width="5.067" height="1.765"/><rect class="cls-64" x="103.869" y="25.408" width="5.067" height="1.763"/><text class="cls-112" transform="translate(97.768 27.561) rotate(90)">L5973AD</text></g><g id="Переходные_отверстия" data-name="Переходные отверстия" class="cls-113"><circle class="cls-114" cx="101.654" cy="53.045" r="1.007"/><circle class="cls-60" cx="101.654" cy="53.045" r="0.609"/><circle class="cls-114" cx="159.124" cy="100.676" r="1.007"/><circle class="cls-60" cx="159.124" cy="100.676" r="0.609"/></g><g id="конденсатор-9" data-name="конденсатор"><rect class="cls-64" x="35.763" y="49.574" width="1.3" height="3.606"/><rect class="cls-64" x="40.754" y="49.574" width="1.342" height="3.608"/><rect class="cls-70" x="36.358" y="49.574" width="5.163" height="3.608"/></g></g></svg>