<svg id="Layer_1" data-name="Layer 1" xmlns="http://www.w3.org/2000/svg" viewBox="0 0 197.439 151.218"><defs><style>.cls-1{fill:#f9943c;}.cls-1,.cls-2,.cls-3{stroke:#f36540;stroke-width:0.02px;}.cls-1,.cls-11,.cls-12,.cls-13,.cls-14,.cls-16,.cls-17,.cls-2,.cls-20,.cls-21,.cls-24,.cls-25,.cls-26,.cls-27,.cls-3,.cls-6{stroke-miterlimit:10;}.cls-2{fill:#ffae46;}.cls-13,.cls-14,.cls-3{fill:none;}.cls-4{fill:#d0c8bd;}.cls-5{fill:#948c84;}.cls-11,.cls-22,.cls-6,.cls-7,.cls-9{fill:#fff;}.cls-11,.cls-12,.cls-16,.cls-17,.cls-21,.cls-26,.cls-6{stroke:#000;}.cls-6{stroke-width:0.25px;}.cls-7{font-size:17.5px;}.cls-7,.cls-9{font-family:BebasNeueRegular, Bebas Neue;}.cls-8{letter-spacing:-0.01em;}.cls-9{font-size:7px;}.cls-10{fill:#181819;}.cls-11{stroke-width:0.104px;}.cls-12{fill:#ccc3b9;stroke-width:0.095px;}.cls-13,.cls-14{stroke:#676767;}.cls-13{stroke-width:0.992px;}.cls-14{stroke-width:1.001px;}.cls-15{fill:#666;}.cls-16,.cls-17,.cls-18{fill:#4c4c4c;}.cls-16{stroke-width:0.244px;}.cls-17{stroke-width:0.05px;}.cls-19{opacity:0.6;}.cls-20{fill:#e6e6e6;stroke:#f9943c;stroke-width:0.739px;}.cls-21,.cls-24{stroke-width:0.5px;}.cls-22{font-size:4px;font-family:Verdana;}.cls-23,.cls-24{fill:#cdcbca;}.cls-24{stroke:#cdcbca;}.cls-25,.cls-27{stroke:#cfc7bc;}.cls-25{stroke-width:1.443px;}.cls-26{stroke-width:0.976px;}.cls-27{fill:#cfc7bc;stroke-width:0.1px;}</style></defs><g id="bottom"><rect class="cls-1" x="21.032" y="6.073" width="1.134" height="2.098" transform="translate(14.25 28.72) rotate(-90)"/><rect class="cls-2" x="21.39" y="6.409" width="0.425" height="1.417" transform="translate(14.257 28.72) rotate(-90)"/><line class="cls-3" x1="20.322" y1="7.688" x2="20.666" y2="7.331"/><line class="cls-3" x1="20.666" y1="6.905" x2="20.322" y2="6.555"/><line class="cls-3" x1="22.083" y1="6.905" x2="22.42" y2="6.555"/><line class="cls-3" x1="22.083" y1="7.331" x2="22.42" y2="7.688"/><rect class="cls-1" x="13.832" y="6.073" width="1.134" height="2.098" transform="translate(7.05 21.52) rotate(-90)"/><rect class="cls-2" x="14.19" y="6.409" width="0.425" height="1.417" transform="translate(7.057 21.52) rotate(-90)"/><line class="cls-3" x1="13.122" y1="7.688" x2="13.466" y2="7.331"/><line class="cls-3" x1="13.466" y1="6.905" x2="13.122" y2="6.555"/><line class="cls-3" x1="14.883" y1="6.905" x2="15.22" y2="6.555"/><line class="cls-3" x1="14.883" y1="7.331" x2="15.22" y2="7.688"/><rect class="cls-1" x="28.232" y="6.073" width="1.134" height="2.098" transform="translate(21.45 35.92) rotate(-90)"/><rect class="cls-2" x="28.59" y="6.409" width="0.425" height="1.417" transform="translate(21.457 35.92) rotate(-90)"/><line class="cls-3" x1="27.522" y1="7.688" x2="27.866" y2="7.331"/><line class="cls-3" x1="27.866" y1="6.905" x2="27.522" y2="6.555"/><line class="cls-3" x1="29.283" y1="6.905" x2="29.62" y2="6.555"/><line class="cls-3" x1="29.283" y1="7.331" x2="29.62" y2="7.688"/><rect class="cls-1" x="35.435" y="6.069" width="1.134" height="2.098" transform="translate(28.657 43.12) rotate(-90)"/><rect class="cls-2" x="35.793" y="6.406" width="0.425" height="1.417" transform="translate(28.664 43.12) rotate(-90)"/><line class="cls-3" x1="34.726" y1="7.685" x2="35.07" y2="7.327"/><line class="cls-3" x1="35.07" y1="6.902" x2="34.726" y2="6.551"/><line class="cls-3" x1="36.487" y1="6.902" x2="36.824" y2="6.551"/><line class="cls-3" x1="36.487" y1="7.327" x2="36.824" y2="7.685"/><rect class="cls-1" x="42.635" y="6.073" width="1.134" height="2.098" transform="translate(35.853 50.324) rotate(-90)"/><rect class="cls-2" x="42.993" y="6.409" width="0.425" height="1.417" transform="translate(35.86 50.324) rotate(-90)"/><line class="cls-3" x1="41.926" y1="7.688" x2="42.27" y2="7.331"/><line class="cls-3" x1="42.27" y1="6.905" x2="41.926" y2="6.555"/><line class="cls-3" x1="43.687" y1="6.905" x2="44.024" y2="6.555"/><line class="cls-3" x1="43.687" y1="7.331" x2="44.024" y2="7.688"/><rect class="cls-1" x="49.832" y="6.073" width="1.134" height="2.098" transform="translate(43.05 57.52) rotate(-90)"/><rect class="cls-2" x="50.19" y="6.409" width="0.425" height="1.417" transform="translate(43.057 57.52) rotate(-90)"/><line class="cls-3" x1="49.122" y1="7.688" x2="49.466" y2="7.331"/><line class="cls-3" x1="49.466" y1="6.905" x2="49.122" y2="6.555"/><line class="cls-3" x1="50.883" y1="6.905" x2="51.22" y2="6.555"/><line class="cls-3" x1="50.883" y1="7.331" x2="51.22" y2="7.688"/><rect class="cls-1" x="57.032" y="6.073" width="1.134" height="2.098" transform="translate(50.25 64.72) rotate(-90)"/><rect class="cls-2" x="57.39" y="6.409" width="0.425" height="1.417" transform="translate(50.257 64.72) rotate(-90)"/><line class="cls-3" x1="56.322" y1="7.688" x2="56.666" y2="7.331"/><line class="cls-3" x1="56.666" y1="6.905" x2="56.322" y2="6.555"/><line class="cls-3" x1="58.083" y1="6.905" x2="58.42" y2="6.555"/><line class="cls-3" x1="58.083" y1="7.331" x2="58.42" y2="7.688"/><rect class="cls-1" x="64.232" y="6.073" width="1.134" height="2.098" transform="translate(57.45 71.92) rotate(-90)"/><rect class="cls-2" x="64.59" y="6.409" width="0.425" height="1.417" transform="translate(57.457 71.92) rotate(-90)"/><line class="cls-3" x1="63.522" y1="7.688" x2="63.866" y2="7.331"/><line class="cls-3" x1="63.866" y1="6.905" x2="63.522" y2="6.555"/><line class="cls-3" x1="65.283" y1="6.905" x2="65.62" y2="6.555"/><line class="cls-3" x1="65.283" y1="7.331" x2="65.62" y2="7.688"/><rect class="cls-1" x="75.752" y="6.073" width="1.134" height="2.098" transform="translate(68.97 83.44) rotate(-90)"/><rect class="cls-2" x="76.11" y="6.409" width="0.425" height="1.417" transform="translate(68.977 83.44) rotate(-90)"/><line class="cls-3" x1="75.042" y1="7.688" x2="75.386" y2="7.331"/><line class="cls-3" x1="75.386" y1="6.905" x2="75.042" y2="6.555"/><line class="cls-3" x1="76.803" y1="6.905" x2="77.14" y2="6.555"/><line class="cls-3" x1="76.803" y1="7.331" x2="77.14" y2="7.688"/><rect class="cls-1" x="82.952" y="6.073" width="1.134" height="2.098" transform="translate(76.17 90.64) rotate(-90)"/><rect class="cls-2" x="83.31" y="6.409" width="0.425" height="1.417" transform="translate(76.177 90.64) rotate(-90)"/><line class="cls-3" x1="82.242" y1="7.688" x2="82.586" y2="7.331"/><line class="cls-3" x1="82.586" y1="6.905" x2="82.242" y2="6.555"/><line class="cls-3" x1="84.003" y1="6.905" x2="84.34" y2="6.555"/><line class="cls-3" x1="84.003" y1="7.331" x2="84.34" y2="7.688"/><rect class="cls-1" x="90.152" y="6.073" width="1.134" height="2.098" transform="translate(83.37 97.84) rotate(-90)"/><rect class="cls-2" x="90.51" y="6.409" width="0.425" height="1.417" transform="translate(83.377 97.84) rotate(-90)"/><line class="cls-3" x1="89.442" y1="7.688" x2="89.786" y2="7.331"/><line class="cls-3" x1="89.786" y1="6.905" x2="89.442" y2="6.555"/><line class="cls-3" x1="91.203" y1="6.905" x2="91.54" y2="6.555"/><line class="cls-3" x1="91.203" y1="7.331" x2="91.54" y2="7.688"/><rect class="cls-1" x="97.352" y="6.073" width="1.134" height="2.098" transform="translate(90.57 105.04) rotate(-90)"/><rect class="cls-2" x="97.71" y="6.409" width="0.425" height="1.417" transform="translate(90.577 105.04) rotate(-90)"/><line class="cls-3" x1="96.642" y1="7.688" x2="96.986" y2="7.331"/><line class="cls-3" x1="96.986" y1="6.905" x2="96.642" y2="6.555"/><line class="cls-3" x1="98.403" y1="6.905" x2="98.74" y2="6.555"/><line class="cls-3" x1="98.403" y1="7.331" x2="98.74" y2="7.688"/><rect class="cls-1" x="104.552" y="6.073" width="1.134" height="2.098" transform="translate(97.77 112.24) rotate(-90)"/><rect class="cls-2" x="104.91" y="6.409" width="0.425" height="1.417" transform="translate(97.777 112.24) rotate(-90)"/><line class="cls-3" x1="103.842" y1="7.688" x2="104.186" y2="7.331"/><line class="cls-3" x1="104.186" y1="6.905" x2="103.842" y2="6.555"/><line class="cls-3" x1="105.603" y1="6.905" x2="105.94" y2="6.555"/><line class="cls-3" x1="105.603" y1="7.331" x2="105.94" y2="7.688"/><rect class="cls-1" x="111.752" y="6.073" width="1.134" height="2.098" transform="translate(104.97 119.44) rotate(-90)"/><rect class="cls-2" x="112.11" y="6.409" width="0.425" height="1.417" transform="translate(104.977 119.44) rotate(-90)"/><line class="cls-3" x1="111.042" y1="7.688" x2="111.386" y2="7.331"/><line class="cls-3" x1="111.386" y1="6.905" x2="111.042" y2="6.555"/><line class="cls-3" x1="112.803" y1="6.905" x2="113.14" y2="6.555"/><line class="cls-3" x1="112.803" y1="7.331" x2="113.14" y2="7.688"/><rect class="cls-1" x="118.952" y="6.073" width="1.134" height="2.098" transform="translate(112.17 126.64) rotate(-90)"/><rect class="cls-2" x="119.31" y="6.409" width="0.425" height="1.417" transform="translate(112.177 126.64) rotate(-90)"/><line class="cls-3" x1="118.242" y1="7.688" x2="118.586" y2="7.331"/><line class="cls-3" x1="118.586" y1="6.905" x2="118.242" y2="6.555"/><line class="cls-3" x1="120.003" y1="6.905" x2="120.34" y2="6.555"/><line class="cls-3" x1="120.003" y1="7.331" x2="120.34" y2="7.688"/><rect class="cls-1" x="126.155" y="6.073" width="1.134" height="2.098" transform="translate(119.373 133.844) rotate(-90)"/><rect class="cls-2" x="126.513" y="6.409" width="0.425" height="1.417" transform="translate(119.38 133.844) rotate(-90)"/><line class="cls-3" x1="125.446" y1="7.688" x2="125.79" y2="7.331"/><line class="cls-3" x1="125.79" y1="6.905" x2="125.446" y2="6.555"/><line class="cls-3" x1="127.207" y1="6.905" x2="127.544" y2="6.555"/><line class="cls-3" x1="127.207" y1="7.331" x2="127.544" y2="7.688"/><rect class="cls-1" x="133.352" y="6.073" width="1.134" height="2.098" transform="translate(126.57 141.04) rotate(-90)"/><rect class="cls-2" x="133.71" y="6.409" width="0.425" height="1.417" transform="translate(126.577 141.04) rotate(-90)"/><line class="cls-3" x1="132.642" y1="7.688" x2="132.986" y2="7.331"/><line class="cls-3" x1="132.986" y1="6.905" x2="132.642" y2="6.555"/><line class="cls-3" x1="134.403" y1="6.905" x2="134.74" y2="6.555"/><line class="cls-3" x1="134.403" y1="7.331" x2="134.74" y2="7.688"/><rect class="cls-1" x="140.552" y="6.073" width="1.134" height="2.098" transform="translate(133.77 148.24) rotate(-90)"/><rect class="cls-2" x="140.91" y="6.409" width="0.425" height="1.417" transform="translate(133.777 148.24) rotate(-90)"/><line class="cls-3" x1="139.842" y1="7.688" x2="140.186" y2="7.331"/><line class="cls-3" x1="140.186" y1="6.905" x2="139.842" y2="6.555"/><line class="cls-3" x1="141.603" y1="6.905" x2="141.94" y2="6.555"/><line class="cls-3" x1="141.603" y1="7.331" x2="141.94" y2="7.688"/><rect class="cls-1" x="64.235" y="142.843" width="1.134" height="2.098" transform="translate(-79.318 208.695) rotate(-90)"/><rect class="cls-2" x="64.593" y="143.18" width="0.425" height="1.417" transform="translate(-79.31 208.695) rotate(-90)"/><line class="cls-3" x1="63.526" y1="144.459" x2="63.87" y2="144.101"/><line class="cls-3" x1="63.87" y1="143.676" x2="63.526" y2="143.325"/><line class="cls-3" x1="65.287" y1="143.676" x2="65.624" y2="143.325"/><line class="cls-3" x1="65.287" y1="144.101" x2="65.624" y2="144.459"/><rect class="cls-1" x="71.432" y="142.873" width="1.134" height="2.098" transform="translate(-72.15 215.92) rotate(-90)"/><rect class="cls-2" x="71.79" y="143.209" width="0.425" height="1.417" transform="translate(-72.143 215.92) rotate(-90)"/><line class="cls-3" x1="70.722" y1="144.488" x2="71.066" y2="144.131"/><line class="cls-3" x1="71.066" y1="143.705" x2="70.722" y2="143.355"/><line class="cls-3" x1="72.483" y1="143.705" x2="72.82" y2="143.355"/><line class="cls-3" x1="72.483" y1="144.131" x2="72.82" y2="144.488"/><rect class="cls-1" x="78.632" y="142.873" width="1.134" height="2.098" transform="translate(-64.95 223.12) rotate(-90)"/><rect class="cls-2" x="78.99" y="143.209" width="0.425" height="1.417" transform="translate(-64.943 223.12) rotate(-90)"/><line class="cls-3" x1="77.922" y1="144.488" x2="78.266" y2="144.131"/><line class="cls-3" x1="78.266" y1="143.705" x2="77.922" y2="143.355"/><line class="cls-3" x1="79.683" y1="143.705" x2="80.02" y2="143.355"/><line class="cls-3" x1="79.683" y1="144.131" x2="80.02" y2="144.488"/><rect class="cls-1" x="85.832" y="142.873" width="1.134" height="2.098" transform="translate(-57.75 230.32) rotate(-90)"/><rect class="cls-2" x="86.19" y="143.209" width="0.425" height="1.417" transform="translate(-57.743 230.32) rotate(-90)"/><line class="cls-3" x1="85.122" y1="144.488" x2="85.466" y2="144.131"/><line class="cls-3" x1="85.466" y1="143.705" x2="85.122" y2="143.355"/><line class="cls-3" x1="86.883" y1="143.705" x2="87.22" y2="143.355"/><line class="cls-3" x1="86.883" y1="144.131" x2="87.22" y2="144.488"/><rect class="cls-1" x="93.032" y="142.873" width="1.134" height="2.098" transform="translate(-50.55 237.52) rotate(-90)"/><rect class="cls-2" x="93.39" y="143.209" width="0.425" height="1.417" transform="translate(-50.543 237.52) rotate(-90)"/><line class="cls-3" x1="92.322" y1="144.488" x2="92.666" y2="144.131"/><line class="cls-3" x1="92.666" y1="143.705" x2="92.322" y2="143.355"/><line class="cls-3" x1="94.083" y1="143.705" x2="94.42" y2="143.355"/><line class="cls-3" x1="94.083" y1="144.131" x2="94.42" y2="144.488"/><rect class="cls-1" x="100.232" y="142.873" width="1.134" height="2.098" transform="translate(-43.35 244.72) rotate(-90)"/><rect class="cls-2" x="100.59" y="143.209" width="0.425" height="1.417" transform="translate(-43.343 244.72) rotate(-90)"/><line class="cls-3" x1="99.522" y1="144.488" x2="99.866" y2="144.131"/><line class="cls-3" x1="99.866" y1="143.705" x2="99.522" y2="143.355"/><line class="cls-3" x1="101.283" y1="143.705" x2="101.62" y2="143.355"/><line class="cls-3" x1="101.283" y1="144.131" x2="101.62" y2="144.488"/><rect class="cls-1" x="107.432" y="142.873" width="1.134" height="2.098" transform="translate(-36.15 251.92) rotate(-90)"/><rect class="cls-2" x="107.79" y="143.209" width="0.425" height="1.417" transform="translate(-36.143 251.92) rotate(-90)"/><line class="cls-3" x1="106.722" y1="144.488" x2="107.066" y2="144.131"/><line class="cls-3" x1="107.066" y1="143.705" x2="106.722" y2="143.355"/><line class="cls-3" x1="108.483" y1="143.705" x2="108.82" y2="143.355"/><line class="cls-3" x1="108.483" y1="144.131" x2="108.82" y2="144.488"/><rect class="cls-1" x="114.632" y="142.873" width="1.134" height="2.098" transform="translate(-28.95 259.12) rotate(-90)"/><rect class="cls-2" x="114.99" y="143.209" width="0.425" height="1.417" transform="translate(-28.943 259.12) rotate(-90)"/><line class="cls-3" x1="113.922" y1="144.488" x2="114.266" y2="144.131"/><line class="cls-3" x1="114.266" y1="143.705" x2="113.922" y2="143.355"/><line class="cls-3" x1="115.683" y1="143.705" x2="116.02" y2="143.355"/><line class="cls-3" x1="115.683" y1="144.131" x2="116.02" y2="144.488"/><rect class="cls-1" x="49.835" y="142.869" width="1.134" height="2.098" transform="translate(-93.743 194.32) rotate(-90)"/><rect class="cls-2" x="50.193" y="143.206" width="0.425" height="1.417" transform="translate(-93.736 194.32) rotate(-90)"/><line class="cls-3" x1="49.126" y1="144.485" x2="49.47" y2="144.127"/><line class="cls-3" x1="49.47" y1="143.702" x2="49.126" y2="143.351"/><line class="cls-3" x1="50.887" y1="143.702" x2="51.224" y2="143.351"/><line class="cls-3" x1="50.887" y1="144.127" x2="51.224" y2="144.485"/><rect class="cls-1" x="42.632" y="142.873" width="1.134" height="2.098" transform="translate(-100.95 187.12) rotate(-90)"/><rect class="cls-2" x="42.99" y="143.209" width="0.425" height="1.417" transform="translate(-100.943 187.12) rotate(-90)"/><line class="cls-3" x1="41.922" y1="144.488" x2="42.266" y2="144.131"/><line class="cls-3" x1="42.266" y1="143.705" x2="41.922" y2="143.355"/><line class="cls-3" x1="43.683" y1="143.705" x2="44.02" y2="143.355"/><line class="cls-3" x1="43.683" y1="144.131" x2="44.02" y2="144.488"/><rect class="cls-1" x="35.432" y="142.873" width="1.134" height="2.098" transform="translate(-108.15 179.92) rotate(-90)"/><rect class="cls-2" x="35.79" y="143.209" width="0.425" height="1.417" transform="translate(-108.143 179.92) rotate(-90)"/><line class="cls-3" x1="34.722" y1="144.488" x2="35.066" y2="144.131"/><line class="cls-3" x1="35.066" y1="143.705" x2="34.722" y2="143.355"/><line class="cls-3" x1="36.483" y1="143.705" x2="36.82" y2="143.355"/><line class="cls-3" x1="36.483" y1="144.131" x2="36.82" y2="144.488"/><rect class="cls-1" x="28.232" y="142.873" width="1.134" height="2.098" transform="translate(-115.35 172.72) rotate(-90)"/><rect class="cls-2" x="28.59" y="143.209" width="0.425" height="1.417" transform="translate(-115.343 172.72) rotate(-90)"/><line class="cls-3" x1="27.522" y1="144.488" x2="27.866" y2="144.131"/><line class="cls-3" x1="27.866" y1="143.705" x2="27.522" y2="143.355"/><line class="cls-3" x1="29.283" y1="143.705" x2="29.62" y2="143.355"/><line class="cls-3" x1="29.283" y1="144.131" x2="29.62" y2="144.488"/><rect class="cls-1" x="21.035" y="142.869" width="1.134" height="2.098" transform="translate(-122.543 165.52) rotate(-90)"/><rect class="cls-2" x="21.393" y="143.206" width="0.425" height="1.417" transform="translate(-122.536 165.52) rotate(-90)"/><line class="cls-3" x1="20.326" y1="144.485" x2="20.67" y2="144.127"/><line class="cls-3" x1="20.67" y1="143.702" x2="20.326" y2="143.351"/><line class="cls-3" x1="22.087" y1="143.702" x2="22.424" y2="143.351"/><line class="cls-3" x1="22.087" y1="144.127" x2="22.424" y2="144.485"/><rect class="cls-1" x="13.832" y="142.873" width="1.134" height="2.098" transform="translate(-129.75 158.32) rotate(-90)"/><rect class="cls-2" x="14.19" y="143.209" width="0.425" height="1.417" transform="translate(-129.743 158.32) rotate(-90)"/><line class="cls-3" x1="13.122" y1="144.488" x2="13.466" y2="144.131"/><line class="cls-3" x1="13.466" y1="143.705" x2="13.122" y2="143.355"/><line class="cls-3" x1="14.883" y1="143.705" x2="15.22" y2="143.355"/><line class="cls-3" x1="14.883" y1="144.131" x2="15.22" y2="144.488"/><path class="cls-4" d="M141.9,141.644a2.241,2.241,0,1,1-2.223,2.239A2.23,2.23,0,0,1,141.9,141.644Z" transform="translate(-0.228 0)"/><ellipse class="cls-5" cx="141.671" cy="143.884" rx="1.519" ry="1.532"/><path class="cls-4" d="M141.9,134.44a2.241,2.241,0,1,1-2.223,2.24A2.231,2.231,0,0,1,141.9,134.44Z" transform="translate(-0.228 0)"/><ellipse class="cls-5" cx="141.671" cy="136.681" rx="1.519" ry="1.532"/><path class="cls-4" d="M141.932,118.344a2.241,2.241,0,1,1-2.222,2.24A2.231,2.231,0,0,1,141.932,118.344Z" transform="translate(-0.228 0)"/><ellipse class="cls-5" cx="141.705" cy="120.585" rx="1.519" ry="1.532"/><path class="cls-4" d="M141.932,111.129a2.241,2.241,0,1,1-2.222,2.24A2.231,2.231,0,0,1,141.932,111.129Z" transform="translate(-0.228 0)"/><ellipse class="cls-5" cx="141.705" cy="113.37" rx="1.519" ry="1.532"/><polygon class="cls-6" points="65.539 69.691 62.133 69.691 62.133 79.16 76.602 79.16 76.602 74.847 73.508 74.847 73.508 77.566 67.32 77.566 67.32 74.847 65.602 74.847 65.539 69.691"/><polygon class="cls-6" points="65.539 68.128 62.133 68.128 62.133 58.597 92.57 58.597 92.57 68.128 89.076 68.128 89.076 62.962 80.394 62.939 80.394 60.221 74.289 60.221 74.289 62.939 65.539 62.939 65.539 68.128"/><polygon class="cls-6" points="78.102 74.847 78.102 79.16 92.57 79.16 92.57 69.691 89.076 69.691 89.076 74.847 87.32 74.847 87.32 77.535 81.195 77.566 81.195 74.847 78.102 74.847"/><rect class="cls-6" x="68.464" y="73.904" width="3.812" height="2.435"/><rect class="cls-6" x="75.417" y="61.398" width="3.824" height="2.447"/><rect class="cls-6" x="82.367" y="73.91" width="3.859" height="2.438"/><text class="cls-7" transform="translate(95.321 70.68) scale(1.01 1)">IARDUIN<tspan class="cls-8" x="40.669" y="0">O</tspan><tspan x="47.301" y="0">.RU</tspan></text><text class="cls-9" transform="translate(95.778 79.16) scale(1.074 1)">всё для радиолюбителей</text><g id="arduino-shield"><path id="arduino-shield-2" class="cls-10" d="M.228,43.926v92.89l7.2,7.2V151.2c.009,0,187.027.022,187.022.019L194.448,0,11.738.026l-4.3,4.3v32.4Zm11.72,6.48a4.5,4.5,0,0,1-4.5,4.46l.01-.02a4.488,4.488,0,0,1-4.45-4.49h0a4.462,4.462,0,0,1,4.45-4.45h.01a4.493,4.493,0,0,1,4.48,4.48Zm138.57,93.65a4.48,4.48,0,0,1,4.48-4.48h.22a4.4,4.4,0,0,1,4.3,4.39v.11a4.475,4.475,0,0,1-4.5,4.44l-.04.02a4.488,4.488,0,0,1-4.46-4.48Zm-3.6-136.75a4.513,4.513,0,0,1,4.5-4.5h.09a4.423,4.423,0,0,1,4.41,4.41v.07a4.475,4.475,0,0,1-4.5,4.44s-4.456-.641-4.5-4.4Zm-31.75,111.16a1.841,1.841,0,1,1-1.29,2.27A1.834,1.834,0,0,1,115.168,118.466Zm-7.2,0a1.843,1.843,0,1,1-1.28,2.27A1.844,1.844,0,0,1,107.968,118.466Zm-7.12,0a1.843,1.843,0,1,1-1.28,2.27A1.844,1.844,0,0,1,100.848,118.466Zm-7.17,0a1.843,1.843,0,1,1-1.28,2.27A1.844,1.844,0,0,1,93.678,118.466Zm-90.73,11.19a4.513,4.513,0,0,1,4.5-4.5h.16a4.353,4.353,0,0,1,4.34,4.34v.12a4.513,4.513,0,0,1-4.5,4.5h-.06a4.466,4.466,0,0,1-4.44-4.46ZM5.927,80.684a.028.028,0,0,1,.028.028.029.029,0,0,1-.028.028.028.028,0,0,1-.028-.028A.027.027,0,0,1,5.927,80.684Z" transform="translate(-0.228 0)"/></g><g id="разъем"><path class="cls-11" d="M6.944,65.709a1.085,1.085,0,1,1,1.084-1.084A1.084,1.084,0,0,1,6.944,65.709Z" transform="translate(-0.228 0)"/><path class="cls-12" d="M6.944,66.805a2.168,2.168,0,1,0-2.168-2.168A2.168,2.168,0,0,0,6.944,66.805Zm0-1.084a1.084,1.084,0,1,1,1.084-1.084A1.084,1.084,0,0,1,6.944,65.721Z" transform="translate(-0.228 0)"/><path class="cls-11" d="M6.944,72.956a1.084,1.084,0,1,1,1.084-1.084A1.084,1.084,0,0,1,6.944,72.956Z" transform="translate(-0.228 0)"/><path class="cls-12" d="M6.944,74.028a2.169,2.169,0,1,0-2.168-2.169A2.169,2.169,0,0,0,6.944,74.028Zm0-1.084a1.085,1.085,0,1,1,1.084-1.085A1.084,1.084,0,0,1,6.944,72.944Z" transform="translate(-0.228 0)"/><path class="cls-11" d="M6.944,80.128a1.084,1.084,0,1,1,1.084-1.084A1.084,1.084,0,0,1,6.944,80.128Z" transform="translate(-0.228 0)"/><path class="cls-12" d="M6.95,81.219A2.169,2.169,0,1,0,4.782,79.05,2.169,2.169,0,0,0,6.95,81.219Zm0-1.085A1.084,1.084,0,1,1,8.035,79.05,1.084,1.084,0,0,1,6.95,80.134Z" transform="translate(-0.228 0)"/><path class="cls-11" d="M14.118,65.709A1.085,1.085,0,1,1,15.2,64.625,1.084,1.084,0,0,1,14.118,65.709Z" transform="translate(-0.228 0)"/><path class="cls-12" d="M14.105,66.818a2.169,2.169,0,1,0-2.168-2.169A2.169,2.169,0,0,0,14.105,66.818Zm0-1.084a1.085,1.085,0,1,1,1.085-1.085A1.085,1.085,0,0,1,14.105,65.734Z" transform="translate(-0.228 0)"/><path class="cls-11" d="M14.118,72.956A1.084,1.084,0,1,1,15.2,71.872,1.084,1.084,0,0,1,14.118,72.956Z" transform="translate(-0.228 0)"/><path class="cls-12" d="M14.118,74.053a2.169,2.169,0,1,0-2.169-2.169A2.169,2.169,0,0,0,14.118,74.053Zm0-1.084A1.085,1.085,0,1,1,15.2,71.884,1.084,1.084,0,0,1,14.118,72.969Z" transform="translate(-0.228 0)"/><path class="cls-11" d="M14.118,80.128A1.084,1.084,0,1,1,15.2,79.044,1.084,1.084,0,0,1,14.118,80.128Z" transform="translate(-0.228 0)"/><path class="cls-12" d="M14.118,81.212a2.169,2.169,0,1,0-2.169-2.168A2.168,2.168,0,0,0,14.118,81.212Zm0-1.084A1.084,1.084,0,1,1,15.2,79.044,1.084,1.084,0,0,1,14.118,80.128Z" transform="translate(-0.228 0)"/></g><circle class="cls-13" cx="154.81" cy="144.046" r="4.5"/><circle class="cls-14" cx="7.266" cy="129.646" r="4.5"/><circle class="cls-14" cx="7.266" cy="50.401" r="4.5"/><circle class="cls-14" cx="151.216" cy="7.059" r="4.5"/><g id="Разъём"><g id="AUX"><polygon class="cls-15" points="194.724 130.916 194.724 113.666 193.22 113.666 193.22 130.916 193.426 130.916 194.724 130.916"/><path class="cls-16" d="M191.094,120.994H201.4a.283.283,0,0,1,.283.283v2.31a0,0,0,0,1,0,0H190.81a0,0,0,0,1,0,0v-2.31a.283.283,0,0,1,.283-.283Z" transform="translate(318.311 -73.957) rotate(90)"/><rect class="cls-17" x="188.762" y="121.539" width="10.875" height="1.504" transform="translate(316.262 -71.908) rotate(90)"/></g><g id="Колодка_прав-верх" data-name="Колодка прав-верх"><rect class="cls-18" x="10.575" y="3.518" width="7.2" height="7.2" rx="3.6"/><rect class="cls-18" x="17.775" y="3.518" width="7.2" height="7.2" rx="3.6"/><rect class="cls-18" x="24.975" y="3.518" width="7.2" height="7.2" rx="3.6"/><rect class="cls-18" x="32.175" y="3.518" width="7.2" height="7.2" rx="3.6"/><rect class="cls-18" x="39.375" y="3.518" width="7.2" height="7.2" rx="3.6"/><rect class="cls-18" x="46.575" y="3.518" width="7.2" height="7.2" rx="3.6"/><rect class="cls-18" x="53.775" y="3.518" width="7.2" height="7.2" rx="3.6"/><rect class="cls-18" x="60.975" y="3.518" width="7.2" height="7.2" rx="3.6"/></g></g><g id="Колодка_прав-ниж" data-name="Колодка прав-ниж"><rect class="cls-18" x="72.495" y="3.518" width="7.2" height="7.2" rx="3.6"/><rect class="cls-18" x="79.695" y="3.518" width="7.2" height="7.2" rx="3.6"/><rect class="cls-18" x="86.895" y="3.518" width="7.2" height="7.2" rx="3.6"/><rect class="cls-18" x="94.095" y="3.518" width="7.2" height="7.2" rx="3.6"/><rect class="cls-18" x="101.295" y="3.518" width="7.2" height="7.2" rx="3.6"/><rect class="cls-18" x="108.495" y="3.518" width="7.2" height="7.2" rx="3.6"/><rect class="cls-18" x="115.695" y="3.518" width="7.2" height="7.2" rx="3.6"/><rect class="cls-18" x="122.895" y="3.518" width="7.2" height="7.2" rx="3.6"/><rect class="cls-18" x="130.095" y="3.518" width="7.2" height="7.2" rx="3.6"/><rect class="cls-18" x="137.295" y="3.518" width="7.2" height="7.2" rx="3.6"/></g><g id="Колодка_лев-верх" data-name="Колодка лев-верх"><rect class="cls-18" x="10.575" y="140.318" width="7.2" height="7.2" rx="3.6"/><rect class="cls-18" x="17.775" y="140.318" width="7.2" height="7.2" rx="3.6"/><rect class="cls-18" x="24.975" y="140.318" width="7.2" height="7.2" rx="3.6"/><rect class="cls-18" x="32.175" y="140.318" width="7.2" height="7.2" rx="3.6"/><rect class="cls-18" x="39.375" y="140.318" width="7.2" height="7.2" rx="3.6"/><rect class="cls-18" x="46.575" y="140.318" width="7.2" height="7.2" rx="3.6"/></g><g id="Колодка_лев-ниж" data-name="Колодка лев-ниж"><rect class="cls-18" x="60.975" y="140.318" width="7.2" height="7.2" rx="3.6"/><rect class="cls-18" x="68.175" y="140.318" width="7.2" height="7.2" rx="3.6"/><rect class="cls-18" x="75.375" y="140.318" width="7.2" height="7.2" rx="3.6"/><rect class="cls-18" x="82.575" y="140.318" width="7.2" height="7.2" rx="3.6"/><rect class="cls-18" x="89.775" y="140.318" width="7.2" height="7.2" rx="3.6"/><rect class="cls-18" x="96.975" y="140.318" width="7.2" height="7.2" rx="3.6"/><rect class="cls-18" x="104.175" y="140.318" width="7.2" height="7.2" rx="3.6"/><rect class="cls-18" x="111.375" y="140.318" width="7.2" height="7.2" rx="3.6"/></g><g id="Переходные_отверстия" data-name="Переходные отверстия" class="cls-19"><circle class="cls-20" cx="96.872" cy="54.084" r="1.007"/><circle class="cls-21" cx="96.872" cy="54.084" r="0.609"/><circle class="cls-20" cx="172.256" cy="37.95" r="1.007"/><circle class="cls-21" cx="172.256" cy="37.95" r="0.609"/><circle class="cls-20" cx="164.198" cy="29.035" r="1.007"/><circle class="cls-21" cx="164.198" cy="29.035" r="0.609"/><circle class="cls-20" cx="164.198" cy="25.439" r="1.007"/><circle class="cls-21" cx="164.198" cy="25.439" r="0.609"/><circle class="cls-20" cx="39.402" cy="101.715" r="1.007"/><circle class="cls-21" cx="39.402" cy="101.715" r="0.609"/></g><g id="Контакты"><text class="cls-22" transform="translate(44.159 111.658) scale(0.991 1)">JP ANT</text><path class="cls-23" d="M37.213,113.524V110.6h4.833v2.925a2.418,2.418,0,0,1-4.833,0Z" transform="translate(-0.228 0)"/><path class="cls-23" d="M42.046,106.986v2.841H37.213v-2.841a2.422,2.422,0,0,1,4.833,0Z" transform="translate(-0.228 0)"/><line class="cls-24" x1="39.402" y1="107.453" x2="39.402" y2="113.124"/></g><g id="Контакты-2" data-name="Контакты"><text class="cls-22" transform="translate(101.655 37.951) scale(0.991 1)">JP OFF</text><path class="cls-23" d="M94.683,39.735V36.809h4.833v2.926a2.418,2.418,0,0,1-4.833,0Z" transform="translate(-0.228 0)"/><path class="cls-23" d="M99.516,33.2v2.842H94.683V33.2a2.422,2.422,0,0,1,4.833,0Z" transform="translate(-0.228 0)"/><line class="cls-24" x1="96.872" y1="33.664" x2="96.872" y2="39.334"/></g><g id="прошивка"><circle class="cls-25" cx="179.602" cy="20.941" r="1.966"/><circle class="cls-26" cx="179.602" cy="20.941" r="1.188"/><circle class="cls-25" cx="179.633" cy="29.48" r="1.966"/><circle class="cls-26" cx="179.633" cy="29.48" r="1.188"/></g><rect class="cls-18" x="139.615" y="134.834" width="4.163" height="4.163" rx="2.082"/><rect class="cls-1" x="141.177" y="135.867" width="1.134" height="2.098"/><rect class="cls-2" x="141.535" y="136.21" width="0.425" height="1.417"/><line class="cls-3" x1="141.177" y1="135.867" x2="141.535" y2="136.21"/><line class="cls-3" x1="141.96" y1="136.21" x2="142.311" y2="135.867"/><line class="cls-3" x1="141.96" y1="137.628" x2="142.311" y2="137.964"/><line class="cls-3" x1="141.535" y1="137.628" x2="141.177" y2="137.964"/><g id="прошивка-2" data-name="прошивка"><path class="cls-27" d="M91.512,120.314a2.68,2.68,0,1,0,2.679-2.68A2.679,2.679,0,0,0,91.512,120.314Zm4.451,0a1.772,1.772,0,1,1-1.772-1.772A1.772,1.772,0,0,1,95.963,120.314Z" transform="translate(-0.228 0)"/><path class="cls-27" d="M98.683,120.314a2.68,2.68,0,1,0,2.68-2.68A2.68,2.68,0,0,0,98.683,120.314Zm4.452,0a1.772,1.772,0,1,1-1.772-1.772A1.772,1.772,0,0,1,103.135,120.314Z" transform="translate(-0.228 0)"/><path class="cls-27" d="M105.847,120.314a2.68,2.68,0,1,0,2.68-2.68A2.68,2.68,0,0,0,105.847,120.314Zm4.451,0a1.772,1.772,0,1,1-1.771-1.772A1.771,1.771,0,0,1,110.3,120.314Z" transform="translate(-0.228 0)"/><path class="cls-27" d="M113.011,120.314a2.68,2.68,0,1,0,2.679-2.68A2.679,2.679,0,0,0,113.011,120.314Zm4.451,0a1.772,1.772,0,1,1-1.772-1.772A1.772,1.772,0,0,1,117.462,120.314Z" transform="translate(-0.228 0)"/></g></g></svg>