<svg xmlns="http://www.w3.org/2000/svg" xmlns:xlink="http://www.w3.org/1999/xlink" viewBox="0 0 97.512 89.858"><defs><style>.cls-1{fill:#316a2a;}.cls-2,.cls-28,.cls-3,.cls-38,.cls-40,.cls-43{fill:none;}.cls-3{stroke:#8c8c8c;}.cls-3,.cls-38,.cls-43{stroke-linecap:round;}.cls-14,.cls-15,.cls-16,.cls-3,.cls-4{stroke-width:2.095px;}.cls-4{fill:url(#linear-gradient);stroke:url(#linear-gradient-2);}.cls-5{fill:#d9b477;}.cls-6{fill:#824934;}.cls-7{fill:#006838;}.cls-8{opacity:0.3;}.cls-11,.cls-12,.cls-13,.cls-37,.cls-39,.cls-8,.cls-9{isolation:isolate;}.cls-13,.cls-29,.cls-39,.cls-9{fill:#fff;}.cls-9{opacity:0.35;}.cls-10{fill:#ad9f4e;}.cls-11{opacity:0.4;}.cls-12{fill:#ff3;}.cls-12,.cls-13,.cls-34{opacity:0.5;}.cls-14{fill:url(#linear-gradient-3);stroke:url(#linear-gradient-4);}.cls-15{fill:url(#linear-gradient-5);stroke:url(#linear-gradient-6);}.cls-16{fill:url(#linear-gradient-7);stroke:url(#linear-gradient-8);}.cls-17{fill:#f2efed;}.cls-18{fill:#ebe7de;}.cls-19{fill:#c6c4c2;}.cls-20{fill:#8c8663;}.cls-21{fill:#b8af82;}.cls-22{fill:#5e5b43;}.cls-23{fill:#9a916c;}.cls-24{fill:#313131;}.cls-25{fill:#0d0e0f;}.cls-26{fill:#e39344;stroke:#666566;stroke-width:0.023px;}.cls-26,.cls-27,.cls-28,.cls-40{stroke-miterlimit:10;}.cls-27{fill:#ebad4f;stroke:#b3b3b3;stroke-width:0.025px;}.cls-28{stroke:gray;stroke-width:0.011px;}.cls-30{fill:#1e1e1e;}.cls-31{fill:#070707;}.cls-32{fill:#c3c2bc;}.cls-33{fill:#4c4c4c;}.cls-34{fill:#2f2f2f;}.cls-35{fill:#66645e;}.cls-36{fill:#666;}.cls-37{fill:#d1cecb;}.cls-37,.cls-40{stroke:#fff;}.cls-37,.cls-38,.cls-40{stroke-width:0.283px;}.cls-38,.cls-39{stroke:#ccc;}.cls-39{stroke-width:0.142px;opacity:0.6;}.cls-41{fill:#dcd4c8;}.cls-42{fill:#a49788;}.cls-43{stroke-width:2.095px;stroke:url(#linear-gradient-9);}.cls-44{fill:url(#radial-gradient);}</style><linearGradient id="linear-gradient" x1="58.973" y1="72.201" x2="58.973" y2="72.201" gradientUnits="userSpaceOnUse"><stop offset="0" stop-color="#fff"/><stop offset="1"/></linearGradient><linearGradient id="linear-gradient-2" x1="58.973" y1="80.6" x2="58.973" y2="63.801" gradientUnits="userSpaceOnUse"><stop offset="0.034" stop-color="#999"/><stop offset="0.559"/><stop offset="1" stop-color="#999"/></linearGradient><linearGradient id="linear-gradient-3" x1="66.855" y1="72.201" x2="66.855" y2="72.201" xlink:href="#linear-gradient"/><linearGradient id="linear-gradient-4" x1="66.855" y1="80.6" x2="66.855" y2="63.801" xlink:href="#linear-gradient-2"/><linearGradient id="linear-gradient-5" x1="74.737" y1="72.201" x2="74.737" y2="72.201" gradientTransform="matrix(1, 0, 0, -1, 0, 144.661)" xlink:href="#linear-gradient"/><linearGradient id="linear-gradient-6" x1="74.737" y1="80.6" x2="74.737" y2="63.801" gradientTransform="matrix(1, 0, 0, -1, 0, 144.661)" xlink:href="#linear-gradient-2"/><linearGradient id="linear-gradient-7" x1="82.619" y1="72.201" x2="82.619" y2="72.201" gradientTransform="matrix(1, 0, 0, -1, 0, 144.661)" xlink:href="#linear-gradient"/><linearGradient id="linear-gradient-8" x1="82.619" y1="80.6" x2="82.619" y2="63.801" gradientTransform="matrix(1, 0, 0, -1, 0, 144.661)" xlink:href="#linear-gradient-2"/><linearGradient id="linear-gradient-9" x1="62.931" y1="37.31" x2="62.931" y2="20.153" gradientTransform="translate(11.549 128.045) rotate(-90)" xlink:href="#linear-gradient-2"/><radialGradient id="radial-gradient" cx="40.206" cy="65.641" r="7.005" gradientTransform="translate(-0.187 32.197) scale(1 0.501)" gradientUnits="userSpaceOnUse"><stop offset="0.089" stop-color="#d4892e"/><stop offset="0.34" stop-color="#d88e29"/><stop offset="0.634" stop-color="#e59c1b"/><stop offset="0.948" stop-color="#fbb305"/><stop offset="1" stop-color="#ffb800"/></radialGradient></defs><g id="_1579" data-name="1579"><path class="cls-1" d="M.187,0V89.858H97.7V0ZM6.569,87.506a4.536,4.536,0,1,1,4.536-4.535A4.535,4.535,0,0,1,6.569,87.506Zm0-76.083a4.536,4.536,0,1,1,4.536-4.535A4.535,4.535,0,0,1,6.569,11.423ZM91.316,87.506a4.536,4.536,0,1,1,4.536-4.535A4.535,4.535,0,0,1,91.316,87.506Zm0-76.083a4.536,4.536,0,1,1,4.536-4.535A4.535,4.535,0,0,1,91.316,11.423Z" transform="translate(-0.187)"/><g id="breadboard"><rect id="connector0pin" class="cls-2" x="58.98" y="63.394" width="0.426" height="0.426"/><rect id="connector1pin" class="cls-2" x="58.98" y="80.84" width="0.426" height="0.426"/><line id="connector0leg" class="cls-3" x1="58.786" y1="63.801" x2="58.786" y2="64.421"/><line id="connector1leg" class="cls-3" x1="58.786" y1="80.86" x2="58.786" y2="80.239"/><path class="cls-4" d="M58.973,63.8V80.6" transform="translate(-0.187)"/><path id="body" class="cls-5" d="M60.831,69.249a2.32,2.32,0,0,0,.175-.814V67.258a.428.428,0,0,0-.427-.426H57.407a.427.427,0,0,0-.426.426v1.177a2.412,2.412,0,0,0,.175.814l.021.043a2.325,2.325,0,0,1,.175.815v4.255a2.412,2.412,0,0,1-.175.814l-.021.043a2.32,2.32,0,0,0-.175.814V77.21a.427.427,0,0,0,.426.427h3.172a.427.427,0,0,0,.427-.427V76.033a2.412,2.412,0,0,0-.175-.814l-.021-.043a2.32,2.32,0,0,1-.175-.814V70.107a2.418,2.418,0,0,1,.175-.815Z" transform="translate(-0.187)"/><rect id="band_rd_multiplier" data-name="band rd multiplier" class="cls-6" x="57.169" y="73.163" width="3.279" height="1.096"/><rect id="band_rd_multiplier-2" data-name="band rd multiplier" class="cls-7" x="56.794" y="75.758" width="4.025" height="1.096"/><rect id="band_2_nd" data-name="band 2 nd" class="cls-6" x="57.169" y="70.567" width="3.279" height="1.096"/><path id="Shadow" class="cls-8" d="M58.7,77.223h0c-.224,0-.414-.078-.414-.175V75.909a5.211,5.211,0,0,1,.073-.789l.009-.043a5.118,5.118,0,0,0,.073-.79V70.173a5.174,5.174,0,0,0-.073-.788l-.009-.043a5.1,5.1,0,0,1-.072-.789V67.59a.4.4,0,0,0-.382-.414h-.343a.4.4,0,0,0-.382.414v.959a2.478,2.478,0,0,0,.158.789l.017.042a2.539,2.539,0,0,1,.157.789v4.114a2.558,2.558,0,0,1-.158.79l-.016.044a2.431,2.431,0,0,0-.159.79v1.317a.4.4,0,0,0,.382.414h1.989C59.488,77.474,59.309,77.223,58.7,77.223Z" transform="translate(-0.187)"/><circle id="ReflexLeft" class="cls-9" cx="60.265" cy="67.326" r="0.256"/><rect id="gold_band" data-name="gold band" class="cls-10" x="56.774" y="67.82" width="4.024" height="0.416"/><rect id="ShadowExtra" class="cls-11" x="56.983" y="67.82" width="1.867" height="0.416"/><rect id="Reflex_gold" data-name="Reflex gold" class="cls-12" x="59.684" y="67.82" width="0.959" height="0.416"/><rect id="Reflex_extra" data-name="Reflex extra" class="cls-13" x="59.986" y="67.82" width="0.443" height="0.416"/></g><g id="breadboard-2" data-name="breadboard"><rect id="connector0pin-2" data-name="connector0pin" class="cls-2" x="66.862" y="63.394" width="0.426" height="0.426"/><rect id="connector1pin-2" data-name="connector1pin" class="cls-2" x="66.862" y="80.84" width="0.426" height="0.426"/><line id="connector0leg-2" data-name="connector0leg" class="cls-3" x1="66.668" y1="63.801" x2="66.668" y2="64.421"/><line id="connector1leg-2" data-name="connector1leg" class="cls-3" x1="66.668" y1="80.86" x2="66.668" y2="80.239"/><path class="cls-14" d="M66.855,63.8V80.6" transform="translate(-0.187)"/><path id="body-2" data-name="body" class="cls-5" d="M68.713,69.249a2.32,2.32,0,0,0,.175-.814V67.258a.428.428,0,0,0-.427-.426H65.289a.427.427,0,0,0-.426.426v1.177a2.388,2.388,0,0,0,.175.814l.021.043a2.324,2.324,0,0,1,.174.815v4.255a2.411,2.411,0,0,1-.174.814l-.021.043a2.32,2.32,0,0,0-.175.814V77.21a.427.427,0,0,0,.426.427h3.172a.427.427,0,0,0,.427-.427V76.033a2.412,2.412,0,0,0-.175-.814l-.022-.043a2.318,2.318,0,0,1-.174-.814V70.107a2.441,2.441,0,0,1,.174-.815Z" transform="translate(-0.187)"/><rect id="band_rd_multiplier-3" data-name="band rd multiplier" class="cls-6" x="65.051" y="73.163" width="3.279" height="1.096"/><rect id="band_rd_multiplier-4" data-name="band rd multiplier" class="cls-7" x="64.676" y="75.758" width="4.025" height="1.096"/><rect id="band_2_nd-2" data-name="band 2 nd" class="cls-6" x="65.051" y="70.567" width="3.279" height="1.096"/><path id="Shadow-2" data-name="Shadow" class="cls-8" d="M66.584,77.223h0c-.224,0-.414-.078-.414-.175V75.909a5.085,5.085,0,0,1,.073-.789l.009-.043a5.245,5.245,0,0,0,.073-.79V70.173a5.3,5.3,0,0,0-.073-.788l-.009-.043a5.1,5.1,0,0,1-.072-.789V67.59a.4.4,0,0,0-.382-.414h-.343a.4.4,0,0,0-.382.414v.959a2.478,2.478,0,0,0,.158.789l.017.042a2.538,2.538,0,0,1,.156.789v4.114a2.557,2.557,0,0,1-.157.79l-.016.044a2.431,2.431,0,0,0-.159.79v1.317a.4.4,0,0,0,.382.414h1.989C67.37,77.474,67.191,77.223,66.584,77.223Z" transform="translate(-0.187)"/><circle id="ReflexLeft-2" data-name="ReflexLeft" class="cls-9" cx="68.147" cy="67.326" r="0.256"/><rect id="gold_band-2" data-name="gold band" class="cls-10" x="64.656" y="67.82" width="4.024" height="0.416"/><rect id="ShadowExtra-2" data-name="ShadowExtra" class="cls-11" x="64.865" y="67.82" width="1.867" height="0.416"/><rect id="Reflex_gold-2" data-name="Reflex gold" class="cls-12" x="67.565" y="67.82" width="0.959" height="0.416"/><rect id="Reflex_extra-2" data-name="Reflex extra" class="cls-13" x="67.868" y="67.82" width="0.443" height="0.416"/></g><g id="breadboard-3" data-name="breadboard"><rect id="connector0pin-3" data-name="connector0pin" class="cls-2" x="74.744" y="80.84" width="0.426" height="0.426"/><rect id="connector1pin-3" data-name="connector1pin" class="cls-2" x="74.744" y="63.394" width="0.426" height="0.426"/><line id="connector0leg-3" data-name="connector0leg" class="cls-3" x1="74.55" y1="80.86" x2="74.55" y2="80.239"/><line id="connector1leg-3" data-name="connector1leg" class="cls-3" x1="74.55" y1="63.801" x2="74.55" y2="64.421"/><path class="cls-15" d="M74.737,80.86v-16.8" transform="translate(-0.187)"/><path id="body-3" data-name="body" class="cls-5" d="M76.6,75.411a2.324,2.324,0,0,1,.174.815V77.4a.427.427,0,0,1-.426.427H73.171a.427.427,0,0,1-.426-.427V76.226a2.394,2.394,0,0,1,.175-.815l.02-.042a2.308,2.308,0,0,0,.175-.815V70.3a2.388,2.388,0,0,0-.175-.814l-.02-.043a2.32,2.32,0,0,1-.175-.815V67.45a.426.426,0,0,1,.426-.426h3.172a.426.426,0,0,1,.426.426v1.177a2.436,2.436,0,0,1-.174.815l-.022.043a2.318,2.318,0,0,0-.174.814v4.255a2.446,2.446,0,0,0,.174.815Z" transform="translate(-0.187)"/><rect id="band_rd_multiplier-5" data-name="band rd multiplier" class="cls-6" x="72.933" y="70.402" width="3.279" height="1.096"/><rect id="band_rd_multiplier-6" data-name="band rd multiplier" class="cls-7" x="72.558" y="67.806" width="4.025" height="1.096"/><rect id="band_2_nd-3" data-name="band 2 nd" class="cls-6" x="72.933" y="72.998" width="3.279" height="1.096"/><path id="Shadow-3" data-name="Shadow" class="cls-8" d="M74.466,67.438h0c-.225,0-.414.077-.414.175v1.138a5.1,5.1,0,0,0,.073.79l.009.043a5.245,5.245,0,0,1,.072.789v4.114a5.319,5.319,0,0,1-.072.789l-.009.043a5.072,5.072,0,0,0-.072.789v.963a.4.4,0,0,1-.383.414h-.342a.4.4,0,0,1-.382-.414v-.959a2.478,2.478,0,0,1,.158-.789l.016-.043a2.5,2.5,0,0,0,.157-.789V70.378a2.557,2.557,0,0,0-.157-.79l-.017-.044a2.468,2.468,0,0,1-.158-.79V67.436a.4.4,0,0,1,.382-.414h1.988C75.252,67.187,75.072,67.438,74.466,67.438Z" transform="translate(-0.187)"/><circle id="ReflexLeft-3" data-name="ReflexLeft" class="cls-9" cx="76.028" cy="77.335" r="0.256"/><rect id="gold_band-3" data-name="gold band" class="cls-10" x="72.538" y="76.424" width="4.024" height="0.416"/><rect id="ShadowExtra-3" data-name="ShadowExtra" class="cls-11" x="72.747" y="76.424" width="1.867" height="0.416"/><rect id="Reflex_gold-3" data-name="Reflex gold" class="cls-12" x="75.447" y="76.424" width="0.959" height="0.416"/><rect id="Reflex_extra-3" data-name="Reflex extra" class="cls-13" x="75.75" y="76.424" width="0.443" height="0.416"/></g><g id="breadboard-4" data-name="breadboard"><rect id="connector0pin-4" data-name="connector0pin" class="cls-2" x="82.626" y="80.84" width="0.426" height="0.426"/><rect id="connector1pin-4" data-name="connector1pin" class="cls-2" x="82.626" y="63.394" width="0.426" height="0.426"/><line id="connector0leg-4" data-name="connector0leg" class="cls-3" x1="82.432" y1="80.86" x2="82.432" y2="80.239"/><line id="connector1leg-4" data-name="connector1leg" class="cls-3" x1="82.432" y1="63.801" x2="82.432" y2="64.421"/><path class="cls-16" d="M82.619,80.86v-16.8" transform="translate(-0.187)"/><path id="body-4" data-name="body" class="cls-5" d="M84.477,75.411a2.324,2.324,0,0,1,.174.815V77.4a.428.428,0,0,1-.426.427H81.053a.427.427,0,0,1-.426-.427V76.226a2.417,2.417,0,0,1,.174-.815l.021-.042A2.33,2.33,0,0,0,81,74.554V70.3a2.388,2.388,0,0,0-.175-.814l-.021-.043a2.319,2.319,0,0,1-.174-.815V67.45a.426.426,0,0,1,.426-.426h3.172a.427.427,0,0,1,.426.426v1.177a2.436,2.436,0,0,1-.174.815l-.022.043a2.32,2.32,0,0,0-.175.814v4.255a2.423,2.423,0,0,0,.175.815Z" transform="translate(-0.187)"/><rect id="band_rd_multiplier-7" data-name="band rd multiplier" class="cls-6" x="80.815" y="70.402" width="3.279" height="1.096"/><rect id="band_rd_multiplier-8" data-name="band rd multiplier" class="cls-7" x="80.44" y="67.806" width="4.025" height="1.096"/><rect id="band_2_nd-4" data-name="band 2 nd" class="cls-6" x="80.815" y="72.998" width="3.279" height="1.096"/><path id="Shadow-4" data-name="Shadow" class="cls-8" d="M82.348,67.438h0c-.225,0-.414.077-.414.175v1.138a5.225,5.225,0,0,0,.072.79l.01.043a5.245,5.245,0,0,1,.072.789v4.114a5.319,5.319,0,0,1-.072.789l-.009.043a5.07,5.07,0,0,0-.073.789v.963a.4.4,0,0,1-.382.414H81.21a.4.4,0,0,1-.383-.414v-.959a2.48,2.48,0,0,1,.159-.789L81,75.28a2.5,2.5,0,0,0,.157-.789V70.378a2.557,2.557,0,0,0-.157-.79l-.017-.044a2.468,2.468,0,0,1-.158-.79V67.436a.4.4,0,0,1,.382-.414H83.2C83.133,67.187,82.954,67.438,82.348,67.438Z" transform="translate(-0.187)"/><circle id="ReflexLeft-4" data-name="ReflexLeft" class="cls-9" cx="83.91" cy="77.335" r="0.256"/><rect id="gold_band-4" data-name="gold band" class="cls-10" x="80.42" y="76.424" width="4.024" height="0.416"/><rect id="ShadowExtra-4" data-name="ShadowExtra" class="cls-11" x="80.629" y="76.424" width="1.867" height="0.416"/><rect id="Reflex_gold-4" data-name="Reflex gold" class="cls-12" x="83.329" y="76.424" width="0.959" height="0.416"/><rect id="Reflex_extra-4" data-name="Reflex extra" class="cls-13" x="83.632" y="76.424" width="0.443" height="0.416"/></g><g id="breadboard-5" data-name="breadboard"><rect id="bgnd" class="cls-17" x="54.062" y="0.269" width="18.363" height="46.306"/><rect id="top_inset" data-name="top inset" class="cls-18" x="54.062" y="0.269" width="2.145" height="46.306"/><rect id="bottom_inset" data-name="bottom inset" class="cls-18" x="69.835" y="0.269" width="2.59" height="46.306"/><path id="left_inset" data-name="left inset" class="cls-18" d="M54.249,46.575H72.611l-2.048-2.493H56.3Z" transform="translate(-0.187)"/><path id="right_inset" data-name="right inset" class="cls-18" d="M54.249.269H72.611L70.563,2.716H56.3Z" transform="translate(-0.187)"/><rect id="top_border" data-name="top border" class="cls-19" x="54.062" y="0.269" width="1.379" height="46.306"/><rect id="bottom_border" data-name="bottom border" class="cls-19" x="70.76" y="0.269" width="1.664" height="46.306"/><rect id="left_border" data-name="left border" class="cls-19" x="54.062" y="44.973" width="18.363" height="1.602"/><rect id="right_border" data-name="right border" class="cls-19" x="54.062" y="0.269" width="18.363" height="1.573"/><rect id="lower_connector_bgnd" data-name="lower connector bgnd" class="cls-19" x="63.655" y="35.299" width="3.683" height="3.683"/><rect id="connector0pin-5" data-name="connector0pin" class="cls-20" x="64.382" y="36.027" width="2.229" height="2.229"/><rect id="lower_connector_top_inset" data-name="lower connector top inset" class="cls-21" x="64.382" y="36.027" width="0.541" height="2.229"/><rect id="lower_connector_bottom_inset" data-name="lower connector bottom inset" class="cls-22" x="66.07" y="36.027" width="0.541" height="2.229"/><path id="lower_connector_left_inset" data-name="lower connector left inset" class="cls-23" d="M64.569,38.255H66.8l-.541-.541H65.11Z" transform="translate(-0.187)"/><path id="lower_connector_right_inset" data-name="lower connector right inset" class="cls-23" d="M64.569,36.027H66.8l-.541.54H65.11Z" transform="translate(-0.187)"/><rect id="lower_connector_bgnd-2" data-name="lower connector bgnd" class="cls-19" x="63.655" y="28.319" width="3.683" height="3.683"/><rect id="connector1pin-5" data-name="connector1pin" class="cls-20" x="64.382" y="29.046" width="2.229" height="2.229"/><rect id="lower_connector_top_inset-2" data-name="lower connector top inset" class="cls-21" x="64.382" y="29.046" width="0.541" height="2.229"/><rect id="lower_connector_bottom_inset-2" data-name="lower connector bottom inset" class="cls-22" x="66.07" y="29.046" width="0.541" height="2.229"/><path id="lower_connector_left_inset-2" data-name="lower connector left inset" class="cls-23" d="M64.569,31.275H66.8l-.541-.541H65.11Z" transform="translate(-0.187)"/><path id="lower_connector_right_inset-2" data-name="lower connector right inset" class="cls-23" d="M64.569,29.047H66.8l-.541.54H65.11Z" transform="translate(-0.187)"/><rect id="lower_connector_bgnd-3" data-name="lower connector bgnd" class="cls-19" x="63.655" y="21.339" width="3.683" height="3.683"/><rect id="connector2pin" class="cls-20" x="64.382" y="22.066" width="2.229" height="2.229"/><rect id="lower_connector_top_inset-3" data-name="lower connector top inset" class="cls-21" x="64.382" y="22.066" width="0.541" height="2.229"/><rect id="lower_connector_bottom_inset-3" data-name="lower connector bottom inset" class="cls-22" x="66.07" y="22.066" width="0.541" height="2.229"/><path id="lower_connector_left_inset-3" data-name="lower connector left inset" class="cls-23" d="M64.569,24.3H66.8l-.541-.541H65.11Z" transform="translate(-0.187)"/><path id="lower_connector_right_inset-3" data-name="lower connector right inset" class="cls-23" d="M64.569,22.066H66.8l-.541.541H65.11Z" transform="translate(-0.187)"/><rect id="lower_connector_bgnd-4" data-name="lower connector bgnd" class="cls-19" x="63.655" y="14.359" width="3.683" height="3.683"/><rect id="connector3pin" class="cls-20" x="64.382" y="15.086" width="2.229" height="2.229"/><rect id="lower_connector_top_inset-4" data-name="lower connector top inset" class="cls-21" x="64.382" y="15.086" width="0.541" height="2.229"/><rect id="lower_connector_bottom_inset-4" data-name="lower connector bottom inset" class="cls-22" x="66.07" y="15.086" width="0.541" height="2.229"/><path id="lower_connector_left_inset-4" data-name="lower connector left inset" class="cls-23" d="M64.569,17.315H66.8l-.541-.541H65.11Z" transform="translate(-0.187)"/><path id="lower_connector_right_inset-4" data-name="lower connector right inset" class="cls-23" d="M64.569,15.086H66.8l-.541.541H65.11Z" transform="translate(-0.187)"/><rect id="lower_connector_bgnd-5" data-name="lower connector bgnd" class="cls-19" x="63.655" y="7.379" width="3.683" height="3.683"/><rect id="connector4pin" class="cls-20" x="64.382" y="8.106" width="2.229" height="2.229"/><rect id="lower_connector_top_inset-5" data-name="lower connector top inset" class="cls-21" x="64.382" y="8.106" width="0.541" height="2.229"/><rect id="lower_connector_bottom_inset-5" data-name="lower connector bottom inset" class="cls-22" x="66.07" y="8.106" width="0.541" height="2.229"/><path id="lower_connector_left_inset-5" data-name="lower connector left inset" class="cls-23" d="M64.569,10.335H66.8l-.541-.541H65.11Z" transform="translate(-0.187)"/><path id="lower_connector_right_inset-5" data-name="lower connector right inset" class="cls-23" d="M64.569,8.106H66.8l-.541.541H65.11Z" transform="translate(-0.187)"/></g><polygon class="cls-24" points="45.766 78.621 44.52 79.864 39.959 79.891 38.687 78.617 38.689 74.085 39.945 72.831 44.495 72.814 45.766 74.087 45.766 78.621"/><path class="cls-25" d="M38.88,74.089l.635-.634.635-.635h4.527l.635.635.635.634v4.528l-.356.355-.914.914H40.15l-1.27-1.269V74.089m-.01,0v4.536L40.146,79.9h4.535l1.276-1.275V74.085L44.681,72.81H40.146L38.87,74.085Z" transform="translate(-0.187)"/><rect class="cls-26" x="41.343" y="75.446" width="1.768" height="1.814"/><rect class="cls-27" x="41.744" y="75.857" width="0.967" height="0.992"/><line class="cls-28" x1="43.111" y1="77.26" x2="42.71" y2="76.849"/><line class="cls-28" x1="41.744" y1="76.849" x2="41.343" y2="77.26"/><line class="cls-28" x1="41.744" y1="75.857" x2="41.343" y2="75.446"/><line class="cls-28" x1="42.71" y1="75.857" x2="43.111" y2="75.446"/><polygon class="cls-24" points="52.909 78.621 51.664 79.864 47.102 79.891 45.831 78.617 45.832 74.086 47.089 72.831 51.638 72.815 52.909 74.088 52.909 78.621"/><path class="cls-25" d="M46.024,74.09l.635-.635.634-.635h4.528l.634.635.635.635v4.527l-.355.355-.914.914H47.293l-1.269-1.269V74.09m-.01-.005v4.536L47.289,79.9h4.536L53.1,78.621V74.085L51.825,72.81H47.289l-1.275,1.275Z" transform="translate(-0.187)"/><rect class="cls-26" x="48.486" y="75.446" width="1.768" height="1.814"/><rect class="cls-27" x="48.887" y="75.857" width="0.967" height="0.992"/><line class="cls-28" x1="50.254" y1="77.26" x2="49.854" y2="76.849"/><line class="cls-28" x1="48.887" y1="76.849" x2="48.486" y2="77.26"/><line class="cls-28" x1="48.887" y1="75.857" x2="48.486" y2="75.446"/><line class="cls-28" x1="49.854" y1="75.857" x2="50.254" y2="75.446"/><polygon class="cls-24" points="31.479 78.621 30.205 79.892 25.673 79.891 24.401 78.617 24.402 74.085 25.659 72.83 30.208 72.814 31.479 74.087 31.479 78.621"/><path class="cls-25" d="M24.594,74.089l.635-.635.634-.634h4.528l.634.634.635.635v4.527l-.355.356-.914.914H25.863l-1.269-1.27V74.089m-.01,0v4.536L25.859,79.9H30.4l1.275-1.275V74.085L30.4,72.81H25.859l-1.275,1.275Z" transform="translate(-0.187)"/><rect class="cls-26" x="27.056" y="75.446" width="1.768" height="1.814"/><rect class="cls-27" x="27.457" y="75.857" width="0.967" height="0.992"/><line class="cls-28" x1="28.824" y1="77.26" x2="28.424" y2="76.849"/><line class="cls-28" x1="27.457" y1="76.849" x2="27.056" y2="77.26"/><line class="cls-28" x1="27.457" y1="75.857" x2="27.056" y2="75.446"/><line class="cls-28" x1="28.424" y1="75.857" x2="28.824" y2="75.446"/><polygon class="cls-24" points="38.622 78.621 37.377 79.864 32.816 79.892 31.561 78.635 31.545 74.085 32.82 72.813 37.351 72.815 38.622 74.087 38.622 78.621"/><path class="cls-25" d="M31.737,74.09l1.27-1.27h4.527l.914.914.356.356v4.527l-.635.635-.635.635H33.007l-.536-.536-.734-.734V74.09m-.01,0v4.535L33,79.9h4.535l1.276-1.276V74.086L37.538,72.81H33l-1.276,1.276Z" transform="translate(-0.187)"/><rect class="cls-26" x="34.2" y="75.446" width="1.768" height="1.814"/><rect class="cls-27" x="34.6" y="75.857" width="0.967" height="0.992"/><line class="cls-28" x1="35.967" y1="77.26" x2="35.567" y2="76.849"/><line class="cls-28" x1="34.6" y1="76.849" x2="34.2" y2="77.26"/><line class="cls-28" x1="34.6" y1="75.857" x2="34.2" y2="75.446"/><line class="cls-28" x1="35.567" y1="75.857" x2="35.967" y2="75.446"/><polygon class="cls-24" points="20.601 17.714 21.844 18.959 21.872 23.52 20.598 24.792 16.066 24.791 14.811 23.534 14.795 18.985 16.068 17.714 20.601 17.714"/><path class="cls-25" d="M16.256,24.786l-.634-.635-.635-.635V18.989l.635-.635.634-.635h4.528l.355.356.914.914v4.527l-1.269,1.27H16.256m0,.01h4.536l1.275-1.276V18.985l-1.275-1.276H16.252l-1.275,1.276V23.52L16.252,24.8Z" transform="translate(-0.187)"/><rect class="cls-26" x="17.426" y="20.369" width="1.814" height="1.768"/><rect class="cls-27" x="17.837" y="20.769" width="0.992" height="0.967"/><line class="cls-28" x1="19.24" y1="20.369" x2="18.829" y2="20.769"/><line class="cls-28" x1="18.829" y1="21.736" x2="19.24" y2="22.136"/><line class="cls-28" x1="17.837" y1="21.736" x2="17.426" y2="22.136"/><line class="cls-28" x1="17.837" y1="20.769" x2="17.426" y2="20.369"/><polygon class="cls-24" points="20.601 10.57 21.844 11.816 21.872 16.377 20.598 17.649 16.066 17.647 14.811 16.391 14.795 11.841 16.068 10.57 20.601 10.57"/><path class="cls-25" d="M16.257,17.642l-.635-.634-.635-.635V11.846l.635-.635.635-.635h4.527l.356.356.913.914v4.527l-1.269,1.269H16.257m-.005.01h4.536l1.276-1.275V11.841l-1.276-1.275H16.252l-1.275,1.275v4.536l1.275,1.275Z" transform="translate(-0.187)"/><rect class="cls-26" x="17.426" y="13.225" width="1.814" height="1.768"/><rect class="cls-27" x="17.837" y="13.626" width="0.992" height="0.967"/><line class="cls-28" x1="19.241" y1="13.225" x2="18.83" y2="13.626"/><line class="cls-28" x1="18.83" y1="14.593" x2="19.241" y2="14.993"/><line class="cls-28" x1="17.837" y1="14.593" x2="17.426" y2="14.993"/><line class="cls-28" x1="17.837" y1="13.626" x2="17.426" y2="13.225"/><polygon class="cls-24" points="20.601 32.001 21.873 33.275 21.871 37.807 20.597 39.079 16.066 39.077 14.811 37.821 14.795 33.271 16.068 32.001 20.601 32.001"/><path class="cls-25" d="M16.256,39.072l-.634-.634-.635-.635V33.276l.635-.635.634-.635h4.528l.355.356.914.914V37.8l-1.269,1.269H16.256m0,.01h4.536l1.275-1.275V33.271L20.788,32H16.252l-1.275,1.275v4.536l1.275,1.275Z" transform="translate(-0.187)"/><rect class="cls-26" x="17.426" y="34.655" width="1.814" height="1.768"/><rect class="cls-27" x="17.837" y="35.056" width="0.992" height="0.967"/><line class="cls-28" x1="19.24" y1="34.655" x2="18.829" y2="35.056"/><line class="cls-28" x1="18.829" y1="36.022" x2="19.24" y2="36.423"/><line class="cls-28" x1="17.837" y1="36.022" x2="17.426" y2="36.423"/><line class="cls-28" x1="17.837" y1="35.056" x2="17.426" y2="34.655"/><polygon class="cls-24" points="20.601 24.857 21.845 26.103 21.872 30.663 20.615 31.918 16.066 31.934 14.794 30.66 14.795 26.128 16.068 24.857 20.601 24.857"/><path class="cls-25" d="M16.257,31.929l-1.27-1.27V26.132l.914-.914.356-.356h4.527l.635.635.635.635v4.527l-.536.536-.734.734H16.257m0,.01h4.535l1.276-1.275V26.128l-1.276-1.276H16.253l-1.276,1.276v4.536l1.276,1.275Z" transform="translate(-0.187)"/><rect class="cls-26" x="17.427" y="27.512" width="1.814" height="1.768"/><rect class="cls-27" x="17.838" y="27.912" width="0.992" height="0.967"/><line class="cls-28" x1="19.241" y1="27.512" x2="18.83" y2="27.912"/><line class="cls-28" x1="18.83" y1="28.879" x2="19.241" y2="29.28"/><line class="cls-28" x1="17.838" y1="28.879" x2="17.427" y2="29.28"/><line class="cls-28" x1="17.838" y1="27.912" x2="17.427" y2="27.512"/><path class="cls-29" d="M5.331,15.645v-.307l.4-.069v-2.8l-.4-.068v-.31H6.608v.31l-.4.068v2.8l.4.069v.307Z" transform="translate(-0.187)"/><path class="cls-29" d="M7.009,15.645v-.307l.4-.069v-2.8l-.4-.068v-.31h.883l1.744,2.771.014-.005V12.469L9.213,12.4v-.31H10.49v.31l-.4.068v3.176H9.653L7.863,12.86l-.015.005v2.4l.437.069v.307Z" transform="translate(-0.187)"/><path class="cls-29" d="M10.988,15.645v-.307l.549-.069V12.606l-.559.01v-.3l1.04-.224v3.178l.547.069v.307Z" transform="translate(-0.187)"/><path class="cls-29" d="M4.746,22.99v-.308l.4-.068v-2.8l-.4-.068v-.31H6.023v.31l-.4.068v2.8l.4.068v.308Z" transform="translate(-0.187)"/><path class="cls-29" d="M6.423,22.99v-.308l.4-.068v-2.8l-.4-.068v-.31h.884L9.05,22.206l.015,0V19.813l-.437-.068v-.31H9.9v.31l-.4.068V22.99h-.44L7.278,20.2l-.015,0v2.405l.437.068v.308Z" transform="translate(-0.187)"/><path class="cls-29" d="M10.344,22.99v-.33l1.165-1.294a4.8,4.8,0,0,0,.324-.4,1.206,1.206,0,0,0,.164-.3.84.84,0,0,0,.046-.278.649.649,0,0,0-.161-.448.584.584,0,0,0-.461-.182.635.635,0,0,0-.488.188.756.756,0,0,0-.174.532H10.3l-.005-.014a1.068,1.068,0,0,1,.129-.554.974.974,0,0,1,.4-.387,1.258,1.258,0,0,1,.619-.143,1.216,1.216,0,0,1,.579.128.914.914,0,0,1,.375.35.979.979,0,0,1,.132.51,1.029,1.029,0,0,1-.077.389,1.8,1.8,0,0,1-.225.395,4.677,4.677,0,0,1-.355.427L10.932,22.6l0,.013H12.2l.039-.408h.407v.784Z" transform="translate(-0.187)"/><path class="cls-29" d="M4.8,30.334v-.308l.4-.068v-2.8l-.4-.069v-.31H6.072v.31l-.4.069v2.8l.4.068v.308Z" transform="translate(-0.187)"/><path class="cls-29" d="M6.472,30.334v-.308l.4-.068v-2.8l-.4-.069v-.31h.884L9.1,29.55l.015,0V27.158l-.437-.069v-.31H9.953v.31l-.4.069v3.176H9.116l-1.79-2.786-.014.005v2.4l.437.068v.308Z" transform="translate(-0.187)"/><path class="cls-29" d="M11.45,30.385a1.344,1.344,0,0,1-.579-.119.929.929,0,0,1-.4-.336.9.9,0,0,1-.135-.519l.007-.015h.459a.634.634,0,0,0,.079.325.534.534,0,0,0,.222.212.725.725,0,0,0,.344.076.663.663,0,0,0,.479-.166.651.651,0,0,0,.173-.491.666.666,0,0,0-.154-.485.658.658,0,0,0-.486-.157h-.42v-.376h.42a.713.713,0,0,0,.342-.071.43.43,0,0,0,.187-.208.838.838,0,0,0,.057-.326.646.646,0,0,0-.151-.464.589.589,0,0,0-.447-.159.692.692,0,0,0-.327.074.539.539,0,0,0-.216.21.631.631,0,0,0-.077.319h-.462l0-.014a.86.86,0,0,1,.128-.489.968.968,0,0,1,.383-.349,1.228,1.228,0,0,1,.575-.129,1.133,1.133,0,0,1,.786.262.955.955,0,0,1,.293.749A.854.854,0,0,1,12,28.51a.783.783,0,0,1,.453.33.974.974,0,0,1,.133.5,1.03,1.03,0,0,1-.146.557.953.953,0,0,1-.4.36A1.325,1.325,0,0,1,11.45,30.385Z" transform="translate(-0.187)"/><path class="cls-29" d="M4.637,37.678V37.37l.4-.068V34.5l-.4-.068v-.31H5.913v.31l-.4.068v2.8l.4.068v.308Z" transform="translate(-0.187)"/><path class="cls-29" d="M6.314,37.678V37.37l.4-.068V34.5l-.4-.068v-.31H7.2l1.743,2.771.014,0V34.5l-.437-.068v-.31H9.8v.31l-.4.068v3.177H8.958l-1.79-2.786-.014,0V37.3l.437.068v.308Z" transform="translate(-0.187)"/><path class="cls-29" d="M11.35,37.678V37.37l.4-.068v-.445h-1.6v-.271l1.567-2.463h.508v2.358h.491v.376h-.491V37.3l.4.068v.308Zm-.686-1.2h1.084V34.809l-.014,0-.049.129Z" transform="translate(-0.187)"/><path class="cls-29" d="M4.844,45.022v-.307l.4-.069v-2.8l-.4-.068v-.31H6.12v.31l-.4.068v2.8l.4.069v.307Z" transform="translate(-0.187)"/><path class="cls-29" d="M6.521,45.022v-.307l.4-.069v-2.8l-.4-.068v-.31h.884l1.743,2.771.014,0V41.846l-.437-.068v-.31H10v.31l-.4.068v3.176H9.165l-1.79-2.785-.014,0v2.4l.437.069v.307Z" transform="translate(-0.187)"/><path class="cls-29" d="M11.479,45.074a1.271,1.271,0,0,1-.538-.11.844.844,0,0,1-.372-.326.95.95,0,0,1-.127-.536l0-.015h.434a.568.568,0,0,0,.6.611.568.568,0,0,0,.474-.215.933.933,0,0,0,.168-.589.889.889,0,0,0-.169-.562.561.561,0,0,0-.47-.219.755.755,0,0,0-.412.086.486.486,0,0,0-.186.261l-.4-.042.205-1.95h1.878v.7H12.2l-.046-.276H11.1l-.115,1a.983.983,0,0,1,.159-.1.941.941,0,0,1,.187-.07.9.9,0,0,1,.221-.029,1.038,1.038,0,0,1,.564.143.939.939,0,0,1,.363.415,1.468,1.468,0,0,1,.127.635,1.426,1.426,0,0,1-.128.623.953.953,0,0,1-.378.414A1.2,1.2,0,0,1,11.479,45.074Z" transform="translate(-0.187)"/><path class="cls-29" d="M4.721,52.367v-.308l.4-.068v-2.8l-.4-.068v-.31H6v.31l-.4.068v2.8l.4.068v.308Z" transform="translate(-0.187)"/><path class="cls-29" d="M6.4,52.367v-.308l.4-.068v-2.8l-.4-.068v-.31h.884l1.743,2.771.014,0V49.19L8.6,49.122v-.31H9.879v.31l-.4.068v3.177H9.042l-1.79-2.786-.014,0v2.405l.437.068v.308Z" transform="translate(-0.187)"/><path class="cls-29" d="M11.581,52.418a1.116,1.116,0,0,1-1.047-.664,1.806,1.806,0,0,1-.157-.786v-.479a2.355,2.355,0,0,1,.17-.949,1.309,1.309,0,0,1,.468-.582,1.219,1.219,0,0,1,.688-.2,1.572,1.572,0,0,1,.36.041,1.228,1.228,0,0,1,.3.1l-.093.359a1.314,1.314,0,0,0-.252-.092,1.277,1.277,0,0,0-.312-.035.718.718,0,0,0-.595.282,1.431,1.431,0,0,0-.235.851l.01.01a1,1,0,0,1,.334-.2,1.22,1.22,0,0,1,.427-.074.97.97,0,0,1,.914.564,1.346,1.346,0,0,1,.129.6,1.47,1.47,0,0,1-.137.65,1.034,1.034,0,0,1-.969.6Zm0-.376a.51.51,0,0,0,.337-.115.734.734,0,0,0,.214-.312,1.27,1.27,0,0,0,.074-.445.911.911,0,0,0-.177-.578.584.584,0,0,0-.49-.227.944.944,0,0,0-.3.044.72.72,0,0,0-.23.127.69.69,0,0,0-.157.192v.286a1.226,1.226,0,0,0,.206.762A.632.632,0,0,0,11.581,52.042Z" transform="translate(-0.187)"/><path class="cls-29" d="M4.752,59.711V59.4l.4-.068v-2.8l-.4-.068v-.31H6.029v.31l-.4.068v2.8l.4.068v.308Z" transform="translate(-0.187)"/><path class="cls-29" d="M6.43,59.711V59.4l.4-.068v-2.8l-.4-.068v-.31h.883l1.743,2.771.015-.005V56.534l-.437-.068v-.31H9.911v.31l-.4.068v3.177H9.074l-1.79-2.786-.015.005v2.405l.437.068v.308Z" transform="translate(-0.187)"/><path class="cls-29" d="M10.985,59.711l.039-.384a5.628,5.628,0,0,1,.222-1.037,4.922,4.922,0,0,1,.4-.906,6.188,6.188,0,0,1,.586-.85H10.746l-.037.408H10.3v-.786h2.4v.378a7.071,7.071,0,0,0-.532.712,3.869,3.869,0,0,0-.338.647,3.939,3.939,0,0,0-.2.665c-.049.231-.091.488-.125.769l-.039.384Z" transform="translate(-0.187)"/><path class="cls-29" d="M74.877,14.092V12.6l-.93-.335v-.483L77.5,13.142v.411l-3.555,1.359v-.481Zm.384-1.348v1.209l1.662-.606Z" transform="translate(-0.187)"/><path class="cls-29" d="M73.947,25.663H77.5v1.162a1.354,1.354,0,0,1-.239.871.865.865,0,0,1-.708.291.723.723,0,0,1-.441-.141.926.926,0,0,1-.3-.386.826.826,0,0,1-.306.455.877.877,0,0,1-.539.167.949.949,0,0,1-.751-.31,1.277,1.277,0,0,1-.274-.876Zm1.663.469H74.33v.774a.745.745,0,0,0,.17.516.6.6,0,0,0,.468.189q.642,0,.642-.7Zm.376,0v.708a.737.737,0,0,0,.154.491.515.515,0,0,0,.418.185.508.508,0,0,0,.427-.171.838.838,0,0,0,.133-.52v-.693Z" transform="translate(-0.187)"/><path class="cls-29" d="M75.075,41.663a1.309,1.309,0,0,1-.87-.416,1.364,1.364,0,0,1-.307-.932,1.255,1.255,0,0,1,.452-1.01,1.822,1.822,0,0,1,1.208-.379H75.9a2.026,2.026,0,0,1,.872.177,1.32,1.32,0,0,1,.577.5,1.4,1.4,0,0,1,.2.752,1.285,1.285,0,0,1-.317.908,1.323,1.323,0,0,1-.875.4v-.471a1.022,1.022,0,0,0,.617-.265.8.8,0,0,0,.191-.57.842.842,0,0,0-.332-.7,1.526,1.526,0,0,0-.946-.255h-.344a1.569,1.569,0,0,0-.921.242.781.781,0,0,0-.342.676.9.9,0,0,0,.177.6.981.981,0,0,0,.616.277Z" transform="translate(-0.187)"/><path class="cls-29" d="M73.947,52.575H77.5v1a1.623,1.623,0,0,1-.2.82,1.388,1.388,0,0,1-.584.551,1.9,1.9,0,0,1-.869.2h-.227a1.9,1.9,0,0,1-.881-.194,1.358,1.358,0,0,1-.581-.554,1.718,1.718,0,0,1-.208-.839Zm3.171.468H74.33v.493a1.073,1.073,0,0,0,.338.844,1.392,1.392,0,0,0,.96.3h.208a1.413,1.413,0,0,0,.942-.284,1.012,1.012,0,0,0,.34-.807Z" transform="translate(-0.187)"/><path class="cls-29" d="M24.536,86.69l.181-1.772h1.821v.418H25.1l-.108.969a1.149,1.149,0,0,1,.594-.155.984.984,0,0,1,.771.321,1.258,1.258,0,0,1,.286.869,1.213,1.213,0,0,1-.3.865,1.081,1.081,0,0,1-.829.316,1.125,1.125,0,0,1-.769-.261,1.044,1.044,0,0,1-.339-.723h.427a.718.718,0,0,0,.218.461.676.676,0,0,0,.463.154.609.609,0,0,0,.5-.215.892.892,0,0,0,.179-.592A.822.822,0,0,0,26,86.772a.659.659,0,0,0-.516-.216.746.746,0,0,0-.464.129l-.12.1Z" transform="translate(-0.187)"/><path class="cls-29" d="M30.453,86.883H27.192v-.369h3.261Z" transform="translate(-0.187)"/><path class="cls-29" d="M32.524,88.472H32.07V85.463l-.911.334v-.41l1.294-.487h.071Z" transform="translate(-0.187)"/><path class="cls-29" d="M36.177,88.472h-2.33v-.324l1.231-1.367a2.914,2.914,0,0,0,.377-.505.841.841,0,0,0,.1-.4.636.636,0,0,0-.169-.457.591.591,0,0,0-.449-.178.7.7,0,0,0-.524.191.735.735,0,0,0-.186.534h-.452a1.051,1.051,0,0,1,.316-.793,1.172,1.172,0,0,1,.846-.3,1.128,1.128,0,0,1,.784.26.888.888,0,0,1,.288.692,2.032,2.032,0,0,1-.669,1.25L34.392,88.1h1.785Z" transform="translate(-0.187)"/><path class="cls-29" d="M37.949,87.849l1.016-2.931h.512l-1.318,3.554h-.415l-1.316-3.554h.51Z" transform="translate(-0.187)"/><rect class="cls-30" x="27.056" y="0.269" width="26.342" height="60.295"/><rect class="cls-31" x="11.117" y="18.096" width="58.593" height="24.641" transform="translate(70.643 -9.998) rotate(90)"/><path class="cls-29" d="M29.179,82.812H26.325V82.3h2.854Z" transform="translate(-0.187)"/><path class="cls-29" d="M35.506,82.367h1.387v.6H35.506v1.572H34.87V82.966H33.482v-.6H34.87V80.915h.636Z" transform="translate(-0.187)"/><rect class="cls-32" x="29.167" y="2.579" width="22.121" height="4.816"/><rect class="cls-32" x="29.167" y="9.747" width="22.121" height="4.816"/><rect class="cls-32" x="29.167" y="16.97" width="22.121" height="4.816"/><rect class="cls-32" x="29.167" y="24.138" width="22.121" height="4.816"/><rect class="cls-32" x="29.167" y="31.298" width="22.121" height="4.816"/><rect class="cls-32" x="29.167" y="38.466" width="22.121" height="4.816"/><rect class="cls-32" x="29.167" y="45.689" width="22.121" height="4.816"/><rect class="cls-32" x="29.167" y="52.857" width="22.121" height="4.816"/><rect class="cls-33" x="31.333" y="1.445" width="17.789" height="57.948"/><path class="cls-34" d="M44.578,1.439a4.352,4.352,0,0,1-4.385,2.932,4.356,4.356,0,0,1-4.384-2.926Z" transform="translate(-0.187)"/><path class="cls-35" d="M39.685,21a1.972,1.972,0,0,1-.552-.069.9.9,0,0,1-.391-.228.887.887,0,0,1-.217-.352,1.441,1.441,0,0,1-.069-.468,1.4,1.4,0,0,1,.073-.477.9.9,0,0,1,.213-.342.921.921,0,0,1,.386-.227,1.9,1.9,0,0,1,.557-.07h1.74v.387h-1.76a1.741,1.741,0,0,0-.373.032.739.739,0,0,0-.248.109.535.535,0,0,0-.191.233,1.009,1.009,0,0,0,0,.71.534.534,0,0,0,.192.235.75.75,0,0,0,.255.108,1.7,1.7,0,0,0,.357.032h1.769V21Z" transform="translate(-0.187)"/><path class="cls-35" d="M38.517,23.576v-1.84h2.908v.387H38.861v1.453Z" transform="translate(-0.187)"/><path class="cls-35" d="M38.517,26.181V25.7l2.6-1.379h-2.6v-.361h2.908v.6L39.05,25.82h2.375v.361Z" transform="translate(-0.187)"/><path class="cls-35" d="M38.517,28.847V26.879h.408l.352.411c.117.137.234.265.349.384a3.741,3.741,0,0,0,.577.513.831.831,0,0,0,.462.139.445.445,0,0,0,.355-.149.624.624,0,0,0,.128-.417,1.326,1.326,0,0,0-.063-.385,1.532,1.532,0,0,0-.191-.4v-.02h.41a1.9,1.9,0,0,1,.125.37,1.872,1.872,0,0,1,.057.448,1.051,1.051,0,0,1-.216.7.728.728,0,0,1-.585.253,1.1,1.1,0,0,1-.31-.042,1.025,1.025,0,0,1-.272-.124,1.818,1.818,0,0,1-.238-.178c-.079-.069-.165-.152-.26-.249-.137-.139-.269-.284-.4-.432s-.247-.287-.356-.416v1.564Z" transform="translate(-0.187)"/><path class="cls-35" d="M39.972,31.387a2.1,2.1,0,0,1-1.149-.246.972.972,0,0,1,0-1.525,2.817,2.817,0,0,1,2.287,0,.967.967,0,0,1-.006,1.526A2.135,2.135,0,0,1,39.972,31.387Zm-.887-.514a1.332,1.332,0,0,0,.372.093,4.713,4.713,0,0,0,.515.024,4.811,4.811,0,0,0,.516-.024,1.2,1.2,0,0,0,.371-.1.509.509,0,0,0,.226-.187.547.547,0,0,0,.076-.3.555.555,0,0,0-.076-.3.51.51,0,0,0-.23-.19,1.189,1.189,0,0,0-.377-.091,4.975,4.975,0,0,0-.51-.025c-.2,0-.373.008-.51.022a1.235,1.235,0,0,0-.367.092.517.517,0,0,0-.232.182.546.546,0,0,0-.08.314.557.557,0,0,0,.076.3A.494.494,0,0,0,39.085,30.873Z" transform="translate(-0.187)"/><path class="cls-35" d="M39.972,33.93a2.1,2.1,0,0,1-1.149-.246.972.972,0,0,1,0-1.525,2.817,2.817,0,0,1,2.287,0,.967.967,0,0,1-.006,1.526A2.135,2.135,0,0,1,39.972,33.93Zm-.887-.514a1.368,1.368,0,0,0,.372.093,4.713,4.713,0,0,0,.515.024,4.811,4.811,0,0,0,.516-.024,1.225,1.225,0,0,0,.371-.095.516.516,0,0,0,.226-.187.547.547,0,0,0,.076-.3.555.555,0,0,0-.076-.3.51.51,0,0,0-.23-.19,1.189,1.189,0,0,0-.377-.091,4.975,4.975,0,0,0-.51-.025c-.2,0-.373.008-.51.022a1.235,1.235,0,0,0-.367.092.517.517,0,0,0-.232.182.546.546,0,0,0-.08.314.557.557,0,0,0,.076.3A.494.494,0,0,0,39.085,33.416Z" transform="translate(-0.187)"/><path class="cls-35" d="M39.917,36.221a.674.674,0,0,1-.211.154.766.766,0,0,1-.328.06.908.908,0,0,1-.365-.072.865.865,0,0,1-.289-.2.912.912,0,0,1-.2-.345,1.367,1.367,0,0,1-.066-.434,1.959,1.959,0,0,1,.058-.477,2.349,2.349,0,0,1,.126-.385h.408v.03a1.564,1.564,0,0,0-.181.39,1.4,1.4,0,0,0-.073.434.942.942,0,0,0,.041.262.533.533,0,0,0,.311.358.679.679,0,0,0,.262.044.59.59,0,0,0,.258-.05.389.389,0,0,0,.161-.138.524.524,0,0,0,.083-.212,1.445,1.445,0,0,0,.023-.27v-.176h.324v.137a.816.816,0,0,0,.124.474.417.417,0,0,0,.362.176.367.367,0,0,0,.185-.045.353.353,0,0,0,.13-.125.552.552,0,0,0,.07-.179,1.1,1.1,0,0,0,.02-.217,1.289,1.289,0,0,0-.067-.395,1.617,1.617,0,0,0-.187-.394V34.6H41.3a1.991,1.991,0,0,1,.126.37,1.833,1.833,0,0,1,.058.449,1.668,1.668,0,0,1-.039.375.937.937,0,0,1-.125.293.665.665,0,0,1-.227.213.641.641,0,0,1-.311.072.594.594,0,0,1-.422-.171.747.747,0,0,1-.228-.4h-.027a1,1,0,0,1-.066.214A.719.719,0,0,1,39.917,36.221Z" transform="translate(-0.187)"/><path class="cls-35" d="M38.517,39.42v-.412l.81-.286V37.465l-.81-.285v-.393l2.908,1.059v.515Zm1.142-.817,1.428-.509-1.428-.512Z" transform="translate(-0.187)"/><path class="cls-35" d="M38.517,42.08V41.6l2.6-1.379h-2.6v-.361h2.908v.6L39.05,41.719h2.375v.361Z" transform="translate(-0.187)"/><g id="L1-5mm"><ellipse id="circle12901-53" class="cls-36" cx="83.423" cy="39.993" rx="2.178" ry="2.192"/><circle id="color_circle1-0" data-name="color circle1-0" class="cls-13" cx="83.348" cy="40.005" r="0.827"/><ellipse id="color_circle2-8" data-name="color circle2-8" class="cls-37" cx="83.456" cy="40.074" rx="4.494" ry="4.489"/><ellipse id="path16388-1" class="cls-38" cx="83.408" cy="40.06" rx="4.752" ry="4.774"/><path id="path12913-9" class="cls-39" d="M82.962,37.429a2.237,2.237,0,0,1,.631-.072,2.917,2.917,0,0,1,.544.054l.224-1.084a3.36,3.36,0,0,0-.768-.077,5.318,5.318,0,0,0-.974.106Zm-1.081-.741a3.812,3.812,0,0,0-2,4.146l1.074-.242a2.376,2.376,0,0,1-.041-.5A2.678,2.678,0,0,1,82.3,37.725Z" transform="translate(-0.187)"/></g><g id="L1-5mm-2" data-name="L1-5mm"><ellipse id="circle12901-53-2" data-name="circle12901-53" class="cls-36" cx="83.423" cy="53.142" rx="2.178" ry="2.192"/><circle id="color_circle1-0-2" data-name="color circle1-0" class="cls-13" cx="83.348" cy="53.154" r="0.827"/><ellipse id="color_circle2-8-2" data-name="color circle2-8" class="cls-37" cx="83.456" cy="53.222" rx="4.494" ry="4.489"/><ellipse id="path16388-1-2" data-name="path16388-1" class="cls-38" cx="83.408" cy="53.208" rx="4.752" ry="4.774"/><path id="path12913-9-2" data-name="path12913-9" class="cls-39" d="M82.962,50.577a2.273,2.273,0,0,1,.631-.071,2.835,2.835,0,0,1,.544.054l.224-1.084a3.36,3.36,0,0,0-.768-.077,5.318,5.318,0,0,0-.974.106Zm-1.081-.74a3.812,3.812,0,0,0-2,4.146l1.074-.243a2.366,2.366,0,0,1-.041-.5,2.68,2.68,0,0,1,1.381-2.37Z" transform="translate(-0.187)"/></g><g id="L1-5mm-3" data-name="L1-5mm"><ellipse id="circle12901-53-3" data-name="circle12901-53" class="cls-36" cx="83.423" cy="26.845" rx="2.178" ry="2.192"/><circle id="color_circle1-0-3" data-name="color circle1-0" class="cls-13" cx="83.348" cy="26.856" r="0.827"/><ellipse id="color_circle2-8-3" data-name="color circle2-8" class="cls-37" cx="83.456" cy="26.925" rx="4.494" ry="4.489"/><ellipse id="path16388-1-3" data-name="path16388-1" class="cls-38" cx="83.408" cy="26.911" rx="4.752" ry="4.774"/><path id="path12913-9-3" data-name="path12913-9" class="cls-39" d="M82.962,24.28a2.273,2.273,0,0,1,.631-.071,2.834,2.834,0,0,1,.544.053l.224-1.084a3.36,3.36,0,0,0-.768-.077,5.319,5.319,0,0,0-.974.107Zm-1.081-.741a3.813,3.813,0,0,0-2,4.147l1.074-.243a2.376,2.376,0,0,1-.041-.5A2.68,2.68,0,0,1,82.3,24.576Z" transform="translate(-0.187)"/></g><g id="L1-5mm-4" data-name="L1-5mm"><ellipse id="circle12901-53-4" data-name="circle12901-53" class="cls-36" cx="83.423" cy="13.696" rx="2.178" ry="2.192"/><circle id="color_circle1-0-4" data-name="color circle1-0" class="cls-13" cx="83.348" cy="13.708" r="0.827"/><ellipse id="color_circle2-8-4" data-name="color circle2-8" class="cls-37" cx="83.456" cy="13.776" rx="4.494" ry="4.489"/><ellipse id="path16388-1-4" data-name="path16388-1" class="cls-38" cx="83.408" cy="13.762" rx="4.752" ry="4.774"/><path id="path12913-9-4" data-name="path12913-9" class="cls-39" d="M82.962,11.131a2.273,2.273,0,0,1,.631-.071,2.834,2.834,0,0,1,.544.053l.224-1.084a3.36,3.36,0,0,0-.768-.077,5.319,5.319,0,0,0-.974.107Zm-1.081-.74a3.811,3.811,0,0,0-2,4.146l1.074-.243a2.376,2.376,0,0,1-.041-.5A2.68,2.68,0,0,1,82.3,11.427Z" transform="translate(-0.187)"/></g><rect class="cls-40" x="14.79" y="10.335" width="7.087" height="52.631"/><rect class="cls-40" x="14.79" y="62.966" width="7.087" height="23.296"/></g><g id="Isolation_Mode" data-name="Isolation Mode"><path class="cls-41" d="M18.522,55.941a2.24,2.24,0,1,1-2.22,2.24A2.226,2.226,0,0,1,18.522,55.941Z" transform="translate(-0.187)"/><ellipse class="cls-42" cx="18.335" cy="58.181" rx="1.52" ry="1.53"/><path class="cls-41" d="M18.522,48.741a2.24,2.24,0,1,1-2.22,2.24A2.226,2.226,0,0,1,18.522,48.741Z" transform="translate(-0.187)"/><ellipse class="cls-42" cx="18.335" cy="50.981" rx="1.52" ry="1.53"/><path class="cls-41" d="M16.892,42.151a2.276,2.276,0,0,1,3.78,2.18,2.218,2.218,0,0,1-1.6,1.6A2.276,2.276,0,0,1,16.892,42.151Z" transform="translate(-0.187)"/><ellipse class="cls-42" cx="18.335" cy="43.781" rx="1.52" ry="1.53"/><g id="breadboard-6" data-name="breadboard"><path class="cls-43" d="M32.747,65.99s5.522-1.758,7.179-1.758c1.593,0,7.883,1.294,7.883,1.294" transform="translate(-0.187)"/></g><ellipse class="cls-44" cx="40.019" cy="65.111" rx="7.195" ry="3.548"/></g></svg>