<?xml version="1.0" encoding="utf-8"?>
<!-- Generator: Adobe Illustrator 24.1.3, SVG Export Plug-In . SVG Version: 6.00 Build 0)  -->
<svg version="1.1" id="Layer_2" xmlns="http://www.w3.org/2000/svg" xmlns:xlink="http://www.w3.org/1999/xlink" x="0px" y="0px"
	 viewBox="0 0 174.62 155.91" style="enable-background:new 0 0 174.62 155.91;" xml:space="preserve">
<style type="text/css">
	.st0{fill:#B0B0B0;}
	.st1{fill:#9A9B9B;}
	.st2{opacity:0.5;fill:url(#Пленка_2_);}
	.st3{fill:#9F9C9C;}
	.st4{fill:#808080;}
	.st5{clip-path:url(#SVGID_2_);}
	.st6{fill:#D0C8BD;}
	.st7{fill:#948C84;}
	.st8{clip-path:url(#SVGID_4_);}
	.st9{fill:#FFFFFF;stroke:#000000;stroke-width:0.1262;stroke-miterlimit:10;}
	.st10{fill:#FFFFFF;stroke:#000000;stroke-width:0.1996;stroke-miterlimit:10;}
	.st11{fill:#666666;}
	.st12{fill:#2F2F2F;}
	.st13{fill:#4C4C4C;}
	.st14{fill:#131314;}
	.st15{fill:#FFFFFF;}
	.st16{fill:#231300;}
	.st17{fill:#E3E3E3;}
	.st18{fill:#B5B5B4;}
	.st19{fill:#CFC7BC;}
	.st20{fill:#964645;}
	.st21{fill:none;stroke:#C9C9C9;stroke-width:0.75;stroke-miterlimit:10;}
	.st22{fill:#36312F;}
	.st23{display:none;fill:#CFD93E;stroke:#F0E935;stroke-width:0.25;stroke-miterlimit:10;}
	.st24{fill:#FFAE46;}
	.st25{fill:#00B05D;}
	.st26{opacity:0.37;fill:none;stroke:#FFFFFF;stroke-width:0.5;stroke-miterlimit:10;}
	.st27{fill:#DF2500;}
	.st28{fill:#B27D51;}
	.st29{fill:none;stroke:#FFFFFF;stroke-width:0.5;stroke-linecap:round;stroke-miterlimit:10;}
	.st30{fill:#CBC5BA;}
	.st31{fill:#363330;}
	.st32{fill:#B2B2B1;}
	.st33{fill:none;stroke:#666666;stroke-width:0.25;stroke-miterlimit:10;}
	.st34{fill:#5E5E5E;}
	.st35{fill:#B7B1A9;}
	.st36{fill:url(#SVGID_5_);}
	.st37{fill:url(#SVGID_6_);}
	.st38{fill:#C1C1C1;}
	.st39{fill:none;}
	.st40{fill:#00AE6E;}
	.st41{fill:none;stroke:#1D5C70;stroke-width:4;stroke-linecap:round;stroke-miterlimit:10;}
	.st42{fill:none;stroke:#1D5C70;stroke-width:4;stroke-miterlimit:10;}
	.st43{fill:none;stroke:#F14943;stroke-width:4;stroke-miterlimit:10;}
	.st44{opacity:0.5;fill:url(#Пленка_3_);}
	.st45{fill:none;stroke:#F14943;stroke-width:4;stroke-linecap:round;stroke-miterlimit:10;}
</style>
<g id="USB_2_">
	
		<rect x="33.31" y="124.13" transform="matrix(-4.302330e-11 -1 1 -4.302330e-11 -92.5038 160.5703)" class="st3" width="1.44" height="4.81"/>
	
		<rect x="33.31" y="122.27" transform="matrix(-4.365568e-11 -1 1 -4.365568e-11 -90.6411 158.7076)" class="st3" width="1.44" height="4.81"/>
	
		<rect x="33.31" y="120.41" transform="matrix(-4.302330e-11 -1 1 -4.302330e-11 -88.7784 156.8448)" class="st3" width="1.44" height="4.81"/>
	
		<rect x="33.31" y="118.54" transform="matrix(-4.302330e-11 -1 1 -4.302330e-11 -86.9157 154.9822)" class="st3" width="1.44" height="4.81"/>
	
		<rect x="33.31" y="116.68" transform="matrix(-4.239003e-11 -1 1 -4.239003e-11 -85.053 153.1195)" class="st3" width="1.44" height="4.81"/>
	<path class="st3" d="M30.25,136.48h-6v-7.56h6V136.48z M24.85,135.52c0,0.39,0.31,0.7,0.7,0.7s0.7-0.31,0.7-0.7s-0.31-0.7-0.7-0.7
		S24.85,135.13,24.85,135.52z M28.43,135.52c0,0.39,0.31,0.7,0.7,0.7s0.7-0.31,0.7-0.7s-0.31-0.7-0.7-0.7S28.43,135.13,28.43,135.52
		z"/>
	<path class="st3" d="M24.25,109.14h6v7.56h-6V109.14z M29.66,110.1c0-0.39-0.31-0.7-0.7-0.7s-0.7,0.31-0.7,0.7s0.31,0.7,0.7,0.7
		S29.66,110.49,29.66,110.1z M26.07,110.1c0-0.39-0.31-0.7-0.7-0.7s-0.7,0.31-0.7,0.7s0.31,0.7,0.7,0.7S26.07,110.49,26.07,110.1z"
		/>
	
		<rect x="17.68" y="116.25" transform="matrix(-4.491867e-11 -1 1 -4.491867e-11 -95.2084 150.4148)" width="19.84" height="13.13"/>
	<path class="st4" d="M19.38,112.15c0.03,0.02,0.07,0.03,0.1,0.03h14.49c0.11,0,0.2,0.09,0.2,0.2v1.06c0,0.11-0.09,0.2-0.2,0.2
		h-1.02c-0.11,0-0.2,0.09-0.2,0.2v1.02c0,0.11,0.09,0.2,0.2,0.2h1.02c0.11,0,0.2,0.09,0.2,0.2v15.18c0,0.11-0.09,0.2-0.2,0.2h-1.02
		c-0.11,0-0.2,0.09-0.2,0.2v1.02c0,0.11,0.09,0.2,0.2,0.2h1.02c0.11,0,0.19,0.09,0.2,0.2v1c0,0.11-0.09,0.19-0.19,0.19H19.48
		c-0.04,0-0.07,0.01-0.1,0.03l-1.65,1v-0.55l1.49-0.9c0.31-0.19,0.31-0.64,0-0.83l-1.39-0.84c-0.06-0.04-0.1-0.1-0.1-0.17v-16.72
		c0-0.07,0.04-0.13,0.1-0.17l1.39-0.84c0.31-0.19,0.31-0.64,0-0.83l-1.49-0.9v-0.55L19.38,112.15z M21.75,129.26
		c-0.39,0-0.71,0.32-0.71,0.71v0.57c0,0.39,0.32,0.71,0.71,0.71h3.4c0.39,0,0.71-0.32,0.71-0.71v-0.57c0-0.39-0.32-0.71-0.71-0.71
		H21.75z M21.75,114.38c-0.39,0-0.71,0.32-0.71,0.71v0.57c0,0.39,0.32,0.71,0.71,0.71h3.4c0.39,0,0.71-0.32,0.71-0.71v-0.57
		c0-0.39-0.32-0.71-0.71-0.71H21.75z"/>
</g>
<g>
	<g id="днище_8_">
		<g>
			<defs>
				<path id="SVGID_1_" d="M160.53,141.6l0,9.79c0,2.35-1.9,4.25-4.25,4.25h-5.67c-2.35,0-4.25-1.9-4.25-4.25v-9.79l0,0.02
					l-99.25-0.02l0,9.79c0,2.35-1.9,4.25-4.25,4.25h-5.67c-2.35,0-4.25-1.9-4.25-4.25v-9.79l-9.95,0l-4.21-3.95V18.02l3.98-3.98
					l10.19,0c0,0,0-9.79,0-9.79c0-2.35,1.9-4.25,4.25-4.25h5.67c2.35,0,4.25,1.9,4.25,4.25l0,9.79v0l99.24,0c0,0,0-9.79,0-9.79
					c0-2.35,1.9-4.25,4.25-4.25h5.67c2.35,0,4.25,1.9,4.25,4.25v9.79v0l10.17,0l3.98,3.98v119.62l-3.98,3.98l-10.17,0"/>
			</defs>
			<clipPath id="SVGID_2_">
				<use xlink:href="#SVGID_1_"  style="overflow:visible;"/>
			</clipPath>
			<path class="st5" d="M174.68,155.64V-0.26H18.77v155.91H174.68z M38.54,142.18c-0.39,0-0.71-0.32-0.71-0.71
				c0-0.39,0.32-0.71,0.71-0.71c0.39,0,0.71,0.32,0.71,0.71C39.25,141.86,38.93,142.18,38.54,142.18z M35.77,142.18
				c-0.39,0-0.71-0.32-0.71-0.71c0-0.39,0.32-0.71,0.71-0.71c0.39,0,0.71,0.32,0.71,0.71C36.48,141.86,36.16,142.18,35.77,142.18z
				 M41.5,142.18c-0.39,0-0.71-0.32-0.71-0.71c0-0.39,0.32-0.71,0.71-0.71s0.71,0.32,0.71,0.71
				C42.21,141.86,41.9,142.18,41.5,142.18z M44.27,142.18c-0.39,0-0.71-0.32-0.71-0.71c0-0.39,0.32-0.71,0.71-0.71
				s0.71,0.32,0.71,0.71C44.98,141.86,44.66,142.18,44.27,142.18z M47.11,142.18c-0.39,0-0.71-0.32-0.71-0.71
				c0-0.39,0.32-0.71,0.71-0.71c0.39,0,0.71,0.32,0.71,0.71C47.82,141.86,47.5,142.18,47.11,142.18z M32.93,142.18
				c-0.39,0-0.71-0.32-0.71-0.71c0-0.39,0.32-0.71,0.71-0.71c0.39,0,0.71,0.32,0.71,0.71C33.64,141.86,33.33,142.18,32.93,142.18z
				 M152.67,14.2c0,0.39-0.32,0.71-0.71,0.71c-0.39,0-0.71-0.32-0.71-0.71s0.32-0.71,0.71-0.71
				C152.35,13.49,152.67,13.81,152.67,14.2z M149.9,14.2c0,0.39-0.32,0.71-0.71,0.71c-0.39,0-0.71-0.32-0.71-0.71
				s0.32-0.71,0.71-0.71C149.58,13.49,149.9,13.81,149.9,14.2z M155.64,14.2c0,0.39-0.32,0.71-0.71,0.71
				c-0.39,0-0.71-0.32-0.71-0.71s0.32-0.71,0.71-0.71C155.32,13.49,155.64,13.81,155.64,14.2z M158.4,14.2
				c0,0.39-0.32,0.71-0.71,0.71s-0.71-0.32-0.71-0.71s0.32-0.71,0.71-0.71S158.4,13.81,158.4,14.2z M161.24,14.2
				c0,0.39-0.32,0.71-0.71,0.71c-0.39,0-0.71-0.32-0.71-0.71s0.32-0.71,0.71-0.71C160.92,13.49,161.24,13.81,161.24,14.2z
				 M147.06,14.2c0,0.39-0.32,0.71-0.71,0.71c-0.39,0-0.71-0.32-0.71-0.71s0.32-0.71,0.71-0.71
				C146.75,13.49,147.06,13.81,147.06,14.2z M39.25,14.2c0,0.39-0.32,0.71-0.71,0.71c-0.39,0-0.71-0.32-0.71-0.71
				s0.32-0.71,0.71-0.71C38.93,13.49,39.25,13.81,39.25,14.2z M36.48,14.2c0,0.39-0.32,0.71-0.71,0.71c-0.39,0-0.71-0.32-0.71-0.71
				s0.32-0.71,0.71-0.71C36.16,13.49,36.48,13.81,36.48,14.2z M42.21,14.2c0,0.39-0.32,0.71-0.71,0.71s-0.71-0.32-0.71-0.71
				s0.32-0.71,0.71-0.71S42.21,13.81,42.21,14.2z M44.98,14.2c0,0.39-0.32,0.71-0.71,0.71s-0.71-0.32-0.71-0.71s0.32-0.71,0.71-0.71
				S44.98,13.81,44.98,14.2z M47.82,14.2c0,0.39-0.32,0.71-0.71,0.71c-0.39,0-0.71-0.32-0.71-0.71s0.32-0.71,0.71-0.71
				C47.5,13.49,47.82,13.81,47.82,14.2z M33.64,14.2c0,0.39-0.32,0.71-0.71,0.71c-0.39,0-0.71-0.32-0.71-0.71s0.32-0.71,0.71-0.71
				C33.33,13.49,33.64,13.81,33.64,14.2z M151.96,142.18c-0.39,0-0.71-0.32-0.71-0.71c0-0.39,0.32-0.71,0.71-0.71
				c0.39,0,0.71,0.32,0.71,0.71C152.67,141.86,152.35,142.18,151.96,142.18z M149.19,142.18c-0.39,0-0.71-0.32-0.71-0.71
				c0-0.39,0.32-0.71,0.71-0.71c0.39,0,0.71,0.32,0.71,0.71C149.9,141.86,149.58,142.18,149.19,142.18z M154.93,142.18
				c-0.39,0-0.71-0.32-0.71-0.71c0-0.39,0.32-0.71,0.71-0.71c0.39,0,0.71,0.32,0.71,0.71C155.64,141.86,155.32,142.18,154.93,142.18
				z M157.7,142.18c-0.39,0-0.71-0.32-0.71-0.71c0-0.39,0.32-0.71,0.71-0.71s0.71,0.32,0.71,0.71
				C158.4,141.86,158.09,142.18,157.7,142.18z M160.53,142.18c-0.39,0-0.71-0.32-0.71-0.71c0-0.39,0.32-0.71,0.71-0.71
				c0.39,0,0.71,0.32,0.71,0.71C161.24,141.86,160.92,142.18,160.53,142.18z M146.36,142.18c-0.39,0-0.71-0.32-0.71-0.71
				c0-0.39,0.32-0.71,0.71-0.71c0.39,0,0.71,0.32,0.71,0.71C147.06,141.86,146.75,142.18,146.36,142.18z M40.02,152.81
				c-2.35,0-4.25-1.9-4.25-4.25s1.9-4.25,4.25-4.25s4.25,1.9,4.25,4.25S42.37,152.81,40.02,152.81z M153.44,152.87
				c-2.35,0-4.25-1.9-4.25-4.25s1.9-4.25,4.25-4.25s4.25,1.9,4.25,4.25S155.79,152.87,153.44,152.87z M153.44,11.31
				c-2.35,0-4.25-1.9-4.25-4.25s1.9-4.25,4.25-4.25s4.25,1.9,4.25,4.25S155.79,11.31,153.44,11.31z M40.03,11.37
				c-2.35,0-4.25-1.9-4.25-4.25s1.9-4.25,4.25-4.25s4.25,1.9,4.25,4.25S42.38,11.37,40.03,11.37z M105.13,99.94
				c0-0.7,0.56-1.26,1.26-1.26c0.7,0,1.26,0.56,1.26,1.26c0,0.7-0.56,1.26-1.26,1.26C105.69,101.2,105.13,100.64,105.13,99.94z
				 M105.13,103.54c0-0.7,0.56-1.26,1.26-1.26c0.7,0,1.26,0.56,1.26,1.26s-0.56,1.26-1.26,1.26
				C105.69,104.8,105.13,104.24,105.13,103.54z M108.82,99.94c0-0.7,0.56-1.26,1.26-1.26c0.7,0,1.26,0.56,1.26,1.26
				c0,0.7-0.56,1.26-1.26,1.26C109.38,101.2,108.82,100.64,108.82,99.94z M108.82,103.54c0-0.7,0.56-1.26,1.26-1.26
				c0.7,0,1.26,0.56,1.26,1.26s-0.56,1.26-1.26,1.26C109.38,104.8,108.82,104.24,108.82,103.54z M112.39,99.94
				c0-0.7,0.56-1.26,1.26-1.26c0.7,0,1.26,0.56,1.26,1.26c0,0.7-0.56,1.26-1.26,1.26C112.95,101.2,112.39,100.64,112.39,99.94z
				 M112.39,103.54c0-0.7,0.56-1.26,1.26-1.26c0.7,0,1.26,0.56,1.26,1.26s-0.56,1.26-1.26,1.26
				C112.95,104.8,112.39,104.24,112.39,103.54z"/>
		</g>
	</g>
</g>
<g>
	<path class="st6" d="M68.71,135.51c-1.23,0-2.22,1-2.22,2.24c0,1.24,1,2.24,2.22,2.24s2.22-1,2.22-2.24
		C70.93,136.51,69.94,135.51,68.71,135.51z"/>
	<ellipse class="st7" cx="68.71" cy="137.75" rx="1.52" ry="1.53"/>
</g>
<g>
	<path class="st6" d="M83.86,135.51c-1.23,0-2.22,1-2.22,2.24c0,1.24,1,2.24,2.22,2.24s2.22-1,2.22-2.24
		C86.09,136.51,85.09,135.51,83.86,135.51z"/>
	<ellipse class="st7" cx="83.86" cy="137.75" rx="1.52" ry="1.53"/>
</g>
<g>
	<g>
		<rect x="9.11" y="19.96" class="st0" width="14.68" height="109.55"/>
		<path class="st1" d="M23.29,20.46v108.55H9.61V20.46H23.29 M24.29,19.46H8.61v110.55h15.68V19.46L24.29,19.46z"/>
	</g>
	<g>
		<path class="st38" d="M24.93,129.51c-1.46,0-2.65-1.19-2.65-2.65V22.61c0-1.46,1.19-2.65,2.65-2.65h144.94
			c1.46,0,2.65,1.19,2.65,2.65v104.25c0,1.46-1.19,2.65-2.65,2.65H24.93z"/>
		<path class="st1" d="M169.88,20.46c1.19,0,2.15,0.97,2.15,2.15v104.25c0,1.19-0.97,2.15-2.15,2.15H24.93
			c-1.19,0-2.15-0.97-2.15-2.15V22.61c0-1.19,0.97-2.15,2.15-2.15H169.88 M169.88,19.46H24.93c-1.74,0-3.15,1.41-3.15,3.15v104.25
			c0,1.74,1.41,3.15,3.15,3.15h144.94c1.74,0,3.15-1.41,3.15-3.15V22.61C173.03,20.87,171.62,19.46,169.88,19.46L169.88,19.46z"/>
	</g>
	<g>
		<rect x="61.19" y="85.49" class="st39" width="129.56" height="31.22"/>
		<path class="st16" d="M67.3,91.57h-1.34l-0.53-1.38H63l-0.5,1.38h-1.3l2.37-6.08h1.3L67.3,91.57z M65.04,89.16l-0.84-2.26
			l-0.82,2.26H65.04z"/>
		<path class="st16" d="M67.91,87.16H69v0.65c0.14-0.22,0.33-0.4,0.57-0.54c0.24-0.14,0.51-0.21,0.8-0.21c0.51,0,0.95,0.2,1.3,0.6
			s0.54,0.96,0.54,1.68c0,0.74-0.18,1.31-0.54,1.72c-0.36,0.41-0.8,0.61-1.31,0.61c-0.24,0-0.46-0.05-0.66-0.15
			c-0.2-0.1-0.41-0.26-0.62-0.5v2.22h-1.17V87.16z M69.06,89.29c0,0.5,0.1,0.86,0.29,1.1s0.44,0.35,0.72,0.35
			c0.27,0,0.5-0.11,0.68-0.33c0.18-0.22,0.27-0.57,0.27-1.07c0-0.46-0.09-0.8-0.28-1.03c-0.19-0.22-0.42-0.34-0.69-0.34
			c-0.29,0-0.52,0.11-0.71,0.33C69.16,88.54,69.06,88.86,69.06,89.29z"/>
		<path class="st16" d="M72.5,87.16h3.99v0.94h-1.41v3.47h-1.17v-3.47H72.5V87.16z"/>
		<path class="st16" d="M76.44,91.57v-1.17h1.17v1.17H76.44z"/>
		<path class="st16" d="M79.02,88.33v-1.17h1.17v1.17H79.02z M79.02,91.57v-1.17h1.17v1.17H79.02z"/>
		<path class="st16" d="M84.03,91.57v-6.03h1.23v5.01h3.05v1.03H84.03z"/>
		<path class="st16" d="M89.19,91.57v-6.08h1.97c0.75,0,1.23,0.03,1.46,0.09c0.35,0.09,0.64,0.29,0.88,0.6
			c0.23,0.31,0.35,0.7,0.35,1.18c0,0.37-0.07,0.69-0.2,0.94c-0.14,0.25-0.31,0.46-0.52,0.6c-0.21,0.15-0.42,0.24-0.64,0.29
			c-0.29,0.06-0.72,0.09-1.27,0.09h-0.8v2.29H89.19z M90.42,86.52v1.73h0.67c0.48,0,0.81-0.03,0.97-0.1
			c0.16-0.06,0.29-0.16,0.38-0.3s0.14-0.29,0.14-0.47c0-0.22-0.07-0.4-0.2-0.55c-0.13-0.14-0.29-0.23-0.49-0.27
			c-0.15-0.03-0.44-0.04-0.88-0.04H90.42z"/>
		<path class="st16" d="M94.29,91.57l1.59-2.27l-1.52-2.14h1.42l0.78,1.21l0.82-1.21h1.37l-1.49,2.09l1.63,2.32h-1.43l-0.9-1.37
			l-0.9,1.37H94.29z"/>
		<path class="st16" d="M99.02,91.57l1.59-2.27l-1.52-2.14h1.42l0.78,1.21l0.82-1.21h1.37l-1.49,2.09l1.63,2.32h-1.43l-0.9-1.37
			l-0.91,1.37H99.02z"/>
		<path class="st16" d="M103.75,91.57l1.59-2.27l-1.52-2.14h1.42l0.78,1.21l0.82-1.21h1.37l-1.49,2.09l1.63,2.32h-1.43l-0.9-1.37
			l-0.91,1.37H103.75z"/>
		<path class="st16" d="M108.48,91.57l1.59-2.27l-1.52-2.14h1.42l0.78,1.21l0.82-1.21h1.37l-1.49,2.09l1.63,2.32h-1.43l-0.9-1.37
			l-0.91,1.37H108.48z"/>
		<path class="st16" d="M113.2,91.57l1.59-2.27l-1.52-2.14h1.42l0.78,1.21l0.82-1.21h1.37l-1.49,2.09l1.63,2.32h-1.43l-0.9-1.37
			l-0.91,1.37H113.2z"/>
		<path class="st16" d="M117.93,91.57l1.59-2.27L118,87.16h1.42l0.78,1.21l0.82-1.21h1.37l-1.49,2.09l1.63,2.32h-1.43l-0.9-1.37
			l-0.91,1.37H117.93z"/>
		<path class="st16" d="M122.66,91.57l1.59-2.27l-1.52-2.14h1.42l0.78,1.21l0.82-1.21h1.37l-1.49,2.09l1.63,2.32h-1.43l-0.9-1.37
			l-0.91,1.37H122.66z"/>
		<path class="st16" d="M127.39,91.57l1.59-2.27l-1.52-2.14h1.42l0.78,1.21l0.82-1.21h1.37l-1.49,2.09l1.63,2.32h-1.43l-0.9-1.37
			l-0.91,1.37H127.39z"/>
		<path class="st16" d="M61.82,101.77v-6.08h0.81v5.37h3v0.72H61.82z"/>
		<path class="st16" d="M66.49,96.55v-0.86h0.75v0.86H66.49z M66.49,101.77v-4.41h0.75v4.41H66.49z"/>
		<path class="st16" d="M68.08,99.95v-0.75h2.3v0.75H68.08z"/>
		<path class="st16" d="M71.3,101.77v-6.08h2.3c0.4,0,0.71,0.02,0.93,0.06c0.3,0.05,0.55,0.14,0.75,0.28
			c0.2,0.14,0.36,0.34,0.49,0.59s0.18,0.53,0.18,0.83c0,0.52-0.16,0.96-0.49,1.31s-0.92,0.54-1.78,0.54H72.1v2.47H71.3z M72.1,98.58
			h1.57c0.52,0,0.89-0.1,1.11-0.29c0.22-0.19,0.33-0.47,0.33-0.82c0-0.25-0.06-0.47-0.19-0.65c-0.13-0.18-0.3-0.3-0.51-0.36
			c-0.14-0.04-0.39-0.05-0.75-0.05H72.1V98.58z"/>
		<path class="st16" d="M76.59,99.57c0-0.82,0.23-1.42,0.68-1.81c0.38-0.33,0.84-0.49,1.39-0.49c0.61,0,1.1,0.2,1.49,0.6
			c0.38,0.4,0.58,0.95,0.58,1.65c0,0.57-0.09,1.01-0.26,1.34c-0.17,0.33-0.42,0.58-0.74,0.76s-0.68,0.27-1.06,0.27
			c-0.62,0-1.12-0.2-1.5-0.59C76.78,100.88,76.59,100.31,76.59,99.57z M77.36,99.57c0,0.56,0.12,0.99,0.37,1.27
			c0.25,0.28,0.56,0.42,0.93,0.42c0.37,0,0.68-0.14,0.93-0.42c0.25-0.28,0.37-0.71,0.37-1.29c0-0.54-0.12-0.96-0.37-1.24
			c-0.25-0.28-0.56-0.42-0.92-0.42c-0.37,0-0.68,0.14-0.93,0.42S77.36,99,77.36,99.57z"/>
		<path class="st16" d="M86.84,101.23c-0.28,0.24-0.54,0.4-0.8,0.5c-0.26,0.1-0.53,0.15-0.82,0.15c-0.48,0-0.86-0.12-1.12-0.35
			s-0.39-0.54-0.39-0.91c0-0.22,0.05-0.41,0.15-0.59c0.1-0.18,0.23-0.32,0.39-0.43c0.16-0.11,0.34-0.19,0.54-0.25
			c0.15-0.04,0.37-0.08,0.66-0.11c0.6-0.07,1.05-0.16,1.33-0.26c0-0.1,0-0.17,0-0.2c0-0.3-0.07-0.52-0.21-0.64
			c-0.19-0.17-0.47-0.25-0.85-0.25c-0.35,0-0.61,0.06-0.78,0.18s-0.29,0.34-0.37,0.65l-0.73-0.1c0.07-0.31,0.18-0.56,0.33-0.76
			s0.37-0.34,0.66-0.44c0.29-0.1,0.62-0.16,1-0.16c0.38,0,0.68,0.04,0.92,0.13c0.24,0.09,0.41,0.2,0.52,0.33
			c0.11,0.13,0.19,0.3,0.23,0.51c0.02,0.13,0.04,0.36,0.04,0.69v1c0,0.69,0.02,1.13,0.05,1.32c0.03,0.18,0.09,0.36,0.19,0.53h-0.78
			C86.91,101.62,86.86,101.44,86.84,101.23z M86.77,99.56c-0.27,0.11-0.68,0.21-1.22,0.28c-0.31,0.04-0.52,0.09-0.65,0.15
			s-0.23,0.14-0.29,0.24c-0.07,0.11-0.1,0.22-0.1,0.35c0,0.2,0.08,0.37,0.23,0.5s0.37,0.2,0.66,0.2c0.29,0,0.54-0.06,0.77-0.19
			c0.22-0.13,0.39-0.3,0.49-0.52c0.08-0.17,0.12-0.42,0.12-0.75V99.56z"/>
		<path class="st16" d="M88.68,97.36h0.75v1.9c0.24,0,0.4-0.04,0.5-0.14c0.1-0.09,0.24-0.36,0.42-0.8c0.15-0.35,0.27-0.58,0.36-0.69
			c0.09-0.11,0.2-0.19,0.32-0.22c0.12-0.04,0.31-0.06,0.57-0.06h0.15v0.62l-0.21,0c-0.2,0-0.32,0.03-0.38,0.09
			c-0.06,0.06-0.15,0.24-0.27,0.54c-0.11,0.29-0.22,0.49-0.31,0.6c-0.09,0.11-0.24,0.21-0.44,0.3c0.32,0.09,0.64,0.38,0.95,0.9
			l0.82,1.37h-0.82l-0.8-1.37c-0.16-0.27-0.31-0.45-0.43-0.54c-0.12-0.09-0.27-0.13-0.44-0.13v2.04h-0.75V97.36z"/>
		<path class="st16" d="M92.4,97.36h0.75v1.9c0.24,0,0.4-0.04,0.5-0.14c0.1-0.09,0.24-0.36,0.42-0.8c0.15-0.35,0.27-0.58,0.36-0.69
			c0.09-0.11,0.2-0.19,0.32-0.22c0.12-0.04,0.31-0.06,0.57-0.06h0.15v0.62l-0.21,0c-0.2,0-0.32,0.03-0.38,0.09
			c-0.06,0.06-0.15,0.24-0.27,0.54c-0.11,0.29-0.22,0.49-0.31,0.6c-0.09,0.11-0.24,0.21-0.44,0.3c0.32,0.09,0.64,0.38,0.95,0.9
			l0.82,1.37h-0.82l-0.8-1.37c-0.16-0.27-0.31-0.45-0.43-0.54c-0.12-0.09-0.27-0.13-0.44-0.13v2.04H92.4V97.36z"/>
		<path class="st16" d="M96.19,103.47l-0.08-0.7c0.16,0.04,0.31,0.07,0.43,0.07c0.17,0,0.3-0.03,0.4-0.08
			c0.1-0.05,0.18-0.13,0.24-0.23c0.05-0.07,0.12-0.26,0.23-0.56c0.01-0.04,0.04-0.1,0.07-0.18l-1.67-4.42h0.81l0.92,2.55
			c0.12,0.32,0.23,0.66,0.32,1.02c0.09-0.34,0.19-0.68,0.31-1l0.94-2.57h0.75l-1.68,4.48c-0.18,0.48-0.32,0.82-0.42,1
			c-0.13,0.25-0.28,0.43-0.46,0.54c-0.17,0.11-0.38,0.17-0.61,0.17C96.52,103.56,96.36,103.53,96.19,103.47z"/>
		<path class="st16" d="M100.39,97.36h1.16l1.16,3.53l1.29-3.53h1.08v4.41h-0.75v-3.55l-1.3,3.55h-0.67l-1.23-3.72v3.72h-0.73V97.36
			z"/>
		<path class="st16" d="M106.28,103.47l-0.08-0.7c0.16,0.04,0.31,0.07,0.43,0.07c0.17,0,0.3-0.03,0.4-0.08
			c0.1-0.05,0.18-0.13,0.24-0.23c0.05-0.07,0.12-0.26,0.23-0.56c0.01-0.04,0.04-0.1,0.07-0.18l-1.67-4.42h0.81l0.92,2.55
			c0.12,0.32,0.23,0.66,0.32,1.02c0.09-0.34,0.19-0.68,0.31-1l0.94-2.57h0.75l-1.68,4.48c-0.18,0.48-0.32,0.82-0.42,1
			c-0.13,0.25-0.28,0.43-0.46,0.54c-0.17,0.11-0.38,0.17-0.61,0.17C106.62,103.56,106.46,103.53,106.28,103.47z"/>
		<path class="st16" d="M110.74,97.36h3.47v4.41h-0.74v-3.79h-1.98v2.2c0,0.51-0.02,0.85-0.05,1.01s-0.13,0.31-0.27,0.43
			s-0.37,0.18-0.65,0.18c-0.17,0-0.38-0.01-0.6-0.03v-0.62h0.33c0.15,0,0.27-0.02,0.33-0.05c0.07-0.03,0.11-0.08,0.13-0.15
			c0.02-0.07,0.03-0.29,0.03-0.68V97.36z"/>
		<path class="st16" d="M118.81,97.36v4.41h-0.74v-1.72h-0.43c-0.26,0-0.46,0.03-0.59,0.1c-0.13,0.07-0.32,0.29-0.56,0.65
			l-0.65,0.96h-0.92l0.8-1.19c0.25-0.36,0.49-0.57,0.73-0.61c-0.43-0.06-0.74-0.21-0.95-0.46s-0.31-0.54-0.31-0.86
			c0-0.38,0.13-0.69,0.4-0.93c0.27-0.24,0.66-0.36,1.17-0.36H118.81z M118.06,97.98H117c-0.45,0-0.73,0.07-0.86,0.21
			c-0.13,0.14-0.19,0.3-0.19,0.49c0,0.26,0.09,0.46,0.28,0.58s0.53,0.18,1.01,0.18h0.83V97.98z"/>
		<path class="st16" d="M119.54,97.36h3.58v0.62h-1.42v3.79h-0.74v-3.79h-1.42V97.36z"/>
		<path class="st16" d="M123.46,99.57c0-0.82,0.23-1.42,0.68-1.81c0.38-0.33,0.84-0.49,1.39-0.49c0.61,0,1.1,0.2,1.49,0.6
			c0.38,0.4,0.58,0.95,0.58,1.65c0,0.57-0.08,1.01-0.25,1.34c-0.17,0.33-0.42,0.58-0.74,0.76s-0.68,0.27-1.06,0.27
			c-0.62,0-1.12-0.2-1.5-0.59C123.65,100.88,123.46,100.31,123.46,99.57z M124.23,99.57c0,0.56,0.12,0.99,0.37,1.27
			c0.25,0.28,0.56,0.42,0.93,0.42c0.37,0,0.68-0.14,0.92-0.42c0.25-0.28,0.37-0.71,0.37-1.29c0-0.54-0.12-0.96-0.37-1.24
			c-0.25-0.28-0.55-0.42-0.92-0.42c-0.37,0-0.68,0.14-0.93,0.42S124.23,99,124.23,99.57z"/>
		<path class="st16" d="M128.46,103.46v-6.1h0.68v0.57c0.16-0.22,0.34-0.39,0.54-0.5s0.45-0.17,0.73-0.17c0.38,0,0.71,0.1,1,0.29
			c0.29,0.19,0.5,0.47,0.65,0.82c0.15,0.35,0.22,0.74,0.22,1.16c0,0.45-0.08,0.86-0.24,1.22s-0.4,0.64-0.71,0.83
			s-0.63,0.29-0.97,0.29c-0.25,0-0.47-0.05-0.67-0.16c-0.2-0.11-0.36-0.24-0.49-0.4v2.15H128.46z M129.14,99.59
			c0,0.57,0.11,0.99,0.34,1.26c0.23,0.27,0.51,0.41,0.83,0.41c0.33,0,0.62-0.14,0.85-0.42c0.24-0.28,0.35-0.72,0.35-1.31
			c0-0.56-0.12-0.98-0.35-1.26c-0.23-0.28-0.51-0.42-0.83-0.42c-0.32,0-0.6,0.15-0.84,0.45C129.26,98.59,129.14,99.03,129.14,99.59z
			"/>
		<path class="st16" d="M61.55,110.37l0.75-0.1c0.09,0.42,0.23,0.73,0.44,0.92s0.46,0.28,0.75,0.28c0.35,0,0.65-0.12,0.89-0.37
			s0.36-0.54,0.36-0.9c0-0.34-0.11-0.63-0.34-0.85s-0.51-0.33-0.85-0.33c-0.14,0-0.32,0.03-0.53,0.08l0.08-0.66
			c0.05,0,0.09,0.01,0.12,0.01c0.32,0,0.6-0.08,0.86-0.25c0.25-0.17,0.38-0.42,0.38-0.77c0-0.27-0.09-0.5-0.28-0.68
			s-0.42-0.27-0.72-0.27c-0.29,0-0.53,0.09-0.73,0.27s-0.32,0.46-0.37,0.82l-0.75-0.13c0.09-0.5,0.3-0.89,0.62-1.16
			s0.73-0.41,1.21-0.41c0.33,0,0.64,0.07,0.92,0.21s0.49,0.34,0.64,0.58s0.22,0.51,0.22,0.78c0,0.26-0.07,0.5-0.21,0.72
			c-0.14,0.22-0.35,0.39-0.63,0.51c0.36,0.08,0.64,0.26,0.84,0.52c0.2,0.26,0.3,0.59,0.3,0.98c0,0.53-0.19,0.98-0.58,1.35
			s-0.88,0.55-1.47,0.55c-0.53,0-0.98-0.16-1.33-0.48C61.8,111.28,61.6,110.87,61.55,110.37z"/>
		<path class="st16" d="M66.68,111.97v-0.85h0.85v0.85c0,0.31-0.06,0.56-0.17,0.76c-0.11,0.19-0.29,0.34-0.53,0.45l-0.21-0.32
			c0.16-0.07,0.27-0.17,0.35-0.3c0.07-0.13,0.12-0.33,0.12-0.58H66.68z"/>
		<path class="st16" d="M68.68,106.68v-0.72h3.94v0.58c-0.39,0.41-0.77,0.96-1.15,1.64s-0.67,1.39-0.88,2.11
			c-0.15,0.51-0.25,1.07-0.29,1.67h-0.77c0.01-0.48,0.1-1.06,0.28-1.74s0.44-1.33,0.77-1.96c0.34-0.63,0.69-1.16,1.07-1.59H68.68z"
			/>
		<path class="st16" d="M73.63,111.97v-6.08h2.28c0.46,0,0.84,0.06,1.12,0.18s0.5,0.31,0.66,0.57s0.24,0.52,0.24,0.8
			c0,0.26-0.07,0.5-0.21,0.73c-0.14,0.23-0.35,0.42-0.64,0.56c0.37,0.11,0.65,0.29,0.85,0.55s0.3,0.57,0.3,0.92
			c0,0.28-0.06,0.55-0.18,0.79c-0.12,0.25-0.27,0.43-0.45,0.57s-0.4,0.23-0.67,0.3c-0.27,0.07-0.59,0.1-0.98,0.1H73.63z
			 M74.44,108.44h1.32c0.36,0,0.61-0.02,0.77-0.07c0.2-0.06,0.36-0.16,0.46-0.3c0.1-0.14,0.16-0.32,0.16-0.53
			c0-0.2-0.05-0.38-0.15-0.53c-0.1-0.15-0.24-0.26-0.42-0.32s-0.49-0.08-0.93-0.08h-1.22V108.44z M74.44,111.25h1.51
			c0.26,0,0.44-0.01,0.55-0.03c0.19-0.03,0.34-0.09,0.46-0.17c0.13-0.08,0.23-0.19,0.31-0.34c0.08-0.15,0.12-0.32,0.12-0.51
			c0-0.23-0.06-0.42-0.17-0.59c-0.12-0.17-0.28-0.29-0.48-0.35c-0.21-0.07-0.5-0.1-0.89-0.1h-1.41V111.25z"/>
		<path class="st16" d="M81.4,110.37l0.75-0.1c0.09,0.42,0.23,0.73,0.44,0.92s0.46,0.28,0.75,0.28c0.35,0,0.65-0.12,0.89-0.37
			s0.36-0.54,0.36-0.9c0-0.34-0.11-0.63-0.34-0.85s-0.51-0.33-0.85-0.33c-0.14,0-0.32,0.03-0.53,0.08l0.08-0.66
			c0.05,0,0.09,0.01,0.12,0.01c0.32,0,0.6-0.08,0.86-0.25c0.25-0.17,0.38-0.42,0.38-0.77c0-0.27-0.09-0.5-0.28-0.68
			s-0.42-0.27-0.72-0.27c-0.29,0-0.53,0.09-0.73,0.27s-0.32,0.46-0.37,0.82l-0.75-0.13c0.09-0.5,0.3-0.89,0.62-1.16
			s0.73-0.41,1.21-0.41c0.33,0,0.64,0.07,0.92,0.21s0.49,0.34,0.64,0.58s0.22,0.51,0.22,0.78c0,0.26-0.07,0.5-0.21,0.72
			c-0.14,0.22-0.35,0.39-0.63,0.51c0.36,0.08,0.64,0.26,0.84,0.52c0.2,0.26,0.3,0.59,0.3,0.98c0,0.53-0.19,0.98-0.58,1.35
			s-0.88,0.55-1.47,0.55c-0.53,0-0.98-0.16-1.33-0.48C81.65,111.28,81.45,110.87,81.4,110.37z"/>
		<path class="st16" d="M90.05,111.25v0.72h-4.02c-0.01-0.18,0.02-0.35,0.09-0.52c0.1-0.27,0.27-0.54,0.49-0.81s0.55-0.57,0.98-0.92
			c0.66-0.54,1.11-0.97,1.34-1.29c0.23-0.32,0.35-0.62,0.35-0.9c0-0.3-0.11-0.55-0.32-0.75c-0.21-0.2-0.49-0.3-0.83-0.3
			c-0.36,0-0.65,0.11-0.86,0.32s-0.33,0.51-0.33,0.9l-0.77-0.08c0.05-0.57,0.25-1.01,0.59-1.31c0.34-0.3,0.8-0.45,1.38-0.45
			c0.58,0,1.05,0.16,1.39,0.49c0.34,0.32,0.51,0.72,0.51,1.2c0,0.24-0.05,0.48-0.15,0.72s-0.26,0.48-0.5,0.74
			c-0.23,0.26-0.62,0.62-1.15,1.07c-0.45,0.38-0.74,0.63-0.86,0.77c-0.13,0.13-0.23,0.27-0.32,0.41H90.05z"/>
		<path class="st16" d="M90.85,108.97c0-0.72,0.07-1.3,0.22-1.74s0.37-0.78,0.66-1.01c0.29-0.24,0.66-0.36,1.1-0.36
			c0.33,0,0.61,0.07,0.86,0.2c0.25,0.13,0.45,0.32,0.61,0.57c0.16,0.25,0.29,0.55,0.38,0.9s0.14,0.83,0.14,1.44
			c0,0.71-0.07,1.29-0.22,1.73s-0.37,0.78-0.66,1.02s-0.66,0.36-1.11,0.36c-0.59,0-1.05-0.21-1.38-0.63
			C91.05,110.94,90.85,110.11,90.85,108.97z M91.62,108.97c0,1,0.12,1.66,0.35,1.99c0.23,0.33,0.52,0.5,0.87,0.5
			c0.34,0,0.63-0.17,0.87-0.5s0.35-1,0.35-1.99c0-1-0.12-1.67-0.35-2s-0.53-0.49-0.87-0.49c-0.34,0-0.62,0.15-0.82,0.44
			C91.75,107.29,91.62,107.97,91.62,108.97z"/>
		<path class="st16" d="M95.58,108.97c0-0.72,0.07-1.3,0.22-1.74s0.37-0.78,0.66-1.01c0.29-0.24,0.66-0.36,1.1-0.36
			c0.33,0,0.61,0.07,0.86,0.2c0.25,0.13,0.45,0.32,0.61,0.57c0.16,0.25,0.29,0.55,0.38,0.9c0.09,0.36,0.14,0.83,0.14,1.44
			c0,0.71-0.07,1.29-0.22,1.73s-0.37,0.78-0.66,1.02s-0.66,0.36-1.11,0.36c-0.59,0-1.05-0.21-1.38-0.63
			C95.78,110.94,95.58,110.11,95.58,108.97z M96.34,108.97c0,1,0.12,1.66,0.35,1.99c0.23,0.33,0.52,0.5,0.87,0.5s0.63-0.17,0.87-0.5
			c0.23-0.33,0.35-1,0.35-1.99c0-1-0.12-1.67-0.35-2c-0.23-0.33-0.53-0.49-0.87-0.49c-0.34,0-0.62,0.15-0.82,0.44
			C96.47,107.29,96.34,107.97,96.34,108.97z"/>
		<path class="st16" d="M100.53,107.56h1.16l1.16,3.53l1.29-3.53h1.08v4.41h-0.75v-3.55l-1.3,3.55h-0.67l-1.23-3.72v3.72h-0.73
			V107.56z"/>
		<path class="st16" d="M105.78,111.97l2.34-6.08h0.87l2.49,6.08h-0.92l-0.71-1.84h-2.54l-0.67,1.84H105.78z M107.54,109.47h2.06
			l-0.63-1.68c-0.19-0.51-0.34-0.93-0.43-1.26c-0.08,0.39-0.19,0.78-0.33,1.16L107.54,109.47z"/>
		<path class="st16" d="M111.75,107.56h0.75v0.83c0,0.36,0.02,0.62,0.06,0.78c0.04,0.16,0.15,0.3,0.31,0.42
			c0.16,0.12,0.37,0.18,0.61,0.18c0.28,0,0.65-0.07,1.1-0.22v-2h0.75v4.41h-0.75v-1.78c-0.46,0.14-0.89,0.22-1.29,0.22
			c-0.33,0-0.63-0.08-0.89-0.26c-0.26-0.17-0.43-0.38-0.52-0.62c-0.09-0.25-0.14-0.52-0.14-0.81V107.56z"/>
	</g>
	
		<rect x="-27.9" y="69.1" transform="matrix(6.123234e-17 -1 1 6.123234e-17 -60.1553 89.3857)" class="st40" width="85.04" height="11.34"/>
	<polygon class="st4" points="12.12,104.46 8.61,104.46 8.61,115.8 12.12,115.8 20.62,115.8 20.62,93.12 12.12,93.12 	"/>
	
		<rect x="12.12" y="76.93" transform="matrix(6.123234e-17 -1 1 6.123234e-17 -64.8167 97.5521)" class="st4" width="8.5" height="8.5"/>
	
		<rect x="12.12" y="64.04" transform="matrix(6.123234e-17 -1 1 6.123234e-17 -51.9206 84.6559)" class="st4" width="8.5" height="8.5"/>
	<g>
		<rect x="10.36" y="85.44" class="st39" width="4.25" height="2.83"/>
		<path class="st15" d="M12.84,87.11h0.96c0.15,0,0.27,0.04,0.35,0.13c0.08,0.09,0.13,0.21,0.13,0.36c0,0.15-0.04,0.27-0.13,0.35
			c-0.08,0.09-0.2,0.13-0.35,0.13h-0.97v-0.05h0.96c0.13,0,0.24-0.04,0.31-0.12s0.12-0.18,0.12-0.31s-0.04-0.24-0.12-0.31
			c-0.08-0.08-0.18-0.12-0.31-0.12h-0.96V87.11z"/>
		<path class="st15" d="M13.58,86.35v-0.47h0.05v0.47h0.49v0.05h-0.49v0.45h-0.05v-0.45h-0.49v-0.05H13.58z"/>
	</g>
	<g>
		<rect x="10.36" y="72.54" class="st39" width="4.25" height="2.83"/>
		<path class="st15" d="M12.84,74.21h0.96c0.15,0,0.27,0.04,0.35,0.13s0.13,0.21,0.13,0.35s-0.04,0.27-0.13,0.35
			s-0.2,0.13-0.35,0.13h-0.97v-0.05h0.96c0.13,0,0.24-0.04,0.31-0.12c0.08-0.08,0.12-0.18,0.12-0.31s-0.04-0.24-0.12-0.31
			s-0.18-0.12-0.31-0.12h-0.96V74.21z"/>
		<path class="st15" d="M13.64,73.51v0.46h-0.05v-0.46H13.64z"/>
	</g>
	<g>
		<rect x="14.62" y="90.43" class="st39" width="4.25" height="2.69"/>
		<path class="st15" d="M17.12,92.57h-1.42v-0.37c0-0.15,0.03-0.27,0.09-0.35c0.06-0.08,0.15-0.12,0.27-0.12
			c0.09,0,0.16,0.02,0.21,0.07s0.09,0.11,0.11,0.18c0.01-0.09,0.05-0.17,0.12-0.22s0.14-0.09,0.23-0.09c0.12,0,0.22,0.04,0.29,0.12
			c0.07,0.08,0.1,0.19,0.1,0.33V92.57z M16.36,92.52v-0.34c0-0.13-0.02-0.23-0.07-0.29s-0.13-0.1-0.23-0.1c-0.2,0-0.3,0.13-0.31,0.4
			v0.33H16.36z M16.41,92.52h0.65V92.1c0-0.12-0.03-0.21-0.09-0.28c-0.06-0.07-0.14-0.1-0.25-0.1c-0.09,0-0.16,0.03-0.22,0.1
			s-0.09,0.16-0.09,0.27V92.52z"/>
		<path class="st15" d="M16.43,90.98v-0.47h0.05v0.47h0.49v0.05h-0.49v0.45h-0.05v-0.45h-0.49v-0.05H16.43z"/>
	</g>
	<g>
		<rect x="14.62" y="56.42" class="st39" width="4.25" height="2.69"/>
		<path class="st15" d="M17.12,58.91h-1.42v-0.37c0-0.15,0.03-0.27,0.09-0.35c0.06-0.08,0.15-0.12,0.27-0.12
			c0.09,0,0.16,0.02,0.21,0.07s0.09,0.11,0.11,0.18c0.01-0.09,0.05-0.17,0.12-0.22s0.14-0.09,0.23-0.09c0.12,0,0.22,0.04,0.29,0.12
			c0.07,0.08,0.1,0.19,0.1,0.33V58.91z M16.36,58.86v-0.34c0-0.13-0.02-0.23-0.07-0.29s-0.13-0.1-0.23-0.1c-0.2,0-0.3,0.13-0.31,0.4
			v0.33H16.36z M16.41,58.86h0.65v-0.41c0-0.12-0.03-0.21-0.09-0.28c-0.06-0.07-0.14-0.1-0.25-0.1c-0.09,0-0.16,0.03-0.22,0.1
			s-0.09,0.16-0.09,0.27V58.86z"/>
		<path class="st15" d="M16.43,57.33v-0.47h0.05v0.47h0.49v0.05h-0.49v0.45h-0.05v-0.45h-0.49v-0.05H16.43z"/>
	</g>
	<polygon class="st4" points="8.61,45.08 12.12,45.08 12.12,56.42 20.62,56.42 20.62,33.74 12.12,33.74 8.61,33.74 	"/>
	<circle class="st4" cx="135.31" cy="132.81" r="2.8"/>
	<path class="st41" d="M62.06,136.44c2.29,0,4.73-0.23,6.65,1.31"/>
	<circle class="st4" cx="125.98" cy="132.81" r="2.8"/>
	<path class="st42" d="M15.51,68.28c1.98,0-0.76,0.01-0.76,0.01l-3.46,0c-5.8,0-5.65,6.21-5.65,6.21l0,53.03
		c0,8.92,8.06,8.92,8.06,8.92l48.37,0"/>
	<path class="st43" d="M14.85,81.18c1.61,0,0.83,0,0.83,0H14.85c-5.75,0-5.65,5.65-5.65,5.65s0,34.47,0,40.27
		c0,5.8,5.65,5.65,5.65,5.65l47.21,0"/>
	
		<linearGradient id="Пленка_2_" gradientUnits="userSpaceOnUse" x1="-237.8771" y1="-26.5931" x2="-237.8771" y2="8.621" gradientTransform="matrix(0 -1 1 0 29.6057 -163.1408)">
		<stop  offset="0" style="stop-color:#7B7A00"/>
		<stop  offset="0.1019" style="stop-color:#8A8807"/>
		<stop  offset="0.5198" style="stop-color:#C1BC20"/>
		<stop  offset="0.8316" style="stop-color:#E3DD2F"/>
		<stop  offset="1" style="stop-color:#F0E935"/>
	</linearGradient>
	<path id="Пленка" class="st2" d="M38.23,21.15v107.18c0,0.93-0.76,1.69-1.69,1.69H4.7c-0.93,0-1.69-0.76-1.69-1.69V21.15
		c0-0.93,0.76-1.69,1.69-1.69h31.84C37.47,19.46,38.23,20.22,38.23,21.15z"/>
	<line class="st43" x1="62.06" y1="132.75" x2="80.34" y2="132.75"/>
	<path class="st45" d="M80.34,132.75c2.44,0,3.96,1.76,3.52,5"/>
</g>
</svg>
