<svg id="Слой_1" data-name="Слой 1" xmlns="http://www.w3.org/2000/svg" viewBox="0 0 293.61 356.3"><defs><style>.cls-1{fill:#2b2b2b;}.cls-10,.cls-11,.cls-12,.cls-13,.cls-2,.cls-3,.cls-5,.cls-7,.cls-8,.cls-9{fill:none;}.cls-2,.cls-7{stroke:#1d1d1b;}.cls-10,.cls-11,.cls-12,.cls-13,.cls-2,.cls-3,.cls-4,.cls-5,.cls-7,.cls-8,.cls-9{stroke-miterlimit:10;}.cls-2,.cls-3,.cls-4,.cls-5{stroke-width:0.71px;}.cls-3{stroke:#2b2b2b;}.cls-4{fill:#009fe3;stroke:#009fe3;}.cls-5{stroke:#fff;}.cls-6{fill:#fff;}.cls-7{stroke-width:17.01px;}.cls-8{stroke:#000;}.cls-10,.cls-11,.cls-12,.cls-13,.cls-8,.cls-9{stroke-width:2.83px;}.cls-9{stroke:#b2b2b2;}.cls-10{stroke:#008d36;}.cls-11{stroke:#d82133;}.cls-12{stroke:#e5d648;}.cls-13{stroke:#7d4e24;}</style></defs><g id="Маркировка"><rect class="cls-1" width="209.76" height="323.15" rx="14.17"/><line class="cls-2" x1="209.76" y1="36.85" x2="121.33" y2="125.29"/><line class="cls-2" x1="209.76" y1="42.52" x2="125.95" y2="126.34"/><line class="cls-2" x1="209.76" y1="48.19" x2="130.77" y2="127.19"/><line class="cls-2" x1="209.76" y1="53.86" x2="135.59" y2="128.03"/><line class="cls-2" x1="209.76" y1="59.53" x2="140.45" y2="128.84"/><line class="cls-2" x1="209.76" y1="65.2" x2="145.23" y2="129.73"/><line class="cls-2" x1="209.76" y1="70.87" x2="150.06" y2="130.57"/><line class="cls-2" x1="209.76" y1="76.54" x2="154.88" y2="131.42"/><line class="cls-2" x1="209.71" y1="82.25" x2="159.7" y2="132.27"/><line class="cls-2" x1="209.76" y1="87.87" x2="164.52" y2="133.12"/><line class="cls-2" x1="209.76" y1="93.54" x2="169.34" y2="133.96"/><line class="cls-2" x1="209.76" y1="99.21" x2="174.17" y2="134.81"/><line class="cls-2" x1="209.76" y1="104.88" x2="178.99" y2="135.66"/><line class="cls-2" x1="209.76" y1="110.55" x2="183.81" y2="136.5"/><line class="cls-2" x1="209.76" y1="116.22" x2="188.63" y2="137.35"/><line class="cls-2" x1="209.76" y1="121.89" x2="193.46" y2="138.2"/><line class="cls-2" x1="209.76" y1="127.56" x2="198.28" y2="139.05"/><line class="cls-2" x1="209.76" y1="133.23" x2="203.1" y2="139.89"/><line class="cls-2" x1="209.76" y1="138.9" x2="208.16" y2="140.5"/><line class="cls-2" x1="202.89" y1="38.06" x2="116.3" y2="124.64"/><line class="cls-2" x1="196.01" y1="39.27" x2="111.48" y2="123.8"/><line class="cls-2" x1="189.13" y1="40.48" x2="106.66" y2="122.95"/><line class="cls-2" x1="182.25" y1="41.68" x2="101.83" y2="122.1"/><line class="cls-2" x1="175.38" y1="42.89" x2="97.01" y2="121.26"/><line class="cls-2" x1="168.5" y1="44.1" x2="92.19" y2="120.41"/><line class="cls-2" x1="161.62" y1="45.31" x2="87.37" y2="119.56"/><line class="cls-2" x1="154.74" y1="46.52" x2="82.55" y2="118.71"/><line class="cls-2" x1="148.09" y1="47.5" x2="77.72" y2="117.87"/><line class="cls-2" x1="140.99" y1="48.93" x2="72.9" y2="117.02"/><line class="cls-2" x1="134.11" y1="50.14" x2="68.08" y2="116.17"/><line class="cls-2" x1="127.23" y1="51.35" x2="63.26" y2="115.33"/><line class="cls-2" x1="120.36" y1="52.56" x2="58.44" y2="114.48"/><line class="cls-2" x1="113.48" y1="53.77" x2="53.61" y2="113.63"/><line class="cls-2" x1="106.6" y1="54.97" x2="48.79" y2="112.78"/><line class="cls-2" x1="99.72" y1="56.18" x2="43.97" y2="111.94"/><line class="cls-2" x1="92.85" y1="57.39" x2="39.15" y2="111.09"/><line class="cls-2" x1="85.97" y1="58.6" x2="34.32" y2="110.24"/><line class="cls-2" x1="79.09" y1="59.81" x2="29.5" y2="109.4"/><line class="cls-2" x1="72.21" y1="61.01" x2="24.68" y2="108.55"/><line class="cls-2" x1="65.34" y1="62.22" x2="19.86" y2="107.7"/><line class="cls-2" x1="58.46" y1="63.43" x2="15.01" y2="106.88"/><line class="cls-2" x1="51.58" y1="64.64" x2="10.21" y2="106.01"/><line class="cls-2" x1="44.7" y1="65.85" x2="5.39" y2="105.16"/><line class="cls-2" x1="37.83" y1="67.06" x2="0.57" y2="104.31"/><line class="cls-2" x1="30.95" y1="68.26" y2="99.21"/><line class="cls-2" x1="23.81" y1="69.73" y2="93.54"/><line class="cls-2" x1="17.19" y1="70.68" y2="87.87"/><line class="cls-2" x1="10.32" y1="71.89" y2="82.2"/><line class="cls-2" x1="3.44" y1="73.1" y2="76.54"/><line class="cls-2" x1="209.76" y1="184.25" x2="121.33" y2="272.69"/><line class="cls-2" x1="209.76" y1="189.92" x2="125.95" y2="273.74"/><line class="cls-2" x1="209.76" y1="195.59" x2="130.77" y2="274.59"/><line class="cls-2" x1="209.76" y1="201.26" x2="135.59" y2="275.43"/><line class="cls-2" x1="209.76" y1="206.93" x2="140.45" y2="276.24"/><line class="cls-2" x1="209.76" y1="212.6" x2="145.23" y2="277.13"/><line class="cls-2" x1="209.76" y1="218.27" x2="150.06" y2="277.98"/><line class="cls-2" x1="209.76" y1="223.94" x2="154.88" y2="278.82"/><line class="cls-2" x1="209.71" y1="229.66" x2="159.7" y2="279.67"/><line class="cls-2" x1="209.76" y1="235.28" x2="164.52" y2="280.52"/><line class="cls-2" x1="209.76" y1="240.94" x2="169.34" y2="281.36"/><line class="cls-2" x1="209.76" y1="246.61" x2="174.17" y2="282.21"/><line class="cls-2" x1="209.76" y1="252.28" x2="178.99" y2="283.06"/><line class="cls-2" x1="209.76" y1="257.95" x2="183.81" y2="283.91"/><line class="cls-2" x1="209.76" y1="263.62" x2="188.63" y2="284.75"/><line class="cls-2" x1="209.76" y1="269.29" x2="193.46" y2="285.6"/><line class="cls-2" x1="209.76" y1="274.96" x2="198.28" y2="286.45"/><line class="cls-2" x1="209.76" y1="280.63" x2="203.1" y2="287.29"/><line class="cls-2" x1="209.76" y1="286.3" x2="208.16" y2="287.9"/><line class="cls-2" x1="202.89" y1="185.46" x2="116.3" y2="272.05"/><line class="cls-2" x1="196.01" y1="186.67" x2="111.48" y2="271.2"/><line class="cls-2" x1="189.13" y1="187.88" x2="106.66" y2="270.35"/><line class="cls-2" x1="182.25" y1="189.08" x2="101.83" y2="269.5"/><line class="cls-2" x1="175.38" y1="190.29" x2="97.01" y2="268.66"/><line class="cls-2" x1="168.5" y1="191.5" x2="92.19" y2="267.81"/><line class="cls-2" x1="161.62" y1="192.71" x2="87.37" y2="266.96"/><line class="cls-2" x1="154.74" y1="193.92" x2="82.55" y2="266.12"/><line class="cls-2" x1="148.09" y1="194.9" x2="77.72" y2="265.27"/><line class="cls-2" x1="140.99" y1="196.33" x2="72.9" y2="264.42"/><line class="cls-2" x1="134.11" y1="197.54" x2="68.08" y2="263.57"/><line class="cls-2" x1="127.23" y1="198.75" x2="63.26" y2="262.73"/><line class="cls-2" x1="120.36" y1="199.96" x2="58.44" y2="261.88"/><line class="cls-2" x1="113.48" y1="201.17" x2="53.61" y2="261.03"/><line class="cls-2" x1="106.6" y1="202.38" x2="48.79" y2="260.19"/><line class="cls-2" x1="99.72" y1="203.58" x2="43.97" y2="259.34"/><line class="cls-2" x1="92.85" y1="204.79" x2="39.15" y2="258.49"/><line class="cls-2" x1="85.97" y1="206" x2="34.32" y2="257.64"/><line class="cls-2" x1="79.09" y1="207.21" x2="29.5" y2="256.8"/><line class="cls-2" x1="72.21" y1="208.42" x2="24.68" y2="255.95"/><line class="cls-2" x1="65.34" y1="209.62" x2="19.86" y2="255.1"/><line class="cls-2" x1="58.46" y1="210.83" x2="15.01" y2="254.28"/><line class="cls-2" x1="51.58" y1="212.04" x2="10.21" y2="253.41"/><line class="cls-2" x1="44.7" y1="213.25" x2="5.39" y2="252.56"/><line class="cls-2" x1="37.83" y1="214.46" x2="0.57" y2="251.71"/><line class="cls-2" x1="30.95" y1="215.67" y2="246.61"/><line class="cls-2" x1="23.81" y1="217.13" y2="240.94"/><line class="cls-2" x1="17.19" y1="218.08" y2="235.28"/><line class="cls-2" x1="10.32" y1="219.29" y2="229.61"/><line class="cls-2" x1="3.44" y1="220.5" y2="223.94"/><rect class="cls-3" width="209.76" height="323.15" rx="14.17"/><polygon class="cls-4" points="209.76 34.84 172.91 41.06 177.18 36.02 209.76 30.51 209.76 34.84"/><rect class="cls-5" x="100.28" y="168.2" width="20.74" height="10.74" transform="translate(66.04 -27.38) rotate(20)"/><path class="cls-5" d="M93.4,148.62h0a14.16,14.16,0,0,0,0,12.95h0"/><path class="cls-5" d="M88,146h0a19.86,19.86,0,0,0,0,18.13h0"/><path class="cls-5" d="M82.84,142.15h0a28.37,28.37,0,0,0,0,25.9h0"/><path class="cls-5" d="M115.73,148.62h0a14.16,14.16,0,0,1,0,12.95h0"/><path class="cls-5" d="M121.09,146h0a19.86,19.86,0,0,1,0,18.13h0"/><path class="cls-5" d="M126.29,142.15h0a28.31,28.31,0,0,1,0,25.9h0"/><path class="cls-6" d="M105.65,173.73a2.42,2.42,0,0,1-1.06-.18,1.88,1.88,0,0,1-1.18-2.61,2,2,0,0,1,2.71-1.27,2.14,2.14,0,0,1,.84.5l-.27.35a1.88,1.88,0,0,0-.71-.43,1.5,1.5,0,0,0-2,1,1.47,1.47,0,0,0,.91,2.06,1.94,1.94,0,0,0,.85.13Z"/><path class="cls-6" d="M107.27,173.11l-.83,1-.5-.19,2.67-3.32.59.21-.08,4.27-.53-.19,0-1.34Zm1.39.07,0-1.23c0-.28,0-.52.06-.77h0l-.44.62-.78,1Z"/><path class="cls-6" d="M111,171.59a5.92,5.92,0,0,1,1,.26,1.62,1.62,0,0,1,1,.71,1,1,0,0,1,0,.83,1.06,1.06,0,0,1-1.07.71v0a1,1,0,0,1,.27,1,6.61,6.61,0,0,0-.08,1.15l-.51-.19a5.19,5.19,0,0,1,.08-1c.08-.56-.06-.83-.49-1l-.47-.17-.59,1.64-.5-.17Zm-.14,1.91.5.18a.8.8,0,0,0,1.12-.41c.18-.49-.1-.83-.62-1a2,2,0,0,0-.5-.13Z"/><path class="cls-6" d="M114.07,172.69a8.47,8.47,0,0,1,1.07.3,2.29,2.29,0,0,1,1.37,1,1.88,1.88,0,0,1,0,1.55,2.14,2.14,0,0,1-1.09,1.28,2.44,2.44,0,0,1-1.87-.06,9,9,0,0,1-.88-.37Zm-.73,3.54a3,3,0,0,0,.49.21,1.55,1.55,0,0,0,2.2-1,1.44,1.44,0,0,0-1-2,3.15,3.15,0,0,0-.59-.16Z"/><path class="cls-7" d="M104.88,323.15v9.2a15.32,15.32,0,0,0,15.32,15.32H247a15.32,15.32,0,0,0,15.32-15.32V287.1"/><path class="cls-8" d="M252.71,245.82V274.4a1.63,1.63,0,0,0,1.64,1.64h3.91a1.65,1.65,0,0,1,1.64,1.64v9.42"/><path class="cls-9" d="M272.49,245.82v28.9a1.33,1.33,0,0,1-1.33,1.32h-5.94a1.32,1.32,0,0,0-1.33,1.33v9.77"/><line class="cls-10" x1="262.34" y1="245.82" x2="262.34" y2="287.1"/><path class="cls-11" d="M243.29,245.84v28.58a1.64,1.64,0,0,0,1.64,1.64h10.92a1.63,1.63,0,0,1,1.63,1.64v9.42"/><path class="cls-12" d="M281.5,245.84v28.58a1.63,1.63,0,0,1-1.64,1.64H268a1.63,1.63,0,0,0-1.64,1.64v9.42"/><path class="cls-13" d="M290.54,245.75v28.58A1.64,1.64,0,0,1,288.9,276H270a1.64,1.64,0,0,0-1.64,1.64v9.51"/><path d="M246.3,238.72l-7.42,2.42v-1l3.65-1.16c1-.32,1.91-.59,2.78-.79v0c-.86-.21-1.8-.52-2.77-.85L238.88,236v-1l7.42,2.65Z"/><path d="M246.1,230.81a3.64,3.64,0,0,1,.31,1.53,2.54,2.54,0,0,1-2.72,2.66,2.71,2.71,0,0,1-2.83-2.87,3.12,3.12,0,0,1,.28-1.34l.74.22a2.28,2.28,0,0,0-.25,1.12,2,2,0,0,0,4,0,2.78,2.78,0,0,0-.27-1.19Z"/><path d="M246.1,226a3.64,3.64,0,0,1,.31,1.53,2.53,2.53,0,0,1-2.72,2.65,2.71,2.71,0,0,1-2.83-2.86,3.09,3.09,0,0,1,.28-1.34l.74.22a2.25,2.25,0,0,0-.25,1.12,2,2,0,0,0,4,0,2.74,2.74,0,0,0-.27-1.19Z"/><path d="M255.38,235.1a7,7,0,0,1,.41,2.28,3.49,3.49,0,0,1-3.74,3.81,3.72,3.72,0,0,1-3.83-4,4.67,4.67,0,0,1,.34-1.85l.78.23a3.83,3.83,0,0,0-.32,1.64,2.78,2.78,0,0,0,3,3,2.73,2.73,0,0,0,3-2.86,3.12,3.12,0,0,0-.2-1.28h-2.21v1.51h-.77V235.1Z"/><path d="M255.71,233.64H248.3v-1l3.75-2.38a20.68,20.68,0,0,1,2.41-1.33l0,0c-1,.09-1.89.11-3,.11h-3.1v-.9h7.41v1L252,231.4a22.14,22.14,0,0,1-2.48,1.38v0c.94-.06,1.83-.08,3.06-.08h3.17Z"/><path d="M248.39,226.4a14.8,14.8,0,0,1-.15-2,4.24,4.24,0,0,1,.92-3,3.44,3.44,0,0,1,2.67-1.05,3.89,3.89,0,0,1,2.88,1.07,4.57,4.57,0,0,1,1.07,3.28,16.47,16.47,0,0,1-.09,1.73Zm6.56-1a5.39,5.39,0,0,0,.06-1,2.85,2.85,0,0,0-3.15-3.16c-1.75,0-2.86,1-2.86,3a5.15,5.15,0,0,0,.1,1.12Z"/><path d="M258,240.75a15,15,0,0,1-.15-2,4.27,4.27,0,0,1,.92-3,3.44,3.44,0,0,1,2.67-1.05,3.93,3.93,0,0,1,2.88,1.07,4.58,4.58,0,0,1,1.07,3.28,16.84,16.84,0,0,1-.09,1.74Zm6.56-1a5.33,5.33,0,0,0,.06-1,2.85,2.85,0,0,0-3.15-3.15c-1.75,0-2.86,1-2.86,3a5.09,5.09,0,0,0,.1,1.12Z"/><path d="M261.69,229c2.43,0,3.77.9,3.77,2.49,0,1.39-1.31,2.34-3.67,2.36s-3.72-1-3.72-2.48S259.41,229,261.69,229Zm.11,3.88c1.86,0,2.91-.57,2.91-1.45s-1.15-1.46-3-1.46-2.91.45-2.91,1.45C258.82,232.28,259.85,232.89,261.8,232.89Z"/><path d="M268.17,240.75a13.51,13.51,0,0,1-.15-2,4.27,4.27,0,0,1,.92-3,3.43,3.43,0,0,1,2.66-1.05,4,4,0,0,1,2.89,1.07,4.58,4.58,0,0,1,1.06,3.28,17.14,17.14,0,0,1-.08,1.74Zm6.56-1a6.6,6.6,0,0,0,0-1,2.84,2.84,0,0,0-3.14-3.15c-1.75,0-2.86,1-2.86,3a5.09,5.09,0,0,0,.1,1.12Z"/><path d="M269.24,231.66v0l.67,1.25-.74.18-.83-1.56v-.82h7.15v.93Z"/><path d="M277.18,240.75A10.09,10.09,0,0,1,277,239a3.11,3.11,0,0,1,.54-2,1.57,1.57,0,0,1,1.31-.61,1.76,1.76,0,0,1,1.63,1.25h0a1.92,1.92,0,0,1,1.86-1.53,2,2,0,0,1,1.48.63,3.68,3.68,0,0,1,.7,2.56,12,12,0,0,1-.09,1.49Zm3-1v-.87c0-1-.53-1.6-1.24-1.6-.87,0-1.21.66-1.21,1.62a4.51,4.51,0,0,0,.06.85Zm3.55,0a4.27,4.27,0,0,0,.05-.8c0-1-.36-1.91-1.44-1.91S281,238,281,239v.79Z"/><path d="M281,231v2.88h2.68v-3.21h.8v4.17h-7.41v-4h.8v3.05h2.34V231Z"/><path d="M281,225.53v2.89h2.68V225.2h.8v4.17h-7.41v-4h.8v3h2.34v-2.89Z"/><path d="M277.17,224a12,12,0,0,1-.14-1.84,3,3,0,0,1,.62-2.07,2,2,0,0,1,1.55-.65,2.14,2.14,0,0,1,1.58.57,3.05,3.05,0,0,1,.82,2.26,3.14,3.14,0,0,1-.07.78h3v1Zm3.58-1a3.53,3.53,0,0,0,.08-.8c0-1.15-.56-1.86-1.59-1.86s-1.45.7-1.45,1.75a3.74,3.74,0,0,0,.08.91Z"/><path d="M286.13,240.75v-1h6.61v-3.17h.8v4.13Z"/><path d="M290.06,231.72v2.88h2.68v-3.21h.8v4.17h-7.41v-4h.8v3h2.34v-2.88Z"/><path d="M286.22,230.14a14.8,14.8,0,0,1-.15-2,4.25,4.25,0,0,1,.92-3,3.44,3.44,0,0,1,2.67-1.05,3.89,3.89,0,0,1,2.88,1.07,4.58,4.58,0,0,1,1.07,3.28,16.47,16.47,0,0,1-.09,1.73Zm6.56-.95a5.39,5.39,0,0,0,.06-1,2.85,2.85,0,0,0-3.15-3.16c-1.75,0-2.86,1-2.86,3a5.15,5.15,0,0,0,.1,1.12Z"/></g></svg>